<svg xmlns="http://www.w3.org/2000/svg" xmlns:xlink="http://www.w3.org/1999/xlink" version="1.1"><metadata/><defs><font id="ali_nastaliqregular" horiz-adv-x="0"><font-face ascent="1638" descent="-410" units-per-em="2048"/><glyph d="M444 137q-7 24 -8 44.5t4 34t16.5 18t28.5 -5.5q39 -22 87 -30t97 -3t95.5 21.5t82.5 43t58 61.5t23 78q3 157 -3 330t-10 353q0 15 9 50t21 75.5t24 78t18 56.5q8 22 19.5 21.5t9.5 -29.5q-2 -123 -0.5 -243.5t1.5 -232t-3 -212t-14 -184.5q-6 -48 -21 -100.5t-38 -104 t-54.5 -98t-71.5 -81.5t-89 -56.5t-107 -21.5q-29 0 -56 7.5t-50 24t-41 42.5t-28 63zM664 1147q-7 -87 -6 -178t2.5 -182t-0.5 -180.5t-14 -174.5q-7 -51 -20 -102.5t-36 -108.5q-4 -9 -10.5 -22t-13 -24t-13 -18.5t-9.5 -7.5q-5 1 -4.5 9.5t2.5 22t5 30.5t5 35 q9 86 11.5 170t2 167t-3 167t-5.5 171q0 14 8.5 48.5t20.5 73.5t23.5 75.5t17.5 54.5q4 15 12.5 25t15.5 9.5t10.5 -14.5t-1.5 -46zM987 1745q8 16 19 22.5t19 3.5t11.5 -15.5t-3.5 -33.5q-36 -108 -93 -190t-129.5 -131t-158 -61t-179.5 20q-57 19 -96.5 23t-72 -9.5 t-63 -45t-68.5 -82.5q-11 -15 -21.5 -19t-17.5 1t-8 16.5t7 28.5q40 81 84.5 153t95.5 120t109 65.5t126 -9.5q29 -12 66 -20.5t77 -10.5t82 5.5t81 27.5t73 54t60 87z" arabic-form="isolated" horiz-adv-x="1165" unicode="ﻟﺂ"/><glyph d="M656 1147q-6 -87 -5 -178l2 -182t-1 -180.5t-14 -174.5q-13 -100 -55 -210q-4 -9 -10.5 -22t-13.5 -24t-13 -19t-10 -7q-5 0 -4.5 9t2.5 22.5t5.5 30.5t5.5 34q8 87 11 170.5t2.5 167t-3.5 167.5t-6 171q0 14 8.5 48t20.5 73.5t23.5 76t17.5 54.5q5 15 13 24.5t15 9 t10.5 -14.5t-1.5 -46zM977 385q-16 -68 -46.5 -136t-76 -123t-106.5 -90t-137 -36q-58 0 -106 31.5t-70 105.5q-7 24 -7.5 45t4.5 34.5t16 18t28 -5.5q59 -32 133 -35q61 -2 116.5 11.5t99 43.5t71 77.5t30.5 112.5q4 76 2 153.5t-5 157.5t-6.5 162.5t-2.5 166.5q0 15 9 50 t21 75.5t24.5 77.5t18.5 56q7 22 18.5 22t10.5 -29q-4 -135 -8.5 -265.5t0.5 -250.5q3 -50 10 -99.5t31 -94.5q10 -18 25 -31.5t32.5 -21.5t36.5 -12t38 -4q3 0 7 -2q15 -8 19.5 -46.5t-3.5 -90.5q-8 -48 -23.5 -84t-31.5 -49q-7 -5 -14 -5q-55 0 -97 32.5t-61 77.5z M987 1778q8 16 19 22.5t19 3.5t11.5 -15.5t-3.5 -33.5q-36 -108 -93 -190t-129.5 -131t-158 -61t-179.5 20q-57 19 -96.5 23t-72 -9.5t-63 -45t-68.5 -82.5q-11 -15 -21.5 -19t-17.5 1t-8 16.5t7 28.5q40 81 84.5 153t95.5 120t109 65.5t126 -9.5q29 -12 66 -20.5t77 -10.5 t82 5.5t81 27.5t73 54t60 87z" arabic-form="final" horiz-adv-x="1181" unicode="ﻠﺂ"/><glyph d="M179 137q-7 24 -8 44.5t4 34t16.5 18t28.5 -5.5q39 -22 87 -30t97 -3t95.5 21.5t82.5 43t58 61.5t23 78q3 157 -3 330t-10 353q0 15 9 50t21 75.5t24 78t18 56.5q8 22 19.5 21.5t9.5 -29.5q-2 -123 -0.5 -243.5t1.5 -232t-3 -212t-14 -184.5q-6 -48 -21 -100.5t-38 -104 t-54.5 -98t-71.5 -81.5t-89 -56.5t-107 -21.5q-29 0 -56 7.5t-50 24t-41 42.5t-28 63zM399 1147q-7 -87 -6 -178t2.5 -182t-0.5 -180.5t-14 -174.5q-7 -51 -20 -102.5t-36 -108.5q-4 -9 -10.5 -22t-13 -24t-13 -18.5t-9.5 -7.5q-5 1 -4.5 9.5t2.5 22t5 30.5t5 35 q9 86 11.5 170t2 167t-3 167t-5.5 171q0 14 8.5 48.5t20.5 73.5t23.5 75.5t17.5 54.5q4 15 12.5 25t15.5 9.5t10.5 -14.5t-1.5 -46zM577 1670q9 -1 8 -18.5t-7.5 -42t-17 -50.5t-20.5 -43q-8 -12 -13.5 -16t-12 -4.5t-14 1.5t-19.5 3q-33 1 -55.5 -18t-39 -47t-28.5 -60 l-21 -56q-13 -31 -28.5 -58.5t-34.5 -46.5q-14 -13 -34 -22t-40.5 -10.5t-39.5 6t-31 27.5q-4 5 -3.5 18.5t4 29.5t9 33t12 30t14 20t13.5 3q18 -10 35.5 -15t34.5 -1q21 3 38.5 16.5t31 31.5t24 39t17.5 39q23 54 43.5 95.5t47.5 69.5t59.5 39t67.5 7z" arabic-form="isolated" horiz-adv-x="878" unicode="ﻟﺄ"/><glyph d="M390 1147q-6 -87 -5 -178l2 -182t-1 -180.5t-14 -174.5q-13 -100 -55 -210q-4 -9 -10.5 -22t-13.5 -24t-13 -19t-10 -7q-5 0 -4.5 9t2.5 22.5t5.5 30.5t5.5 34q8 87 11 170.5t2.5 167t-3.5 167.5t-6 171q0 14 8.5 48t20.5 73.5t23.5 76t17.5 54.5q5 15 13 24.5t15 9 t10.5 -14.5t-1.5 -46zM711 385q-16 -68 -46.5 -136t-76 -123t-106.5 -90t-137 -36q-58 0 -106 31.5t-70 105.5q-7 24 -7.5 45t4.5 34.5t16 18t28 -5.5q59 -32 133 -35q61 -2 116.5 11.5t99 43.5t71 77.5t30.5 112.5q4 76 2 153.5t-5 157.5t-6.5 162.5t-2.5 166.5q0 15 9 50 t21 75.5t24.5 77.5t18.5 56q7 22 18.5 22t10.5 -29q-4 -135 -8.5 -265.5t0.5 -250.5q3 -50 10 -99.5t31 -94.5q10 -18 25 -31.5t32.5 -21.5t36.5 -12t38 -4q3 0 7 -2q15 -8 19.5 -46.5t-3.5 -90.5q-8 -48 -23.5 -84t-31.5 -49q-7 -5 -14 -5q-55 0 -97 32.5t-61 77.5z M577 1658q9 -1 8 -18.5t-7.5 -42t-17 -50.5t-20.5 -43q-8 -12 -13.5 -16t-12 -4.5t-14 1.5t-19.5 3q-33 1 -55.5 -18t-39 -47t-28.5 -60l-21 -56q-13 -31 -28.5 -58.5t-34.5 -46.5q-14 -13 -34 -22t-40.5 -10.5t-39.5 6t-31 27.5q-4 5 -3.5 18.5t4 29.5t9 33t12 30t14 20 t13.5 3q18 -10 35.5 -15t34.5 -1q21 3 38.5 16.5t31 31.5t24 39t17.5 39q23 54 43.5 95.5t47.5 69.5t59.5 39t67.5 7z" arabic-form="final" horiz-adv-x="915" unicode="ﻠﺄ"/><glyph d="M167 137q-7 24 -8 44.5t4 34t16.5 18t28.5 -5.5q39 -22 87 -30t97 -3t95.5 21.5t82.5 43t58 61.5t23 78q3 157 -3 330t-10 353q0 15 9 50t21 75.5t24 78t18 56.5q8 22 19.5 21.5t9.5 -29.5q-2 -123 -0.5 -243.5t1.5 -232t-3 -212t-14 -184.5q-6 -48 -21 -100.5t-38 -104 t-54.5 -98t-71.5 -81.5t-89 -56.5t-107 -21.5q-29 0 -56 7.5t-50 24t-41 42.5t-28 63zM387 1147q-7 -87 -6 -178t2.5 -182t-0.5 -180.5t-14 -174.5q-7 -51 -20 -102.5t-36 -108.5q-4 -9 -10.5 -22t-13 -24t-13 -18.5t-9.5 -7.5q-5 1 -4.5 9.5t2.5 22t5 30.5t5 35 q9 86 11.5 170t2 167t-3 167t-5.5 171q0 14 8.5 48.5t20.5 73.5t23.5 75.5t17.5 54.5q4 15 12.5 25t15.5 9.5t10.5 -14.5t-1.5 -46zM577 20q9 -1 8 -18.5t-7.5 -42t-17 -50.5t-20.5 -43q-8 -12 -13.5 -16t-12 -4.5t-14 1.5t-19.5 3q-33 1 -55.5 -18t-39 -47t-28.5 -60 l-21 -56q-13 -31 -28.5 -58.5t-34.5 -46.5q-14 -13 -34 -22t-40.5 -10.5t-39.5 6t-31 27.5q-4 5 -3.5 18.5t4 29.5t9 33t12 30t14 20t13.5 3q18 -10 35.5 -15t34.5 -1q21 3 38.5 16.5t31 31.5t24 39t17.5 39q23 54 43.5 95.5t47.5 69.5t59.5 39t67.5 7z" arabic-form="isolated" horiz-adv-x="866" unicode="ﻟﺈ"/><glyph d="M390 1147q-6 -87 -5 -178l2 -182t-1 -180.5t-14 -174.5q-13 -100 -55 -210q-4 -9 -10.5 -22t-13.5 -24t-13 -19t-10 -7q-5 0 -4.5 9t2.5 22.5t5.5 30.5t5.5 34q8 87 11 170.5t2.5 167t-3.5 167.5t-6 171q0 14 8.5 48t20.5 73.5t23.5 76t17.5 54.5q5 15 13 24.5t15 9 t10.5 -14.5t-1.5 -46zM711 385q-16 -68 -46.5 -136t-76 -123t-106.5 -90t-137 -36q-58 0 -106 31.5t-70 105.5q-7 24 -7.5 45t4.5 34.5t16 18t28 -5.5q59 -32 133 -35q61 -2 116.5 11.5t99 43.5t71 77.5t30.5 112.5q4 76 2 153.5t-5 157.5t-6.5 162.5t-2.5 166.5q0 15 9 50 t21 75.5t24.5 77.5t18.5 56q7 22 18.5 22t10.5 -29q-4 -135 -8.5 -265.5t0.5 -250.5q3 -50 10 -99.5t31 -94.5q10 -18 25 -31.5t32.5 -21.5t36.5 -12t38 -4q3 0 7 -2q15 -8 19.5 -46.5t-3.5 -90.5q-8 -48 -23.5 -84t-31.5 -49q-7 -5 -14 -5q-55 0 -97 32.5t-61 77.5zM577 1 q9 -1 8 -18.5t-7.5 -42t-17 -50.5t-20.5 -43q-8 -12 -13.5 -16t-12 -4.5t-14 1.5t-19.5 3q-33 1 -55.5 -18t-39 -47t-28.5 -60l-21 -56q-13 -31 -28.5 -58.5t-34.5 -46.5q-14 -13 -34 -22t-40.5 -10.5t-39.5 6t-31 27.5q-4 5 -3.5 18.5t4 29.5t9 33t12 30t14 20t13.5 3 q18 -10 35.5 -15t34.5 -1q21 3 38.5 16.5t31 31.5t24 39t17.5 39q23 54 43.5 95.5t47.5 69.5t59.5 39t67.5 7z" arabic-form="final" horiz-adv-x="915" unicode="ﻠﺈ"/><glyph d="M134 130q-7 23 -8 43.5t4 34t16 17.5t28 -5q14 -8 29 -13.5t31 -10.5q4 19 6 40q8 85 9.5 165t-1 159t-7 159t-7.5 165q0 9 5 30.5t13 49.5t18.5 59.5l20 60t17 52t11.5 35.5q4 15 12.5 19.5t15.5 1t10.5 -14t-0.5 -25.5q-2 -24 -5 -54t-5.5 -61.5t-4.5 -61.5t-1 -54 q3 -124 5 -252.5t-14 -247.5q-7 -49 -20 -101t-35 -107q-2 -5 -4.5 -11t-6.5 -12q43 -7 89 -3.5t87.5 18.5t76.5 42.5t56 69.5q25 48 31.5 106.5t5.5 130.5q-1 54 -4.5 116.5t-7 127.5t-6 130.5t-0.5 125.5q0 9 5.5 29.5t14.5 47t20 55.5t21.5 56t19 49.5t12.5 34.5 q3 10 10.5 15.5t15 4.5t13 -8t4.5 -21q-20 -89 -24 -252q-2 -71 -1 -135.5t2.5 -126t1 -120.5t-7 -119.5t-20.5 -124t-40 -133.5q-15 -42 -34.5 -83t-45 -77.5t-58 -66.5t-74.5 -51q-41 -21 -87 -26.5t-87.5 6.5t-74 42t-46.5 80z" arabic-form="isolated" horiz-adv-x="856" unicode="ﻟﺎ"/><glyph d="M354 1147q-6 -87 -5 -178l2 -182t-1 -180.5t-14 -174.5q-13 -100 -55 -210q-4 -9 -10.5 -22t-13.5 -24t-13 -19t-10 -7q-5 0 -4.5 9t2.5 22.5t5.5 30.5t5.5 34q8 87 11 170.5t2.5 167t-3.5 167.5t-6 171q0 14 8.5 48t20.5 73.5t23.5 76t17.5 54.5q5 15 13 24.5t15 9 t10.5 -14.5t-1.5 -46zM675 385q-16 -68 -46.5 -136t-76 -123t-106.5 -90t-137 -36q-58 0 -106 31.5t-70 105.5q-7 24 -7.5 45t4.5 34.5t16 18t28 -5.5q59 -32 133 -35q61 -2 116.5 11.5t99 43.5t71 77.5t30.5 112.5q4 76 2 153.5t-5 157.5t-6.5 162.5t-2.5 166.5q0 15 9 50 t21 75.5t24.5 77.5t18.5 56q7 22 18.5 22t10.5 -29q-4 -135 -8.5 -265.5t0.5 -250.5q3 -50 10 -99.5t31 -94.5q10 -18 25 -31.5t32.5 -21.5t36.5 -12t38 -4q3 0 7 -2q15 -8 19.5 -46.5t-3.5 -90.5q-8 -48 -23.5 -84t-31.5 -49q-7 -5 -14 -5q-55 0 -97 32.5t-61 77.5z" arabic-form="final" horiz-adv-x="879" unicode="ﻠﺎ"/><glyph d="M367 1147q-6 -87 -5 -178l2 -182t-1 -180.5t-14 -174.5q-13 -100 -55 -210q-4 -9 -10.5 -22t-13.5 -24t-13 -19t-10 -7q-5 0 -4.5 9t2.5 22.5t5.5 30.5t5.5 34q8 87 11 170.5t2.5 167t-3.5 167.5t-6 171q0 14 8.5 48t20.5 73.5t23.5 76t17.5 54.5q5 15 13 24.5t15 9 t10.5 -14.5t-1.5 -46zM688 385q-16 -68 -46.5 -136t-76 -123t-106.5 -90t-137 -36q-58 0 -106 31.5t-70 105.5q-7 24 -7.5 45t4.5 34.5t16 18t28 -5.5q59 -32 133 -35q61 -2 116.5 11.5t99 43.5t71 77.5t30.5 112.5q4 76 2 153.5t-5 157.5t-6.5 162.5t-2.5 166.5q0 15 9 50 t21 75.5t24.5 77.5t18.5 56q7 22 18.5 22t10.5 -29q-4 -135 -8.5 -265.5t0.5 -250.5q3 -50 10 -99.5t31 -94.5q10 -18 25 -31.5t32.5 -21.5t36.5 -12t38 -4q3 0 7 -2q15 -8 19.5 -46.5t-3.5 -90.5q-8 -48 -23.5 -84t-31.5 -49q-7 -5 -14 -5q-55 0 -97 32.5t-61 77.5z M249 1412q19 -1 43.5 2.5t49 12t45 20.5t32.5 29q11 16 11.5 31t-6.5 26t-20 16t-29 0t-32.5 -21.5t-32.5 -37.5t-31.5 -42.5t-29.5 -35.5zM161 1184q-4 -24 -11 -35t-13 -10.5t-9 11t1 30.5q5 53 6 104t-2 103q-1 11 1.5 20.5t6.5 15.5q7 11 16 4q12 -7 28.5 -9.5 t30.5 -3.5q26 26 53 63.5t54 75.5q10 14 24 28.5t30.5 24.5t35 11.5t36.5 -11.5q14 -10 18.5 -26t2.5 -35q-2 -39 -21 -79.5t-48 -74.5q-42 -51 -102.5 -74.5t-125.5 -21.5q-3 -54 -12 -111z" horiz-adv-x="892" unicode="ﻠﭑ"/><glyph d="M134 137q-7 24 -8 44.5t4 34t16.5 18t28.5 -5.5q39 -22 87 -30t97 -3t95.5 21.5t82.5 43t58 61.5t23 78q3 157 -3 330t-10 353q0 15 9 50t21 75.5t24 78t18 56.5q8 22 19.5 21.5t9.5 -29.5q-2 -123 -0.5 -243.5t1.5 -232t-3 -212t-14 -184.5q-6 -48 -21 -100.5t-38 -104 t-54.5 -98t-71.5 -81.5t-89 -56.5t-107 -21.5q-29 0 -56 7.5t-50 24t-41 42.5t-28 63zM354 1147q-7 -87 -6 -178t2.5 -182t-0.5 -180.5t-14 -174.5q-7 -51 -20 -102.5t-36 -108.5q-4 -9 -10.5 -22t-13 -24t-13 -18.5t-9.5 -7.5q-5 1 -4.5 9.5t2.5 22t5 30.5t5 35 q9 86 11.5 170t2 167t-3 167t-5.5 171q0 14 8.5 48.5t20.5 73.5t23.5 75.5t17.5 54.5q4 15 12.5 25t15.5 9.5t10.5 -14.5t-1.5 -46zM286 1412q19 -1 43.5 2.5t49 12t45 20.5t32.5 29q11 16 11.5 31t-6.5 26t-20 16t-29 0t-32.5 -21.5t-32.5 -37.5t-31.5 -42.5t-29.5 -35.5z M198 1184q-4 -24 -11 -35t-13 -10.5t-9 11t1 30.5q5 53 6 104t-2 103q-1 11 1.5 20.5t6.5 15.5q7 11 16 4q12 -7 28.5 -9.5t30.5 -3.5q26 26 53 63.5t54 75.5q10 14 24 28.5t30.5 24.5t35 11.5t36.5 -11.5q14 -10 18.5 -26t2.5 -35q-2 -39 -21 -79.5t-48 -74.5 q-42 -51 -102.5 -74.5t-125.5 -21.5q-3 -54 -12 -111z" horiz-adv-x="833" unicode="ﻟﭑ"/><glyph d="M404 1147q-6 -87 -5 -178l2 -182t-1 -180.5t-14 -174.5q-13 -100 -55 -210q-4 -9 -10.5 -22t-13.5 -24t-13 -19t-10 -7q-5 0 -4.5 9t2.5 22.5t5.5 30.5t5.5 34q8 87 11 170.5t2.5 167t-3.5 167.5t-6 171q0 14 8.5 48t20.5 73.5t23.5 76t17.5 54.5q5 15 13 24.5t15 9 t10.5 -14.5t-1.5 -46zM725 385q-16 -68 -46.5 -136t-76 -123t-106.5 -90t-137 -36q-58 0 -106 31.5t-70 105.5q-7 24 -7.5 45t4.5 34.5t16 18t28 -5.5q59 -32 133 -35q61 -2 116.5 11.5t99 43.5t71 77.5t30.5 112.5q4 76 2 153.5t-5 157.5t-6.5 162.5t-2.5 166.5q0 15 9 50 t21 75.5t24.5 77.5t18.5 56q7 22 18.5 22t10.5 -29q-4 -135 -8.5 -265.5t0.5 -250.5q3 -50 10 -99.5t31 -94.5q10 -18 25 -31.5t32.5 -21.5t36.5 -12t38 -4q3 0 7 -2q15 -8 19.5 -46.5t-3.5 -90.5q-8 -48 -23.5 -84t-31.5 -49q-7 -5 -14 -5q-55 0 -97 32.5t-61 77.5z M148 1383q-12 -5 -9.5 5t10.5 24l6 12t8.5 16t9 14.5t7.5 8.5q35 20 79.5 42.5t90.5 45.5t89.5 44t77.5 38q5 2 8 0t0 -7q-17 -34 -31.5 -56t-19.5 -24zM133 1230l328 162q5 2 19.5 24.5t31.5 56.5q2 5 -0.5 7t-7.5 0q-34 -17 -77.5 -38.5t-89.5 -44t-90.5 -45t-79.5 -42.5 q-3 -2 -8 -8.5t-9.5 -15t-8.5 -16t-6 -11.5q-3 -7 -6 -13.5t-3.5 -11t1 -6t6.5 1.5z" horiz-adv-x="929" unicode="ﻠﴼ"/><glyph d="M134 137q-7 24 -8 44.5t4 34t16.5 18t28.5 -5.5q39 -22 87 -30t97 -3t95.5 21.5t82.5 43t58 61.5t23 78q3 157 -3 330t-10 353q0 15 9 50t21 75.5t24 78t18 56.5q8 22 19.5 21.5t9.5 -29.5q-2 -123 -0.5 -243.5t1.5 -232t-3 -212t-14 -184.5q-6 -48 -21 -100.5t-38 -104 t-54.5 -98t-71.5 -81.5t-89 -56.5t-107 -21.5q-29 0 -56 7.5t-50 24t-41 42.5t-28 63zM354 1147q-7 -87 -6 -178t2.5 -182t-0.5 -180.5t-14 -174.5q-7 -51 -20 -102.5t-36 -108.5q-4 -9 -10.5 -22t-13 -24t-13 -18.5t-9.5 -7.5q-5 1 -4.5 9.5t2.5 22t5 30.5t5 35 q9 86 11.5 170t2 167t-3 167t-5.5 171q0 14 8.5 48.5t20.5 73.5t23.5 75.5t17.5 54.5q4 15 12.5 25t15.5 9.5t10.5 -14.5t-1.5 -46zM148 1383q-12 -5 -9.5 5t10.5 24l6 12t8.5 16t9 14.5t7.5 8.5q35 20 79.5 42.5t90.5 45.5t89.5 44t77.5 38q5 2 8 0t0 -7q-17 -34 -31.5 -56 t-19.5 -24zM133 1230l328 162q5 2 19.5 24.5t31.5 56.5q2 5 -0.5 7t-7.5 0q-34 -17 -77.5 -38.5t-89.5 -44t-90.5 -45t-79.5 -42.5q-3 -2 -8 -8.5t-9.5 -15t-8.5 -16t-6 -11.5q-3 -7 -6 -13.5t-3.5 -11t1 -6t6.5 1.5z" horiz-adv-x="833" unicode="ﻟﴼ"/><glyph d="M219 491q1 -59 13.5 -100t32.5 -66.5t45.5 -37t53.5 -11.5q34 -1 68 11.5t61.5 32.5t44.5 45t18 51q-5 34 -25 61t-50 45t-66 26t-72 4.5t-68.5 -18.5t-55.5 -43zM209 730q60 38 119 51.5t112 6.5t96 -32.5t71 -64.5q36 -52 35.5 -121.5t-24.5 -167.5q-9 -36 -23 -80 t-33.5 -88.5t-45 -86.5t-55.5 -75t-65.5 -52.5t-76.5 -19.5t-74 21.5t-56 58.5t-37 84.5t-18 100.5q-6 85 -7.5 190t-1 214.5t2.5 216.5t3 197q0 17 9 51.5t21.5 72.5t25 73.5t18.5 54.5q3 10 8.5 16t11 5t9 -10t3.5 -28q-5 -91 -10 -166.5t-9 -144.5t-6.5 -136.5 t-2.5 -140.5zM887 1315q-77 -82 -160.5 -155t-164.5 -141.5t-155.5 -134.5t-135.5 -132q-23 -24 -43 -48.5t-37 -50.5q-6 -5 -7.5 1t0 17.5t5 26t7.5 26.5q24 70 79.5 143t129.5 147t159.5 148.5t169.5 149t160 147.5t130 144q6 5 10.5 3.5t6.5 -6.5t2 -12t-3 -12 q-13 -21 -29.5 -53t-36 -68t-41.5 -73t-46 -67z" horiz-adv-x="491" unicode="ﮑﺎ"/><glyph d="M219 492q1 -59 13.5 -100t32.5 -66.5t45.5 -37t53.5 -11.5q34 -1 68 11.5t61 32.5t44.5 45t17.5 51q-5 34 -25 61t-49.5 44.5t-65.5 25.5t-72 5t-68.5 -18t-55.5 -43zM883 1316q-75 -80 -155.5 -151.5t-159.5 -138t-153 -131t-135 -128.5q51 20 99 23.5t91 -7t78 -34 t59 -57.5q35 -52 34.5 -121.5t-23.5 -167.5q-9 -37 -23.5 -81t-34 -89t-44.5 -87t-55.5 -74.5t-66 -52t-76.5 -19.5q-42 0 -74.5 21.5t-55.5 58.5t-36.5 85t-17.5 101q-6 85 -7.5 189.5t-1 213.5t2.5 215.5t3 196.5q0 17 9.5 51.5t21.5 72.5t24.5 73.5t18.5 55.5 q3 10 8.5 15.5t11 4.5t9 -10t3.5 -28q-5 -86 -9.5 -158t-9 -137.5t-7.5 -128.5t-4 -130q32 68 90 138t131 141t155.5 142t162 142t151 141t123.5 138q6 5 10.5 3.5t7 -7t2 -12.5t-3.5 -13q-13 -20 -29.5 -51.5t-36 -67.5t-41.5 -73t-46 -67z" horiz-adv-x="840" unicode="ﮐﺎ"/><glyph d="M219 491q1 -59 13.5 -100t32.5 -66.5t45.5 -37t53.5 -11.5q34 -1 68 11.5t61.5 32.5t44.5 45t18 51q-5 34 -25 61t-50 45t-66 26t-72 4.5t-68.5 -18.5t-55.5 -43zM209 730q60 38 119 51.5t112 6.5t96 -32.5t71 -64.5q36 -52 35.5 -121.5t-24.5 -167.5q-9 -36 -23 -80 t-33.5 -88.5t-45 -86.5t-55.5 -75t-65.5 -52.5t-76.5 -19.5t-74 21.5t-56 58.5t-37 84.5t-18 100.5q-6 85 -7.5 190t-1 214.5t2.5 216.5t3 197q0 17 9 51.5t21.5 72.5t25 73.5t18.5 54.5q3 10 8.5 16t11 5t9 -10t3.5 -28q-5 -91 -10 -166.5t-9 -144.5t-6.5 -136.5 t-2.5 -140.5zM887 1315q-77 -82 -160.5 -155t-164.5 -141.5t-155.5 -134.5t-135.5 -132q-23 -24 -43 -48.5t-37 -50.5q-6 -5 -7.5 1t0 17.5t5 26t7.5 26.5q24 70 79.5 143t129.5 147t159.5 148.5t169.5 149t160 147.5t130 144q6 5 10.5 3.5t6.5 -6.5t2 -12t-3 -12 q-13 -21 -29.5 -53t-36 -68t-41.5 -73t-46 -67zM877 1637q-64 -64 -135 -125.5t-141.5 -122.5t-135 -122.5t-114.5 -125.5q-5 -6 -11.5 -7t-11 2.5t-5.5 11t5 19.5q11 21 19.5 43.5t18.5 45.5t22 45t29 42q63 74 129.5 133.5t134.5 115.5t137 116t139 136q5 6 9.5 4.5 t7.5 -6t4 -12t-2 -13.5q-11 -21 -20 -39.5t-19.5 -39t-24.5 -45t-35 -56.5z" horiz-adv-x="491" unicode="ﮕﺎ"/><glyph d="M219 492q1 -59 13.5 -100t32.5 -66.5t45.5 -37t53.5 -11.5q34 -1 68 11.5t61 32.5t44.5 45t17.5 51q-5 34 -25 61t-49.5 44.5t-65.5 25.5t-72 5t-68.5 -18t-55.5 -43zM883 1316q-75 -80 -155.5 -151.5t-159.5 -138t-153 -131t-135 -128.5q51 20 99 23.5t91 -7t78 -34 t59 -57.5q35 -52 34.5 -121.5t-23.5 -167.5q-9 -37 -23.5 -81t-34 -89t-44.5 -87t-55.5 -74.5t-66 -52t-76.5 -19.5q-42 0 -74.5 21.5t-55.5 58.5t-36.5 85t-17.5 101q-6 85 -7.5 189.5t-1 213.5t2.5 215.5t3 196.5q0 17 9.5 51.5t21.5 72.5t24.5 73.5t18.5 55.5 q3 10 8.5 15.5t11 4.5t9 -10t3.5 -28q-5 -86 -9.5 -158t-9 -137.5t-7.5 -128.5t-4 -130q32 68 90 138t131 141t155.5 142t162 142t151 141t123.5 138q6 5 10.5 3.5t7 -7t2 -12.5t-3.5 -13q-13 -20 -29.5 -51.5t-36 -67.5t-41.5 -73t-46 -67zM877 1637q-64 -64 -135 -125.5 t-141.5 -122.5t-135 -122.5t-114.5 -125.5q-5 -6 -11.5 -7t-11 2.5t-5.5 11t5 19.5q11 21 19.5 43.5t18.5 45.5t22 45t29 42q63 74 129.5 133.5t134.5 115.5t137 116t139 136q5 6 9.5 4.5t7.5 -6t4 -12t-2 -13.5q-11 -21 -20 -39.5t-19.5 -39t-24.5 -45t-35 -56.5z" horiz-adv-x="840" unicode="ﮔﺎ"/><glyph d="M521 491q1 -59 13.5 -100t32.5 -66.5t45.5 -37t53.5 -11.5q34 -1 68 11.5t61.5 32.5t44.5 45t18 51q-5 34 -25 61t-50 45t-66 26t-72 4.5t-68.5 -18.5t-55.5 -43zM511 730q60 38 119 51.5t112 6.5t96 -32.5t71 -64.5q36 -52 35.5 -121.5t-24.5 -167.5q-9 -36 -23 -80 t-33.5 -88.5t-45 -86.5t-55.5 -75t-65.5 -52.5t-76.5 -19.5t-74 21.5t-56 58.5t-37 84.5t-18 100.5q-6 85 -7.5 190t-1 214.5t2.5 216.5t3 197q0 17 9 51.5t21.5 72.5t25 73.5t18.5 54.5q3 10 8.5 16t11 5t9 -10t3.5 -28q-5 -91 -10 -166.5t-9 -144.5t-6.5 -136.5 t-2.5 -140.5zM1189 1315q-77 -82 -160.5 -155t-164.5 -141.5t-155.5 -134.5t-135.5 -132q-23 -24 -43 -48.5t-37 -50.5q-6 -5 -7.5 1t0 17.5t5 26t7.5 26.5q24 70 79.5 143t129.5 147t159.5 148.5t169.5 149t160 147.5t130 144q6 5 10.5 3.5t6.5 -6.5t2 -12t-3 -12 q-13 -21 -29.5 -53t-36 -68t-41.5 -73t-46 -67zM987 1990q8 16 19 22.5t19 3.5t11.5 -15.5t-3.5 -33.5q-36 -108 -93 -190t-129.5 -131t-158 -61t-179.5 20q-57 19 -96.5 23t-72 -9.5t-63 -45t-68.5 -82.5q-11 -15 -21.5 -19t-17.5 1t-8 16.5t7 28.5q40 81 84.5 153 t95.5 120t109 65.5t126 -9.5q29 -12 66 -20.5t77 -10.5t82 5.5t81 27.5t73 54t60 87z" horiz-adv-x="793" unicode="ﮑﺂ"/><glyph d="M440 492q1 -59 13.5 -100t32.5 -66.5t45.5 -37t53.5 -11.5q34 -1 68 11.5t61 32.5t44.5 45t17.5 51q-5 34 -25 61t-49.5 44.5t-65.5 25.5t-72 5t-68.5 -18t-55.5 -43zM1104 1316q-75 -80 -155.5 -151.5t-159.5 -138t-153 -131t-135 -128.5q51 20 99 23.5t91 -7t78 -34 t59 -57.5q35 -52 34.5 -121.5t-23.5 -167.5q-9 -37 -23.5 -81t-34 -89t-44.5 -87t-55.5 -74.5t-66 -52t-76.5 -19.5q-42 0 -74.5 21.5t-55.5 58.5t-36.5 85t-17.5 101q-6 85 -7.5 189.5t-1 213.5t2.5 215.5t3 196.5q0 17 9.5 51.5t21.5 72.5t24.5 73.5t18.5 55.5 q3 10 8.5 15.5t11 4.5t9 -10t3.5 -28q-5 -86 -9.5 -158t-9 -137.5t-7.5 -128.5t-4 -130q32 68 90 138t131 141t155.5 142t162 142t151 141t123.5 138q6 5 10.5 3.5t7 -7t2 -12.5t-3.5 -13q-13 -20 -29.5 -51.5t-36 -67.5t-41.5 -73t-46 -67zM987 1908q8 16 19 22.5t19 3.5 t11.5 -15.5t-3.5 -33.5q-36 -108 -93 -190t-129.5 -131t-158 -61t-179.5 20q-57 19 -96.5 23t-72 -9.5t-63 -45t-68.5 -82.5q-11 -15 -21.5 -19t-17.5 1t-8 16.5t7 28.5q40 81 84.5 153t95.5 120t109 65.5t126 -9.5q29 -12 66 -20.5t77 -10.5t82 5.5t81 27.5t73 54t60 87z" horiz-adv-x="1061" unicode="ﮐﺂ"/><glyph d="M521 491q1 -59 13.5 -100t32.5 -66.5t45.5 -37t53.5 -11.5q34 -1 68 11.5t61.5 32.5t44.5 45t18 51q-5 34 -25 61t-50 45t-66 26t-72 4.5t-68.5 -18.5t-55.5 -43zM511 730q60 38 119 51.5t112 6.5t96 -32.5t71 -64.5q36 -52 35.5 -121.5t-24.5 -167.5q-9 -36 -23 -80 t-33.5 -88.5t-45 -86.5t-55.5 -75t-65.5 -52.5t-76.5 -19.5t-74 21.5t-56 58.5t-37 84.5t-18 100.5q-6 85 -7.5 190t-1 214.5t2.5 216.5t3 197q0 17 9 51.5t21.5 72.5t25 73.5t18.5 54.5q3 10 8.5 16t11 5t9 -10t3.5 -28q-5 -91 -10 -166.5t-9 -144.5t-6.5 -136.5 t-2.5 -140.5zM1189 1315q-77 -82 -160.5 -155t-164.5 -141.5t-155.5 -134.5t-135.5 -132q-23 -24 -43 -48.5t-37 -50.5q-6 -5 -7.5 1t0 17.5t5 26t7.5 26.5q24 70 79.5 143t129.5 147t159.5 148.5t169.5 149t160 147.5t130 144q6 5 10.5 3.5t6.5 -6.5t2 -12t-3 -12 q-13 -21 -29.5 -53t-36 -68t-41.5 -73t-46 -67zM1179 1637q-64 -64 -135 -125.5t-141.5 -122.5t-135 -122.5t-114.5 -125.5q-5 -6 -11.5 -7t-11 2.5t-5.5 11t5 19.5q11 21 19.5 43.5t18.5 45.5t22 45t29 42q63 74 129.5 133.5t134.5 115.5t137 116t139 136q5 6 9.5 4.5 t7.5 -6t4 -12t-2 -13.5q-11 -21 -20 -39.5t-19.5 -39t-24.5 -45t-35 -56.5zM987 1990q8 16 19 22.5t19 3.5t11.5 -15.5t-3.5 -33.5q-36 -108 -93 -190t-129.5 -131t-158 -61t-179.5 20q-57 19 -96.5 23t-72 -9.5t-63 -45t-68.5 -82.5q-11 -15 -21.5 -19t-17.5 1t-8 16.5 t7 28.5q40 81 84.5 153t95.5 120t109 65.5t126 -9.5q29 -12 66 -20.5t77 -10.5t82 5.5t81 27.5t73 54t60 87z" horiz-adv-x="793" unicode="ﮕﺂ"/><glyph d="M410 492q1 -59 13.5 -100t32.5 -66.5t45.5 -37t53.5 -11.5q34 -1 68 11.5t61 32.5t44.5 45t17.5 51q-5 34 -25 61t-49.5 44.5t-65.5 25.5t-72 5t-68.5 -18t-55.5 -43zM1074 1316q-75 -80 -155.5 -151.5t-159.5 -138t-153 -131t-135 -128.5q51 20 99 23.5t91 -7t78 -34 t59 -57.5q35 -52 34.5 -121.5t-23.5 -167.5q-9 -37 -23.5 -81t-34 -89t-44.5 -87t-55.5 -74.5t-66 -52t-76.5 -19.5q-42 0 -74.5 21.5t-55.5 58.5t-36.5 85t-17.5 101q-6 85 -7.5 189.5t-1 213.5t2.5 215.5t3 196.5q0 17 9.5 51.5t21.5 72.5t24.5 73.5t18.5 55.5 q3 10 8.5 15.5t11 4.5t9 -10t3.5 -28q-5 -86 -9.5 -158t-9 -137.5t-7.5 -128.5t-4 -130q32 68 90 138t131 141t155.5 142t162 142t151 141t123.5 138q6 5 10.5 3.5t7 -7t2 -12.5t-3.5 -13q-13 -20 -29.5 -51.5t-36 -67.5t-41.5 -73t-46 -67zM1068 1637q-64 -64 -135 -125.5 t-141.5 -122.5t-135 -122.5t-114.5 -125.5q-5 -6 -11.5 -7t-11 2.5t-5.5 11t5 19.5q11 21 19.5 43.5t18.5 45.5t22 45t29 42q63 74 129.5 133.5t134.5 115.5t137 116t139 136q5 6 9.5 4.5t7.5 -6t4 -12t-2 -13.5q-11 -21 -20 -39.5t-19.5 -39t-24.5 -45t-35 -56.5zM987 1985 q8 16 19 22.5t19 3.5t11.5 -15.5t-3.5 -33.5q-36 -108 -93 -190t-129.5 -131t-158 -61t-179.5 20q-57 19 -96.5 23t-72 -9.5t-63 -45t-68.5 -82.5q-11 -15 -21.5 -19t-17.5 1t-8 16.5t7 28.5q40 81 84.5 153t95.5 120t109 65.5t126 -9.5q29 -12 66 -20.5t77 -10.5t82 5.5 t81 27.5t73 54t60 87z" horiz-adv-x="1031" unicode="ﮔﺂ"/><glyph d="M389 491q1 -59 13.5 -100t32.5 -66.5t45.5 -37t53.5 -11.5q34 -1 68 11.5t61.5 32.5t44.5 45t18 51q-5 34 -25 61t-50 45t-66 26t-72 4.5t-68.5 -18.5t-55.5 -43zM379 730q60 38 119 51.5t112 6.5t96 -32.5t71 -64.5q36 -52 35.5 -121.5t-24.5 -167.5q-9 -36 -23 -80 t-33.5 -88.5t-45 -86.5t-55.5 -75t-65.5 -52.5t-76.5 -19.5t-74 21.5t-56 58.5t-37 84.5t-18 100.5q-6 85 -7.5 190t-1 214.5t2.5 216.5t3 197q0 17 9 51.5t21.5 72.5t25 73.5t18.5 54.5q3 10 8.5 16t11 5t9 -10t3.5 -28q-5 -91 -10 -166.5t-9 -144.5t-6.5 -136.5 t-2.5 -140.5zM1057 1315q-77 -82 -160.5 -155t-164.5 -141.5t-155.5 -134.5t-135.5 -132q-23 -24 -43 -48.5t-37 -50.5q-6 -5 -7.5 1t0 17.5t5 26t7.5 26.5q24 70 79.5 143t129.5 147t159.5 148.5t169.5 149t160 147.5t130 144q6 5 10.5 3.5t6.5 -6.5t2 -12t-3 -12 q-13 -21 -29.5 -53t-36 -68t-41.5 -73t-46 -67zM652 1888q9 -1 8 -18.5t-7.5 -42t-17 -50.5t-20.5 -43q-8 -12 -13.5 -16t-12 -4.5t-14 1.5t-19.5 3q-33 1 -55.5 -18t-39 -47t-28.5 -60l-21 -56q-13 -31 -28.5 -58.5t-34.5 -46.5q-14 -13 -34 -22t-40.5 -10.5t-39.5 6 t-31 27.5q-4 5 -3.5 18.5t4 29.5t9 33t12 30t14 20t13.5 3q18 -10 35.5 -15t34.5 -1q21 3 38.5 16.5t31 31.5t24 39t17.5 39q23 54 43.5 95.5t47.5 69.5t59.5 39t67.5 7z" horiz-adv-x="661" unicode="ﮑﺄ"/><glyph d="M264 492q1 -59 13.5 -100t32.5 -66.5t45.5 -37t53.5 -11.5q34 -1 68 11.5t61 32.5t44.5 45t17.5 51q-5 34 -25 61t-49.5 44.5t-65.5 25.5t-72 5t-68.5 -18t-55.5 -43zM928 1316q-75 -80 -155.5 -151.5t-159.5 -138t-153 -131t-135 -128.5q51 20 99 23.5t91 -7t78 -34 t59 -57.5q35 -52 34.5 -121.5t-23.5 -167.5q-9 -37 -23.5 -81t-34 -89t-44.5 -87t-55.5 -74.5t-66 -52t-76.5 -19.5q-42 0 -74.5 21.5t-55.5 58.5t-36.5 85t-17.5 101q-6 85 -7.5 189.5t-1 213.5t2.5 215.5t3 196.5q0 17 9.5 51.5t21.5 72.5t24.5 73.5t18.5 55.5 q3 10 8.5 15.5t11 4.5t9 -10t3.5 -28q-5 -86 -9.5 -158t-9 -137.5t-7.5 -128.5t-4 -130q32 68 90 138t131 141t155.5 142t162 142t151 141t123.5 138q6 5 10.5 3.5t7 -7t2 -12.5t-3.5 -13q-13 -20 -29.5 -51.5t-36 -67.5t-41.5 -73t-46 -67zM577 1888q9 -1 8 -18.5t-7.5 -42 t-17 -50.5t-20.5 -43q-8 -12 -13.5 -16t-12 -4.5t-14 1.5t-19.5 3q-33 1 -55.5 -18t-39 -47t-28.5 -60l-21 -56q-13 -31 -28.5 -58.5t-34.5 -46.5q-14 -13 -34 -22t-40.5 -10.5t-39.5 6t-31 27.5q-4 5 -3.5 18.5t4 29.5t9 33t12 30t14 20t13.5 3q18 -10 35.5 -15t34.5 -1 q21 3 38.5 16.5t31 31.5t24 39t17.5 39q23 54 43.5 95.5t47.5 69.5t59.5 39t67.5 7z" horiz-adv-x="885" unicode="ﮐﺄ"/><glyph d="M314 491q1 -59 13.5 -100t32.5 -66.5t45.5 -37t53.5 -11.5q34 -1 68 11.5t61.5 32.5t44.5 45t18 51q-5 34 -25 61t-50 45t-66 26t-72 4.5t-68.5 -18.5t-55.5 -43zM304 730q60 38 119 51.5t112 6.5t96 -32.5t71 -64.5q36 -52 35.5 -121.5t-24.5 -167.5q-9 -36 -23 -80 t-33.5 -88.5t-45 -86.5t-55.5 -75t-65.5 -52.5t-76.5 -19.5t-74 21.5t-56 58.5t-37 84.5t-18 100.5q-6 85 -7.5 190t-1 214.5t2.5 216.5t3 197q0 17 9 51.5t21.5 72.5t25 73.5t18.5 54.5q3 10 8.5 16t11 5t9 -10t3.5 -28q-5 -91 -10 -166.5t-9 -144.5t-6.5 -136.5 t-2.5 -140.5zM982 1315q-77 -82 -160.5 -155t-164.5 -141.5t-155.5 -134.5t-135.5 -132q-23 -24 -43 -48.5t-37 -50.5q-6 -5 -7.5 1t0 17.5t5 26t7.5 26.5q24 70 79.5 143t129.5 147t159.5 148.5t169.5 149t160 147.5t130 144q6 5 10.5 3.5t6.5 -6.5t2 -12t-3 -12 q-13 -21 -29.5 -53t-36 -68t-41.5 -73t-46 -67zM972 1637q-64 -64 -135 -125.5t-141.5 -122.5t-135 -122.5t-114.5 -125.5q-5 -6 -11.5 -7t-11 2.5t-5.5 11t5 19.5q11 21 19.5 43.5t18.5 45.5t22 45t29 42q63 74 129.5 133.5t134.5 115.5t137 116t139 136q5 6 9.5 4.5 t7.5 -6t4 -12t-2 -13.5q-11 -21 -20 -39.5t-19.5 -39t-24.5 -45t-35 -56.5zM577 1888q9 -1 8 -18.5t-7.5 -42t-17 -50.5t-20.5 -43q-8 -12 -13.5 -16t-12 -4.5t-14 1.5t-19.5 3q-33 1 -55.5 -18t-39 -47t-28.5 -60l-21 -56q-13 -31 -28.5 -58.5t-34.5 -46.5q-14 -13 -34 -22 t-40.5 -10.5t-39.5 6t-31 27.5q-4 5 -3.5 18.5t4 29.5t9 33t12 30t14 20t13.5 3q18 -10 35.5 -15t34.5 -1q21 3 38.5 16.5t31 31.5t24 39t17.5 39q23 54 43.5 95.5t47.5 69.5t59.5 39t67.5 7z" horiz-adv-x="586" unicode="ﮕﺄ"/><glyph d="M264 492q1 -59 13.5 -100t32.5 -66.5t45.5 -37t53.5 -11.5q34 -1 68 11.5t61 32.5t44.5 45t17.5 51q-5 34 -25 61t-49.5 44.5t-65.5 25.5t-72 5t-68.5 -18t-55.5 -43zM928 1316q-75 -80 -155.5 -151.5t-159.5 -138t-153 -131t-135 -128.5q51 20 99 23.5t91 -7t78 -34 t59 -57.5q35 -52 34.5 -121.5t-23.5 -167.5q-9 -37 -23.5 -81t-34 -89t-44.5 -87t-55.5 -74.5t-66 -52t-76.5 -19.5q-42 0 -74.5 21.5t-55.5 58.5t-36.5 85t-17.5 101q-6 85 -7.5 189.5t-1 213.5t2.5 215.5t3 196.5q0 17 9.5 51.5t21.5 72.5t24.5 73.5t18.5 55.5 q3 10 8.5 15.5t11 4.5t9 -10t3.5 -28q-5 -86 -9.5 -158t-9 -137.5t-7.5 -128.5t-4 -130q32 68 90 138t131 141t155.5 142t162 142t151 141t123.5 138q6 5 10.5 3.5t7 -7t2 -12.5t-3.5 -13q-13 -20 -29.5 -51.5t-36 -67.5t-41.5 -73t-46 -67zM922 1637q-64 -64 -135 -125.5 t-141.5 -122.5t-135 -122.5t-114.5 -125.5q-5 -6 -11.5 -7t-11 2.5t-5.5 11t5 19.5q11 21 19.5 43.5t18.5 45.5t22 45t29 42q63 74 129.5 133.5t134.5 115.5t137 116t139 136q5 6 9.5 4.5t7.5 -6t4 -12t-2 -13.5q-11 -21 -20 -39.5t-19.5 -39t-24.5 -45t-35 -56.5zM577 1888 q9 -1 8 -18.5t-7.5 -42t-17 -50.5t-20.5 -43q-8 -12 -13.5 -16t-12 -4.5t-14 1.5t-19.5 3q-33 1 -55.5 -18t-39 -47t-28.5 -60l-21 -56q-13 -31 -28.5 -58.5t-34.5 -46.5q-14 -13 -34 -22t-40.5 -10.5t-39.5 6t-31 27.5q-4 5 -3.5 18.5t4 29.5t9 33t12 30t14 20t13.5 3 q18 -10 35.5 -15t34.5 -1q21 3 38.5 16.5t31 31.5t24 39t17.5 39q23 54 43.5 95.5t47.5 69.5t59.5 39t67.5 7z" horiz-adv-x="885" unicode="ﮔﺄ"/><glyph d="M302 491q1 -59 13.5 -100t32.5 -66.5t45.5 -37t53.5 -11.5q34 -1 68 11.5t61.5 32.5t44.5 45t18 51q-5 34 -25 61t-50 45t-66 26t-72 4.5t-68.5 -18.5t-55.5 -43zM292 730q60 38 119 51.5t112 6.5t96 -32.5t71 -64.5q36 -52 35.5 -121.5t-24.5 -167.5q-9 -36 -23 -80 t-33.5 -88.5t-45 -86.5t-55.5 -75t-65.5 -52.5t-76.5 -19.5t-74 21.5t-56 58.5t-37 84.5t-18 100.5q-6 85 -7.5 190t-1 214.5t2.5 216.5t3 197q0 17 9 51.5t21.5 72.5t25 73.5t18.5 54.5q3 10 8.5 16t11 5t9 -10t3.5 -28q-5 -91 -10 -166.5t-9 -144.5t-6.5 -136.5 t-2.5 -140.5zM970 1315q-77 -82 -160.5 -155t-164.5 -141.5t-155.5 -134.5t-135.5 -132q-23 -24 -43 -48.5t-37 -50.5q-6 -5 -7.5 1t0 17.5t5 26t7.5 26.5q24 70 79.5 143t129.5 147t159.5 148.5t169.5 149t160 147.5t130 144q6 5 10.5 3.5t6.5 -6.5t2 -12t-3 -12 q-13 -21 -29.5 -53t-36 -68t-41.5 -73t-46 -67zM577 20q9 -1 8 -18.5t-7.5 -42t-17 -50.5t-20.5 -43q-8 -12 -13.5 -16t-12 -4.5t-14 1.5t-19.5 3q-33 1 -55.5 -18t-39 -47t-28.5 -60l-21 -56q-13 -31 -28.5 -58.5t-34.5 -46.5q-14 -13 -34 -22t-40.5 -10.5t-39.5 6 t-31 27.5q-4 5 -3.5 18.5t4 29.5t9 33t12 30t14 20t13.5 3q18 -10 35.5 -15t34.5 -1q21 3 38.5 16.5t31 31.5t24 39t17.5 39q23 54 43.5 95.5t47.5 69.5t59.5 39t67.5 7z" horiz-adv-x="574" unicode="ﮑﺈ"/><glyph d="M252 492q1 -59 13.5 -100t32.5 -66.5t45.5 -37t53.5 -11.5q34 -1 68 11.5t61 32.5t44.5 45t17.5 51q-5 34 -25 61t-49.5 44.5t-65.5 25.5t-72 5t-68.5 -18t-55.5 -43zM916 1316q-75 -80 -155.5 -151.5t-159.5 -138t-153 -131t-135 -128.5q51 20 99 23.5t91 -7t78 -34 t59 -57.5q35 -52 34.5 -121.5t-23.5 -167.5q-9 -37 -23.5 -81t-34 -89t-44.5 -87t-55.5 -74.5t-66 -52t-76.5 -19.5q-42 0 -74.5 21.5t-55.5 58.5t-36.5 85t-17.5 101q-6 85 -7.5 189.5t-1 213.5t2.5 215.5t3 196.5q0 17 9.5 51.5t21.5 72.5t24.5 73.5t18.5 55.5 q3 10 8.5 15.5t11 4.5t9 -10t3.5 -28q-5 -86 -9.5 -158t-9 -137.5t-7.5 -128.5t-4 -130q32 68 90 138t131 141t155.5 142t162 142t151 141t123.5 138q6 5 10.5 3.5t7 -7t2 -12.5t-3.5 -13q-13 -20 -29.5 -51.5t-36 -67.5t-41.5 -73t-46 -67zM577 20q9 -1 8 -18.5t-7.5 -42 t-17 -50.5t-20.5 -43q-8 -12 -13.5 -16t-12 -4.5t-14 1.5t-19.5 3q-33 1 -55.5 -18t-39 -47t-28.5 -60l-21 -56q-13 -31 -28.5 -58.5t-34.5 -46.5q-14 -13 -34 -22t-40.5 -10.5t-39.5 6t-31 27.5q-4 5 -3.5 18.5t4 29.5t9 33t12 30t14 20t13.5 3q18 -10 35.5 -15t34.5 -1 q21 3 38.5 16.5t31 31.5t24 39t17.5 39q23 54 43.5 95.5t47.5 69.5t59.5 39t67.5 7z" horiz-adv-x="873" unicode="ﮐﺈ"/><glyph d="M302 491q1 -59 13.5 -100t32.5 -66.5t45.5 -37t53.5 -11.5q34 -1 68 11.5t61.5 32.5t44.5 45t18 51q-5 34 -25 61t-50 45t-66 26t-72 4.5t-68.5 -18.5t-55.5 -43zM292 730q60 38 119 51.5t112 6.5t96 -32.5t71 -64.5q36 -52 35.5 -121.5t-24.5 -167.5q-9 -36 -23 -80 t-33.5 -88.5t-45 -86.5t-55.5 -75t-65.5 -52.5t-76.5 -19.5t-74 21.5t-56 58.5t-37 84.5t-18 100.5q-6 85 -7.5 190t-1 214.5t2.5 216.5t3 197q0 17 9 51.5t21.5 72.5t25 73.5t18.5 54.5q3 10 8.5 16t11 5t9 -10t3.5 -28q-5 -91 -10 -166.5t-9 -144.5t-6.5 -136.5 t-2.5 -140.5zM970 1315q-77 -82 -160.5 -155t-164.5 -141.5t-155.5 -134.5t-135.5 -132q-23 -24 -43 -48.5t-37 -50.5q-6 -5 -7.5 1t0 17.5t5 26t7.5 26.5q24 70 79.5 143t129.5 147t159.5 148.5t169.5 149t160 147.5t130 144q6 5 10.5 3.5t6.5 -6.5t2 -12t-3 -12 q-13 -21 -29.5 -53t-36 -68t-41.5 -73t-46 -67zM960 1637q-64 -64 -135 -125.5t-141.5 -122.5t-135 -122.5t-114.5 -125.5q-5 -6 -11.5 -7t-11 2.5t-5.5 11t5 19.5q11 21 19.5 43.5t18.5 45.5t22 45t29 42q63 74 129.5 133.5t134.5 115.5t137 116t139 136q5 6 9.5 4.5 t7.5 -6t4 -12t-2 -13.5q-11 -21 -20 -39.5t-19.5 -39t-24.5 -45t-35 -56.5zM577 20q9 -1 8 -18.5t-7.5 -42t-17 -50.5t-20.5 -43q-8 -12 -13.5 -16t-12 -4.5t-14 1.5t-19.5 3q-33 1 -55.5 -18t-39 -47t-28.5 -60l-21 -56q-13 -31 -28.5 -58.5t-34.5 -46.5q-14 -13 -34 -22 t-40.5 -10.5t-39.5 6t-31 27.5q-4 5 -3.5 18.5t4 29.5t9 33t12 30t14 20t13.5 3q18 -10 35.5 -15t34.5 -1q21 3 38.5 16.5t31 31.5t24 39t17.5 39q23 54 43.5 95.5t47.5 69.5t59.5 39t67.5 7z" horiz-adv-x="574" unicode="ﮕﺈ"/><glyph d="M252 492q1 -59 13.5 -100t32.5 -66.5t45.5 -37t53.5 -11.5q34 -1 68 11.5t61 32.5t44.5 45t17.5 51q-5 34 -25 61t-49.5 44.5t-65.5 25.5t-72 5t-68.5 -18t-55.5 -43zM916 1316q-75 -80 -155.5 -151.5t-159.5 -138t-153 -131t-135 -128.5q51 20 99 23.5t91 -7t78 -34 t59 -57.5q35 -52 34.5 -121.5t-23.5 -167.5q-9 -37 -23.5 -81t-34 -89t-44.5 -87t-55.5 -74.5t-66 -52t-76.5 -19.5q-42 0 -74.5 21.5t-55.5 58.5t-36.5 85t-17.5 101q-6 85 -7.5 189.5t-1 213.5t2.5 215.5t3 196.5q0 17 9.5 51.5t21.5 72.5t24.5 73.5t18.5 55.5 q3 10 8.5 15.5t11 4.5t9 -10t3.5 -28q-5 -86 -9.5 -158t-9 -137.5t-7.5 -128.5t-4 -130q32 68 90 138t131 141t155.5 142t162 142t151 141t123.5 138q6 5 10.5 3.5t7 -7t2 -12.5t-3.5 -13q-13 -20 -29.5 -51.5t-36 -67.5t-41.5 -73t-46 -67zM910 1637q-64 -64 -135 -125.5 t-141.5 -122.5t-135 -122.5t-114.5 -125.5q-5 -6 -11.5 -7t-11 2.5t-5.5 11t5 19.5q11 21 19.5 43.5t18.5 45.5t22 45t29 42q63 74 129.5 133.5t134.5 115.5t137 116t139 136q5 6 9.5 4.5t7.5 -6t4 -12t-2 -13.5q-11 -21 -20 -39.5t-19.5 -39t-24.5 -45t-35 -56.5zM577 20 q9 -1 8 -18.5t-7.5 -42t-17 -50.5t-20.5 -43q-8 -12 -13.5 -16t-12 -4.5t-14 1.5t-19.5 3q-33 1 -55.5 -18t-39 -47t-28.5 -60l-21 -56q-13 -31 -28.5 -58.5t-34.5 -46.5q-14 -13 -34 -22t-40.5 -10.5t-39.5 6t-31 27.5q-4 5 -3.5 18.5t4 29.5t9 33t12 30t14 20t13.5 3 q18 -10 35.5 -15t34.5 -1q21 3 38.5 16.5t31 31.5t24 39t17.5 39q23 54 43.5 95.5t47.5 69.5t59.5 39t67.5 7z" horiz-adv-x="873" unicode="ﮔﺈ"/><glyph d="M308 491q1 -59 13.5 -100t32.5 -66.5t45.5 -37t53.5 -11.5q34 -1 68 11.5t61.5 32.5t44.5 45t18 51q-5 34 -25 61t-50 45t-66 26t-72 4.5t-68.5 -18.5t-55.5 -43zM298 730q60 38 119 51.5t112 6.5t96 -32.5t71 -64.5q36 -52 35.5 -121.5t-24.5 -167.5q-9 -36 -23 -80 t-33.5 -88.5t-45 -86.5t-55.5 -75t-65.5 -52.5t-76.5 -19.5t-74 21.5t-56 58.5t-37 84.5t-18 100.5q-6 85 -7.5 190t-1 214.5t2.5 216.5t3 197q0 17 9 51.5t21.5 72.5t25 73.5t18.5 54.5q3 10 8.5 16t11 5t9 -10t3.5 -28q-5 -91 -10 -166.5t-9 -144.5t-6.5 -136.5 t-2.5 -140.5zM976 1315q-77 -82 -160.5 -155t-164.5 -141.5t-155.5 -134.5t-135.5 -132q-23 -24 -43 -48.5t-37 -50.5q-6 -5 -7.5 1t0 17.5t5 26t7.5 26.5q24 70 79.5 143t129.5 147t159.5 148.5t169.5 149t160 147.5t130 144q6 5 10.5 3.5t6.5 -6.5t2 -12t-3 -12 q-13 -21 -29.5 -53t-36 -68t-41.5 -73t-46 -67zM249 1588q19 -1 43.5 2.5t49 12t45 20.5t32.5 29q11 16 11.5 31t-6.5 26t-20 16t-29 0t-32.5 -21.5t-32.5 -37.5t-31.5 -42.5t-29.5 -35.5zM161 1360q-4 -24 -11 -35t-13 -10.5t-9 11t1 30.5q5 53 6 104t-2 103 q-1 11 1.5 20.5t6.5 15.5q7 11 16 4q12 -7 28.5 -9.5t30.5 -3.5q26 26 53 63.5t54 75.5q10 14 24 28.5t30.5 24.5t35 11.5t36.5 -11.5q14 -10 18.5 -26t2.5 -35q-2 -39 -21 -79.5t-48 -74.5q-42 -51 -102.5 -74.5t-125.5 -21.5q-3 -54 -12 -111z" horiz-adv-x="580" unicode="ﮑﭑ"/><glyph d="M258 492q1 -59 13.5 -100t32.5 -66.5t45.5 -37t53.5 -11.5q34 -1 68 11.5t61 32.5t44.5 45t17.5 51q-5 34 -25 61t-49.5 44.5t-65.5 25.5t-72 5t-68.5 -18t-55.5 -43zM922 1316q-75 -80 -155.5 -151.5t-159.5 -138t-153 -131t-135 -128.5q51 20 99 23.5t91 -7t78 -34 t59 -57.5q35 -52 34.5 -121.5t-23.5 -167.5q-9 -37 -23.5 -81t-34 -89t-44.5 -87t-55.5 -74.5t-66 -52t-76.5 -19.5q-42 0 -74.5 21.5t-55.5 58.5t-36.5 85t-17.5 101q-6 85 -7.5 189.5t-1 213.5t2.5 215.5t3 196.5q0 17 9.5 51.5t21.5 72.5t24.5 73.5t18.5 55.5 q3 10 8.5 15.5t11 4.5t9 -10t3.5 -28q-5 -86 -9.5 -158t-9 -137.5t-7.5 -128.5t-4 -130q32 68 90 138t131 141t155.5 142t162 142t151 141t123.5 138q6 5 10.5 3.5t7 -7t2 -12.5t-3.5 -13q-13 -20 -29.5 -51.5t-36 -67.5t-41.5 -73t-46 -67zM249 1588q19 -1 43.5 2.5t49 12 t45 20.5t32.5 29q11 16 11.5 31t-6.5 26t-20 16t-29 0t-32.5 -21.5t-32.5 -37.5t-31.5 -42.5t-29.5 -35.5zM161 1360q-4 -24 -11 -35t-13 -10.5t-9 11t1 30.5q5 53 6 104t-2 103q-1 11 1.5 20.5t6.5 15.5q7 11 16 4q12 -7 28.5 -9.5t30.5 -3.5q26 26 53 63.5t54 75.5 q10 14 24 28.5t30.5 24.5t35 11.5t36.5 -11.5q14 -10 18.5 -26t2.5 -35q-2 -39 -21 -79.5t-48 -74.5q-42 -51 -102.5 -74.5t-125.5 -21.5q-3 -54 -12 -111z" horiz-adv-x="879" unicode="ﮐﭑ"/><glyph d="M308 491q1 -59 13.5 -100t32.5 -66.5t45.5 -37t53.5 -11.5q34 -1 68 11.5t61.5 32.5t44.5 45t18 51q-5 34 -25 61t-50 45t-66 26t-72 4.5t-68.5 -18.5t-55.5 -43zM298 730q60 38 119 51.5t112 6.5t96 -32.5t71 -64.5q36 -52 35.5 -121.5t-24.5 -167.5q-9 -36 -23 -80 t-33.5 -88.5t-45 -86.5t-55.5 -75t-65.5 -52.5t-76.5 -19.5t-74 21.5t-56 58.5t-37 84.5t-18 100.5q-6 85 -7.5 190t-1 214.5t2.5 216.5t3 197q0 17 9 51.5t21.5 72.5t25 73.5t18.5 54.5q3 10 8.5 16t11 5t9 -10t3.5 -28q-5 -91 -10 -166.5t-9 -144.5t-6.5 -136.5 t-2.5 -140.5zM976 1315q-77 -82 -160.5 -155t-164.5 -141.5t-155.5 -134.5t-135.5 -132q-23 -24 -43 -48.5t-37 -50.5q-6 -5 -7.5 1t0 17.5t5 26t7.5 26.5q24 70 79.5 143t129.5 147t159.5 148.5t169.5 149t160 147.5t130 144q6 5 10.5 3.5t6.5 -6.5t2 -12t-3 -12 q-13 -21 -29.5 -53t-36 -68t-41.5 -73t-46 -67zM966 1637q-64 -64 -135 -125.5t-141.5 -122.5t-135 -122.5t-114.5 -125.5q-5 -6 -11.5 -7t-11 2.5t-5.5 11t5 19.5q11 21 19.5 43.5t18.5 45.5t22 45t29 42q63 74 129.5 133.5t134.5 115.5t137 116t139 136q5 6 9.5 4.5 t7.5 -6t4 -12t-2 -13.5q-11 -21 -20 -39.5t-19.5 -39t-24.5 -45t-35 -56.5zM249 1588q19 -1 43.5 2.5t49 12t45 20.5t32.5 29q11 16 11.5 31t-6.5 26t-20 16t-29 0t-32.5 -21.5t-32.5 -37.5t-31.5 -42.5t-29.5 -35.5zM161 1360q-4 -24 -11 -35t-13 -10.5t-9 11t1 30.5 q5 53 6 104t-2 103q-1 11 1.5 20.5t6.5 15.5q7 11 16 4q12 -7 28.5 -9.5t30.5 -3.5q26 26 53 63.5t54 75.5q10 14 24 28.5t30.5 24.5t35 11.5t36.5 -11.5q14 -10 18.5 -26t2.5 -35q-2 -39 -21 -79.5t-48 -74.5q-42 -51 -102.5 -74.5t-125.5 -21.5q-3 -54 -12 -111z" horiz-adv-x="580" unicode="ﮕﭑ"/><glyph d="M258 492q1 -59 13.5 -100t32.5 -66.5t45.5 -37t53.5 -11.5q34 -1 68 11.5t61 32.5t44.5 45t17.5 51q-5 34 -25 61t-49.5 44.5t-65.5 25.5t-72 5t-68.5 -18t-55.5 -43zM922 1316q-75 -80 -155.5 -151.5t-159.5 -138t-153 -131t-135 -128.5q51 20 99 23.5t91 -7t78 -34 t59 -57.5q35 -52 34.5 -121.5t-23.5 -167.5q-9 -37 -23.5 -81t-34 -89t-44.5 -87t-55.5 -74.5t-66 -52t-76.5 -19.5q-42 0 -74.5 21.5t-55.5 58.5t-36.5 85t-17.5 101q-6 85 -7.5 189.5t-1 213.5t2.5 215.5t3 196.5q0 17 9.5 51.5t21.5 72.5t24.5 73.5t18.5 55.5 q3 10 8.5 15.5t11 4.5t9 -10t3.5 -28q-5 -86 -9.5 -158t-9 -137.5t-7.5 -128.5t-4 -130q32 68 90 138t131 141t155.5 142t162 142t151 141t123.5 138q6 5 10.5 3.5t7 -7t2 -12.5t-3.5 -13q-13 -20 -29.5 -51.5t-36 -67.5t-41.5 -73t-46 -67zM916 1637q-64 -64 -135 -125.5 t-141.5 -122.5t-135 -122.5t-114.5 -125.5q-5 -6 -11.5 -7t-11 2.5t-5.5 11t5 19.5q11 21 19.5 43.5t18.5 45.5t22 45t29 42q63 74 129.5 133.5t134.5 115.5t137 116t139 136q5 6 9.5 4.5t7.5 -6t4 -12t-2 -13.5q-11 -21 -20 -39.5t-19.5 -39t-24.5 -45t-35 -56.5zM249 1588 q19 -1 43.5 2.5t49 12t45 20.5t32.5 29q11 16 11.5 31t-6.5 26t-20 16t-29 0t-32.5 -21.5t-32.5 -37.5t-31.5 -42.5t-29.5 -35.5zM161 1360q-4 -24 -11 -35t-13 -10.5t-9 11t1 30.5q5 53 6 104t-2 103q-1 11 1.5 20.5t6.5 15.5q7 11 16 4q12 -7 28.5 -9.5t30.5 -3.5 q26 26 53 63.5t54 75.5q10 14 24 28.5t30.5 24.5t35 11.5t36.5 -11.5q14 -10 18.5 -26t2.5 -35q-2 -39 -21 -79.5t-48 -74.5q-42 -51 -102.5 -74.5t-125.5 -21.5q-3 -54 -12 -111z" horiz-adv-x="879" unicode="ﮔﭑ"/><glyph d="M344 491q1 -59 13.5 -100t32.5 -66.5t45.5 -37t53.5 -11.5q34 -1 68 11.5t61.5 32.5t44.5 45t18 51q-5 34 -25 61t-50 45t-66 26t-72 4.5t-68.5 -18.5t-55.5 -43zM334 730q60 38 119 51.5t112 6.5t96 -32.5t71 -64.5q36 -52 35.5 -121.5t-24.5 -167.5q-9 -36 -23 -80 t-33.5 -88.5t-45 -86.5t-55.5 -75t-65.5 -52.5t-76.5 -19.5t-74 21.5t-56 58.5t-37 84.5t-18 100.5q-6 85 -7.5 190t-1 214.5t2.5 216.5t3 197q0 17 9 51.5t21.5 72.5t25 73.5t18.5 54.5q3 10 8.5 16t11 5t9 -10t3.5 -28q-5 -91 -10 -166.5t-9 -144.5t-6.5 -136.5 t-2.5 -140.5zM1012 1315q-77 -82 -160.5 -155t-164.5 -141.5t-155.5 -134.5t-135.5 -132q-23 -24 -43 -48.5t-37 -50.5q-6 -5 -7.5 1t0 17.5t5 26t7.5 26.5q24 70 79.5 143t129.5 147t159.5 148.5t169.5 149t160 147.5t130 144q6 5 10.5 3.5t6.5 -6.5t2 -12t-3 -12 q-13 -21 -29.5 -53t-36 -68t-41.5 -73t-46 -67zM148 1534q-12 -5 -9.5 5t10.5 24l6 12t8.5 16t9 14.5t7.5 8.5q35 20 79.5 42.5t90.5 45.5t89.5 44t77.5 38q5 2 8 0t0 -7q-17 -34 -31.5 -56t-19.5 -24zM133 1381l328 162q5 2 19.5 24.5t31.5 56.5q2 5 -0.5 7t-7.5 0 q-34 -17 -77.5 -38.5t-89.5 -44t-90.5 -45t-79.5 -42.5q-3 -2 -8 -8.5t-9.5 -15t-8.5 -16t-6 -11.5q-3 -7 -6 -13.5t-3.5 -11t1 -6t6.5 1.5z" horiz-adv-x="616" unicode="ﮑﴼ"/><glyph d="M219 492q1 -59 13.5 -100t32.5 -66.5t45.5 -37t53.5 -11.5q34 -1 68 11.5t61 32.5t44.5 45t17.5 51q-5 34 -25 61t-49.5 44.5t-65.5 25.5t-72 5t-68.5 -18t-55.5 -43zM883 1316q-75 -80 -155.5 -151.5t-159.5 -138t-153 -131t-135 -128.5q51 20 99 23.5t91 -7t78 -34 t59 -57.5q35 -52 34.5 -121.5t-23.5 -167.5q-9 -37 -23.5 -81t-34 -89t-44.5 -87t-55.5 -74.5t-66 -52t-76.5 -19.5q-42 0 -74.5 21.5t-55.5 58.5t-36.5 85t-17.5 101q-6 85 -7.5 189.5t-1 213.5t2.5 215.5t3 196.5q0 17 9.5 51.5t21.5 72.5t24.5 73.5t18.5 55.5 q3 10 8.5 15.5t11 4.5t9 -10t3.5 -28q-5 -86 -9.5 -158t-9 -137.5t-7.5 -128.5t-4 -130q32 68 90 138t131 141t155.5 142t162 142t151 141t123.5 138q6 5 10.5 3.5t7 -7t2 -12.5t-3.5 -13q-13 -20 -29.5 -51.5t-36 -67.5t-41.5 -73t-46 -67zM148 1534q-12 -5 -9.5 5t10.5 24 l6 12t8.5 16t9 14.5t7.5 8.5q35 20 79.5 42.5t90.5 45.5t89.5 44t77.5 38q5 2 8 0t0 -7q-17 -34 -31.5 -56t-19.5 -24zM133 1381l328 162q5 2 19.5 24.5t31.5 56.5q2 5 -0.5 7t-7.5 0q-34 -17 -77.5 -38.5t-89.5 -44t-90.5 -45t-79.5 -42.5q-3 -2 -8 -8.5t-9.5 -15t-8.5 -16 t-6 -11.5q-3 -7 -6 -13.5t-3.5 -11t1 -6t6.5 1.5z" horiz-adv-x="840" unicode="ﮐﴼ"/><glyph d="M344 491q1 -59 13.5 -100t32.5 -66.5t45.5 -37t53.5 -11.5q34 -1 68 11.5t61.5 32.5t44.5 45t18 51q-5 34 -25 61t-50 45t-66 26t-72 4.5t-68.5 -18.5t-55.5 -43zM334 730q60 38 119 51.5t112 6.5t96 -32.5t71 -64.5q36 -52 35.5 -121.5t-24.5 -167.5q-9 -36 -23 -80 t-33.5 -88.5t-45 -86.5t-55.5 -75t-65.5 -52.5t-76.5 -19.5t-74 21.5t-56 58.5t-37 84.5t-18 100.5q-6 85 -7.5 190t-1 214.5t2.5 216.5t3 197q0 17 9 51.5t21.5 72.5t25 73.5t18.5 54.5q3 10 8.5 16t11 5t9 -10t3.5 -28q-5 -91 -10 -166.5t-9 -144.5t-6.5 -136.5 t-2.5 -140.5zM1012 1315q-77 -82 -160.5 -155t-164.5 -141.5t-155.5 -134.5t-135.5 -132q-23 -24 -43 -48.5t-37 -50.5q-6 -5 -7.5 1t0 17.5t5 26t7.5 26.5q24 70 79.5 143t129.5 147t159.5 148.5t169.5 149t160 147.5t130 144q6 5 10.5 3.5t6.5 -6.5t2 -12t-3 -12 q-13 -21 -29.5 -53t-36 -68t-41.5 -73t-46 -67zM1002 1637q-64 -64 -135 -125.5t-141.5 -122.5t-135 -122.5t-114.5 -125.5q-5 -6 -11.5 -7t-11 2.5t-5.5 11t5 19.5q11 21 19.5 43.5t18.5 45.5t22 45t29 42q63 74 129.5 133.5t134.5 115.5t137 116t139 136q5 6 9.5 4.5 t7.5 -6t4 -12t-2 -13.5q-11 -21 -20 -39.5t-19.5 -39t-24.5 -45t-35 -56.5zM148 1534q-12 -5 -9.5 5t10.5 24l6 12t8.5 16t9 14.5t7.5 8.5q35 20 79.5 42.5t90.5 45.5t89.5 44t77.5 38q5 2 8 0t0 -7q-17 -34 -31.5 -56t-19.5 -24zM133 1381l328 162q5 2 19.5 24.5t31.5 56.5 q2 5 -0.5 7t-7.5 0q-34 -17 -77.5 -38.5t-89.5 -44t-90.5 -45t-79.5 -42.5q-3 -2 -8 -8.5t-9.5 -15t-8.5 -16t-6 -11.5q-3 -7 -6 -13.5t-3.5 -11t1 -6t6.5 1.5z" horiz-adv-x="616" unicode="ﮕﴼ"/><glyph d="M219 492q1 -59 13.5 -100t32.5 -66.5t45.5 -37t53.5 -11.5q34 -1 68 11.5t61 32.5t44.5 45t17.5 51q-5 34 -25 61t-49.5 44.5t-65.5 25.5t-72 5t-68.5 -18t-55.5 -43zM883 1316q-75 -80 -155.5 -151.5t-159.5 -138t-153 -131t-135 -128.5q51 20 99 23.5t91 -7t78 -34 t59 -57.5q35 -52 34.5 -121.5t-23.5 -167.5q-9 -37 -23.5 -81t-34 -89t-44.5 -87t-55.5 -74.5t-66 -52t-76.5 -19.5q-42 0 -74.5 21.5t-55.5 58.5t-36.5 85t-17.5 101q-6 85 -7.5 189.5t-1 213.5t2.5 215.5t3 196.5q0 17 9.5 51.5t21.5 72.5t24.5 73.5t18.5 55.5 q3 10 8.5 15.5t11 4.5t9 -10t3.5 -28q-5 -86 -9.5 -158t-9 -137.5t-7.5 -128.5t-4 -130q32 68 90 138t131 141t155.5 142t162 142t151 141t123.5 138q6 5 10.5 3.5t7 -7t2 -12.5t-3.5 -13q-13 -20 -29.5 -51.5t-36 -67.5t-41.5 -73t-46 -67zM877 1637q-64 -64 -135 -125.5 t-141.5 -122.5t-135 -122.5t-114.5 -125.5q-5 -6 -11.5 -7t-11 2.5t-5.5 11t5 19.5q11 21 19.5 43.5t18.5 45.5t22 45t29 42q63 74 129.5 133.5t134.5 115.5t137 116t139 136q5 6 9.5 4.5t7.5 -6t4 -12t-2 -13.5q-11 -21 -20 -39.5t-19.5 -39t-24.5 -45t-35 -56.5zM148 1534 q-12 -5 -9.5 5t10.5 24l6 12t8.5 16t9 14.5t7.5 8.5q35 20 79.5 42.5t90.5 45.5t89.5 44t77.5 38q5 2 8 0t0 -7q-17 -34 -31.5 -56t-19.5 -24zM133 1381l328 162q5 2 19.5 24.5t31.5 56.5q2 5 -0.5 7t-7.5 0q-34 -17 -77.5 -38.5t-89.5 -44t-90.5 -45t-79.5 -42.5 q-3 -2 -8 -8.5t-9.5 -15t-8.5 -16t-6 -11.5q-3 -7 -6 -13.5t-3.5 -11t1 -6t6.5 1.5z" horiz-adv-x="840" unicode="ﮔﴼ"/><glyph d="M1267 1120q1 -59 13.5 -100t32.5 -66.5t46 -37t53 -11.5q34 -1 68 11.5t61 32.5t44.5 45.5t17.5 51.5q-4 34 -24.5 61t-50 44.5t-65.5 25.5t-72 4.5t-68.5 -18.5t-55.5 -43zM1921 1908q-27 -27 -63.5 -59.5t-79.5 -68t-90.5 -73.5l-95 -76t-94 -75.5t-87.5 -72.5 q-26 -23 -46.5 -45t-37.5 -42q51 19 99.5 22.5t91.5 -7t78 -34t58 -57.5q36 -52 35.5 -121.5t-23.5 -167.5q-9 -36 -23 -80t-34 -88.5t-45 -86.5t-55.5 -75t-66 -52.5t-76.5 -19.5q-35 0 -63.5 15.5t-49.5 42.5q-4 -39 -9.5 -77.5t-13.5 -79.5q-18 -95 -48.5 -191.5 t-74.5 -186.5t-102 -169t-132 -137.5t-164.5 -92t-198.5 -33.5q-97 1 -166 33t-113.5 86t-68 125.5t-30.5 150.5t0 160.5t24 156.5q12 53 25.5 105.5t29 101.5t32 93.5t34.5 82.5q10 22 20.5 33.5t18 12t10.5 -8t-1 -24.5q-23 -80 -48.5 -154t-42.5 -151q-20 -93 -17 -184.5 t36.5 -166t103.5 -122.5t184 -53q127 -5 230.5 36.5t182.5 116t132 175.5t79 214q2 75 1 162.5t-3.5 181.5t-6.5 191.5t-7 191t-5 180t0 159.5q0 17 9.5 50.5t22.5 71t25.5 73t19.5 57.5q5 18 14.5 31t17.5 13.5t12 -14t-2 -52.5q-8 -109 -7.5 -224.5t2.5 -234.5 q12 32 31.5 69t42.5 73.5t48.5 69t50.5 55.5q80 76 165.5 141.5t168.5 130t159.5 131.5t138.5 146q6 6 10 4.5t6 -6.5t2 -12t-2 -13q-30 -72 -69.5 -135t-88.5 -122z" horiz-adv-x="1409" unicode="ﮑﻞ"/><glyph d="M1267 1120q1 -59 13.5 -100t32.5 -66.5t46 -37t53 -11.5q34 -1 68 11.5t61 32.5t44.5 45.5t17.5 51.5q-4 34 -24.5 61t-50 44.5t-65.5 25.5t-72 4.5t-68.5 -18.5t-55.5 -43zM1921 1908q-27 -27 -63.5 -59.5t-79.5 -68t-90.5 -73.5l-95 -76t-94 -75.5t-87.5 -72.5 q-26 -23 -46.5 -45t-37.5 -42q51 19 99.5 22.5t91.5 -7t78 -34t58 -57.5q36 -52 35.5 -121.5t-23.5 -167.5q-9 -36 -23 -80t-34 -88.5t-45 -86.5t-55.5 -75t-66 -52.5t-76.5 -19.5q-35 0 -63.5 15.5t-49.5 42.5q-4 -39 -9.5 -77.5t-13.5 -79.5q-18 -95 -48.5 -191.5 t-74.5 -186.5t-102 -169t-132 -137.5t-164.5 -92t-198.5 -33.5q-97 1 -166 33t-113.5 86t-68 125.5t-30.5 150.5t0 160.5t24 156.5q12 53 25.5 105.5t29 101.5t32 93.5t34.5 82.5q10 22 20.5 33.5t18 12t10.5 -8t-1 -24.5q-23 -80 -48.5 -154t-42.5 -151q-20 -93 -17 -184.5 t36.5 -166t103.5 -122.5t184 -53q127 -5 230.5 36.5t182.5 116t132 175.5t79 214q2 75 1 162.5t-3.5 181.5t-6.5 191.5t-7 191t-5 180t0 159.5q0 17 9.5 50.5t22.5 71t25.5 73t19.5 57.5q5 18 14.5 31t17.5 13.5t12 -14t-2 -52.5q-8 -109 -7.5 -224.5t2.5 -234.5 q12 32 31.5 69t42.5 73.5t48.5 69t50.5 55.5q80 76 165.5 141.5t168.5 130t159.5 131.5t138.5 146q6 6 10 4.5t6 -6.5t2 -12t-2 -13q-30 -72 -69.5 -135t-88.5 -122z" horiz-adv-x="1831" unicode="ﮐﻞ"/><glyph d="M1891 2297q-64 -64 -135 -125.5t-141.5 -122.5t-135 -122.5t-114.5 -125.5q-5 -6 -11.5 -7t-11 2.5t-5.5 11t5 19.5q11 21 19.5 43.5t18.5 45.5t22 45t29 42q63 74 129.5 133.5t134.5 115.5t137 116t139 136q5 6 9.5 4.5t7.5 -6t4 -12t-2 -13.5q-11 -21 -20 -39.5 t-19.5 -39t-24.5 -45t-35 -56.5zM1450 1075q27 0 59 10.5t59.5 29t46 43.5t18.5 54q-4 29 -20 52t-40 40.5t-54 28t-62 13.5q-25 2 -52.5 -2t-53.5 -13t-48.5 -23t-37.5 -33q-6 -6 -10.5 5.5t-7 34.5t-2.5 53.5t2.5 62t8 61.5t15.5 51q31 68 90 139t134.5 143t160 144.5 t167 144.5t155.5 143t125 139q6 5 10.5 3.5t6.5 -6.5t2 -12t-3 -13q-13 -20 -29.5 -52t-36 -68t-41.5 -73t-46 -67q-74 -78 -154 -148.5t-158 -136.5t-150.5 -129t-133.5 -127q48 15 95 16t88.5 -10t75 -33t56.5 -54q36 -52 35.5 -121t-24.5 -167q-7 -30 -20 -71.5 t-31.5 -85.5t-43 -88t-54.5 -78t-66 -55.5t-77 -21.5q-9 0 -16 11t-10 29.5t-2 43.5t6 54q4 29 12 54.5t17 44t19.5 29.5t19.5 11zM1266 843q0 -36 -2.5 -76.5t-6.5 -81t-10 -80t-13 -75.5q-18 -95 -48 -191.5t-73.5 -186.5t-102 -169t-132.5 -137.5t-164.5 -92 t-199.5 -33.5q-97 1 -166 33.5t-114.5 86.5t-69.5 125t-31.5 150t-1 160.5t23.5 156.5q23 106 54.5 206.5t66.5 175.5q10 23 21.5 34.5t20 12t12 -8t-0.5 -25.5q-23 -79 -48.5 -153.5t-41.5 -151.5q-20 -92 -17.5 -183.5t36 -166t103.5 -122.5t184 -53q109 -5 207 30 t177.5 99t136.5 152.5t84 190.5q11 39 16 81.5t5 91.5q0 110 -4 220.5t-9 221t-8.5 221t-1.5 220.5q0 16 9.5 49.5t22.5 71t25.5 73.5t19.5 58q5 18 14.5 31t17.5 14t12 -14t-2 -54q-4 -55 -5.5 -109t-2.5 -109q0 -70 0.5 -146t8.5 -146q3 -32 15 -62t34 -54t55 -38.5 t78 -14.5q2 0 6 -2q16 -8 21 -46t-4 -91q-8 -47 -23 -83.5t-32 -49.5q-6 -3 -14 -5q-39 0 -75 11t-63 34z" horiz-adv-x="1520" unicode="ﮕﻞ"/><glyph d="M1267 1120q1 -59 13.5 -100t32.5 -66.5t46 -37t53 -11.5q34 -1 68 11.5t61 32.5t44.5 45.5t17.5 51.5q-4 34 -24.5 61t-50 44.5t-65.5 25.5t-72 4.5t-68.5 -18.5t-55.5 -43zM1921 1908q-27 -27 -63.5 -59.5t-79.5 -68t-90.5 -73.5l-95 -76t-94 -75.5t-87.5 -72.5 q-26 -23 -46.5 -45t-37.5 -42q51 19 99.5 22.5t91.5 -7t78 -34t58 -57.5q36 -52 35.5 -121.5t-23.5 -167.5q-9 -36 -23 -80t-34 -88.5t-45 -86.5t-55.5 -75t-66 -52.5t-76.5 -19.5q-35 0 -63.5 15.5t-49.5 42.5q-4 -39 -9.5 -77.5t-13.5 -79.5q-18 -95 -48.5 -191.5 t-74.5 -186.5t-102 -169t-132 -137.5t-164.5 -92t-198.5 -33.5q-97 1 -166 33t-113.5 86t-68 125.5t-30.5 150.5t0 160.5t24 156.5q12 53 25.5 105.5t29 101.5t32 93.5t34.5 82.5q10 22 20.5 33.5t18 12t10.5 -8t-1 -24.5q-23 -80 -48.5 -154t-42.5 -151q-20 -93 -17 -184.5 t36.5 -166t103.5 -122.5t184 -53q127 -5 230.5 36.5t182.5 116t132 175.5t79 214q2 75 1 162.5t-3.5 181.5t-6.5 191.5t-7 191t-5 180t0 159.5q0 17 9.5 50.5t22.5 71t25.5 73t19.5 57.5q5 18 14.5 31t17.5 13.5t12 -14t-2 -52.5q-8 -109 -7.5 -224.5t2.5 -234.5 q12 32 31.5 69t42.5 73.5t48.5 69t50.5 55.5q80 76 165.5 141.5t168.5 130t159.5 131.5t138.5 146q6 6 10 4.5t6 -6.5t2 -12t-2 -13q-30 -72 -69.5 -135t-88.5 -122zM1897 2223q-64 -64 -135 -125.5t-141.5 -122.5t-135 -122.5t-114.5 -125.5q-5 -6 -11.5 -7t-11 2.5 t-5.5 11t5 19.5q11 21 19.5 43.5t18.5 45.5t22 45t29 42q63 74 129.5 133.5t134.5 115.5t137 116t139 136q5 6 9.5 4.5t7.5 -6t4 -12t-2 -13.5q-11 -21 -20 -39.5t-19.5 -39t-24.5 -45t-35 -56.5z" horiz-adv-x="1831" unicode="ﮔﻞ"/><glyph d="M900 1040q6 10 17 14t5 -15q-4 -17 -8.5 -45t-2.5 -54t14 -42.5t43 -11.5q28 5 45 30.5t22 55.5q3 17 4.5 35.5t5.5 34.5t13 16.5t13 -13.5q3 -17 1.5 -34t-1.5 -33q0 -23 6.5 -49.5t33.5 -31.5q16 -4 31 2.5t21 21.5q5 12 2 42.5t-4 44.5q-4 9 5.5 35.5t13.5 35.5 q2 6 7.5 15t10.5 -10q6 -29 8.5 -45t2.5 -46q1 -52 -28 -119t-88 -71q-27 -2 -41.5 14t-22.5 37q-10 -17 -30 -38.5t-60 -23.5q-48 -3 -59.5 44t-8.5 82q1 17 8 57t21 65zM1087 1535q-14 -52 -7.5 -119t1.5 -119q-3 -33 -16 -73.5t-28 -69.5q-8 -15 -15 -11t-5 26 q8 65 5 119t-8 124q-1 10 21 62t29 67q10 21 19 15t4 -21zM1109 585q-3 -45 -8 -101t17 -102q23 -51 70 -68t96 -5t88.5 50.5t47.5 99.5q8 82 -2.5 159t-17.5 164q-5 54 -4 76t17 75q14 50 36.5 117.5t36.5 111.5q8 30 24.5 26.5t12.5 -22.5q-16 -167 0 -314t-6 -294 q-9 -90 -54 -220.5t-122 -215.5q-32 -36 -74.5 -59t-87.5 -27q-61 -5 -117.5 37.5t-66.5 127.5q-53 -136 -141 -192t-170 -46.5t-138 77t-44 179.5q-29 -79 -63.5 -134.5t-56.5 -78.5q-37 -38 -118 -72.5t-131 -54.5q-27 -6 -40 3.5t45 54.5q109 85 216 205t193 367 q10 23 17.5 40.5t25.5 17.5q24 -1 14 -48q-10 -36 -19 -77t-5 -78q7 -65 70.5 -107.5t127.5 -37.5q125 10 180 107.5t78 201.5q4 24 7.5 44.5t9.5 34.5q12 27 34.5 22.5t21.5 -44.5z" horiz-adv-x="1619" unicode="ﻟﻠﮧ"/><glyph d="M345 1313q-9 -71 -11 -163t-2.5 -191.5t-1 -201t-5.5 -191.5q-2 -44 -8 -92.5t-16.5 -97t-26.5 -95.5t-37 -88q-19 -36 -34 -33q-9 1 -13 10.5t0 44.5q6 50 10.5 98t5.5 98q1 55 1 120.5t-1 132t-2.5 130.5t-3 116.5t-2.5 88.5t-1 48q0 10 6 31.5t16 49.5t22 59.5 t23.5 60.5t21 52.5t13.5 36.5q5 16 15 26.5t19 10.5t13.5 -13.5t-1.5 -47.5zM249 1564q19 -1 43.5 2.5t49 12t45 20.5t32.5 29q11 16 11.5 31t-6.5 26t-20 16t-29 0t-32.5 -21.5t-32.5 -37.5t-31.5 -42.5t-29.5 -35.5zM161 1336q-4 -24 -11 -35t-13 -10.5t-9 11t1 30.5 q5 53 6 104t-2 103q-1 11 1.5 20.5t6.5 15.5q7 11 16 4q12 -7 28.5 -9.5t30.5 -3.5q26 26 53 63.5t54 75.5q10 14 24 28.5t30.5 24.5t35 11.5t36.5 -11.5q14 -10 18.5 -26t2.5 -35q-2 -39 -21 -79.5t-48 -74.5q-42 -51 -102.5 -74.5t-125.5 -21.5q-3 -54 -12 -111z" arabic-form="isolated" horiz-adv-x="597" unicode="ٱ"/><glyph d="M261 846q0 -35 -1 -87.5t-1 -108.5t1 -107.5t5 -84.5q4 -37 16 -70t32.5 -58t49.5 -39.5t68 -14.5q3 0 7 -2q15 -8 19.5 -46t-3.5 -90q-8 -48 -23.5 -84.5t-31.5 -48.5q-7 -5 -14 -5h-2q-41 1 -73 17.5t-55 43t-38.5 61.5t-25.5 72.5t-14.5 75t-5.5 70.5q-4 57 -5 119.5 t-0.5 125.5t1 123t0.5 110v137t1 134q0 11 1 18.5t3 14t5 13.5t7 18q10 29 18.5 51.5t15.5 43t13.5 41.5t14.5 47q4 10 10 16t12 5.5t10 -7t4 -19.5q-3 -75 -6.5 -138t-6.5 -121t-5 -113t-3 -113zM249 1574q19 -1 43.5 2.5t49 12t45 20.5t32.5 29q11 16 11.5 31t-6.5 26 t-20 16t-29 0t-32.5 -21.5t-32.5 -37.5t-31.5 -42.5t-29.5 -35.5zM161 1346q-4 -24 -11 -35t-13 -10.5t-9 11t1 30.5q5 53 6 104t-2 103q-1 11 1.5 20.5t6.5 15.5q7 11 16 4q12 -7 28.5 -9.5t30.5 -3.5q26 26 53 63.5t54 75.5q10 14 24 28.5t30.5 24.5t35 11.5t36.5 -11.5 q14 -10 18.5 -26t2.5 -35q-2 -39 -21 -79.5t-48 -74.5q-42 -51 -102.5 -74.5t-125.5 -21.5q-3 -54 -12 -111z" arabic-form="final" horiz-adv-x="431" unicode="ٱ"/><glyph d="M733 -108q25 -32 63.5 -68t90.5 -62q26 28 55.5 62.5t55.5 69.5q4 5 9 4t9 -6q26 -32 63 -66t79 -54q6 -4 10.5 -6t7 -5t2 -7t-4.5 -11q-6 -11 -24 -36.5t-40 -52.5t-43 -48t-32 -23q-20 -3 -44.5 9t-48 31.5t-43 41.5t-29.5 39q-13 -17 -30.5 -38t-35 -39t-32 -30.5 t-21.5 -13.5q-20 -4 -45.5 9.5t-50 34t-44 44t-28.5 39.5q-6 11 -5 15t8 13q31 41 65 79.5t64 76.5q9 10 19 -2zM886 -739q-8 -1 -23.5 6.5t-33 20.5t-35.5 28.5t-33.5 31t-25 28.5t-10.5 20t10 20q12 15 28 33.5t32.5 37.5t32.5 37.5t30 33.5q3 4 7.5 5.5t9.5 -0.5 q3 -2 10.5 -10.5t23 -24t42.5 -37.5t69 -51q13 -8 17 -11t-4 -17q-6 -11 -25.5 -35t-42.5 -49.5t-45 -45.5t-34 -21zM211 386q11 -21 34.5 -37t56 -28t73 -21t85.5 -15q71 -10 163.5 -16t194 -6.5t207 6t202.5 21t180.5 39t140.5 60.5q46 29 80.5 67t54.5 88q7 27 17.5 39 t18.5 8.5t10 -22.5t-7 -52q-22 -95 -67 -168t-107 -128t-138.5 -92.5t-161.5 -62.5q-54 -16 -133.5 -29.5t-171.5 -22.5t-190 -12.5t-190 -0.5t-170.5 14t-131.5 32q-48 19 -76.5 44t-42 57t-15.5 71.5t1 88.5q5 71 11 136.5t14 110.5q3 15 9 25.5t20 9.5q8 -1 12 -16.5 t3 -32.5q-3 -56 -1.5 -92.5t15.5 -62.5z" arabic-form="isolated" horiz-adv-x="1856" unicode="پ"/><glyph d="M742 -101q25 -32 63.5 -68t90.5 -62q26 28 55.5 62.5t55.5 69.5q4 5 9 4t9 -6q26 -32 63 -66t79 -54q6 -4 10.5 -6t7 -5t2 -7t-4.5 -11q-6 -11 -24 -36.5t-40 -52.5t-43 -48t-32 -23q-20 -3 -44.5 9t-48 31.5t-43 41.5t-29.5 39q-13 -17 -30.5 -38t-35 -39t-32 -30.5 t-21.5 -13.5q-20 -4 -45.5 9.5t-50 34t-44 44t-28.5 39.5q-6 11 -5 15t8 13q31 41 65 79.5t64 76.5q9 10 19 -2zM895 -732q-8 -1 -23.5 6.5t-33 20.5t-35.5 28.5t-33.5 31t-25 28.5t-10.5 20t10 20q12 15 28 33.5t32.5 37.5t32.5 37.5t30 33.5q3 4 7.5 5.5t9.5 -0.5 q3 -2 10.5 -10.5t23 -24t42.5 -37.5t69 -51q13 -8 17 -11t-4 -17q-6 -11 -25.5 -35t-42.5 -49.5t-45 -45.5t-34 -21zM1889 624q6 -2 7 -3q9 -7 15 -29.5t6 -51.5q0 -6 -1 -20t-4 -28t-8.5 -25t-14.5 -12q-3 1 -13.5 3t-23.5 4q-15 3 -31.5 4.5t-32.5 0.5t-31.5 -5.5 t-27.5 -14.5q-23 -18 -39.5 -43t-31.5 -50q-53 -88 -123.5 -144.5t-150.5 -93.5q-63 -29 -128 -47.5t-132 -31t-135 -19.5t-136 -11q-84 -6 -169.5 -7t-164 3.5t-145.5 15.5t-113 29q-48 19 -76.5 43.5t-42 56.5t-15.5 71.5t1 88.5q5 71 11 136.5t14 110.5q2 15 8.5 25.5 t19.5 9.5q9 -1 13 -16.5t3 -32.5q-3 -55 -1.5 -92t15.5 -63q11 -20 34.5 -36t56 -28.5t73 -21.5t85.5 -15q57 -8 127.5 -13.5t149 -8t161.5 -0.5t166 8q73 6 152 16.5t154.5 31t145 53.5t123.5 84q17 16 32.5 35.5t30.5 39t31 38t35 32.5q29 20 58.5 24t62.5 -1z" arabic-form="final" horiz-adv-x="1887" unicode="پ"/><glyph d="M211 386q11 -21 34.5 -37t56 -28t73 -21t85.5 -15q71 -10 163.5 -16t194 -6.5t207 6t202.5 21t180.5 39t140.5 60.5q46 29 80.5 67t54.5 88q7 27 17.5 39t18.5 8.5t10 -22.5t-7 -52q-22 -95 -67 -168t-107 -128t-138.5 -92.5t-161.5 -62.5q-54 -16 -133.5 -29.5 t-171.5 -22.5t-190 -12.5t-190 -0.5t-170.5 14t-131.5 32q-48 19 -76.5 44t-42 57t-15.5 71.5t1 88.5q5 71 11 136.5t14 110.5q3 15 9 25.5t20 9.5q8 -1 12 -16.5t3 -32.5q-3 -56 -1.5 -92.5t15.5 -62.5zM905 1103q-7 -57 -6.5 -107.5t1.5 -101.5q1 -26 -4 -66.5t-15 -71.5 q15 24 52 63.5t79 38.5q54 -3 62 -49t-12 -85q-21 -42 -59.5 -84.5t-73.5 -54.5q-35 -11 -79.5 -15.5t-113.5 -7.5q-20 -1 -23 15.5t23 23.5q6 4 18 7t16 9q11 15 42.5 55.5t32.5 78.5q3 71 -0.5 145t-3.5 90q0 13 18.5 59.5t23.5 64.5q3 9 13.5 7.5t8.5 -14.5zM823 626 q42 7 109 33t84 71q10 30 -17 45t-58 -11q-30 -25 -61 -66.5t-57 -71.5z" arabic-form="isolated" horiz-adv-x="1856" unicode="ٹ"/><glyph d="M1889 624q6 -2 7 -3q9 -7 15 -29.5t6 -51.5q0 -6 -1 -20t-4 -28t-8.5 -25t-14.5 -12q-3 1 -13.5 3t-23.5 4q-15 3 -31.5 4.5t-32.5 0.5t-31.5 -5.5t-27.5 -14.5q-23 -18 -39.5 -43t-31.5 -50q-53 -88 -123.5 -144.5t-150.5 -93.5q-63 -29 -128 -47.5t-132 -31t-135 -19.5 t-136 -11q-84 -6 -169.5 -7t-164 3.5t-145.5 15.5t-113 29q-48 19 -76.5 43.5t-42 56.5t-15.5 71.5t1 88.5q5 71 11 136.5t14 110.5q2 15 8.5 25.5t19.5 9.5q9 -1 13 -16.5t3 -32.5q-3 -55 -1.5 -92t15.5 -63q11 -20 34.5 -36t56 -28.5t73 -21.5t85.5 -15q57 -8 127.5 -13.5 t149 -8t161.5 -0.5t166 8q73 6 152 16.5t154.5 31t145 53.5t123.5 84q17 16 32.5 35.5t30.5 39t31 38t35 32.5q29 20 58.5 24t62.5 -1zM905 1103q-7 -57 -6.5 -107.5t1.5 -101.5q1 -26 -4 -66.5t-15 -71.5q15 24 52 63.5t79 38.5q54 -3 62 -49t-12 -85q-21 -42 -59.5 -84.5 t-73.5 -54.5q-35 -11 -79.5 -15.5t-113.5 -7.5q-20 -1 -23 15.5t23 23.5q6 4 18 7t16 9q11 15 42.5 55.5t32.5 78.5q3 71 -0.5 145t-3.5 90q0 13 18.5 59.5t23.5 64.5q3 9 13.5 7.5t8.5 -14.5zM823 626q42 7 109 33t84 71q10 30 -17 45t-58 -11q-30 -25 -61 -66.5t-57 -71.5 z" arabic-form="final" horiz-adv-x="1887" unicode="ٹ"/><glyph d="M1286 1537q25 -32 63.5 -68t90.5 -62q26 28 55.5 62.5t55.5 69.5q4 5 9 4t9 -6q26 -32 63 -66t79 -54q6 -4 10.5 -6t7 -5t2 -7t-4.5 -11q-6 -11 -24 -36.5t-40 -52.5t-43 -48t-32 -23q-20 -3 -44.5 9t-48 31.5t-43 41.5t-29.5 39q-13 -17 -30.5 -38t-35 -39t-32 -30.5 t-21.5 -13.5q-20 -4 -45.5 9.5t-50 34t-44 44t-28.5 39.5q-6 11 -5 15t8 13q31 41 65 79.5t64 76.5q9 10 19 -2zM1437 1537q-13 -2 -39 15t-53 40t-47.5 46t-21.5 34q-1 7 11 19q12 15 27.5 34t32 38t32.5 37.5t29 33.5q11 9 19 5q3 -2 10 -10.5t22.5 -24t42.5 -37.5t69 -51 q13 -8 17 -11.5t-4 -17.5q-6 -11 -25.5 -35t-42.5 -49t-45 -45t-34 -21zM214 383q11 -20 34.5 -36t56 -28.5t73 -21.5t85.5 -15q50 -7 114 -11.5t137 -6t152 0t158.5 6.5t156.5 13.5t146 21.5q25 5 59.5 12.5t71.5 19t73 27t64.5 36t46 47t17.5 59.5q-3 14 -10.5 24 t-17.5 15t-21.5 6.5t-21.5 -1.5q-26 -6 -59 -8t-63.5 7t-52.5 32t-24 68q-2 42 7.5 79.5t19.5 78.5q7 27 15.5 55t23 50.5t37 35.5t57.5 10q29 -3 53 -20t43.5 -43t34.5 -58t25 -65.5t15 -64.5t6 -55q1 -60 -8 -120t-29.5 -116t-53 -106t-77.5 -92q-51 -47 -123 -81.5 t-155 -59t-173.5 -40t-179 -24.5t-170 -12t-147.5 -2q-28 0 -68 1.5t-84.5 6t-91 13t-87.5 22t-74 32.5t-50 46q-18 29 -24 66.5t-6 86.5q0 56 9.5 131t21.5 147q3 15 9 25.5t20 9.5q8 -1 12 -16.5t3 -32.5q-3 -55 -1.5 -92t15.5 -63z" arabic-form="isolated" horiz-adv-x="1856" unicode="ڤ"/><glyph d="M1466 1327q25 -32 63.5 -68t90.5 -62q26 28 55.5 62.5t55.5 69.5q4 5 9 4t9 -6q26 -32 63 -66t79 -54q6 -4 10.5 -6t7 -5t2 -7t-4.5 -11q-6 -11 -24 -36.5t-40 -52.5t-43 -48t-32 -23q-20 -3 -44.5 9t-48 31.5t-43 41.5t-29.5 39q-13 -17 -30.5 -38t-35 -39t-32 -30.5 t-21.5 -13.5q-20 -4 -45.5 9.5t-50 34t-44 44t-28.5 39.5q-6 11 -5 15t8 13q31 41 65 79.5t64 76.5q9 10 19 -2zM1617 1327q-13 -2 -39 15t-53 40t-47.5 46t-21.5 34q-1 7 11 19q12 15 27.5 34t32 38t32.5 37.5t29 33.5q11 9 19 5q3 -2 10 -10.5t22.5 -24t42.5 -37.5t69 -51 q13 -8 17 -11.5t-4 -17.5q-6 -11 -25.5 -35t-42.5 -49t-45 -45t-34 -21zM1577 421q18 8 41.5 25.5t44.5 39.5t35.5 45t14.5 42q1 25 -8.5 48t-25.5 40t-38 27t-46 9q-21 -1 -41 -10t-36 -24t-26 -33t-13 -37q-4 -25 -0.5 -50.5t15.5 -48.5t32.5 -42t50.5 -31zM261 60 q-48 19 -76.5 44t-42 57t-15.5 71.5t1 88.5q5 71 11 136.5t14 110.5q2 15 8.5 25.5t20.5 9.5q8 -1 12 -16.5t3 -32.5q-3 -56 -1 -92.5t15 -63.5q16 -32 60.5 -54t107.5 -37q66 -15 160.5 -24t202.5 -11.5t221 2.5t216 19q78 11 151.5 28.5t125.5 38.5q-17 23 -26.5 52 t-13.5 60t-2 62.5t9 58.5q11 44 33 91.5t53.5 85t72 58t88.5 10.5q42 -9 65.5 -35.5t34 -62t10 -75.5t-6.5 -76q-9 -56 -29.5 -108.5t-50.5 -96.5q-75 -109 -196.5 -180.5t-270.5 -114.5q-57 -16 -134.5 -31t-165.5 -26t-181 -16.5t-181 -3.5t-166.5 13.5t-136.5 34.5z" arabic-form="final" horiz-adv-x="1687" unicode="ڤ"/><glyph d="M1250 528q4 16 13.5 23.5t18.5 6t14 -12.5t1 -32q-25 -89 -63 -184.5t-90.5 -185.5t-118.5 -170t-145.5 -138t-172.5 -89.5t-199 -24.5q-89 5 -154 38t-110 84.5t-71.5 118.5t-37 140.5t-8 150t16.5 147.5q38 201 145.5 378.5t275.5 314.5q16 13 21.5 20.5t3 12t-10.5 7 t-18 4.5q-32 7 -68.5 12.5t-73 7t-69.5 -2t-56 -13.5q-10 -4 -21.5 -13.5t-22.5 -20.5t-21 -23t-17 -22q-9 -13 -20.5 -23.5t-24.5 -7.5q-7 2 -8 12.5t11 31.5q23 43 48.5 80.5t57 66.5t72 47t93.5 21q38 2 77 0t75.5 -6t67.5 -9.5t53 -9.5q37 -8 47.5 -20.5t5.5 -29.5 q-11 -39 -47.5 -84.5t-89.5 -94.5q-74 -69 -144 -138.5t-125.5 -146.5t-90 -166t-36.5 -198q-2 -82 21.5 -151.5t66.5 -121t103.5 -83t133.5 -37.5q86 -7 163.5 10.5t146.5 54t128 88.5t107 113.5t85 130t61 137.5zM617 748q24 -30 60 -63.5t85 -58.5q24 27 52 59t52 65 q4 5 8.5 4t8.5 -6q24 -30 59 -61.5t74 -50.5q6 -4 10 -6t6.5 -4.5t2 -6.5t-4.5 -10q-5 -11 -22 -35t-37.5 -49t-40.5 -45t-30 -22q-19 -2 -42 9t-45 29.5t-40.5 39t-27.5 36.5q-12 -16 -28.5 -35.5t-33 -36.5t-30 -29t-20.5 -13q-18 -3 -42 9.5t-47 31.5t-41.5 41.5 t-26.5 37.5q-6 10 -5 13.5t7 12.5q30 38 61.5 74.5t60.5 71.5q8 10 17 -2zM761 175q-8 -1 -22.5 6t-30.5 19.5t-33 27t-31.5 29t-23.5 26.5t-10 19q-1 6 9 18q12 15 27 32t30.5 35t30.5 35.5t28 31.5q3 3 7 4.5t9 -0.5q2 -1 9.5 -9t22 -23t39.5 -35.5t65 -47.5 q12 -8 15.5 -10.5t-3.5 -15.5q-6 -11 -24 -33.5t-39.5 -46.5t-42.5 -42.5t-32 -19.5z" arabic-form="isolated" horiz-adv-x="1426" unicode="چ"/><glyph d="M617 748q24 -30 60 -63.5t85 -58.5q24 27 52 59t52 65q4 5 8.5 4t8.5 -6q24 -30 59 -61.5t74 -50.5q6 -4 10 -6t6.5 -4.5t2 -6.5t-4.5 -10q-5 -11 -22 -35t-37.5 -49t-40.5 -45t-30 -22q-19 -2 -42 9t-45 29.5t-40.5 39t-27.5 36.5q-12 -16 -28.5 -35.5t-33 -36.5 t-30 -29t-20.5 -13q-18 -3 -42 9.5t-47 31.5t-41.5 41.5t-26.5 37.5q-6 10 -5 13.5t7 12.5q30 38 61.5 74.5t60.5 71.5q8 10 17 -2zM761 175q-8 -1 -22.5 6t-30.5 19.5t-33 27t-31.5 29t-23.5 26.5t-10 19q-1 6 9 18q12 15 27 32t30.5 35t30.5 35.5t28 31.5q3 3 7 4.5 t9 -0.5q2 -1 9.5 -9t22 -23t39.5 -35.5t65 -47.5q12 -8 15.5 -10.5t-3.5 -15.5q-6 -11 -24 -33.5t-39.5 -46.5t-42.5 -42.5t-32 -19.5zM1286 532q4 16 14 23.5t19 6t14 -12t1 -31.5q-25 -90 -66 -185.5t-97.5 -186.5t-127 -171t-154 -139t-179.5 -90.5t-202 -24.5 q-89 5 -154 38t-110 84.5t-71.5 118.5t-37 140.5t-8 150t16.5 147.5q20 106 60 207.5t98.5 194.5t134.5 176t169 151q-35 10 -84 16t-101 6t-101.5 -6t-85.5 -21q-39 -20 -48.5 -3t22.5 86q11 14 30.5 25t45.5 19q30 10 58 16.5t55.5 9.5t56.5 4t62 1q60 0 112.5 -5 t82.5 -10q37 -6 47.5 -19t5.5 -30q-11 -40 -47.5 -85t-89.5 -94q-74 -69 -143.5 -138.5t-124.5 -147.5t-89 -167.5t-36 -197.5q-2 -82 21.5 -151.5t66.5 -121t103.5 -83t133.5 -37.5q86 -7 166.5 10.5t153 54.5t136 89.5t116 114.5t92 130.5t63.5 137.5z" arabic-form="final" horiz-adv-x="210" unicode="چ"/><glyph d="M358 840q96 -28 146.5 -86t65.5 -131.5t1 -155.5t-45 -158q-20 -47 -44.5 -93.5t-50.5 -85.5q-19 -26 -33.5 -41.5t-37.5 -21.5q-31 -10 -73.5 -19t-88 -17t-89 -15.5t-76.5 -13.5q-11 -3 -20 -0.5t-11 10t6.5 20t32.5 28.5q25 15 64.5 34t84.5 41t91.5 45t85.5 45.5 t65.5 42t32.5 35.5q10 25 2.5 61.5t-32.5 72t-66.5 65t-100.5 40.5q-6 1 -3.5 24t10.5 57t19.5 72.5t23.5 71.5t23 54t17 19zM336 1592q-7 -57 -6.5 -107.5t1.5 -101.5q1 -26 -4 -66.5t-15 -71.5q15 24 52 63.5t79 38.5q54 -3 62 -49t-12 -85q-21 -42 -59.5 -84.5 t-73.5 -54.5q-35 -11 -79.5 -15.5t-113.5 -7.5q-20 -1 -23 15.5t23 23.5q6 4 18 7t16 9q11 15 42.5 55.5t32.5 78.5q3 71 -0.5 145t-3.5 90q0 13 18.5 59.5t23.5 64.5q3 9 13.5 7.5t8.5 -14.5zM254 1115q42 7 109 33t84 71q10 30 -17 45t-58 -11q-30 -25 -61 -66.5 t-57 -71.5z" arabic-form="isolated" horiz-adv-x="665" unicode="ڈ"/><glyph d="M651 809q-2 -35 -8 -70t-11 -70q-6 -42 -9 -86t4 -84q9 -64 45 -102t105 -38q2 0 7 -3q15 -8 20 -46t-4 -90q-8 -48 -23.5 -84t-32.5 -49q-7 -5 -13 -5q-50 0 -86 23t-60 60t-36.5 83t-15.5 93q-20 -59 -41 -110.5t-41 -91.5q-10 -21 -22 -39.5t-35 -24.5 q-12 -6 -36 -12.5t-55 -13.5t-65.5 -13t-66.5 -12t-58 -10.5t-41 -7.5q-4 0 -11 -1.5t-14.5 -2.5t-14 -1.5t-9.5 0.5q-18 3 -20.5 18.5t30.5 35.5q32 20 73 46t85.5 57t90 66t86 73.5t73 79t52.5 82.5q26 57 50 142.5t50 192.5q7 31 18 44.5t20 13.5t15 -11.5t5 -31.5z M622 1592q-7 -57 -6.5 -107.5t1.5 -101.5q1 -26 -4 -66.5t-15 -71.5q15 24 52 63.5t79 38.5q54 -3 62 -49t-12 -85q-21 -42 -59.5 -84.5t-73.5 -54.5q-35 -11 -79.5 -15.5t-113.5 -7.5q-20 -1 -23 15.5t23 23.5q6 4 18 7t16 9q11 15 42.5 55.5t32.5 78.5q3 71 -0.5 145 t-3.5 90q0 13 18.5 59.5t23.5 64.5q3 9 13.5 7.5t8.5 -14.5zM540 1115q42 7 109 33t84 71q10 30 -17 45t-58 -11q-30 -25 -61 -66.5t-57 -71.5z" arabic-form="final" horiz-adv-x="779" unicode="ڈ"/><glyph d="M623 791q-3 -42 -12.5 -97t-24 -115.5t-32.5 -124t-38 -123t-40.5 -113t-39.5 -93.5q-11 -22 -21 -33.5t-22 -17.5q-12 -5 -36.5 -11.5t-55 -13.5t-65.5 -13.5t-66.5 -12t-58 -10t-41.5 -7.5q-4 0 -11 -1.5t-14.5 -2.5t-14 -1.5t-9.5 -0.5q-9 2 -15 7t-6 12t7 16.5 t24 20.5q49 31 111.5 74t122.5 90t108.5 93.5t69.5 84.5q18 31 33 68.5t29 83.5t28.5 102t31.5 124q7 31 17.5 44.5t20 14t15.5 -11.5t5 -32zM574 1014q-13 -2 -39 15t-53 40t-47.5 46t-21.5 34q-1 7 11 19q12 15 27.5 34t32 38t32.5 37.5t29 33.5q11 9 19 5q3 -2 10 -10.5 t22.5 -24t42.5 -37.5t69 -51q13 -8 17 -11.5t-4 -17.5q-6 -11 -25.5 -35t-42.5 -49t-45 -45t-34 -21z" arabic-form="isolated" horiz-adv-x="809" unicode="ژ"/><glyph d="M438 1076q-13 -2 -39 15t-53 40t-47.5 46t-21.5 34q-1 7 11 19q12 15 27.5 34t32 38t32.5 37.5t29 33.5q11 9 19 5q3 -2 10 -10.5t22.5 -24t42.5 -37.5t69 -51q13 -8 17 -11.5t-4 -17.5q-6 -11 -25.5 -35t-42.5 -49t-45 -45t-34 -21zM498 356q-21 -61 -38.5 -111 t-35.5 -86.5t-37 -60t-41 -32.5q-30 -11 -70.5 -20.5t-83.5 -17t-85 -14.5t-75 -13q-11 -2 -19.5 1.5t-10.5 11.5t4.5 18.5t26.5 22.5q33 20 75.5 46t88 57t90.5 65.5t83.5 71.5t67.5 75t42 76q4 8 9.5 0t9 -23.5t4 -34.5t-4.5 -32z" arabic-form="final" horiz-adv-x="474" unicode="ژ"/><glyph d="M623 791q-3 -42 -12.5 -97t-24 -115.5t-32.5 -124t-38 -123t-40.5 -113t-39.5 -93.5q-11 -22 -21 -33.5t-22 -17.5q-12 -5 -36.5 -11.5t-55 -13.5t-65.5 -13.5t-66.5 -12t-58 -10t-41.5 -7.5q-4 0 -11 -1.5t-14.5 -2.5t-14 -1.5t-9.5 -0.5q-9 2 -15 7t-6 12t7 16.5 t24 20.5q49 31 111.5 74t122.5 90t108.5 93.5t69.5 84.5q18 31 33 68.5t29 83.5t28.5 102t31.5 124q7 31 17.5 44.5t20 14t15.5 -11.5t5 -32zM523 1486q-7 -57 -6.5 -107.5t1.5 -101.5q1 -26 -4 -66.5t-15 -71.5q15 24 52 63.5t79 38.5q54 -3 62 -49t-12 -85 q-21 -42 -59.5 -84.5t-73.5 -54.5q-35 -11 -79.5 -15.5t-113.5 -7.5q-20 -1 -23 15.5t23 23.5q6 4 18 7t16 9q11 15 42.5 55.5t32.5 78.5q3 71 -0.5 145t-3.5 90q0 13 18.5 59.5t23.5 64.5q3 9 13.5 7.5t8.5 -14.5zM441 1009q42 7 109 33t84 71q10 30 -17 45t-58 -11 q-30 -25 -61 -66.5t-57 -71.5z" arabic-form="isolated" horiz-adv-x="838" unicode="ڑ"/><glyph d="M498 356q-21 -61 -38.5 -111t-35.5 -86.5t-37 -60t-41 -32.5q-30 -11 -70.5 -20.5t-83.5 -17t-85 -14.5t-75 -13q-11 -2 -19.5 1.5t-10.5 11.5t4.5 18.5t26.5 22.5q33 20 75.5 46t88 57t90.5 65.5t83.5 71.5t67.5 75t42 76q4 8 9.5 0t9 -23.5t4 -34.5t-4.5 -32zM339 1380 q-7 -57 -6.5 -107.5t1.5 -101.5q1 -26 -4 -66.5t-15 -71.5q15 24 52 63.5t79 38.5q54 -3 62 -49t-12 -85q-21 -42 -59.5 -84.5t-73.5 -54.5q-35 -11 -79.5 -15.5t-113.5 -7.5q-20 -1 -23 15.5t23 23.5q6 4 18 7t16 9q11 15 42.5 55.5t32.5 78.5q3 71 -0.5 145t-3.5 90 q0 13 18.5 59.5t23.5 64.5q3 9 13.5 7.5t8.5 -14.5zM257 903q42 7 109 33t84 71q10 30 -17 45t-58 -11q-30 -25 -61 -66.5t-57 -71.5z" arabic-form="final" horiz-adv-x="480" unicode="ڑ"/><glyph d="M1450 474q-24 -46 -60.5 -77t-82.5 -52t-99.5 -33t-111.5 -21q-52 -8 -125.5 -13t-157.5 -6t-172 3t-167 14.5t-144.5 28t-103.5 44.5q-17 12 -23 31.5t-7 43.5t1.5 51t4.5 54q1 17 -2.5 33t-13.5 18q-14 1 -20 -10t-9 -26q-13 -74 -22.5 -146t-9.5 -129q0 -45 6 -82.5 t22 -66.5t43.5 -51t70.5 -37q66 -18 146.5 -28.5t167 -14.5t175.5 -0.5t173.5 14.5t160 29.5t134.5 45.5q47 21 88 56.5t75.5 82t61.5 101.5t46 117q29 76 41.5 161t17 174.5t6 182.5t8.5 186q40 60 106.5 118.5t144.5 121.5t161.5 132.5t158.5 149.5q18 21 37 54t36.5 68 t31.5 68t23 56q3 6 1 11.5t-6.5 8t-10 1.5t-9.5 -7q-39 -56 -91.5 -109t-112 -104.5t-123 -102t-123 -99.5t-112 -97.5t-90.5 -96.5q-11 -15 -23.5 -38t-24 -48t-21 -49t-14.5 -41l-16 -44t-14 -42t-10 -36t-4 -26q2 -127 1.5 -263t-14.5 -264z" arabic-form="isolated" horiz-adv-x="1870" unicode="ک"/><glyph d="M1649 1101q-7 -24 -11 -75t-6.5 -117t-2.5 -139.5t2 -142t6 -124.5t11 -87q6 -30 17 -56.5t29.5 -46t45.5 -31t64 -11.5q3 0 7 -2q15 -8 19.5 -45t-3.5 -88q-8 -47 -23 -82.5t-31 -47.5q-6 -5 -13 -6q-48 0 -82 24t-57 62.5t-36 87t-19 98.5t-7 96t0 80 q-45 -137 -148 -231.5t-261 -145.5q-54 -17 -128 -31t-157.5 -22.5t-171 -12t-169 -1t-151.5 11.5t-118 26q-49 16 -76.5 41.5t-39.5 58.5t-13 74t2 90q5 71 11 136.5t14 110.5q3 15 9 25.5t20 9.5q8 -1 12 -16.5t3 -32.5q-1 -15 -1.5 -34t-0.5 -38.5t2.5 -39t7.5 -36.5 q7 -23 27.5 -41t51.5 -31.5t69 -23t80 -15.5q52 -8 127.5 -13.5t162.5 -5t181.5 8t185 24.5t172.5 45.5t145 70.5t101 98.5t42 131.5q0 28 1.5 65t2.5 74.5t2 72.5t1 61t4 60t11.5 69t17.5 67.5t22 55.5t30 49.5t47 58.5q28 31 76 69t107 81.5t125.5 91.5t132 100t127 106.5 t110.5 110.5q5 6 10.5 6.5t9.5 -2.5t6 -8.5t-1 -11.5q-11 -21 -27 -52t-35.5 -64t-40 -64t-39.5 -50q-16 -15 -49.5 -42t-77.5 -61.5t-95 -73.5t-102.5 -78.5t-100 -77t-86.5 -68t-62 -53t-28 -31.5z" arabic-form="final" horiz-adv-x="1798" unicode="ک"/><glyph d="M2 277q34 0 74 8.5t74 28.5t57.5 52.5t25.5 81.5t3 91.5t1 83t-0.5 81t-1.5 86.5q0 34 -0.5 69.5t6.5 73.5q11 57 30.5 106.5t42.5 104.5q9 21 25.5 41t36.5 37.5t40.5 32t37.5 25.5q49 30 103.5 59.5t111.5 57.5t114.5 55.5t113.5 54.5q47 23 82.5 43.5t64 39t52.5 36 t48 35.5q6 5 11.5 4.5t9.5 -4t5 -9t-3 -10.5q-43 -55 -72 -94t-57.5 -68.5t-61.5 -54t-83 -51.5q-86 -44 -169 -84t-156 -77t-132.5 -71t-98.5 -65q-5 -76 -5 -143.5v-131t-1.5 -126.5t-9.5 -131q-5 -50 -19.5 -110t-37 -120.5t-53 -117t-69.5 -100.5t-85.5 -70.5 t-100.5 -26.5q-10 0 -16.5 11t-9.5 29.5t-2.5 43.5t5.5 54q4 28 12 53.5t17.5 44.5t19.5 30t20 11z" arabic-form="initial" horiz-adv-x="571" unicode="ک"/><glyph d="M739 379q2 0 6 -2q15 -8 20.5 -46t-4.5 -90q-8 -48 -23 -84.5t-32 -48.5q-7 -5 -13 -5q-46 0 -82.5 20t-62.5 53t-41.5 76t-20.5 89q-36 -84 -106 -155t-161.5 -117.5t-197.5 -62.5t-214 8q-37 8 -38 30.5t25.5 46t76 42t113.5 18.5q37 -3 87 6t102.5 27t104 44.5 t92.5 60t67.5 72.5t28.5 83q3 65 3 114.5t-1 97t-2.5 98.5t-1.5 119q-3 12 2.5 37t15.5 55t22.5 62t24.5 60t22 48.5t14 26.5q21 32 48.5 61t62.5 58q66 55 144 109.5t156.5 110t152.5 112t134 115.5q4 6 10 7t10.5 -2t6.5 -8.5t-1 -11.5q-9 -22 -24.5 -49.5t-34 -55.5 t-38.5 -55t-38 -48q-52 -44 -113.5 -89t-124.5 -90t-122 -87t-106.5 -80t-78.5 -69.5t-37 -53.5q-6 -19 -8.5 -55.5t-3 -81.5t0.5 -93.5t2.5 -92.5t3.5 -78t3 -50q3 -38 12 -73t25 -64q20 -36 57 -52.5t75 -16.5z" arabic-form="medial" horiz-adv-x="745" unicode="ک"/><glyph d="M1450 474q-24 -46 -60.5 -77t-82.5 -52t-99.5 -33t-111.5 -21q-52 -8 -125.5 -13t-157.5 -6t-172 3t-167 14.5t-144.5 28t-103.5 44.5q-17 12 -23 31.5t-7 43.5t1.5 51t4.5 54q1 17 -2.5 33t-13.5 18q-14 1 -20 -10t-9 -26q-13 -74 -22.5 -146t-9.5 -129q0 -45 6 -82.5 t22 -66.5t43.5 -51t70.5 -37q66 -18 146.5 -28.5t167 -14.5t175.5 -0.5t173.5 14.5t160 29.5t134.5 45.5q47 21 88 56.5t75.5 82t61.5 101.5t46 117q29 76 41.5 161t17 174.5t6 182.5t8.5 186q40 60 106.5 118.5t144.5 121.5t161.5 132.5t158.5 149.5q18 21 37 54t36.5 68 t31.5 68t23 56q3 6 1 11.5t-6.5 8t-10 1.5t-9.5 -7q-39 -56 -91.5 -109t-112 -104.5t-123 -102t-123 -99.5t-112 -97.5t-90.5 -96.5q-11 -15 -23.5 -38t-24 -48t-21 -49t-14.5 -41l-16 -44t-14 -42t-10 -36t-4 -26q2 -127 1.5 -263t-14.5 -264zM2082 1928 q-66 -62 -140 -120.5t-147 -116.5t-140 -117t-120 -120q-5 -6 -11 -7t-10.5 2.5t-5.5 11t5 18.5q12 21 21.5 43.5t20.5 45t24 44t31 40.5q66 72 134.5 128.5t138.5 110t141.5 110.5t144.5 130q6 6 10.5 4.5t7 -6.5t3 -12t-2.5 -13q-11 -21 -21 -39t-21.5 -38t-26.5 -44 t-36 -55z" arabic-form="isolated" horiz-adv-x="1870" unicode="گ"/><glyph d="M2196 1809q-75 -63 -157.5 -121t-164 -115.5t-157.5 -116t-138 -120.5q-6 -6 -12 -7t-10 2.5t-3.5 11.5t7.5 18q16 22 29 44.5t27.5 45t30.5 44t37 40.5q77 72 154 128.5t155 110t157.5 110t163.5 129.5q7 6 11.5 4.5t6 -6.5t1 -12t-4.5 -14q-15 -21 -27.5 -39t-27 -38 t-33.5 -44t-45 -55zM1649 1101q-7 -24 -11 -75t-6.5 -117t-2.5 -139.5t2 -142t6 -124.5t11 -87q6 -30 17 -56.5t29.5 -46t45.5 -31t64 -11.5q3 0 7 -2q15 -8 19.5 -45t-3.5 -88q-8 -47 -23 -82.5t-31 -47.5q-6 -5 -13 -6q-48 0 -82 24t-57 62.5t-36 87t-19 98.5t-7 96t0 80 q-45 -137 -148 -231.5t-261 -145.5q-54 -17 -128 -31t-157.5 -22.5t-171 -12t-169 -1t-151.5 11.5t-118 26q-49 16 -76.5 41.5t-39.5 58.5t-13 74t2 90q5 71 11 136.5t14 110.5q3 15 9 25.5t20 9.5q8 -1 12 -16.5t3 -32.5q-1 -15 -1.5 -34t-0.5 -38.5t2.5 -39t7.5 -36.5 q7 -23 27.5 -41t51.5 -31.5t69 -23t80 -15.5q52 -8 127.5 -13.5t162.5 -5t181.5 8t185 24.5t172.5 45.5t145 70.5t101 98.5t42 131.5q0 28 1.5 65t2.5 74.5t2 72.5t1 61t4 60t11.5 69t17.5 67.5t22 55.5t30 49.5t47 58.5q28 31 76 69t107 81.5t125.5 91.5t132 100t127 106.5 t110.5 110.5q5 6 10.5 6.5t9.5 -2.5t6 -8.5t-1 -11.5q-11 -21 -27 -52t-35.5 -64t-40 -64t-39.5 -50q-16 -15 -49.5 -42t-77.5 -61.5t-95 -73.5t-102.5 -78.5t-100 -77t-86.5 -68t-62 -53t-28 -31.5z" arabic-form="final" horiz-adv-x="1798" unicode="گ"/><glyph d="M2 277q34 0 74 8.5t74 28.5t57.5 52.5t25.5 81.5t3 91.5t1 83t-0.5 81t-1.5 86.5q0 34 -0.5 69.5t6.5 73.5q11 57 30.5 106.5t42.5 104.5q9 21 25.5 41t36.5 37.5t40.5 32t37.5 25.5q49 30 103.5 59.5t111.5 57.5t114.5 55.5t113.5 54.5q47 23 82.5 43.5t64 39t52.5 36 t48 35.5q6 5 11.5 4.5t9.5 -4t5 -9t-3 -10.5q-43 -55 -72 -94t-57.5 -68.5t-61.5 -54t-83 -51.5q-86 -44 -169 -84t-156 -77t-132.5 -71t-98.5 -65q-5 -76 -5 -143.5v-131t-1.5 -126.5t-9.5 -131q-5 -50 -19.5 -110t-37 -120.5t-53 -117t-69.5 -100.5t-85.5 -70.5 t-100.5 -26.5q-10 0 -16.5 11t-9.5 29.5t-2.5 43.5t5.5 54q4 28 12 53.5t17.5 44.5t19.5 30t20 11zM938 1673q-76 -49 -159.5 -93t-166 -87.5t-159 -89.5t-139.5 -96q-6 -5 -12 -5t-10 4.5t-3.5 12t8.5 16.5q15 19 28.5 39.5t28.5 40.5t31.5 38.5t38.5 34.5q78 59 155.5 102 t156 82.5t159.5 82.5t166 102q7 5 11 2.5t5.5 -8t0.5 -12.5t-5 -12q-14 -19 -27.5 -34.5t-28 -33t-34 -38.5t-45.5 -48z" arabic-form="initial" horiz-adv-x="771" unicode="گ"/><glyph d="M739 379q2 0 6 -2q15 -8 20.5 -46t-4.5 -90q-8 -48 -23 -84.5t-32 -48.5q-7 -5 -13 -5q-46 0 -82.5 20t-62.5 53t-41.5 76t-20.5 89q-36 -84 -106 -155t-161.5 -117.5t-197.5 -62.5t-214 8q-37 8 -38 30.5t25.5 46t76 42t113.5 18.5q37 -3 87 6t102.5 27t104 44.5 t92.5 60t67.5 72.5t28.5 83q3 65 3 114.5t-1 97t-2.5 98.5t-1.5 119q-3 12 2.5 37t15.5 55t22.5 62t24.5 60t22 48.5t14 26.5q21 32 48.5 61t62.5 58q66 55 144 109.5t156.5 110t152.5 112t134 115.5q4 6 10 7t10.5 -2t6.5 -8.5t-1 -11.5q-9 -22 -24.5 -49.5t-34 -55.5 t-38.5 -55t-38 -48q-52 -44 -113.5 -89t-124.5 -90t-122 -87t-106.5 -80t-78.5 -69.5t-37 -53.5q-6 -19 -8.5 -55.5t-3 -81.5t0.5 -93.5t2.5 -92.5t3.5 -78t3 -50q3 -38 12 -73t25 -64q20 -36 57 -52.5t75 -16.5zM1114 1744q-71 -56 -150 -108t-156.5 -104t-149 -105 t-129.5 -110q-6 -5 -12 -5.5t-10 3.5t-4.5 11.5t6.5 17.5q14 20 25 41.5t24 43t28 42t34 37.5q72 67 145 117.5t147 98t150 98t155 117.5q7 6 11 4t6.5 -7.5t2 -12.5t-3.5 -12q-13 -20 -24.5 -37.5t-24.5 -36t-30 -41.5t-40 -52z" arabic-form="medial" horiz-adv-x="745" unicode="گ"/><glyph d="M313 805q-20 -69 -42.5 -141.5t-38.5 -145.5q-14 -61 -17.5 -122.5t5.5 -118t31 -106t60 -87.5t92.5 -61.5t128.5 -28.5q85 -6 165.5 14.5t151 63t127.5 104t95 137.5q14 27 24.5 54.5t13.5 53.5q7 60 6.5 123t-4 127.5t-7 130.5t-1.5 133q1 10 6 31.5t13 49t17.5 58 t18.5 58t16.5 49.5t11.5 33q4 9 11 12.5t13.5 2t10.5 -8t3 -16.5q-4 -75 -4 -153v-156t-2 -155t-10 -150q-6 -57 -17 -115t-26 -114t-33.5 -109t-40.5 -100q-30 -65 -73.5 -128t-97 -117t-116 -96t-131.5 -65.5t-143 -25.5t-150 25q-71 26 -119.5 74t-79.5 111 q-29 60 -42.5 131.5t-13.5 147.5t11 155t29.5 154.5t42.5 146t50 129.5q10 22 21.5 32.5t20.5 11.5t13 -8t0 -25z" arabic-form="isolated" horiz-adv-x="1350" unicode="ں"/><glyph d="M329 829q-22 -81 -48 -155.5t-42 -150.5q-15 -69 -17 -136t9.5 -126.5t38.5 -109.5t71 -85.5t105.5 -54t143.5 -15.5q114 5 211.5 50t172.5 119t125 171t70 207q19 109 17.5 217.5t-8.5 218.5q-1 22 4 42t13 32.5t17 15.5t17 -9q7 -9 15.5 -30.5t15.5 -50.5t9.5 -63 t-2.5 -69q-4 -120 -22 -247t-56 -250q-24 -80 -60 -159t-83.5 -150.5t-106 -132t-127.5 -104t-148.5 -66t-168.5 -17.5q-93 5 -159 40t-109.5 90t-66 126t-29 149t0 157t22.5 151q23 106 54.5 206.5t66.5 176.5q10 22 21.5 33t20 12t12.5 -8t0 -25z" arabic-form="final" horiz-adv-x="1268" unicode="ں"/><glyph d="M578 1323q9 -1 8 -18.5t-7.5 -42t-17 -50.5t-20.5 -43q-8 -12 -13.5 -16t-12 -4.5t-14 1.5t-19.5 3q-33 1 -55.5 -18t-39 -47t-28.5 -60l-21 -56q-13 -31 -28.5 -58.5t-34.5 -46.5q-14 -13 -34 -22t-40.5 -10.5t-39.5 6t-31 27.5q-4 5 -3.5 18.5t4 29.5t9 33t12 30t14 20 t13.5 3q18 -10 35.5 -15t34.5 -1q21 3 38.5 16.5t31 31.5t24 39t17.5 39q23 54 43.5 95.5t47.5 69.5t59.5 39t67.5 7zM160 431q-5 1 -11.5 1t-11.5 2.5t-8.5 9.5t-2.5 22q2 27 10 61t19 66t24.5 57t27.5 33q39 24 80.5 32.5t80 1.5t72.5 -28t59 -56q22 -30 32.5 -70 t12 -84.5t-5.5 -91.5t-20 -92q-16 -53 -39.5 -105.5t-54 -94.5t-68.5 -68.5t-83 -26.5q-41 0 -68.5 16t-44 44t-23.5 63.5t-7.5 74t3.5 76.5t9 70t10.5 55t7.5 32zM212 439q-8 -18 -15.5 -44t-11 -54.5t-1.5 -57t13 -52.5t32 -41.5t56 -23.5q31 -5 62.5 5.5t56.5 31.5 t40.5 50t15.5 61q0 43 -23.5 76t-60 51.5t-80.5 19t-84 -21.5z" arabic-form="isolated" horiz-adv-x="712" unicode="ۀ"/><glyph d="M612 994q9 -1 8 -18.5t-7.5 -42t-17 -50.5t-20.5 -43q-8 -12 -13.5 -16t-12 -4.5t-14 1.5t-19.5 3q-33 1 -55.5 -18t-39 -47t-28.5 -60l-21 -56q-13 -31 -28.5 -58.5t-34.5 -46.5q-14 -13 -34 -22t-40.5 -10.5t-39.5 6t-31 27.5q-4 5 -3.5 18.5t4 29.5t9 33t12 30t14 20 t13.5 3q18 -10 35.5 -15t34.5 -1q21 3 38.5 16.5t31 31.5t24 39t17.5 39q23 54 43.5 95.5t47.5 69.5t59.5 39t67.5 7zM576 0q-35 3 -55.5 13t-38 20t-37.5 17t-54 5q-59 -4 -114.5 -40.5t-97.5 -120.5q-8 -16 -19 -22.5t-19.5 -3.5t-12 15t4.5 32q24 60 62.5 123t88 116 t107 88.5t118.5 40.5q22 2 35.5 -2t25.5 -10.5t25 -13.5t33 -12q12 -3 17 -22.5t5 -47t-5.5 -58.5t-15 -57t-23.5 -43.5t-30 -16.5z" arabic-form="final" horiz-adv-x="626" unicode="ۀ"/><glyph d="M160 431q-5 1 -11.5 1t-11.5 2.5t-8.5 9.5t-2.5 22q2 27 10 61t19 66t24.5 57t27.5 33q39 24 80.5 32.5t80 1.5t72.5 -28t59 -56q22 -30 32.5 -70t12 -84.5t-5.5 -91.5t-20 -92q-16 -53 -39.5 -105.5t-54 -94.5t-68.5 -68.5t-83 -26.5q-41 0 -68.5 16t-44 44t-23.5 63.5 t-7.5 74t3.5 76.5t9 70t10.5 55t7.5 32zM212 439q-8 -18 -15.5 -44t-11 -54.5t-1.5 -57t13 -52.5t32 -41.5t56 -23.5q31 -5 62.5 5.5t56.5 31.5t40.5 50t15.5 61q0 43 -23.5 76t-60 51.5t-80.5 19t-84 -21.5z" arabic-form="isolated" horiz-adv-x="670" unicode="ہ"/><glyph d="M576 0q-35 3 -55.5 13t-38 20t-37.5 17t-54 5q-59 -4 -114.5 -40.5t-97.5 -120.5q-8 -16 -19 -22.5t-19.5 -3.5t-12 15t4.5 32q24 60 62.5 123t88 116t107 88.5t118.5 40.5q22 2 35.5 -2t25.5 -10.5t25 -13.5t33 -12q12 -3 17 -22.5t5 -47t-5.5 -58.5t-15 -57 t-23.5 -43.5t-30 -16.5z" arabic-form="final" horiz-adv-x="626" unicode="ہ"/><glyph d="M171 433q9 -10 12.5 -29t3.5 -43t-4 -50t-9 -50.5t-10.5 -44.5t-10.5 -32q-13 -36 -31.5 -69t-44 -58.5t-57 -41t-70.5 -15.5q-9 0 -16 11t-10 30q-3 15 -3 36q0 4 1 8q0 25 5 53q5 29 12.5 54t17 44t19.5 29.5t20 10.5q8 0 16.5 0.5t16 2t13.5 5t9 10.5q7 14 12.5 31 t11 33.5t10 31.5t9.5 27q7 15 17 23t21 10h5q8 0 16 -3q10 -5 18 -14zM47 31q-7 -10 -18 -26t-24.5 -36.5t-27.5 -44t-26.5 -48t-21.5 -48.5t-12 -46q-1 -9 -1 -18q0 -12 2 -22q4 -18 18 -30q9 -5 16 -5q1 0 2 1q7 0 13 4.5t10 11.5t6 15q5 17 13 24q7 6 16 6h1 q9 -1 17.5 -8.5t14.5 -19.5q9 -18 11 -39q1 -7 1 -14q0 -14 -3 -28q-4 -22 -13.5 -43.5t-23 -39t-30 -31t-34.5 -19.5q-14 -4 -28 -4h-10q-19 2 -34.5 13.5t-26 32t-14.5 50.5q-2 18 -2 36q0 21 3 42q4 40 16 80t28.5 78.5t36.5 73t40.5 64.5t40.5 53q22 26 37 33q8 4 13 4 q4 0 7 -2q3 -4 3 -11q0 -4 -1 -9q-4 -15 -15 -30z" arabic-form="initial" horiz-adv-x="387" unicode="ہ"/><glyph d="M6 277q35 0 62.5 4t51 15t46 29.5t46.5 48.5q23 28 47.5 61t53.5 60.5t63 44t76 12.5q43 -4 69.5 -25t40 -53t15.5 -72.5t-4 -83.5t-19 -87t-29 -83q-3 -8 -6.5 -19.5t-8.5 -22.5t-12 -19.5t-16 -10.5t-17.5 7t-3.5 32q8 30 22 63t21 65q12 56 -10.5 100t-78.5 52 q-36 4 -74 -16.5t-64 -54.5q-20 -26 -40.5 -60t-42.5 -70t-46 -71t-52.5 -62t-62 -44t-73.5 -17q-9 0 -16 11t-10 29.5t-2 44t6 54.5q4 28 12 53.5t17 44t19.5 29.5t19.5 11zM346 70q-8 -12 -23.5 -33.5t-34 -49.5t-37 -59.5t-31.5 -62.5t-18 -58.5t4 -47.5q5 -13 13.5 -19 t17.5 -5t17 8.5t13 21.5q12 33 30.5 29.5t31.5 -27.5q14 -27 11.5 -60t-16.5 -64.5t-37 -56t-51 -33.5q-19 -6 -37.5 -3.5t-34 13.5t-26.5 31.5t-14 50.5q-7 57 9 120t44 123t62 111.5t64 86.5q22 27 36.5 33.5t19.5 1t2 -20t-15 -30.5z" arabic-form="medial" horiz-adv-x="575" unicode="ہ"/><glyph d="M171 0q-24 -2 -35 5t-11 16.5t9 20t25 16.5q26 12 53.5 21t39.5 18q42 59 74.5 136.5t63.5 157.5t63.5 155t73.5 129q26 34 59.5 54t68 25.5t67 -2t57.5 -29t38.5 -56t10.5 -81.5q29 39 65.5 67t74.5 41q45 15 90 4t74 -51q23 -32 27 -74.5t-4 -81.5q-5 -26 -16.5 -55 t-28 -60t-38 -61.5t-45.5 -58.5q-69 -78 -140.5 -120t-141 -60.5t-133 -21.5t-115.5 -3q-58 -20 -108.5 -30.5t-92.5 -15t-73.5 -5t-51.5 -0.5zM728 496q-2 39 -23 62.5t-51 29t-63 -9.5t-58 -53q-24 -38 -43 -83.5t-37 -96t-38.5 -103t-48.5 -103.5q31 16 70.5 38t80 49 t79.5 58t68.5 65.5t47 71t16.5 75.5zM1043 426q7 38 -8 66t-43 40t-63.5 5t-68.5 -39q-32 -31 -60.5 -71t-58 -85t-61 -91.5t-70.5 -89.5q34 8 77.5 20.5t89 29.5t90 38.5t81.5 48t62.5 58.5t32.5 70z" arabic-form="isolated" horiz-adv-x="1288" unicode="ھ"/><glyph d="M167 3q-23 0 -32.5 7t-9 16t9.5 18t24 14q13 5 29.5 9t33 7.5t30 7t19.5 7.5q43 52 79 122t70 142.5t69 139.5t77 115q40 45 90.5 55.5t94 -6t70 -56t19.5 -96.5q15 22 48 45t73 33t81.5 -1t73.5 -57q19 -27 22.5 -58.5t-4 -64.5t-23 -65.5t-34.5 -61.5t-39 -52.5 t-36 -37.5q-72 -65 -143.5 -98t-139 -46.5t-127.5 -12.5t-109 4q-55 -15 -104 -21.5t-90 -9t-72.5 -1.5t-49.5 3zM741 428q1 36 -17 59.5t-45.5 30.5t-59.5 -4.5t-57 -45.5q-25 -33 -45.5 -74.5t-41 -87t-43 -93t-52.5 -92.5q30 13 68.5 30.5t78 40t77.5 48.5t68 56t49 63 t20 69zM1029 341q10 35 -2.5 62t-37.5 40t-58.5 9t-66.5 -31q-32 -27 -61.5 -62.5t-59.5 -75t-63 -80.5t-72 -79q32 6 73.5 14.5t85 21t86.5 29.5t79 39.5t62 50.5t35 62z" arabic-form="final" horiz-adv-x="842" unicode="ھ"/><glyph d="M26 278q18 25 37 58.5t37.5 71.5t38 78.5t39.5 78.5t41 72.5t44 61.5q24 27 53.5 43t59.5 21t57.5 -2t47.5 -24.5t29.5 -46t2.5 -67.5q33 45 70.5 67t72.5 24.5t64 -12.5t46 -44t17.5 -70t-21.5 -90q-23 -52 -54.5 -93.5t-68 -74.5t-75.5 -58t-75 -45q-21 -11 -52.5 -22 t-67 -20t-73 -17t-70.5 -12q-25 -31 -54 -59t-62.5 -49t-70.5 -34t-79 -14q-9 0 -15.5 11t-9.5 29.5t-2.5 44t5.5 54.5q4 28 12 53.5t17 44t19.5 29.5t19.5 11h10t10 1zM428 543q3 29 -10.5 51t-36 32t-50 5t-51.5 -30q-14 -15 -29.5 -39.5t-31 -53t-31 -59.5t-31 -61 t-30.5 -57t-29 -46q26 5 60 17.5t69.5 31t70 42.5t62.5 51t46.5 56.5t21.5 59.5zM308 285q35 3 71.5 10t72 17.5t69.5 24.5t63 31.5t52.5 38t38.5 45.5q9 14 12 29.5t1.5 30t-7 26.5t-15.5 20q-21 16 -42.5 16.5t-42 -8t-38.5 -23.5t-30 -30q-21 -25 -45.5 -56.5t-51.5 -63 t-54.5 -60t-53.5 -48.5z" arabic-form="initial" horiz-adv-x="984" unicode="ھ"/><glyph d="M32 271q28 37 50.5 86.5t45.5 102t48.5 103t58.5 89.5q35 40 81 55t85.5 5.5t63 -43.5t14.5 -91q32 44 68.5 65.5t71 24t63 -12.5t45 -43t17 -68t-20.5 -88q-23 -51 -49.5 -86.5t-56.5 -62t-63.5 -46.5t-69.5 -39q-20 -11 -50.5 -21.5t-66 -19.5t-72 -16.5t-68.5 -12.5 q-24 -30 -52.5 -57t-60.5 -48t-68.5 -33.5t-76.5 -13.5q-9 0 -15.5 10.5t-9.5 29t-3 43.5t5 53t12.5 52.5t16.5 43t19 29t19 10.5h19zM92 282q37 7 87 26t97.5 47.5t84 65t46.5 77.5q7 27 -2.5 52.5t-37.5 38.5q-44 21 -80 -9t-57 -63q-37 -57 -67.5 -118.5t-70.5 -116.5z M315 267q62 8 153.5 31.5t145.5 75.5q36 36 34 72.5t-27 55.5t-65 13t-80 -55q-41 -51 -67 -88t-94 -105z" arabic-form="medial" horiz-adv-x="481" unicode="ھ"/><glyph d="M1502 48q-117 -16 -244.5 -26.5t-257 -16t-256.5 -5t-244 6.5q-48 2 -102.5 5.5t-104.5 13.5t-90 29.5t-59 55t-10.5 89t54.5 131.5q27 46 54 84t58 70.5t68.5 61t85.5 55.5q36 20 70 36.5t65 33t58.5 34.5t50.5 42q20 20 35.5 51t30.5 59q22 49 38.5 68.5t25 17.5 t9 -21.5t-9.5 -48.5q-18 -54 -39 -103t-49.5 -91.5t-66 -78t-88.5 -61.5q-9 -5 -37 -18.5t-64 -32t-74 -40.5t-68 -43.5t-45.5 -41t-5.5 -32.5q11 -15 42.5 -27t80.5 -21.5t114 -16.5t142 -11q106 -6 222 -9t232 -3.5t228 1t209 4.5t175.5 7.5t127.5 10.5q7 0 24 2t37 3.5 t38.5 1.5t30 -3.5t11.5 -12t-17 -24.5q-71 -48 -133.5 -80t-121 -53t-115 -33.5t-115.5 -19.5z" arabic-form="isolated" horiz-adv-x="2129" unicode="ے"/><glyph d="M453 4q-66 4 -124.5 9.5t-107.5 15.5q-97 20 -134 69t-1 130q18 40 43.5 84.5t55.5 84.5q0 1 0.5 1t0.5 1l2 2h1q12 7 36 -7q13 -7 19.5 -16t3.5 -15v-1l-1 -1q-4 -8 -5 -11q-4 -15 7.5 -26.5t32 -20.5t47 -15t51 -10t44.5 -6.5l28 -3.5q155 -19 329.5 -24t353 -1 t352.5 15.5t328 25.5q8 0 25 2t36.5 3.5t38.5 1.5t30.5 -3.5t11.5 -12t-17 -24.5q-71 -48 -133.5 -80t-121 -53t-115 -33.5t-115.5 -19.5q-123 -17 -248.5 -30.5t-251.5 -22.5t-252 -11.5t-250 3.5z" arabic-form="final" horiz-adv-x="2067" unicode="ے"/><glyph d="M1029 1476q9 -1 8 -18.5t-7.5 -42t-17 -50.5t-20.5 -43q-8 -12 -13.5 -16t-12 -4.5t-14 1.5t-19.5 3q-33 1 -55.5 -18t-39 -47t-28.5 -60l-21 -56q-13 -31 -28.5 -58.5t-34.5 -46.5q-14 -13 -34 -22t-40.5 -10.5t-39.5 6t-31 27.5q-4 5 -3.5 18.5t4 29.5t9 33t12 30 t14 20t13.5 3q18 -10 35.5 -15t34.5 -1q21 3 38.5 16.5t31 31.5t24 39t17.5 39q23 54 43.5 95.5t47.5 69.5t59.5 39t67.5 7zM1502 48q-117 -16 -244.5 -26.5t-257 -16t-256.5 -5t-244 6.5q-48 2 -102.5 5.5t-104.5 13.5t-90 29.5t-59 55t-10.5 89t54.5 131.5q27 46 54 84 t58 70.5t68.5 61t85.5 55.5q36 20 70 36.5t65 33t58.5 34.5t50.5 42q20 20 35.5 51t30.5 59q22 49 38.5 68.5t25 17.5t9 -21.5t-9.5 -48.5q-18 -54 -39 -103t-49.5 -91.5t-66 -78t-88.5 -61.5q-9 -5 -37 -18.5t-64 -32t-74 -40.5t-68 -43.5t-45.5 -41t-5.5 -32.5 q11 -15 42.5 -27t80.5 -21.5t114 -16.5t142 -11q106 -6 222 -9t232 -3.5t228 1t209 4.5t175.5 7.5t127.5 10.5q7 0 24 2t37 3.5t38.5 1.5t30 -3.5t11.5 -12t-17 -24.5q-71 -48 -133.5 -80t-121 -53t-115 -33.5t-115.5 -19.5z" arabic-form="isolated" horiz-adv-x="2129" unicode="ۓ"/><glyph d="M290 265q108 -6 231 -8.5t246.5 -2t241.5 2.5t216 4.5t170 5t104 4.5q8 0 25.5 2t38 3.5t39.5 2t30.5 -3.5t12 -13t-17.5 -25q-111 -83 -240.5 -127.5t-293.5 -60.5q-99 -11 -203.5 -21t-211.5 -17t-216 -10t-217 1q-19 1 -29.5 21t-13 49.5t2.5 64t16.5 63t29 47.5 t39.5 18zM1144 902q9 -1 8 -18.5t-7.5 -42t-17 -50.5t-20.5 -43q-8 -12 -13.5 -16t-12 -4.5t-14 1.5t-19.5 3q-33 1 -55.5 -18t-39 -47t-28.5 -60l-21 -56q-13 -31 -28.5 -58.5t-34.5 -46.5q-14 -13 -34 -22t-40.5 -10.5t-39.5 6t-31 27.5q-4 5 -3.5 18.5t4 29.5t9 33t12 30 t14 20t13.5 3q18 -10 35.5 -15t34.5 -1q21 3 38.5 16.5t31 31.5t24 39t17.5 39q23 54 43.5 95.5t47.5 69.5t59.5 39t67.5 7z" arabic-form="final" horiz-adv-x="1845" unicode="ۓ"/><glyph d="M247 564q-17 -75 -23 -148t2.5 -138.5t34 -120t72.5 -92.5q55 -45 124 -60t141.5 -5.5t144 39.5t131.5 76t104 104t62 123q9 34 6.5 58t-14.5 39.5t-32.5 24t-45.5 11.5q-66 7 -111 26.5t-71 53t-34.5 83.5t-1.5 118q1 43 14.5 104.5t40 129.5t65 138t89.5 129.5 t114 103.5t139 61q19 4 30 -12t6 -52q-4 -29 -13.5 -67t-22 -71t-27.5 -54.5t-30 -17.5q-7 2 -19.5 2.5t-32.5 -4.5q-39 -8 -81.5 -34.5t-80.5 -64.5t-67 -84t-41 -92q-2 -20 1.5 -35t10.5 -26.5t17 -20t21 -15.5q23 -12 52 -18t58.5 -13t55.5 -18t44 -34q16 -19 27 -45.5 t16 -63t2.5 -85.5t-14.5 -114q-14 -78 -46 -162t-79.5 -162.5t-109.5 -146.5t-135 -114.5t-156.5 -66.5t-174.5 -2q-82 16 -136.5 60.5t-87.5 108t-46.5 140.5t-13.5 157.5t11 159.5t28 146q10 43 28 99t39 114.5t42.5 112.5t39.5 92q10 22 21 32t19.5 10.5t12 -8 t-0.5 -24.5q-10 -36 -27 -84.5t-34.5 -99.5t-33.5 -99t-23 -82z" arabic-form="isolated" horiz-adv-x="1364" unicode="ی"/><glyph d="M359 918q-12 -42 -27 -87t-30.5 -90t-29.5 -89t-23 -83q-14 -57 -21.5 -119t-3.5 -122.5t20 -116t49 -100t84 -75t124 -40.5q55 -8 113 1t114 31t107.5 55t95 74t75.5 89t49 99q6 13 17 23.5t22.5 16t21 5t11.5 -8.5q-16 -73 -47.5 -152t-76 -154.5t-101.5 -142.5 t-125 -116.5t-146.5 -75.5t-164.5 -19q-102 8 -168 53.5t-104.5 115.5t-53.5 156.5t-14 175.5q1 81 17 171t41 180t57 176t66 159q10 22 21.5 32t20 10.5t12 -8t-1.5 -24.5z" arabic-form="final" horiz-adv-x="1127" unicode="ی"/><glyph d="M332 846q0 -35 -1 -87.5t-1 -108.5t1 -107.5t5 -84.5q4 -37 16 -70t32.5 -58t49.5 -39.5t68 -14.5q3 0 7 -2q15 -8 19.5 -46t-3.5 -90q-8 -48 -23.5 -84.5t-31.5 -48.5q-7 -5 -14 -5h-2q-41 1 -73 17.5t-55 43t-38.5 61.5t-25.5 72.5t-14.5 75t-5.5 70.5q-4 57 -5 119.5 t-0.5 125.5t1 123t0.5 110v137t1 134q0 11 1 18.5t3 14t5 13.5t7 18q10 29 18.5 51.5t15.5 43t13.5 41.5t14.5 47q4 10 10 16t12 5.5t10 -7t4 -19.5q-3 -75 -6.5 -138t-6.5 -121t-5 -113t-3 -113zM148 1494q-12 -5 -9.5 5t10.5 24l6 12t8.5 16t9 14.5t7.5 8.5 q35 20 79.5 42.5t90.5 45.5t89.5 44t77.5 38q5 2 8 0t0 -7q-17 -34 -31.5 -56t-19.5 -24zM133 1341l328 162q5 2 19.5 24.5t31.5 56.5q2 5 -0.5 7t-7.5 0q-34 -17 -77.5 -38.5t-89.5 -44t-90.5 -45t-79.5 -42.5q-3 -2 -8 -8.5t-9.5 -15t-8.5 -16t-6 -11.5q-3 -7 -6 -13.5 t-3.5 -11t1 -6t6.5 1.5z" arabic-form="final" horiz-adv-x="502" unicode="ﴼ"/><glyph d="M367 1313q-9 -71 -11 -163t-2.5 -191.5t-1 -201t-5.5 -191.5q-2 -44 -8 -92.5t-16.5 -97t-26.5 -95.5t-37 -88q-19 -36 -34 -33q-9 1 -13 10.5t0 44.5q6 50 10.5 98t5.5 98q1 55 1 120.5t-1 132t-2.5 130.5t-3 116.5t-2.5 88.5t-1 48q0 10 6 31.5t16 49.5t22 59.5 t23.5 60.5t21 52.5t13.5 36.5q5 16 15 26.5t19 10.5t13.5 -13.5t-1.5 -47.5zM148 1543q-12 -5 -9.5 5t10.5 24l6 12t8.5 16t9 14.5t7.5 8.5q35 20 79.5 42.5t90.5 45.5t89.5 44t77.5 38q5 2 8 0t0 -7q-17 -34 -31.5 -56t-19.5 -24zM133 1390l328 162q5 2 19.5 24.5 t31.5 56.5q2 5 -0.5 7t-7.5 0q-34 -17 -77.5 -38.5t-89.5 -44t-90.5 -45t-79.5 -42.5q-3 -2 -8 -8.5t-9.5 -15t-8.5 -16t-6 -11.5q-3 -7 -6 -13.5t-3.5 -11t1 -6t6.5 1.5z" arabic-form="isolated" horiz-adv-x="653" unicode="ﴽ"/><glyph d="M312 151q-24 -24 -61 -24h-11q-6 1 -12 1q-35 0 -56 -22q-3 -6 -6 -14q-1 -3 -1 -5q0 -5 4 -8q17 -6 78.5 -9.5t140 -4t159.5 -0.5h134q88 0 90 -12q0 -7 -39 -27q-41 -21 -100 -22q-17 -1 -73.5 -2t-126.5 -1q-35 -1 -70 -1t-70 1q-70 0 -116 2q-64 1 -64 40q0 19 15 48 q23 45 47 64t48 26q34 11 77 17.5t43 68.5q-4 36 -4 43q0 6 -7 66v3q0 11 4 35q5 29 10 41q2 5 4 5q4 0 6 -24q2 -36 9 -91q6 -45 13 -87t58 -56q14 -5 29 -5t31 6q31 10 43 38q3 8 6 8q1 0 2 -2q3 -6 4 -12q3 -19 32 -31q21 41 59 78q32 31 75 31q7 0 14 -1q38 -5 63 -34 q13 -16 13 -38q0 -17 -8 -37q-22 -53 -81 -68q-43 -11 -83 -11q-16 0 -31 2q-8 1 -18.5 3.5t-17.5 6.5l-8 -16q-9 -17 -11 -19q-4 -7 -5 -7t-1 1q0 3 4 16q8 27 10 30q-9 4 -18.5 11.5t-13.5 18.5q-34 -43 -74 -43q-15 0 -30 6q-58 20 -68 85q-18 -47 -40 -68zM595 198 q23 -8 78 -9q7 -1 15 -1q44 0 71 8q13 3 18 6q1 0 1 2q0 3 -8 11q-36 36 -90 37h-2q-53 0 -83 -54z" arabic-form="isolated" horiz-adv-x="897" unicode="ﷰ"/><glyph d="M312 151q-24 -24 -60 -24q-6 0 -12 1h-13q-35 0 -55 -22q-3 -5 -6 -13q-1 -3 -1 -6q0 -5 4 -8q17 -6 78.5 -9.5t140 -4t159.5 -0.5h146q76 0 78 -12q0 -7 -39 -27q-41 -21 -100 -22q-17 -1 -73.5 -2t-126.5 -1q-35 -1 -70 -1t-70 1q-70 0 -116 2q-64 1 -64 40q0 19 15 48 q23 45 47 64t48 26q34 11 77 18.5t43 67.5q-4 36 -4 43q0 6 -7 66v3q0 11 4 35q5 29 10 41q2 5 4 5q4 0 6 -24q2 -36 9 -91q6 -45 13 -86.5t57 -56.5q17 -4 43 -4q11 0 23 1q42 2 61 22q8 8 8 18q0 4 -1 8q-26 -4 -62 -4q-37 0 -37 45v5q0 11 3 24q4 16 9 34q5 24 30 25h4 q23 0 40 -19q17 -22 27 -50q5 -20 5 -41q0 -20 -4 -40q-10 -42 -41 -69q-35 -28 -78 -28q-18 0 -36 5q-65 16 -76 85q-18 -47 -40 -68zM488 407q-29 12 -47 37q-1 1 -1 2q0 7 16 27q17 21 24 21q1 0 2 -1q10 -13 20.5 -20.5t23.5 -15.5q8 12 21 26q11 11 15 11q1 0 2 -1 q12 -18 43 -36q1 0 1 -2q0 -5 -14 -25q-17 -23 -25 -23h-1q-28 12 -46 37q-6 -12 -17 -25q-11 -12 -16 -12h-1z" arabic-form="isolated" horiz-adv-x="852" unicode="ﷱ"/><glyph d="M1854 1145q-8 -50 -11.5 -92.5t-5 -81.5t-1 -77t0.5 -78q0 -52 1 -100t1.5 -96t-0.5 -97t-5 -103q-2 -44 -10 -95t-20.5 -103t-28 -101t-32.5 -88q-8 -19 -17 -26.5t-16 -6.5q-9 1 -13 10.5t0 44.5q10 80 15.5 153.5t5.5 154.5q0 66 -2 136.5t-4 134.5t-4 117t-3 84 q-1 25 5 49.5t14 52.5q17 56 41 114.5t41 107.5q5 15 14.5 22.5t18 6t13.5 -12t2 -30.5zM900 1040q6 10 17 14t5 -15q-4 -17 -8.5 -45t-2.5 -54t14 -42.5t43 -11.5q28 5 45 30.5t22 55.5q3 17 4.5 35.5t5.5 34.5t13 16.5t13 -13.5q3 -17 1.5 -34t-1.5 -33q0 -23 6.5 -49.5 t33.5 -31.5q16 -4 31 2.5t21 21.5q5 12 2 42.5t-4 44.5q-4 9 5.5 35.5t13.5 35.5q2 6 7.5 15t10.5 -10q6 -29 8.5 -45t2.5 -46q1 -52 -28 -119t-88 -71q-27 -2 -41.5 14t-22.5 37q-10 -17 -30 -38.5t-60 -23.5q-48 -3 -59.5 44t-8.5 82q1 17 8 57t21 65zM1087 1535 q-14 -52 -7.5 -119t1.5 -119q-3 -33 -16 -73.5t-28 -69.5q-8 -15 -15 -11t-5 26q8 65 5 119t-8 124q-1 10 21 62t29 67q10 21 19 15t4 -21zM1109 585q-3 -45 -8 -101t17 -102q23 -51 70 -68t96 -5t88.5 50.5t47.5 99.5q8 82 -2.5 159t-17.5 164q-5 54 -4 76t17 75 q14 50 36.5 117.5t36.5 111.5q8 30 24.5 26.5t12.5 -22.5q-16 -167 0 -314t-6 -294q-9 -90 -54 -220.5t-122 -215.5q-32 -36 -74.5 -59t-87.5 -27q-61 -5 -117.5 37.5t-66.5 127.5q-53 -136 -141 -192t-170 -46.5t-138 77t-44 179.5q-29 -79 -63.5 -134.5t-56.5 -78.5 q-37 -38 -118 -72.5t-131 -54.5q-27 -6 -40 3.5t45 54.5q109 85 216 205t193 367q10 23 17.5 40.5t25.5 17.5q24 -1 14 -48q-10 -36 -19 -77t-5 -78q7 -65 70.5 -107.5t127.5 -37.5q125 10 180 107.5t78 201.5q4 24 7.5 44.5t9.5 34.5q12 27 34.5 22.5t21.5 -44.5z" arabic-form="isolated" horiz-adv-x="1937" unicode="ﷲ"/><glyph arabic-form="isolated" horiz-adv-x="1072" unicode="ﷳ"/><glyph d="M1190 853l2 1q1 0 1 -4q-10 -22 -30 -29q-12 -8 -50.5 -26.5t-50.5 -25.5v2q2 15 15 25q17 7 56.5 27t56.5 30zM1040 640q-2 -4 -3 -4q-4 0 -7 26q-5 37 -5 62q-5 30 -18.5 150t-13.5 142v17q0 25 9 35h2q2 0 8 -15q0 -10 2.5 -15t5.5 -12q1 -2 1 -6q0 -8 -6 -14 q0 -24 14.5 -146.5t14.5 -150.5q2 -10 2 -18q0 -29 -6 -51zM772 917q-21 -11 -40 -11q-20 0 -39 11q-8 3 -8 13q0 4 3 13q10 21 18 29q24 32 69 42v15q0 4 9 18q6 9 7 9t1 -3v-10q0 -17 -5 -69v-20q0 -54 40 -59h5q29 0 29 49q0 3 -3.5 16.5t-3.5 33.5q0 10 -2 17 q8 58 12 58l1 -2q4 -16 11 -46q0 -20 3 -35q0 -24 2 -37q4 -53 35 -53q5 0 10 1q20 5 20 20q0 8 -9 43.5t-14 65.5v15q0 22 8 27h1q5 0 19 -39q0 -5 -5 -18q0 -12 4.5 -39.5t7.5 -41.5q-3 -8 -5 -26.5t-10 -30.5q-17 -23 -35 -23q-7 0 -16 5q-26 15 -28 52q-11 -55 -42 -55 q-4 0 -7 1q-43 2 -43 64zM775 994q-12 -3 -35.5 -15t-23.5 -25q-2 -2 -2 -3q0 -9 15 -9q4 0 10 1q29 4 33 6q0 10 1.5 21.5t1.5 23.5zM649 650h1q3 0 9 -15q6 -25 32 -25q6 0 12 2q37 6 37 43q0 22 -5 71.5t-7 66.5q-3 8 -3 50q-1 4 -1 7q0 15 14 42q0 2 1 2q4 0 9 -107 q5 -115 22 -144q10 -30 42 -30q10 0 20 2q-11 16 -11 37q0 13 3 28q8 32 42 39q9 3 18 3q23 0 42 -18q7 -7 7 -12q0 -2 -6 -2q-9 0 -26 5q-15 4 -26 4q-26 0 -36 -22q-3 -7 -3 -12q0 -21 48 -25q2 -1 7 -1q16 0 55 11h3q5 0 5 -9q0 -8 -3 -23l-72 -36q-31 -16 -60 -16 q-9 0 -19 2q-45 8 -52 57q-5 -15 -20 -37t-32 -22q-50 0 -50 37q-12 -36 -43 -36q-5 0 -11 1q-40 8 -47 50q-7 -15 -40 -20q-8 -1 -17 -1q-21 0 -35 8q-11 3 -11 13q0 5 5 13q11 21 19 29q25 35 72 47v12q0 8 9 21q7 9 9 9q1 0 1 -3v-59q0 -54 30 -69q16 -9 27 -9 q26 0 35 41zM538 687q-13 -5 -37.5 -18.5t-24.5 -25.5q-2 -2 -2 -3q0 -6 14 -6q6 0 15 1q32 5 37 5q0 30 -2 47zM355 544q-3 -13 -18 -30q-21 -37 -48 -37h-4q-29 2 -57 10q-7 3 -7 7q0 3 7 5q13 0 34 5t41 15q5 0 22 13q15 13 15 19v2q-42 0 -52 5q-18 8 -18 25q0 5 2 10 q6 25 13 40q3 17 23 17q34 0 47 -54q2 -14 2 -26q0 -14 -2 -26zM189 633q-9 2 -22 2q-12 0 -25 -1q-32 -4 -40 -21q-3 -9 -3 -25t3 -41q8 -48 8 -65q0 -27 -5 -52q0 -5 -2 -5q-1 0 -1 5q-2 5 -2 17q-13 72 -15 144v7q0 61 72 72q-11 6 -21 6q-5 0 -9 -1q-10 -6 -10 -8 q1 47 32 47q11 0 27 -7q9 -1 18 -1q42 0 42 45q-3 23 -10.5 67.5t-7.5 61.5q-2 5 -3 11t-1 14v15q0 27 9 47q0 2 2 2t5 -25q3 -32 11 -66q0 -13 5 -51t7 -46q5 -62 40 -69q7 -4 15 -4q18 0 32 21q7 9 10 9q2 0 2 -4q-1 -4 -1 -6q0 -15 21 -19q8 -2 15 -2q21 0 32 27q0 1 1 1 l1 -1q0 -20 18 -22q7 -6 13 -6t9 8l-10 23q0 17 7 24l2 2l1 1q7 -15 10 -32l2 -18q-5 -47 -27 -49q-4 -1 -7 -1q-15 0 -25 18q-13 -21 -32 -21q-4 0 -8 1q-32 5 -39 25q-21 -21 -41 -21q-7 0 -15 3q-26 11 -33 53q-13 -32 -32 -47q4 -8 4 -15q0 -16 -22 -30q-2 0 -7 3z M963 576q22 -14 22 -29v-3q0 -18 -12 -38q-20 -49 -88 -72.5t-150 -23.5q-79 0 -159.5 18.5t-139.5 73.5q-25 22 -39 51q-5 9 -5 13q0 1 2 1q4 0 22 -18q55 -52 152.5 -74.5t159.5 -22.5q77 0 151 18.5t89 50.5v3q-5 7 -24 7q-18 0 -26 5q-5 1 -5 10q0 5 2 11q3 19 8 19 q45 20 45 64q0 20 -7.5 64.5t-9.5 61.5q0 5 -1.5 25t-1.5 27v15q-1 3 -1 6q0 6 2 16q4 18 6 25l2 1q3 0 6 -36q2 -44 10 -79q0 -12 6 -50.5t6 -45.5q10 -60 40 -69q10 -3 17 -3q24 0 35 27q3 6 6 6q4 0 4 -11q2 -12 19 -19q15 24 37 48q20 21 52 21h8q48 -9 48 -42 q0 -13 -6 -27q-15 -38 -53 -48q-26 -6 -50 -6q-12 0 -23 2l-23 7l-6 -11l-6 -11q-4 -5 -5 -5h-1q0 2 4 10q7 17 7 19q-17 10 -22 20q-20 -26 -40 -26q-8 0 -17 4q-30 15 -35 54q-5 -17 -12 -34zM1114 596q24 -12 53 -12q26 0 53 9q10 1 10 8q0 3 -2 7q-23 22 -59 22 q-35 0 -55 -34zM891 1103q0 -23 -12 -23q-4 -1 -6 -1q-10 0 -14 14q0 -15 -12 -15q-18 2 -18 25q0 2 1.5 6t1.5 6q-1 -5 -4 -5l-1 1q-1 2 -1 3q0 4 3 9q4 9 7 9t3 -17q0 -20 8 -22h2q6 0 10 10l-1 5q-1 5 -1 10q-2 0 -2 3t2 9q1 7 3 7l1 -2l5 -22q0 -15 10 -18q4 -3 7 -3 t3 8q0 3 -7 18q0 22 4 22h1q7 -22 7 -37zM881 784q2 1 3 1v-1q-8 -20 -30 -33q-12 -7 -27 -13t-27 -14v3q2 15 15 24q44 20 66 33zM357 944l1 2q1 0 1 -4q-4 -15 -22 -22q-10 -8 -39.5 -21.5t-36.5 -18.5v3q2 12 12 17q12 7 40.5 22t43.5 22zM772 1103q4 2 4 7q0 4 -2 9 q-4 6 -8 6q-3 0 -8 -5q-2 -2 -2 -5q0 -10 16 -12zM755 1090q-10 5 -10 20q8 25 27 30q15 0 15 -15t-2 -22q-22 -25 -52 -35q-6 0 -6 1q0 2 3 4q8 7 11.5 8.5t13.5 8.5zM176 873h3q-5 -20 -12 -20q-8 0 -8 15q0 19 10 37l-5 -30q0 -12 5 -12q3 0 7 10zM330 791 q-5 -20 -13 -20q-7 0 -7 15q0 20 10 40q0 2 1 5l1 2v-7q-7 -23 -7 -33q0 -9 5 -9q2 0 10 7zM854 811v-5q-5 -22 -12 -22q-13 0 -13 17q0 22 13 47q0 2 2 5l3 2q0 -5 -3 -7q-7 -27 -7 -35q0 -17 7 -17zM1109 685q-5 -20 -13 -20q-7 0 -7 15q0 19 10 39q0 3 1 5l1 3v-8 q-7 -22 -7 -32t5 -10q2 0 10 8zM1193 732h2q-5 -23 -14 -23q-10 0 -10 15t12 40q-5 -15 -5 -30q0 -12 5 -12q2 0 10 10zM864 511q-5 -24 -10 -24q-10 0 -10 17q0 20 10 40l1 2l2 3h2l-1 -3l-1 -2q-8 -23 -8 -30q0 -12 8 -12q2 0 7 9zM748 504v-2q-5 -23 -13 -23q-7 0 -7 18 q0 19 10 39l1 3l1 2h3l-1 -2l-2 -3q-7 -22 -7 -30q0 -12 7 -12q3 0 8 10zM538 544q-5 -20 -13 -20q-7 0 -7 15q0 19 10 37q0 2 1 3l1 2v-5q-7 -23 -7 -30q0 -10 5 -10q2 0 10 8zM666 722l-4 -4q-3 -4 -6 -9l-17 -19q-3 -3 -32 -10q-3 -3 -4 -3h-1v1q0 2 2 2q5 5 20 12l20 12 q0 5 -27 5h-18l2 2l1 1l5 12q5 5 12 5h12q35 0 35 -7zM169 818l-2 -2q-3 -3 -3 -5q-5 -8 -7 -11l-3 -4l-25 -5q0 -2 -1 -2h-1l1 1l1 1q8 5 15 7q8 3 13 8q0 5 -18 5h-12v2l7 5q0 5 8 5h7q20 0 20 -5zM1030 484q-5 -20 -13 -20q-7 0 -7 15q0 23 10 40q0 2 1 4l1 1h3l-2 -3 l-1 -2q-7 -22 -7 -32q0 -13 7 -13q3 0 8 10zM1087 887q9 0 14 -9q10 -15 10 -28v-2h3v2q0 8 7 30q3 12 13 12q4 0 7 -5q0 -2 1 -3l1 -1v-8q-2 -2 -5 -2h-1q-1 0 -1 2q-2 0 -4 1l-1 2q-10 0 -12 -28l-5 -19l-3 -3q-2 0 -2 3l-5 19q-8 15 -10 15h-3l-1 -1l-1 -1l-2 1 q-3 1 -3 4q-7 0 -7 2v3q0 5 2 7q0 3 4 5zM1124 917q-5 -27 -15 -27t-10 20q0 22 12 47q0 2 3 3l2 2l-1 -3l-1 -2q-8 -27 -8 -35q0 -17 8 -17zM100 699l2 5v-5q-5 -19 -12 -19q-10 0 -10 15q0 14 10 39q0 3 2 4l3 1l-1 -2l-2 -3q-7 -22 -7 -30q0 -12 7 -12q3 0 8 7zM624 494 q-27 17 -30 25q0 2 10 16q13 16 18 16q9 -15 27 -22q18 22 26 22h1q10 -15 27 -22v-1q0 -4 -10 -18q-12 -16 -15 -16q-24 10 -32 25q-12 -25 -22 -25zM933 761v3h3v-3q-10 -24 -15 -24q-10 0 -10 19q0 23 12 45q0 2 2 4l1 1v-5q-10 -25 -10 -35q0 -15 7 -15q5 0 10 10z M693 833q-2 -12 -15 -32q-23 -35 -50 -35h-4q-30 3 -54 10q-7 3 -7 5q0 3 7 5q10 0 31 5t40 15q5 0 24 15q16 13 16 19v3q-15 -1 -26 -1q-22 0 -28 6q-18 7 -18 23q0 5 1 10q7 24 14 41q5 15 22 15q37 0 47 -52q3 -14 3 -26q0 -14 -3 -26zM580 831q-2 -4 -3 -4q-4 0 -6 27 q-4 36 -4 58q-5 35 -7.5 88t-2.5 76v14q0 5 2.5 17.5t7.5 19.5q3 0 10 -17q3 -7 4 -12t6 -13q0 -9 -7 -17q2 -27 4.5 -84t2.5 -87q0 -47 -7 -66zM424 838q-8 -12 -40 -17q-11 -2 -20 -2q-19 0 -34 7q-9 2 -9 12q0 5 4 14q10 21 17 31q30 29 77 47v12q0 5 8 20q5 8 8 8 q1 0 1 -3v-60q0 -27 5 -39q9 -39 45 -39h6q36 4 36 41v10q0 5 -1.5 10t-1.5 10q0 17 -2 22q-9 62 -9 67q0 6 -9 72q0 24 3 29q0 30 10 37h1q2 0 7 -14q7 -18 9 -28q0 -5 -5 -17q0 -12 1.5 -23.5t1.5 -20.5q0 -25 4.5 -76t4.5 -68q0 -79 -50 -95q-10 -3 -18 -3q-37 0 -50 56z M419 907q-13 -2 -37.5 -17t-26.5 -27v-1q0 -8 13 -8q8 0 16 1q32 5 37 8q-2 15 -2 44zM409 751v5q0 25 -10 37l4 13q3 12 6 12q11 -17 11 -33q0 -18 -11 -34zM649 1170q1 0 1 -2q0 -1 -6 -10q-8 -11 -25 -18q-23 -10 -43 -10q-22 0 -41 12q4 -3 4 -7q0 -5 -6 -12l-2 -2 q-1 0 -1 2q0 12 -7 23l-8 11q0 15 3 15q1 0 2 -2q25 -23 60 -23h7q40 3 62 23zM476 1006h2q-5 -22 -12 -22q-10 0 -10 15q0 10 10 42l2 2l3 3l-1 -3l-2 -2q-7 -25 -7 -32q0 -13 7 -13q3 0 8 10zM666 1001q0 3 3 3v-3q-5 -19 -15 -19t-10 14q0 13 10 40q0 2 2 5l3 2 q0 -2 -3 -7q-7 -22 -7 -32t7 -10q3 0 10 7zM308 964v3h2v-3q-5 -20 -12 -20q-10 0 -10 15q0 13 10 37q0 3 2 5l3 3q0 -5 -3 -8q-7 -19 -7 -29t7 -10q3 0 8 7zM424 635v-5h5v3q0 5 2 5q1 -3 1 -7q0 -3 -2 -7q-1 -2 -4 -2q-2 0 -5 3q-6 -6 -12 -6q-3 0 -5 1q0 3 -7 3 q-8 -3 -18 -8q-6 -3 -15 -3q-3 0 -7 1h-2q19 5 28 10t16 7q2 0 12 -5q8 0 8 5q0 9 1 9t4 -4zM172 529q2 -3 3 -4l1 -1v-5q0 -3 -1 -3h-1q-2 -2 -7 -2l-8 -5q5 -27 5 -37v-13q-2 0 -2 -2v7q0 15 -3 25q-2 13 -2 20t2 10l3 1q2 1 5 1l-2 2l-1 1q-2 0 -5 -3v-2l-1 1v1h1 q0 13 5 13q3 0 8 -5zM172 558q0 -12 -8 -12q-7 0 -7 10q0 12 7 27l1 1l2 2v-3q-5 -20 -5 -22q0 -8 5 -8l1 2q1 1 4 3zM241 566h2v-3q-7 -19 -15 -19q-10 0 -10 14q0 10 10 43l3 2l2 2l-1 -2l-1 -2q-8 -25 -8 -33q0 -12 8 -12q2 0 10 10zM2088 1570q29 -20 65.5 -41 t62.5 -46.5t34 -56t-18 -69.5q-41 -60 -104 -109t-112 -67q-104 -39 -190 -95t-161 -128q46 11 106.5 16t122 5t117 -6t90.5 -17q47 -15 42.5 -30t-21.5 -47q-19 -37 -48 -78t-86 -86q-68 -52 -170.5 -106t-159.5 -94q-11 -8 -29.5 -23t-14.5 -31q9 -31 54 -40t72 -19 q31 -13 24 -57q-16 -90 -91 -179.5t-174 -88.5q-104 0 -151.5 95.5t-31.5 199.5q-12 -29 -30.5 -75.5t-42.5 -92.5t-53.5 -82.5t-61.5 -44.5q-18 -9 -60 -20t-89.5 -21t-91 -18t-65.5 -12q-8 -1 -26 -4t-23 -2q-18 3 -20.5 18.5t32.5 36.5q43 26 105.5 66t127.5 88 t125 102.5t99 110.5q47 69 92 169t73 177q21 59 43 48t15 -51q-13 -43 -29.5 -103.5t-21 -118.5t10.5 -104.5t67 -61.5q20 45 34 74t38 63q29 43 79.5 83t107.5 75.5t115.5 66.5t104.5 54q24 14 33 28t-5 19q-40 15 -97 19t-115.5 1t-112 -10.5t-86.5 -16.5 q-59 -20 -48 12.5t30 63.5q41 73 123.5 171t213.5 175q-8 11 -30 45.5t-15 53.5q23 45 60.5 105.5t68.5 104.5q18 24 39 25.5t58 -19.5z" arabic-form="isolated" horiz-adv-x="2338" unicode="ﷴ"/><glyph d="M2218 598q2 1 3 1q2 0 2 -2q0 -1 -1 -3q-14 -40 -52 -60q-26 -14 -101 -50t-99 -48h-1q-1 0 -1 4q4 32 32 50q30 14 108 52t110 56zM1922 180q-2 -6 -4 -6q-6 0 -12 56q-8 74 -12 116q-4 30 -15 117t-21 181t-19 175t-11 103q0 18 2 28q0 8 6 36t12 34h1q6 0 19 -30 q8 -22 20 -52v-4q0 -14 -12 -30q2 -26 11 -111t20 -181t19 -183t10 -113q0 -36 -3 -71t-11 -65zM1398 726q-28 -16 -77 -18h-10q-42 0 -67 16q-13 7 -13 22q0 13 8 31q19 41 31 57q56 68 134 82l2 26q0 10 16 39q10 18 14 18q2 0 2 -7v-24q0 -20 -4 -57t-4 -75q0 -24 -2 -38 v-10q0 -94 76 -102q6 -1 11 -1q28 0 43 27q18 32 18 64q0 6 -4 35t-8 67q0 10 -3 16t-3 18q18 114 27 114q2 0 3 -6q8 -32 14 -92q0 -12 1 -28t1 -40q0 -18 2 -35t4 -35q2 -40 24 -77q17 -28 46 -28q9 0 20 3q40 8 40 36q0 18 -17 89t-27 125q-2 7 -2 14t2 14q0 10 5 31 t11 27q1 1 2 1q6 0 16 -29q12 -34 18 -54v-3q0 -10 -8 -25q2 -26 12 -80t12 -84q-2 -16 -6 -50t-24 -62q-32 -43 -65 -43q-16 0 -32 10q-49 31 -55 103q-6 -38 -31 -78q-21 -33 -54 -33q-6 0 -13 1q-44 6 -65 46t-21 82zM1402 878q-18 -6 -63 -31t-51 -51q-1 -2 -1 -4 q0 -15 31 -15q8 0 19 1q55 6 61 8q0 26 2 47t2 45zM1160 200q2 4 4 4q7 0 16 -30q8 -51 60 -51q11 0 25 3q75 14 75 90q-4 40 -11 137t-15 133q-5 21 -5 40v6q1 22 1 46q-1 3 -1 7q0 13 8 42q11 39 17 53l1 1q4 0 8 -54q5 -63 11 -150t16 -172t22 -117q14 -42 52 -53 q20 -6 39 -6q18 0 35 5q-22 29 -22 71q0 26 8 57q12 62 80 76q16 3 32 3q48 0 86 -33q15 -15 15 -21t-10 -6q-15 0 -50 11q-28 9 -51 9q-49 0 -70 -43q-4 -8 -4 -15q0 -17 20 -33q30 -24 62 -30q11 -2 23 -2q19 0 40 6q33 10 61 20q10 3 16 3q8 0 8 -6q0 -11 -12 -63 q-56 -30 -140 -71q-58 -28 -110 -28q-23 0 -44 5q-40 6 -69 39t-35 71q-6 -24 -35 -69t-67 -45h-7q-43 0 -66 23t-23 44v3q-25 -67 -84 -67q-11 0 -23 2q-77 15 -89 95q-14 -28 -79 -37q-22 -3 -41 -3q-38 0 -66 12q-16 7 -16 24q0 13 8 30q20 42 34 60q50 64 142 88 q0 4 1 5t1 19q0 12 17 42q10 18 14 18q3 0 3 -8v-116q0 -108 60 -134q21 -11 42 -11q17 0 34 7q38 16 48 64zM942 276q-22 -6 -71 -34t-55 -54q-1 -2 -1 -4q0 -13 30 -13q12 0 30 2q65 9 73 11q-2 26 -3 46t-3 46zM578 -4q-6 -20 -26 -58q-47 -71 -100 -71h-7q-57 5 -109 23 q-16 4 -16 8t16 8q24 4 65 13t81 27q8 4 43 29q31 22 31 36v3q-19 -1 -34 -1q-55 0 -74 11q-32 17 -32 48q0 10 3 21q13 47 25 77q10 30 44 30q70 0 90 -102q5 -28 5 -53q0 -26 -5 -49zM258 168q-19 6 -50 6q-18 0 -41 -2q-61 -6 -77 -40q-7 -19 -7 -53q0 -31 6 -76 q13 -93 15 -123q0 -8 -3 -48t-7 -60q-2 -9 -3 -9q-2 0 -3 9q-4 12 -8 36q-8 70 -16 138t-10 142q-1 11 -1 22q0 114 137 134q-19 14 -35 14q-10 0 -19 -6q-19 -8 -19 -14q0 -1 1 -2q4 62 41 79q18 8 36 8t37 -9q9 -1 17 -1q32 0 63 17q40 22 40 74q-4 40 -18 127t-20 121 q-4 32 -6 52q0 18 -2 28v6q0 12 5 38q7 34 13 50q2 5 4 5q6 0 12 -47q8 -62 18 -132q2 -26 11 -101t11 -91q6 -38 22 -84t60 -54q14 -5 27 -5q36 0 65 37q6 12 14 16q3 1 4 1q4 0 4 -5q-2 -7 -2 -14q0 -28 42 -38q10 -2 20 -2q51 0 70 56q1 1 2 1t4 -3q2 -36 34 -46 q6 -4 22 -4t22 12v3q0 9 -8 19q-10 12 -12 22q-1 5 -1 10q0 16 13 40q1 5 4 5q1 0 4 -3q18 -28 20 -60t2 -38q-8 -86 -50 -94q-6 -1 -11 -1q-29 0 -51 37q-31 -41 -69 -41q-6 0 -13 1q-54 8 -72 50q-41 -44 -81 -44q-15 0 -30 6q-55 22 -71 102q-14 -54 -56 -88q8 -15 8 -30 q0 -34 -44 -62q-6 2 -14 6zM1774 60q42 -31 42 -59v-3q-4 -44 -18 -78q-42 -92 -176 -141q-129 -47 -282 -47h-12q-154 0 -313 38t-273 142q-48 44 -77 103q-9 18 -9 24q0 3 3 3q9 0 45 -36q104 -106 294 -146t318 -40h29q137 0 268 34q145 38 169 100v2q-6 16 -43 16 t-53 12q-8 4 -8 19q0 8 3 21q7 34 17 36q84 34 88 122q-2 44 -15 130t-19 120q-2 10 -4 47t-2 51q-2 10 -2 30q-1 3 -1 9q0 12 5 35q8 34 14 50q2 4 3 4q6 0 11 -70q6 -86 18 -156q2 -24 11 -101t13 -89q4 -40 19 -82t57 -56q20 -8 37 -8q45 0 67 56q4 11 8 11q5 0 8 -19 q2 -24 38 -40q28 52 76 98q42 41 101 41q7 0 15 -1q46 -6 77 -43q18 -22 18 -51q0 -21 -9 -46q-32 -68 -107 -86q-52 -12 -101 -12q-21 0 -42 2q-28 4 -46 10l-11 -19q-11 -19 -13 -21q-5 -11 -6 -11t-1 1q0 3 5 19q10 35 12 37q-34 24 -40 40q-40 -49 -80 -49q-17 0 -34 8 q-58 29 -64 103q-14 -42 -28 -64zM2070 98q28 -12 98 -14h19q57 0 91 10q20 5 20 14q0 4 -6 10q-46 46 -116 47h-2q-69 0 -104 -67zM1634 1092q0 -46 -30 -48h-5q-18 0 -25 28q-4 -30 -23 -30h-5q-32 2 -32 52q0 16 2 20q-3 -7 -5 -7q-1 0 -2 2t-1 5q0 6 4 18q10 17 14 17 q2 0 2 -5v-28q0 -38 18 -42q3 -1 5 -1q14 0 19 19v4q0 8 -6 24q0 2 4 24q2 13 6 13q2 0 4 -5q2 -20 6 -40q4 -32 16 -36q5 -3 10 -3q8 0 12 13q0 8 -7 17t-9 19q0 6 1 25q1 17 6 17h1q20 -44 20 -72zM1610 468q6 5 8 5q0 -2 -4 -9q-12 -42 -50 -60q-24 -14 -54 -28t-54 -28 h-1q-1 0 -1 4q4 32 30 50q32 16 64 31t62 35zM584 778q5 5 7 5v-1q0 -1 -3 -6q-8 -30 -38 -46q-20 -10 -78 -37t-76 -37l-1 -1q-1 0 -1 3q4 26 24 38q26 12 84 40t82 42zM1398 1092q10 7 10 15q0 6 -5 13q-7 9 -16 9q-6 0 -13 -5q-2 -5 -2 -10q0 -17 26 -22zM1368 1068 q-19 7 -19 28q0 4 1 8q0 12 15 33t33 23q5 1 9 1q21 0 22 -26v-7q0 -25 -7 -36q-38 -56 -100 -68q-5 -1 -8 -1t-3 1q0 2 9 8q18 12 23 14t25 22zM234 640v1q0 1 2 1v-2q-6 -42 -24 -42q-16 0 -16 28q0 40 20 78l6 10q0 -2 -1 -5t-1 -7q-14 -38 -14 -56q0 -26 12 -26 q6 0 16 20zM534 482q0 2 2 4v-4q-10 -42 -24 -42q-20 0 -20 32t24 74q2 12 6 12l-2 -3q-2 -3 -2 -9q-14 -42 -14 -58q0 -22 14 -22q6 0 16 16zM1562 512l1 2l1 2v-4q-10 -48 -28 -48q-22 0 -22 36q0 42 26 90q6 12 8 12l-4 -14q-18 -54 -18 -68q0 -28 16 -28q6 0 20 20z M2058 274v2q2 0 2 -2v-2q-10 -40 -26 -40q-18 0 -18 30q0 34 22 76q2 10 6 10l-2 -3q-2 -3 -2 -7q-12 -42 -12 -60q0 -22 12 -22q8 0 18 18zM2224 360l1 1l1 1h2v-4q-10 -40 -26 -40q-18 0 -18 30q0 28 20 78q6 10 8 10l-4 -12q-14 -52 -14 -60q0 -22 14 -22q4 0 16 18z M1582 -70v1q0 1 2 1v-4q-6 -38 -24 -38t-18 28q0 36 22 78q2 8 6 8l-4 -10q-12 -40 -12 -58q0 -24 12 -24q6 0 16 18zM1352 -86l1 1q1 1 1 3v-4q-8 -40 -24 -40t-16 30q0 36 20 76q2 6 4 8l2 2l-1 -3q-1 -3 -1 -7q-14 -42 -14 -60q0 -22 12 -22q6 0 16 16zM940 -2l1 1l1 1h2 v-4q-12 -40 -26 -40q-18 0 -18 30q0 28 20 74q4 10 8 10l-2 -3q-2 -3 -2 -7q-14 -52 -14 -60q0 -20 14 -20q4 0 16 18zM1186 342q0 -8 -14 -26q-14 -20 -32 -36q-6 -4 -66 -20q-6 -2 -7 -2h-1l1 1l5 5q1 0 40 22q14 8 23 14t13 8v2q0 8 -56 8l-5 -1q-5 -1 -15 -1t-10 2l1 1 q1 1 1 5l14 20q8 12 20 12q4 2 26 2q62 0 62 -16zM216 530q0 -6 -10 -16q-8 -14 -20 -22q-8 -4 -42 -12q-4 -2 -5 -2h-1l1 1l3 3l28 14q20 10 22 12v2q0 4 -36 4h-20l1 1q1 1 1 3l8 14q2 4 14 8h16q40 0 40 -10zM1904 -118l1 1l1 1h2v-2q-10 -42 -24 -42q-20 0 -20 32 q0 36 22 74q2 8 4 10l2 2h2l-2 -4q-2 -4 -2 -8q-14 -40 -14 -58q0 -24 12 -24q6 0 16 18zM2014 668q16 0 30 -20q14 -22 22 -56v-2q2 0 2 2q4 28 14 60q10 28 24 28q8 0 14 -8q6 -10 6 -14q0 -6 -2 -10q0 -10 -6 -10l-2 2q-2 2 -4 6q-6 6 -10 6q-14 0 -24 -60 q-4 -24 -10 -34q-4 -8 -6 -8t-2 8q0 10 -12 38q-14 28 -18 28t-4 -2l-2 -1q-2 -1 -4 -1q-6 0 -14 8l-8 14q0 2 8 14q6 12 8 12zM2086 726q2 2 2 4q2 0 2 -2v-2q-10 -50 -28 -50q-22 0 -22 36q0 42 26 90q2 8 4 11l2 3h2l-4 -16q-16 -44 -16 -68q0 -28 14 -28q8 0 18 22z M84 304q2 0 2 2q2 0 2 -2v-2q-12 -42 -26 -42q-18 0 -18 30q0 32 20 76q4 10 8 10l-2 -3q-2 -3 -2 -7q-14 -50 -14 -58q0 -24 14 -24q8 0 16 20zM1114 -100q-44 16 -60 46q-1 1 -1 3q0 7 19 32q20 26 29 26q2 0 3 -1q18 -20 56 -42q10 14 26 30q13 13 19 13q2 0 3 -1 q16 -20 54 -42q1 -1 1 -3q0 -7 -18 -32q-22 -29 -28 -29h-1q-44 16 -60 46q-10 -16 -24 -32q-12 -14 -17 -14h-1zM1716 422l1 1l3 3v-4q-10 -50 -30 -50t-20 38q0 40 24 90q6 12 8 12l-4 -14q-16 -54 -16 -68q0 -28 14 -28q10 0 20 20zM1244 560q-6 -26 -26 -60 q-47 -71 -100 -71h-7q-57 5 -109 21q-17 5 -17 10t15 10q24 4 66 13t82 27q8 4 43 29q31 22 31 36v3q-16 -1 -31 -1q-56 0 -77 13q-33 16 -33 47q0 10 3 20q12 47 26 79q8 30 44 30q70 0 90 -102q5 -29 5 -55t-5 -49zM1024 556q-3 -7 -5 -7q-7 0 -13 55q-8 74 -12 118 q-8 60 -11 166t-7 150q0 18 2 30q0 8 6 35t12 33h1q6 0 19 -30q8 -20 20 -52v-4q0 -14 -12 -30q6 -50 8 -162t6 -170q0 -32 -3 -69t-11 -63zM720 572q-16 -26 -81 -36q-23 -4 -43 -4q-36 0 -62 12q-17 8 -17 25q0 13 9 30q22 41 34 59q62 70 146 88q0 4 1 5t1 21q0 12 18 41 q11 18 15 18q3 0 3 -7q0 -18 -1 -53t-1 -63q-1 -10 -1 -20q0 -30 9 -60q19 -72 89 -72h11q73 5 73 82q0 8 -1 16q-4 32 -6 42q0 14 -4 40q-10 70 -12 94t-4 39t-6 40t-12 97q0 6 1 29t3 35q0 8 7 34t13 32q1 1 2 1q6 0 16 -28l20 -55v-3q0 -11 -14 -29q4 -62 8 -88 q4 -42 11 -142t7 -136v-6q0 -151 -97 -182q-19 -6 -35 -6q-71 0 -100 110zM708 710q-22 -6 -72 -35t-56 -55q-1 -2 -1 -4q0 -13 30 -13q12 0 30 2q65 9 73 13q-4 24 -4 45v47zM690 400q1 1 1 2q0 3 -3 8q0 16 -2 36t-16 42v2q0 4 6 22q7 19 11 19l1 -1q12 -14 16 -60 q1 -8 1 -16q0 -34 -15 -54zM1160 1218l1 1q1 0 1 -1q0 -3 -10 -18q-14 -22 -52 -36q-32 -14 -81 -17h-13q-40 0 -68 17q2 -5 2 -10q0 -12 -10 -26h-1q-1 0 -2 4v3l1 -5q-4 22 -18 43t-14 25t3 16q2 9 6 9q2 0 3 -1q50 -45 116 -45q8 0 16 1q76 6 120 40zM818 902l1 1l1 1v-2 q-6 -42 -24 -42q-16 0 -16 28q0 40 20 78l4 8l2 4q0 -8 -2 -14q-14 -38 -14 -56q0 -26 12 -26q6 0 16 20zM1190 896h2q2 0 2 2v-4q-10 -42 -26 -42t-16 30q0 38 20 76q2 6 4 8l2 2l-1 -3q-1 -3 -1 -7q-14 -40 -14 -58q0 -24 12 -24q6 0 16 20zM490 820l1 1l1 1v-2 q-8 -42 -24 -42t-16 32q0 36 20 74l4 8l2 4q0 -4 -2 -14q-14 -38 -14 -56q0 -24 12 -24q6 0 16 18zM718 174q0 -8 2 -10t8 -2q-2 2 -2 8q4 4 4 8q1 1 2 1v-1q3 -6 3 -11q0 -7 -4 -13q-4 -7 -10 -7q-4 0 -9 3q-11 -11 -19 -11q-7 0 -11 7q-9 3 -16 3q-3 0 -6 -1 q-12 -6 -31 -15q-13 -6 -31 -6q-7 0 -16 1q-4 0 -4 1t4 3q40 10 57 19t29 11q8 0 13 -3t15 -3q3 -1 5 -1q7 0 7 9q0 6 4 10q2 2 4 2q1 0 2 -2zM224 -32l6 -9t4 -3l-4 -10q0 -4 -1 -5l-1 -1q-12 -4 -18 -4l-14 -10q12 -34 12 -72q0 -6 -1 -11t-1 -9q-2 -2 -2 -3v11 q0 12 -8 50q-3 33 -4 33v-1q0 16 6 22l16 8l-8 4q-2 0 -6 -4q-2 -6 -3 -6h-2v1q0 1 1 5q1 20 12 20q7 0 16 -6zM222 26v2q2 0 2 -2v-2q-8 -26 -18 -26q-12 0 -12 20q0 22 14 54q4 8 6 8q0 -2 -1 -4t-1 -4q-10 -34 -10 -42q0 -16 8 -16q6 0 12 12zM358 38v1q0 1 2 1v-2 q-6 -40 -26 -40q-16 0 -16 26q0 40 22 78l6 10q0 -2 -1 -5t-1 -7q-16 -38 -16 -56q0 -26 14 -26q6 0 16 20z" arabic-form="isolated" horiz-adv-x="2392" unicode="ﷺ"/><glyph d="M1516 86q-52 24 -80 64q-2 1 -2 4q0 10 28 44q30 37 43 37q2 0 3 -1q22 -36 74 -60q2 -1 2 -4q0 -11 -26 -45q-29 -39 -40 -39h-2zM1208 218q-24 -70 -72 -126q-85 -90 -198 -90q-18 0 -36 2q-98 12 -150 89q-48 72 -48 158v13q0 82 42 156q10 20 32 44q14 15 19 15 q3 0 3 -5q-2 -12 -26 -56t-30 -82q-5 -22 -5 -43q0 -64 52 -113q69 -64 155 -64q70 0 142 39t102 109q2 10 2 25q0 28 -7 73q-11 70 -15 114q-12 92 -24 299t-12 313q-1 3 -1 9q0 18 9 61q12 58 22 80q2 2 4 2q15 0 26 -194q6 -78 11 -230t11 -228q8 -122 76 -158 q40 -24 87 -24q25 0 53 7q78 21 142 41h1q0 3 -58 32q-63 32 -111 34q-28 0 -45 -28t-21 -28h-2q-2 0 -2 3q0 11 24 60q34 69 104 69q20 0 57 -18t79 -36q86 -40 162 -44q4 0 4 -7q0 -12 -11 -44q-17 -51 -23 -55q-56 -6 -118 -22q-90 -24 -199 -70q-35 -15 -67 -15 q-66 0 -116 65q0 -66 -24 -132zM1036 476q-52 20 -78 62q-2 1 -2 5q0 11 25 44q28 36 42 36q3 0 5 -1q18 -28 72 -60q2 -1 2 -5q0 -11 -24 -43q-29 -38 -40 -38h-2zM426 928q-10 48 -20 99t-10 105q-1 4 -1 11q0 15 6 47q9 46 17 68q4 8 7 8q9 0 16 -63q9 -85 21 -177 q4 -32 9 -89t11 -75q8 -44 15 -87t51 -73q2 -32 5 -65t9 -63q-74 20 -90 146q-66 -180 -168 -199q-50 -9 -108 -9q-62 0 -134 10v3q0 22 56 43q60 22 131 47t133 61t64 90q-8 78 -20 162zM640 674q20 -2 41 -2q50 0 105 13q78 19 124 35q0 2 -58 32q-62 32 -110 34 q-28 0 -44 -29t-22 -29h-1q-3 0 -3 4q0 13 23 61q33 69 103 69q20 0 58 -18t82 -36q48 -24 82 -34t78 -12q5 0 5 -8q0 -12 -11 -42q-18 -50 -24 -56q-60 -6 -116 -22q-62 -16 -142 -48q-75 -30 -149 -30h-9q-4 30 -7 58t-5 60zM312 626h1q6 0 16 64q5 30 5 64q0 47 -9 102 q-15 96 -69 197t-176 163q-3 1 -5 1q-14 0 -17 -38q-3 -30 -3 -45q0 -7 1 -10q0 -12 42 -95q30 -59 43 -59q5 0 7 10q12 57 23 57q2 0 3 -1q110 -86 123 -216t13 -186q0 -6 2 -8zM326 142q-20 -34 -107 -47q-31 -5 -57 -5q-50 0 -86 16q-21 8 -21 30q0 17 12 42q27 58 45 80 q72 90 190 118l2 34q0 16 24 56q14 24 20 24q4 0 4 -12v-152q-1 -8 -1 -17q0 -40 15 -91q26 -99 132 -99q9 0 17 1q108 7 108 108q0 11 -1 24q-8 44 -8 56q-4 38 -8 54q-30 188 -44 356t-44 358v42q0 30 2 42q0 14 8 49t18 43q2 1 3 1q9 0 23 -37q16 -44 24 -72q2 -5 2 -10 q0 -16 -18 -36q2 -32 6 -61t10 -59q2 -28 12 -135t21 -229t21 -228t12 -130q1 -18 1 -35q0 -176 -136 -213q-28 -7 -52 -7q-107 0 -149 141zM304 328q-28 -8 -95 -46t-73 -74v-4q0 -19 40 -19q17 0 40 3q86 12 96 16q-4 32 -5 60t-3 64zM1666 948q4 3 6 3t2 -2t-2 -7 q-16 -50 -68 -80q-36 -18 -135 -65t-133 -67h-1q-3 0 -3 6q8 44 44 66q42 20 146 71t144 75zM1042 1132q4 3 6 3t2 -2t-2 -7q-16 -56 -68 -80q-34 -18 -134 -65t-134 -65l-1 -1q-1 0 -1 5q8 46 42 66q44 22 147 72t143 74zM416 1358q3 2 5 2t2 -3q0 -2 -1 -5 q-18 -52 -68 -80q-36 -20 -74 -38t-72 -36h-1q-1 0 -1 6q4 40 40 66q44 20 87 41t83 47zM1044 330q0 -20 -7 -42t-33 -22h-6q-27 0 -34 36q-4 -40 -38 -40q-24 2 -33 24t-9 46q0 16 4 28q-4 -8 -7 -8q-2 0 -3 2t-1 6q0 7 5 22q14 25 19 25q3 0 3 -7v-38q0 -52 24 -58 q4 -1 7 -1q18 0 25 27v3q0 10 -8 35v4q0 7 4 28q3 16 7 16q3 0 5 -8q6 -26 10 -52q0 -12 4 -28t16 -22q7 -3 13 -3q14 0 17 19q0 12 -9 24t-11 24q0 6 1 32q1 23 7 23q1 0 2 -1q26 -54 26 -94zM1656 682l1 2l1 2h2v-4q-10 -56 -32 -56q-26 0 -26 42q0 44 30 102q2 6 5 10 l3 4q0 -8 -4 -16q-20 -56 -20 -78q0 -30 18 -30q8 0 22 22zM1388 976l1 2l1 2v-4q-10 -54 -34 -54q-22 0 -22 40q0 48 30 102q4 14 8 14l-4 -16q-20 -54 -20 -78q0 -30 18 -30q8 0 22 22zM862 1330l4 4v-4q-10 -54 -34 -54q-22 0 -22 40q0 52 26 102q8 16 10 16l-4 -18 q-18 -54 -18 -78q0 -30 16 -30q6 0 22 22zM154 760l1 1l1 1h2v-4q-10 -54 -32 -54q-24 0 -24 40q0 46 28 102q2 6 5 10l3 4h2q0 -2 -6 -14q-18 -60 -18 -80q0 -32 18 -32q8 0 20 26zM1346 124q2 2 4 2v-4q-10 -52 -32 -52t-22 38q0 52 26 104q8 12 10 12l-4 -14 q-18 -54 -18 -78q0 -32 16 -32q10 0 20 24zM1688 244l1 1l1 1h2v-4q-10 -56 -32 -56q-24 0 -24 40q0 48 28 104q2 6 5 10l3 4q0 -6 -4 -16q-18 -56 -18 -78q0 -32 16 -32q10 0 22 26zM1084 1232l4 4v-4q-10 -54 -32 -54t-22 40q0 50 26 102q4 6 6 10l2 4h2l-4 -16 q-18 -54 -18 -78q0 -30 16 -30q6 0 20 22zM496 310q0 12 -32 28q-10 -20 -10 -34q0 -10 10 -10q6 0 18 6q10 2 14 10zM476 366q28 -24 28 -43v-3q0 -28 -6 -34q-16 -18 -34 -18q-20 0 -20 24v12q6 24 20 60q14 28 14 54q0 42 -40 84q-2 1 -2 3t2 5l8 16h4q40 -34 40 -96 q0 -24 -14 -64zM772 1250q24 0 42 -26q18 -28 24 -74q0 -2 1 -3l1 -1q2 0 2 4q10 42 22 80q14 38 32 38q8 0 18 -12q8 -10 8 -20q0 -8 -2 -14q-4 -10 -8 -10t-8 8q-8 8 -14 8q-20 0 -30 -78q-6 -22 -16 -46q-8 -10 -10 -10t-2 10t-16 52q-16 40 -22 40q-2 0 -6 -4 q0 -2 -6 -2q-12 0 -20 10q-12 8 -12 16l10 18q4 8 8 12zM744 478l1 1l1 1h2v-4q-14 -52 -32 -52q-24 0 -24 38q0 48 28 104q6 14 8 14l-4 -16q-18 -54 -18 -76q0 -34 16 -34q10 0 22 24zM86 358q0 -8 4 -16q2 -8 10 -8q4 4 8 6l4 8q-4 6 -26 10zM90 386q30 -8 34 -22 q1 -5 1 -10q0 -14 -7 -28q-16 -20 -26 -20q-14 0 -16 18q-4 10 -4 36q-8 0 -20 8q-1 1 -1 5q0 7 5 23q4 -6 20 -8q12 28 28 48q22 30 40 42q0 2 44 36q6 6 10 6v-2l-1 -3q-1 -3 -3 -5q-16 -16 -31 -32t-27 -28q-34 -36 -46 -64z" arabic-form="isolated" horiz-adv-x="1812" unicode="ﷻ"/><glyph d="M311 306q-38 9 -77 29.5t-66 50.5t-35 67.5t16 81.5q39 70 76 132.5t80 123.5q22 30 41 53t37.5 38t39 22.5t47.5 7.5q27 -2 49.5 -14t40 -28.5t30 -34t18.5 -30.5q7 -20 3.5 -35.5t-13 -24t-23 -9t-26.5 9.5q-16 14 -36.5 25t-43 15.5t-46 1t-46.5 -16.5 q-26 -16 -46 -40.5t-36 -50.5q-11 -19 -5 -38.5t24.5 -36.5t47 -31t62.5 -21q45 -9 89 -0.5t86 27.5t81.5 45t75.5 52q17 7 21 0.5t-0.5 -22t-16 -37t-26.5 -43t-31.5 -40.5t-30.5 -30q-73 -61 -136.5 -115.5t-122 -111t-115.5 -119t-116 -139.5q-11 -15 -23 -18.5 t-19.5 1.5t-9.5 18t6 31q12 32 36.5 70.5t51 74.5t51 65.5t36.5 43.5z" arabic-form="isolated" horiz-adv-x="906" unicode="ء"/><glyph d="M828 1919q8 16 18.5 22t19 3t12 -14.5t-3.5 -32.5q-21 -62 -52 -123t-73 -113t-96.5 -89.5t-123.5 -53.5q-47 -11 -97 -6t-90 32q-27 18 -46 21q-33 4 -62 -7.5t-54 -32t-46 -46t-38 -48.5q-11 -15 -21 -18.5t-16.5 1t-7.5 16t6 28.5q21 47 50 92.5t62 84.5t69.5 69.5 t72.5 49t71 22t65 -11.5q47 -23 98.5 -30.5t102 8t97 58t83.5 119.5zM532 1295q-8 -50 -11.5 -92.5t-5 -81.5t-1 -77t0.5 -78q0 -52 1 -100t1.5 -96t-0.5 -97t-5 -103q-2 -44 -10 -95t-20.5 -103t-28 -101t-32.5 -88q-8 -19 -17 -26.5t-16 -6.5q-9 1 -13 10.5t0 44.5 q10 80 15.5 153.5t5.5 154.5q0 66 -2 136.5t-4 134.5t-4 117t-3 84q-1 25 5 49.5t14 52.5q17 56 41 114.5t41 107.5q5 15 14.5 22.5t18 6t13.5 -12t2 -30.5z" arabic-form="isolated" horiz-adv-x="931" unicode="آ"/><glyph d="M611 846q0 -35 -1 -87.5t-1 -108.5t1 -107.5t5 -84.5q4 -37 16 -70t32.5 -58t49.5 -39.5t68 -14.5q3 0 7 -2q15 -8 19.5 -46t-3.5 -90q-8 -48 -23.5 -84.5t-31.5 -48.5q-7 -5 -14 -5h-2q-41 1 -73 17.5t-55 43t-38.5 61.5t-25.5 72.5t-14.5 75t-5.5 70.5q-4 57 -5 119.5 t-0.5 125.5t1 123t0.5 110v137t1 134q0 11 1 18.5t3 14t5 13.5t7 18q10 29 18.5 51.5t15.5 43t13.5 41.5t14.5 47q4 10 10 16t12 5.5t10 -7t4 -19.5q-3 -75 -6.5 -138t-6.5 -121t-5 -113t-3 -113zM987 1849q8 16 19 22.5t19 3.5t11.5 -15.5t-3.5 -33.5q-36 -108 -93 -190 t-129.5 -131t-158 -61t-179.5 20q-57 19 -96.5 23t-72 -9.5t-63 -45t-68.5 -82.5q-11 -15 -21.5 -19t-17.5 1t-8 16.5t7 28.5q40 81 84.5 153t95.5 120t109 65.5t126 -9.5q29 -12 66 -20.5t77 -10.5t82 5.5t81 27.5t73 54t60 87z" arabic-form="final" horiz-adv-x="781" unicode="آ"/><glyph d="M425 1313q-9 -71 -11 -163t-2.5 -191.5t-1 -201t-5.5 -191.5q-2 -44 -8 -92.5t-16.5 -97t-26.5 -95.5t-37 -88q-19 -36 -34 -33q-9 1 -13 10.5t0 44.5q6 50 10.5 98t5.5 98q1 55 1 120.5t-1 132t-2.5 130.5t-3 116.5t-2.5 88.5t-1 48q0 10 6 31.5t16 49.5t22 59.5 t23.5 60.5t21 52.5t13.5 36.5q5 16 15 26.5t19 10.5t13.5 -13.5t-1.5 -47.5zM577 1918q9 -1 8 -18.5t-7.5 -42t-17 -50.5t-20.5 -43q-8 -12 -13.5 -16t-12 -4.5t-14 1.5t-19.5 3q-33 1 -55.5 -18t-39 -47t-28.5 -60l-21 -56q-13 -31 -28.5 -58.5t-34.5 -46.5 q-14 -13 -34 -22t-40.5 -10.5t-39.5 6t-31 27.5q-4 5 -3.5 18.5t4 29.5t9 33t12 30t14 20t13.5 3q18 -10 35.5 -15t34.5 -1q21 3 38.5 16.5t31 31.5t24 39t17.5 39q23 54 43.5 95.5t47.5 69.5t59.5 39t67.5 7z" arabic-form="isolated" horiz-adv-x="711" unicode="أ"/><glyph d="M389 846q0 -35 -1 -87.5t-1 -108.5t1 -107.5t5 -84.5q4 -37 16 -70t32.5 -58t49.5 -39.5t68 -14.5q3 0 7 -2q15 -8 19.5 -46t-3.5 -90q-8 -48 -23.5 -84.5t-31.5 -48.5q-7 -5 -14 -5h-2q-41 1 -73 17.5t-55 43t-38.5 61.5t-25.5 72.5t-14.5 75t-5.5 70.5q-4 57 -5 119.5 t-0.5 125.5t1 123t0.5 110v137t1 134q0 11 1 18.5t3 14t5 13.5t7 18q10 29 18.5 51.5t15.5 43t13.5 41.5t14.5 47q4 10 10 16t12 5.5t10 -7t4 -19.5q-3 -75 -6.5 -138t-6.5 -121t-5 -113t-3 -113zM577 1789q9 -1 8 -18.5t-7.5 -42t-17 -50.5t-20.5 -43q-8 -12 -13.5 -16 t-12 -4.5t-14 1.5t-19.5 3q-33 1 -55.5 -18t-39 -47t-28.5 -60l-21 -56q-13 -31 -28.5 -58.5t-34.5 -46.5q-14 -13 -34 -22t-40.5 -10.5t-39.5 6t-31 27.5q-4 5 -3.5 18.5t4 29.5t9 33t12 30t14 20t13.5 3q18 -10 35.5 -15t34.5 -1q21 3 38.5 16.5t31 31.5t24 39t17.5 39 q23 54 43.5 95.5t47.5 69.5t59.5 39t67.5 7z" arabic-form="final" horiz-adv-x="559" unicode="أ"/><glyph d="M488 122q-17 -23 -29 -35.5t-31 -17.5q-32 -9 -70.5 -17t-80 -16.5t-83.5 -17t-79 -17.5q-11 -3 -20.5 1t-12 12.5t5 20t31.5 23.5q27 17 64.5 39t79 45.5t84 48.5t81 49t69 46.5t48.5 41.5q10 20 5 46t-29 44q-23 -7 -46.5 -10t-45.5 -1t-42 9.5t-35 21.5 q-27 25 -31.5 58t3 67t22 67.5t23.5 60.5q8 23 14.5 49.5t17 49.5t28 39t48.5 19q48 4 79 -23.5t49.5 -69.5t26 -89.5t8.5 -82.5q2 -57 -8 -118.5t-30 -121.5t-49 -116.5t-65 -104.5zM623 1394q9 -1 8 -18.5t-7.5 -42t-17 -50.5t-20.5 -43q-8 -12 -13.5 -16t-12 -4.5 t-14 1.5t-19.5 3q-33 1 -55.5 -18t-39 -47t-28.5 -60l-21 -56q-13 -31 -28.5 -58.5t-34.5 -46.5q-14 -13 -34 -22t-40.5 -10.5t-39.5 6t-31 27.5q-4 5 -3.5 18.5t4 29.5t9 33t12 30t14 20t13.5 3q18 -10 35.5 -15t34.5 -1q21 3 38.5 16.5t31 31.5t24 39t17.5 39 q23 54 43.5 95.5t47.5 69.5t59.5 39t67.5 7z" arabic-form="isolated" horiz-adv-x="722" unicode="ؤ"/><glyph d="M613 380q-18 -69 -50.5 -136t-74.5 -122q-17 -23 -29 -35.5t-31 -17.5q-32 -9 -71 -17t-80.5 -16.5l-83 -17t-78.5 -17.5q-11 -3 -20.5 1t-12 12.5t5 20t31.5 23.5q27 17 64 38.5t78.5 45.5t84.5 49t81.5 49t69.5 46t49 41q9 20 3.5 46.5t-29.5 43.5q-22 -6 -45.5 -9 t-46 -0.5t-42.5 10t-35 21.5q-27 25 -31 57.5t3.5 66.5t22 67.5t23.5 60.5q8 23 14.5 49.5t17 49t28 38.5t48.5 19q32 3 56 -9t42 -33.5t29.5 -50t19.5 -58.5q8 -32 10.5 -73.5t1 -84.5t-7.5 -84.5t-15 -73.5zM625 1394q9 -1 8 -18.5t-7.5 -42t-17 -50.5t-20.5 -43 q-8 -12 -13.5 -16t-12 -4.5t-14 1.5t-19.5 3q-33 1 -55.5 -18t-39 -47t-28.5 -60l-21 -56q-13 -31 -28.5 -58.5t-34.5 -46.5q-14 -13 -34 -22t-40.5 -10.5t-39.5 6t-31 27.5q-4 5 -3.5 18.5t4 29.5t9 33t12 30t14 20t13.5 3q18 -10 35.5 -15t34.5 -1q21 3 38.5 16.5t31 31.5 t24 39t17.5 39q23 54 43.5 95.5t47.5 69.5t59.5 39t67.5 7z" arabic-form="final" horiz-adv-x="637" unicode="ؤ"/><glyph d="M441 1313q-9 -71 -11 -163t-2.5 -191.5t-1 -201t-5.5 -191.5q-2 -44 -8 -92.5t-16.5 -97t-26.5 -95.5t-37 -88q-19 -36 -34 -33q-9 1 -13 10.5t0 44.5q6 50 10.5 98t5.5 98q1 55 1 120.5t-1 132t-2.5 130.5t-3 116.5t-2.5 88.5t-1 48q0 10 6 31.5t16 49.5t22 59.5 t23.5 60.5t21 52.5t13.5 36.5q5 16 15 26.5t19 10.5t13.5 -13.5t-1.5 -47.5zM577 260q9 -1 8 -18.5t-7.5 -42t-17 -50.5t-20.5 -43q-8 -12 -13.5 -16t-12 -4.5t-14 1.5t-19.5 3q-33 1 -55.5 -18t-39 -47t-28.5 -60l-21 -56q-13 -31 -28.5 -58.5t-34.5 -46.5q-14 -13 -34 -22 t-40.5 -10.5t-39.5 6t-31 27.5q-4 5 -3.5 18.5t4 29.5t9 33t12 30t14 20t13.5 3q18 -10 35.5 -15t34.5 -1q21 3 38.5 16.5t31 31.5t24 39t17.5 39q23 54 43.5 95.5t47.5 69.5t59.5 39t67.5 7z" arabic-form="isolated" horiz-adv-x="711" unicode="إ"/><glyph d="M382 846q0 -35 -1 -87.5t-1 -108.5t1 -107.5t5 -84.5q4 -37 16 -70t32.5 -58t49.5 -39.5t68 -14.5q3 0 7 -2q15 -8 19.5 -46t-3.5 -90q-8 -48 -23.5 -84.5t-31.5 -48.5q-7 -5 -14 -5h-2q-41 1 -73 17.5t-55 43t-38.5 61.5t-25.5 72.5t-14.5 75t-5.5 70.5q-4 57 -5 119.5 t-0.5 125.5t1 123t0.5 110v137t1 134q0 11 1 18.5t3 14t5 13.5t7 18q10 29 18.5 51.5t15.5 43t13.5 41.5t14.5 47q4 10 10 16t12 5.5t10 -7t4 -19.5q-3 -75 -6.5 -138t-6.5 -121t-5 -113t-3 -113zM577 -77q9 -1 8 -18.5t-7.5 -42t-17 -50.5t-20.5 -43q-8 -12 -13.5 -16 t-12 -4.5t-14 1.5t-19.5 3q-33 1 -55.5 -18t-39 -47t-28.5 -60l-21 -56q-13 -31 -28.5 -58.5t-34.5 -46.5q-14 -13 -34 -22t-40.5 -10.5t-39.5 6t-31 27.5q-4 5 -3.5 18.5t4 29.5t9 33t12 30t14 20t13.5 3q18 -10 35.5 -15t34.5 -1q21 3 38.5 16.5t31 31.5t24 39t17.5 39 q23 54 43.5 95.5t47.5 69.5t59.5 39t67.5 7z" arabic-form="final" horiz-adv-x="554" unicode="إ"/><glyph d="M275 564q-17 -75 -23 -148t2.5 -138.5t34 -120t72.5 -92.5q55 -45 124 -60t141.5 -5.5t144 39.5t131.5 76t104 104t62 123q9 34 6.5 58t-14.5 39.5t-32.5 24t-45.5 11.5q-66 7 -111 26.5t-71 53t-34.5 83.5t-1.5 118q1 43 14.5 104.5t40 129.5t65 138t89.5 129.5 t114 103.5t139 61q19 4 30 -12t6 -52q-4 -29 -13.5 -67t-22 -71t-27.5 -54.5t-30 -17.5q-7 2 -19.5 2.5t-32.5 -4.5q-39 -8 -81.5 -34.5t-80.5 -64.5t-67 -84t-41 -92q-2 -20 1.5 -35t10.5 -26.5t17 -20t21 -15.5q23 -12 52 -18t58.5 -13t55.5 -18t44 -34q16 -19 27 -45.5 t16 -63t2.5 -85.5t-14.5 -114q-14 -78 -46 -162t-79.5 -162.5t-109.5 -146.5t-135 -114.5t-156.5 -66.5t-174.5 -2q-82 16 -136.5 60.5t-87.5 108t-46.5 140.5t-13.5 157.5t11 159.5t28 146q10 43 28 99t39 114.5t42.5 112.5t39.5 92q10 22 21 32t19.5 10.5t12 -8 t-0.5 -24.5q-10 -36 -27 -84.5t-34.5 -99.5t-33.5 -99t-23 -82zM577 1508q9 -1 8 -18.5t-7.5 -42t-17 -50.5t-20.5 -43q-8 -12 -13.5 -16t-12 -4.5t-14 1.5t-19.5 3q-33 1 -55.5 -18t-39 -47t-28.5 -60l-21 -56q-13 -31 -28.5 -58.5t-34.5 -46.5q-14 -13 -34 -22 t-40.5 -10.5t-39.5 6t-31 27.5q-4 5 -3.5 18.5t4 29.5t9 33t12 30t14 20t13.5 3q18 -10 35.5 -15t34.5 -1q21 3 38.5 16.5t31 31.5t24 39t17.5 39q23 54 43.5 95.5t47.5 69.5t59.5 39t67.5 7z" arabic-form="isolated" horiz-adv-x="1392" unicode="ئ"/><glyph d="M405 918q-12 -42 -27 -87t-30.5 -90t-29.5 -89t-23 -83q-14 -57 -21.5 -119t-3.5 -122.5t20 -116t49 -100t84 -75t124 -40.5q55 -8 113 1t114 31t107.5 55t95 74t75.5 89t49 99q6 13 17 23.5t22.5 16t21 5t11.5 -8.5q-16 -73 -47.5 -152t-76 -154.5t-101.5 -142.5 t-125 -116.5t-146.5 -75.5t-164.5 -19q-102 8 -168 53.5t-104.5 115.5t-53.5 156.5t-14 175.5q1 81 17 171t41 180t57 176t66 159q10 22 21.5 32t20 10.5t12 -8t-1.5 -24.5zM577 1486q9 -1 8 -18.5t-7.5 -42t-17 -50.5t-20.5 -43q-8 -12 -13.5 -16t-12 -4.5t-14 1.5t-19.5 3 q-33 1 -55.5 -18t-39 -47t-28.5 -60l-21 -56q-13 -31 -28.5 -58.5t-34.5 -46.5q-14 -13 -34 -22t-40.5 -10.5t-39.5 6t-31 27.5q-4 5 -3.5 18.5t4 29.5t9 33t12 30t14 20t13.5 3q18 -10 35.5 -15t34.5 -1q21 3 38.5 16.5t31 31.5t24 39t17.5 39q23 54 43.5 95.5t47.5 69.5 t59.5 39t67.5 7z" arabic-form="final" horiz-adv-x="1173" unicode="ئ"/><glyph d="M286 1304q-8 -50 -11.5 -92.5t-5 -81.5t-1 -77t0.5 -78q0 -52 1 -100t1.5 -96t-0.5 -97t-5 -103q-2 -44 -10 -95t-20.5 -103t-28 -101t-32.5 -88q-8 -19 -17 -26.5t-16 -6.5q-9 1 -13 10.5t0 44.5q10 80 15.5 153.5t5.5 154.5q0 66 -2 136.5t-4 134.5t-4 117t-3 84 q-1 25 5 49.5t14 52.5q17 56 41 114.5t41 107.5q5 15 14.5 22.5t18 6t13.5 -12t2 -30.5z" arabic-form="isolated" horiz-adv-x="414" unicode="ا"/><glyph d="M221 846q0 -35 -1 -87.5t-1 -108.5t1 -107.5t5 -84.5q4 -37 16 -70t32.5 -58t49.5 -39.5t68 -14.5q3 0 7 -2q15 -8 19.5 -46t-3.5 -90q-8 -48 -23.5 -84.5t-31.5 -48.5q-7 -5 -14 -5h-2q-41 1 -73 17.5t-55 43t-38.5 61.5t-25.5 72.5t-14.5 75t-5.5 70.5q-4 57 -5 119.5 t-0.5 125.5t1 123t0.5 110v137t1 134q0 11 1 18.5t3 14t5 13.5t7 18q10 29 18.5 51.5t15.5 43t13.5 41.5t14.5 47q4 10 10 16t12 5.5t10 -7t4 -19.5q-3 -75 -6.5 -138t-6.5 -121t-5 -113t-3 -113z" arabic-form="final" horiz-adv-x="391" unicode="ا"/><glyph d="M874 -422q-13 -2 -39 15t-53 40t-47.5 46t-21.5 34q-1 7 11 19q12 15 27.5 34t32 38t32.5 37.5t29 33.5q11 9 19 5q3 -2 10 -10.5t22.5 -24t42.5 -37.5t69 -51q13 -8 17 -11.5t-4 -17.5q-6 -11 -25.5 -35t-42.5 -49t-45 -45t-34 -21zM211 386q11 -21 34.5 -37t56 -28 t73 -21t85.5 -15q71 -10 163.5 -16t194 -6.5t207 6t202.5 21t180.5 39t140.5 60.5q46 29 80.5 67t54.5 88q7 27 17.5 39t18.5 8.5t10 -22.5t-7 -52q-22 -95 -67 -168t-107 -128t-138.5 -92.5t-161.5 -62.5q-54 -16 -133.5 -29.5t-171.5 -22.5t-190 -12.5t-190 -0.5 t-170.5 14t-131.5 32q-48 19 -76.5 44t-42 57t-15.5 71.5t1 88.5q5 71 11 136.5t14 110.5q3 15 9 25.5t20 9.5q8 -1 12 -16.5t3 -32.5q-3 -56 -1.5 -92.5t15.5 -62.5z" arabic-form="isolated" horiz-adv-x="1856" unicode="ب"/><glyph d="M848 -421q-13 -2 -39 15t-53 40t-47.5 46t-21.5 34q-1 7 11 19q12 15 27.5 34t32 38t32.5 37.5t29 33.5q11 9 19 5q3 -2 10 -10.5t22.5 -24t42.5 -37.5t69 -51q13 -8 17 -11.5t-4 -17.5q-6 -11 -25.5 -35t-42.5 -49t-45 -45t-34 -21zM1889 624q6 -2 7 -3q9 -7 15 -29.5 t6 -51.5q0 -6 -1 -20t-4 -28t-8.5 -25t-14.5 -12q-3 1 -13.5 3t-23.5 4q-15 3 -31.5 4.5t-32.5 0.5t-31.5 -5.5t-27.5 -14.5q-23 -18 -39.5 -43t-31.5 -50q-53 -88 -123.5 -144.5t-150.5 -93.5q-63 -29 -128 -47.5t-132 -31t-135 -19.5t-136 -11q-84 -6 -169.5 -7t-164 3.5 t-145.5 15.5t-113 29q-48 19 -76.5 43.5t-42 56.5t-15.5 71.5t1 88.5q5 71 11 136.5t14 110.5q2 15 8.5 25.5t19.5 9.5q9 -1 13 -16.5t3 -32.5q-3 -55 -1.5 -92t15.5 -63q11 -20 34.5 -36t56 -28.5t73 -21.5t85.5 -15q57 -8 127.5 -13.5t149 -8t161.5 -0.5t166 8 q73 6 152 16.5t154.5 31t145 53.5t123.5 84q17 16 32.5 35.5t30.5 39t31 38t35 32.5q29 20 58.5 24t62.5 -1z" arabic-form="final" horiz-adv-x="1887" unicode="ب"/><glyph d="M249 441q-1 -37 -11 -84t-27.5 -96t-42.5 -95.5t-57 -83.5t-69.5 -59.5t-80.5 -22.5q-10 0 -16.5 11t-9.5 29.5t-2 44t5 54.5q5 28 12.5 53.5t17 44t19.5 29.5t20 11q43 0 76.5 12.5t58.5 35t41.5 54.5t25.5 71q3 9 9.5 14t13.5 5t12.5 -6.5t4.5 -21.5z" arabic-form="initial" horiz-adv-x="450" unicode="ب"/><glyph d="M278 319q-13 -6 -23.5 -17.5t-20.5 -27t-20 -35t-21 -40.5q-17 -33 -40 -68.5t-52 -64t-64 -47.5t-76 -19q-10 0 -16.5 11t-9.5 29.5t-2.5 44t5.5 54.5q5 28 12.5 53.5t17 44t19.5 29.5t20 11q35 0 66.5 4.5t60 17t54 33.5t47.5 55q32 46 62.5 67.5t63.5 25.5 q19 1 42.5 -4t47.5 -11q7 -4 9 -16.5t0.5 -29t-6.5 -34.5t-12 -33t-15 -25t-16 -10q-18 2 -36.5 5t-36 4t-33 0t-27.5 -7z" arabic-form="medial" horiz-adv-x="449" unicode="ب"/><glyph d="M282 1171q25 -32 63.5 -68t90.5 -62q26 28 55.5 62.5t55.5 69.5q4 5 9 4t9 -6q26 -32 63 -66t79 -54q6 -4 10.5 -6t7 -5t2 -7t-4.5 -11q-6 -11 -24 -36.5t-40 -52.5t-43 -48t-32 -23q-20 -3 -44.5 9t-48 31.5t-43 41.5t-29.5 39q-13 -17 -30.5 -38t-35 -39t-32 -30.5 t-21.5 -13.5q-20 -4 -45.5 9.5t-50 34t-44 44t-28.5 39.5q-6 11 -5 15t8 13q31 41 65 79.5t64 76.5q9 10 19 -2zM249 431q-5 1 -11.5 1t-11.5 2.5t-8.5 9.5t-2.5 22q2 27 10 61t19 66t24.5 57t27.5 33q39 24 80.5 32.5t80 1.5t72.5 -28t59 -56q22 -30 32.5 -70t12 -84.5 t-5.5 -91.5t-20 -92q-16 -53 -39.5 -105.5t-54 -94.5t-68.5 -68.5t-83 -26.5q-41 0 -68.5 16t-44 44t-23.5 63.5t-7.5 74t3.5 76.5t9 70t10.5 55t7.5 32zM301 439q-8 -18 -15.5 -44t-11 -54.5t-1.5 -57t13 -52.5t32 -41.5t56 -23.5q31 -5 62.5 5.5t56.5 31.5t40.5 50 t15.5 61q0 43 -23.5 76t-60 51.5t-80.5 19t-84 -21.5z" arabic-form="isolated" horiz-adv-x="852" unicode="ة"/><glyph d="M637 0q-35 3 -55.5 13t-38 20t-37.5 17t-54 5q-59 -4 -114.5 -40.5t-97.5 -120.5q-8 -16 -19 -22.5t-19.5 -3.5t-12 15t4.5 32q24 60 62.5 123t88 116t107 88.5t118.5 40.5q22 2 35.5 -2t25.5 -10.5t25 -13.5t33 -12q12 -3 17 -22.5t5 -47t-5.5 -58.5t-15 -57 t-23.5 -43.5t-30 -16.5zM282 794q25 -32 63.5 -68t90.5 -62q26 28 55.5 62.5t55.5 69.5q4 5 9 4t9 -6q26 -32 63 -66t79 -54q6 -4 10.5 -6t7 -5t2 -7t-4.5 -11q-6 -11 -24 -36.5t-40 -52.5t-43 -48t-32 -23q-20 -3 -44.5 9t-48 31.5t-43 41.5t-29.5 39q-13 -17 -30.5 -38 t-35 -39t-32 -30.5t-21.5 -13.5q-20 -4 -45.5 9.5t-50 34t-44 44t-28.5 39.5q-6 11 -5 15t8 13q31 41 65 79.5t64 76.5q9 10 19 -2z" arabic-form="final" horiz-adv-x="687" unicode="ة"/><glyph d="M828 845q25 -32 63.5 -68t90.5 -62q26 28 55.5 62.5t55.5 69.5q4 5 9 4t9 -6q26 -32 63 -66t79 -54q6 -4 10.5 -6t7 -5t2 -7t-4.5 -11q-6 -11 -24 -36.5t-40 -52.5t-43 -48t-32 -23q-20 -3 -44.5 9t-48 31.5t-43 41.5t-29.5 39q-13 -17 -30.5 -38t-35 -39t-32 -30.5 t-21.5 -13.5q-20 -4 -45.5 9.5t-50 34t-44 44t-28.5 39.5q-6 11 -5 15t8 13q31 41 65 79.5t64 76.5q9 10 19 -2zM211 386q11 -21 34.5 -37t56 -28t73 -21t85.5 -15q71 -10 163.5 -16t194 -6.5t207 6t202.5 21t180.5 39t140.5 60.5q46 29 80.5 67t54.5 88q7 27 17.5 39 t18.5 8.5t10 -22.5t-7 -52q-22 -95 -67 -168t-107 -128t-138.5 -92.5t-161.5 -62.5q-54 -16 -133.5 -29.5t-171.5 -22.5t-190 -12.5t-190 -0.5t-170.5 14t-131.5 32q-48 19 -76.5 44t-42 57t-15.5 71.5t1 88.5q5 71 11 136.5t14 110.5q3 15 9 25.5t20 9.5q8 -1 12 -16.5 t3 -32.5q-3 -56 -1.5 -92.5t15.5 -62.5z" arabic-form="isolated" horiz-adv-x="1856" unicode="ت"/><glyph d="M829 845q25 -32 63.5 -68t90.5 -62q26 28 55.5 62.5t55.5 69.5q4 5 9 4t9 -6q26 -32 63 -66t79 -54q6 -4 10.5 -6t7 -5t2 -7t-4.5 -11q-6 -11 -24 -36.5t-40 -52.5t-43 -48t-32 -23q-20 -3 -44.5 9t-48 31.5t-43 41.5t-29.5 39q-13 -17 -30.5 -38t-35 -39t-32 -30.5 t-21.5 -13.5q-20 -4 -45.5 9.5t-50 34t-44 44t-28.5 39.5q-6 11 -5 15t8 13q31 41 65 79.5t64 76.5q9 10 19 -2zM1889 624q6 -2 7 -3q9 -7 15 -29.5t6 -51.5q0 -6 -1 -20t-4 -28t-8.5 -25t-14.5 -12q-3 1 -13.5 3t-23.5 4q-15 3 -31.5 4.5t-32.5 0.5t-31.5 -5.5t-27.5 -14.5 q-23 -18 -39.5 -43t-31.5 -50q-53 -88 -123.5 -144.5t-150.5 -93.5q-63 -29 -128 -47.5t-132 -31t-135 -19.5t-136 -11q-84 -6 -169.5 -7t-164 3.5t-145.5 15.5t-113 29q-48 19 -76.5 43.5t-42 56.5t-15.5 71.5t1 88.5q5 71 11 136.5t14 110.5q2 15 8.5 25.5t19.5 9.5 q9 -1 13 -16.5t3 -32.5q-3 -55 -1.5 -92t15.5 -63q11 -20 34.5 -36t56 -28.5t73 -21.5t85.5 -15q57 -8 127.5 -13.5t149 -8t161.5 -0.5t166 8q73 6 152 16.5t154.5 31t145 53.5t123.5 84q17 16 32.5 35.5t30.5 39t31 38t35 32.5q29 20 58.5 24t62.5 -1z" arabic-form="final" horiz-adv-x="1887" unicode="ت"/><glyph d="M820 828q25 -32 63.5 -68t90.5 -62q26 28 55.5 62.5t55.5 69.5q4 5 9 4t9 -6q26 -32 63 -66t79 -54q6 -4 10.5 -6t7 -5t2 -7t-4.5 -11q-6 -11 -24 -36.5t-40 -52.5t-43 -48t-32 -23q-20 -3 -44.5 9t-48 31.5t-43 41.5t-29.5 39q-13 -17 -30.5 -38t-35 -39t-32 -30.5 t-21.5 -13.5q-20 -4 -45.5 9.5t-50 34t-44 44t-28.5 39.5q-6 11 -5 15t8 13q31 41 65 79.5t64 76.5q9 10 19 -2zM971 828q-13 -2 -39 15t-53 40t-47.5 46t-21.5 34q-1 7 11 19q12 15 27.5 34t32 38t32.5 37.5t29 33.5q11 9 19 5q3 -2 10 -10.5t22.5 -24t42.5 -37.5t69 -51 q13 -8 17 -11.5t-4 -17.5q-6 -11 -25.5 -35t-42.5 -49t-45 -45t-34 -21zM211 386q11 -21 34.5 -37t56 -28t73 -21t85.5 -15q71 -10 163.5 -16t194 -6.5t207 6t202.5 21t180.5 39t140.5 60.5q46 29 80.5 67t54.5 88q7 27 17.5 39t18.5 8.5t10 -22.5t-7 -52q-22 -95 -67 -168 t-107 -128t-138.5 -92.5t-161.5 -62.5q-54 -16 -133.5 -29.5t-171.5 -22.5t-190 -12.5t-190 -0.5t-170.5 14t-131.5 32q-48 19 -76.5 44t-42 57t-15.5 71.5t1 88.5q5 71 11 136.5t14 110.5q3 15 9 25.5t20 9.5q8 -1 12 -16.5t3 -32.5q-3 -56 -1.5 -92.5t15.5 -62.5z" arabic-form="isolated" horiz-adv-x="1856" unicode="ث"/><glyph d="M821 828q25 -32 63.5 -68t90.5 -62q26 28 55.5 62.5t55.5 69.5q4 5 9 4t9 -6q26 -32 63 -66t79 -54q6 -4 10.5 -6t7 -5t2 -7t-4.5 -11q-6 -11 -24 -36.5t-40 -52.5t-43 -48t-32 -23q-20 -3 -44.5 9t-48 31.5t-43 41.5t-29.5 39q-13 -17 -30.5 -38t-35 -39t-32 -30.5 t-21.5 -13.5q-20 -4 -45.5 9.5t-50 34t-44 44t-28.5 39.5q-6 11 -5 15t8 13q31 41 65 79.5t64 76.5q9 10 19 -2zM972 828q-13 -2 -39 15t-53 40t-47.5 46t-21.5 34q-1 7 11 19q12 15 27.5 34t32 38t32.5 37.5t29 33.5q11 9 19 5q3 -2 10 -10.5t22.5 -24t42.5 -37.5t69 -51 q13 -8 17 -11.5t-4 -17.5q-6 -11 -25.5 -35t-42.5 -49t-45 -45t-34 -21zM1889 624q6 -2 7 -3q9 -7 15 -29.5t6 -51.5q0 -6 -1 -20t-4 -28t-8.5 -25t-14.5 -12q-3 1 -13.5 3t-23.5 4q-15 3 -31.5 4.5t-32.5 0.5t-31.5 -5.5t-27.5 -14.5q-23 -18 -39.5 -43t-31.5 -50 q-53 -88 -123.5 -144.5t-150.5 -93.5q-63 -29 -128 -47.5t-132 -31t-135 -19.5t-136 -11q-84 -6 -169.5 -7t-164 3.5t-145.5 15.5t-113 29q-48 19 -76.5 43.5t-42 56.5t-15.5 71.5t1 88.5q5 71 11 136.5t14 110.5q2 15 8.5 25.5t19.5 9.5q9 -1 13 -16.5t3 -32.5 q-3 -55 -1.5 -92t15.5 -63q11 -20 34.5 -36t56 -28.5t73 -21.5t85.5 -15q57 -8 127.5 -13.5t149 -8t161.5 -0.5t166 8q73 6 152 16.5t154.5 31t145 53.5t123.5 84q17 16 32.5 35.5t30.5 39t31 38t35 32.5q29 20 58.5 24t62.5 -1z" arabic-form="final" horiz-adv-x="1887" unicode="ث"/><glyph d="M735 385q-13 -2 -39 15t-53 40t-47.5 46t-21.5 34q-1 7 11 19q12 15 27.5 34t32 38t32.5 37.5t29 33.5q11 9 19 5q3 -2 10 -10.5t22.5 -24t42.5 -37.5t69 -51q13 -8 17 -11.5t-4 -17.5q-6 -11 -25.5 -35t-42.5 -49t-45 -45t-34 -21zM1250 528q4 16 13.5 23.5t18.5 6 t14 -12.5t1 -32q-25 -89 -63 -184.5t-90.5 -185.5t-118.5 -170t-145.5 -138t-172.5 -89.5t-199 -24.5q-89 5 -154 38t-110 84.5t-71.5 118.5t-37 140.5t-8 150t16.5 147.5q38 201 145.5 378.5t275.5 314.5q16 13 21.5 20.5t3 12t-10.5 7t-18 4.5q-32 7 -68.5 12.5t-73 7 t-69.5 -2t-56 -13.5q-10 -4 -21.5 -13.5t-22.5 -20.5t-21 -23t-17 -22q-9 -13 -20.5 -23.5t-24.5 -7.5q-7 2 -8 12.5t11 31.5q23 43 48.5 80.5t57 66.5t72 47t93.5 21q38 2 77 0t75.5 -6t67.5 -9.5t53 -9.5q37 -8 47.5 -20.5t5.5 -29.5q-11 -39 -47.5 -84.5t-89.5 -94.5 q-74 -69 -144 -138.5t-125.5 -146.5t-90 -166t-36.5 -198q-2 -82 21.5 -151.5t66.5 -121t103.5 -83t133.5 -37.5q86 -7 163.5 10.5t146.5 54t128 88.5t107 113.5t85 130t61 137.5z" arabic-form="isolated" horiz-adv-x="1426" unicode="ج"/><glyph d="M772 374q-13 -2 -39 15t-53 40t-47.5 46t-21.5 34q-1 7 11 19q12 15 27.5 34t32 38t32.5 37.5t29 33.5q11 9 19 5q3 -2 10 -10.5t22.5 -24t42.5 -37.5t69 -51q13 -8 17 -11.5t-4 -17.5q-6 -11 -25.5 -35t-42.5 -49t-45 -45t-34 -21zM1286 532q4 16 14 23.5t19 6t14 -12 t1 -31.5q-25 -90 -66 -185.5t-97.5 -186.5t-127 -171t-154 -139t-179.5 -90.5t-202 -24.5q-89 5 -154 38t-110 84.5t-71.5 118.5t-37 140.5t-8 150t16.5 147.5q20 106 60 207.5t98.5 194.5t134.5 176t169 151q-35 10 -84 16t-101 6t-101.5 -6t-85.5 -21q-39 -20 -48.5 -3 t22.5 86q11 14 30.5 25t45.5 19q30 10 58 16.5t55.5 9.5t56.5 4t62 1q60 0 112.5 -5t82.5 -10q37 -6 47.5 -19t5.5 -30q-11 -40 -47.5 -85t-89.5 -94q-74 -69 -143.5 -138.5t-124.5 -147.5t-89 -167.5t-36 -197.5q-2 -82 21.5 -151.5t66.5 -121t103.5 -83t133.5 -37.5 q86 -7 166.5 10.5t153 54.5t136 89.5t116 114.5t92 130.5t63.5 137.5z" arabic-form="final" horiz-adv-x="211" unicode="ج"/><glyph d="M612 596q18 -1 25 -6.5t6 -14t-7.5 -19.5t-15.5 -21q-31 -39 -62.5 -82.5t-64.5 -88.5t-68.5 -89.5t-74.5 -85t-82 -75t-91 -60t-102 -40t-115 -14.5q-9 0 -15.5 11t-10 29.5t-3 44t5.5 54.5q4 28 12 53.5t17.5 44t19.5 29.5t20 11q15 32 31.5 70.5t33.5 76.5t34 74 t34 63q12 21 27 39t33 31.5t39.5 21t47.5 7.5q41 -2 81.5 -11.5t81 -20.5t81 -20.5t82.5 -11.5zM71 275q14 0 37.5 1.5t55.5 7.5t69.5 19t79.5 36.5t85.5 59t87.5 87.5q-22 9 -49 17.5t-55 15.5t-56 12t-53 8q-26 3 -43 -1t-30 -13q-11 -8 -23.5 -26t-25 -41.5t-24.5 -49.5 t-22.5 -51t-19 -46.5t-14.5 -35.5z" arabic-form="initial" horiz-adv-x="844" unicode="ج"/><glyph d="M420 491q-27 3 -67 7.5t-85 8t-91 5.5t-84 1q-18 0 -29.5 1t-15.5 7.5t-0.5 21t15.5 40.5q12 14 26.5 23.5t40.5 18.5q35 -1 79 -3.5t93 -5.5t102.5 -7.5t106.5 -10.5q24 -2 37 -8t16.5 -15t-1 -21t-14.5 -27q-35 -52 -75 -110.5t-85.5 -117t-95.5 -112.5t-103.5 -95.5 t-111.5 -66.5t-118 -25q-10 0 -16.5 11t-9.5 29.5t-2.5 44t5.5 54.5q4 28 12 53.5t17.5 44t19.5 29.5t20 11q23 0 55.5 3t69.5 11t76.5 23t77.5 39t73 57.5t62 80.5z" arabic-form="medial" horiz-adv-x="73" unicode="ج"/><glyph d="M1250 528q4 16 13.5 23.5t18.5 6t14 -12.5t1 -32q-25 -89 -63 -184.5t-90.5 -185.5t-118.5 -170t-145.5 -138t-172.5 -89.5t-199 -24.5q-89 5 -154 38t-110 84.5t-71.5 118.5t-37 140.5t-8 150t16.5 147.5q38 201 145.5 378.5t275.5 314.5q16 13 21.5 20.5t3 12t-10.5 7 t-18 4.5q-32 7 -68.5 12.5t-73 7t-69.5 -2t-56 -13.5q-10 -4 -21.5 -13.5t-22.5 -20.5t-21 -23t-17 -22q-9 -13 -20.5 -23.5t-24.5 -7.5q-7 2 -8 12.5t11 31.5q23 43 48.5 80.5t57 66.5t72 47t93.5 21q38 2 77 0t75.5 -6t67.5 -9.5t53 -9.5q37 -8 47.5 -20.5t5.5 -29.5 q-11 -39 -47.5 -84.5t-89.5 -94.5q-74 -69 -144 -138.5t-125.5 -146.5t-90 -166t-36.5 -198q-2 -82 21.5 -151.5t66.5 -121t103.5 -83t133.5 -37.5q86 -7 163.5 10.5t146.5 54t128 88.5t107 113.5t85 130t61 137.5z" arabic-form="isolated" horiz-adv-x="1426" unicode="ح"/><glyph d="M1286 532q4 16 14 23.5t19 6t14 -12t1 -31.5q-25 -90 -66 -185.5t-97.5 -186.5t-127 -171t-154 -139t-179.5 -90.5t-202 -24.5q-89 5 -154 38t-110 84.5t-71.5 118.5t-37 140.5t-8 150t16.5 147.5q20 106 60 207.5t98.5 194.5t134.5 176t169 151q-35 10 -84 16t-101 6 t-101.5 -6t-85.5 -21q-39 -20 -48.5 -3t22.5 86q11 14 30.5 25t45.5 19q30 10 58 16.5t55.5 9.5t56.5 4t62 1q60 0 112.5 -5t82.5 -10q37 -6 47.5 -19t5.5 -30q-11 -40 -47.5 -85t-89.5 -94q-74 -69 -143.5 -138.5t-124.5 -147.5t-89 -167.5t-36 -197.5q-2 -82 21.5 -151.5 t66.5 -121t103.5 -83t133.5 -37.5q86 -7 166.5 10.5t153 54.5t136 89.5t116 114.5t92 130.5t63.5 137.5z" arabic-form="final" horiz-adv-x="210" unicode="ح"/><glyph d="M545 1519q-13 -2 -39 15t-53 40t-47.5 46t-21.5 34q-1 7 11 19q12 15 27.5 34t32 38t32.5 37.5t29 33.5q11 9 19 5q3 -2 10 -10.5t22.5 -24t42.5 -37.5t69 -51q13 -8 17 -11.5t-4 -17.5q-6 -11 -25.5 -35t-42.5 -49t-45 -45t-34 -21zM1250 528q4 16 13.5 23.5t18.5 6 t14 -12.5t1 -32q-25 -89 -63 -184.5t-90.5 -185.5t-118.5 -170t-145.5 -138t-172.5 -89.5t-199 -24.5q-89 5 -154 38t-110 84.5t-71.5 118.5t-37 140.5t-8 150t16.5 147.5q38 201 145.5 378.5t275.5 314.5q16 13 21.5 20.5t3 12t-10.5 7t-18 4.5q-32 7 -68.5 12.5t-73 7 t-69.5 -2t-56 -13.5q-10 -4 -21.5 -13.5t-22.5 -20.5t-21 -23t-17 -22q-9 -13 -20.5 -23.5t-24.5 -7.5q-7 2 -8 12.5t11 31.5q23 43 48.5 80.5t57 66.5t72 47t93.5 21q38 2 77 0t75.5 -6t67.5 -9.5t53 -9.5q37 -8 47.5 -20.5t5.5 -29.5q-11 -39 -47.5 -84.5t-89.5 -94.5 q-74 -69 -144 -138.5t-125.5 -146.5t-90 -166t-36.5 -198q-2 -82 21.5 -151.5t66.5 -121t103.5 -83t133.5 -37.5q86 -7 163.5 10.5t146.5 54t128 88.5t107 113.5t85 130t61 137.5z" arabic-form="isolated" horiz-adv-x="1426" unicode="خ"/><glyph d="M114 1546q-13 -2 -39 15t-53 40t-47.5 46t-21.5 34q-1 7 11 19q12 15 27.5 34t32 38t32.5 37.5t29 33.5q11 9 19 5q3 -2 10 -10.5t22.5 -24t42.5 -37.5t69 -51q13 -8 17 -11.5t-4 -17.5q-6 -11 -25.5 -35t-42.5 -49t-45 -45t-34 -21zM1239 532q4 16 14 23.5t19 6t14 -12 t1 -31.5q-25 -90 -66 -185.5t-97.5 -186.5t-127 -171t-154 -139t-179.5 -90.5t-202 -24.5q-89 5 -154 38t-110 84.5t-71.5 118.5t-37 140.5t-8 150t16.5 147.5q20 106 60 207.5t98.5 194.5t134.5 176t169 151q-35 10 -84 16t-101 6t-101.5 -6t-85.5 -21q-39 -20 -48.5 -3 t22.5 86q11 14 30.5 25t45.5 19q30 10 58 16.5t55.5 9.5t56.5 4t62 1q60 0 112.5 -5t82.5 -10q37 -6 47.5 -19t5.5 -30q-11 -40 -47.5 -85t-89.5 -94q-74 -69 -143.5 -138.5t-124.5 -147.5t-89 -167.5t-36 -197.5q-2 -82 21.5 -151.5t66.5 -121t103.5 -83t133.5 -37.5 q86 -7 166.5 10.5t153 54.5t136 89.5t116 114.5t92 130.5t63.5 137.5z" arabic-form="final" horiz-adv-x="161" unicode="خ"/><glyph d="M358 840q96 -28 146.5 -86t65.5 -131.5t1 -155.5t-45 -158q-20 -47 -44.5 -93.5t-50.5 -85.5q-19 -26 -33.5 -41.5t-37.5 -21.5q-31 -10 -73.5 -19t-88 -17t-89 -15.5t-76.5 -13.5q-11 -3 -20 -0.5t-11 10t6.5 20t32.5 28.5q25 15 64.5 34t84.5 41t91.5 45t85.5 45.5 t65.5 42t32.5 35.5q10 25 2.5 61.5t-32.5 72t-66.5 65t-100.5 40.5q-6 1 -3.5 24t10.5 57t19.5 72.5t23.5 71.5t23 54t17 19z" arabic-form="isolated" horiz-adv-x="665" unicode="د"/><glyph d="M651 809q-2 -35 -8 -70t-11 -70q-6 -42 -9 -86t4 -84q9 -64 45 -102t105 -38q2 0 7 -3q15 -8 20 -46t-4 -90q-8 -48 -23.5 -84t-32.5 -49q-7 -5 -13 -5q-50 0 -86 23t-60 60t-36.5 83t-15.5 93q-20 -59 -41 -110.5t-41 -91.5q-10 -21 -22 -39.5t-35 -24.5 q-12 -6 -36 -12.5t-55 -13.5t-65.5 -13t-66.5 -12t-58 -10.5t-41 -7.5q-4 0 -11 -1.5t-14.5 -2.5t-14 -1.5t-9.5 0.5q-18 3 -20.5 18.5t30.5 35.5q32 20 73 46t85.5 57t90 66t86 73.5t73 79t52.5 82.5q26 57 50 142.5t50 192.5q7 31 18 44.5t20 13.5t15 -11.5t5 -31.5z" arabic-form="final" horiz-adv-x="779" unicode="د"/><glyph d="M358 840q96 -28 146.5 -86t65.5 -131.5t1 -155.5t-45 -158q-20 -47 -44.5 -93.5t-50.5 -85.5q-19 -26 -33.5 -41.5t-37.5 -21.5q-31 -10 -73.5 -19t-88 -17t-89 -15.5t-76.5 -13.5q-11 -3 -20 -0.5t-11 10t6.5 20t32.5 28.5q25 15 64.5 34t84.5 41t91.5 45t85.5 45.5 t65.5 42t32.5 35.5q10 25 2.5 61.5t-32.5 72t-66.5 65t-100.5 40.5q-6 1 -3.5 24t10.5 57t19.5 72.5t23.5 71.5t23 54t17 19zM358 1041q-13 -2 -39 15t-53 40t-47.5 46t-21.5 34q-1 7 11 19q12 15 27.5 34t32 38t32.5 37.5t29 33.5q11 9 19 5q3 -2 10 -10.5t22.5 -24 t42.5 -37.5t69 -51q13 -8 17 -11.5t-4 -17.5q-6 -11 -25.5 -35t-42.5 -49t-45 -45t-34 -21z" arabic-form="isolated" horiz-adv-x="665" unicode="ذ"/><glyph d="M651 809q-2 -35 -8 -70t-11 -70q-6 -42 -9 -86t4 -84q9 -64 45 -102t105 -38q2 0 7 -3q15 -8 20 -46t-4 -90q-8 -48 -23.5 -84t-32.5 -49q-7 -5 -13 -5q-50 0 -86 23t-60 60t-36.5 83t-15.5 93q-20 -59 -41 -110.5t-41 -91.5q-10 -21 -22 -39.5t-35 -24.5 q-12 -6 -36 -12.5t-55 -13.5t-65.5 -13t-66.5 -12t-58 -10.5t-41 -7.5q-4 0 -11 -1.5t-14.5 -2.5t-14 -1.5t-9.5 0.5q-18 3 -20.5 18.5t30.5 35.5q32 20 73 46t85.5 57t90 66t86 73.5t73 79t52.5 82.5q26 57 50 142.5t50 192.5q7 31 18 44.5t20 13.5t15 -11.5t5 -31.5z M625 1082q-13 -2 -39 15t-53 40t-47.5 46t-21.5 34q-1 7 11 19q12 15 27.5 34t32 38t32.5 37.5t29 33.5q11 9 19 5q3 -2 10 -10.5t22.5 -24t42.5 -37.5t69 -51q13 -8 17 -11.5t-4 -17.5q-6 -11 -25.5 -35t-42.5 -49t-45 -45t-34 -21z" arabic-form="final" horiz-adv-x="779" unicode="ذ"/><glyph d="M623 791q-3 -42 -12.5 -97t-24 -115.5t-32.5 -124t-38 -123t-40.5 -113t-39.5 -93.5q-11 -22 -21 -33.5t-22 -17.5q-12 -5 -36.5 -11.5t-55 -13.5t-65.5 -13.5t-66.5 -12t-58 -10t-41.5 -7.5q-4 0 -11 -1.5t-14.5 -2.5t-14 -1.5t-9.5 -0.5q-9 2 -15 7t-6 12t7 16.5 t24 20.5q49 31 111.5 74t122.5 90t108.5 93.5t69.5 84.5q18 31 33 68.5t29 83.5t28.5 102t31.5 124q7 31 17.5 44.5t20 14t15.5 -11.5t5 -32z" arabic-form="isolated" horiz-adv-x="704" unicode="ر"/><glyph d="M498 356q-21 -61 -38.5 -111t-35.5 -86.5t-37 -60t-41 -32.5q-30 -11 -70.5 -20.5t-83.5 -17t-85 -14.5t-75 -13q-11 -2 -19.5 1.5t-10.5 11.5t4.5 18.5t26.5 22.5q33 20 75.5 46t88 57t90.5 65.5t83.5 71.5t67.5 75t42 76q4 8 9.5 0t9 -23.5t4 -34.5t-4.5 -32z" arabic-form="final" horiz-adv-x="479" unicode="ر"/><glyph d="M623 791q-3 -42 -12.5 -97t-24 -115.5t-32.5 -124t-38 -123t-40.5 -113t-39.5 -93.5q-11 -22 -21 -33.5t-22 -17.5q-12 -5 -36.5 -11.5t-55 -13.5t-65.5 -13.5t-66.5 -12t-58 -10t-41.5 -7.5q-4 0 -11 -1.5t-14.5 -2.5t-14 -1.5t-9.5 -0.5q-9 2 -15 7t-6 12t7 16.5 t24 20.5q49 31 111.5 74t122.5 90t108.5 93.5t69.5 84.5q18 31 33 68.5t29 83.5t28.5 102t31.5 124q7 31 17.5 44.5t20 14t15.5 -11.5t5 -32zM574 1014q-13 -2 -39 15t-53 40t-47.5 46t-21.5 34q-1 7 11 19q12 15 27.5 34t32 38t32.5 37.5t29 33.5q11 9 19 5q3 -2 10 -10.5 t22.5 -24t42.5 -37.5t69 -51q13 -8 17 -11.5t-4 -17.5q-6 -11 -25.5 -35t-42.5 -49t-45 -45t-34 -21z" arabic-form="isolated" horiz-adv-x="809" unicode="ز"/><glyph d="M438 1076q-13 -2 -39 15t-53 40t-47.5 46t-21.5 34q-1 7 11 19q12 15 27.5 34t32 38t32.5 37.5t29 33.5q11 9 19 5q3 -2 10 -10.5t22.5 -24t42.5 -37.5t69 -51q13 -8 17 -11.5t-4 -17.5q-6 -11 -25.5 -35t-42.5 -49t-45 -45t-34 -21zM498 356q-21 -61 -38.5 -111 t-35.5 -86.5t-37 -60t-41 -32.5q-30 -11 -70.5 -20.5t-83.5 -17t-85 -14.5t-75 -13q-11 -2 -19.5 1.5t-10.5 11.5t4.5 18.5t26.5 22.5q33 20 75.5 46t88 57t90.5 65.5t83.5 71.5t67.5 75t42 76q4 8 9.5 0t9 -23.5t4 -34.5t-4.5 -32z" arabic-form="final" horiz-adv-x="474" unicode="ز"/><glyph d="M329 829q-22 -80 -48 -154.5t-42 -150.5q-23 -104 -16.5 -201.5t47 -171.5t119.5 -116.5t202 -37.5q114 5 211 50t172 118.5t125 170.5t71 207q19 109 17 218t-8 218q-2 22 3 44t12.5 37.5t16.5 21t17 -6.5q15 -21 42.5 -34.5t61 -19t69.5 -2t67.5 17t55 38.5t32.5 62 q4 11 10.5 17t12.5 6.5t10.5 -4t3.5 -14.5q-1 -16 4 -27t14 -18.5t21 -10.5t25 -2q15 1 32 8t32.5 21.5t28.5 37.5t22 56q3 16 10 23t13.5 5.5t10.5 -10.5t0 -24q-7 -36 -19 -73t-29.5 -70t-40.5 -59.5t-51 -40.5t-61 -13t-71 22q-16 -36 -46.5 -62t-68 -41t-77.5 -19.5 t-75 3.5q-4 -121 -22 -247.5t-55 -250.5q-24 -80 -60.5 -158.5t-84 -150t-106 -132.5t-127.5 -104t-148.5 -66t-168.5 -18q-93 5 -159 40t-109 90.5t-65.5 126.5t-29.5 148.5t0 156.5t23 151q12 52 25.5 104.5t29 101.5t32 94t34.5 83q10 22 21.5 33t20 12t12 -8t-0.5 -25z" arabic-form="isolated" horiz-adv-x="1935" unicode="س"/><glyph d="M329 829q-22 -81 -48 -155.5t-42 -150.5q-15 -69 -17.5 -136t9 -126.5t39 -109.5t71.5 -85.5t106 -54t144 -15.5q114 5 211 50t171.5 118.5t124 170t69.5 204.5q18 98 18 202.5t-6 209.5q-2 22 2.5 44t12 37.5t17 20.5t17.5 -7q16 -22 43 -36t59 -18.5t65.5 -1t62.5 16 t50 34t29 52.5q4 11 10.5 15.5t12 3t9.5 -7.5t3 -15q2 -21 14 -34.5t29.5 -18t38 -0.5t40 18.5t35 38.5t22.5 60q2 17 10.5 23.5t16.5 3.5q4 -2 5.5 -7t1.5 -11t-0.5 -12.5t-1.5 -9.5q-11 -40 -27 -86t-42 -82q-10 -14 -21 -25.5t-24 -19.5q-32 -23 -70 -25.5t-84 23.5 q-19 -34 -46.5 -57.5t-60.5 -37t-69 -16.5t-72 5q-4 -135 -28 -269.5t-71 -262.5q-27 -74 -64 -146t-84 -136.5t-103.5 -119t-122.5 -92.5t-141 -57.5t-158 -14.5q-93 5 -159 40t-109.5 90t-66 126t-29 149t0 157t22.5 151q11 52 25 104.5t29.5 101t32 93t34.5 82.5 q10 23 21.5 34.5t20 12.5t12.5 -8t0 -25z" arabic-form="final" horiz-adv-x="1755" unicode="س"/><glyph d="M321 335q-20 5 -37.5 -3.5t-34 -24.5t-31 -38.5t-27.5 -45.5q-13 -22 -26.5 -47t-29.5 -49.5t-34 -47t-39.5 -40t-46.5 -28t-55 -11.5q-9 0 -15.5 11t-10 29.5t-3 44t5.5 54.5q5 28 13 53.5t17 44t19.5 29.5t20.5 11q32 -1 58.5 4t49.5 17t45 31.5t46 46.5q10 12 22 26 t25 28t25.5 25t21.5 16q22 13 42.5 16t45.5 -8q36 -18 66.5 -20.5t53.5 5.5q17 6 32.5 21t29 36.5t24.5 48.5t19 56q3 12 10.5 18t15.5 6t13.5 -5t4.5 -15q0 -8 -3 -23t-8 -39q11 -14 29.5 -14t40.5 7q19 7 33.5 24.5t25.5 40t19 48.5t14 50q3 16 12.5 23.5t18 6.5t14 -9 t1.5 -23q-6 -36 -18 -76t-30 -78t-41 -70t-51 -50.5t-61 -21t-71 18.5q-23 -36 -42.5 -60.5t-38 -39.5t-37.5 -21.5t-40 -7t-46.5 5t-56.5 13.5z" arabic-form="initial" horiz-adv-x="1058" unicode="س"/><glyph d="M220 259q-11 -31 -27 -61.5t-35.5 -59t-41.5 -53.5t-47 -43.5t-52.5 -29.5t-56.5 -12q-9 0 -16 11t-10 29.5t-2.5 44t5.5 54.5q5 28 13 53.5t17 44t19.5 29.5t19.5 11q33 0 64.5 7.5t59.5 25t51 46t40 70.5q4 10 10.5 17.5t16.5 5.5q10 -3 12.5 -16t-0.5 -31 q0 -12 11 -19.5t28.5 -10.5t38.5 -0.5t42 11.5q35 16 51 39.5t24 59.5q1 6 3 12l4 12q2 5 6.5 8t9.5 3t9 -3t6 -8q2 -6 2 -15.5t-1 -19t-2.5 -19t-3.5 -15.5q-1 -4 7 -7.5t22 -3t31.5 7t35 22.5t32.5 42.5t25 68.5q3 16 10.5 22.5t14 5t11 -10.5t0.5 -25q-10 -55 -30.5 -102 t-51 -79t-70.5 -48t-89 -10q-17 -23 -41 -41t-52.5 -27.5t-59.5 -8.5t-63 16z" arabic-form="medial" horiz-adv-x="691" unicode="س"/><glyph d="M329 829q-22 -80 -48 -154.5t-42 -150.5q-23 -104 -16.5 -201.5t47 -171.5t119.5 -116.5t202 -37.5q114 5 211 50t172 118.5t125 170.5t71 207q19 109 17 218t-8 218q-2 22 3 44t12.5 37.5t16.5 21t17 -6.5q15 -21 42.5 -34.5t61 -19t69.5 -2t67.5 17t55 38.5t32.5 62 q4 11 10.5 17t12.5 6.5t10.5 -4t3.5 -14.5q-1 -16 4 -27t14 -18.5t21 -10.5t25 -2q15 1 32 8t32.5 21.5t28.5 37.5t22 56q3 16 10 23t13.5 5.5t10.5 -10.5t0 -24q-7 -36 -19 -73t-29.5 -70t-40.5 -59.5t-51 -40.5t-61 -13t-71 22q-16 -36 -46.5 -62t-68 -41t-77.5 -19.5 t-75 3.5q-4 -121 -22 -247.5t-55 -250.5q-24 -80 -60.5 -158.5t-84 -150t-106 -132.5t-127.5 -104t-148.5 -66t-168.5 -18q-93 5 -159 40t-109 90.5t-65.5 126.5t-29.5 148.5t0 156.5t23 151q12 52 25.5 104.5t29 101.5t32 94t34.5 83q10 22 21.5 33t20 12t12 -8t-0.5 -25z M1364 1668q25 -32 63.5 -68t90.5 -62q26 28 55.5 62.5t55.5 69.5q4 5 9 4t9 -6q26 -32 63 -66t79 -54q6 -4 10.5 -6t7 -5t2 -7t-4.5 -11q-6 -11 -24 -36.5t-40 -52.5t-43 -48t-32 -23q-20 -3 -44.5 9t-48 31.5t-43 41.5t-29.5 39q-13 -17 -30.5 -38t-35 -39t-32 -30.5 t-21.5 -13.5q-20 -4 -45.5 9.5t-50 34t-44 44t-28.5 39.5q-6 11 -5 15t8 13q31 41 65 79.5t64 76.5q9 10 19 -2zM1515 1688q-13 -2 -39 15t-53 40t-47.5 46t-21.5 34q-1 7 11 19q12 15 27.5 34t32 38t32.5 37.5t29 33.5q11 9 19 5q3 -2 10 -10.5t22.5 -24t42.5 -37.5t69 -51 q13 -8 17 -11.5t-4 -17.5q-6 -11 -25.5 -35t-42.5 -49t-45 -45t-34 -21z" arabic-form="isolated" horiz-adv-x="1935" unicode="ش"/><glyph d="M329 829q-22 -81 -48 -155.5t-42 -150.5q-15 -69 -17.5 -136t9 -126.5t39 -109.5t71.5 -85.5t106 -54t144 -15.5q114 5 211 50t171.5 118.5t124 170t69.5 204.5q18 98 18 202.5t-6 209.5q-2 22 2.5 44t12 37.5t17 20.5t17.5 -7q16 -22 43 -36t59 -18.5t65.5 -1t62.5 16 t50 34t29 52.5q4 11 10.5 15.5t12 3t9.5 -7.5t3 -15q2 -21 14 -34.5t29.5 -18t38 -0.5t40 18.5t35 38.5t22.5 60q2 17 10.5 23.5t16.5 3.5q4 -2 5.5 -7t1.5 -11t-0.5 -12.5t-1.5 -9.5q-11 -40 -27 -86t-42 -82q-10 -14 -21 -25.5t-24 -19.5q-32 -23 -70 -25.5t-84 23.5 q-19 -34 -46.5 -57.5t-60.5 -37t-69 -16.5t-72 5q-4 -135 -28 -269.5t-71 -262.5q-27 -74 -64 -146t-84 -136.5t-103.5 -119t-122.5 -92.5t-141 -57.5t-158 -14.5q-93 5 -159 40t-109.5 90t-66 126t-29 149t0 157t22.5 151q11 52 25 104.5t29.5 101t32 93t34.5 82.5 q10 23 21.5 34.5t20 12.5t12.5 -8t0 -25zM1337 1599q25 -32 63.5 -68t90.5 -62q26 28 55.5 62.5t55.5 69.5q4 5 9 4t9 -6q26 -32 63 -66t79 -54q6 -4 10.5 -6t7 -5t2 -7t-4.5 -11q-6 -11 -24 -36.5t-40 -52.5t-43 -48t-32 -23q-20 -3 -44.5 9t-48 31.5t-43 41.5t-29.5 39 q-13 -17 -30.5 -38t-35 -39t-32 -30.5t-21.5 -13.5q-20 -4 -45.5 9.5t-50 34t-44 44t-28.5 39.5q-6 11 -5 15t8 13q31 41 65 79.5t64 76.5q9 10 19 -2zM1488 1599q-13 -2 -39 15t-53 40t-47.5 46t-21.5 34q-1 7 11 19q12 15 27.5 34t32 38t32.5 37.5t29 33.5q11 9 19 5 q3 -2 10 -10.5t22.5 -24t42.5 -37.5t69 -51q13 -8 17 -11.5t-4 -17.5q-6 -11 -25.5 -35t-42.5 -49t-45 -45t-34 -21z" arabic-form="final" horiz-adv-x="1755" unicode="ش"/><glyph d="M328 829q-22 -80 -48 -155t-43 -151q-15 -69 -17 -135.5t10 -126t39 -109.5t71 -85.5t106 -54t144 -15.5q114 4 211.5 49t172 119.5t124.5 171.5t70 207q20 109 18 217t-9 219q-2 22 3.5 42t14.5 33q8 13 15 15t19 -5q24 -15 59.5 -21.5t64.5 -8.5q28 28 56 62.5t56 72.5 t56.5 78.5t56.5 79.5q21 30 51 61.5t65.5 52t73.5 24t76 -23.5q29 -20 39 -54t7 -75q-6 -84 -45.5 -169t-98.5 -157q-45 -53 -100.5 -92.5t-118 -65t-129.5 -36.5t-135 -8q-6 -107 -24 -217.5t-50 -217.5q-24 -79 -60 -158t-84 -150.5t-106.5 -132.5t-127.5 -104.5t-149 -66 t-169 -17.5q-93 5 -159 40t-108.5 90.5t-65 126.5t-29 148.5t0 156.5t22.5 151q12 52 25.5 104.5t29 102t32 94t34.5 82.5q10 22 21.5 33t20 12t12.5 -8t-1 -25zM1422 1032q40 -3 92.5 5t103.5 25t95 44t68 62q23 33 24 65t-14 55t-42.5 33t-60.5 0q-34 -10 -68.5 -45 t-68.5 -79.5t-66.5 -89.5t-62.5 -75z" arabic-form="isolated" horiz-adv-x="2018" unicode="ص"/><glyph d="M329 828q-23 -79 -49 -154t-42 -151q-22 -104 -16 -201t47 -171t119.5 -116.5t201.5 -37.5q114 4 211 49t172 119t125 171t71 207q19 109 17 217.5t-8 218.5q-2 23 3 43t13 32q8 13 16 15t19 -5q25 -15 60 -21t64 -8q57 56 112.5 134.5t112.5 158.5q21 30 51.5 61 t65.5 51.5t73 24t75 -23.5q29 -20 39.5 -53.5t8.5 -75.5q-7 -83 -46 -168t-99 -157q-45 -54 -100.5 -93t-118 -64.5t-129.5 -37t-134 -8.5q-7 -107 -25 -217t-50 -218q-24 -79 -60 -158t-83.5 -150.5t-106.5 -132t-128 -104t-148.5 -66t-168.5 -17.5q-93 5 -159 40 t-109 90.5t-65.5 126.5t-29 148.5t0.5 156.5t23 151q23 106 54.5 206t66.5 176q10 23 21.5 34t20 11.5t12 -8t-0.5 -25.5zM1423 1031q40 -2 92 6t103 25t95 44t69 62q22 33 23 64.5t-14 54.5t-42 33.5t-60 0.5q-34 -11 -68.5 -46t-69 -79t-67 -89.5t-61.5 -75.5z" arabic-form="final" horiz-adv-x="1741" unicode="ص"/><glyph d="M7 277q46 0 81 10t64 30t53.5 50.5t49.5 72.5q7 12 13.5 20t13.5 11.5t14.5 2t17.5 -8.5q5 -3 14 -9t21.5 -12t30 -11.5t41.5 -9.5q28 26 56.5 61t57 74t57 80t57.5 80q20 27 46.5 53t56.5 43t63 21t65 -14t46 -49.5t14.5 -70t-10.5 -81.5t-28 -85t-37.5 -79.5 t-40.5 -65.5q-34 -48 -78 -86.5t-94 -66t-104 -43t-110 -17.5t-111.5 11t-106.5 43q-21 -41 -46.5 -82t-57 -74t-70 -54t-85.5 -21q-9 0 -15.5 11t-10 29.5t-3 44t5.5 54.5q5 28 12.5 53.5t17 44t19.5 29.5t20 11zM503 419q40 -4 86 0.5t90.5 18.5t84 38.5t64.5 58.5 q20 26 24.5 53t-3 49.5t-25 38t-40.5 19t-49.5 -7.5t-51.5 -41q-20 -23 -43 -53t-46.5 -61t-46.5 -60.5t-44 -52.5z" arabic-form="initial" horiz-adv-x="1141" unicode="ص"/><glyph d="M7 277q46 0 82 10.5t66.5 31t56.5 51.5t51 73q7 12 12 19t10.5 10t12 1.5t17.5 -8.5q5 -3 14 -8.5t20.5 -10.5t25.5 -9.5t29 -5.5q29 26 57.5 61t57 74t57 80t57.5 79q14 18 30 36t34.5 33.5t39 27.5t41.5 17.5t43 3.5t44 -14q32 -18 45.5 -49.5t14 -70t-10 -82 t-27.5 -85t-38 -79t-41 -64.5q-33 -45 -74.5 -82.5t-89 -65t-99 -43.5t-105 -19t-107.5 9t-106 42q-14 -27 -30.5 -55.5t-35.5 -55t-41 -50t-46.5 -41t-52.5 -28t-60 -10.5q-9 0 -15.5 11t-10 29.5t-3 44t5.5 54.5q5 28 13 53.5t17 44t19 29.5t20 11zM487 427q40 -4 86 0.5 t90.5 18.5t83.5 38t65 58q20 26 24 53.5t-4 50.5t-26 39.5t-41 20.5t-50 -6t-52 -40q-20 -24 -42 -54.5t-45 -62.5t-45.5 -62.5t-43.5 -53.5z" arabic-form="medial" horiz-adv-x="833" unicode="ص"/><glyph d="M328 829q-22 -80 -48 -155t-43 -151q-15 -69 -17 -135.5t10 -126t39 -109.5t71 -85.5t106 -54t144 -15.5q114 4 211.5 49t172 119.5t124.5 171.5t70 207q20 109 18 217t-9 219q-2 22 3.5 42t14.5 33q8 13 15 15t19 -5q24 -15 59.5 -21.5t64.5 -8.5q28 28 56 62.5t56 72.5 t56.5 78.5t56.5 79.5q21 30 51 61.5t65.5 52t73.5 24t76 -23.5q29 -20 39 -54t7 -75q-6 -84 -45.5 -169t-98.5 -157q-45 -53 -100.5 -92.5t-118 -65t-129.5 -36.5t-135 -8q-6 -107 -24 -217.5t-50 -217.5q-24 -79 -60 -158t-84 -150.5t-106.5 -132.5t-127.5 -104.5t-149 -66 t-169 -17.5q-93 5 -159 40t-108.5 90.5t-65 126.5t-29 148.5t0 156.5t22.5 151q12 52 25.5 104.5t29 102t32 94t34.5 82.5q10 22 21.5 33t20 12t12.5 -8t-1 -25zM1422 1032q40 -3 92.5 5t103.5 25t95 44t68 62q23 33 24 65t-14 55t-42.5 33t-60.5 0q-34 -10 -68.5 -45 t-68.5 -79.5t-66.5 -89.5t-62.5 -75zM1733 1624q-13 -2 -39 15t-53 40t-47.5 46t-21.5 34q-1 7 11 19q12 15 27.5 34t32 38t32.5 37.5t29 33.5q11 9 19 5q3 -2 10 -10.5t22.5 -24t42.5 -37.5t69 -51q13 -8 17 -11.5t-4 -17.5q-6 -11 -25.5 -35t-42.5 -49t-45 -45t-34 -21z" arabic-form="isolated" horiz-adv-x="2018" unicode="ض"/><glyph d="M329 828q-23 -79 -49 -154t-42 -151q-22 -104 -16 -201t47 -171t119.5 -116.5t201.5 -37.5q114 4 211 49t172 119t125 171t71 207q19 109 17 217.5t-8 218.5q-2 23 3 43t13 32q8 13 16 15t19 -5q25 -15 60 -21t64 -8q57 56 112.5 134.5t112.5 158.5q21 30 51.5 61 t65.5 51.5t73 24t75 -23.5q29 -20 39.5 -53.5t8.5 -75.5q-7 -83 -46 -168t-99 -157q-45 -54 -100.5 -93t-118 -64.5t-129.5 -37t-134 -8.5q-7 -107 -25 -217t-50 -218q-24 -79 -60 -158t-83.5 -150.5t-106.5 -132t-128 -104t-148.5 -66t-168.5 -17.5q-93 5 -159 40 t-109 90.5t-65.5 126.5t-29 148.5t0.5 156.5t23 151q23 106 54.5 206t66.5 176q10 23 21.5 34t20 11.5t12 -8t-0.5 -25.5zM1423 1031q40 -2 92 6t103 25t95 44t69 62q22 33 23 64.5t-14 54.5t-42 33.5t-60 0.5q-34 -11 -68.5 -46t-69 -79t-67 -89.5t-61.5 -75.5zM1710 1621 q-13 -2 -39 15t-53 40t-47.5 46t-21.5 34q-1 7 11 19q12 15 27.5 34t32 38t32.5 37.5t29 33.5q11 9 19 5q3 -2 10 -10.5t22.5 -24t42.5 -37.5t69 -51q13 -8 17 -11.5t-4 -17.5q-6 -11 -25.5 -35t-42.5 -49t-45 -45t-34 -21z" arabic-form="final" horiz-adv-x="1746" unicode="ض"/><glyph d="M549 1289q-12 -86 -15 -158.5t-1.5 -138t4.5 -126.5t2 -125q-1 -80 -15.5 -156.5t-31.5 -154.5q26 34 60.5 75t74.5 76t85.5 56.5t93.5 15.5t80.5 -31t47.5 -62q18 -45 9.5 -98t-35.5 -107q-25 -51 -62.5 -100t-80.5 -89t-86.5 -68.5t-80.5 -38.5q-43 -12 -86 -21 t-95 -16.5t-115.5 -13t-147.5 -8.5q-15 -1 -22 7.5t-6.5 20.5t9 24.5t26.5 19.5q7 4 17 8t21 8t21.5 9t18.5 11q31 26 63.5 64.5t59.5 84.5t45.5 95.5t20.5 96.5q2 49 2.5 104.5t-1 111t-4 108t-5 96t-4.5 75t-2 45.5q0 26 12.5 69.5t29.5 90t33.5 88.5t22.5 65 q3 11 10 16.5t14 4t11 -9.5t2 -24zM347 125q34 6 78.5 17t93 27t97 38t90 48.5t72.5 58t44 68.5q14 37 1 66t-41.5 42.5t-68 8.5t-78.5 -35t-76.5 -72.5t-74 -89t-71 -93t-66.5 -84.5z" arabic-form="isolated" horiz-adv-x="1077" unicode="ط"/><glyph d="M549 1289q-12 -86 -14.5 -158.5t-1 -138t4 -126.5t2.5 -125q-2 -80 -16 -157t-31 -155q24 40 58.5 83t76 77.5t88 55t95.5 14.5q48 -6 80.5 -31t47.5 -63q18 -44 7 -100.5t-37 -110.5q-26 -51 -63.5 -99.5t-80 -88.5t-86.5 -68.5t-81 -38.5q-43 -12 -86 -21.5 t-94.5 -16.5t-115 -12.5t-147.5 -8.5q-15 -2 -22.5 6.5t-7 20.5t9 24.5t26.5 19.5q7 4 17.5 8t21.5 8.5t21.5 9.5t17.5 11q31 25 63.5 64t60 84.5t45.5 95t21 96.5q2 49 2 105t-1.5 111.5t-4 108t-4.5 96t-4 75t-2 45.5q-1 17 5 42.5t15.5 55t21.5 61.5t23 61t20 53t13 39 q3 11 10 16.5t13.5 4t10.5 -9.5t2 -23zM347 124q34 6 79 17t93.5 27t97 38t90 48.5t72.5 58t44 68.5q13 38 0.5 67t-41 42.5t-68 8.5t-78.5 -35t-76.5 -72.5t-74 -89.5t-71.5 -93.5t-67 -84.5z" arabic-form="final" horiz-adv-x="738" unicode="ط"/><glyph d="M583 517q-17 -58 -48 -118.5t-74 -118t-97.5 -108.5t-117.5 -89t-135 -60.5t-151 -22.5q-10 0 -16.5 11t-9.5 29.5t-2.5 44t5.5 53.5q4 27 11 50.5t15.5 41.5t17.5 30t18 15q13 23 27.5 43t27 44.5t22 58t12.5 85.5q3 49 4.5 105.5t2 114t0 112.5t-1.5 100.5t-2 78.5 t-1 48q0 10 4.5 31.5t12 48.5t16.5 57.5t18 59t16.5 52t11.5 37.5q5 16 12.5 24.5t14 6t10.5 -17t2 -42.5q-8 -75 -9 -153t-0.5 -154.5t1 -150.5t-4.5 -140q-3 -29 -8 -55.5t-11.5 -53t-15 -55.5t-17.5 -63q17 19 38 44t45.5 50.5t52 49t57.5 39.5q37 20 72.5 27t66 2.5 t55 -19.5t39.5 -40t19 -58.5t-5 -74.5zM55 271q26 -2 59 0.5t69 9t72.5 16t70 22t61.5 27.5t46 32q23 21 32 42.5t7 41t-13.5 36.5t-29 28.5t-40 16.5t-47.5 2q-25 -4 -52 -20.5t-54 -40t-53.5 -52.5t-50 -58t-43.5 -56t-34 -47z" arabic-form="initial" horiz-adv-x="792" unicode="ط"/><glyph d="M584 517q-17 -58 -48 -118.5t-74 -118t-97.5 -108.5t-118 -89t-135 -60.5t-150.5 -22.5q-9 0 -15.5 11t-10 29.5t-3 44t5.5 53.5q4 27 11.5 50.5t15.5 41.5t17 30t18 15q14 23 28 43t26.5 44.5t22 58t12.5 85.5q3 49 4.5 105.5t2 114t0 112.5t-1.5 100.5t-1.5 78.5 t-0.5 48q-1 10 3.5 31.5t12 48.5t16.5 57.5t18 59t16.5 52t11.5 37.5q5 16 12.5 24.5t14.5 6t10.5 -17t1.5 -42.5q-7 -75 -8.5 -153t-0.5 -154.5t1 -150.5t-5 -140q-3 -29 -7.5 -55.5t-11.5 -53t-15 -55.5t-17 -63q17 19 37.5 44t45 50.5t52 49t57.5 39.5q38 20 73 27 t65.5 2.5t55 -19.5t39.5 -40t19 -58.5t-5 -74.5zM57 271q25 -2 58 0.5t69 9t72.5 16t70 22t61.5 27.5t47 32q22 21 31 42.5t7 41t-13 36.5t-28.5 28.5t-40.5 16.5t-48 2q-25 -4 -51.5 -20.5t-54 -40t-53.5 -52.5t-49.5 -58t-43.5 -56t-34 -47z" arabic-form="medial" horiz-adv-x="428" unicode="ط"/><glyph d="M867 921q-13 -2 -39 15t-53 40t-47.5 46t-21.5 34q-1 7 11 19q12 15 27.5 34t32 38t32.5 37.5t29 33.5q11 9 19 5q3 -2 10 -10.5t22.5 -24t42.5 -37.5t69 -51q13 -8 17 -11.5t-4 -17.5q-6 -11 -25.5 -35t-42.5 -49t-45 -45t-34 -21zM549 1289q-12 -86 -15 -158.5 t-1.5 -138t4.5 -126.5t2 -125q-1 -80 -15.5 -156.5t-31.5 -154.5q26 34 60.5 75t74.5 76t85.5 56.5t93.5 15.5t80.5 -31t47.5 -62q18 -45 9.5 -98t-35.5 -107q-25 -51 -62.5 -100t-80.5 -89t-86.5 -68.5t-80.5 -38.5q-43 -12 -86 -21t-95 -16.5t-115.5 -13t-147.5 -8.5 q-15 -1 -22 7.5t-6.5 20.5t9 24.5t26.5 19.5q7 4 17 8t21 8t21.5 9t18.5 11q31 26 63.5 64.5t59.5 84.5t45.5 95.5t20.5 96.5q2 49 2.5 104.5t-1 111t-4 108t-5 96t-4.5 75t-2 45.5q0 26 12.5 69.5t29.5 90t33.5 88.5t22.5 65q3 11 10 16.5t14 4t11 -9.5t2 -24zM347 125 q34 6 78.5 17t93 27t97 38t90 48.5t72.5 58t44 68.5q14 37 1 66t-41.5 42.5t-68 8.5t-78.5 -35t-76.5 -72.5t-74 -89t-71 -93t-66.5 -84.5z" arabic-form="isolated" horiz-adv-x="1147" unicode="ظ"/><glyph d="M844 949q-13 -2 -39 15t-53 40t-47.5 46t-21.5 34q-1 7 11 19q12 15 27.5 34t32 38t32.5 37.5t29 33.5q11 9 19 5q3 -2 10 -10.5t22.5 -24t42.5 -37.5t69 -51q13 -8 17 -11.5t-4 -17.5q-6 -11 -25.5 -35t-42.5 -49t-45 -45t-34 -21zM549 1289q-12 -86 -14.5 -158.5 t-1 -138t4 -126.5t2.5 -125q-2 -80 -16 -157t-31 -155q24 40 58.5 83t76 77.5t88 55t95.5 14.5q48 -6 80.5 -31t47.5 -63q18 -44 7 -100.5t-37 -110.5q-26 -51 -63.5 -99.5t-80 -88.5t-86.5 -68.5t-81 -38.5q-43 -12 -86 -21.5t-94.5 -16.5t-115 -12.5t-147.5 -8.5 q-15 -2 -22.5 6.5t-7 20.5t9 24.5t26.5 19.5q7 4 17.5 8t21.5 8.5t21.5 9.5t17.5 11q31 25 63.5 64t60 84.5t45.5 95t21 96.5q2 49 2 105t-1.5 111.5t-4 108t-4.5 96t-4 75t-2 45.5q-1 17 5 42.5t15.5 55t21.5 61.5t23 61t20 53t13 39q3 11 10 16.5t13.5 4t10.5 -9.5t2 -23z M347 124q34 6 79 17t93.5 27t97 38t90 48.5t72.5 58t44 68.5q13 38 0.5 67t-41 42.5t-68 8.5t-78.5 -35t-76.5 -72.5t-74 -89.5t-71.5 -93.5t-67 -84.5z" arabic-form="final" horiz-adv-x="780" unicode="ظ"/><glyph d="M374 937q-18 7 -37 16.5t-36 21t-31.5 23.5t-24.5 25q-28 38 -23.5 75.5t27.5 75.5q21 35 45 76.5t50.5 83t54.5 79.5t57 65q29 33 73 48.5t87 2.5q21 -7 39.5 -22.5t26.5 -36.5q6 -13 2 -32.5t-15.5 -34.5t-30 -20t-43.5 11q-26 17 -46.5 21.5t-42.5 1.5 q-23 -3 -44.5 -18t-37.5 -36t-24 -45t-2 -46q4 -19 17 -35t31 -28t39.5 -20t44.5 -12q34 -6 66.5 -1t65.5 20.5t68 41t76 59.5q7 6 16 6t15 -5t7 -14t-7 -21q-42 -47 -89 -95.5t-99 -96.5q-66 -61 -132.5 -125t-122.5 -133.5t-97.5 -146.5t-57.5 -165q-11 -57 -10.5 -115.5 t12.5 -113t37 -102.5t63 -85.5t90.5 -61.5t120.5 -29q86 -7 163.5 10t145.5 53t126.5 87t106.5 112t84.5 129t60.5 137q4 16 14 23.5t19 6t14 -12t1 -31.5q-25 -90 -63 -184.5t-90 -184.5t-117.5 -169t-144.5 -136.5t-172 -88.5t-199 -24q-81 5 -142 32.5t-104.5 72 t-70.5 102t-41 123.5t-16 137t5 141q7 74 28 157t52.5 164t72.5 155.5t89 131.5z" arabic-form="isolated" horiz-adv-x="1416" unicode="ع"/><glyph d="M517 963q-104 -90 -176 -197.5t-98 -244.5q-17 -88 -8 -177t47.5 -162.5t107.5 -122.5t173 -58q88 -7 164 10.5t141.5 53.5t120.5 88.5t99.5 114.5t78.5 131t59 140q4 16 14.5 24t19.5 6t14.5 -13t0.5 -32q-25 -91 -61 -188.5t-84.5 -189t-110.5 -172t-138.5 -139 t-168.5 -90t-201 -24.5q-83 5 -145 33t-106.5 73.5t-72.5 105t-42.5 127.5t-17 140.5t5.5 144.5q21 207 105 384t230 323q-16 28 -35 53t-42.5 42.5t-53.5 24.5t-68 -1q-14 -3 -25.5 -1t-17.5 8.5t-5 17t12 24.5q43 51 92.5 82t100 46t99.5 16.5t90 -5.5t71.5 -20t45.5 -27 q23 -23 24 -51.5t-12 -60.5q-21 -47 -60 -87.5t-77 -73.5q-23 -20 -45 -38t-45 -38z" arabic-form="final" horiz-adv-x="516" unicode="ع"/><glyph d="M-1 275q6 28 13.5 64.5t17 77t21.5 83t27.5 82t34.5 73t42 56.5q22 22 48.5 33t52.5 12.5t51 -5.5t44.5 -21.5t31 -35t12.5 -45.5q0 -13 -4.5 -23t-12.5 -14.5t-19 -3t-23 9.5q-37 24 -74 26t-68 -13.5t-53 -47t-28 -74.5q-4 -28 3 -51.5t22 -41.5t37 -30t46.5 -17 t50.5 -1.5t50 15.5t45 34.5t35 55.5q5 11 14 13.5t16 -1.5t10.5 -13.5t-0.5 -23.5q-17 -58 -44 -113.5t-62 -105.5t-77 -92t-90 -72.5t-100.5 -48t-107.5 -16.5q-10 0 -16.5 10.5t-10 29.5t-3 44t5.5 54q4 26 11 49.5t15.5 42t17.5 30.5t18 15z" arabic-form="initial" horiz-adv-x="646" unicode="ع"/><glyph d="M412 335q-27 -35 -57.5 -73t-64.5 -75.5t-72 -71t-79.5 -59t-86.5 -41t-93 -15.5q-9 0 -15.5 11t-10 29.5t-3 44t5.5 54.5q5 28 13 53.5t17 44t19 29.5t20 11q4 0 19.5 -1t38.5 0t52.5 5.5t61 15t64 28.5t62.5 46q-15 17 -29 36.5t-29 38.5t-31.5 36t-36.5 28.5t-45 15.5 t-57 -1q-14 -3 -25.5 -1.5t-17 8t-4 17t11.5 25.5q43 51 92.5 81.5t100 45.5t99 16.5t90 -5t72 -19.5t45.5 -27q13 -12 19 -27t6.5 -31.5t-3.5 -34t-12 -34.5q-7 -17 -20.5 -39t-31 -48t-39.5 -55.5t-46 -61.5z" arabic-form="medial" horiz-adv-x="391" unicode="ع"/><glyph d="M559 1767q-13 -2 -39 15t-53 40t-47.5 46t-21.5 34q-1 7 11 19q12 15 27.5 34t32 38t32.5 37.5t29 33.5q11 9 19 5q3 -2 10 -10.5t22.5 -24t42.5 -37.5t69 -51q13 -8 17 -11.5t-4 -17.5q-6 -11 -25.5 -35t-42.5 -49t-45 -45t-34 -21zM374 937q-18 7 -37 16.5t-36 21 t-31.5 23.5t-24.5 25q-28 38 -23.5 75.5t27.5 75.5q21 35 45 76.5t50.5 83t54.5 79.5t57 65q29 33 73 48.5t87 2.5q21 -7 39.5 -22.5t26.5 -36.5q6 -13 2 -32.5t-15.5 -34.5t-30 -20t-43.5 11q-26 17 -46.5 21.5t-42.5 1.5q-23 -3 -44.5 -18t-37.5 -36t-24 -45t-2 -46 q4 -19 17 -35t31 -28t39.5 -20t44.5 -12q34 -6 66.5 -1t65.5 20.5t68 41t76 59.5q7 6 16 6t15 -5t7 -14t-7 -21q-42 -47 -89 -95.5t-99 -96.5q-66 -61 -132.5 -125t-122.5 -133.5t-97.5 -146.5t-57.5 -165q-11 -57 -10.5 -115.5t12.5 -113t37 -102.5t63 -85.5t90.5 -61.5 t120.5 -29q86 -7 163.5 10t145.5 53t126.5 87t106.5 112t84.5 129t60.5 137q4 16 14 23.5t19 6t14 -12t1 -31.5q-25 -90 -63 -184.5t-90 -184.5t-117.5 -169t-144.5 -136.5t-172 -88.5t-199 -24q-81 5 -142 32.5t-104.5 72t-70.5 102t-41 123.5t-16 137t5 141q7 74 28 157 t52.5 164t72.5 155.5t89 131.5z" arabic-form="isolated" horiz-adv-x="1416" unicode="غ"/><glyph d="M517 963q-104 -90 -176 -197.5t-98 -244.5q-17 -88 -8 -177t47.5 -162.5t107.5 -122.5t173 -58q88 -7 164 10.5t141.5 53.5t120.5 88.5t99.5 114.5t78.5 131t59 140q4 16 14.5 24t19.5 6t14.5 -13t0.5 -32q-25 -91 -61 -188.5t-84.5 -189t-110.5 -172t-138.5 -139 t-168.5 -90t-201 -24.5q-83 5 -145 33t-106.5 73.5t-72.5 105t-42.5 127.5t-17 140.5t5.5 144.5q21 207 105 384t230 323q-16 28 -35 53t-42.5 42.5t-53.5 24.5t-68 -1q-14 -3 -25.5 -1t-17.5 8.5t-5 17t12 24.5q43 51 92.5 82t100 46t99.5 16.5t90 -5.5t71.5 -20t45.5 -27 q23 -23 24 -51.5t-12 -60.5q-21 -47 -60 -87.5t-77 -73.5q-23 -20 -45 -38t-45 -38zM490 1565q-13 -2 -39 15t-53 40t-47.5 46t-21.5 34q-1 7 11 19q12 15 27.5 34t32 38t32.5 37.5t29 33.5q11 9 19 5q3 -2 10 -10.5t22.5 -24t42.5 -37.5t69 -51q13 -8 17 -11.5t-4 -17.5 q-6 -11 -25.5 -35t-42.5 -49t-45 -45t-34 -21z" arabic-form="final" horiz-adv-x="516" unicode="غ"/><glyph d="M1556 1222q-13 -2 -39 15t-53 40t-47.5 46t-21.5 34q-1 7 11 19q12 15 27.5 34t32 38t32.5 37.5t29 33.5q11 9 19 5q3 -2 10 -10.5t22.5 -24t42.5 -37.5t69 -51q13 -8 17 -11.5t-4 -17.5q-6 -11 -25.5 -35t-42.5 -49t-45 -45t-34 -21zM214 383q11 -20 34.5 -36t56 -28.5 t73 -21.5t85.5 -15q50 -7 114 -11.5t137 -6t152 0t158.5 6.5t156.5 13.5t146 21.5q25 5 59.5 12.5t71.5 19t73 27t64.5 36t46 47t17.5 59.5q-3 14 -10.5 24t-17.5 15t-21.5 6.5t-21.5 -1.5q-26 -6 -59 -8t-63.5 7t-52.5 32t-24 68q-2 42 7.5 79.5t19.5 78.5q7 27 15.5 55 t23 50.5t37 35.5t57.5 10q29 -3 53 -20t43.5 -43t34.5 -58t25 -65.5t15 -64.5t6 -55q1 -60 -8 -120t-29.5 -116t-53 -106t-77.5 -92q-51 -47 -123 -81.5t-155 -59t-173.5 -40t-179 -24.5t-170 -12t-147.5 -2q-28 0 -68 1.5t-84.5 6t-91 13t-87.5 22t-74 32.5t-50 46 q-18 29 -24 66.5t-6 86.5q0 56 9.5 131t21.5 147q3 15 9 25.5t20 9.5q8 -1 12 -16.5t3 -32.5q-3 -55 -1.5 -92t15.5 -63z" arabic-form="isolated" horiz-adv-x="1852" unicode="ف"/><glyph d="M1553 1036q-13 -2 -39 15t-53 40t-47.5 46t-21.5 34q-1 7 11 19q12 15 27.5 34t32 38t32.5 37.5t29 33.5q11 9 19 5q3 -2 10 -10.5t22.5 -24t42.5 -37.5t69 -51q13 -8 17 -11.5t-4 -17.5q-6 -11 -25.5 -35t-42.5 -49t-45 -45t-34 -21zM1577 410q18 8 41.5 25.5t44.5 39.5 t35.5 45t14.5 42q1 25 -8.5 48t-25.5 40t-38 27t-46 9q-21 -1 -41 -10t-36 -24t-26 -33t-13 -37q-4 -25 -0.5 -50.5t15.5 -48.5t32.5 -42t50.5 -31zM261 49q-48 19 -76.5 44t-42 57t-15.5 71.5t1 88.5q5 71 11 136.5t14 110.5q2 15 8.5 25.5t20.5 9.5q8 -1 12 -16.5t3 -32.5 q-3 -56 -1 -92.5t15 -63.5q16 -32 60.5 -54t107.5 -37q66 -15 160.5 -24t202.5 -11.5t221 2.5t216 19q78 11 151.5 28.5t125.5 38.5q-17 23 -26.5 52t-13.5 60t-2 62.5t9 58.5q11 44 33 91.5t53.5 85t72 58t88.5 10.5q42 -9 65.5 -35.5t34 -62t10 -75.5t-6.5 -76 q-9 -56 -29.5 -108.5t-50.5 -96.5q-75 -109 -196.5 -180.5t-270.5 -114.5q-57 -16 -134.5 -31t-165.5 -26t-181 -16.5t-181 -3.5t-166.5 13.5t-136.5 34.5z" arabic-form="final" horiz-adv-x="1687" unicode="ف"/><glyph d="M378 757q9 -40 12.5 -79t2.5 -77t-6 -74.5t-12 -71.5q-10 -49 -31 -101.5t-51 -103t-67.5 -96t-80 -79.5t-89.5 -54.5t-96 -20.5q-9 0 -15.5 11t-10 29.5t-3 44t5.5 54.5q4 28 12 53.5t17 44t19.5 29.5t19.5 11q23 0 46.5 1.5t48.5 6.5q22 4 48.5 13.5t52.5 24t50 32.5 t41 40t26 46.5t5 51.5q-3 12 -11.5 16.5t-20.5 4.5t-25.5 -3t-25.5 -6q-20 -4 -41.5 -5.5t-43 1t-40.5 9.5t-33.5 19.5t-24 31t-10.5 43.5q-1 17 3 42.5t10 53t12.5 54.5t10.5 46q5 21 11 42.5t13.5 40t18 33.5t25.5 24t35.5 11t48.5 -6q26 -7 48.5 -25t41 -43.5t32.5 -56 t21 -63.5z" arabic-form="initial" horiz-adv-x="594" unicode="ف"/><glyph d="M284 352q20 5 43 18.5t43 31t33.5 37.5t14.5 40q0 27 -9.5 50.5t-26.5 40t-40 25t-48 6t-50.5 -17t-47.5 -44.5q-12 -28 -12 -56.5t11 -53.5t33.5 -45t55.5 -32zM6 277q33 -2 71 2.5t73 18.5q-16 26 -23 58.5t-6.5 68t8 72t20 71t30 64.5t38.5 52q24 27 52.5 41.5 t57.5 17t56 -5.5t49 -26t36 -45.5t17 -63.5q6 -58 -11.5 -120t-48.5 -122q-21 -40 -49.5 -82t-63 -82t-75 -75.5t-85 -62.5t-93 -42.5t-99.5 -15.5q-10 0 -16.5 11t-9.5 29.5t-2.5 44t5.5 54.5q5 28 12.5 53.5t17 44t20 29.5t19.5 11z" arabic-form="medial" horiz-adv-x="408" unicode="ف"/><glyph d="M298 785q-18 -70 -37.5 -133.5t-32 -127.5t-13.5 -130t18 -140q17 -66 48 -113.5t73 -78.5t92 -47t105 -18q93 -4 175 18.5t150.5 65.5t124 103.5t97.5 133.5t69 154.5t39 166.5q4 37 0.5 59t-13 33t-23.5 13t-29 -1q-26 -6 -60.5 -8.5t-65.5 6t-53.5 32.5t-24.5 70 q-2 42 10 89t22 89q7 27 14 60t20 60.5t34.5 44.5t56.5 13q34 -3 62 -27t51 -59q47 -73 61 -156.5t12 -175.5q-3 -111 -25 -233t-63.5 -240t-103.5 -225.5t-145 -188.5t-188.5 -128t-233.5 -46q-97 5 -166.5 38t-116 86.5t-71.5 124.5t-33.5 151.5t-2 167t23 171.5t42 164.5 t54.5 146.5q10 24 20 35.5t17.5 12.5t10.5 -7.5t-1 -25.5zM764 1706q25 -32 63.5 -68t90.5 -62q26 28 55.5 62.5t55.5 69.5q4 5 9 4t9 -6q26 -32 63 -66t79 -54q6 -4 10.5 -6t7 -5t2 -7t-4.5 -11q-6 -11 -24 -36.5t-40 -52.5t-43 -48t-32 -23q-20 -3 -44.5 9t-48 31.5 t-43 41.5t-29.5 39q-13 -17 -30.5 -38t-35 -39t-32 -30.5t-21.5 -13.5q-20 -4 -45.5 9.5t-50 34t-44 44t-28.5 39.5q-6 11 -5 15t8 13q31 41 65 79.5t64 76.5q9 10 19 -2z" arabic-form="isolated" horiz-adv-x="1407" unicode="ق"/><glyph d="M298 785q-18 -70 -37.5 -133.5t-32 -127.5t-13.5 -130t18 -140q17 -66 48 -113.5t72.5 -78.5t92 -46.5t105.5 -18.5q93 -4 175 18.5t150.5 65.5t124 103.5t97.5 133.5t69 154.5t39 166.5q4 37 0.5 59t-13 33t-23.5 13t-29 -1q-26 -6 -60.5 -8.5t-65.5 6t-53.5 32.5 t-24.5 70q-2 43 10 89.5t22 88.5q7 27 14 59.5t20 60t34.5 45t56.5 14.5q34 -4 62 -27.5t51 -58.5q47 -74 61 -157.5t12 -175.5q-3 -111 -25 -233t-63.5 -240t-103.5 -225.5t-145 -188.5t-188.5 -128t-233.5 -46q-97 5 -166.5 38t-116 86.5t-71.5 124.5t-33.5 151.5t-2 167 t23 171.5t42 164.5t54.5 146.5q10 24 20 35.5t17.5 12.5t10.5 -7.5t-1 -25.5zM768 1696q25 -32 63.5 -68t90.5 -62q26 28 55.5 62.5t55.5 69.5q4 5 9 4t9 -6q26 -32 63 -66t79 -54q6 -4 10.5 -6t7 -5t2 -7t-4.5 -11q-6 -11 -24 -36.5t-40 -52.5t-43 -48t-32 -23 q-20 -3 -44.5 9t-48 31.5t-43 41.5t-29.5 39q-13 -17 -30.5 -38t-35 -39t-32 -30.5t-21.5 -13.5q-20 -4 -45.5 9.5t-50 34t-44 44t-28.5 39.5q-6 11 -5 15t8 13q31 41 65 79.5t64 76.5q9 10 19 -2z" arabic-form="final" horiz-adv-x="1280" unicode="ق"/><glyph d="M1450 474q-24 -46 -60.5 -77t-82.5 -52t-99.5 -33t-111.5 -21q-52 -8 -125.5 -13t-157.5 -6t-172 3t-167 14.5t-144.5 28t-103.5 44.5q-17 12 -23 31.5t-7 43.5t1.5 51t4.5 54q1 17 -2.5 33t-13.5 18q-14 1 -20 -10t-9 -26q-13 -74 -22.5 -146t-9.5 -129q0 -45 6 -82.5 t22 -66.5t43.5 -51t70.5 -37q66 -18 146.5 -28.5t167 -14.5t175.5 -0.5t173.5 14.5t160 29.5t134.5 45.5q47 21 88 56.5t75.5 82t61.5 101.5t46 117q29 76 41.5 161t17 174.5t6 182.5t8.5 186q40 60 106.5 118.5t144.5 121.5t161.5 132.5t158.5 149.5q18 21 37 54t36.5 68 t31.5 68t23 56q3 6 1 11.5t-6.5 8t-10 1.5t-9.5 -7q-39 -56 -91.5 -109t-112 -104.5t-123 -102t-123 -99.5t-112 -97.5t-90.5 -96.5q-11 -15 -23.5 -38t-24 -48t-21 -49t-14.5 -41l-16 -44t-14 -42t-10 -36t-4 -26q2 -127 1.5 -263t-14.5 -264z" arabic-form="isolated" horiz-adv-x="1870" unicode="ك"/><glyph d="M1649 1101q-7 -24 -11 -75t-6.5 -117t-2.5 -139.5t2 -142t6 -124.5t11 -87q6 -30 17 -56.5t29.5 -46t45.5 -31t64 -11.5q3 0 7 -2q15 -8 19.5 -45t-3.5 -88q-8 -47 -23 -82.5t-31 -47.5q-6 -5 -13 -6q-48 0 -82 24t-57 62.5t-36 87t-19 98.5t-7 96t0 80 q-45 -137 -148 -231.5t-261 -145.5q-54 -17 -128 -31t-157.5 -22.5t-171 -12t-169 -1t-151.5 11.5t-118 26q-49 16 -76.5 41.5t-39.5 58.5t-13 74t2 90q5 71 11 136.5t14 110.5q3 15 9 25.5t20 9.5q8 -1 12 -16.5t3 -32.5q-1 -15 -1.5 -34t-0.5 -38.5t2.5 -39t7.5 -36.5 q7 -23 27.5 -41t51.5 -31.5t69 -23t80 -15.5q52 -8 127.5 -13.5t162.5 -5t181.5 8t185 24.5t172.5 45.5t145 70.5t101 98.5t42 131.5q0 28 1.5 65t2.5 74.5t2 72.5t1 61t4 60t11.5 69t17.5 67.5t22 55.5t30 49.5t47 58.5q28 31 76 69t107 81.5t125.5 91.5t132 100t127 106.5 t110.5 110.5q5 6 10.5 6.5t9.5 -2.5t6 -8.5t-1 -11.5q-11 -21 -27 -52t-35.5 -64t-40 -64t-39.5 -50q-16 -15 -49.5 -42t-77.5 -61.5t-95 -73.5t-102.5 -78.5t-100 -77t-86.5 -68t-62 -53t-28 -31.5z" arabic-form="final" horiz-adv-x="1798" unicode="ك"/><glyph d="M329 828q-22 -81 -47.5 -155t-42.5 -151q-20 -92 -17.5 -184t36 -166t103.5 -122.5t184 -53.5q109 -5 207 30t177.5 99.5t137 153t84.5 190.5q11 39 15.5 81t4.5 92q0 106 -4 220.5t-9 229.5t-8.5 225t-1.5 207q0 17 9.5 50.5t22.5 71t25.5 73t19.5 57.5q6 18 15.5 31 t17.5 14t11.5 -14t-2.5 -53q-9 -127 -7.5 -252t5 -250t5 -250.5t-7.5 -252.5q-4 -57 -10.5 -110t-17.5 -109q-18 -95 -48 -191.5t-74 -186.5t-102 -169t-132 -137.5t-164.5 -92t-198.5 -33.5q-97 1 -166.5 33t-115 86t-69.5 125t-31.5 150t-0.5 160.5t23 156.5 q23 107 54.5 207.5t66.5 175.5q10 23 21.5 34t20 12t12.5 -7.5t-1 -24.5z" arabic-form="isolated" horiz-adv-x="1353" unicode="ل"/><glyph d="M1258 716q-14 -143 -49 -283t-98 -269q-87 -182 -234 -308.5t-365 -126.5q-146 1 -229.5 70.5t-120.5 174t-35.5 229.5t26.5 238q23 105 54.5 206t66.5 177q20 45 40.5 45.5t11.5 -32.5q-22 -80 -48 -155t-42 -151q-19 -92 -16.5 -184t36 -166t103 -122t183.5 -53 q174 -8 316.5 81t224.5 233q72 126 79.5 240t3.5 255q-5 179 -15 359t-6 360q1 16 10.5 49.5t22 71t25 73.5t19.5 58q11 34 32.5 44t9.5 -67q-7 -107 -9 -216.5t0 -217.5q1 -42 1.5 -91.5t7.5 -96.5q11 -74 52.5 -133.5t125.5 -59.5q4 0 7 -1q15 -8 20 -46.5t-4 -90.5 q-7 -48 -23 -84.5t-32 -48.5q-8 -5 -13 -5q-40 0 -76.5 11t-62.5 33z" arabic-form="final" horiz-adv-x="1449" unicode="ل"/><glyph d="M9 154q-7 24 -8 44.5t4.5 34t16.5 18t28 -5.5q33 -18 72.5 -27t81.5 -8q41 1 81 9.5t75.5 26t63.5 45.5t44 67q27 62 27 150q0 139 -6 288t-9 303q0 10 4.5 29.5t11 44t14.5 52t16 53t15 47t12 34.5q3 11 8.5 16.5t10.5 5t8 -8t2 -21.5q-2 -123 -0.5 -243.5t1.5 -232 t-3.5 -212t-14.5 -184.5q-6 -48 -20.5 -101t-37.5 -104t-54.5 -97.5t-72 -82t-89.5 -56.5t-107 -21q-28 -1 -55.5 7t-50.5 24.5t-40.5 42.5t-28.5 63z" arabic-form="initial" horiz-adv-x="783" unicode="ل"/><glyph d="M74 278q18 0 41 3t46.5 10.5t46.5 20t42 30t32 41t17 54.5q4 39 5.5 82.5t1.5 88t-1 89t-1 83.5q0 59 -0.5 117t0.5 114q1 8 4.5 26.5t9.5 43t14 54t16.5 59.5t17 58t15.5 51q4 9 10 12t11 1.5t8.5 -7t1.5 -13.5q-3 -45 -5.5 -90.5t-3.5 -91.5q-3 -59 -5 -117t-3 -117 q-3 -72 -2 -142.5t4 -135.5q3 -39 12.5 -76.5t28.5 -66t50 -46t78 -17.5q4 0 6 -1q7 -4 12.5 -16t7.5 -30t1 -41.5t-5 -49.5q-4 -23 -10 -44.5t-13 -39t-15.5 -30.5t-16.5 -19q-3 -3 -6 -3.5t-7 -1.5q-41 0 -74 15.5t-58 42.5t-42 62.5t-26 74.5q-14 -38 -31.5 -76.5 t-38 -73.5t-45 -65t-52 -52.5t-58.5 -35t-66 -12.5q-10 0 -16.5 11t-9.5 30t-2.5 44.5t4.5 53.5q5 29 13 54t17.5 44t19.5 30t19 11z" arabic-form="medial" horiz-adv-x="572" unicode="ل"/><glyph d="M188 585q54 143 157.5 236.5t255.5 138.5q2 11 14 41t27 63t30 60.5t22 32.5q22 2 59 -9t71.5 -31t58 -47t19.5 -56q-2 -14 -7.5 -31t-13 -35t-16.5 -34.5t-18 -28.5q-23 -32 -53 -53t-71 -33q-27 -8 -68.5 -17t-89 -22.5t-98 -32t-96 -45t-82 -62.5t-55.5 -84 q-6 -32 -11 -95.5t-9 -145t-6.5 -174t-4.5 -182t-3 -169.5t-1 -136q0 -10 -1.5 -33.5t-4 -53.5t-5.5 -63t-6.5 -64t-7 -55.5t-6.5 -37.5q-8 -26 -19.5 -27t-12.5 16q-2 49 -4 119t-4 150.5t-2.5 167t-0.5 168.5t1 155.5t4 127.5q2 50 4.5 98.5t8.5 95.5t16.5 93.5t28.5 93.5 z" arabic-form="isolated" horiz-adv-x="1031" unicode="م"/><glyph d="M143 260q3 28 8.5 60t13 64t16 62.5t19.5 57.5q21 55 55 108t82 98.5t112 80.5t146 55q2 10 11 34t20.5 49.5t23.5 46.5t19 26q23 7 59.5 -3.5t69.5 -31t56 -49t19 -57.5q-7 -53 -43 -102q-23 -32 -51.5 -53t-70.5 -33q-26 -8 -64 -16t-82 -19t-90.5 -26t-89.5 -36 q-45 -23 -86 -57t-61 -82q-9 -48 -15.5 -126t-11 -169.5t-6.5 -188t-2 -180.5q0 -10 -1.5 -33.5t-4 -53.5t-5.5 -63.5t-6.5 -64t-7 -55.5t-6.5 -38q-8 -25 -19.5 -26t-12.5 16q-3 74 -6 154t-4.5 163.5t-0.5 167.5t5 166q3 79 12 154z" arabic-form="final" horiz-adv-x="668" unicode="م"/><glyph d="M19 277q3 8 7 26t9.5 40.5t11.5 46.5t12.5 43.5t13.5 32t13 11.5q32 -2 58.5 -13t45.5 -28t29.5 -38t10.5 -43q0 -40 -8 -82t-23.5 -81.5t-38.5 -74.5t-53 -61t-67 -41t-80 -15q-10 0 -16.5 11t-9.5 29.5t-2.5 44t5.5 54.5q5 28 12.5 53.5t17 44t19.5 29.5t20 11h13z" arabic-form="initial" horiz-adv-x="430" unicode="م"/><glyph d="M208 354q13 -14 17.5 -36.5t1.5 -49t-13.5 -56.5t-26.5 -59t-37 -55.5t-46 -47.5t-53 -34t-59 -15q-5 -1 -10 -1h-10q-10 0 -16.5 11t-9.5 29.5t-2.5 44t5.5 54.5q1 27 5 58t11 62.5t15.5 60t18.5 51t20.5 36t20.5 13.5q22 1 46 -4t47 -14.5t42.5 -22t32.5 -25.5z" arabic-form="medial" horiz-adv-x="43" unicode="م"/><glyph d="M685 371q-13 -2 -39 15t-53 40t-47.5 46t-21.5 34q-1 7 11 19q12 15 27.5 34t32 38t32.5 37.5t29 33.5q11 9 19 5q3 -2 10 -10.5t22.5 -24t42.5 -37.5t69 -51q13 -8 17 -11.5t-4 -17.5q-6 -11 -25.5 -35t-42.5 -49t-45 -45t-34 -21zM313 805q-20 -69 -42.5 -141.5 t-38.5 -145.5q-14 -61 -17.5 -122.5t5.5 -118t31 -106t60 -87.5t92.5 -61.5t128.5 -28.5q85 -6 165.5 14.5t151 63t127.5 104t95 137.5q14 27 24.5 54.5t13.5 53.5q7 60 6.5 123t-4 127.5t-7 130.5t-1.5 133q1 10 6 31.5t13 49t17.5 58t18.5 58t16.5 49.5t11.5 33 q4 9 11 12.5t13.5 2t10.5 -8t3 -16.5q-4 -75 -4 -153v-156t-2 -155t-10 -150q-6 -57 -17 -115t-26 -114t-33.5 -109t-40.5 -100q-30 -65 -73.5 -128t-97 -117t-116 -96t-131.5 -65.5t-143 -25.5t-150 25q-71 26 -119.5 74t-79.5 111q-29 60 -42.5 131.5t-13.5 147.5t11 155 t29.5 154.5t42.5 146t50 129.5q10 22 21.5 32.5t20.5 11.5t13 -8t0 -25z" arabic-form="isolated" horiz-adv-x="1350" unicode="ن"/><glyph d="M707 399q-13 -2 -39 15t-53 40t-47.5 46t-21.5 34q-1 7 11 19q12 15 27.5 34t32 38t32.5 37.5t29 33.5q11 9 19 5q3 -2 10 -10.5t22.5 -24t42.5 -37.5t69 -51q13 -8 17 -11.5t-4 -17.5q-6 -11 -25.5 -35t-42.5 -49t-45 -45t-34 -21zM329 829q-22 -81 -48 -155.5 t-42 -150.5q-15 -69 -17 -136t9.5 -126.5t38.5 -109.5t71 -85.5t105.5 -54t143.5 -15.5q114 5 211.5 50t172.5 119t125 171t70 207q19 109 17.5 217.5t-8.5 218.5q-1 22 4 42t13 32.5t17 15.5t17 -9q7 -9 15.5 -30.5t15.5 -50.5t9.5 -63t-2.5 -69q-4 -120 -22 -247t-56 -250 q-24 -80 -60 -159t-83.5 -150.5t-106 -132t-127.5 -104t-148.5 -66t-168.5 -17.5q-93 5 -159 40t-109.5 90t-66 126t-29 149t0 157t22.5 151q23 106 54.5 206.5t66.5 176.5q10 22 21.5 33t20 12t12.5 -8t0 -25z" arabic-form="final" horiz-adv-x="1266" unicode="ن"/><glyph d="M160 591q-5 1 -11.5 1t-11.5 2.5t-8.5 9.5t-2.5 22q2 27 10 61t19 66t24.5 57t27.5 33q39 24 80.5 32.5t80 1.5t72.5 -28t59 -56q22 -30 32.5 -70t12 -84.5t-5.5 -91.5t-20 -92q-16 -53 -39.5 -105.5t-54 -94.5t-68.5 -68.5t-83 -26.5q-41 0 -68.5 16t-44 44t-23.5 63.5 t-7.5 74t3.5 76.5t9 70t10.5 55t7.5 32zM212 599q-8 -18 -15.5 -44t-11 -54.5t-1.5 -57t13 -52.5t32 -41.5t56 -23.5q31 -5 62.5 5.5t56.5 31.5t40.5 50t15.5 61q0 43 -23.5 76t-60 51.5t-80.5 19t-84 -21.5z" arabic-form="isolated" horiz-adv-x="670" unicode="ه"/><glyph d="M576 0q-35 3 -55.5 13t-38 20t-37.5 17t-54 5q-59 -4 -114.5 -40.5t-97.5 -120.5q-8 -16 -19 -22.5t-19.5 -3.5t-12 15t4.5 32q24 60 62.5 123t88 116t107 88.5t118.5 40.5q22 2 35.5 -2t25.5 -10.5t25 -13.5t33 -12q12 -3 17 -22.5t5 -47t-5.5 -58.5t-15 -57 t-23.5 -43.5t-30 -16.5z" arabic-form="final" horiz-adv-x="626" unicode="ه"/><glyph d="M34 277q28 38 56 93.5t57 115.5t60 116.5t65 95.5q35 42 82 57t87.5 5.5t65 -44.5t15.5 -94q33 45 70.5 67t72.5 24.5t64 -12.5t46 -44t17.5 -70t-21.5 -90q-23 -52 -55 -93.5t-68.5 -74.5t-75 -58t-75.5 -45q-21 -11 -52 -21.5t-67 -20t-73.5 -17t-70.5 -12.5 q-25 -31 -54 -58.5t-62 -49t-70.5 -34t-78.5 -13.5q-9 0 -15.5 10.5t-9.5 29.5t-3 44t5 54t12.5 54t17 44t19.5 29.5t20 10.5h9.5t9.5 1zM437 543q3 29 -11 50.5t-36.5 31.5t-50 5t-51.5 -29q-21 -24 -44 -65.5t-47 -87.5t-47 -90t-44 -73q26 5 60 17.5t69.5 31t70.5 42.5 t63 51t46.5 56.5t21.5 59.5zM317 285q52 5 107 18t105 34t91 49.5t64 64.5q17 29 13.5 59.5t-23.5 47.5q-20 16 -42 16.5t-42.5 -8.5t-38 -23.5t-29.5 -29.5q-21 -26 -46 -57t-51.5 -62.5t-54 -60t-53.5 -48.5z" arabic-form="initial" horiz-adv-x="918" unicode="ه"/><glyph d="M34 277q28 38 56 93.5t57 115.5t60 116.5t65 95.5q35 42 82 57t87.5 5.5t65 -44.5t15.5 -94q33 45 70.5 67t72.5 24.5t64 -12.5t46 -44t17.5 -70t-21.5 -90q-23 -52 -55 -93.5t-68.5 -74.5t-75 -58t-75.5 -45q-21 -11 -52 -21.5t-67 -20t-73.5 -17t-70.5 -12.5 q-25 -31 -54 -58.5t-62 -49t-70.5 -34t-78.5 -13.5q-9 0 -15.5 10.5t-9.5 29.5t-3 44t5 54t12.5 54t17 44t19.5 29.5t20 10.5h9.5t9.5 1zM437 543q3 29 -11 50.5t-36.5 31.5t-50 5t-51.5 -29q-21 -24 -44 -65.5t-47 -87.5t-47 -90t-44 -73q26 5 60 17.5t69.5 31t70.5 42.5 t63 51t46.5 56.5t21.5 59.5zM317 285q52 5 107 18t105 34t91 49.5t64 64.5q17 29 13.5 59.5t-23.5 47.5q-20 16 -42 16.5t-42.5 -8.5t-38 -23.5t-29.5 -29.5q-21 -26 -46 -57t-51.5 -62.5t-54 -60t-53.5 -48.5z" arabic-form="medial" horiz-adv-x="523" unicode="ه"/><glyph d="M488 122q-17 -23 -29 -35.5t-31 -17.5q-32 -9 -70.5 -17t-80 -16.5t-83.5 -17t-79 -17.5q-11 -3 -20.5 1t-12 12.5t5 20t31.5 23.5q27 17 64.5 39t79 45.5t84 48.5t81 49t69 46.5t48.5 41.5q10 20 5 46t-29 44q-23 -7 -46.5 -10t-45.5 -1t-42 9.5t-35 21.5 q-27 25 -31.5 58t3 67t22 67.5t23.5 60.5q8 23 14.5 49.5t17 49.5t28 39t48.5 19q48 4 79 -23.5t49.5 -69.5t26 -89.5t8.5 -82.5q2 -57 -8 -118.5t-30 -121.5t-49 -116.5t-65 -104.5z" arabic-form="isolated" horiz-adv-x="722" unicode="و"/><glyph d="M613 380q-18 -69 -50.5 -136t-74.5 -122q-17 -23 -29 -35.5t-31 -17.5q-32 -9 -71 -17t-80.5 -16.5l-83 -17t-78.5 -17.5q-11 -3 -20.5 1t-12 12.5t5 20t31.5 23.5q27 17 64 38.5t78.5 45.5t84.5 49t81.5 49t69.5 46t49 41q9 20 3.5 46.5t-29.5 43.5q-22 -6 -45.5 -9 t-46 -0.5t-42.5 10t-35 21.5q-27 25 -31 57.5t3.5 66.5t22 67.5t23.5 60.5q8 23 14.5 49.5t17 49t28 38.5t48.5 19q32 3 56 -9t42 -33.5t29.5 -50t19.5 -58.5q8 -32 10.5 -73.5t1 -84.5t-7.5 -84.5t-15 -73.5z" arabic-form="final" horiz-adv-x="637" unicode="و"/><glyph d="M247 564q-17 -75 -23 -148t2.5 -138.5t34 -120t72.5 -92.5q55 -45 124 -60t141.5 -5.5t144 39.5t131.5 76t104 104t62 123q9 34 6.5 58t-14.5 39.5t-32.5 24t-45.5 11.5q-66 7 -111 26.5t-71 53t-34.5 83.5t-1.5 118q1 43 14.5 104.5t40 129.5t65 138t89.5 129.5 t114 103.5t139 61q19 4 30 -12t6 -52q-4 -29 -13.5 -67t-22 -71t-27.5 -54.5t-30 -17.5q-7 2 -19.5 2.5t-32.5 -4.5q-39 -8 -81.5 -34.5t-80.5 -64.5t-67 -84t-41 -92q-2 -20 1.5 -35t10.5 -26.5t17 -20t21 -15.5q23 -12 52 -18t58.5 -13t55.5 -18t44 -34q16 -19 27 -45.5 t16 -63t2.5 -85.5t-14.5 -114q-14 -78 -46 -162t-79.5 -162.5t-109.5 -146.5t-135 -114.5t-156.5 -66.5t-174.5 -2q-82 16 -136.5 60.5t-87.5 108t-46.5 140.5t-13.5 157.5t11 159.5t28 146q10 43 28 99t39 114.5t42.5 112.5t39.5 92q10 22 21 32t19.5 10.5t12 -8 t-0.5 -24.5q-10 -36 -27 -84.5t-34.5 -99.5t-33.5 -99t-23 -82z" arabic-form="isolated" horiz-adv-x="1364" unicode="ى"/><glyph d="M359 918q-12 -42 -27 -87t-30.5 -90t-29.5 -89t-23 -83q-14 -57 -21.5 -119t-3.5 -122.5t20 -116t49 -100t84 -75t124 -40.5q55 -8 113 1t114 31t107.5 55t95 74t75.5 89t49 99q6 13 17 23.5t22.5 16t21 5t11.5 -8.5q-16 -73 -47.5 -152t-76 -154.5t-101.5 -142.5 t-125 -116.5t-146.5 -75.5t-164.5 -19q-102 8 -168 53.5t-104.5 115.5t-53.5 156.5t-14 175.5q1 81 17 171t41 180t57 176t66 159q10 22 21.5 32t20 10.5t12 -8t-1.5 -24.5z" arabic-form="final" horiz-adv-x="1127" unicode="ى"/><glyph d="M247 564q-17 -75 -23 -148t2.5 -138.5t34 -120t72.5 -92.5q55 -45 124 -60t141.5 -5.5t144 39.5t131.5 76t104 104t62 123q9 34 6.5 58t-14.5 39.5t-32.5 24t-45.5 11.5q-66 7 -111 26.5t-71 53t-34.5 83.5t-1.5 118q1 43 14.5 104.5t40 129.5t65 138t89.5 129.5 t114 103.5t139 61q19 4 30 -12t6 -52q-4 -29 -13.5 -67t-22 -71t-27.5 -54.5t-30 -17.5q-7 2 -19.5 2.5t-32.5 -4.5q-39 -8 -81.5 -34.5t-80.5 -64.5t-67 -84t-41 -92q-2 -20 1.5 -35t10.5 -26.5t17 -20t21 -15.5q23 -12 52 -18t58.5 -13t55.5 -18t44 -34q16 -19 27 -45.5 t16 -63t2.5 -85.5t-14.5 -114q-14 -78 -46 -162t-79.5 -162.5t-109.5 -146.5t-135 -114.5t-156.5 -66.5t-174.5 -2q-82 16 -136.5 60.5t-87.5 108t-46.5 140.5t-13.5 157.5t11 159.5t28 146q10 43 28 99t39 114.5t42.5 112.5t39.5 92q10 22 21 32t19.5 10.5t12 -8 t-0.5 -24.5q-10 -36 -27 -84.5t-34.5 -99.5t-33.5 -99t-23 -82zM369 -352q25 -32 63.5 -68t90.5 -62q26 28 55.5 62.5t55.5 69.5q4 5 9 4t9 -6q26 -32 63 -66t79 -54q6 -4 10.5 -6t7 -5t2 -7t-4.5 -11q-6 -11 -24 -36.5t-40 -52.5t-43 -48t-32 -23q-20 -3 -44.5 9t-48 31.5 t-43 41.5t-29.5 39q-13 -17 -30.5 -38t-35 -39t-32 -30.5t-21.5 -13.5q-20 -4 -45.5 9.5t-50 34t-44 44t-28.5 39.5q-6 11 -5 15t8 13q31 41 65 79.5t64 76.5q9 10 19 -2z" arabic-form="isolated" horiz-adv-x="1364" unicode="ي"/><glyph d="M359 918q-12 -42 -27 -87t-30.5 -90t-29.5 -89t-23 -83q-14 -57 -21.5 -119t-3.5 -122.5t20 -116t49 -100t84 -75t124 -40.5q55 -8 113 1t114 31t107.5 55t95 74t75.5 89t49 99q6 13 17 23.5t22.5 16t21 5t11.5 -8.5q-16 -73 -47.5 -152t-76 -154.5t-101.5 -142.5 t-125 -116.5t-146.5 -75.5t-164.5 -19q-102 8 -168 53.5t-104.5 115.5t-53.5 156.5t-14 175.5q1 81 17 171t41 180t57 176t66 159q10 22 21.5 32t20 10.5t12 -8t-1.5 -24.5zM370 -352q25 -32 63.5 -68t90.5 -62q26 28 55.5 62.5t55.5 69.5q4 5 9 4t9 -6q26 -32 63 -66 t79 -54q6 -4 10.5 -6t7 -5t2 -7t-4.5 -11q-6 -11 -24 -36.5t-40 -52.5t-43 -48t-32 -23q-20 -3 -44.5 9t-48 31.5t-43 41.5t-29.5 39q-13 -17 -30.5 -38t-35 -39t-32 -30.5t-21.5 -13.5q-20 -4 -45.5 9.5t-50 34t-44 44t-28.5 39.5q-6 11 -5 15t8 13q31 41 65 79.5t64 76.5 q9 10 19 -2z" arabic-form="final" horiz-adv-x="1127" unicode="ي"/><glyph horiz-adv-x="50"/><glyph horiz-adv-x="401"/><glyph horiz-adv-x="401"/><glyph horiz-adv-x="401"/><glyph d="M343 431h-126l-53 1091h233zM147 117q0 39 10.5 67t28 44.5t41.5 24.5t51 8q28 0 52.5 -8t42 -24.5t28 -44.5t10.5 -67t-10.5 -66.5t-28 -45t-42 -26t-52.5 -8.5q-27 0 -51 8.5t-41.5 26t-28 45t-10.5 66.5z" horiz-adv-x="561" unicode="!"/><glyph d="M338 1483l-42 -549h-120l-43 549h205zM713 1483l-43 -549h-118l-43 549h204z" horiz-adv-x="846" unicode="&quot;"/><glyph d="M1020 928l-65 -340h291v-143h-320l-85 -445h-153l87 445h-301l-86 -445h-150l81 445h-268v143h296l68 340h-285v143h311l85 450h153l-86 -450h306l87 450h149l-87 -450h273v-143h-301zM500 588h302l67 340h-302z" horiz-adv-x="1372" unicode="#"/><glyph d="M1020 469q0 -73 -26 -132t-74 -103t-117.5 -72.5t-156.5 -41.5v-239h-143v230q-52 0 -105.5 4.5t-103.5 13.5t-93.5 23t-77.5 32v178q35 -16 80 -33.5t95 -31t102.5 -22t102.5 -8.5v451q-94 31 -161.5 65.5t-112.5 79t-67 101.5t-22 134q0 70 25.5 127t73 101t114 71 t150.5 36v187h143v-182q104 -5 191.5 -27t157.5 -54l-69 -151q-58 26 -131 47.5t-149 27.5v-439q91 -33 161 -66.5t117.5 -77t71.5 -99t24 -130.5zM837 469q0 33 -10.5 62t-32.5 52t-58.5 43.5t-89.5 38.5v-387q96 14 143.5 64.5t47.5 126.5zM323 1095q0 -36 9 -66t30 -54.5 t55 -44t86 -38.5v385q-94 -17 -137 -63t-43 -119z" horiz-adv-x="1163" unicode="$"/><glyph d="M255 1068q0 -171 37.5 -257t120.5 -86q162 0 162 343q0 341 -162 341q-83 0 -120.5 -84.5t-37.5 -256.5zM729 1068q0 -113 -19 -202t-57.5 -151t-98 -94.5t-141.5 -32.5q-77 0 -135 32.5t-97.5 94.5t-59 151t-19.5 202q0 112 18 200.5t56 149.5t96.5 93t140.5 32 q78 0 136.5 -32t98.5 -93t60.5 -149.5t20.5 -200.5zM1173 458q0 -171 37 -256t121 -85q162 0 162 341t-162 341q-84 0 -121 -84.5t-37 -256.5zM1646 458q0 -111 -18 -200t-57 -151t-99 -94.5t-141 -32.5q-77 0 -135.5 32.5t-97.5 94.5t-58.5 151t-19.5 200q0 112 18 200.5 t56 149.5t97 93.5t140 32.5q78 0 137 -32.5t98 -93.5t59.5 -149.5t20.5 -200.5zM1380 1522l-844 -1521h-164l844 1521h164z" horiz-adv-x="1749" unicode="%"/><glyph d="M435 1212q0 -35 8 -68.5t25.5 -67.5t44 -69t64.5 -73q61 37 106 68.5t74 65t43.5 69.5t14.5 79q0 38 -13 70t-37 54.5t-58.5 35.5t-78.5 13q-89 0 -141 -46t-52 -131zM576 148q60 0 110.5 11.5t94.5 32.5t81 49t71 60l-403 424q-53 -35 -94.5 -67.5t-70 -70.5t-43.5 -82 t-15 -101t18 -104t52.5 -81t84.5 -52.5t114 -18.5zM109 397q0 81 21 144.5t61 115.5t98 97t131 88q-31 38 -62.5 78t-55 85t-38.5 96.5t-15 110.5q0 78 26 140t75 105.5t121 65.5t163 22q87 0 155 -22t115 -65.5t72.5 -105.5t25.5 -140q0 -66 -26 -122.5t-70 -105 t-100.5 -89.5t-119.5 -79l367 -386q27 30 50 61t40.5 66t31.5 76t25 89h191q-16 -69 -37.5 -126t-48.5 -108.5t-61 -95.5t-75 -87l288 -304h-234l-174 179q-52 -47 -101.5 -84t-106 -62t-121 -39.5t-144.5 -14.5q-109 0 -196.5 27.5t-147 81.5t-91.5 131t-32 177z" horiz-adv-x="1490" unicode="&amp;"/><glyph d="M338 1483l-42 -549h-120l-43 549h205z" horiz-adv-x="471" unicode="'"/><glyph d="M82 596q0 130 18 256.5t57 246t97.5 228.5t139.5 207h179q-145 -202 -220.5 -441.5t-75.5 -493.5q0 -125 19.5 -247t56 -239.5t91.5 -228t127 -208.5h-177q-81 94 -139.5 201t-97.5 224t-57 242t-18 253z" horiz-adv-x="634" unicode="("/><glyph d="M554 596q0 -128 -19 -253t-58 -242t-97.5 -224t-140.5 -201h-177q73 98 127.5 208.5t92.5 228t56.5 239.5t18.5 247q0 254 -74.5 493.5t-221.5 441.5h178q82 -98 140.5 -207t97.5 -228.5t58 -246t19 -256.5z" horiz-adv-x="635" unicode=")"/><glyph d="M687 1593l-45 -408l412 114l28 -200l-393 -29l255 -339l-186 -100l-182 372l-165 -372l-191 100l252 339l-390 29l30 200l407 -114l-46 408h214z" horiz-adv-x="1167" unicode="*"/><glyph d="M504 662h-402v156h402v405h156v-405h403v-156h-403v-400h-156v400z" horiz-adv-x="1165" unicode="+"/><glyph d="M375 259l16 -25q-16 -56 -36 -119.5t-44 -128t-51 -128t-53 -122.5h-144q16 64 31.5 132t29 136.5t25.5 133.5t19 121h207z" horiz-adv-x="525" unicode=","/><glyph d="M82 465v174h515v-174h-515z" horiz-adv-x="679" unicode="-"/><glyph d="M147 117q0 39 10.5 67t28 44.5t41.5 24.5t51 8q28 0 52.5 -8t42 -24.5t28 -44.5t10.5 -67t-10.5 -66.5t-28 -45t-42 -26t-52.5 -8.5q-27 0 -51 8.5t-41.5 26t-28 45t-10.5 66.5z" horiz-adv-x="559" unicode="."/><glyph d="M771 1521l-565 -1521h-186l567 1521h184z" horiz-adv-x="792" unicode="/"/><glyph d="M1070 763q0 -184 -26.5 -329.5t-85.5 -246t-151.5 -154t-224.5 -53.5q-123 0 -214 53.5t-150.5 154t-89.5 246t-30 329.5t26.5 329.5t84.5 246t150.5 153.5t222.5 53q124 0 215 -52.5t151.5 -152.5t91 -245.5t30.5 -331.5zM290 763q0 -156 16 -272.5t50.5 -194t90 -116.5 t135.5 -39t136 38.5t92.5 116t52 194.5t15.5 273t-15.5 273t-52 193.5t-92.5 115t-136 38.5t-135.5 -38.5t-90 -115t-50.5 -193.5t-16 -273z" horiz-adv-x="1165" unicode="0"/><glyph d="M733 0h-183v949q0 46 0.5 96.5t2 101t3.5 97t2 81.5q-17 -18 -31 -32t-28 -26t-29.5 -26.5t-36.5 -32.5l-155 -126l-100 127l399 312h156v-1521z" horiz-adv-x="1149" unicode="1"/><glyph d="M1044 0h-948v163l364 396q78 83 139 153.5t104.5 136.5t66.5 133t23 146q0 62 -17.5 108.5t-51 79.5t-78 49.5t-99.5 16.5q-99 0 -178 -39.5t-152 -102.5l-105 124q41 37 88.5 69.5t103 57t117 38t129.5 13.5q99 0 179.5 -28t137 -80.5t87 -128t30.5 -169.5 q0 -88 -27.5 -168.5t-76 -158t-115.5 -155.5t-145 -163l-293 -310v-8h717v-173z" horiz-adv-x="1165" unicode="2"/><glyph d="M996 1166q0 -76 -24 -138.5t-67 -108.5t-103.5 -75t-134.5 -42v-7q185 -22 280.5 -116t95.5 -245q0 -100 -34 -183.5t-103 -144t-173.5 -93.5t-248.5 -33q-113 0 -213.5 17.5t-188.5 64.5v177q90 -48 196 -74t202 -26t165.5 20.5t114.5 59.5t66.5 95t21.5 126t-27.5 121 t-79 83.5t-124 48t-166.5 15.5h-138v157h138q85 0 150.5 21t109.5 59.5t67 91.5t23 116q0 54 -19 97t-52.5 72.5t-82 45t-106.5 15.5q-111 0 -196 -34.5t-162 -91.5l-96 130q41 32 89 60t105 49.5t122 34t138 12.5q113 0 197.5 -28t141.5 -78t86.5 -119.5t29.5 -151.5z" horiz-adv-x="1165" unicode="3"/><glyph d="M1131 341h-223v-341h-183v341h-702v166l690 1022h195v-1015h223v-173zM725 514v370q0 59 2 122.5t4 124.5t4.5 113.5t3.5 89.5h-9q-8 -21 -19 -47t-24 -51.5t-26.5 -49.5t-23.5 -39l-428 -633h516z" horiz-adv-x="1171" unicode="4"/><glyph d="M561 934q103 0 192 -28.5t155.5 -85t103.5 -139.5t37 -193q0 -118 -35 -213t-104.5 -160t-172.5 -100t-235 -35q-54 0 -105 5t-98.5 15t-90.5 25.5t-77 36.5v179q34 -24 80 -42.5t97.5 -31.5t103 -19.5t95.5 -6.5q82 0 146 19.5t109 60t69 101.5t24 146q0 149 -91.5 227 t-267.5 78q-27 0 -60 -2.5t-65.5 -6.5t-62.5 -8.5t-51 -8.5l-93 59l57 716h717v-173h-553l-41 -436q33 6 87.5 13.5t129.5 7.5z" horiz-adv-x="1163" unicode="5"/><glyph d="M113 651q0 109 11 217t39 207.5t75.5 184.5t121.5 148t177 99t242 36q19 0 43 -1t48 -3.5t47 -6.5t40 -9v-161q-37 13 -82.5 19t-90.5 6q-94 0 -164.5 -22.5t-122.5 -62.5t-87.5 -96.5t-57 -125t-31.5 -145t-14 -159.5h13q21 37 50 69.5t68.5 56t89 37t110.5 13.5 q99 0 179.5 -30.5t136.5 -89.5t86.5 -145t30.5 -196q0 -118 -32 -213t-92 -161.5t-145.5 -101.5t-191.5 -35q-104 0 -195 40.5t-157.5 123.5t-105.5 209t-39 298zM607 139q62 0 114 21.5t89.5 65t57.5 109t20 156.5q0 73 -17 130.5t-51.5 98t-86 62.5t-119.5 22 q-69 0 -127 -24.5t-99 -63.5t-63 -89t-22 -100q0 -70 19.5 -139t57 -124t95 -90t132.5 -35z" horiz-adv-x="1165" unicode="6"/><glyph d="M289 0l585 1348h-784v173h978v-151l-578 -1370h-201z" horiz-adv-x="1166" unicode="7"/><glyph d="M583 1545q87 0 164.5 -22.5t136.5 -69t93.5 -114.5t34.5 -160q0 -69 -20.5 -125.5t-57 -101.5t-86.5 -81t-109 -65q60 -33 118 -72t103.5 -88.5t72.5 -111t27 -137.5q0 -96 -34.5 -173.5t-97.5 -131t-150.5 -83t-194.5 -29.5q-114 0 -203 28t-149.5 80.5t-92.5 128.5 t-32 171q0 78 23.5 140.5t63 112.5t93.5 88.5t114 68.5q-51 32 -96 70t-77.5 84.5t-52 103t-19.5 125.5q0 91 35.5 158.5t94.5 114t136.5 69t161.5 22.5zM292 387q0 -56 17 -102t52 -78.5t89 -51t129 -18.5q73 0 128.5 18.5t93 52t56.5 81t19 106.5q0 54 -20.5 97.5 t-58.5 81.5t-91 71t-119 66l-31 14q-131 -62 -197.5 -143t-66.5 -195zM581 1387q-110 0 -175 -55t-65 -160q0 -60 18.5 -102t50 -76t77 -60t99.5 -52q49 24 93.5 51t77 61t51 78t18.5 100q0 105 -65.5 160t-179.5 55z" horiz-adv-x="1164" unicode="8"/><glyph d="M1064 872q0 -109 -10.5 -217.5t-38.5 -207.5t-75 -185t-121.5 -148t-177 -98t-241.5 -36q-20 0 -44 1.5t-48 4t-46.5 5t-39.5 7.5v163q36 -13 81.5 -19.5t89.5 -6.5q141 0 232 48.5t143.5 132.5t75.5 195t28 236h-15q-20 -38 -49.5 -70.5t-68.5 -56.5t-89 -37t-111 -13 q-99 0 -179.5 30.5t-136.5 90t-86.5 145t-30.5 196.5q0 118 32.5 213t92.5 161t145.5 101.5t192.5 35.5q105 0 195.5 -40.5t156.5 -123.5t104.5 -209.5t38.5 -297.5zM570 1383q-62 0 -113.5 -21t-88.5 -64.5t-58 -110t-21 -155.5q0 -73 17.5 -131t52 -98t86 -62.5 t120.5 -22.5q70 0 127.5 25t97.5 64t63 88.5t23 99.5q0 69 -19.5 138.5t-57.5 125t-95 90t-134 34.5z" horiz-adv-x="1165" unicode="9"/><glyph d="M147 117q0 39 10.5 67t28 44.5t41.5 24.5t51 8q28 0 52.5 -8t42 -24.5t28 -44.5t10.5 -67t-10.5 -66.5t-28 -45t-42 -26t-52.5 -8.5q-27 0 -51 8.5t-41.5 26t-28 45t-10.5 66.5zM147 1028q0 40 10.5 67.5t28 45t41.5 24.5t51 7q28 0 52.5 -7t42 -24.5t28 -45t10.5 -67.5 q0 -39 -10.5 -65.5t-28 -45t-42 -26t-52.5 -7.5q-27 0 -51 7.5t-41.5 26t-28 45t-10.5 65.5z" horiz-adv-x="559" unicode=":"/><glyph d="M375 259l16 -25q-16 -56 -36 -119.5t-44 -128t-51 -128t-53 -122.5h-144q16 64 31.5 132t29 136.5t25.5 133.5t19 121h207zM151 1037q0 41 10.5 68t28 44.5t41.5 25t52 7.5q27 0 51.5 -7.5t42.5 -25t28 -44.5t10 -68q0 -39 -10 -65.5t-28 -44.5t-42.5 -26t-51.5 -8 q-28 0 -52 8t-41.5 26t-28 44.5t-10.5 65.5z" horiz-adv-x="562" unicode=";"/><glyph d="M1063 238l-961 441v106l961 501v-167l-765 -379l765 -334v-168z" horiz-adv-x="1165" unicode="&lt;"/><glyph d="M102 868v155h961v-155h-961zM102 442v156h961v-156h-961z" horiz-adv-x="1165" unicode="="/><glyph d="M102 406l764 334l-764 379v167l961 -501v-106l-961 -441v168z" horiz-adv-x="1165" unicode="&gt;"/><glyph d="M291 431v39q0 60 7.5 107.5t27.5 89t54.5 82t86.5 83.5q50 43 85.5 78t57.5 70.5t33.5 76.5t11.5 97q0 49 -16 90t-45.5 71t-74 46.5t-102.5 16.5q-86 0 -164 -27.5t-151 -62.5l-65 151q83 43 181.5 74t198.5 31q97 0 174.5 -26.5t131.5 -76.5t83 -122.5t29 -163.5 q0 -69 -14 -123.5t-42 -101t-69.5 -91t-97.5 -92.5q-55 -47 -89 -82t-54 -67.5t-27 -67t-7 -79.5v-20h-144zM240 117q0 39 10.5 67t28.5 44.5t41.5 24.5t51.5 8t52 -8t42 -24.5t28.5 -44.5t10.5 -67t-10.5 -66.5t-28.5 -45t-42 -26t-52 -8.5t-51.5 8.5t-41.5 26t-28.5 45 t-10.5 66.5z" horiz-adv-x="902" unicode="?"/><glyph d="M1728 767q0 -64 -10 -129t-29.5 -124t-48.5 -109t-69 -87.5t-90.5 -59t-110.5 -21.5q-47 0 -85 15.5t-65 41.5t-44.5 59.5t-22.5 70.5h-5q-18 -38 -46 -72.5t-65 -59.5t-83.5 -40t-102.5 -15q-79 0 -140.5 29t-104.5 81.5t-65 127t-22 162.5q0 105 30.5 193t88 151 t139.5 98.5t184 35.5q46 0 93 -4.5t90 -11.5t78.5 -16t60.5 -17l-25 -433q-1 -22 -1 -36.5v-22.5v-12v-8q0 -55 10.5 -90t28.5 -56t40 -28.5t46 -7.5q48 0 84.5 31t61 85.5t37 127.5t12.5 154q0 148 -45 262.5t-123.5 193.5t-188 120t-236.5 41q-176 0 -310.5 -58 t-225.5 -161t-137.5 -245t-46.5 -311q0 -157 41.5 -278.5t121 -204.5t197.5 -125.5t270 -42.5q64 0 125.5 7t119.5 19.5t110 29t96 32.5v-145q-88 -40 -200.5 -63t-247.5 -23q-186 0 -332.5 53.5t-247.5 154.5t-154.5 247t-53.5 333q0 195 62 364t175.5 292.5t275.5 194.5 t362 71q162 0 298 -53t235.5 -151t155 -239t55.5 -318zM685 633q0 -138 52 -199.5t140 -61.5q58 0 98.5 23.5t66.5 66t40 102.5t18 132l14 263q-29 8 -69 14.5t-84 6.5q-77 0 -129.5 -30t-85 -78.5t-47 -111t-14.5 -127.5z" horiz-adv-x="1837" unicode="@"/><glyph d="M1097 0l-166 471h-567l-169 -471h-195l559 1526h177l559 -1526h-198zM870 642l-155 442q-5 18 -14 45.5t-18.5 58.5t-19 65t-17.5 65q-8 -31 -17 -65.5t-18.5 -66.5t-18 -58.5t-15.5 -43.5l-151 -442h444z" horiz-adv-x="1295" unicode="A"/><glyph d="M199 1521h415q134 0 235 -21t169.5 -65.5t102.5 -118t34 -180.5q0 -65 -20.5 -121t-58.5 -98.5t-95 -71.5t-128 -38v-10q71 -13 134.5 -36.5t110 -64.5t73 -103.5t26.5 -151.5q0 -104 -33.5 -185.5t-97.5 -138.5t-155.5 -87t-207.5 -30h-504v1521zM393 876h253 q87 0 147 15.5t96.5 46.5t52 77t15.5 107q0 125 -80 179t-253 54h-231v-479zM393 714v-550h277q91 0 152.5 20.5t100 58.5t54.5 90.5t16 116.5q0 57 -16.5 106.5t-55.5 84t-103.5 54t-160.5 19.5h-264z" horiz-adv-x="1310" unicode="B"/><glyph d="M819 1372q-110 0 -200.5 -42t-155 -120.5t-99 -192.5t-34.5 -256q0 -147 31 -260.5t92 -191.5t152.5 -119t213.5 -41q94 0 177 18t164 43v-169q-40 -15 -81 -27t-85.5 -19t-94.5 -11t-111 -4q-172 0 -296.5 56t-206 159.5t-121 247.5t-39.5 320q0 173 45.5 316.5 t133.5 246t218 160t297 57.5q113 0 215 -23t184 -66l-82 -162q-65 32 -141.5 56t-175.5 24z" horiz-adv-x="1277" unicode="C"/><glyph d="M1320 775q0 -193 -50 -337.5t-145 -242t-233 -146.5t-312 -49h-381v1521h424q158 0 287.5 -48t220 -142.5t140 -233.5t49.5 -322zM1114 768q0 152 -34.5 262.5t-99.5 183t-161 107t-217 34.5h-209v-1189h169q274 0 413 152.5t139 449.5z" horiz-adv-x="1445" unicode="D"/><glyph d="M988 0h-789v1521h789v-172h-595v-469h556v-169h-556v-541h595v-170z" horiz-adv-x="1111" unicode="E"/><glyph d="M393 0h-194v1521h789v-172h-595v-535h556v-172h-556v-642z" horiz-adv-x="1036" unicode="F"/><glyph d="M809 804h503v-746q-57 -18 -115.5 -33t-119.5 -25t-129 -15t-146 -5q-163 0 -288.5 54.5t-212 156t-131.5 246.5t-45 326q0 179 49.5 323.5t144.5 245.5t233.5 156t316.5 55q115 0 221 -23t197 -66l-74 -169q-38 18 -80.5 34t-89 27.5t-94.5 18.5t-96 7 q-127 0 -224.5 -42t-164 -120.5t-100.5 -192.5t-34 -256q0 -135 29 -247.5t91 -193.5t161 -126t238 -45q46 0 83.5 2.5t70 7t61 10.5t56.5 11v453h-311v171z" horiz-adv-x="1459" unicode="G"/><glyph d="M1279 0h-193v710h-693v-710h-194v1521h194v-641h693v641h193v-1521z" horiz-adv-x="1477" unicode="H"/><glyph d="M633 0h-551v107l178 41v1224l-178 42v107h551v-107l-179 -42v-1224l179 -41v-107z" horiz-adv-x="715" unicode="I"/><glyph d="M-23 -389q-53 0 -92.5 6.5t-68.5 18.5v166q35 -9 75.5 -15t87.5 -6q39 0 78 10t70.5 36t51 72t19.5 116v1521h195v-1500q0 -109 -30.5 -189t-85 -132.5t-131 -78t-169.5 -25.5z" horiz-adv-x="577" unicode="J"/><glyph d="M1226 0h-220l-469 725l-144 -118v-607h-194v1521h194v-760l126 174l469 586h219l-541 -663z" horiz-adv-x="1226" unicode="K"/><glyph d="M199 0v1521h194v-1348h595v-173h-789z" horiz-adv-x="1036" unicode="L"/><glyph d="M827 0l-460 1331h-8q5 -76 10 -153q4 -65 6.5 -137t2.5 -132v-909h-179v1521h287l429 -1240h6l431 1240h286v-1521h-192v923q0 53 2 122.5t4 133.5q4 74 8 150h-9l-464 -1329h-160z" horiz-adv-x="1837" unicode="M"/><glyph d="M1338 0h-224l-747 1258h-8q5 -80 10 -158q4 -68 6.5 -142t2.5 -134v-824h-179v1521h222l744 -1253h8q-3 79 -8 156q0 34 -2 69t-3.5 69.5t-2 67t-0.5 59.5v832h181v-1521z" horiz-adv-x="1537" unicode="N"/><glyph d="M1443 763q0 -176 -41.5 -320t-124.5 -247.5t-206.5 -159.5t-285.5 -56q-169 0 -293.5 56t-206 159.5t-121 248t-39.5 321.5t39.5 321.5t121.5 245.5t207 157t295 56q161 0 283.5 -56t205.5 -158t124.5 -246t41.5 -322zM330 763q0 -142 27 -256t83 -193.5t141.5 -122 t203.5 -42.5q119 0 204.5 42.5t141.5 122t82 193.5t26 256q0 144 -26 257t-81 191.5t-140.5 121t-203.5 42.5q-120 0 -205.5 -42.5t-142 -121t-83.5 -191.5t-27 -257z" horiz-adv-x="1570" unicode="O"/><glyph d="M1110 1075q0 -95 -28.5 -182t-94 -154t-173 -107t-265.5 -40h-156v-592h-194v1521h377q139 0 240 -30t166.5 -86.5t96.5 -139.5t31 -190zM393 757h134q97 0 169 16t119.5 53t71 95.5t23.5 143.5q0 148 -85 219t-266 71h-166v-598z" horiz-adv-x="1215" unicode="P"/><glyph d="M1443 779q0 -136 -25 -253.5t-74.5 -212t-123 -162.5t-171.5 -109q46 -97 117 -171t164 -137l-126 -148q-107 75 -196.5 178.5t-142.5 234.5q-18 -1 -39.5 -2t-40.5 -1q-169 0 -293.5 56.5t-206 159t-121 247.5t-39.5 322t39.5 321t121.5 246t207 157.5t295 55.5 q161 0 283.5 -55.5t205.5 -158t124.5 -247t41.5 -321.5zM330 779q0 -143 27 -256.5t83 -193.5t141.5 -121.5t203.5 -41.5q119 0 204.5 41.5t141.5 121.5t82 193.5t26 256.5t-26 256.5t-81 192t-140.5 120.5t-203.5 42q-120 0 -205.5 -42t-142 -120.5t-83.5 -192t-27 -256.5z" horiz-adv-x="1568" unicode="Q"/><glyph d="M393 628v-628h-194v1521h371q276 0 408 -107t132 -325q0 -91 -25 -158.5t-67.5 -115.5t-96.5 -80.5t-111 -53.5l413 -681h-227l-365 628h-238zM393 793h170q94 0 159.5 18t107.5 54t61 89.5t19 124.5q0 75 -20.5 127t-64.5 85.5t-109.5 48.5t-156.5 15h-166v-562z" horiz-adv-x="1247" unicode="R"/><glyph d="M1004 408q0 -102 -36 -181t-102 -134.5t-162.5 -84t-215.5 -28.5q-115 0 -215.5 18t-168.5 54v185q35 -16 80.5 -32.5t95.5 -29t103 -20t105 -7.5q166 0 246 62.5t80 177.5q0 57 -15 99t-53.5 76.5t-101.5 67.5t-160 71q-93 36 -161 79.5t-112.5 97.5t-65.5 122t-21 157 q0 91 33.5 162.5t93.5 121t143.5 75.5t185.5 26q123 0 222 -23.5t176 -60.5l-69 -161q-68 30 -153.5 52t-178.5 22q-126 0 -196 -58.5t-70 -158.5q0 -60 15.5 -102.5t52 -78t96 -66t148.5 -63.5q93 -38 164.5 -77.5t120 -90t72.5 -115.5t24 -154z" horiz-adv-x="1098" unicode="S"/><glyph d="M649 0h-195v1349h-434v172h1063v-172h-434v-1349z" horiz-adv-x="1104" unicode="T"/><glyph d="M1288 1523v-985q0 -119 -34.5 -221t-103.5 -176.5t-173.5 -117.5t-246.5 -43q-133 0 -235 40.5t-170.5 114t-104.5 176.5t-36 231v980h195v-991q0 -182 89.5 -282t271.5 -100q93 0 160 28.5t109 79.5t63 121.5t22 155.5v989h194z" horiz-adv-x="1473" unicode="U"/><glyph d="M1004 1521h205l-508 -1521h-194l-507 1521h205l307 -965q30 -94 51.5 -182t39.5 -165q16 77 40 165t56 189z" horiz-adv-x="1209" unicode="V"/><glyph d="M840 1521h206l238 -890q15 -59 30 -117.5t28 -113t23 -103.5t16 -88q4 39 10.5 86t15 98.5t18 105.5t21.5 104l208 918h207l-382 -1521h-195l-264 975q-15 53 -28.5 109.5t-25.5 105.5q-13 57 -23 111q-12 -53 -23 -110q-11 -50 -24 -107.5t-27 -113.5l-252 -970h-195 l-402 1521h205l232 -926q13 -46 23.5 -98t19 -103t15.5 -98.5t12 -86.5q5 38 13 89.5t18.5 107.5t22.5 113.5t25 108.5z" horiz-adv-x="1881" unicode="W"/><glyph d="M1165 0h-220l-368 660l-382 -660h-195l471 794l-438 727h205l346 -582l347 582h197l-438 -720z" horiz-adv-x="1165" unicode="X"/><glyph d="M560 751l354 770h208l-464 -929v-592h-194v581l-464 940h211z" horiz-adv-x="1122" unicode="Y"/><glyph d="M1060 0h-978v151l738 1197h-717v173h935v-151l-739 -1197h761v-173z" horiz-adv-x="1142" unicode="Z"/><glyph d="M585 -324h-421v1858h421v-155h-231v-1547h231v-156z" horiz-adv-x="637" unicode="["/><glyph d="M209 1521l565 -1521h-184l-567 1521h186z" horiz-adv-x="793" unicode="\"/><glyph d="M51 -168h231v1547h-231v155h423v-1858h-423v156z" horiz-adv-x="638" unicode="]"/><glyph d="M41 549l477 961h107l464 -961h-168l-350 764l-362 -764h-168z" horiz-adv-x="1130" unicode="^"/><glyph d="M880 -324h-884v146h884v-146z" horiz-adv-x="876" unicode="_"/><glyph d="M803 1241h-125q-37 29 -79.5 72.5t-82.5 89t-73 87.5t-50 71v21h229q15 -35 38 -77.5t47 -84t48.5 -81t47.5 -69.5v-29z" horiz-adv-x="1198" unicode="`"/><glyph d="M821 1l-38 158h-9q-34 -46 -68.5 -80t-74.5 -56t-90 -32.5t-115 -10.5q-73 0 -133 20t-104 62.5t-69.5 106t-25.5 152.5q0 170 120.5 261.5t365.5 99.5l191 8v71q0 69 -15 116t-43.5 75.5t-70.5 41.5t-97 13q-86 0 -160 -25.5t-143 -60.5l-66 143q77 42 171 70.5 t198 28.5q107 0 184 -21t128 -67.5t75.5 -118t24.5 -173.5v-782h-136zM474 133q63 0 117 19.5t94 60t62 101t22 142.5v104l-148 -8q-94 -4 -157.5 -21t-101.5 -46t-55 -71.5t-17 -95.5q0 -96 51 -140.5t133 -44.5z" horiz-adv-x="1120" unicode="a"/><glyph d="M690 1163q98 0 178 -37t137 -112t88 -184.5t31 -255.5q0 -147 -31 -257.5t-88 -186t-137 -113t-178 -37.5q-61 0 -111 13.5t-90.5 36t-71 53t-53.5 62.5h-13l-38 -144h-139v1618h190v-391q0 -36 -1.5 -77t-2.5 -76q-3 -42 -5 -82h9q23 36 53.5 67.5t70.5 54t90 35.5 t112 13zM654 1007q-83 0 -139 -26.5t-90 -80.5t-47.5 -135.5t-13.5 -190.5q0 -105 13.5 -187t47.5 -137t90.5 -84t140.5 -29q141 0 206.5 113.5t65.5 324.5q0 218 -65.5 325t-208.5 107z" horiz-adv-x="1236" unicode="b"/><glyph d="M614 -20q-106 0 -197 32.5t-158.5 104t-106.5 182t-39 266.5q0 164 39.5 277.5t109 185t162 103.5t199.5 32q80 0 157.5 -17.5t129.5 -43.5l-56 -160q-23 10 -52.5 20t-60.5 18t-61.5 12.5t-56.5 4.5q-164 0 -239 -104t-75 -325q0 -220 75.5 -321.5t229.5 -101.5 q84 0 152.5 19.5t123.5 45.5v-169q-55 -30 -119.5 -45.5t-156.5 -15.5z" horiz-adv-x="979" unicode="c"/></font>
</defs>
</svg>
