<svg xmlns="http://www.w3.org/2000/svg" xmlns:xlink="http://www.w3.org/1999/xlink" version="1.1"><metadata/><defs><font id="nafeesregular" horiz-adv-x="0"><font-face ascent="1638" descent="-410" units-per-em="2048"/><glyph d="M570 1835q-3 -25 -28 -60.5t-71 -64.5q-69 -45 -113 -67q-68 -34 -159.5 -57t-202.5 -23q-95 0 -152 9q-86 14 -120 52q-27 -19 -47.5 -50.5t-38.5 -51.5l-16 -2q-6 3 -8 5l-9 25q-6 22 65 127t97 111q8 0 48 -20l64 -28q30 -12 85.5 -22t102.5 -10h19l17 2 q118 11 209 40q142 45 239 136q11 0 15 -7.5t6 -23.5q0 -14 -2 -20zM525 0q-64 0 -103 14t-55.5 44t-33.5 102q-20 95 -37 227q-13 125 -33.5 281.5t-35.5 252.5q-4 36 -18 100l-17 88l18 99q11 63 20 63q6 0 10 -13q16 -46 32 -124q11 -60 28 -194l31 -244q22 -177 39 -284 q21 -144 38 -177q12 -27 40 -46q35 -23 77 -23v-166z" arabic-form="final" horiz-adv-x="525" unicode="آ"/><glyph d="M534 774q15 5 15 -11q0 -14 -9.5 -38t-19.5 -37q-26 -30 -82 -59q-141 -68 -166 -90l-17 -4l-15 1q-12 0 -13 10q0 13 33 46q8 7 19 17q16 14 29 24l-55 12q-21 10 -40 61q23 76 64.5 126.5t88.5 50.5q30 0 50 -23q4 -4 4 -21q0 -22 -5 -45l-3 -12l-15 -17q-3 -3 -18 -5 l-12 1l-11 1q-4 7 -5 13q0 12 -5 12q-41 -5 -54 -12.5t-13 -24.5q31 -32 62 -41l58 -14q41 15 74 38zM604 0h-45q-5 -44 -50 -126q-52 -97 -124 -171q-89 -93 -182 -123q-119 12 -253.5 47t-134.5 50q0 6 27 6l83 -1q12 0 37 -1t38 -1q86 0 150 19q80 23 203 127.5 t149 173.5h-30l-31 -1q-91 0 -135 24q-66 36 -66 139q0 53 48 145q54 101 111 111q30 5 88 -74q62 -84 84 -178h33v-166zM432 170q0 24 -16.5 54.5t-44.5 27.5q-24 0 -38 -27l-7 -28q18 -15 42 -24q28 -7 44 -7l12 1z" arabic-form="final" horiz-adv-x="604" unicode="ؤ"/><glyph d="M177 871q15 5 15 -11q0 -14 -9.5 -38t-19.5 -37q-26 -30 -82 -59q-141 -68 -166 -90l-16 -4l-16 1q-12 0 -13 10q0 13 33 46q8 7 19 17q16 14 29 24l-55 12q-21 10 -40 61q23 77 64.5 127t88.5 50q30 0 50 -23q4 -4 4 -21q0 -22 -5 -45l-3 -12l-15 -17q-3 -3 -18 -5 l-12 1l-11 1q-4 7 -5 13q0 12 -5 12q-41 -5 -54 -12.5t-13 -24.5q30 -32 63 -41l57 -14q41 15 74 38zM170 238v-44q-3 -16 -4 -23q-4 -28 -12.5 -56.5t-23.5 -61t-63 -45.5q-30 -8 -77 -8v166q35 0 65.5 12t36.5 37q-13 35 -44 79q-25 35 -31 75l18 50q15 44 27 64q6 2 10 2 q22 0 48 -48q36 -68 50 -199z" arabic-form="initial" horiz-adv-x="186" unicode="ئ"/><glyph d="M282 1230q15 5 15 -11q0 -14 -9.5 -38t-19.5 -37q-26 -30 -82 -59q-141 -68 -166 -90l-17 -4l-15 1q-12 0 -13 10q0 13 33 46q8 7 19 17q16 14 29 24l-55 12q-21 10 -40 61q23 76 64.5 126.5t88.5 50.5q30 0 50 -23q4 -4 4 -21q0 -22 -5 -45l-3 -12l-15 -17q-3 -3 -18 -5 l-12 1l-11 1q-4 7 -5 13q0 12 -5 12q-41 -5 -54 -12.5t-13 -24.5q31 -32 62 -41l58 -14q41 15 74 38zM403 0q-35 0 -103 36.5t-97 36.5l-20 -3l-79 -42q-53 -30 -104 -30v168q68 14 99 27l83 40l18 2q32 0 104 -34.5t99 -34.5v-166z" arabic-form="medial" horiz-adv-x="403" unicode="ئ"/><glyph d="M328 548q15 5 15 -11q0 -14 -9.5 -38t-19.5 -37q-26 -30 -82 -59q-141 -68 -166 -90l-17 -4l-15 1q-12 0 -13 10q0 13 33 46q8 7 19 17q16 14 29 24l-55 12q-21 10 -40 61q23 76 64.5 126.5t88.5 50.5q30 0 50 -23q4 -4 4 -21q0 -22 -5 -45l-3 -12l-15 -17q-3 -3 -18 -5 l-12 1l-11 1q-4 7 -5 13q0 12 -5 12q-41 -5 -54 -12.5t-13 -24.5q31 -32 62 -41l58 -14q41 15 74 38zM1047 -195q-3 -20 -9 -39t-16 -40q-13 -31 -40 -72q-55 -46 -117.5 -89t-131.5 -81q-112 -61 -235 -101q-51 -16 -95.5 -25t-76.5 -9q-120 0 -217 98q-110 112 -110 291 q0 35 6 72t20.5 87.5t36.5 96.5t49 78q9 11 23 20.5t22 11.5q3 0 4 -3t-1 -10q-3 -14 -19 -42q-26 -43 -45 -120.5t-19 -129.5q0 -115 86 -198q83 -80 189 -80h11q51 0 102 11q96 19 202 65q140 59 291 163q9 6 9 24q0 10 -5 15q-12 15 -148 42q-96 18 -157 38 q-19 10 -19 34q0 25 21 67l21 36q84 71 204 115q97 35 164 35v-166l-90 -3q-36 -3 -54.5 -10.5t-30.5 -16.5t-14 -15q0 -5 15 -8l68 -14q45 -10 71 -25q35 -29 35 -103z" arabic-form="final" horiz-adv-x="1047" unicode="ئ"/><glyph d="M525 0q-64 0 -103 14t-55.5 44t-33.5 102q-20 95 -37 227q-13 125 -33.5 281.5t-35.5 252.5q-4 36 -18 100l-17 88l18 99q11 63 20 63q6 0 10 -13q16 -46 32 -124q11 -60 28 -194l31 -244q22 -177 39 -284q21 -144 38 -177q12 -27 40 -46q35 -23 77 -23v-166z" arabic-form="final" horiz-adv-x="525" unicode="ا"/><glyph d="M180 238v-44q-3 -16 -4 -23q-4 -28 -12.5 -56.5t-23.5 -61t-63 -45.5q-30 -8 -77 -8v166q35 0 65.5 12t36.5 37q-13 35 -44 79q-25 35 -31 75l18 50q15 44 27 64q6 2 10 2q22 0 48 -48q36 -68 50 -199zM216 -624q-28 -93 -45 -108q-5 -3 -13 -3q-19 0 -68 17 q-67 23 -67 52q0 5 6 16l33 72q18 44 38 44l14 -3l73 -34q31 -19 31 -40z" arabic-form="initial" horiz-adv-x="246" unicode="ب"/><glyph d="M451 0q-23 0 -67 17q-58 22 -96 53q-20 17 -38 55l-20 45q-72 -105 -100 -127q-58 -43 -130 -43v166q32 0 71 7.5t63 19.5q38 15 94 116q25 43 44 43q7 0 16 -5l-2 -26l-2 -38q3 -23 65 -70t102 -47v-166zM245 -477l-27 -75q-8 -22 -20 -34q-9 -4 -53 6q-96 24 -96 60 q0 6 6 14.5t34 74.5q18 45 39 45l14 -3l73 -35q32 -18 32 -40z" arabic-form="medial" horiz-adv-x="451" unicode="ب"/><glyph d="M1469 0q-61 0 -130 78q-14 17 -56 76q-33 -42 -49 -58q-29 -29 -71 -53q-13 -7 -109 -34q-116 -33 -255 -59q-178 -32 -312 -32q-193 0 -326 68q-161 81 -161 237q0 83 56 199l46 45q3 -5 3 -11q0 -13 -5 -27l-8 -28l-4 -64q0 -31 4 -42q30 -102 147 -152 q108 -45 298 -45q206 0 371 30q189 34 342 110q28 12 40 47l7 26q10 22 19 23q8 0 12.5 -17.5t4.5 -38.5q0 -12 -2 -18l-6 -24l-7 -27q32 -23 57 -31q41 -12 94 -12v-166zM930 -356l-21 -63q-12 -36 -26 -48q-4 -2 -10 -2q-19 0 -72 18q-67 23 -67 51q0 9 6.5 18t32.5 71 q18 44 39 44l13 -3l74 -34q33 -18 33 -41z" arabic-form="final" horiz-adv-x="1469" unicode="ب"/><glyph d="M217 944q0 -19 -16 -63q-21 -58 -49 -62q-23 0 -60 33t-51 59q5 20 14 40q2 5 18 32q24 47 38 51q9 0 54.5 -33.5t51.5 -56.5zM23 870q3 -16 -15 -68t-37 -52q-14 2 -65.5 33.5t-55.5 47.5q-3 9 13 46q21 45 45 81q14 -6 54 -35t61 -53zM180 238v-44q-3 -16 -4 -23 q-4 -28 -12.5 -56.5t-23.5 -61t-63 -45.5q-30 -8 -77 -8v166q35 0 65.5 12t36.5 37q-13 35 -44 79q-25 35 -31 75l18 50q15 44 27 64q6 2 10 2q22 0 48 -48q36 -68 50 -199z" arabic-form="initial" horiz-adv-x="287" unicode="ت"/><glyph d="M247 1126q0 -20 -17 -64q-21 -57 -49 -61q-24 0 -62 35q-32 29 -49 57q10 24 34 71t34 51q11 0 55 -31q48 -35 54 -58zM74 1054q5 -16 -13 -66.5t-34 -53.5q-17 0 -69 32.5t-56 49.5q-4 12 36 88l23 39q20 -9 54 -35.5t59 -53.5zM403 0q-35 0 -103 36.5t-97 36.5l-20 -3 l-79 -42q-53 -30 -104 -30v168q68 14 99 27l83 40l18 2q32 0 104 -34.5t99 -34.5v-166z" arabic-form="medial" horiz-adv-x="403" unicode="ت"/><glyph d="M922 729q0 -17 -17 -61q-22 -58 -49 -62q-25 3 -61 35q-12 11 -23 23q-18 20 -27 34q10 28 34 73.5t34 49.5q11 0 55 -32q48 -36 54 -60zM725 657q3 -17 -14 -67.5t-33 -50.5q-18 0 -70.5 31t-52.5 48q-3 9 13 46q12 26 23.5 46.5t20.5 34.5q19 -8 53 -35q27 -21 40 -33 q8 -7 20 -20zM1469 0q-61 0 -130 78q-14 17 -56 76q-33 -42 -49 -58q-29 -29 -71 -53q-13 -7 -109 -34q-116 -33 -255 -59q-178 -32 -312 -32q-193 0 -326 68q-161 81 -161 237q0 83 56 199l46 45q3 -5 3 -11q0 -13 -5 -27l-8 -28l-4 -64q0 -31 4 -42q30 -102 147 -152 q108 -45 298 -45q206 0 371 30q189 34 342 110q28 12 40 47l7 26q10 22 19 23q8 0 12.5 -17.5t4.5 -38.5q0 -12 -2 -18l-6 -24l-7 -27q32 -23 57 -31q41 -12 94 -12v-166z" arabic-form="final" horiz-adv-x="1469" unicode="ت"/><glyph d="M125 1169l1 -10q0 -24 -23 -69l-33 -60l-62 29q-57 42 -51 65q0 34 45 120q5 5 15 7q12 0 34 -19q66 -59 74 -63zM262 965q0 -15 -19 -66q-23 -63 -44 -63q-15 0 -61 38t-46 62l16 39q21 53 33 92q21 -8 40.5 -17.5t36.5 -20.5q52 -34 44 -64zM53 936q-9 -41 -16 -58 q-19 -59 -39 -67q-11 -6 -62 32l-49 40q0 38 33 113q19 44 37 34l87 -53q9 -6 9 -41zM180 238v-44q-3 -16 -4 -23q-4 -28 -12.5 -56.5t-23.5 -61t-63 -45.5q-30 -8 -77 -8v166q35 0 65.5 12t36.5 37q-13 35 -44 79q-25 35 -31 75l18 50q15 44 27 64q6 2 10 2q22 0 48 -48 q36 -68 50 -199z" arabic-form="initial" horiz-adv-x="268" unicode="ث"/><glyph d="M104 1238q0 -29 -29 -93l-22 -47q-4 -7 -30 12l-31 27l-39 29q-19 16 -17 27l13 40q13 38 30 70q8 19 22 19q10 0 18 -5q10 -3 26 -14q26 -12 43 -30q5 -5 10.5 -14t5.5 -21zM243 1057q0 -19 -17 -67q-21 -64 -43 -64t-78 53q-32 30 -32 47l14 35l34 89q5 5 9 5 q23 0 68 -35.5t45 -62.5zM32 1005l-15 -58q-18 -60 -38 -69q-11 -5 -61 34l-49 40q0 40 31 111q19 44 36 35l82 -46q14 -9 14 -27v-20zM451 0q-23 0 -67 17q-58 22 -96 53q-20 17 -38 55l-20 45q-72 -105 -100 -127q-58 -43 -130 -43v166q32 0 71 7.5t63 19.5q38 15 94 116 q25 43 44 43q7 0 16 -5l-2 -26l-2 -38q3 -23 65 -70t102 -47v-166z" arabic-form="medial" horiz-adv-x="450" unicode="ث"/><glyph d="M768 918q0 -22 -22 -73l-31 -67q-1 -4 -4.5 -3t-8.5 3l-49 37l-38 31q-18 16 -15 26q3 16 12 41q13 40 29 70q0 19 18 19q12 0 22 -5q9 -3 12.5 -4.5t15.5 -9.5q24 -12 41.5 -30.5t17.5 -34.5zM905 713q0 -15 -19 -66q-23 -63 -44 -63q-14 0 -59 36q-48 39 -48 62 q9 26 11.5 33t11.5 28l26 72q42 -16 72 -38q49 -34 49 -64zM696 682q-10 -41 -16 -57q-19 -57 -39 -68q-9 -4 -61 33l-50 39q0 38 34 113q21 45 36 36l82 -49q14 -9 14 -28v-19zM1469 0q-61 0 -130 78q-14 17 -56 76q-33 -42 -49 -58q-29 -29 -71 -53q-13 -7 -109 -34 q-116 -33 -255 -59q-178 -32 -312 -32q-193 0 -326 68q-161 81 -161 237q0 83 56 199l46 45q3 -5 3 -11q0 -13 -5 -27l-8 -28l-4 -64q0 -31 4 -42q30 -102 147 -152q108 -45 298 -45q206 0 371 30q189 34 342 110q28 12 40 47l7 26q10 22 19 23q8 0 12.5 -17.5t4.5 -38.5 q0 -12 -2 -18l-6 -24l-7 -27q32 -23 57 -31q41 -12 94 -12v-166z" arabic-form="final" horiz-adv-x="1469" unicode="ث"/><glyph d="M1053 329l-31 -86q-6 -15 -23 -21.5t-47 -6.5h-39q-21 3 -31 4l-137 10q-66 0 -209 -59q-79 -32 -133 -54q-65 -26 -134 -56q-164 -60 -269 -60v166q107 0 235 30q102 24 195 60q66 26 105 48q-68 13 -115.5 30.5t-76.5 26.5t-41 9q-20 0 -75 -22.5t-130 -22.5 q-22 0 -22 13q0 8 5 19l30 78q20 50 40 72q39 27 68 40q41 19 70 19q60 0 114 -30l106 -57q78 -40 255 -84q89 -21 155.5 -32t111.5 -11l13 1q15 0 15 -7l-1 -6zM799 -202q-30 -94 -48 -109q-2 -2 -11 -2q-22 0 -69 17q-68 24 -68 52q0 8 5 16q6 5 34 73q18 44 39 44l14 -4 l74 -35q32 -18 32 -40z" arabic-form="initial" horiz-adv-x="1004" unicode="ج"/><glyph d="M1081 0l-64 -2l-95 -2q-70 0 -111 44q-33 36 -39 89l-1 18q0 18 1 26.5t7 33.5l-1 26h-13q-20 0 -31 -1t-39 -7q-42 -6 -93 -28l-102 -38q-67 -23 -121 -48l-145 -62q-57 -20 -117 -37l-63 -9l-54 -3v166q136 0 313 51q141 42 217 84l-103 35q-110 35 -132 35 q-32 0 -60 -11l-71 -26l-56 -10l-32 -2l36 125q9 29 42 63l72 39q38 16 81 16q25 0 138 -54q145 -69 247 -102q177 -55 346 -55l8 -7q4 -4 6 -7t3 -6q0 -25 -22 -72q-5 -11 -10.5 -21t-12.5 -22l-27 -1h-29h-27h-24q-10 2 -15.5 2.5t-22 3t-46.5 9.5q-6 -12 -6 -27t6 -24 q16 -15 41 -24q13 -3 27 -5t30 -2q33 0 88 7l76 8v-166zM741 -274q-28 -93 -49 -109q-3 -3 -12 -3q-18 0 -67 17q-67 23 -67 51q0 8 6 16t33 73q18 44 40 44l14 -3l72 -35q32 -18 32 -39z" arabic-form="medial" horiz-adv-x="1081" unicode="ج"/><glyph d="M836 -233q-30 -92 -48 -109q-6 -3 -15 -3q-29 0 -89 28q-44 21 -44 43q0 6 5 14q9 12 34 74q18 44 38 44l14 -3l74 -35q33 -18 33 -41zM1410 -799q19 0 19 -18q0 -6 -4 -13l-11 -14q-21 -16 -121.5 -56t-143.5 -71l-164 -53q-101 -23 -264 -23q-320 0 -470 162 q-136 148 -136 432q0 158 47 317q42 146 106 238q50 72 98 121.5t103 89.5l-22 1l-29 1h-49q-66 0 -217 -41q-38 -10 -70.5 -15t-65.5 -5q-2 3 -3 5q-5 10 -9 14q-8 13 -8 22q14 41 36 80q13 22 21.5 34.5t22.5 28.5l35 21q17 9 34 12q38 11 85 19q21 3 41 5t39 2 q33 0 49 -1t62.5 -6t78 -7t61.5 -2q55 0 78 1.5t75 6.5l177 19q21 0 30 -10q6 -6 6 -18l-1 -9l-29 -71q-12 -38 -20 -50l-123 -49l-3 -34l-2 -29l3 -28q3 -10 14 -15q24 -15 68 -23q42 -6 85 -6h33v-166q-22 0 -39.5 2.5t-37.5 7.5q-84 18 -121 62q-27 33 -39 70 q-4 16 -7 36t-3 38l3 41l3 26q-6 0 -72 -30q-45 -20 -82.5 -40t-73.5 -43q-96 -60 -145 -121q-74 -109 -107 -197q-36 -99 -36 -227q0 -184 95 -298q82 -99 236 -145q129 -38 303 -38q49 0 90.5 3t85.5 11l178 29q98 14 227 14z" arabic-form="final" horiz-adv-x="952" unicode="ج"/><glyph d="M1053 329l-31 -86q-6 -15 -23 -21.5t-47 -6.5h-39q-21 3 -31 4l-137 10q-66 0 -209 -59q-79 -32 -133 -54q-65 -26 -134 -56q-164 -60 -269 -60v166q107 0 235 30q102 24 195 60q66 26 105 48q-68 13 -115.5 30.5t-76.5 26.5t-41 9q-20 0 -75 -22.5t-130 -22.5 q-22 0 -22 13q0 8 5 19l30 78q20 50 40 72q39 27 68 40q41 19 70 19q60 0 114 -30l106 -57q78 -40 255 -84q89 -21 155.5 -32t111.5 -11l13 1q15 0 15 -7l-1 -6z" arabic-form="initial" horiz-adv-x="1004" unicode="ح"/><glyph d="M1081 0l-64 -2l-95 -2q-70 0 -111 44q-33 36 -39 89l-1 18q0 18 1 26.5t7 33.5l-1 26h-13q-20 0 -31 -1t-39 -7q-42 -6 -93 -28l-102 -38q-67 -23 -121 -48l-145 -62q-57 -20 -117 -37l-63 -9l-54 -3v166q136 0 313 51q141 42 217 84l-103 35q-110 35 -132 35 q-32 0 -60 -11l-71 -26l-56 -10l-32 -2l36 125q9 29 42 63l72 39q38 16 81 16q25 0 138 -54q145 -69 247 -102q177 -55 346 -55l8 -7q4 -4 6 -7t3 -6q0 -25 -22 -72q-5 -11 -10.5 -21t-12.5 -22l-27 -1h-29h-27h-24q-10 2 -15.5 2.5t-22 3t-46.5 9.5q-6 -12 -6 -27t6 -24 q16 -15 41 -24q13 -3 27 -5t30 -2q33 0 88 7l76 8v-166z" arabic-form="medial" horiz-adv-x="1081" unicode="ح"/><glyph d="M1410 -799q19 0 19 -18q0 -6 -4 -13l-11 -14q-21 -16 -121.5 -56t-143.5 -71l-164 -53q-101 -23 -264 -23q-320 0 -470 162q-136 148 -136 432q0 158 47 317q42 146 106 238q50 72 98 121.5t103 89.5l-22 1l-29 1h-49q-66 0 -217 -41q-38 -10 -70.5 -15t-65.5 -5 q-2 3 -3 5q-5 10 -9 14q-8 13 -8 22q14 41 36 80q13 22 21.5 34.5t22.5 28.5l35 21q17 9 34 12q38 11 85 19q21 3 41 5t39 2q33 0 49 -1t62.5 -6t78 -7t61.5 -2q55 0 78 1.5t75 6.5l177 19q21 0 30 -10q6 -6 6 -18l-1 -9l-29 -71q-12 -38 -20 -50l-123 -49l-3 -34l-2 -29 l3 -28q3 -10 14 -15q24 -15 68 -23q42 -6 85 -6h33v-166q-22 0 -39.5 2.5t-37.5 7.5q-84 18 -121 62q-27 33 -39 70q-4 16 -7 36t-3 38l3 41l3 26q-6 0 -72 -30q-45 -20 -82.5 -40t-73.5 -43q-96 -60 -145 -121q-74 -109 -107 -197q-36 -99 -36 -227q0 -184 95 -298 q82 -99 236 -145q129 -38 303 -38q49 0 90.5 3t85.5 11l178 29q98 14 227 14z" arabic-form="final" horiz-adv-x="952" unicode="ح"/><glyph d="M661 958l-27 -78q-5 -11 -9 -18t-11 -13q-3 -3 -13 -3q-17 0 -68 16q-68 24 -68 53q0 10 5 16.5t34 72.5q18 44 40 44q6 0 14 -4l73 -34q32 -18 32 -40zM1053 329l-31 -86q-6 -15 -23 -21.5t-47 -6.5h-39q-21 3 -31 4l-137 10q-66 0 -209 -59q-79 -32 -133 -54 q-65 -26 -134 -56q-164 -60 -269 -60v166q107 0 235 30q102 24 195 60q66 26 105 48q-68 13 -115.5 30.5t-76.5 26.5t-41 9q-20 0 -75 -22.5t-130 -22.5q-22 0 -22 13q0 8 5 19l30 78q20 50 40 72q39 27 68 40q41 19 70 19q60 0 114 -30l106 -57q78 -40 255 -84 q89 -21 155.5 -32t111.5 -11l13 1q15 0 15 -7l-1 -6z" arabic-form="initial" horiz-adv-x="1004" unicode="خ"/><glyph d="M594 1143l-22 -64q-11 -32 -25 -45q-3 -3 -12 -3q-20 0 -69 17q-68 23 -68 52q0 8 6.5 16.5t32.5 70.5q18 44 38 44l14 -3l74 -35q33 -18 33 -39zM1081 0l-64 -2l-95 -2q-70 0 -111 44q-33 36 -39 89l-1 18q0 18 1 26.5t7 33.5l-1 26h-13q-20 0 -31 -1t-39 -7 q-42 -6 -93 -28l-102 -38q-67 -23 -121 -48l-145 -62q-57 -20 -117 -37l-63 -9l-54 -3v166q136 0 313 51q141 42 217 84l-103 35q-110 35 -132 35q-32 0 -60 -11l-71 -26l-56 -10l-32 -2l36 125q9 29 42 63l72 39q38 16 81 16q25 0 138 -54q145 -69 247 -102 q177 -55 346 -55l8 -7q4 -4 6 -7t3 -6q0 -25 -22 -72q-5 -11 -10.5 -21t-12.5 -22l-27 -1h-29h-27h-24q-10 2 -15.5 2.5t-22 3t-46.5 9.5q-6 -12 -6 -27t6 -24q16 -15 41 -24q13 -3 27 -5t30 -2q33 0 88 7l76 8v-166z" arabic-form="medial" horiz-adv-x="1081" unicode="خ"/><glyph d="M527 902q-30 -92 -48 -109q-6 -3 -15 -3q-29 0 -89 28q-44 21 -44 43q0 6 5 14q9 12 34 74q18 44 38 44l14 -3l74 -35q33 -18 33 -41zM1410 -799q19 0 19 -18q0 -6 -4 -13l-11 -14q-21 -16 -121.5 -56t-143.5 -71l-164 -53q-101 -23 -264 -23q-320 0 -470 162 q-136 148 -136 432q0 158 47 317q42 146 106 238q50 72 98 121.5t103 89.5l-22 1l-29 1h-49q-66 0 -217 -41q-38 -10 -70.5 -15t-65.5 -5q-2 3 -3 5q-5 10 -9 14q-8 13 -8 22q14 41 36 80q13 22 21.5 34.5t22.5 28.5l35 21q17 9 34 12q38 11 85 19q21 3 41 5t39 2 q33 0 49 -1t62.5 -6t78 -7t61.5 -2q55 0 78 1.5t75 6.5l177 19q21 0 30 -10q6 -6 6 -18l-1 -9l-29 -71q-12 -38 -20 -50l-123 -49l-3 -34l-2 -29l3 -28q3 -10 14 -15q24 -15 68 -23q42 -6 85 -6h33v-166q-22 0 -39.5 2.5t-37.5 7.5q-84 18 -121 62q-27 33 -39 70 q-4 16 -7 36t-3 38l3 41l3 26q-6 0 -72 -30q-45 -20 -82.5 -40t-73.5 -43q-96 -60 -145 -121q-74 -109 -107 -197q-36 -99 -36 -227q0 -184 95 -298q82 -99 236 -145q129 -38 303 -38q49 0 90.5 3t85.5 11l178 29q98 14 227 14z" arabic-form="final" horiz-adv-x="952" unicode="خ"/><glyph d="M952 0q-88 0 -169 117q-34 51 -93 180q0 -150 -72 -248q-89 -119 -272 -119q-46 0 -82.5 41t-36.5 95q0 40 13 83q8 28 28 70q9 18 19 18q7 0 8 -14l-1 -22v-20q0 -44 11 -56q16 -16 66 -16q108 0 185 49q87 54 87 147q0 34 -25 132t-47 151v37v47q0 48 17 48 q3 -2 6 -4.5t8 -9.5l19 -32l73 -184q57 -139 112 -218q74 -106 146 -106v-166z" arabic-form="final" horiz-adv-x="952" unicode="د"/><glyph d="M526 1042q-15 -55 -24.5 -75.5t-22.5 -32.5q-3 -3 -12 -3q-17 0 -67 16q-67 24 -67 52q0 8 5 15t33 74q18 44 38 44q8 0 15 -4l72 -33q32 -18 32 -40q0 -9 -2 -13zM952 0q-88 0 -169 117q-34 51 -93 180q0 -150 -72 -248q-89 -119 -272 -119q-46 0 -82.5 41t-36.5 95 q0 40 13 83q8 28 28 70q9 18 19 18q7 0 8 -14l-1 -22v-20q0 -44 11 -56q16 -16 66 -16q108 0 185 49q87 54 87 147q0 34 -25 132t-47 151v37v47q0 48 17 48q3 -2 6 -4.5t8 -9.5l19 -32l73 -184q57 -139 112 -218q74 -106 146 -106v-166z" arabic-form="final" horiz-adv-x="952" unicode="ذ"/><glyph d="M657 0l-46 3l-60 9l-1 -16q0 -20 2 -30q0 -37 -4 -73.5t-13 -70.5q-27 -105 -93 -203q-33 -45 -85.5 -85.5t-114.5 -63.5h-67h-36h-25q-16 2 -22 2l-106 10q-40 15 -41 28q0 14 120 53q162 49 241 95q140 77 179 192q0 105 -25 177l-73 149l4 41q12 93 35 117l30 -21 q62 -91 78 -104l58 -25q32 -12 65 -18v-166z" arabic-form="final" horiz-adv-x="657" unicode="ر"/><glyph d="M377 689q-11 -45 -18 -62q-11 -33 -27 -47q-5 -3 -13 -3q-19 0 -68 17q-67 23 -67 52q0 6 6.5 15.5t32.5 72.5q18 44 39 44l13 -3l73 -34q31 -19 31 -39zM657 0l-46 3l-60 9l-1 -16q0 -20 2 -30q0 -37 -4 -73.5t-13 -70.5q-27 -105 -93 -203q-33 -45 -85.5 -85.5 t-114.5 -63.5h-67h-36h-25q-16 2 -22 2l-106 10q-40 15 -41 28q0 14 120 53q162 49 241 95q140 77 179 192q0 105 -25 177l-73 149l4 41q12 93 35 117l30 -21q62 -91 78 -104l58 -25q32 -12 65 -18v-166z" arabic-form="final" horiz-adv-x="657" unicode="ز"/><glyph d="M1030 373q0 -101 -39 -184q-47 -99 -129 -99q-41 0 -92 30l-53 34q-21 -53 -98.5 -87t-168.5 -34q-41 0 -77 6t-70 20l-73 -24l-62 -15q-19 -4 -51 -8.5t-69 -8.5l-58 -3v166q80 0 163.5 16.5t131.5 38.5q63 33 87 75l24 64q12 23 20 23q7 0 7 -25l-3 -39l-27 -98l23 -5 l18 -2l35 1q129 0 191 41q44 29 63 89q23 73 31 81q11 15 23 24.5t17 9.5q8 0 8 -18q0 -16 -3 -30t-5 -23l-16 -70q36 -35 55 -43l68 -12l41 17q0 35 -9 46q-3 4 -5 15q0 6 4 20t13 34q20 47 28 89q3 12 9 14q12 0 30 -47.5t18 -78.5z" arabic-form="initial" horiz-adv-x="1040" unicode="س"/><glyph d="M1129 0l-30 3q-29 4 -52 15q-40 17 -54 41l-61 105q-42 -92 -54 -106q-40 -46 -122 -46q-34 0 -76 21q-33 17 -59 41q-61 -44 -97 -58q-35 -12 -106 -12q-101 0 -147.5 23.5t-42.5 62.5q-44 -50 -141 -76q-9 -2 -48 -8q-20 -3 -39 -6v166q56 0 99 13q43 11 104 42 q23 11 79 60q17 14 38 20q17 3 17 -14q0 -11 -9 -34l-22 -42q3 -14 42 -25q17 -4 39 -7t41 -3q100 0 136 10q57 15 84 70q3 9 13 19t40 30l21 4q12 0 12 -11l-17 -53q-7 -22 -6 -32l31 -17q17 -6 43 -6q77 0 104 53q41 88 74 115q5 5 12 7q7 0 7 -17q0 -29 -19 -90 q27 -36 60 -57q42 -26 106 -35v-166z" arabic-form="medial" horiz-adv-x="1127" unicode="س"/><glyph d="M1582 0h-12l-17 -1h-19h-15q-10 2 -14 2q-23 3 -40 11q-31 14 -62 42q-26 26 -32 46l-33 -60q-25 -33 -90 -42l-41 -3q-43 0 -76.5 13.5t-75.5 52.5l-48 -37q-25 -15 -85 -26l-30 -2q-46 0 -106 16q0 -299 -155 -461q-141 -147 -373 -147q-105 0 -173 62q-85 79 -85 239 q0 31 5 64t18 81q28 110 75 170l27 29q12 12 17 12q4 -4 4 -6q0 -8 -5 -22l-47 -101q-14 -32 -21 -60t-7 -58q0 -105 57.5 -165.5t157.5 -60.5q83 0 157 19t137 58q144 87 144 237q0 107 -30 164l-44 79l20 115q12 54 25 55q12 0 22 -20l15 -29q19 -26 31 -49q6 -13 18 -24 q100 -25 138 -25q27 0 57 6l47 10q29 6 75 79q24 38 50 52q4 4 17 5q17 0 17 -17q0 -19 -12 -60l-12 -36q0 -15 36 -27q38 -11 83 -11l38 3q18 3 40 38l40 75q31 58 52 58q6 0 10 -14l4 -25q0 -10 -7 -27l-12 -37q54 -60 145 -76v-164z" arabic-form="final" horiz-adv-x="1582" unicode="س"/><glyph d="M719 995q0 -20 -24 -74l-29 -65q-4 -6 -30 12l-32 27l-37 29q-18 18 -18 26q3 16 13 41q14 39 30 72q0 17 17 17q11 0 22 -5l29 -12q25 -12 42 -31t17 -37zM856 791q0 -15 -19 -66q-23 -63 -44 -63q-15 0 -61 38t-46 62l23 60l26 73q42 -16 72 -38q49 -34 49 -66z M647 762q-9 -41 -16 -58q-19 -59 -39 -67q-9 -6 -61 32l-49 40q0 35 33 113l34 34l84 -48q14 -9 14 -27v-19zM1030 373q0 -101 -39 -184q-47 -99 -129 -99q-41 0 -92 30l-53 34q-21 -53 -98.5 -87t-168.5 -34q-41 0 -77 6t-70 20l-73 -24l-62 -15q-19 -4 -51 -8.5t-69 -8.5 l-58 -3v166q80 0 163.5 16.5t131.5 38.5q63 33 87 75l24 64q12 23 20 23q7 0 7 -25l-3 -39l-27 -98l23 -5l18 -2l35 1q129 0 191 41q44 29 63 89q23 73 31 81q11 15 23 24.5t17 9.5q8 0 8 -18q0 -16 -3 -30t-5 -23l-16 -70q36 -35 55 -43l68 -12l41 17q0 35 -9 46 q-3 4 -5 15q0 6 4 20t13 34q20 47 28 89q3 12 9 14q12 0 30 -47.5t18 -78.5z" arabic-form="initial" horiz-adv-x="1049" unicode="ش"/><glyph d="M651 974q0 -10 -3 -23t-11 -32q-12 -34 -39 -84l-19 5l-40 31l-39 31q-17 16 -16 25q3 12 7 25t10 29t11 28t15 30q0 18 18 18q9 0 20 -5q13 -3 27 -13q26 -12 43 -30q5 -5 10.5 -14t5.5 -21zM791 769q0 -17 -20 -67q-24 -64 -46 -64q-14 0 -58 38q-48 41 -48 62l23 61 l28 72q42 -16 72 -38q49 -34 49 -64zM580 738q-10 -41 -16 -57q-18 -58 -37 -68q-12 -4 -63 33l-50 39q0 38 34 113q21 45 36 37l82 -49q14 -9 14 -29v-19zM1129 0l-30 3q-29 4 -52 15q-40 17 -54 41l-61 105q-42 -92 -54 -106q-40 -46 -122 -46q-34 0 -76 21q-33 17 -59 41 q-61 -44 -97 -58q-35 -12 -106 -12q-101 0 -147.5 23.5t-42.5 62.5q-44 -50 -141 -76q-9 -2 -48 -8q-20 -3 -39 -6v166q56 0 99 13q43 11 104 42q23 11 79 60q17 14 38 20q17 3 17 -14q0 -11 -9 -34l-22 -42q3 -14 42 -25q17 -4 39 -7t41 -3q100 0 136 10q57 15 84 70 q3 9 13 19t40 30l21 4q12 0 12 -11l-17 -53q-7 -22 -6 -32l31 -17q17 -6 43 -6q77 0 104 53q41 88 74 115q5 5 12 7q7 0 7 -17q0 -29 -19 -90q27 -36 60 -57q42 -26 106 -35v-166z" arabic-form="medial" horiz-adv-x="1127" unicode="ش"/><glyph d="M1112 1006q0 -22 -22 -73l-31 -67q-1 -4 -4.5 -3t-8.5 3l-49 37l-36 31q-17 17 -17 27q1 4 4.5 15.5t9.5 28.5q12 35 27 66q0 19 18 19q12 0 23 -5q8 -2 13 -4.5t14 -9.5q24 -12 41.5 -30.5t17.5 -34.5zM1248 801q0 -15 -19 -66q-23 -63 -44 -63q-14 0 -58 37 q-48 41 -48 63l16 39l33 92q38 -15 71 -37q49 -34 49 -65zM1040 772l-16 -58q-19 -60 -39 -69q-9 -3 -61 34l-50 40q0 37 34 112q21 44 36 35l82 -49q14 -9 14 -27v-18zM1582 0h-12l-17 -1h-19h-15q-10 2 -14 2q-23 3 -40 11q-31 14 -62 42q-26 26 -32 46l-33 -60 q-25 -33 -90 -42l-41 -3q-43 0 -76.5 13.5t-75.5 52.5l-48 -37q-25 -15 -85 -26l-30 -2q-46 0 -106 16q0 -299 -155 -461q-141 -147 -373 -147q-105 0 -173 62q-85 79 -85 239q0 31 5 64t18 81q28 110 75 170l27 29q12 12 17 12q4 -4 4 -6q0 -8 -5 -22l-47 -101 q-14 -32 -21 -60t-7 -58q0 -105 57.5 -165.5t157.5 -60.5q83 0 157 19t137 58q144 87 144 237q0 107 -30 164l-44 79l20 115q12 54 25 55q12 0 22 -20l15 -29q19 -26 31 -49q6 -13 18 -24q100 -25 138 -25q27 0 57 6l47 10q29 6 75 79q24 38 50 52q4 4 17 5q17 0 17 -17 q0 -19 -12 -60l-12 -36q0 -15 36 -27q38 -11 83 -11l38 3q18 3 40 38l40 75q31 58 52 58q6 0 10 -14l4 -25q0 -10 -7 -27l-12 -37q54 -60 145 -76v-164z" arabic-form="final" horiz-adv-x="1582" unicode="ش"/><glyph d="M1270 441q-13 -58 -30 -99q-7 -19 -20.5 -45.5t-33.5 -61.5q-107 -104 -294 -160q-74 -22 -143 -33t-138 -11l-78 6l-116 14q-18 -49 -28 -64q-14 -25 -51 -56q-6 -6 -10.5 2t-6.5 26l3 17l15 39q9 24 27 57q-21 12 -52 37l-53 46q-15 -48 -59 -82q-31 -25 -75 -41 t-79 -24t-68 -8v166q48 0 108.5 15t93.5 38q5 3 46 45q29 29 61 38l88 -37q83 -36 95 -38q35 53 141 148q113 100 220 169q126 81 191 81q66 0 153 -54q95 -59 95 -116zM1140 344q0 24 -15 36q-88 71 -162 71q-52 0 -122 -37q-28 -15 -59 -35t-73 -54l-143 -111 q87 -9 121 -9q13 0 17 1q123 13 233 48q81 26 147 59z" arabic-form="initial" horiz-adv-x="1286" unicode="ص"/><glyph d="M1240 0l-176 -16q-25 0 -93 -5q-27 -2 -49 -2q-64 0 -134 10q-38 5 -70 11q-12 2 -56 12l-109 -21q-45 -9 -88 -9h-32l-25 -1q-14 0 -20 2q-5 0 -26 9q-16 -12 -63 -108q-18 -40 -29 -40q-6 0 -12 17q4 20 8 33t15 43l24 67q-50 0 -78.5 54.5t-52.5 54.5q-25 0 -85 -56 q-31 -28 -52.5 -41.5t-36.5 -13.5v166q57 0 105 27q8 4 26.5 16.5t42.5 30.5q8 5 19 7q8 0 63.5 -47.5t128.5 -47.5q95 100 155 157q117 113 198 174q109 82 163 82q26 0 56 -9t67 -29q86 -45 86 -101q0 -41 -13 -80.5t-43 -85.5q-55 -85 -132 -133l45 3q28 0 58 4 q27 5 39 6l90 12l86 14v-166zM1001 334q-25 19 -74 34t-91 15q-68 0 -180 -97q-17 -14 -138 -136q90 0 211 40q103 34 187.5 80t84.5 64z" arabic-form="medial" horiz-adv-x="1240" unicode="ص"/><glyph d="M1633 0q-81 0 -217 -20l-215 -29l-140 -15l-86 -4q-40 0 -75 6l-69 13q0 -61 -12.5 -127.5t-30.5 -118.5q-30 -96 -166 -198q-154 -115 -307 -115q-128 0 -222.5 99.5t-94.5 242.5q0 33 8 74.5t27.5 108t39 109.5t40.5 64q16 0 16 -16q0 -9 -2 -13l-36 -109 q-23 -78 -23 -114q0 -95 68 -172q78 -90 206 -90q98 0 200 45q79 37 144 91q47 39 68 73q5 7 8 22l2 31q0 70 -43 190q-29 84 -57 136q4 26 21 64l26 61q21 -20 38 -40.5t28 -36.5l46 -77q32 -6 49 -6l149 137q118 105 194 159q109 77 164 77q54 0 128 -40q83 -45 83 -91 l1 -12l1 -14q0 -24 -16 -59q-22 -46 -84 -136l68 11q36 4 50 4.5t23 0.5v-166zM1457 248q-37 43 -52 56q-30 24 -69 24q-71 0 -140 -33q-52 -25 -113 -79l-108 -99q160 0 304 46q111 35 178 85z" arabic-form="final" horiz-adv-x="1633" unicode="ص"/><glyph d="M682 1047q-29 -93 -47 -109q-6 -3 -15 -3q-29 0 -89 28q-44 21 -44 43q0 6 6 15l34 73q18 44 40 44l13 -3l72 -35q32 -18 32 -40q0 -9 -2 -13zM1270 441q-13 -58 -30 -99q-7 -19 -20.5 -45.5t-33.5 -61.5q-107 -104 -294 -160q-74 -22 -143 -33t-138 -11l-78 6l-116 14 q-18 -49 -28 -64q-14 -25 -51 -56q-6 -6 -10.5 2t-6.5 26l3 17l15 39q9 24 27 57q-21 12 -52 37l-53 46q-15 -48 -59 -82q-31 -25 -75 -41t-79 -24t-68 -8v166q48 0 108.5 15t93.5 38q5 3 46 45q29 29 61 38l88 -37q83 -36 95 -38q35 53 141 148q113 100 220 169 q126 81 191 81q66 0 153 -54q95 -59 95 -116zM1140 344q0 24 -15 36q-88 71 -162 71q-52 0 -122 -37q-28 -15 -59 -35t-73 -54l-143 -111q87 -9 121 -9q13 0 17 1q123 13 233 48q81 26 147 59z" arabic-form="initial" horiz-adv-x="1286" unicode="ض"/><glyph d="M702 1047q-29 -93 -47 -109q-6 -3 -15 -3q-29 0 -89 28q-44 21 -44 43q0 6 6 15l34 73q18 44 40 44l13 -3l72 -35q32 -18 32 -40q0 -9 -2 -13zM1240 0l-176 -16q-25 0 -93 -5q-27 -2 -49 -2q-64 0 -134 10q-38 5 -70 11q-12 2 -56 12l-109 -21q-45 -9 -88 -9h-32l-25 -1 q-14 0 -20 2q-5 0 -26 9q-16 -12 -63 -108q-18 -40 -29 -40q-6 0 -12 17q4 20 8 33t15 43l24 67q-50 0 -78.5 54.5t-52.5 54.5q-25 0 -85 -56q-31 -28 -52.5 -41.5t-36.5 -13.5v166q57 0 105 27q8 4 26.5 16.5t42.5 30.5q8 5 19 7q8 0 63.5 -47.5t128.5 -47.5 q95 100 155 157q117 113 198 174q109 82 163 82q26 0 56 -9t67 -29q86 -45 86 -101q0 -41 -13 -80.5t-43 -85.5q-55 -85 -132 -133l45 3q28 0 58 4q27 5 39 6l90 12l86 14v-166zM1001 334q-25 19 -74 34t-91 15q-68 0 -180 -97q-17 -14 -138 -136q90 0 211 40 q103 34 187.5 80t84.5 64z" arabic-form="medial" horiz-adv-x="1240" unicode="ض"/><glyph d="M1633 0q-81 0 -217 -20l-215 -29l-140 -15l-86 -4q-40 0 -75 6l-69 13q0 -61 -12.5 -127.5t-30.5 -118.5q-30 -96 -166 -198q-154 -115 -307 -115q-128 0 -222.5 99.5t-94.5 242.5q0 33 8 74.5t27.5 108t39 109.5t40.5 64q16 0 16 -16q0 -9 -2 -13l-36 -109 q-23 -78 -23 -114q0 -95 68 -172q78 -90 206 -90q98 0 200 45q79 37 144 91q47 39 68 73q5 7 8 22l2 31q0 70 -43 190q-29 84 -57 136q4 26 21 64l26 61q21 -20 38 -40.5t28 -36.5l46 -77q32 -6 49 -6l149 137q118 105 194 159q109 77 164 77q54 0 128 -40q83 -45 83 -91 l1 -12l1 -14q0 -24 -16 -59q-22 -46 -84 -136l68 11q36 4 50 4.5t23 0.5v-166zM1457 248q-37 43 -52 56q-30 24 -69 24q-71 0 -140 -33q-52 -25 -113 -79l-108 -99q160 0 304 46q111 35 178 85zM1131 761q-11 -45 -18 -62q-11 -33 -27 -47q-5 -3 -13 -3q-19 0 -68 17 q-67 23 -67 52q0 6 6.5 15.5t32.5 72.5q18 44 39 44l13 -3l73 -34q31 -19 31 -39z" arabic-form="final" horiz-adv-x="1633" unicode="ض"/><glyph d="M883 465q-11 -58 -25 -93q-12 -35 -39 -73q-19 -33 -40.5 -58.5t-49.5 -47.5q-53 -42 -193 -93q-132 -45 -251 -69q-84 -14 -208 -26l-87 -5v168h21h15q10 2 14 2l42 4l51 48l35 40q0 55 -12 130l-16 102l-36 192l-37 190l-34 164q-12 50 -28 89q-12 29 -15 54v26.5 t2.5 24.5t4 18t9.5 25l13 33q10 20 24 26q9 3 13 -10q9 -44 12 -49l51 -44q25 -25 25 -48q0 -14 -12 -56l-29 -87l65 -293q13 -61 26 -128.5t21.5 -126.5t8.5 -116q0 -49 -7 -83q24 12 72 60q138 139 160 157q39 32 94 53t109 21q55 0 130 -28q101 -36 101 -93zM754 350 q-10 10 -25 22t-29 22q-26 17 -55 28q-16 4 -34.5 7t-36.5 3h-11l-10 -2q-27 -5 -61.5 -23.5t-77.5 -50.5q-63 -47 -132 -112l-59 -58l77 11q89 15 175 43q48 14 75 23t72 27q87 33 132 60z" arabic-form="initial" horiz-adv-x="893" unicode="ط"/><glyph d="M928 0l-57 -3l-152 -7h-17h-15h-12q-22 0 -43 1t-42 4q-48 0 -148 17q-16 5 -39 8t-55 3q-51 0 -124 -7q-189 -16 -224 -16v166l34 2l29 2l53 51q26 26 50 58q0 75 -30 213l-61 277q-41 188 -57 325q-5 11 -11 25.5t-13 36.5l-21 81l30 97q19 57 32 58q2 -2 4 -4.5 t4 -9.5q9 -60 60.5 -102.5t52.5 -58.5q0 -23 -15.5 -74t-34.5 -66q0 -22 24 -156q10 -56 19 -104.5t25 -127.5l27 -132q15 -111 15 -162v-28q-3 -12 -4 -18l-7 -44l189 156q98 82 142 109q66 40 117 40q49 0 118 -44q83 -53 83 -120q0 -66 -60 -165q-51 -85 -133 -144 q39 0 152 19q27 4 58 7t57 3v-166zM729 356l-53 50q-35 22 -105 22q-44 0 -108 -41q-54 -32 -128 -96q-50 -42 -118 -109q138 0 320 67q169 63 192 107z" arabic-form="medial" horiz-adv-x="928" unicode="ط"/><glyph d="M1257 0l-228 -31l-198 -22l-413 -76q-48 5 -94 12.5t-95 19.5l-190 44q-10 3 -32.5 15.5t-24.5 23.5q0 12 38 16l195 18l96 11q55 26 90 55q24 19 70 70q0 123 -28 300q-9 61 -23.5 138t-37.5 184l-56 266q-20 14 -35 60q-4 14 -7 29.5t-3 25.5q0 40 18.5 107t32.5 67 q6 0 10 -26q9 -58 41 -90l45 -46q6 -12 6 -21t-12 -42l-16 -49l75 -376q26 -133 33 -187q3 -27 5 -57t2 -64v-17v-15v-15v-13v-13v-11l-1 -40v-42v-14l146 124q89 73 156 112q84 48 145 48q72 0 152.5 -48.5t80.5 -96.5q0 -43 -28 -108q-24 -58 -64 -93l71 18l78 15v-166z M1077 238q-9 15 -68.5 42t-86.5 27q-72 0 -158 -49q-66 -37 -143 -106q-39 -34 -105 -103l143 21q122 19 211 51q126 45 207 117z" arabic-form="final" horiz-adv-x="1257" unicode="ط"/><glyph d="M543 1061q-18 -58 -26 -77t-21 -32q-3 -3 -12 -3q-20 0 -69 17q-68 23 -68 52q0 7 6 16l33 72q18 44 39 44l14 -3l74 -35q32 -18 32 -40zM883 465q-11 -58 -25 -93q-12 -35 -39 -73q-19 -33 -40.5 -58.5t-49.5 -47.5q-53 -42 -193 -93q-132 -45 -251 -69 q-84 -14 -208 -26l-87 -5v168h21h15q10 2 14 2l42 4l51 48l35 40q0 55 -12 130l-16 102l-36 192l-37 190l-34 164q-12 49 -28 89q-12 29 -15 55v26.5t2.5 24.5t4 18t9.5 25l13 33q10 20 24 26q9 3 13 -10q9 -44 12 -49l51 -44q25 -25 25 -48q0 -16 -12 -57l-29 -87l65 -293 q13 -61 26 -128.5t21.5 -126.5t8.5 -116q0 -49 -7 -83q24 12 72 60q138 139 160 157q39 32 94 53t109 21q55 0 130 -28q101 -36 101 -93zM754 350q-10 10 -25 22t-29 22q-26 17 -55 28q-16 4 -34.5 7t-36.5 3h-11l-10 -2q-27 -5 -61.5 -23.5t-77.5 -50.5q-63 -47 -132 -112 l-59 -58l77 11q89 15 175 43q48 14 75 23t72 27q87 33 132 60z" arabic-form="initial" horiz-adv-x="893" unicode="ظ"/><glyph d="M557 1001l-27 -76q-8 -21 -20 -30q-3 -3 -12 -3q-20 0 -69 17q-68 23 -68 52q0 7 6 16l33 72q18 44 39 44l14 -3l74 -34q32 -18 32 -43zM928 0l-57 -3l-152 -7h-17h-15h-12q-22 0 -43 1t-42 4q-48 0 -148 17q-16 5 -39 8t-55 3q-51 0 -124 -7q-189 -16 -224 -16v166l34 2 l29 2l53 51q26 26 50 58q0 75 -30 213l-61 277q-41 188 -57 325q-5 11 -11 25.5t-13 36.5l-21 81l30 97q19 57 32 58q2 -2 4 -4.5t4 -9.5q9 -60 60.5 -102.5t52.5 -58.5q0 -23 -15.5 -74t-34.5 -66q0 -22 24 -156q10 -56 19 -104.5t25 -127.5l27 -132q15 -111 15 -162v-28 q-3 -12 -4 -18l-7 -44l189 156q98 82 142 109q66 40 117 40q49 0 118 -44q83 -53 83 -120q0 -66 -60 -165q-51 -85 -133 -144q39 0 152 19q27 4 58 7t57 3v-166zM729 356l-53 50q-35 22 -105 22q-44 0 -108 -41q-54 -32 -128 -96q-50 -42 -118 -109q138 0 320 67 q169 63 192 107z" arabic-form="medial" horiz-adv-x="928" unicode="ظ"/><glyph d="M942 948q-29 -93 -47 -106l-11 -2q-34 0 -81 19q-56 23 -56 49q0 5 6 16q3 5 8 15.5t16 36.5q24 62 48 62q7 0 15 -4l72 -34q32 -18 32 -41zM1257 0l-228 -31l-198 -22l-413 -76q-48 5 -94 12.5t-95 19.5l-190 44q-10 3 -32.5 15.5t-24.5 23.5q0 12 38 16l195 18l96 11 q55 26 90 55q24 19 70 70q0 123 -28 300q-9 61 -23.5 138t-37.5 184l-56 266q-20 14 -35 60q-4 14 -7 29.5t-3 25.5q0 40 18.5 107t32.5 67q6 0 10 -26q9 -58 41 -90l45 -46q6 -12 6 -21t-12 -42l-16 -49l75 -376q26 -133 33 -187q3 -27 5 -57t2 -64v-17v-15v-15v-13v-13 v-11l-1 -40v-42v-14l146 124q89 73 156 112q84 48 145 48q72 0 152.5 -48.5t80.5 -96.5q0 -43 -28 -108q-24 -58 -64 -93l71 18l78 15v-166zM1077 238q-9 15 -68.5 42t-86.5 27q-72 0 -158 -49q-66 -37 -143 -106q-39 -34 -105 -103l143 21q122 19 211 51q126 45 207 117z" arabic-form="final" horiz-adv-x="1257" unicode="ظ"/><glyph d="M799 467q-3 -34 -25 -81l-22 -44q-67 -58 -244 -146q-75 -37 -156 -72q-73 -32 -159 -65q-159 -59 -203 -59v166q32 0 107.5 20.5t111.5 36.5q-37 28 -68 75q-34 54 -34 101q15 102 51 180q45 99 113 146q18 12 39 16.5t34.5 6.5t28.5 2l12 1q41 0 109 -36q54 -28 96 -66 l20 -17q15 -12 15 -19t-29 -7q-23 0 -77 16q-30 9 -52 9q-65 0 -166 -41t-108 -76q0 -44 78 -110q86 -72 168 -72q21 0 36 4q47 18 137 63q61 31 76 39q29 15 74 41q10 6 23 8q14 0 14 -20z" arabic-form="initial" horiz-adv-x="788" unicode="ع"/><glyph d="M604 2q-84 0 -127.5 14.5t-86.5 49.5l-81 73l-97 -68q-45 -31 -100 -53q-50 -18 -112 -18v166q60 0 130 11t114 38q-61 64 -92 64q-14 0 -20.5 -1t-24.5 -7l-40 -13q15 62 28 98q12 38 30 66q24 27 68.5 43t99.5 16q26 0 60.5 -7t74.5 -22q108 -39 108 -98q0 -29 -18 -58 l-72 -77q52 -33 82 -45q35 -10 76 -10v-162z" arabic-form="medial" horiz-adv-x="604" unicode="ع"/><glyph d="M1227 -862l1 -14q0 -13 -14 -21l-279 -121q-174 -67 -276 -67q-252 0 -403 77q-137 69 -202 207q-56 121 -56 293q8 83 21.5 163t34.5 164q32 129 75 242q24 50 59.5 86.5t79.5 63.5q-22 23 -42.5 33t-38.5 10q-12 0 -19 -1t-28 -7l-27 -6q2 20 4.5 37t6.5 32 q12 69 21 86l74 61q42 21 166 21q70 0 122 -34q56 -38 56 -99q0 -18 -12 -54q-15 -44 -37 -71q9 -16 38 -30t73 -23v-166q-37 0 -67 9.5t-75 33.5q-23 12 -83 61l-27 19q-22 0 -70 -38q-60 -46 -149 -146q-31 -66 -59.5 -172.5t-28.5 -180.5q0 -252 197 -379 q163 -104 421 -104q18 0 102 4.5t128 4.5q45 0 114 7t102 10z" arabic-form="final" horiz-adv-x="625" unicode="ع"/><glyph d="M377 1157q-27 -90 -49 -106q-3 -3 -12 -3q-16 0 -67 16q-67 23 -67 51q0 10 5.5 16.5t33.5 73.5q18 44 40 44l14 -4l72 -34q32 -18 32 -42zM789 467q-3 -34 -25 -81l-22 -44q-67 -58 -244 -146q-75 -37 -156 -72q-73 -32 -159 -65q-159 -59 -203 -59v166q32 0 107.5 20.5 t111.5 36.5q-37 28 -68 75q-34 54 -34 101q15 102 51 180q45 99 113 146q18 12 39 16.5t34.5 6.5t28.5 2l12 1q41 0 109 -36q54 -28 96 -66l20 -17q15 -12 15 -19t-29 -7q-23 0 -77 16q-30 9 -52 9q-65 0 -166 -41t-108 -76q0 -44 78 -110q86 -72 168 -72q21 0 36 4 q47 18 137 63q61 31 76 39q29 15 74 41q10 6 23 8q14 0 14 -20z" arabic-form="initial" horiz-adv-x="788" unicode="غ"/><glyph d="M280 830l-24 -77q-9 -21 -23 -32q-3 -3 -12 -3q-17 0 -67 16q-67 24 -67 53q0 6 6.5 15.5t32.5 72.5q18 44 39 44l13 -3l73 -35q31 -19 31 -39zM604 0q-78 0 -125 15t-89 50l-81 74l-97 -68q-45 -31 -100 -53q-50 -18 -112 -18v166q60 0 130 11t114 38q-61 64 -92 64 q-14 0 -20.5 -1t-24.5 -7l-40 -13q15 62 28 98q12 38 30 66q24 27 68.5 43t99.5 16q26 0 60.5 -7t74.5 -22q108 -39 108 -98q0 -29 -18 -58l-72 -77q52 -33 82 -45q35 -10 76 -10v-164z" arabic-form="medial" horiz-adv-x="604" unicode="غ"/><glyph d="M352 1018q-27 -92 -47 -109q-3 -3 -11 -3q-18 0 -69 17q-68 24 -68 52q0 6 6.5 15t33.5 73q18 44 39 44l14 -3l72 -34q32 -18 32 -39q0 -9 -2 -13zM1227 -862l1 -14q0 -13 -14 -21l-279 -121q-174 -67 -276 -67q-252 0 -403 77q-137 69 -202 207q-56 121 -56 293 q8 83 21.5 163t34.5 164q32 129 75 242q24 50 59.5 86.5t79.5 63.5q-22 23 -42.5 33t-38.5 10q-12 0 -19 -1t-28 -7l-27 -6q2 20 4.5 37t6.5 32q12 69 21 86l74 61q42 21 166 21q70 0 122 -34q56 -38 56 -99q0 -18 -12 -54q-15 -44 -37 -71q9 -16 38 -30t73 -23v-166 q-37 0 -67 9.5t-75 33.5q-23 12 -83 61l-27 19q-22 0 -70 -38q-60 -46 -149 -146q-31 -66 -59.5 -172.5t-28.5 -180.5q0 -252 197 -379q163 -104 421 -104q18 0 102 4.5t128 4.5q45 0 114 7t102 10z" arabic-form="final" horiz-adv-x="625" unicode="غ"/><glyph d="M153 1049l-20 -62q-12 -33 -28 -46q-3 -3 -12 -3q-20 0 -69 17q-67 23 -67 52q0 8 5.5 15t33.5 74q18 45 39 45l14 -4l74 -35q32 -18 32 -41zM426 390q0 -57 -7 -93q-10 -35 -16 -54.5t-9 -26.5q-15 -38 -37 -65q-66 -60 -189 -108q-55 -21 -100 -32t-78 -11v166 q137 0 243 50q87 39 127 98l1 18q0 40 -19 82q-18 44 -43 70v-14q0 -45 -3 -60q-6 -32 -28 -59q-13 -16 -28 -22l-51 -10l-13 -1h-7q-59 0 -85 60q-17 43 -17 114q0 63 40 144q48 99 108 99q73 0 138 -95q73 -106 73 -250zM259 520l-28 27q-11 11 -27 14q-20 -9 -43.5 -31 t-23.5 -36q0 -5 9 -10l21 -3q15 0 26.5 2t28.5 8q27 11 37 29z" arabic-form="initial" horiz-adv-x="429" unicode="ف"/><glyph d="M293 1143l-22 -64q-10 -31 -27 -45q-3 -3 -12 -3q-17 0 -68 16q-67 24 -67 52q0 8 6 17l33 72q18 44 39 44l13 -3l74 -35q33 -18 33 -40zM547 0l-83 3q-37 0 -67 7q-70 15 -115 34t-69 44q-51 -37 -112.5 -62.5t-100.5 -25.5v166q18 0 35 4.5t37 13.5l63 33q-3 13 -4 21 t-1 28q0 67 20 128q25 81 77 141q27 27 63.5 47t71.5 20q33 0 54 -53q8 -23 12 -46.5t4 -56.5q0 -77 -16 -124q-19 -55 -78 -119q29 -18 93.5 -27.5t115.5 -9.5v-166zM350 326q0 55 -16 91l-19 32q-47 -18 -78 -58q-20 -26 -34 -63q0 -17 20 -40l41 -40q19 11 53 45z" arabic-form="medial" horiz-adv-x="547" unicode="ف"/><glyph d="M1316 1147q-32 -95 -49 -111q-3 -3 -12 -3q-17 0 -68 16q-66 24 -66 54q0 10 5.5 16t32.5 72q18 44 39 44l13 -3l74 -35q33 -18 33 -39zM1592 0q-68 0 -160 32q-69 23 -96 40l-131 -68q-56 -25 -121.5 -45t-139.5 -35q-197 -39 -442 -39q-195 0 -336 83q-166 97 -166 265 q0 42 26 113q20 55 54 98q28 33 38 34q4 -5 4 -9l-3 -18l-6 -21l-24 -78q-3 -16 -5 -28.5t-2 -24.5q0 -105 132 -168q65 -29 158.5 -45t209.5 -16h41h22h19h16h14h11q20 0 37.5 1t33.5 4q49 0 108 10q37 6 105 22q126 27 249 81l-15 41q-3 14 -4 20t-1 20q0 20 6 50 q18 102 93.5 199.5t131.5 97.5q33 0 60 -48q32 -58 32 -154v-24l1 -22q0 -50 -11 -80q-15 -46 -62 -106q3 -2 17.5 -5.5t39.5 -7t66 -3.5v-166zM1463 309q0 30 -13 66.5t-26 52.5l-12 1q-39 0 -86 -59q-8 -10 -17.5 -23.5t-21.5 -35.5q0 -8 5 -17.5t16.5 -21.5t17.5 -17 q12 -11 29 -22l55 29q35 21 53 47z" arabic-form="final" horiz-adv-x="1592" unicode="ف"/><glyph d="M295 1077q0 -5 -30 -47q-29 -37 -52 -59q-8 9 -76 59q-28 21 -39 33q10 22 39 64t41 48q20 -5 58 -38t59 -60zM97 1043q3 -15 -27.5 -60.5t-52.5 -55.5l-69 54l-45 34q-3 8 33 62l43 56q17 -8 53 -34q40 -30 65 -56zM426 390q0 -57 -7 -93q-10 -35 -16 -54.5t-9 -26.5 q-15 -38 -37 -65q-66 -60 -189 -108q-55 -21 -100 -32t-78 -11v166q137 0 243 50q87 39 127 98l1 18q0 40 -19 82q-18 44 -43 70v-14q0 -45 -3 -60q-6 -32 -28 -59q-13 -16 -28 -22l-51 -10l-13 -1h-7q-59 0 -85 60q-17 43 -17 114q0 63 40 144q48 99 108 99q73 0 138 -95 q73 -106 73 -250zM259 520l-28 27q-11 11 -27 14q-20 -9 -43.5 -31t-23.5 -36q0 -5 9 -10l21 -3q15 0 26.5 2t28.5 8q27 11 37 29z" arabic-form="initial" horiz-adv-x="429" unicode="ق"/><glyph d="M385 1186q0 -19 -17 -62q-21 -57 -49 -61q-22 0 -61 33q-35 32 -49 57q6 28 30.5 73.5t36.5 51.5q17 0 73 -47q33 -27 36 -45zM188 1112q6 -15 -12.5 -67t-36.5 -52q-15 0 -66 31.5t-57 48.5q-3 9 15 46q24 50 45 81q17 -6 50 -32q39 -30 62 -56zM547 0l-83 3 q-37 0 -67 7q-70 15 -115 34t-69 44q-51 -37 -112.5 -62.5t-100.5 -25.5v166q18 0 35 4.5t37 13.5l63 33q-3 13 -4 21t-1 28q0 67 20 128q25 81 77 141q27 27 63.5 47t71.5 20q33 0 54 -53q8 -23 12 -46.5t4 -56.5q0 -77 -16 -124q-19 -55 -78 -119q29 -18 93.5 -27.5 t115.5 -9.5v-166zM350 326q0 55 -16 91l-19 32q-47 -18 -78 -58q-20 -26 -34 -63q0 -17 20 -40l41 -40q19 11 53 45z" arabic-form="medial" horiz-adv-x="547" unicode="ق"/><glyph d="M742 1025q0 -19 -17 -62q-21 -57 -49 -61q-22 0 -61 33q-35 32 -49 57q6 28 30.5 73.5t36.5 51.5q17 0 73 -47q33 -27 36 -45zM545 951q6 -15 -12.5 -67t-36.5 -52q-15 0 -66 31.5t-57 48.5q-3 9 15 46q24 50 45 81q17 -6 50 -32q39 -30 62 -56zM1011 0l-40 -3v-30 q0 -79 -23 -163.5t-62 -141.5q-66 -101 -239.5 -189.5t-292.5 -88.5q-152 0 -257 123q-87 102 -87 203q0 109 8 169q4 31 13 69.5t22 77.5q8 28 19.5 45.5t21.5 17.5q8 0 8 -23l-1 -25q0 -11 -7 -36q-11 -52 -11 -105q0 -137 61 -228q74 -110 220 -110q148 0 312 81 q168 84 228 195q0 45 -3 81t-11 72l-75 -2l-61 -3q-71 0 -115 48q-34 40 -34 84q0 104 53 198.5t117 94.5q51 0 99 -73q44 -67 72 -173l65 1v-166zM825 164q-18 28 -36.5 46t-31.5 18q-26 0 -44 -12q-9 -6 -15 -26l19 -14q25 -14 52 -14z" arabic-form="final" horiz-adv-x="1011" unicode="ق"/><glyph d="M152 195q-12 -107 -57 -155q-38 -40 -105 -40v166q39 0 71.5 18t32.5 45l-31 158l-52 258q-30 164 -42 244q-9 36 -25 60l-13 18q10 71 11 76q5 29 12 60q9 52 27 52q8 0 16 -10t11.5 -33t11.5 -33t27 -24l39 -25l-1 -23q0 -14 -3.5 -33.5t-19.5 -61.5l-15 -38l44 -214 q27 -140 42 -235q9 -67 14 -124t5 -106z" arabic-form="initial" horiz-adv-x="166" unicode="ل"/><glyph d="M360 0q-78 14 -124 65q-50 56 -92 188q0 -82 -49 -167.5t-95 -85.5v166q45 0 68.5 20.5t23.5 66.5q0 51 -19 178q-28 189 -37 270l-26 209q-4 38 -7 92t-3 108q0 61 16.5 114t31.5 53q6 0 10 -14l4 -44q0 -75 13 -176l33 -224q18 -122 45.5 -239t60.5 -218 q29 -93 71 -144q36 -44 75 -52v-166z" arabic-form="medial" horiz-adv-x="360" unicode="ل"/><glyph d="M815 0q-44 0 -83 30q-30 23 -54 64l8 -182l4 -135l1 -16q0 -108 -91 -206q-113 -122 -301 -122q-146 0 -222.5 79.5t-76.5 221.5q0 47 48 189.5t76 142.5q2 -1 4.5 -2t5.5 -5.5t5 -16.5q0 -8 -6 -19q-25 -62 -41 -115.5t-16 -89.5q0 -101 63 -158q59 -51 160 -51 q110 0 198 42t136 126q0 178 -24 394q-11 101 -27 216q-3 21 -29 192q-39 266 -61 447q0 14 2 28t7 38l11 61q0 9 6 9q5 0 17 -18l18 -42q26 -79 60 -350t64 -379q50 -187 138 -207v-166z" arabic-form="final" horiz-adv-x="815" unicode="ل"/><glyph d="M488 283q0 -47 -29 -99q-27 -54 -61 -67l-51 4q-117 16 -179 67q-15 -12 -66 -106q-36 -64 -122 -82v166q90 12 138 75q43 57 79 87h19q21 70 62 118t83 48q68 0 102 -79q25 -59 25 -132zM406 270q-11 56 -14 61q-14 32 -49 32l-11 -1q-21 -3 -38 -20l-18 -23 q30 -21 59 -32.5t71 -16.5z" arabic-form="initial" horiz-adv-x="510" unicode="م"/><glyph d="M659 0q-62 6 -124 27t-91 43q-11 -44 -20 -54q-14 -18 -49 -18q-27 0 -107 29q-101 36 -137 79q-36 -59 -74 -86q-29 -20 -57 -20v166h33q14 3 26 4.5t19.5 2.5t21.5 5q40 34 72 89q65 113 72 118q30 10 50 10q44 0 86 -45l75 -84q46 -40 103 -68t101 -34v-164zM385 174 q-21 59 -48 93q-30 38 -52 38q-27 0 -39 -25l-19 -47q24 -3 60 -20z" arabic-form="medial" horiz-adv-x="659" unicode="م"/><glyph d="M719 0q-42 0 -84.5 8.5t-97.5 24.5l-33 -85q-18 -53 -31 -57q-134 37 -172 198q-15 67 -59 67q-57 0 -119 -60q-68 -68 -68 -157q0 -22 4 -70.5t13 -116.5l31 -243l18 -136l5 -160l3 -161q0 -9 -10 -10q-9 0 -17 8q-14 21 -23 91q-24 236 -43 314q-11 49 -18 92 q-10 65 -10 122q0 49 -5 124t-5 101q0 122 28 206q18 54 60 117q19 33 52 61q22 19 52 35l26 10l32 4q19 0 28 -1t25 -7q6 3 13 16l16 27q4 8 9 10q3 -2 6 -4.5t7 -9.5q54 -84 138.5 -130.5t228.5 -61.5v-166z" arabic-form="final" horiz-adv-x="719" unicode="م"/><glyph d="M76 1036l-21 -62q-12 -33 -28 -46q-3 -3 -11 -3q-18 0 -67 17q-68 23 -68 51q0 8 5 15t33 74q18 44 39 44q6 0 14 -4l74 -34q32 -18 32 -41zM170 238q0 -14 -0.5 -29.5t-4 -40t-12.5 -53.5t-22 -58q-16 -35 -63 -49q-30 -8 -78 -8v166q37 0 66.5 12.5t35.5 38.5 q-12 32 -44 77q-25 35 -31 75l18 50q15 44 27 64q26 11 57 -47q38 -70 51 -198z" arabic-form="initial" horiz-adv-x="180" unicode="ن"/><glyph d="M252 563l-20 -62q-11 -33 -27 -47q-3 -3 -12 -3q-20 0 -69 17q-68 24 -68 52q0 5 6 16l34 72q18 44 39 44l14 -3l73 -34q32 -18 32 -40zM451 0q-23 0 -67 17q-58 22 -96 53q-20 17 -38 55l-20 45q-72 -105 -100 -127q-58 -43 -130 -43v166q32 0 71 7.5t63 19.5 q38 15 94 116q25 43 44 43q7 0 16 -5l-2 -26l-2 -38q3 -23 65 -70t102 -47v-166z" arabic-form="medial" horiz-adv-x="451" unicode="ن"/><glyph d="M608 547q-19 -62 -25 -76q-9 -21 -24 -33q-3 -3 -12 -3q-17 0 -67 16q-67 24 -67 53q0 6 6.5 15.5t32.5 72.5q18 44 40 44l14 -3l72 -35q32 -18 32 -40zM864 0l-59 2l7 -68l4 -56q0 -69 -18 -135q-23 -85 -77 -173q-22 -36 -55 -67q-53 -52 -133 -85q-53 -21 -111.5 -32 t-126.5 -11q-154 0 -230 112q-63 93 -63 247q0 65 20 139q27 107 84 170q12 15 21 15q7 0 7 -14q0 -13 -5 -24q-15 -45 -35 -125q-16 -77 -16 -110q0 -74 49 -141q66 -90 186 -90q160 0 280 57t144 153q0 78 -5 133.5t-17 97.5t-32 75l-34 63l19 46q20 55 20 87q0 18 14 18 q11 0 23 -16l21 -28l36 -66l42 -7l40 -1v-166z" arabic-form="final" horiz-adv-x="864" unicode="ن"/><glyph d="M604 0h-45q-5 -44 -50 -126q-52 -97 -124 -171q-89 -93 -182 -123q-119 12 -253.5 47t-134.5 50q0 6 27 6l83 -1q12 0 37 -1t38 -1q86 0 150 19q80 23 203 127.5t149 173.5h-30l-31 -1q-91 0 -135 24q-66 36 -66 139q0 53 48 145q54 101 111 111q30 5 88 -74 q62 -84 84 -178h33v-166zM432 170q0 24 -16.5 54.5t-44.5 27.5q-24 0 -38 -27l-7 -28q18 -15 42 -24q28 -7 44 -7l12 1z" arabic-form="final" horiz-adv-x="604" unicode="و"/><glyph d="M170 238v-44q-3 -16 -4 -23q-4 -28 -12.5 -56.5t-23.5 -61t-63 -45.5q-30 -8 -77 -8v166q35 0 65.5 12t36.5 37q-13 35 -44 79q-25 35 -31 75l18 50q15 44 27 64q6 2 10 2q22 0 48 -48q36 -68 50 -199zM230 -658q0 -18 -17 -62q-21 -57 -49 -63q-23 3 -60 36.5t-50 56.5 q9 29 32.5 74t34.5 51q10 0 57.5 -34.5t51.5 -58.5zM45 -715q2 -8 2 -14q0 -27 -22 -72q-15 -33 -29 -33q-16 2 -65 32q-54 33 -58 50q-3 10 26 65q10 19 19 37q6 11 15 23q20 -7 51 -32q40 -31 61 -56z" arabic-form="initial" horiz-adv-x="176" unicode="ي"/><glyph d="M451 0q-23 0 -67 17q-58 22 -96 53q-20 17 -38 55l-20 45q-72 -105 -100 -127q-58 -43 -130 -43v166q32 0 71 7.5t63 19.5q38 15 94 116q25 43 44 43q7 0 16 -5l-2 -26l-2 -38q3 -23 65 -70t102 -47v-166zM370 -405q0 -19 -17 -63q-21 -57 -48 -62q-23 3 -61 36t-52 56 q9 27 33.5 73t36.5 52q15 0 71 -47q32 -26 37 -45zM195 -465q3 -15 -15 -66.5t-34 -51.5q-18 0 -69 32t-54 50q-3 9 24 62.5t35 62.5q23 -11 54 -35.5t59 -53.5z" arabic-form="medial" horiz-adv-x="451" unicode="ي"/><glyph d="M1047 -195q-3 -20 -9 -39t-16 -40q-13 -31 -40 -72q-55 -46 -117.5 -89t-131.5 -81q-112 -61 -235 -101q-51 -16 -95.5 -25t-76.5 -9q-120 0 -217 98q-110 112 -110 291q0 35 6 72t20.5 87.5t36.5 96.5t49 78q9 11 23 20.5t22 11.5q3 0 4 -3t-1 -10q-3 -14 -19 -42 q-26 -43 -45 -120.5t-19 -129.5q0 -115 86 -198q83 -80 189 -80h11q51 0 102 11q96 19 202 65q140 59 291 163q9 6 9 24q0 10 -5 15q-12 15 -148 42q-96 18 -157 38q-19 10 -19 34q0 25 21 67l21 36q84 71 204 115q97 35 164 35v-166l-90 -3q-36 -3 -54.5 -10.5t-30.5 -16.5 t-14 -15q0 -5 15 -8l68 -14q45 -10 71 -25q35 -29 35 -103zM662 -805q0 -17 -17 -62q-21 -59 -46 -63q-23 3 -61.5 35.5t-51.5 56.5q10 33 31 71q26 49 39 54q17 0 71 -47q30 -26 35 -45zM466 -879q5 -16 -13 -67t-35 -51q-18 2 -66 32q-54 33 -58 50q-4 9 25 65 q26 47 36 59q15 -6 52 -34q33 -25 59 -54z" arabic-form="final" horiz-adv-x="1047" unicode="ي"/><glyph d="M180 238v-44q-3 -16 -4 -23q-4 -28 -12.5 -56.5t-23.5 -61t-63 -45.5q-30 -8 -77 -8v166q35 0 65.5 12t36.5 37q-13 35 -44 79q-25 35 -31 75l18 50q15 44 27 64q6 2 10 2q22 0 48 -48q36 -68 50 -199zM290 1006q0 -19 -5.5 -36.5t-26.5 -49.5q-36 -32 -101 -54 q-49 -15 -114 -23q-47 -6 -85 -6q-4 0 -20.5 7t-72.5 32q-2 1 -2 6q0 4 2 4q63 0 91 2l55 8l24 24q0 19 -6 57q-3 25 -13 76l-15 77l-5 38q-2 18 -2 33q-9 12 -16 26q-5 13 -5 22q4 12 9 22l6 18q3 4 5 5q3 0 8 -11l6 -13l5 -5l6 -6q9 -6 10 -12l1 -10q0 -10 -3 -21 q-3 -7 -7 -15q0 -7 9 -55l17 -87l9 -46l1 -20l1 -20v-12q-1 -5 -1 -8l-1 -21q28 29 49 47q32 29 56 45q31 20 53 20q23 0 50.5 -13t27.5 -25zM248 961q-10 10 -23 17q-17 7 -34 7q-16 0 -42 -15q-22 -12 -46 -33q-19 -16 -36 -33q14 0 28.5 1t28.5 4t27 6.5t27 8.5 q12 4 21.5 8.5t21.5 9.5l12 7z" arabic-form="initial" horiz-adv-x="287" unicode="ٹ"/><glyph d="M403 0q-35 0 -103 36.5t-97 36.5l-20 -3l-79 -42q-53 -30 -104 -30v168q68 14 99 27l83 40l18 2q32 0 104 -34.5t99 -34.5v-166zM253 1006q0 -19 -5.5 -36.5t-26.5 -49.5q-36 -32 -101 -54q-49 -15 -114 -23q-47 -6 -85 -6q-4 0 -20.5 7t-72.5 32q-2 1 -2 6q0 4 2 4 q63 0 91 2l55 8l24 24q0 19 -6 57q-3 25 -13 76l-15 77l-5 38q-2 18 -2 33q-9 12 -16 26q-5 13 -5 22q4 12 9 22l6 18q3 4 5 5q3 0 8 -11l6 -13l5 -5l6 -6q9 -6 10 -12l1 -10q0 -10 -3 -21q-3 -7 -7 -15q0 -7 9 -55l17 -87l9 -46l1 -20l1 -20v-12q-1 -5 -1 -8l-1 -21 q28 29 49 47q32 29 56 45q31 20 53 20q23 0 50.5 -13t27.5 -25zM211 961q-10 10 -23 17q-17 7 -34 7q-16 0 -42 -15q-22 -12 -46 -33q-19 -16 -36 -33q14 0 28.5 1t28.5 4t27 6.5t27 8.5q12 4 21.5 8.5t21.5 9.5l12 7z" arabic-form="medial" horiz-adv-x="403" unicode="ٹ"/><glyph d="M1469 0q-61 0 -130 78q-14 17 -56 76q-33 -42 -49 -58q-29 -29 -71 -53q-13 -7 -109 -34q-116 -33 -255 -59q-178 -32 -312 -32q-193 0 -326 68q-161 81 -161 237q0 83 56 199l46 45q3 -5 3 -11q0 -13 -5 -27l-8 -28l-4 -64q0 -31 4 -42q30 -102 147 -152 q108 -45 298 -45q206 0 371 30q189 34 342 110q28 12 40 47l7 26q10 22 19 23q8 0 12.5 -17.5t4.5 -38.5q0 -12 -2 -18l-6 -24l-7 -27q32 -23 57 -31q41 -12 94 -12v-166zM886 667q0 -19 -5.5 -36.5t-26.5 -49.5q-36 -32 -101 -54q-49 -15 -114 -23q-47 -6 -85 -6 q-4 0 -20.5 7t-72.5 32q-2 1 -2 6q0 4 2 4q63 0 91 2l55 8l24 24q0 19 -6 57q-3 25 -13 76l-15 77l-5 38q-2 18 -2 33q-9 12 -16 26q-5 13 -5 22q4 12 9 22l6 18q3 4 5 5q3 0 8 -11l6 -13l5 -5l6 -6q9 -6 10 -12l1 -10q0 -10 -3 -21q-3 -7 -7 -15q0 -7 9 -55l17 -87l9 -46 l1 -20l1 -20v-12q-1 -5 -1 -8l-1 -21q28 29 49 47q32 29 56 45q31 20 53 20q23 0 50.5 -13t27.5 -25zM844 622q-10 10 -23 17q-17 7 -34 7q-16 0 -42 -15q-22 -12 -46 -33q-19 -16 -36 -33q14 0 28.5 1t28.5 4t27 6.5t27 8.5q12 4 21.5 8.5t21.5 9.5l12 7z" arabic-form="final" horiz-adv-x="1469" unicode="ٹ"/><glyph d="M180 238v-44q-3 -16 -4 -23q-4 -28 -12.5 -56.5t-23.5 -61t-63 -45.5q-30 -8 -77 -8v166q35 0 65.5 12t36.5 37q-13 35 -44 79q-25 35 -31 75l18 50q15 44 27 64q6 2 10 2q22 0 48 -48q36 -68 50 -199zM252 -805q-28 -93 -45 -108q-5 -3 -13 -3q-19 0 -68 17 q-67 23 -67 52q0 5 6 16l33 72q18 44 38 44l14 -3l73 -34q31 -19 31 -40zM126 -633q-28 -93 -45 -108q-5 -3 -13 -3q-19 0 -68 17q-67 23 -67 52q0 5 6 16l33 72q18 44 38 44l14 -3l73 -34q31 -19 31 -40zM314 -606q-28 -93 -45 -108q-5 -3 -13 -3q-19 0 -68 17 q-67 23 -67 52q0 5 6 16l33 72q18 44 38 44l14 -3l73 -34q31 -19 31 -40z" arabic-form="initial" horiz-adv-x="246" unicode="پ"/><glyph d="M451 0q-23 0 -67 17q-58 22 -96 53q-20 17 -38 55l-20 45q-72 -105 -100 -127q-58 -43 -130 -43v166q32 0 71 7.5t63 19.5q38 15 94 116q25 43 44 43q7 0 16 -5l-2 -26l-2 -38q3 -23 65 -70t102 -47v-166zM245 -477l-27 -75q-8 -22 -20 -34q-9 -4 -53 6q-96 24 -96 60 q0 6 6 14.5t34 74.5q18 45 39 45l14 -3l73 -35q32 -18 32 -40zM361 -683l-27 -75q-8 -22 -20 -34q-9 -4 -53 6q-96 24 -96 60q0 6 6 14.5t34 74.5q18 45 39 45l14 -3l73 -35q32 -18 32 -40zM433 -477l-27 -75q-8 -22 -20 -34q-9 -4 -53 6q-96 24 -96 60q0 6 6 14.5t34 74.5 q18 45 39 45l14 -3l73 -35q32 -18 32 -40z" arabic-form="medial" horiz-adv-x="451" unicode="پ"/><glyph d="M1469 0q-61 0 -130 78q-14 17 -56 76q-33 -42 -49 -58q-29 -29 -71 -53q-13 -7 -109 -34q-116 -33 -255 -59q-178 -32 -312 -32q-193 0 -326 68q-161 81 -161 237q0 83 56 199l46 45q3 -5 3 -11q0 -13 -5 -27l-8 -28l-4 -64q0 -31 4 -42q30 -102 147 -152 q108 -45 298 -45q206 0 371 30q189 34 342 110q28 12 40 47l7 26q10 22 19 23q8 0 12.5 -17.5t4.5 -38.5q0 -12 -2 -18l-6 -24l-7 -27q32 -23 57 -31q41 -12 94 -12v-166zM930 -356l-21 -63q-12 -36 -26 -48q-4 -2 -10 -2q-19 0 -72 18q-67 23 -67 51q0 9 6.5 18t32.5 71 q18 44 39 44l13 -3l74 -34q33 -18 33 -41zM1065 -562l-21 -63q-12 -36 -26 -48q-4 -2 -10 -2q-19 0 -72 18q-67 23 -67 51q0 9 6.5 18t32.5 71q18 44 39 44l13 -3l74 -34q33 -18 33 -41zM1145 -338l-21 -63q-12 -36 -26 -48q-4 -2 -10 -2q-19 0 -72 18q-67 23 -67 51 q0 9 6.5 18t32.5 71q18 44 39 44l13 -3l74 -34q33 -18 33 -41z" arabic-form="final" horiz-adv-x="1469" unicode="پ"/><glyph d="M1053 329l-31 -86q-6 -15 -23 -21.5t-47 -6.5h-39q-21 3 -31 4l-137 10q-66 0 -209 -59q-79 -32 -133 -54q-65 -26 -134 -56q-164 -60 -269 -60v166q107 0 235 30q102 24 195 60q66 26 105 48q-68 13 -115.5 30.5t-76.5 26.5t-41 9q-20 0 -75 -22.5t-130 -22.5 q-22 0 -22 13q0 8 5 19l30 78q20 50 40 72q39 27 68 40q41 19 70 19q60 0 114 -30l106 -57q78 -40 255 -84q89 -21 155.5 -32t111.5 -11l13 1q15 0 15 -7l-1 -6zM778 -222q-30 -94 -48 -109q-2 -2 -11 -2q-22 0 -69 17q-68 24 -68 52q0 8 5 16q6 5 34 73q18 44 39 44l14 -4 l74 -35q32 -18 32 -40zM904 -402q-30 -94 -48 -109q-2 -2 -11 -2q-22 0 -69 17q-68 24 -68 52q0 8 5 16q6 5 34 73q18 44 39 44l14 -4l74 -35q32 -18 32 -40zM984 -213q-30 -94 -48 -109q-2 -2 -11 -2q-22 0 -69 17q-68 24 -68 52q0 8 5 16q6 5 34 73q18 44 39 44l14 -4 l74 -35q32 -18 32 -40z" arabic-form="initial" horiz-adv-x="1004" unicode="چ"/><glyph d="M1081 0l-64 -2l-95 -2q-70 0 -111 44q-33 36 -39 89l-1 18q0 18 1 26.5t7 33.5l-1 26h-13q-20 0 -31 -1t-39 -7q-42 -6 -93 -28l-102 -38q-67 -23 -121 -48l-145 -62q-57 -20 -117 -37l-63 -9l-54 -3v166q136 0 313 51q141 42 217 84l-103 35q-110 35 -132 35 q-32 0 -60 -11l-71 -26l-56 -10l-32 -2l36 125q9 29 42 63l72 39q38 16 81 16q25 0 138 -54q145 -69 247 -102q177 -55 346 -55l8 -7q4 -4 6 -7t3 -6q0 -25 -22 -72q-5 -11 -10.5 -21t-12.5 -22l-27 -1h-29h-27h-24q-10 2 -15.5 2.5t-22 3t-46.5 9.5q-6 -12 -6 -27t6 -24 q16 -15 41 -24q13 -3 27 -5t30 -2q33 0 88 7l76 8v-166zM741 -274q-28 -93 -49 -109q-3 -3 -12 -3q-18 0 -67 17q-67 23 -67 51q0 8 6 16t33 73q18 44 40 44l14 -3l72 -35q32 -18 32 -39zM642 -462q-28 -93 -49 -109q-3 -3 -12 -3q-18 0 -67 17q-67 23 -67 51q0 8 6 16 t33 73q18 44 40 44l14 -3l72 -35q32 -18 32 -39zM517 -292q-28 -93 -49 -109q-3 -3 -12 -3q-18 0 -67 17q-67 23 -67 51q0 8 6 16t33 73q18 44 40 44l14 -3l72 -35q32 -18 32 -39z" arabic-form="medial" horiz-adv-x="1081" unicode="چ"/><glyph d="M836 -233q-30 -92 -48 -109q-6 -3 -15 -3q-29 0 -89 28q-44 21 -44 43q0 6 5 14q9 12 34 74q18 44 38 44l14 -3l74 -35q33 -18 33 -41zM1410 -799q19 0 19 -18q0 -6 -4 -13l-11 -14q-21 -16 -121.5 -56t-143.5 -71l-164 -53q-101 -23 -264 -23q-320 0 -470 162 q-136 148 -136 432q0 158 47 317q42 146 106 238q50 72 98 121.5t103 89.5l-22 1l-29 1h-49q-66 0 -217 -41q-38 -10 -70.5 -15t-65.5 -5q-2 3 -3 5q-5 10 -9 14q-8 13 -8 22q14 41 36 80q13 22 21.5 34.5t22.5 28.5l35 21q17 9 34 12q38 11 85 19q21 3 41 5t39 2 q33 0 49 -1t62.5 -6t78 -7t61.5 -2q55 0 78 1.5t75 6.5l177 19q21 0 30 -10q6 -6 6 -18l-1 -9l-29 -71q-12 -38 -20 -50l-123 -49l-3 -34l-2 -29l3 -28q3 -10 14 -15q24 -15 68 -23q42 -6 85 -6h33v-166q-22 0 -39.5 2.5t-37.5 7.5q-84 18 -121 62q-27 33 -39 70 q-4 16 -7 36t-3 38l3 41l3 26q-6 0 -72 -30q-45 -20 -82.5 -40t-73.5 -43q-96 -60 -145 -121q-74 -109 -107 -197q-36 -99 -36 -227q0 -184 95 -298q82 -99 236 -145q129 -38 303 -38q49 0 90.5 3t85.5 11l178 29q98 14 227 14zM754 -424q-30 -92 -48 -109q-6 -3 -15 -3 q-29 0 -89 28q-44 21 -44 43q0 6 5 14q9 12 34 74q18 44 38 44l14 -3l74 -35q33 -18 33 -41zM618 -233q-30 -92 -48 -109q-6 -3 -15 -3q-29 0 -89 28q-44 21 -44 43q0 6 5 14q9 12 34 74q18 44 38 44l14 -3l74 -35q33 -18 33 -41z" arabic-form="final" horiz-adv-x="952" unicode="چ"/><glyph d="M952 0q-88 0 -169 117q-34 51 -93 180q0 -150 -72 -248q-89 -119 -272 -119q-46 0 -82.5 41t-36.5 95q0 40 13 83q8 28 28 70q9 18 19 18q7 0 8 -14l-1 -22v-20q0 -44 11 -56q16 -16 66 -16q108 0 185 49q87 54 87 147q0 34 -25 132t-47 151v37v47q0 48 17 48 q3 -2 6 -4.5t8 -9.5l19 -32l73 -184q57 -139 112 -218q74 -106 146 -106v-166zM691 1160q0 -19 -5.5 -36.5t-26.5 -49.5q-36 -32 -101 -54q-49 -15 -114 -23q-47 -6 -85 -6q-4 0 -20.5 7t-72.5 32q-2 1 -2 6q0 4 2 4q63 0 91 2l55 8l24 24q0 19 -6 57q-3 25 -13 76l-15 77 l-5 38q-2 18 -2 33q-9 12 -16 26q-5 13 -5 22q4 12 9 22l6 18q3 4 5 5q3 0 8 -11l6 -13l5 -5l6 -6q9 -6 10 -12l1 -10q0 -10 -3 -21q-3 -7 -7 -15q0 -7 9 -55l17 -87l9 -46l1 -20l1 -20v-12q-1 -5 -1 -8l-1 -21q28 29 49 47q32 29 56 45q31 20 53 20q23 0 50.5 -13t27.5 -25 zM649 1115q-10 10 -23 17q-17 7 -34 7q-16 0 -42 -15q-22 -12 -46 -33q-19 -16 -36 -33q14 0 28.5 1t28.5 4t27 6.5t27 8.5q12 4 21.5 8.5t21.5 9.5l12 7z" arabic-form="final" horiz-adv-x="952" unicode="ڈ"/><glyph d="M657 0l-46 3l-60 9l-1 -16q0 -20 2 -30q0 -37 -4 -73.5t-13 -70.5q-27 -105 -93 -203q-33 -45 -85.5 -85.5t-114.5 -63.5h-67h-36h-25q-16 2 -22 2l-106 10q-40 15 -41 28q0 14 120 53q162 49 241 95q140 77 179 192q0 105 -25 177l-73 149l4 41q12 93 35 117l30 -21 q62 -91 78 -104l58 -25q32 -12 65 -18v-166zM516 698q0 -19 -5.5 -36.5t-26.5 -49.5q-36 -32 -101 -54q-49 -15 -114 -23q-47 -6 -85 -6q-4 0 -20.5 7t-72.5 32q-2 1 -2 6q0 4 2 4q63 0 91 2l55 8l24 24q0 19 -6 57q-3 25 -13 76l-15 77l-5 38q-2 18 -2 33q-9 12 -16 26 q-5 13 -5 22q4 12 9 22l6 18q3 4 5 5q3 0 8 -11l6 -13l5 -5l6 -6q9 -6 10 -12l1 -10q0 -10 -3 -21q-3 -7 -7 -15q0 -7 9 -55l17 -87l9 -46l1 -20l1 -20v-12q-1 -5 -1 -8l-1 -21q28 29 49 47q32 29 56 45q31 20 53 20q23 0 50.5 -13t27.5 -25zM474 653q-10 10 -23 17 q-17 7 -34 7q-16 0 -42 -15q-22 -12 -46 -33q-19 -16 -36 -33q14 0 28.5 1t28.5 4t27 6.5t27 8.5q12 4 21.5 8.5t21.5 9.5l12 7z" arabic-form="final" horiz-adv-x="657" unicode="ڑ"/><glyph d="M427 719q-11 -45 -18 -62q-11 -33 -27 -47q-5 -3 -13 -3q-19 0 -68 17q-67 23 -67 52q0 6 6.5 15.5t32.5 72.5q18 44 39 44l13 -3l73 -34q31 -19 31 -39zM657 0l-46 3l-60 9l-1 -16q0 -20 2 -30q0 -37 -4 -73.5t-13 -70.5q-27 -105 -93 -203q-33 -45 -85.5 -85.5 t-114.5 -63.5h-67h-36h-25q-16 2 -22 2l-106 10q-40 15 -41 28q0 14 120 53q162 49 241 95q140 77 179 192q0 105 -25 177l-73 149l4 41q12 93 35 117l30 -21q62 -91 78 -104l58 -25q32 -12 65 -18v-166zM315 935q-11 -45 -18 -62q-11 -33 -27 -47q-5 -3 -13 -3 q-19 0 -68 17q-67 23 -67 52q0 6 6.5 15.5t32.5 72.5q18 44 39 44l13 -3l73 -34q31 -19 31 -39zM211 739q-11 -45 -18 -62q-11 -33 -27 -47q-5 -3 -13 -3q-19 0 -68 17q-67 23 -67 52q0 6 6.5 15.5t32.5 72.5q18 44 39 44l13 -3l73 -34q31 -19 31 -39z" arabic-form="final" horiz-adv-x="657" unicode="ژ"/><glyph d="M961 1623q-5 -22 -13 -40q-6 -18 -22 -47q-51 -64 -142 -124q-44 -29 -180 -100q-126 -65 -180 -100q-29 -18 -94 -58q-30 -18 -98 -59q-52 -31 -103 -62l-172 -102q-67 -43 -115 -92q72 -30 162 -87q137 -86 224 -187q114 -132 114 -263q0 -88 -92 -186 q-108 -116 -260 -116v166q94 0 183 56t89 106q0 40 -89 117q-67 59 -170 125q-92 59 -130 68q-6 3 -18 -6t-21 -10q-62 30 -84 76q-16 35 -16 96l1 28v30q0 41 30 76l47 49q60 62 198 148q110 68 309 175l144 79l271 148q162 87 219 114q2 2 3 1t3 -4.5t2 -14.5z" arabic-form="initial" horiz-adv-x="482" unicode="ک"/><glyph d="M1033 1712q25 -3 25 -35q0 -22 -11 -52l-21 -64q-36 -20 -96 -62l-158 -109q-111 -75 -252 -162l-394 -238l-171 -101q-21 -12 -37 -23t-31 -25q27 -33 151 -99l368 -196q76 -50 148 -101.5t138 -104.5l149 -120q58 -42 130 -59v-162l-57 5q-57 7 -80 24q-94 68 -199 154 l-163 133q-87 68 -165 114q5 -28 16 -59t11 -60v-12q0 -7 -2 -21l-3 -32q-15 -103 -102 -168q-103 -77 -227 -77v166q94 0 165 37q56 29 104 88q0 60 -118 156q-61 49 -239 167q-150 99 -186 138l-3 35l-1 21q0 30 7 48q6 20 27 36q145 108 358 242l354 214q211 126 325 202 z" arabic-form="medial" horiz-adv-x="971" unicode="ک"/><glyph d="M1311 0q-66 0 -112 52q-36 42 -63 129q-17 55 -37 166l-37 -91q-24 -51 -70 -100q-78 -60 -165 -108q-106 -57 -214 -90q-128 -37 -250 -37q-195 0 -289 104q-73 82 -73 210q0 64 27 156q24 81 62 117l14 10l16 8l-12 -37q-11 -32 -22 -93l-10 -71q0 -30 20 -74 q30 -65 88 -107q79 -55 200 -55q61 0 177 32q131 35 245 86q133 59 203 123q17 17 32 64l15 67l-20 113q-6 34 -19 125t-19 138q-21 177 -21 293q0 31 1 57t5 56t21 85q31 -62 76 -372q54 -381 84 -510q60 -260 147 -280v-166zM796 605q-20 -71 -37 -102q-28 -55 -86 -110 l-237 -41q-6 14 55 50l122 64q72 38 84 57l-79 38q-55 28 -55 81q0 56 32.5 119.5t75.5 95.5v-30l-35 -67l-14 -30q0 -7 4 -15l5 -14l116 -13q53 -12 53 -55l-1 -11zM1823 1858h8l3 -3v-7q-25 -74 -78 -105q-71 -60 -141 -86q-131 -66 -236 -129q-107 -66 -258 -147 q-65 -37 -116 -88q-22 0 -32 38v3q1 62 104 132q61 42 273 152q98 46 162 87q188 95 283 147q1 6 28 6z" arabic-form="final" horiz-adv-x="1311" unicode="ک"/><glyph d="M961 1623q-5 -22 -13 -40q-6 -18 -22 -47q-51 -64 -142 -124q-44 -29 -180 -100q-126 -65 -180 -100q-29 -18 -94 -58q-30 -18 -98 -59q-52 -31 -103 -62l-172 -102q-67 -43 -115 -92q72 -30 162 -87q137 -86 224 -187q114 -132 114 -263q0 -88 -92 -186 q-108 -116 -260 -116v166q94 0 183 56t89 106q0 40 -89 117q-67 59 -170 125q-92 59 -130 68q-6 3 -18 -6t-21 -10q-62 30 -84 76q-16 35 -16 96l1 28v30q0 41 30 76l47 49q60 62 198 148q110 68 309 175l144 79l271 148q162 87 219 114q2 2 3 1t3 -4.5t2 -14.5zM850 1753 h11l4 -4v-9q-32 -97 -101 -137q-93 -78 -185 -112q-171 -86 -307 -168q-140 -87 -337 -193q-84 -47 -152 -114q-28 0 -41 49v5q2 80 136 171q79 55 356 199q127 61 211 113q245 124 370 192q0 8 35 8z" arabic-form="initial" horiz-adv-x="462" unicode="گ"/><glyph d="M1033 1712q25 -3 25 -35q0 -22 -11 -52l-21 -64q-36 -20 -96 -62l-158 -109q-111 -75 -252 -162l-394 -238l-171 -101q-21 -12 -37 -23t-31 -25q27 -33 151 -99l368 -196q76 -50 148 -101.5t138 -104.5l149 -120q58 -42 130 -59v-162l-57 5q-57 7 -80 24q-94 68 -199 154 l-163 133q-87 68 -165 114q5 -28 16 -59t11 -60v-12q0 -7 -2 -21l-3 -32q-15 -103 -102 -168q-103 -77 -227 -77v166q94 0 165 37q56 29 104 88q0 60 -118 156q-61 49 -239 167q-150 99 -186 138l-3 35l-1 21q0 30 7 48q6 20 27 36q145 108 358 242l354 214q211 126 325 202 zM849 1753l10 1l4 -4v-8q-31 -93 -96 -134q-87 -77 -174 -114q-160 -88 -289 -173q-131 -88 -317 -196q-79 -48 -143 -114q-27 -2 -39 44v4q1 76 127 168q76 55 337 203q120 63 199 116q230 129 347 198q0 8 34 9z" arabic-form="medial" horiz-adv-x="971" unicode="گ"/><glyph d="M1311 0q-66 0 -112 52q-36 42 -63 129q-17 55 -37 166l-37 -91q-24 -51 -70 -100q-78 -60 -165 -108q-106 -57 -214 -90q-128 -37 -250 -37q-195 0 -289 104q-73 82 -73 210q0 64 27 156q24 81 62 117l14 10l16 8l-12 -37q-11 -32 -22 -93l-10 -71q0 -30 20 -74 q30 -65 88 -107q79 -55 200 -55q61 0 177 32q131 35 245 86q133 59 203 123q17 17 32 64l15 67l-20 113q-6 34 -19 125t-19 138q-21 177 -21 293q0 31 1 57t5 56t21 85q31 -62 76 -372q54 -381 84 -510q60 -260 147 -280v-166zM796 605q-20 -71 -37 -102q-28 -55 -86 -110 l-237 -41q-6 14 55 50l122 64q72 38 84 57l-79 38q-55 28 -55 81q0 56 32.5 119.5t75.5 95.5v-30l-35 -67l-14 -30q0 -7 4 -15l5 -14l116 -13q53 -12 53 -55l-1 -11zM1823 1858h8l3 -3v-7q-25 -74 -78 -105q-71 -60 -141 -86q-131 -66 -236 -129q-107 -66 -258 -147 q-65 -37 -116 -88q-22 0 -32 38v3q1 62 104 132q61 42 273 152q98 46 162 87q188 95 283 147q1 6 28 6zM1714 1990h8l3 -3v-6q-24 -71 -74 -100q-67 -56 -134 -81q-123 -62 -222 -122q-101 -63 -244 -139q-61 -34 -110 -83q-21 0 -30 36v3q1 58 98 124q58 40 259 144 q92 44 153 82q177 90 267 139q0 6 26 6z" arabic-form="final" horiz-adv-x="1311" unicode="گ"/><glyph d="M864 0l-59 2l7 -68l4 -56q0 -69 -18 -135q-23 -85 -77 -173q-22 -36 -55 -67q-53 -52 -133 -85q-53 -21 -111.5 -32t-126.5 -11q-154 0 -230 112q-63 93 -63 247q0 65 20 139q27 107 84 170q12 15 21 15q7 0 7 -14q0 -13 -5 -24q-15 -45 -35 -125q-16 -77 -16 -110 q0 -74 49 -141q66 -90 186 -90q160 0 280 57t144 153q0 78 -5 133.5t-17 97.5t-32 75l-34 63l19 46q20 55 20 87q0 18 14 18q11 0 23 -16l21 -28l36 -66l42 -7l40 -1v-166z" arabic-form="final" horiz-adv-x="864" unicode="ں"/><glyph d="M723 203l-32 -53q-23 -26 -80 -26q-36 0 -78 7l-94 15l-54 18l-215 -110q-108 -54 -180 -54v166q34 0 70.5 6t80.5 20q84 27 120 51q-7 20 -26.5 52t-19.5 52q0 13 4.5 27.5t12.5 31t25 44.5q27 46 32 70q-18 12 -18 52q0 25 5 45.5t18 45.5q23 46 52 46q40 0 104 -39.5 t128 -112.5q81 -91 111 -132t46 -78t16 -67q0 -42 -28 -77zM666 248q0 34 -75 112q-63 65 -107 93l1 -22l1 -29q0 -38 -3.5 -66.5t-15.5 -63.5l116 -27q42 -9 59 -9q24 0 24 12zM428 377q-4 50 -30 75q-15 15 -33 17q-23 -9 -55 -47q-40 -46 -40 -81q0 -13 5 -22l50 -17 q18 -3 50 -3q29 22 41 37.5t12 40.5z" arabic-form="initial" horiz-adv-x="762" unicode="ھ"/><glyph d="M496 0l-136 -2q31 -26 47 -60q13 -34 13 -94q0 -126 -42 -192q-36 -56 -93 -56l-13 1q-106 12 -163 100q-49 78 -49 187q0 35 6 71l-34 -1l-32 -1v213q104 0 128 33l44 119q48 113 172 239l14 5q15 0 24 -21t9 -54q0 -48 -6 -94.5t-20 -97.5q-25 -95 -72 -139l203 10 v-166zM328 389q0 18 -10 18q-25 0 -83.5 -83t-66.5 -129q54 6 112 68l44 50l4 31l3 25zM344 -199q-39 57 -117 96l-98 42q0 -71 54 -122q36 -33 94 -53l24 -4q18 0 33 8.5t15 19.5q0 7 -5 13z" arabic-form="medial" horiz-adv-x="496" unicode="ھ"/><glyph d="M657 0q-133 0 -204 74q-56 59 -109 217q-63 -83 -74 -92q-54 -45 -155 -45q-113 0 -113 71q0 97 70 179q50 58 134 105l83 40l2 22l-1 23l-1 30l1 35q0 10 1 16.5t6 22.5q2 15 8.5 30.5t15.5 15.5q5 0 10.5 -10.5t10.5 -41.5q24 -148 41 -208q35 -132 91 -208 q71 -96 183 -110v-166zM326 362l-16 70l-11 55q-17 -44 -81 -95l-77 -58l23 -3l32 -1q29 0 44 3t20.5 4.5t13 4t21.5 7.5t31 13z" arabic-form="final" horiz-adv-x="657" unicode="ھ"/><glyph d="M484 -187q7 -1 12 -5.5t8 -10.5t4.5 -12t1.5 -10q-7 -15 -16.5 -30.5t-26.5 -25.5q-7 -6 -16 -8t-18.5 -0.5t-18 5t-14.5 9.5q-18 12 -27.5 29t-11 35.5t2.5 37.5t12 34q21 44 50.5 82t61.5 75q8 10 14.5 12t10.5 1q3 -2 3 -7t-7 -11q-18 -24 -37 -51t-30 -55t-10 -55 t24 -51q5 0 8.5 2t6.5 4l6 4t7 2zM493 482h7q33 0 72 -112q13 -47 23 -122v-15q0 -89 -41 -169q-27 -51 -117 -51h-4l-7 -1v1l-1 -1h-1q-60 14 -80 27q-29 21 -51 53q-28 47 -28 80l-32 -55q-51 -69 -138 -95q-68 -17 -80 -17h-32l-2 2v153l2 2h13q42 0 115 14q45 14 86 35 q27 12 55 41q4 0 55 55h5l2 -2q0 -88 93 -127l12 -4q69 0 95 38q2 4 2 11q0 20 -36 68q-31 44 -31 75q0 18 31 99q7 14 13 17z" arabic-form="initial" horiz-adv-x="618" unicode="ہ"/><glyph d="M73 507h3q21 0 42 -36q20 -33 33 -71q14 -37 30 -149v-10q0 -38 -8 -83q4 -38 13 -208q6 -65 23 -117l9 -24h1q-2 16 -4 59q0 114 49 201q61 100 172 100h2l1 -2v-173l-1 -1l-48 1q-51 0 -75 -46q-16 -24 -34 -92q-6 -26 -6 -49v-5q0 -54 43 -101q5 -10 5 -14v-4 q0 -12 -21 -134q-4 -6 -5 -6h-4q-17 3 -53 28q-24 16 -58 52q-36 44 -46 71q-14 27 -23 65q-19 62 -19 251q-29 -16 -102 -16v175h1q54 0 90 26q15 15 15 27q0 24 -43 81q-28 44 -30 60l-2 16q0 16 18 64q22 64 32 64zM305 -735q7 -1 12 -5.5t8 -10.5t4.5 -12t1.5 -10 q-7 -15 -16.5 -30.5t-26.5 -25.5q-7 -6 -16 -8t-18.5 -0.5t-18 5t-14.5 9.5q-18 12 -27.5 29t-11 35.5t2.5 37.5t12 34q21 44 50.5 82t61.5 75q8 10 14.5 12t10.5 1q3 -2 3 -7t-7 -11q-18 -24 -37 -51t-30 -55t-10 -55t24 -51q5 0 8.5 2t6.5 4l6 4t7 2z" arabic-form="medial" horiz-adv-x="424" unicode="ہ"/><glyph d="M657 0q-133 0 -204 74q-56 59 -109 217q-63 -83 -74 -92q-54 -45 -155 -45q-113 0 -113 71q0 97 70 179q50 58 134 105l83 40l2 22l-1 23l-1 30l1 35q0 10 1 16.5t6 22.5q2 15 8.5 30.5t15.5 15.5q5 0 10.5 -10.5t10.5 -41.5q24 -148 41 -208q35 -132 91 -208 q71 -96 183 -110v-166zM326 362l-16 70l-11 55q-17 -44 -81 -95l-77 -58l23 -3l32 -1q29 0 44 3t20.5 4.5t13 4t21.5 7.5t31 13z" arabic-form="final" horiz-adv-x="657" unicode="ہ"/><glyph d="M657 0q-133 0 -204 74q-56 59 -109 217q-63 -83 -74 -92q-54 -45 -155 -45q-113 0 -113 71q0 97 70 179q50 58 134 105l83 40l2 22l-1 23l-1 30l1 35q0 10 1 16.5t6 22.5q2 15 8.5 30.5t15.5 15.5q5 0 10.5 -10.5t10.5 -41.5q24 -148 41 -208q35 -132 91 -208 q71 -96 183 -110v-166zM326 362l-16 70l-11 55q-17 -44 -81 -95l-77 -58l23 -3l32 -1q29 0 44 3t20.5 4.5t13 4t21.5 7.5t31 13zM346 1005q15 5 15 -11q0 -14 -9.5 -38t-19.5 -37q-26 -30 -82 -59q-141 -68 -166 -90l-17 -4l-15 1q-12 0 -13 10q0 13 33 46q8 7 19 17 q16 14 29 24l-55 12q-21 10 -40 61q23 76 64.5 126.5t88.5 50.5q30 0 50 -23q4 -4 4 -21q0 -22 -5 -45l-3 -12l-15 -17q-3 -3 -18 -5l-12 1l-11 1q-4 7 -5 13q0 12 -5 12q-41 -5 -54 -12.5t-13 -24.5q31 -32 62 -41l58 -14q41 15 74 38z" horiz-adv-x="657" unicode="ۂ"/><glyph d="M372 1011q0 -18 -17 -61q-21 -58 -48 -61q-22 0 -59.5 32.5t-53.5 57.5q4 14 12 32t20 39q27 50 38 54q9 0 54 -33q50 -37 54 -60zM176 938q2 -6 2 -11q0 -23 -23 -74q-15 -33 -29 -34q-14 0 -45 20q-71 39 -77 62q-5 9 25 66l34 61q20 -10 51 -34q39 -30 62 -56zM657 0 q-133 0 -204 74q-56 59 -109 217q-63 -83 -74 -92q-54 -45 -155 -45q-113 0 -113 71q0 97 70 179q50 58 134 105l83 40l2 22l-1 23l-1 30l1 35q0 10 1 16.5t6 22.5q2 15 8.5 30.5t15.5 15.5q5 0 10.5 -10.5t10.5 -41.5q24 -148 41 -208q35 -132 91 -208q71 -96 183 -110 v-166zM326 362l-16 70l-11 55q-17 -44 -81 -95l-77 -58l23 -3l32 -1q29 0 44 3t20.5 4.5t13 4t21.5 7.5t31 13z" horiz-adv-x="657" unicode="ۃ"/><glyph d="M1047 -195q-3 -20 -9 -39t-16 -40q-13 -31 -40 -72q-55 -46 -117.5 -89t-131.5 -81q-112 -61 -235 -101q-51 -16 -95.5 -25t-76.5 -9q-120 0 -217 98q-110 112 -110 291q0 35 6 72t20.5 87.5t36.5 96.5t49 78q9 11 23 20.5t22 11.5q3 0 4 -3t-1 -10q-3 -14 -19 -42 q-26 -43 -45 -120.5t-19 -129.5q0 -115 86 -198q83 -80 189 -80h11q51 0 102 11q96 19 202 65q140 59 291 163q9 6 9 24q0 10 -5 15q-12 15 -148 42q-96 18 -157 38q-19 10 -19 34q0 25 21 67l21 36q84 71 204 115q97 35 164 35v-166l-90 -3q-36 -3 -54.5 -10.5t-30.5 -16.5 t-14 -15q0 -5 15 -8l68 -14q45 -10 71 -25q35 -29 35 -103z" arabic-form="final" horiz-adv-x="1047" unicode="ی"/><glyph d="M778 156h27l7 -7v-140q-7 -9 -197 -34q-164 -34 -327 -108q-149 -81 -149 -102l3 -11q180 -57 786 -57l428 34v-21q0 -46 -146 -119q-217 -61 -762 -61q-344 0 -421 92q-9 9 -14 41q0 162 160 282q41 48 228 126q291 85 377 85z" arabic-form="final" horiz-adv-x="786" unicode="ے"/><glyph d="M778 156h27l7 -7v-140q-7 -9 -197 -34q-164 -34 -327 -108q-149 -81 -149 -102l3 -11q180 -57 786 -57l428 34v-21q0 -46 -146 -119q-217 -61 -762 -61q-344 0 -421 92q-9 9 -14 41q0 162 160 282q41 48 228 126q291 85 377 85zM441 435q15 5 15 -11q0 -14 -9.5 -38 t-19.5 -37q-26 -30 -82 -59q-141 -68 -166 -90l-17 -4l-15 1q-12 0 -13 10q0 13 33 46q8 7 19 17q16 14 29 24l-55 12q-21 10 -40 61q23 76 64.5 126.5t88.5 50.5q30 0 50 -23q4 -4 4 -21q0 -22 -5 -45l-3 -12l-15 -17q-3 -3 -18 -5l-12 1l-11 1q-4 7 -5 13q0 12 -5 12 q-41 -5 -54 -12.5t-13 -24.5q31 -32 62 -41l58 -14q41 15 74 38z" arabic-form="final" horiz-adv-x="786" unicode="ۓ"/><glyph d="M553 1701q12 -42 12 -83q0 -51 -22 -165q-18 -27 -25 -28q-3 11 -4 19q-5 29 -5 58q0 40 -7 72.5t-24 79.5q-39 112 -130 203l21 153q42 -18 99 -114t85 -195zM725 1139q-6 -47 -21.5 -87t-37.5 -63q-17 -17 -31 -23t-29 -8q-14 0 -31 9l-24 20l-41 -49q-27 -27 -66 -27 q-40 0 -58.5 38.5t-18.5 99.5q0 24 21.5 83t38.5 59q5 0 11 -10l4 -21q0 -10 -6 -32t-6 -36q0 -45 28 -45q14 0 27 4q42 8 66 87.5t31 80.5q5 0 14 -12t9 -25q0 -9 -4 -21q-9 -26 -7 -43q30 -24 49 -24t33 48q9 48 10 51q5 23 8 35t11 14q6 0 14 -24q3 -13 5 -26t2 -30z M1102 250l3 -52q0 -88 -33 -148q-37 -64 -97 -64q-64 0 -114 50q-11 11 -109 171q-10 -80 -69 -163q-72 -105 -165 -105q-87 0 -153 84q-54 69 -54 129q-40 -40 -91 -70.5t-89 -30.5q-49 0 -90 29q-49 34 -49 80q0 30 33 82t61 73q84 71 165 103q51 19 73 61q8 11 24 144 q3 18 10 18q7 -4 9 -8l13 -20q3 -6 6 -23t3 -45l4 -129l-1 -68l-1 -65q0 -69 39 -116.5t107 -47.5q89 0 135 65q18 28 51 121q-7 67 -19 145l-30 209q0 18 15 63l17 54q6 21 13 21q9 0 21 -60l27 -154q20 -119 40 -206q24 -96 57 -141t88 -60l22 -6l25 -2q19 0 30.5 8 t11.5 30q0 17 -5 32q-28 94 -46 142l-38 105q-29 86 -52 166q-19 76 -19 99q0 13 13 56l12 48q3 18 11 19q18 0 60 -135q28 -92 74 -274zM309 254v104q-5 -14 -67 -45l-123 -59q-6 -4 -8 -9q0 -9 23 -19q26 -8 57 -8q33 0 54.5 5.5t34.5 12t29 18.5z" arabic-form="isolated" horiz-adv-x="1159" unicode="ﷲ"/><glyph d="M1343 -195q-114 64 -198 131t-141 137.5t-89 145t-43 154.5q-18 -54 -49.5 -98t-70.5 -82q-35 -41 -79 -76.5t-92.5 -63.5t-98.5 -47t-96 -26q-45 -8 -85.5 0t-71 36.5t-48 78.5t-17.5 126q0 54 9 105t22 88q14 2 15 -9.5t1 -21.5v-72q0 -24 5 -46t18.5 -39t36.5 -28 t59 -12q87 -2 153 32q84 35 159 80q38 23 69 45.5t56 45.5q51 46 46 64q-18 103 -44.5 180.5t-51.5 136t-42.5 100.5t-17.5 74q2 43 5.5 84.5t7.5 81.5q1 4 10 4q5 0 18 -17.5t29 -45.5t33 -62t31 -67q20 -54 37.5 -110t33.5 -116q31 -122 75 -237q22 -58 51 -110.5 t64 -103.5q72 -97 197 -159q11 -5 11 -2l2 8q12 45 28.5 90t52.5 76q40 32 80.5 63.5t82.5 59.5t87 51.5t95 40.5l-654 -4q-13 0 -24 0.5t-19.5 3.5t-13 10.5t-4.5 22.5q0 26 9 51t19 49q15 35 28 72t38 67q65 71 141.5 126t160 99.5t171 82t174.5 73.5q15 7 8 10 q-6 3 -14 3t-27 13q-13 9 -28.5 23t-29 32.5t-21.5 41.5t-5 49q0 3 2 13.5t6 24t8.5 29.5t9.5 31q4 15 9 30.5t10 27.5t10 19.5t9 7.5q9 0 43.5 -9.5t80 -25t96.5 -35.5t93.5 -41t71 -42t29.5 -38q0 -18 -9 -47t-22.5 -60t-29.5 -59t-29 -43q-40 -23 -93 -46t-110.5 -46 t-114 -45.5t-102.5 -44.5q-54 -25 -103 -48.5t-94.5 -50t-89.5 -57.5t-88 -71l1106 12q16 0 24.5 -4t8.5 -18q0 -18 -20 -53t-64 -107q-17 -2 -44.5 -8.5t-66.5 -17.5q-78 -21 -173.5 -54t-201.5 -75q-104 -42 -189 -84q-42 -21 -78.5 -42t-64 -41t-43.5 -38t-18 -33 q18 -26 52.5 -54.5t76 -55t84.5 -48.5t78 -35q-1 -4 -6 -32.5t-12 -62.5t-16 -63.5t-19 -36.5q-72 -8 -136 22q-34 15 -65 30.5t-60 31.5z" arabic-form="isolated" horiz-adv-x="2492" unicode="ﷴ"/><glyph d="M1035 1228q0 -5 0.5 -13l1 -16t1 -15t0.5 -9q0 -10 2.5 -16.5t12.5 -6.5q17 0 17 15q0 3 0.5 10t0.5 14q0 8 0.5 15.5t0.5 11.5q0 10 4 14.5t6 -9.5q1 -3 2.5 -10t2.5 -14.5t2 -14t1 -9.5q3 -6 7.5 -12t12.5 -6q7 0 7 8q0 16 -3 32t1 34q-4 5 0.5 6t6.5 -5q3 -15 6 -31 t3 -34q0 -14 -3 -25.5t-21 -11.5q-19 0 -25 18q-9 -10 -14.5 -16.5t-16.5 -6.5q-10 0 -18.5 7.5t-8.5 18.5v48q0 -8 3 -1t8 30zM606 1172q0 -9 2.5 -15t13.5 -6q15 0 18 14q0 3 0.5 9.5t1 14.5t1 15.5t0.5 11.5q-4 11 1 15t9 -10q0 -3 1 -10t2 -14.5t2 -14.5t1 -10 q4 -5 7.5 -10t11.5 -5q5 0 5 5q0 18 -0.5 34t-0.5 32q0 6 3.5 7t7.5 -4q4 -18 6.5 -34t2.5 -32q0 -13 -5 -25.5t-23 -12.5q-14 0 -21 19q-8 -11 -15 -17.5t-20 -6.5q-9 0 -16.5 8t-7.5 18v49q0 1 1.5 6l3 10t3.5 9t4 4v-54zM554 874q-4 -5 -7.5 -4t0.5 7q6 14 8.5 29t2.5 30 q0 16 -3 31t-11 29q0 3 -0.5 9.5t0 12t3.5 7t10 -4.5q19 -35 18 -73t-21 -73zM336 870q0 -1 2 -1q19 -6 39 -8t42 2q8 0 19 4t15 12q0 13 1.5 21.5t1.5 19.5v6q0 5 -1.5 11t-8.5 3q-27 -18 -54 -34t-54 -34zM950 1240q-1 -40 2 -86t6.5 -93.5t7 -94t3.5 -87.5 q0 -40 -5 -72.5t-18 -52.5q-9 103 -14 200t-14 197q3 7 5.5 19.5t5.5 25.5t8 25t13 19zM1466 668q72 -14 144 -9.5t144 18.5q-13 37 -34.5 56.5t-47 25.5t-54.5 0t-56.5 -19.5t-52.5 -32.5t-43 -39zM1230 436q4 -6 11 -15t17.5 -15.5t24 -8t31.5 7.5q-4 13 -14 24 t-22.5 16.5t-25.5 4t-22 -13.5zM314 316q9 -8 21.5 -14.5t25.5 -12t25 -10l20 -7.5q-5 11 -13.5 25t-20 23t-26 10t-32.5 -14zM1178 130q-10 1 -19 1.5t-19 0.5q-29 0 -55.5 1.5t-49.5 15.5q28 4 56.5 8t52.5 18q19 7 42.5 19.5t46.5 28.5t43.5 35t34 40t17.5 42.5t-6 42.5 q-6 -10 -11 -20t-11 -18t-15 -13t-23 -5q-24 0 -45 15.5t-25 43.5q7 67 34.5 101t58 35.5t54.5 -29t24 -91.5q1 -33 -6 -61t-19.5 -54t-30 -51t-38.5 -52q-18 -20 -42 -35t-49 -19zM50 125q1 0 15 5.5t36 15t50 21.5t56 24.5t53.5 25t43.5 22.5q0 2 -6.5 6.5t-15 11t-15 15 t-6.5 18.5q0 14 12.5 33t30.5 36t36.5 29t30.5 12q20 -2 35 -21t32 -41t38.5 -40t54.5 -18q6 0 15 1.5t18 7.5t14.5 17t3.5 30q-6 58 -9.5 98t-6 66t-3 40.5t-0.5 21.5v13q0 29 7 58.5t12 59.5q-36 -15 -61.5 -5t-40.5 34.5t-21 57.5t-3 65q-7 -18 -20 -29t-29.5 -16 t-34.5 -4.5t-34 4.5q-8 0 -17.5 2.5t-18 7.5t-14.5 12t-6 17q12 27 32 47t44 36t51 29.5l53 26.5q0 5 2 14t3 13q3 4 7 11l8 14t6.5 12.5t2.5 7.5h5q2 -19 2.5 -41.5t0.5 -45.5q0 -22 -1 -44t-2 -40q0 -17 1.5 -37.5t8.5 -38t20 -29.5t36 -12q27 0 46.5 20t23.5 46 q2 28 1 55.5t-2.5 55.5t-1 55.5t5.5 55.5q2 7 4.5 17t4.5 20t4.5 17t4.5 7q0 1 1 0q9 -57 14 -113.5t14 -113.5q1 -21 6.5 -41t16 -35.5t26.5 -25t39 -9.5h19q12 0 14 8q0 19 -5.5 47t-12 58t-12 58.5t-5.5 47.5q1 12 3 28.5t4.5 33t5.5 32t6 25.5q0 8 4 9.5t7 -8.5l36 -259 q12 -71 -29 -136q-5 -8 -18 -8t-14 -9q-10 -28 -16.5 -53t-6.5 -55q0 -67 40.5 -96.5t103.5 -29.5q54 0 110.5 21.5t101.5 55.5q-45 18 -88 27t-85 27q0 8 0.5 22t13.5 18q22 4 43 7.5t37.5 6.5t28 7t14.5 10q0 22 0.5 31t0.5 16v17q0 9 -1 23t-2.5 38t-4.5 59.5t-7 88.5 q0 4 -1.5 14t-1.5 15q0 35 7 69t15 69q2 3 2.5 5.5t4.5 3.5h3l40 -353q5 -39 31.5 -56.5t61.5 -17.5q41 0 67 14.5t53 43.5q0 1 2 2t2 -2q-3 -19 6 -31.5t23.5 -20.5t31 -12.5t29.5 -7.5q31 34 66.5 64.5t73 52t74.5 31.5t69.5 3t60 -34.5t45.5 -80.5q0 -1 -0.5 -3.5 t-3.5 -10t-10 -22t-20 -39.5q-2 -6 -8.5 -11.5t-14.5 -9.5t-16 -6.5t-14 -2.5q-85 -23 -168.5 -24.5t-171.5 14.5h-5q-8 -11 -18 -23t-21 -22q-3 -3 -5.5 -1.5t1.5 5.5q3 14 11.5 25.5t16.5 22.5q-23 13 -41 28t-26 40q-14 -32 -45.5 -50t-65.5 -19t-61.5 17t-33.5 57 q-6 -12 -11 -20t-9.5 -13.5t-9 -10.5t-10.5 -12q4 -2 11 -4.5t14.5 -4.5t14 -3.5t9.5 -1.5q15 -6 19.5 -15t4.5 -25q0 -41 -28.5 -74t-70 -56t-87 -35.5t-79.5 -13.5q-38 -1 -67 10.5t-49 33t-30.5 51t-10.5 65.5q0 42 12.5 79.5t30.5 75.5q-12 0 -25.5 1t-26 5.5 t-22.5 12.5t-14 22q-2 3 -4.5 10t-4.5 15t-3.5 15t-1.5 10q-8 -24 -18 -47t-38 -47q11 -88 18.5 -172t22.5 -169q7 -37 29 -56t49.5 -21.5t55.5 10.5t47 40q3 6 7 6q3 0 3 -8t-1 -13t-1 -11q0 -14 16.5 -19t30.5 -5h16q18 0 30.5 2.5t22 8t18 15t20.5 24.5q8 6 8 -2 q0 -14 -5 -19.5t-3.5 -8.5t16 -7t54.5 -15q0 11 -3 21.5t-3 18.5q5 9 11 23t10 17q0 2 2.5 8.5t6 11.5t6.5 6t4 -8l11 -44t5 -42q0 -23 -9 -43.5t-17 -43.5q-4 -8 -10.5 -8.5t-16.5 -0.5q-26 3 -56 8.5t-54 21.5q-19 -14 -39.5 -20.5t-41 -5.5t-38.5 10.5t-32 28.5 q-14 -18 -35.5 -27.5t-44.5 -10.5t-44.5 7.5t-35.5 25.5q-8 14 -11.5 28.5t-7.5 32.5q0 4 -0.5 7t-4.5 -2q-8 -21 -15 -38t-17 -29t-24.5 -18.5t-36.5 -6.5q-27 0 -44.5 11t-35.5 29q-3 0 -6.5 -6.5t-9 -14t-12 -13.5t-15.5 -6q-16 0 -30.5 6.5t-28.5 14.5 q-18 -29 -41.5 -51t-56.5 -30q-43 -10 -86 -16.5t-94 -6.5zM338 -92q-28 42 -55 90.5t-51 96.5q-4 7 -2.5 10.5t5.5 4.5t9 -1t7 -6q14 -23 29.5 -42.5t29.5 -42.5q5 -8 13 -20t18 -23t21.5 -19t23.5 -8q12 1 22.5 8.5t22.5 25t28 46t39 72.5q11 23 29 41t41 18q16 0 27 -6.5 t19 -17t15 -23t16 -24.5q24 -32 55.5 -51.5t67 -30.5t73.5 -14.5t74 -3.5q48 0 102.5 9.5t109.5 27.5t107 44.5t94 60.5q6 6 7 3.5t1 -8.5q-4 -13 -9 -21t-5 -19q0 -9 8.5 -15.5t20 -10.5t22.5 -5.5t16 -1.5q18 0 34.5 2.5t27.5 10.5t16.5 23.5t2.5 41.5l-27 294q0 7 1 14.5 t4.5 22t10.5 39t19 65.5l40 -366q2 -21 9 -43t19 -40t30.5 -30t42.5 -12q-14 23 -23.5 46t-9.5 47q-2 47 16 78.5t48 48t68.5 18.5t76.5 -9t72 -34.5t56 -58.5q-36 6 -76.5 13t-79.5 8.5t-75 -6t-63 -29.5q0 -11 5.5 -25t10.5 -22q26 -42 58 -58.5t69 -14t78.5 19.5t87.5 42 q1 2 2 1t1 -3v-1q-26 -54 -64.5 -82t-95.5 -46q-36 -10 -79 -16.5t-82.5 -1t-71 27t-44.5 67.5q-8 -23 -16 -43.5t-20.5 -37t-31 -26t-47.5 -9.5q-32 0 -59.5 18t-43.5 48q-40 -32 -95.5 -58t-118.5 -43t-129.5 -23t-128.5 1t-115.5 29t-90.5 62q-14 17 -21.5 32.5 t-12.5 27.5t-9.5 19t-12.5 7q-10 0 -19.5 -8.5t-15.5 -16.5q-21 -43 -34 -69t-21 -40.5t-12 -20.5t-7 -9q-10 -14 -21.5 -24.5t-25 -14.5t-28 0.5t-30.5 22.5zM1163 -160q-11 10 -1 20q3 7 14.5 25t31.5 42l78 -63q2 -2 10 8t17 22.5t17.5 23t11.5 10.5h5q20 -19 38 -37 t37 -36q-2 -5 -9 -13.5t-15 -18t-16 -18.5t-12 -14q-3 -8 -15 0q-18 14 -34.5 30t-34.5 31q-13 -15 -25.5 -33t-28.5 -31q-6 -6 -14 3q-16 11 -28.5 23.5t-26.5 25.5z" arabic-form="isolated" horiz-adv-x="1991" unicode="ﷺ"/><glyph d="M805 1256l1 -21q0 -33 -11 -67t-45 -82l2 -326q0 -149 -39 -299q-32 -124 -64 -162l19 -56l14 -50q8 -34 8 -103l-1 -41q0 -16 -6 -37q-3 -17 -23 -39t-48 -26q-125 -23 -190 -30q-33 -3 -63.5 -5t-61.5 -2q-28 0 -28 40q0 16 9 72l5 44q0 9 16 18q83 42 149 103l107 116 q-35 116 -115 255q-93 165 -237 341l3 -28q0 -7 -1 -9t-2 -3l-6 1q-44 12 -101 60q-49 41 -94 98l3 122q0 25 5.5 47t16.5 46q-2 9 2.5 19t23.5 10q30 0 81 -42q63 -53 147 -167q105 -146 188 -301q52 -99 100 -225l43 -123q31 41 48.5 163.5t17.5 264.5q0 212 -8 284 l-25 61q-9 21 -12 36l-1 12q0 49 25.5 126t45.5 77q10 0 16 -27q11 -66 49 -112q13 -16 37 -33zM618 121q-2 17 -10 37l-22 51q-8 -11 -45.5 -44t-69.5 -52l48 -4l58 3q26 3 41 9z" arabic-form="isolated" horiz-adv-x="791" unicode="ﻻ"/><glyph horiz-adv-x="257"/><glyph horiz-adv-x="400"/><glyph horiz-adv-x="400"/><glyph horiz-adv-x="400"/><glyph d="M110 111q0 52 34 93q42 50 118 50q145 0 145 -145q0 -138 -154 -138q-143 0 -143 140zM423 1249q0 -39 -18 -150l-85 -470q-22 -128 -26 -193q0 -14 -14 -14h-37q-14 0 -14 20q-5 66 -24 192q-7 51 -18 118l-55 336q-16 101 -16 129q0 182 150 182q157 0 157 -150z" horiz-adv-x="532" unicode="!"/><glyph d="M289 1403q38 7 75.5 6.5t77.5 -0.5l-26 -359l-103 16zM100 1395q13 2 32.5 3.5t41 2.5t42.5 1.5t37 0.5l-26 -340q-45 -11 -69 -15t-29 -4q-1 0 -1 1q-3 26 -5.5 54.5t-5.5 68t-7 94t-10 133.5z" horiz-adv-x="542" unicode="&quot;"/><glyph d="M634 815h-180l-60 -256h181zM540 369h-180l-84 -367q-6 -33 -21 -33h-133q-14 0 -8 29l86 371h-207q-15 0 -12 18l24 158q4 14 23 14h207l57 256h-188q-32 0 -29 14l24 162q3 15 27 15h197l88 374q3 19 16 19h131q16 0 8 -23l-82 -370h181l82 370l6 16q5 7 14 7h131 q17 0 10 -23l-84 -370h209q22 0 19 -15l-27 -162q-3 -10 -8 -12t-23 -2h-198l-58 -256h203q25 0 23 -16l-27 -164q-2 -10 -31 -10h-204l-82 -375q-7 -25 -21 -25h-133q-15 0 -8 23z" horiz-adv-x="1024" unicode="#"/><glyph d="M557 -82q-15 0 -15 21l2 100q-60 -6 -106 8l-4 -110q0 -19 -14 -19h-46q-14 0 -14 21l4 120q-81 24 -151 66q-35 20 -45 20q-15 0 -37 -39q-5 -10 -29 -10q-21 0 -18 35l32 350q0 15 15 15l45 -2q12 0 12 -15l2 -21q1 -12 1 -21l6 -46q9 -54 32 -110q51 -82 137 -131 l15 452q-112 27 -189 94q-104 96 -104 265q0 105 40 179q31 56 95 107q72 58 174 72l4 115q0 18 14 18h46q14 0 14 -18l-2 -107q47 3 104 -4l2 109q0 20 15 20h45q14 0 14 -18l-4 -121q38 -8 121 -33q22 -6 37 6l22 25q8 8 25 8q18 0 18 -25q0 -207 6 -329q0 -15 -10 -15 l-43 -6q-10 0 -12 6l-13 45l-15 50q-20 58 -44 90l-35 43q-28 30 -55 43l-16 -418q162 -45 232 -127q77 -89 77 -258q0 -135 -83 -235q-89 -109 -245 -136l-2 -108q0 -21 -16 -21h-41zM575 1245q-58 21 -104 10l-13 -411q12 -7 43 -13q11 -3 29 -6q5 -1 16 -3t17 -3z M395 1237q-62 -26 -88 -88q-19 -44 -19 -109q0 -125 99 -170zM440 123q33 -12 107 -8l12 442l-43 11l-8 2l-54 16zM618 125q125 48 125 223q0 133 -113 187z" horiz-adv-x="1024" unicode="$"/><glyph d="M446 692q9 34 11 114l1 210q0 165 -25 240q-21 65 -61 65q-52 0 -76 -68q-18 -46 -24 -144l-4 -84l-1 -75q0 -92 3 -142q4 -66 16 -106q21 -84 76 -84q60 0 84 74zM364 14q-13 9 -13 17q0 5 4 12l830 1339q8 17 16 17q9 0 19 -6l61 -35q8 -6 8 -15q0 -6 -8 -20 l-827 -1337q-8 -17 -19 -17q-10 0 -16 6zM192 589q-58 40 -95 114q-31 59 -45 136q-12 59 -12 113q0 188 78 308q91 139 260 139q174 0 252 -147q31 -58 45 -137q12 -65 12 -140q0 -434 -334 -434q-93 0 -161 48zM1351 133q9 34 11 114l1 210q0 164 -25 240q-21 65 -61 65 q-52 0 -76 -68q-17 -46 -24 -144l-4 -84v-75q0 -92 3 -142q4 -66 15 -106q21 -84 76 -84q60 0 84 74zM1097 29q-57 41 -95 115q-30 59 -45 136q-12 59 -12 113q0 187 79 308q90 139 259 139q174 0 252 -147q31 -58 46 -138q11 -64 11 -139q0 -434 -333 -434q-94 0 -162 47z" horiz-adv-x="1634" unicode="%"/><glyph d="M204 89q-129 108 -129 235q0 105 55 204q44 79 117 144q103 90 209 143q-202 134 -205 285q2 123 124 236q125 114 267 114q164 0 264 -90q92 -83 89 -195q-3 -81 -82 -162q-71 -73 -164 -108q111 -48 220 -155q94 -93 183 -226q121 144 121 299q0 64 -63 64h-27 q-14 0 -14 14v49q0 10 14 10l85 -3q86 -3 150 -3l178 5h6l27 1q15 0 15 -16v-43q0 -14 -15 -14h-34q-91 0 -125 -54l-88 -144q-40 -63 -78 -119q-47 -68 -90 -122q9 -7 29 -29l43 -49q31 -37 49 -57l82 -83q25 -22 50 -39q73 -48 144 -48q83 0 150 59q21 20 41 46l22 30 q10 13 16 6l41 -28q7 -4 -2 -19q-18 -33 -46 -69q-39 -48 -87 -85q-59 -47 -128 -73q-81 -31 -171 -31q-153 0 -261 76q-42 30 -88 78l-81 90l-16 -16l-56 -57q-50 -48 -95 -80q-61 -42 -128 -64q-80 -27 -172 -27q-204 0 -346 120zM840 180q36 22 72 53q24 21 58 58 q-77 129 -201 261q-131 141 -243 208q-60 -36 -110 -132q-59 -112 -56 -229q2 -120 99 -202q83 -70 169 -70q120 0 212 53zM529 1297q-30 -54 -30 -146q0 -61 57 -122q48 -51 115 -83q19 13 33 27q19 18 31 41q32 59 32 157q0 75 -32 131q-35 62 -93 62q-76 0 -113 -67z" horiz-adv-x="1884" unicode="&amp;"/><glyph d="M174 883q-6 48 -21 126q-6 31 -15 72l-41 199q-11 61 -11 84q0 117 123 117q117 0 117 -115q0 -24 -11 -85q-7 -40 -24 -129l-2 -9q-1 -6 -2 -9l-10 -53q-8 -41 -14 -72q-14 -78 -19 -126h-70z" horiz-adv-x="409" unicode="'"/><glyph d="M528 -338q-85 68 -154 145q-87 97 -164 226q-141 243 -141 555q0 296 158 565q67 115 154 214q68 78 149 146q16 17 37 17q13 0 27 -11q14 -10 14 -18q0 -17 -17 -37q-258 -311 -258 -876q0 -559 258 -875q17 -19 17 -37q0 -8 -14 -19t-27 -11q-20 0 -39 16z" horiz-adv-x="669" unicode="("/><glyph d="M141 1513q85 -67 154 -144q87 -98 163 -226q142 -243 142 -553q0 -298 -158 -567q-68 -116 -154 -214q-68 -79 -149 -147q-17 -16 -37 -16q-13 0 -27 10t-14 18q0 18 16 37q258 322 258 879q0 552 -258 872q-16 20 -16 37q0 8 14 19q14 12 27 12q20 0 39 -17z" horiz-adv-x="669" unicode=")"/><glyph d="M430 72v346h-322v155h322v338h167v-338h320v-155h-320v-346h-167z" horiz-adv-x="1024" unicode="+"/><glyph d="M427 -124q-32 -61 -88 -118q-44 -46 -100 -85q-40 -28 -73 -46q-9 -4 -23 -6q-12 -2 -24 -2q-25 0 -25 21q0 10 20 30l43 40q29 30 50 59q61 81 61 159q0 45 -45 62l-45 19q-10 6 -19 13q-49 38 -49 103q0 168 148 168q89 0 147 -74q60 -76 60 -194q0 -75 -38 -149z" horiz-adv-x="573" unicode=","/><glyph d="M102 614q0 15 18 15h572q24 0 24 -23v-119q0 -14 -20 -14h-578q-16 0 -16 10v131z" horiz-adv-x="819" unicode="-"/><glyph d="M124 133q0 55 39 101q47 55 127 55q158 0 158 -164q0 -154 -156 -154q-168 0 -168 162z" horiz-adv-x="573" unicode="."/><glyph d="M624 1473q9 18 27 12l102 -43q14 -6 2 -35l-602 -1419q-10 -25 -26 -17l-101 45q-16 9 -2 37z" horiz-adv-x="768" unicode="/"/><glyph d="M751 1333q84 -59 136 -169q45 -94 65 -227q16 -108 16 -241q0 -727 -446 -727q-128 0 -225 66q-85 59 -143 165q-50 93 -75 214q-22 105 -22 213q0 351 118 557q123 215 345 215q135 0 231 -66zM403 1180q-57 -262 -57 -531q0 -155 7 -258q8 -115 26 -178 q44 -160 145 -160q104 0 131 133q27 145 27 555q0 275 -34 416q-37 158 -118 158q-98 0 -127 -135z" horiz-adv-x="1024" unicode="0"/><glyph d="M409 1020q0 94 -47 94q-39 0 -92 -14l-100 -29q-18 -3 -23 6l-14 41q-7 14 12 25l517 252q10 4 20 4q18 0 18 -31l-5 -399l1 -770q2 -82 19 -101q18 -20 94 -20h73q21 0 21 -17v-53q0 -14 -23 -14l-263 5h-144l-279 -5q-16 0 -16 14v55q0 15 29 15h53q90 0 114 16 q30 20 33 94q3 54 3 198z" horiz-adv-x="1024" unicode="1"/><glyph d="M203 0q-24 0 -53 -1l-113 -7q-17 0 -23 12q-12 28 12 49l33 30l138 134q59 61 112 120q62 69 115 136q102 129 151 242q56 129 51 256q-10 256 -237 250q-81 -5 -148 -55q-52 -39 -92 -105q-11 -19 -24 -12l-35 14q-10 6 0 29l16 36l25 45q35 58 81 102q58 56 130 87 q85 37 188 37q166 0 278 -111q111 -108 111 -262q0 -135 -69 -263q-74 -136 -240 -292l-274 -246v-8h354q89 0 149 49q38 32 82 107q14 24 37 12q33 -15 25 -33l-146 -379q-8 -22 -30 -22q-17 0 -27 20q-13 29 -133 29h-444z" horiz-adv-x="1024" unicode="2"/><glyph d="M114 28q-65 44 -65 101q0 103 86 107q54 0 91 -39q15 -15 27 -35l30 -55q10 -14 24 -24q36 -26 96 -26q106 0 174 86q64 82 64 197q0 282 -289 348q-47 12 -47 39q0 31 35 39q260 50 260 276q0 79 -46 135q-52 64 -140 64q-81 0 -143 -56q-54 -49 -89 -136 q-7 -17 -14 -23q-5 -4 -10 -2l-41 12q-15 3 -9 31q26 128 119 219q115 113 291 113q170 0 270 -94q83 -79 88 -187q0 -112 -79 -205q-65 -76 -183 -139v-4q129 -21 227 -116q105 -103 105 -232q0 -185 -160 -316q-167 -137 -418 -137q-168 0 -254 59z" horiz-adv-x="1024" unicode="3"/><glyph d="M612 0q-24 0 -24 23v299h-529q-61 0 -61 38q0 22 12 45q5 9 12 19l746 942q25 33 53 33q29 0 29 -70v-821h129q25 0 25 -19v-147q0 -20 -33 -20h-121v-293q0 -29 -29 -29h-209zM590 508v453q0 21 -13 22q-12 0 -26 -18l-332 -416q-33 -41 15 -41h356z" horiz-adv-x="1024" unicode="4"/><glyph d="M282 903q40 2 129 -11q107 -15 174 -40q120 -45 189 -137q79 -103 79 -250q0 -204 -166 -349q-167 -147 -405 -147q-102 0 -177 35q-73 35 -73 80q0 74 55 70q46 -5 119 -50q54 -30 135 -30q106 0 181 60q94 75 94 220q0 94 -46 165q-39 60 -102 91q-54 29 -135 44 q-69 14 -135 14q-36 0 -33 30l76 637q3 33 33 33h454q70 0 123 102q10 18 41 7q24 -6 19 -31l-78 -275q-13 -43 -84 -43h-432z" horiz-adv-x="1024" unicode="5"/><glyph d="M184 104q-76 101 -105 217q-12 47 -16 98q-4 40 -4 89q0 193 83 372q70 149 183 263q96 94 204 155q89 50 198 82l36 10l46 8l12 1q10 0 20 -7q11 -8 11 -18q0 -31 -48 -49q-130 -49 -260 -206q-140 -167 -178 -345l12 -6q84 80 226 80q176 0 273 -123q83 -105 83 -258 q0 -128 -38 -224q-34 -84 -95 -141q-142 -133 -340 -133q-200 0 -303 135zM622 96q58 75 58 266q0 155 -44 250q-47 103 -133 103q-88 0 -120 -35q-28 -28 -36 -98q-4 -30 -5 -77v-97q0 -54 6 -107q8 -67 24 -119q44 -137 136 -137q74 0 114 51z" horiz-adv-x="1024" unicode="6"/><glyph d="M997 1368q21 0 21 -22q0 -11 -13 -36l-63 -107l-63 -118q-39 -76 -73 -148q-40 -85 -69 -157q-39 -97 -71 -188q-29 -80 -54 -164q-20 -66 -43 -151l-41 -150q-19 -67 -59 -109q-47 -49 -113 -49q-123 0 -123 129q0 45 31 119q24 59 59 121q13 23 78 131l300 490l110 176 h-473q-83 0 -126 -29q-24 -16 -79 -84q-15 -20 -43 -4q-19 10 -12 31l129 381q3 9 7 11q6 3 23 3q32 0 27 -37q-3 -23 18 -30q23 -9 99 -9h616z" horiz-adv-x="1024" unicode="7"/><glyph d="M192 63q-92 78 -92 193q0 126 74 225q61 81 186 158l-59 43q-32 23 -53 40q-54 43 -85 80q-71 84 -71 204q0 142 117 258q135 135 352 135q157 0 265 -86q104 -83 104 -195q0 -118 -55 -197q-58 -81 -208 -167q147 -78 214 -165q77 -101 77 -245q0 -140 -117 -251 q-132 -124 -333 -124q-207 0 -316 94zM706 285q0 152 -274 305q-58 -46 -94 -115q-41 -81 -41 -174q0 -119 74 -191q61 -61 135 -61q200 0 200 236zM398 1228q-46 -68 -46 -171q0 -128 236 -262q61 42 97 105q42 74 42 163q0 107 -49 174q-51 71 -137 68q-92 0 -143 -77z" horiz-adv-x="1024" unicode="8"/><glyph d="M851 1247q63 -84 93 -184q12 -40 17 -78q5 -32 5 -59q0 -216 -84 -419q-89 -216 -248 -349q-152 -129 -327 -178q-34 -11 -64 -11q-33 0 -33 31q0 23 27 35q138 52 252 203q125 165 156 368h-15q-29 -23 -78 -39q-64 -20 -147 -20q-166 0 -261 126q-79 104 -79 238 q0 251 147 375q131 113 295 113q230 0 344 -152zM331 1018q0 -152 56 -252t139 -100q74 0 114 41q22 24 28 107q2 31 3 76v75q0 163 -31 250q-39 108 -126 108q-183 0 -183 -305z" horiz-adv-x="1024" unicode="9"/><glyph d="M124 133q0 55 39 101q47 55 127 55q158 0 158 -164q0 -154 -156 -154q-168 0 -168 162zM124 733q0 56 39 101q47 55 127 55q158 0 158 -164q0 -154 -156 -154q-168 0 -168 162z" horiz-adv-x="573" unicode=":"/><glyph d="M427 -144q-32 -61 -88 -119q-44 -45 -100 -85q-40 -28 -73 -45q-9 -4 -23 -7q-12 -1 -24 -1q-25 0 -25 20q0 10 20 31l43 40q29 29 50 58q61 82 61 160q0 44 -45 61l-45 20q-10 6 -19 13q-49 37 -49 102q0 168 148 168q89 0 147 -74q60 -76 60 -194q0 -75 -38 -148z M125 733q0 56 39 101q47 55 127 55q157 0 157 -164q0 -154 -155 -154q-168 0 -168 162z" horiz-adv-x="573" unicode=";"/><glyph d="M169 446v93l629 372v-170l-426 -239v-8l426 -248v-174z" horiz-adv-x="1024" unicode="&lt;"/><glyph d="M919 748v-156h-813v156h813zM919 438v-155h-813v155h813z" horiz-adv-x="1024" unicode="="/><glyph d="M854 537v-93l-629 -372v170l426 239v8l-426 248v174z" horiz-adv-x="1024" unicode="&gt;"/><glyph d="M297 395q0 -14 -14 -14h-52q-14 0 -14 14v410q0 33 33 26q23 -4 61 -5l64 -1q77 0 128 29q66 36 66 113q0 90 -114 137q-106 43 -213 43q-154 0 -154 129q0 123 127 123q150 0 322 -175q80 -82 128 -175q52 -102 52 -195q0 -102 -43 -166q-36 -56 -104 -85 q-55 -23 -132 -30l-66 -3l-59 -1q-16 0 -16 -16v-158zM121 102q0 140 151 140q150 0 150 -138q0 -133 -154 -133q-147 3 -147 131z" horiz-adv-x="778" unicode="?"/><glyph d="M958 1077q-53 0 -108 -62q-49 -53 -93 -146q-88 -185 -88 -308q0 -67 51 -67q20 0 61 41q35 36 80 97q92 124 121 191q41 100 41 158q0 96 -65 96zM1285 1130q26 0 11 -34q-12 -27 -56 -151q-43 -118 -67 -191q-21 -64 -38 -137q-22 -88 -22 -125q0 -41 43 -41 q78 0 163 121q48 69 74 158q32 103 32 226q0 441 -443 441q-151 0 -292 -73q-132 -69 -237 -191q-216 -252 -216 -562q0 -240 148 -378q141 -131 368 -130q108 0 183 12q103 16 188 58q14 6 18 0l21 -39q7 -15 -9 -24q-162 -101 -432 -101q-330 0 -515 161 q-177 154 -177 413q0 365 296 651q297 287 679 287q298 0 456 -149q152 -142 152 -398q0 -217 -165 -387q-84 -86 -196 -134q-122 -53 -264 -53q-90 0 -90 68l3 30q2 21 8 47q13 64 41 136l-11 4l-60 -84q-43 -55 -84 -94q-53 -49 -108 -75q-64 -32 -131 -32 q-129 0 -129 136q0 195 190 422q86 104 180 165q102 66 187 66q84 0 105 -72l26 39q10 14 21 14h149z" horiz-adv-x="1644" unicode="@"/><glyph d="M400 561q-3 -9 -10 -26l-15 -44q-21 -61 -39 -116q-23 -71 -37 -121q-16 -59 -16 -82q0 -94 80 -94h72q14 0 19 -5q4 -4 4 -12v-45q0 -22 -19 -22l-168 5l-110 1q-90 0 -157 -3q-11 -1 -23 -1l-44 -2q-14 0 -14 26v39q0 19 14 19h54q79 0 139 90q10 15 40 83l66 155 q80 194 136 342l99 262l104 282q1 5 2 8q3 10 4 18q3 21 -7 36l-9 13q-5 8 -5 13q0 14 20 19q54 12 128 43q80 35 102 59l3 4q3 3 4 3l6 6q7 6 13 6q13 0 23 -35q13 -43 48 -149l71 -210q23 -70 36 -109l34 -102q35 -105 49 -149q35 -121 111 -337l59 -165q28 -74 38 -94 q24 -46 61 -71q31 -21 58 -21h70q14 0 14 -19v-39q0 -11 -3 -17q-4 -9 -15 -9l-185 5h-269l-173 -5q-14 0 -19 8q-3 5 -3 18v39q0 19 12 19h57q79 0 62 74q-13 51 -60 204q-43 144 -63 205h-449zM830 643q-3 11 -11 39l-142 504q-12 45 -23 45q-16 0 -24 -27l-190 -523 q-10 -29 -13 -38h403z" horiz-adv-x="1484" unicode="A"/><glyph d="M254 891q0 58 -3 195l-4 163q-4 83 -30 106q-18 17 -76 17h-66q-10 0 -12 3t-2 16v47q0 18 16 18l192 -5l456 5q118 0 203 -12q96 -14 147 -43q157 -86 157 -279q0 -109 -68 -192q-76 -95 -231 -146v-4q388 -100 388 -405q0 -89 -43 -179q-47 -97 -117 -133 q-69 -35 -177 -54q-125 -21 -305 -21l-129 6q-89 6 -161 6l-215 -2l-80 -4q-23 0 -23 22v45q0 17 21 17h71q69 0 80 86q2 17 4 72l4 125q3 149 3 288v242zM553 807q72 -7 146 6q87 14 128 51q98 87 98 242q0 140 -84 207q-45 36 -114 57q-25 8 -48 13q-20 3 -30 3 q-88 0 -90 -34q-3 -30 -5 -146q-1 -107 -1 -243v-156zM553 332q0 -275 153 -275q125 0 196 68q87 83 87 260q0 246 -185 317q-65 26 -145 32q-28 3 -60 3h-46v-405z" horiz-adv-x="1411" unicode="B"/><glyph d="M546 20q-113 43 -219 138q-107 95 -168 258q-55 145 -55 289q0 329 211 555q96 102 219 157q143 64 322 64q128 0 248 -29q101 -23 163 -57q37 -19 43 2l17 51q3 9 9 11q6 1 30 1q34 0 34 -33q0 -13 6 -77l30 -281q8 -68 11 -90q4 -24 -10 -27l-45 -12q-15 -6 -24 23 q-41 148 -164 274q-74 72 -151 109q-93 45 -201 45q-212 0 -325 -174q-101 -156 -99 -402q0 -54 8 -116q9 -73 28 -142q22 -80 56 -146q38 -76 90 -130q88 -92 183 -129q65 -25 136 -25q165 0 301 67q121 60 183 152q17 27 30 16l35 -30q12 -8 0 -25q-102 -147 -239 -233 q-167 -105 -367 -105q-192 0 -326 51z" horiz-adv-x="1540" unicode="C"/><glyph d="M250 940q0 50 -4 196q-2 69 -3 115q-2 53 -3 64q-8 57 -68 57h-102q-17 0 -17 14v60q0 10 14 10l189 -5l264 1l174 4q116 0 199 -6q100 -8 180 -26q180 -42 315 -154q108 -90 166 -213q64 -137 64 -307q0 -318 -203 -539q-69 -75 -172 -125q-85 -41 -193 -64 q-84 -18 -180 -24l-75 -4l-342 5h-219l-173 -5q-14 0 -14 18v54q0 12 16 12h107q59 0 65 49q3 15 5 99q3 75 5 188q5 242 5 372v154zM557 741l4 -501q0 -62 35 -113q33 -49 164 -49q97 0 196 47q112 54 187 154q65 86 103 202q42 128 42 264q0 263 -166 447q-77 86 -200 138 q-111 48 -207 48q-85 0 -115 -16q-37 -18 -41 -88z" horiz-adv-x="1722" unicode="D"/><glyph d="M560 784q160 0 209 13q52 12 94 63q48 64 48 127q0 19 16 19l55 -7q19 -3 17 -16q-4 -23 -6 -93v-120q0 -60 4 -135l8 -98q2 -13 -17 -17l-49 -10q-11 -3 -16 16q-6 23 -19 56l-22 49q-35 60 -113 71q-83 13 -209 13l7 -376l1 -2l3 -91q0 -74 14 -113q12 -32 35 -43 q46 -18 172 -18q32 0 79 1l85 5q82 8 155 67q36 29 109 108q61 65 100 112q12 11 21 6l34 -21q12 -6 9 -16l-92 -309q-11 -31 -46 -31l-186 4l-805 1h-10l-152 -5q-18 0 -18 22v43q0 19 20 19h62q69 0 86 16q16 14 16 70v686q0 121 -2 277l-4 165q-10 80 -84 80h-80 q-10 0 -10 21v49q0 14 14 14l184 -5l864 2q10 0 24 1l32 2q13 0 17 -10l68 -274l16 -56q5 -13 -6 -20l-33 -17q-15 -7 -25 8q-4 7 -35 39l-72 72q-44 43 -78 73q-40 36 -56 46q-86 53 -156 55l-270 8z" horiz-adv-x="1423" unicode="E"/><glyph d="M559 723q125 0 202 12q56 7 107 74q29 37 45 109q3 16 16 16l47 -4q13 0 13 -15q-2 -12 -3 -47q0 -28 -1 -72v-114q0 -51 3 -119q3 -58 7 -94q0 -14 -14 -16l-46 -11q-13 -3 -16 17q-14 57 -39 98q-47 67 -100 82q-77 14 -221 14l2 -510q0 -65 49 -65h121q18 0 18 -12 v-56q0 -16 -16 -16l-179 5h-265l-181 -5q-12 0 -12 18v56q0 10 14 10h72q59 0 61 41q3 46 5 209l2 197l-3 788q0 59 -84 59h-84q-18 0 -18 12v60q0 12 14 12l194 -5h259h45l518 5q26 0 64 4l43 4q14 0 20 -34l80 -334q3 -14 -6 -17l-41 -22q-11 -5 -29 20l-58 74 q-47 58 -102 115q-66 73 -141 92q-18 5 -65 9l-100 6q-105 5 -195 5z" horiz-adv-x="1288" unicode="F"/><glyph d="M1511 199q0 -10 1 -20l7 -46q0 -20 -33 -33q-130 -66 -264 -97q-148 -34 -336 -34q-173 0 -324 55q-169 61 -270 179q-188 213 -188 563q0 309 238 514q228 201 579 201q141 0 266 -34q101 -28 162 -67q33 -19 51 6l21 33q14 21 26 21q29 0 29 -37l31 -422q3 -34 -8 -37 l-58 -12q-16 -3 -24 20q-28 85 -73 164q-52 92 -114 148q-133 127 -323 127q-90 0 -160 -33q-81 -37 -149 -121q-164 -196 -164 -467q0 -385 178 -563q139 -139 313 -139q147 0 232 41q47 22 47 192v148q0 94 -72 94h-86q-14 0 -14 18v51q0 15 14 15l181 -5h243l160 5 q18 0 18 -17v-51q0 -16 -14 -16h-60q-63 0 -63 -74v-270z" horiz-adv-x="1720" unicode="G"/><glyph d="M239 1239q0 133 -69 133h-84q-16 0 -21 6q-4 4 -4 15v39q0 11 4 16q5 8 19 8l175 -5h258l181 5q25 0 25 -22v-43q0 -11 -4 -14q-5 -5 -21 -5h-49q-81 0 -90 -112q-2 -31 -7 -175q-3 -72 -4 -130l-2 -140q0 -16 33 -16h612q41 0 41 26l-14 443q-3 104 -47 104h-84 q-20 0 -20 21v45q0 18 18 18l184 -5h227l171 5q26 0 26 -22v-39q0 -13 -4 -17q-5 -6 -22 -6h-62q-65 0 -65 -104l-4 -520q0 -230 6 -568q0 -102 82 -102h69q19 0 19 -19v-45q0 -9 -4 -14q-5 -6 -19 -6l-169 5h-249l-190 -5q-15 0 -22 6q-5 5 -5 14v45q0 19 23 19h90 q54 0 57 90q2 34 3 108l3 149l2 259q0 25 -45 25h-612q-29 0 -29 -25v-31q0 -181 15 -506q3 -69 67 -69h58q18 0 18 -17v-49q0 -18 -18 -18l-170 5h-247l-183 -5q-21 0 -21 22v43q0 19 21 19h94q57 0 57 94q6 289 6 547z" horiz-adv-x="1779" unicode="H"/><glyph d="M270 945l-2 144q-1 84 -3 140l-2 74q-6 69 -67 69h-99q-16 0 -16 12v60q0 12 14 12l197 -5h265l171 5q15 0 15 -18v-52q0 -14 -17 -14h-59q-82 0 -82 -53l-6 -470l2 -419q1 -10 1 -23l3 -255q0 -74 69 -74h84q17 0 17 -15v-57q0 -12 -19 -12l-175 5h-264l-187 -5 q-17 0 -17 16v56q0 12 17 12h59q83 0 92 55q2 11 4 89l3 173q3 224 3 320z" horiz-adv-x="849" unicode="I"/><glyph d="M222 1197q-2 77 -4 106q-19 69 -90 69h-70q-14 0 -14 10v60q0 14 14 14l181 -5h271l175 5q16 0 16 -16v-51q0 -17 -16 -17h-72q-73 0 -75 -55q-7 -98 -7 -543v-94q0 -89 -1 -183q-1 -72 -3 -151l-4 -174q0 -89 -15 -153q-19 -77 -67 -158q-78 -132 -195 -213 q-139 -97 -304 -97q-54 0 -98 33q-56 41 -56 115q0 131 123 131q69 0 117 -52q32 -35 67 -114q75 0 109 123q15 52 21 182q5 105 5 264l-4 348q-1 13 -1 24z" horiz-adv-x="733" unicode="J"/><glyph d="M548 786h35q28 0 58 27l26 28l47 55q50 59 128 156l194 244q25 35 8 59q-15 21 -49 21h-35q-10 0 -10 15v51q0 14 12 14l163 -5l107 -1q60 0 127 3l70 3q14 0 14 -14v-56q0 -14 -16 -14h-33q-61 0 -119 -35q-39 -23 -107 -88q-59 -56 -133 -136q-139 -151 -208 -245 q43 -54 129 -170l320 -433q75 -101 106 -136q26 -30 61 -42q13 -5 27 -8q11 -1 22 -1h25q14 0 14 -15v-55q0 -14 -16 -14l-164 5h-240l-167 -5q-13 0 -13 16v53q0 13 13 13h30q24 0 31 19q6 17 -2 34l-20 34q-15 24 -41 64l-118 178l-166 242q-19 26 -26 33q-24 29 -55 29 h-29l3 -398l4 -188q3 -45 47 -45h63q16 0 16 -12v-58q0 -14 -12 -14l-156 5h-240l-153 -5q-14 0 -14 14v58q0 12 14 12h64q48 0 55 37l6 437l-1 405l-5 366q0 49 -61 49h-52q-16 0 -16 14v58q0 12 16 12l154 -5h231l158 5q17 0 17 -16v-54q0 -14 -15 -14h-49q-67 0 -67 -59 l-6 -342z" horiz-adv-x="1515" unicode="K"/><glyph d="M557 199q1 -89 3 -117h189q40 0 72 1q81 2 155 9q73 7 170 141q75 103 111 191q10 20 24 12l41 -16q7 -4 4 -19q-2 -5 -16 -62l-32 -126q-41 -170 -52 -219l-365 4q-125 1 -265 2l-331 -1l-174 -5q-16 0 -16 18v51q0 15 14 15h64q27 0 46 5q16 4 26 12q16 12 16 34l5 521 l1 268q0 282 -6 380q-6 74 -62 74h-75q-15 0 -15 21v49q0 14 15 14l163 -5h272l191 5q19 0 19 -20v-47q0 -17 -21 -17h-96q-72 0 -72 -76l-5 -347z" horiz-adv-x="1357" unicode="L"/><glyph d="M336 568l4 -152l8 -148q5 -70 30 -123q30 -67 76 -67h80q14 0 14 -15v-55q0 -14 -18 -14l-42 2q-13 0 -24 1q-71 3 -161 3l-113 -1l-152 -5q-18 0 -18 18v54q0 12 12 12h84q44 0 71 55q20 41 28 105q6 50 13 160l12 213q11 239 11 292l-2 314q0 155 -112 155h-68 q-14 0 -14 14v58q0 12 14 12l169 -5h215q13 0 28 1l90 4q36 0 49 -35q44 -116 101 -259l152 -378l140 -358q4 7 14 29l24 53q24 55 61 146l203 488q46 114 74 183l38 100q7 25 94 25l196 1l216 5q12 0 12 -18v-47q0 -19 -16 -19h-90q-54 0 -54 -80l3 -473l8 -631 q0 -110 47 -110h98q14 0 14 -15v-51q0 -18 -18 -18l-157 5h-280l-182 -5q-16 0 -16 18v51q0 15 16 15h115q52 0 57 69l8 400l1 766h-13q-3 -6 -16 -36l-213 -504q-46 -110 -57 -136q-15 -32 -54 -126l-182 -441l-8 -15q-6 -9 -11 -15q-14 -17 -30 -17q-20 0 -37 36l-91 214 q-27 64 -51 121l-149 351q-35 92 -128 315l-74 176q-34 78 -39 87q-2 -5 -3 -32l-3 -66l-6 -378z" horiz-adv-x="2027" unicode="M"/><glyph d="M1347 596q0 131 -1 222q-2 82 -5 163q-1 68 -7 174l-6 87l-5 50q-19 80 -109 80h-65q-13 0 -13 19v51q0 14 19 14l71 -3q77 -3 168 -3l195 6q21 0 21 -16v-49q0 -19 -11 -19h-57q-52 0 -61 -108q-14 -132 -29 -386q-9 -136 -13 -254q-6 -135 -6 -231v-374l-4 -21 q-7 -23 -26 -23q-47 0 -80 33q-77 73 -258 287l-350 416q-35 41 -178 220q-68 85 -115 146q-56 71 -72 94h-16v-413q0 -58 3 -139l13 -274q3 -64 4 -87q6 -180 127 -180h51q17 0 17 -19v-49q0 -16 -17 -16l-298 5l-167 -5q-10 0 -10 18v54q0 12 12 12h72q73 0 88 203l4 78 q3 77 6 157q4 108 6 207q3 122 3 227v185q0 93 -50 163q-52 73 -127 74l-51 2q-12 0 -12 15v55q0 12 12 12l148 -5q58 -1 131 -1l155 4q36 0 60 -27l218 -267l607 -750h8v186z" horiz-adv-x="1658" unicode="N"/><glyph d="M653 -2q-135 34 -248 104q-122 74 -205 225q-96 175 -96 384q0 52 8 105q9 64 28 125q48 151 154 280q123 149 297 212q72 26 154 38q68 10 145 10q144 0 250 -31q130 -37 250 -131q126 -100 199 -246q82 -166 82 -366q0 -242 -154 -449q-111 -139 -244 -207 q-161 -82 -387 -82q-118 0 -233 29zM1132 140q82 62 136 175q43 91 65 207q16 89 16 168q0 159 -49 298q-43 123 -120 218q-145 178 -298 178h-41q-32 -2 -61 -10q-86 -23 -166 -100q-86 -82 -136 -229q-46 -134 -46 -269q0 -185 49 -332q44 -128 122 -220q69 -79 154 -121 q76 -37 146 -37q132 0 229 74z" horiz-adv-x="1775" unicode="O"/><glyph d="M552 143q6 -65 58 -65h104q17 0 17 -15v-53q0 -16 -19 -16l-183 5h-266l-165 -5q-17 0 -17 14v55q0 15 13 15h53q83 0 90 61l7 390l-1 748l-2 50q-4 45 -65 45h-97q-12 0 -12 17v53q0 14 12 14l175 -5l222 1l140 4q346 0 491 -113q148 -112 148 -317q0 -187 -141 -299 q-146 -115 -400 -115q-83 0 -166 6zM548 698q54 -12 125 -12q125 0 211 137q28 44 40 104q9 48 9 113q0 99 -33 173q-28 63 -80 104q-42 35 -95 52q-42 13 -80 13q-51 0 -97 -10v-674z" horiz-adv-x="1310" unicode="P"/><glyph d="M1243 1423q137 -55 239 -161q204 -213 197 -517q3 -158 -58 -306q-56 -137 -153 -232q-156 -156 -367 -221v-4q120 -49 253 -91q114 -36 231 -65q153 -37 269 -60q99 -20 172 -29q56 -7 101 -9h60q88 0 147 59q13 12 25 4l29 -24q10 -7 0 -25q-43 -69 -129 -145 q-110 -97 -191 -97q-45 0 -84 3q-50 4 -106 15q-135 24 -330 91q-187 65 -354 139q-189 82 -428 209q-7 3 -24 8l-28 8q-7 2 -11 3l-115 37q-77 29 -142 70q-83 50 -147 118q-86 89 -138 218q-57 144 -57 306q0 334 238 555q112 103 269 156q139 48 269 45q207 3 363 -58z M1125 130q83 63 139 174q47 92 72 207q19 93 19 171q0 171 -56 325q-48 130 -124 222q-127 155 -307 155q-73 0 -148 -40q-29 -16 -60 -38l-50 -38q-93 -92 -139 -225q-41 -118 -41 -252q0 -102 20 -201q18 -86 51 -168q28 -70 65 -133q31 -52 64 -94q48 -59 139 -101 q79 -37 130 -37q128 0 226 73z" horiz-adv-x="1783" unicode="Q"/><glyph d="M253 1137q0 96 -1 133q-3 102 -58 102h-82q-12 0 -12 14v56q0 14 12 14l166 -5h235l283 5q114 0 210 -38q85 -34 153 -97q117 -107 117 -223q0 -181 -120 -288q-102 -92 -255 -105v-15q43 -14 77 -43q22 -20 58 -65q9 -12 33 -48l148 -228q22 -31 46 -64l51 -69 q27 -36 42 -52q39 -43 149 -43q16 0 16 -17v-49q0 -18 -16 -18l-38 2q-11 0 -23 1q-70 3 -166 3l-195 -6q-40 30 -121 169q-30 49 -61 107l-41 78q-32 63 -55 104q-32 56 -60 94q-71 93 -137 93h-70v-104q0 -92 4 -224q2 -60 3 -100q2 -44 4 -53q7 -80 51 -80h84 q16 0 16 -17v-49q0 -11 -5 -14q-6 -4 -28 -4l-136 5h-265l-154 -5q-11 0 -14 5q-2 3 -2 15v47q0 17 10 17h62q82 0 82 65l3 298v696zM540 711q26 -2 49 -2h33q95 0 167 41q60 36 102 100q33 52 51 117q14 52 14 96q0 151 -78 229q-51 46 -118 70q-57 20 -109 20 q-57 0 -78 -18q-8 -6 -14 -22l-8 -33z" horiz-adv-x="1505" unicode="R"/><glyph d="M217 453q15 0 15 -17q7 -110 82 -231q87 -139 258 -139q90 0 165 53q91 64 91 174q0 131 -50 186q-54 60 -249 133q-58 21 -133 64q-94 54 -164 115q-103 90 -103 290q0 186 154 301q130 99 295 99q99 0 176 -15l57 -13l39 -13q29 -12 47 10l27 27q12 12 31 12 q9 0 15 -13l5 -22l33 -350q0 -9 -10 -12l-45 -15q-18 -7 -27 15l-9 23l-37 78q-34 62 -81 112q-77 86 -205 86q-102 0 -166 -74q-51 -58 -51 -113q0 -35 1 -54q2 -28 7 -49q11 -50 45 -85q38 -39 118 -77q70 -33 153 -56q132 -39 262 -156q112 -101 112 -305 q0 -192 -122 -320q-127 -133 -326 -133q-132 0 -220 23q-78 20 -147 65q-33 23 -47 23q-8 0 -16 -10l-16 -25q-9 -15 -18 -21q-7 -4 -19 -4q-32 0 -29 33l33 389q2 15 16 15z" horiz-adv-x="1175" unicode="S"/><glyph d="M593 1356l-130 -1l-71 -4q-88 -8 -145 -28q-30 -22 -91 -100q-42 -55 -95 -131q-10 -17 -21 -15l-45 17q-13 3 -8 18l55 216l28 114q12 53 15 67q8 35 31 35q14 0 39 -31q36 -45 135 -51l165 -8q103 -4 243 -4h118q78 0 145 1q55 1 106 4l89 4h4l54 3q103 5 149 51 q31 31 47 31q20 0 25 -33l61 -407q4 -15 -8 -19l-43 -16q-8 -2 -20 18q-89 146 -176 230q-18 11 -59 19q-35 7 -83 12q-39 4 -82 6l-125 2l1 -1088l1 -108q7 -82 70 -82h92q21 0 21 -21v-47q0 -16 -21 -16l-171 5h-281l-156 -4h-3l-34 -1q-18 0 -18 24v39q0 21 14 21h105 q62 0 69 61l4 357v860z" horiz-adv-x="1511" unicode="T"/><glyph d="M180 1268q0 104 -57 104h-97q-14 0 -14 19v49q0 16 18 16l196 -5h260l181 5q19 0 19 -16v-54q0 -14 -17 -14h-69q-101 0 -109 -80l-4 -266l4 -368l6 -201q4 -165 66 -244q95 -115 256 -115q144 0 242 90q129 117 129 334v316q0 60 -4 135q-3 65 -8 134q-9 130 -17 175 q-14 90 -76 90h-65q-15 0 -15 17v53q0 14 15 14l158 -5h170q15 0 31 1l62 3h5l22 1q21 0 21 -18v-45q0 -21 -13 -21h-63q-50 0 -72 -31q-7 -11 -12 -26q-1 -5 -2 -11l-2 -10q-2 -10 -3 -61q0 -41 -1 -109l-3 -384l-3 -150q-2 -75 -5 -103q-18 -253 -174 -391 q-143 -127 -362 -127q-81 0 -161 12q-92 14 -152 39q-163 72 -238 271q-43 109 -43 493v484z" horiz-adv-x="1495" unicode="U"/><glyph d="M963 1442q0 14 13 14l155 -5h213l141 5q15 0 15 -18v-52q0 -14 -15 -14h-47q-35 0 -68 -19q-48 -26 -83 -87q-28 -48 -63 -121q-26 -58 -63 -144l-382 -885q-46 -102 -57 -122q-21 -35 -48 -35q-23 0 -47 51q-26 56 -73 173l-296 755l-103 285q-12 30 -19 50l-12 32 q-30 67 -89 67h-53q-10 0 -10 21v49q0 14 14 14l181 -5h291l186 5q20 0 20 -18v-47q0 -19 -16 -19h-88q-88 0 -88 -49v-30q2 -21 6 -40q12 -53 58 -201q45 -142 79 -235l78 -227q56 -165 78 -230h8q41 95 105 258q58 146 81 209q67 173 135 365q14 35 18 67q2 12 3 25v21 q0 23 -20 43q-24 24 -64 24h-64q-10 0 -10 19v51z" horiz-adv-x="1396" unicode="V"/><glyph d="M1086 1042h-12l-396 -1049q-5 -10 -10 -17q-13 -17 -35 -17q-29 0 -43 41l-461 1298q-14 40 -39 59q-21 15 -45 15h-51q-12 0 -12 17v53q0 14 16 14l159 -5h231l153 5q16 0 16 -16v-51q0 -17 -16 -17h-45q-62 0 -41 -69l281 -893h12l144 395q56 157 88 254q38 120 38 145 q0 77 -39 129q-29 39 -61 39h-41q-12 0 -12 17v53q0 14 14 14l155 -5h227l159 5q14 0 14 -18v-52q0 -14 -14 -14h-62q-64 0 -41 -80l283 -882h12q43 119 86 244q52 150 91 273q47 146 72 242q30 111 30 150q0 53 -66 53h-59q-15 0 -15 19v51q0 14 17 14l25 -1h4l40 -2 q73 -3 150 -3l190 6q15 0 15 -18v-52q0 -14 -15 -14h-38q-67 0 -97 -74l-314 -846q-43 -114 -75 -198q-74 -198 -88 -231l-9 -21q-5 -12 -12 -20q-16 -23 -40 -23q-32 0 -52 55z" horiz-adv-x="2150" unicode="W"/><glyph d="M1435 10q0 -16 -17 -16l-175 5h-259l-176 -5q-17 0 -17 18v51q0 15 13 15h30q64 0 64 37q0 9 -29 67l-229 412h-8l-79 -118q-56 -83 -93 -142q-51 -79 -78 -128q-33 -58 -33 -75q0 -53 51 -53h60q16 0 16 -12v-54q0 -18 -16 -18l-158 5l-109 1q-73 0 -149 -3 q-12 -1 -25 -1l-47 -2q-12 0 -12 22v47q0 15 12 15h49q75 0 154 63q68 58 170 194q22 30 51 70q20 28 58 80l139 193q-30 47 -101 165l-126 211q-75 124 -117 190q-27 41 -44 66q-19 26 -28 33q-8 8 -22 14q-11 5 -27 9q-26 6 -45 6h-70q-10 0 -10 17v51q0 16 10 16l187 -5 h267l177 5q16 0 16 -18v-47q0 -19 -18 -19h-49q-58 0 -58 -45q0 -12 31 -74q25 -52 69 -133q86 -158 128 -225h8l161 245q45 71 69 115q28 52 28 70q0 47 -57 47h-51q-13 0 -13 19v51q0 14 15 14l159 -5l105 -1q68 0 138 3l69 3q16 0 16 -18v-47q0 -19 -12 -19h-56 q-81 0 -129 -35q-43 -32 -157 -185l-114 -157q-28 -40 -63 -89l-65 -93q52 -87 110 -182q65 -106 122 -199l113 -180q53 -84 81 -123q20 -29 56 -42q14 -5 30 -7q12 -2 25 -2h67q17 0 17 -15v-53z" horiz-adv-x="1419" unicode="X"/><glyph d="M764 381q0 -158 9 -231q6 -72 69 -72h60q14 0 14 -15v-51q0 -18 -14 -18l-173 5h-258l-165 -5q-13 0 -13 20v49q0 15 15 15h71q68 0 72 47q2 26 4 130q2 122 2 251v88q-40 78 -199 363q-78 141 -131 233q-64 111 -81 135q-38 47 -107 47h-31q-14 0 -14 14v58q0 12 14 12 l177 -5h254l171 5q15 0 15 -14v-51q0 -19 -15 -19h-47q-49 0 -49 -53q0 -7 11 -33l28 -64q31 -65 90 -185l64 -128q2 -5 6 -12l100 -203l124 225q29 53 53 98q59 111 91 180q19 40 29 66q10 28 10 40q0 69 -77 69h-56q-14 0 -14 19v53q0 12 14 12l155 -5h190q17 0 33 1l83 4 q16 0 16 -16v-49q0 -19 -16 -19h-37q-10 0 -24 -2l-32 -9q-40 -13 -61 -38l-66 -103l-265 -438q-69 -118 -99 -174v-227z" horiz-adv-x="1255" unicode="Y"/><glyph d="M549 1375q-13 -1 -26 -4q-31 -9 -66 -34q-16 -10 -53 -48q-33 -33 -78 -83q-92 -101 -132 -151q-11 -19 -24 -13l-35 19q-9 3 -6 18l129 365q4 12 13 18q6 4 16 4q9 0 22 -1l25 -3q63 -8 250 -10q69 -1 160 -2h145q78 0 172 2l286 10q25 0 34 -16t-5 -33l-44 -60 q-37 -51 -106 -148l-148 -207q-71 -98 -170 -237l-486 -679h493q54 0 78 3q39 4 74 19q21 10 66 49q38 33 90 85q97 96 133 139q12 12 26 6l35 -18q11 -8 4 -19q-9 -16 -32 -67l-91 -215l-32 -72q-9 -21 -27 -21q-11 0 -51 6q-79 10 -285 17q-181 6 -338 6h-479 q-39 0 -39 16q0 11 2 21q3 12 8 20q29 44 181 257l759 1062z" horiz-adv-x="1439" unicode="Z"/><glyph d="M622 1530q12 0 12 -12v-50q0 -16 -16 -16h-205q-21 0 -21 -22v-1678q0 -28 15 -28h231q17 0 17 -19v-43q0 -16 -19 -16h-452q-23 0 -23 22v1843q0 19 20 19h441z" horiz-adv-x="716" unicode="["/><glyph d="M133 1501q13 5 20 -10l600 -1442q9 -26 -4 -29l-110 -45q-12 -6 -25 25l-596 1430q-6 21 8 28z" horiz-adv-x="768" unicode="\"/><glyph d="M79 -354q-18 0 -18 16v43q0 19 16 19h234q12 0 12 24v1682q0 22 -18 22h-207q-17 0 -17 16v50q0 12 13 12h440q21 0 21 -19v-1843q0 -22 -23 -22h-453z" horiz-adv-x="716" unicode="]"/><glyph d="M464 1368h96l437 -856h-181l-301 606h-10l-303 -606h-174z" horiz-adv-x="1024" unicode="^"/><glyph d="M0 -154h1024v-102h-1024v102z" horiz-adv-x="1024" unicode="_"/><glyph d="M395 995q-6 -6 -15 2l-258 181q-61 43 -40 110q21 66 87 66q60 0 103 -70l151 -250q7 -10 0 -16z" horiz-adv-x="471" unicode="`"/><glyph d="M520 653q0 85 -31 113q-27 25 -86 25q-60 0 -109 -33q-18 -12 -14 -44l7 -54l1 -23q0 -117 -133 -117q-88 0 -88 74q0 94 57 143q72 65 167 105q111 47 227 47q91 0 137 -15q35 -12 71 -45q58 -52 58 -174l4 -407q3 -139 47 -139q38 0 59 36q11 17 21 11l29 -17 q7 -3 9 -9q2 -7 -3 -19q-9 -20 -23 -40q-17 -26 -40 -46q-61 -54 -144 -54q-144 0 -195 125h-10q-74 -68 -176 -106q-53 -19 -148 -19q-135 0 -135 189q0 74 38 134q45 69 138 116q219 103 265 135v108zM522 463q-8 -5 -19 -11l-36 -20q-9 -5 -16 -9q-38 -23 -59 -43 q-55 -53 -55 -147q0 -131 88 -135q38 3 69 32q28 25 28 42v291z" horiz-adv-x="933" unicode="a"/><glyph d="M181 -27q-12 -7 -25 -4l-29 11q-10 2 -8 16q2 10 4 45l2 84v987q0 97 -21 135q-17 30 -69 45l-28 8q-27 8 -27 17v24q0 13 23 21q71 20 164 55q81 31 147 62q58 30 72 30q24 0 24 -34l-7 -157l-6 -141q-3 -84 -3 -153l-4 -233q98 98 274 98q93 0 175 -55q71 -47 116 -119 q28 -46 43 -103q16 -68 16 -161q0 -171 -135 -321q-144 -159 -334 -159q-92 0 -165 16q-55 12 -115 38zM392 436q0 -250 24 -299q48 -88 119 -88q53 0 93 21q50 27 77 86q28 61 33 118q1 21 1 52l-1 57q0 187 -70 282q-58 78 -149 78q-67 0 -127 -38v-269z" horiz-adv-x="1075" unicode="b"/><glyph d="M682 867q60 -19 100 -54q33 -28 50 -65q13 -30 13 -58q0 -96 -106 -96q-59 0 -100 35q-33 29 -48 73q-32 99 -120 99q-47 0 -89 -56q-47 -63 -47 -153l1 -91q1 -48 6 -84q12 -88 59 -173q66 -119 219 -119q114 0 205 65q16 10 22 3l29 -29q8 -10 -2 -27 q-33 -58 -137 -108q-120 -58 -250 -58q-222 0 -322 125q-104 129 -104 283q0 111 36 209q40 108 118 180q132 121 303 121q94 0 164 -22z" horiz-adv-x="892" unicode="c"/><glyph d="M665 1276q-3 85 -133 117q-14 2 -14 14v39q0 14 16 16l47 4q14 1 24 2q13 1 25 2l97 9q109 11 153 20q48 10 53 10q22 0 19 -36q-6 -74 -9 -275q-3 -184 -3 -414v-452q0 -77 2 -111q4 -56 18 -78q20 -31 92 -22q30 3 33 -15l6 -30q3 -17 -14 -23l-307 -78q-20 -6 -29 19 l-33 102q-108 -125 -274 -125q-85 0 -126 16q-49 18 -118 83q-129 115 -129 290q0 239 143 398q119 131 303 131q94 0 166 -27zM671 618q0 68 -16 99q-51 92 -156 92q-65 0 -106 -57q-66 -90 -66 -236q0 -178 68 -295q67 -115 164 -115q37 0 62 13q10 5 20 13q6 6 16 15 q20 21 20 99z" horiz-adv-x="1101" unicode="d"/><glyph d="M327 510v-55q0 -154 79 -239q73 -79 192 -79q152 0 223 113q6 16 20 6l35 -18q8 -4 8 -13q0 -13 -12 -37q-36 -74 -123 -137q-111 -80 -239 -80q-219 0 -308 97q-138 149 -141 352v24q0 15 1 28q3 36 11 69q20 92 80 180q114 168 357 168q114 0 194 -50q65 -41 105 -113 q29 -53 43 -119q4 -22 6 -44q2 -15 2 -24q0 -29 -64 -29h-469zM526 588q65 0 65 41q0 71 -26 123q-28 55 -74 55q-140 0 -162 -219h197z" horiz-adv-x="923" unicode="e"/><glyph d="M452 752v-277q-1 -12 -1 -31l-2 -220q0 -61 1 -89q3 -63 60 -63h74q22 0 22 -17v-41q0 -20 -14 -20l-160 5h-221l-160 -5q-16 0 -16 18v45q0 15 20 15h68q55 0 55 67l-6 613h-131q-15 0 -12 22l10 72q2 14 24 14h109v62q0 153 47 267q41 101 125 179q153 141 346 141 q211 0 211 -143q0 -44 -39 -75q-34 -27 -74 -27q-92 0 -137 77q-37 62 -74 62q-62 0 -102 -66q-23 -36 -25 -146q-1 -36 1 -112l1 -219h238q19 0 14 -20l-10 -78q-2 -10 -27 -10h-215z" horiz-adv-x="667" unicode="f"/><glyph d="M271 -543q-102 17 -157 49q-100 57 -100 160q0 70 69 132q55 48 142 83v10q-141 43 -141 164q0 78 65 141q25 24 60 45q25 16 57 31v7q-80 46 -123 109q-57 83 -57 202q0 117 89 199q108 100 308 100q115 0 205 -50q31 -17 56 -38l17 -16q6 -5 11 -11q87 72 180 72 q113 0 113 -107q0 -88 -90 -88q-43 0 -64 35q-19 31 -57 31q-21 0 -39 -19q3 -6 7 -16l8 -28q9 -40 9 -89q0 -131 -92 -221q-53 -51 -137 -77q-68 -21 -139 -21q-70 0 -121 6l-23 -16q-14 -11 -25 -22q-28 -29 -28 -56q0 -52 57 -65q51 -12 224 -7q118 3 186 -10 q88 -18 158 -72q100 -81 100 -207q0 -127 -119 -227q-66 -54 -170 -88q-126 -42 -268 -39q-87 0 -171 14zM372 745q-41 -58 -41 -227q0 -104 45 -156q33 -40 95 -40q63 0 94 88q27 76 27 206q0 104 -19 138q-30 57 -100 57q-55 0 -101 -66zM696 -429q84 52 84 126 q0 177 -266 166l-178 -8q-103 -25 -103 -140q0 -86 72 -139q74 -53 207 -53q105 0 184 48z" horiz-adv-x="1028" unicode="g"/><glyph d="M424 156q0 -84 31 -84h41q16 0 16 -17v-39q0 -22 -14 -22l-26 1q1 0 -6 0l-17 1q-15 0 -28 1q-81 3 -155 3q-87 0 -166 -3q-13 -1 -27 -1l-46 -2q-15 0 -15 20v41q0 17 31 17h33q61 0 69 34q11 37 11 136l-4 852q0 151 -97 188l-37 12q-16 9 -16 19v26q0 7 7 13 q8 6 28 12q127 37 309 125q44 20 64 20q24 0 18 -51q-1 -12 -3 -87q-1 -63 -2 -166q0 -86 -1 -183v-258h14q79 125 262 125q114 0 209 -80q64 -53 80 -138q7 -33 8 -82l-4 -487q0 -18 24 -26l21 -4h60q22 0 22 -15v-43q0 -20 -16 -20l-39 2q-12 0 -24 1q-73 3 -160 3 q-86 0 -163 -3q-13 -1 -26 -1l-45 -2q-18 0 -18 22v39q0 17 14 17h27q43 0 49 39q6 86 6 198v206q0 50 -4 85q-9 97 -43 131q-39 39 -96 39q-58 0 -121 -72l-13 -16q-6 -11 -11 -22q-11 -26 -11 -62v-442z" horiz-adv-x="1146" unicode="h"/><glyph d="M272 1051q-144 -4 -144 133q0 125 154 125q145 0 145 -119q0 -136 -155 -139zM571 14q0 -20 -19 -20l-170 5l-118 1q-72 0 -147 -3q-12 -1 -26 -1l-49 -2q-16 0 -16 20v41q0 17 20 17h76q37 0 39 41l4 138l-4 331q0 94 -98 129q-16 5 -21 12q-4 6 -4 16v23q0 9 23 16 l305 99q34 12 55 12q24 0 21 -25q-3 -23 -4 -117v-556q0 -51 2 -66q5 -53 37 -53h73q21 0 21 -19v-39z" horiz-adv-x="593" unicode="i"/><glyph d="M265 1051q-66 0 -113 36q-51 41 -51 105q0 55 44 96q50 47 132 47q158 0 158 -139q0 -145 -170 -145zM433 496v-256q0 -118 -6 -230q-8 -148 -25 -223q-28 -135 -156 -240q-128 -104 -266 -104q-178 0 -178 123q0 40 29 78q32 41 75 41q74 0 115 -78q31 -58 76 -58 q51 0 57 119q6 112 7 247q1 108 -1 235l-6 411q-2 96 -102 137l-21 9q-12 6 -12 14v29q0 9 16 16l359 121q14 2 26 2q28 0 21 -35q-8 -37 -8 -358z" horiz-adv-x="552" unicode="j"/><glyph d="M155 1178q0 59 -17 87q-23 39 -93 60q-29 9 -29 21v36q0 16 27 21q69 12 170 41l127 39q56 26 79 26q22 0 19 -34q-5 -63 -8 -271l-4 -702q34 0 67 30q69 65 124 128q27 33 42 56q16 25 16 36q0 36 -47 36q-16 0 -16 19v43q0 16 14 16l65 -3q73 -3 154 -3l189 6 q12 0 12 -18v-43q0 -17 -12 -17h-25q-37 0 -116 -34q-43 -19 -139 -99q-79 -66 -124 -110l59 -71l12 -15q5 -5 6 -7l62 -75l168 -199q54 -60 74 -76q22 -16 58 -24q14 -3 29 -5q12 -1 22 -1q16 0 16 -19v-41q0 -18 -18 -18l-136 5l-106 1q-73 0 -151 -3q-12 -1 -26 -1 l-46 -2q-14 0 -14 24v33q0 17 12 17h14q21 0 21 24q0 7 -26 47q-22 33 -62 88q-32 46 -72 100l-59 79q-12 13 -25 19q-9 5 -20 5v-305q0 -53 38 -53h39q19 0 19 -17v-43q0 -18 -17 -18l-37 2q-12 0 -24 1q-69 3 -150 3q-87 0 -163 -3q-12 -1 -25 -1l-41 -2q-10 0 -10 20v39 q0 19 20 19h39q45 0 45 49v1057z" horiz-adv-x="1073" unicode="k"/><glyph d="M431 264q1 -90 6 -129q3 -63 51 -63h69q23 0 23 -19v-39q0 -20 -12 -20l-159 5h-220l-160 -5q-14 0 -14 24v35q0 19 26 19h62q22 0 36 16q19 22 19 72l-1 868q0 112 -3 148q-5 85 -113 118l-37 13q-16 7 -16 22v31q0 14 18 16q220 44 365 119q32 14 45 14q21 0 18 -36 l-4 -680z" horiz-adv-x="593" unicode="l"/><glyph d="M322 874q16 8 25 11q12 4 22 4q23 0 28 -27l17 -117h10q103 144 291 144q91 0 153 -40q50 -33 95 -104h10q116 138 274 138q123 0 199 -78q53 -53 66 -87q22 -55 22 -194v-147q0 -44 -3 -123l-5 -102q-3 -80 59 -80h41q23 0 23 -19v-39q0 -20 -15 -20l-37 2q-11 0 -23 1 q-69 3 -161 3q-75 0 -146 -3q-12 -1 -24 -1l-41 -2q-16 0 -16 24v35q0 19 12 19h19q13 0 25 8q14 11 15 31q1 10 2 18q1 12 2 22q2 25 3 47q4 59 4 109v197q0 163 -33 198q-44 50 -100 50q-37 0 -74 -25q-13 -8 -28 -21l-21 -20q-20 -22 -27 -67l-4 -35v-432q0 -80 35 -80 h37q22 0 22 -19v-37q0 -22 -14 -22l-193 6q-93 0 -169 -3q-12 -1 -25 -1l-39 -2q-14 0 -14 20v37q0 21 20 21h29q24 0 35 28q14 34 14 117v303q0 98 -13 150q-11 42 -32 61q-25 25 -96 25q-68 0 -113 -64q-36 -55 -33 -166v-329q0 -72 13 -102q10 -23 30 -23h19q20 0 20 -19 v-37q0 -22 -16 -22l-39 2q-12 0 -23 1q-69 3 -157 3q-84 0 -155 -3q-12 -1 -24 -1l-41 -2q-16 0 -16 18v41q0 19 25 19h57q35 0 39 51q1 23 2 63v334q0 114 -66 154l-41 24q-14 9 -14 17v24q0 13 12 19z" horiz-adv-x="1685" unicode="m"/><glyph d="M430 776h16q34 40 99 74q71 39 157 39q71 0 116 -10q59 -14 95 -48q60 -55 79 -108q13 -40 13 -125v-217q0 -49 -2 -118q-2 -59 -6 -120q-1 -21 4 -37q5 -13 13 -22q7 -7 17 -10q7 -2 15 -2h56q22 0 22 -19v-37q0 -22 -16 -22l-137 5l-105 1q-83 0 -153 -3q-11 -1 -23 -1 l-39 -2q-16 0 -16 22v37q0 19 26 19h23q13 0 22 9q12 13 15 38q12 80 12 213v219q0 125 -49 170q-42 37 -101 37q-49 0 -104 -41q-41 -31 -41 -158l-4 -420q0 -67 33 -67h26q21 0 21 -21v-39q0 -18 -14 -18l-205 6q-90 0 -162 -3q-12 -1 -24 -1l-38 -2q-14 0 -14 18v41 q0 19 21 19h30q10 0 19 1q11 2 18 6q21 10 21 34v454q0 80 -82 119l-19 8q-14 7 -14 23v18q0 13 18 21l286 128q13 5 24 5q21 0 28 -25z" horiz-adv-x="1157" unicode="n"/><glyph d="M170 121q-109 120 -109 323q0 80 41 169q49 105 135 171q73 58 156 83q69 22 149 22q192 0 330 -129q141 -127 141 -326q0 -178 -131 -319q-137 -144 -356 -144q-225 0 -356 150zM662 168q40 103 40 281q0 354 -172 354q-75 0 -111 -55q-33 -52 -49 -121 q-18 -79 -18 -197q0 -175 51 -285q42 -88 135 -88q81 0 124 111z" horiz-adv-x="1075" unicode="o"/><glyph d="M155 547q0 97 -68 133l-47 25q-14 8 -14 18v27q0 8 14 14l301 118q17 7 29 7q15 0 25 -43l14 -76h8q96 119 260 119q158 0 254 -105q116 -127 111 -284q1 -230 -135 -381q-134 -148 -332 -148q-39 0 -70 5q-49 8 -84 28l2 -313q2 -117 18 -151q13 -25 54 -25h51 q19 0 19 -21v-39q0 -18 -19 -18l-146 5l-116 1q-91 0 -169 -3q-12 -1 -26 -1l-43 -2q-18 0 -18 20v41q0 17 25 17h47q46 0 53 53q4 45 4 223zM421 217q0 -74 56 -119q58 -47 122 -47q162 0 162 273l-1 55q-1 34 -4 65q-8 80 -27 140q-51 164 -181 164q-80 0 -127 -56v-475z" horiz-adv-x="1103" unicode="p"/><glyph d="M940 893q13 3 20 -4l16 -17q8 -7 0 -30q-6 -21 -10 -64q-1 -8 -2 -18l-4 -53q-6 -68 -6 -314v-661q1 -117 6 -158q10 -59 47 -59h43q21 0 21 -13v-49q0 -16 -15 -16l-152 5l-108 1q-91 0 -167 -3q-13 -1 -26 -1l-42 -2q-17 0 -17 22v41q0 15 23 15h53q50 0 53 39 q2 30 5 117q4 101 4 161l2 211h-13q-91 -72 -245 -72q-146 0 -246 91q-119 108 -119 307q0 122 39 219q45 110 145 198q113 103 287 103q117 0 217 -47zM682 631q0 64 -52 123q-53 61 -110 61q-90 -1 -141 -106q-39 -80 -42 -172l-1 -109q0 -52 7 -89q16 -84 85 -169 q59 -72 116 -72q84 0 138 43v490z" horiz-adv-x="1093" unicode="q"/><glyph d="M432 156q0 -84 63 -84h84q14 0 14 -19v-41q0 -18 -10 -18l-169 5h-227l-151 -5q-12 0 -12 20v39q0 19 23 19h59q48 0 53 49l4 99v302q0 114 -82 160l-34 20q-17 9 -17 19v18q0 11 17 17l295 128q5 1 8 2q8 3 16 3q20 0 25 -25l18 -159h14q93 196 244 196q109 0 109 -119 q0 -42 -41 -79t-90 -37q-47 0 -74 18q-23 14 -51 14q-37 0 -54 -36q-34 -73 -34 -121v-385z" horiz-adv-x="749" unicode="r"/><glyph d="M699 655q3 -13 -8 -18l-37 -16q-8 -6 -20 6l-115 123q-26 26 -50 39q-36 20 -77 20q-121 0 -121 -111q4 -54 35 -78q33 -24 146 -55q148 -39 211 -106q65 -66 65 -174q0 -139 -99 -225q-102 -89 -267 -89q-77 0 -154 23q-30 9 -54 20q-22 9 -32 17q-9 6 -12 26l-27 197 q0 13 14 16l37 11q9 3 15 -9l81 -120q34 -49 68 -73q47 -32 111 -32q120 0 120 125q0 90 -192 150q-120 35 -180 90q-70 66 -70 170q0 155 107 233q101 74 225 74q74 0 135 -15q44 -10 80 -28q21 -10 29 -20q6 -7 8 -19z" horiz-adv-x="794" unicode="s"/><glyph d="M428 299q0 -113 37 -165q29 -40 75 -40q63 0 107 25q10 7 18 -8l15 -31q8 -14 -9 -27q-8 -5 -15 -10l-22 -13q-28 -15 -59 -27q-87 -32 -190 -32q-100 0 -166 60q-62 56 -62 131l6 575h-112q-33 0 -33 29t45 51q48 22 155 115q100 87 160 155q10 12 21 17q9 4 18 4 q27 0 27 -31l-8 -217h260q9 0 13 -6t1 -12l-20 -88q-4 -17 -19 -17h-239l-4 -134v-304z" horiz-adv-x="698" unicode="t"/><glyph d="M784 -26q-12 -3 -25 -3q-31 0 -35 25l-12 110h-12q-77 -135 -270 -135q-77 0 -112 12q-55 19 -103 83q-59 77 -72 155q-5 34 -6 87l1 319q0 60 -1 90q-2 33 -27 53q-9 7 -22 12q-10 5 -21 6l-12 2l-10 2q-10 1 -14 2q-9 2 -9 9v41q0 16 23 16h299q8 0 15 1l36 5 q26 0 22 -24l-2 -28q-1 -25 -3 -57q-3 -86 -3 -192l-1 -163v-20q-1 -50 1 -86q6 -106 39 -157q20 -31 48 -39q13 -4 52 -4q59 0 111 66q33 36 33 74l-2 481q0 64 -88 71q-35 3 -35 15v39q0 18 24 18h305q10 0 19 1l41 5q22 0 18 -20l-2 -22q-2 -10 -2 -20q-2 -12 -3 -27 q-2 -35 -3 -82q-2 -56 -2 -128l1 -292q0 -70 3 -95q2 -22 7 -38q5 -13 11 -21q9 -12 19 -12h29q23 2 39 6q21 5 24 -9l6 -38q3 -14 -10 -17z" horiz-adv-x="1120" unicode="u"/><glyph d="M-43 850q0 16 23 16l141 -5l129 -1q84 0 151 3l36 2h4l24 1q20 0 20 -16v-41q0 -21 -14 -21h-27q-53 0 -53 -34q0 -13 10 -48l23 -71q11 -33 25 -71l106 -269h12q16 34 73 171l51 125q26 66 40 105q33 92 -51 92h-37q-8 0 -8 21v41q0 16 12 16l89 -4q15 0 30 -1h149 l105 5q18 0 18 -18v-39q0 -21 -10 -21h-35q-12 0 -23 -1q-14 -1 -25 -4q-29 -7 -46 -25q-13 -15 -36 -54l-96 -182q-21 -42 -42 -86l-199 -426q-22 -41 -53 -41q-29 0 -59 51q-7 11 -38 76q-26 53 -64 137l-93 205l-57 136q-23 54 -38 88l-24 51q-46 75 -90 75h-41 q-12 0 -12 21v41z" horiz-adv-x="970" unicode="v"/><glyph d="M-36 850q0 16 12 16l137 -5h174q14 1 28 1l87 4q17 0 17 -16v-45q0 -17 -17 -17h-26q-32 0 -19 -47l139 -424h13l125 320q23 66 -19 121q-14 18 -53 18h-14q-17 0 -17 17v45q0 16 19 16l63 -3q69 -3 148 -3l76 1l104 5q18 0 18 -12v-45q0 -21 -12 -21h-29q-41 0 -26 -45 l145 -403h8l111 311q55 149 -45 149h-29q-12 0 -12 17v47q0 14 14 14l82 -4q15 0 31 -1h133l92 5q15 0 15 -18v-43q0 -17 -15 -17h-20q-64 0 -84 -43l-316 -749q-12 -27 -47 -27q-25 0 -45 49l-207 527h-12l-229 -543q-15 -33 -49 -33q-24 0 -41 41l-297 723q-23 55 -72 55 h-25q-14 0 -14 19v43z" horiz-adv-x="1396" unicode="w"/><glyph d="M918 10q0 -16 -14 -16l-126 5l-110 1q-73 0 -139 -3q-11 -1 -23 -1l-43 -2q-16 0 -16 18v39q0 21 16 21h6q18 0 24 19q7 19 -5 40l-115 188q-49 -54 -93 -123l-44 -75q-30 -49 37 -49h24q11 0 11 -17v-45q0 -16 -15 -16l-105 5h-136l-97 -5q-18 0 -18 22v37q0 19 16 19 h33q41 0 90 32q15 10 52 49q31 34 75 86q81 97 123 154q-165 266 -256 367q-26 28 -70 28h-28q-15 0 -15 15v45q0 18 17 18l133 -5l106 -1q58 0 125 3l66 3q12 0 12 -18v-39q0 -18 -10 -18h-14q-17 0 -17 -22t15 -44l96 -160l98 135q25 34 19 62q-6 29 -37 29h-25 q-12 0 -12 16v43q0 16 10 16l82 -4q13 0 27 -1h130l85 5q18 0 18 -20v-41q0 -17 -16 -17h-25q-10 0 -20 -1q-12 -1 -23 -4q-29 -8 -45 -25q-3 -4 -11 -12l-5 -5l-4 -4l-64 -68l-67 -78l-70 -93l131 -194q41 -61 70 -102q38 -52 69 -87q37 -43 74 -43h33q10 0 10 -17v-45z" horiz-adv-x="880" unicode="x"/><glyph d="M-36 -438q0 116 100 116q47 0 86 -22q39 -25 66 -8q7 5 29 44q19 35 45 89q58 119 78 176q-6 25 -50 142l-95 244q-119 304 -142 357q-35 88 -72 88h-33q-16 0 -16 19v45q0 14 16 14l135 -5l111 -1q75 0 144 3l67 3q19 0 19 -18v-43q0 -17 -13 -17h-28q-43 0 -37 -47 q2 -12 21 -82l88 -304q20 -72 26 -89h10q125 285 174 441q24 81 -51 81h-33q-14 0 -14 17v45q0 16 12 16l83 -4q14 0 28 -1h131l98 5q12 0 12 -20v-39q0 -19 -10 -19h-22q-45 0 -76 -40q-25 -34 -124 -238q-41 -86 -99 -210l-253 -541q-66 -138 -91 -181l-28 -44 q-18 -27 -38 -44q-52 -47 -127 -47q-127 0 -127 119z" horiz-adv-x="905" unicode="y"/><glyph d="M574 74q54 0 121 39q88 53 191 172q15 17 26 10l27 -21q11 -8 4 -20l-137 -279q-23 9 -92 15q-59 4 -144 6l-147 3l-342 1q-42 0 -8 53l475 735h-144q-86 0 -140 -34q-64 -42 -181 -189q-10 -13 -25 -2l-24 17q-10 6 -4 20l114 295q78 -18 119 -23q91 -12 279 -12h317 q43 0 18 -41l-487 -745h184z" horiz-adv-x="929" unicode="z"/><glyph d="M273 576l58 -33q119 -87 119 -240q0 -38 -8 -83q-3 -17 -8 -40q-1 -8 -4 -20l-5 -21q-12 -48 -18 -87q-8 -49 -8 -97q3 -246 241 -246q27 0 27 -35q0 -28 -47 -28q-250 0 -359 87q-96 78 -96 238q0 65 13 127l21 78l35 113q13 49 13 92q0 84 -28 131q-33 56 -107 61 q-41 3 -41 35q0 39 41 39q135 0 135 172q0 42 -13 94l-28 95q-20 62 -28 97q-13 55 -13 101q0 159 100 237q110 87 357 87q45 0 45 -29q0 -35 -25 -35q-243 0 -243 -225q0 -45 8 -93q5 -31 17 -80l3 -10q1 -6 2 -10l5 -18q5 -21 8 -38q8 -41 8 -77q0 -179 -121 -245 q-7 -4 -16 -8q-3 -2 -8 -4l-35 -17q-27 -16 -27 -33q0 -15 30 -32z" horiz-adv-x="716" unicode="{"/><glyph d="M70 1373h126v-1809h-126v1809z" horiz-adv-x="266" unicode="|"/><glyph d="M443 640l-58 34q-119 87 -119 239q0 67 27 162q3 14 4 20l5 20q5 23 8 41q7 45 7 85q-3 225 -241 225q-27 0 -27 35q0 29 47 29q250 0 359 -88q96 -77 96 -238q0 -51 -13 -103l-56 -174q-13 -48 -13 -91q0 -85 27 -131q34 -56 108 -62q41 -3 41 -35q0 -39 -41 -39 q-135 0 -135 -172q0 -42 13 -94l28 -98q20 -68 28 -110q13 -64 13 -126q0 -159 -100 -237q-110 -86 -357 -86q-45 0 -45 28q0 35 25 35q243 0 243 225q0 60 -8 117l-17 93l-10 41q-5 23 -8 39q-8 42 -8 77q0 178 121 244l32 16q10 5 14 8q8 4 13 7q27 16 27 32t-30 32z" horiz-adv-x="716" unicode="}"/><glyph d="M665 544q-30 -79 -70 -108q-24 -21 -72 -29.5t-102 -8.5h-240q-9 0 -31.5 -1t-56.5 -4l-58 -2l45 122l59 5l73 2l239 -2q69 0 127 6t87 20z" horiz-adv-x="696" unicode="~"/><glyph d="M90 858l135 135l127 -128q51 33 110 51t125 18q63 0 120 -17t107 -48l114 114l135 -135l-112 -112q35 -52 53.5 -112.5t18.5 -126.5q0 -65 -18 -124t-50 -110l103 -103l-135 -135l-104 104q-51 -32 -109.5 -49.5t-122.5 -17.5q-67 0 -127.5 18.5t-111.5 52.5l-118 -118 l-135 135l120 120q-31 50 -47.5 107t-16.5 120q0 64 17.5 122.5t49.5 109.5zM333 495q0 -54 20 -100.5t55 -81.5t81.5 -55t100.5 -20t101 20t82 55t55 81.5t20 100.5t-20 101t-55 82t-82 55t-101 20t-100.5 -20t-81.5 -55t-55 -82t-20 -101z" horiz-adv-x="1153" unicode="¤"/><glyph d="M234 1015q-58 51 -96 117t-38 142q0 79 34.5 149t91 122t129.5 82.5t150 30.5q69 0 134.5 -23t119.5 -64t93 -98t56 -124q9 -37 10.5 -69.5t1.5 -64.5h-186v22q0 47 -17.5 90t-48.5 75.5t-73 51.5t-91 19q-35 0 -73 -14t-70.5 -38.5t-53.5 -57.5t-21 -71q0 -23 17 -54.5 t49 -66t77.5 -68.5t101.5 -60q45 -23 91 -47t88.5 -51.5t80 -59.5t65 -71t43.5 -85.5t16 -102.5q0 -81 -35 -146t-92 -111q-34 -26 -70 -45l9 -6q43 -28 80.5 -60.5t65 -71t43.5 -85t16 -102.5q0 -81 -35 -146t-92 -111t-130 -70.5t-148 -24.5q-63 0 -123 19t-111 54 t-90.5 84t-60.5 108l-9 26q-6 20 -11 55t-5 99h183v-20q0 -36 16 -78t46 -77.5t74 -59.5t100 -24q27 0 57 6q31 7 57 21.5t45.5 35.5t30.5 48t11 60q0 47 -20 79.5t-54 64.5l-1 1q-5 4 -17 12t-45.5 27t-96.5 53.5t-169 91.5q-44 22 -83 55t-69 74t-47.5 88t-17.5 97 q0 79 34 149t91 122q30 27 63 48q-19 10 -36.5 22.5t-34.5 26.5zM582 815q-38 21 -86 19.5t-91 -22t-72.5 -58.5t-29.5 -89q0 -45 46 -101q19 -24 43.5 -45t53 -35t61.5 -19.5t69 1.5q31 7 57 21.5t45.5 35.5t30.5 48t11 60q0 47 -20 79.5t-54 64.5l-1 1q-5 4 -17 12t-46 27 z" horiz-adv-x="1032" unicode="§"/><glyph d="M100 1051l1249 1v-553h-194v358h-1055v194z" horiz-adv-x="1449" unicode="¬"/><glyph d="M271 716q0 -54 20 -100.5t55 -81.5t81.5 -55t100.5 -20t101 20t82 55t55 81.5t20 100.5t-20 101t-55 82t-82 55t-101 20t-100.5 -20t-81.5 -55t-55 -82t-20 -101zM80 715q0 93 35 174.5t96 142.5t142.5 96.5t174.5 35.5t174.5 -35.5t142.5 -96.5t96.5 -142.5t35.5 -174.5 t-35.5 -174.5t-96.5 -142.5t-142.5 -96t-174.5 -35t-174.5 35t-142.5 96t-96 142.5t-35 174.5z" horiz-adv-x="1057" unicode="°"/><glyph d="M403 -215v769q-4 -2 -5 -2q-62 0 -116 23.5t-94.5 64t-64 94.5t-23.5 116t23.5 116.5t64.5 95t96 64.5t119 25h464v-1366h-131v1235h-133v-1235h-200z" horiz-adv-x="1032" unicode="¶"/><glyph d="M200 717h282v-305h-282v305z" horiz-adv-x="682" unicode="·"/><glyph d="M353 212q55 78 125 136.5t151 82.5q9 4 12 1t3 -9t-2.5 -13t-4.5 -10q-22 -26 -53.5 -61.5t-63 -74.5t-59 -79t-41.5 -76q-19 -46 -7.5 -86.5t43.5 -75.5t78 -63.5t96 -50t98 -35.5t84 -20q14 -2 16.5 -7t0.5 -12t-6.5 -14.5t-4.5 -14.5q-19 -23 -33.5 -35t-28 -22 t-28 -22t-33.5 -34q-3 -8 -7.5 -12.5t-19.5 -4.5q-44 7 -93.5 22t-101.5 27.5t-104 16.5t-101 -11q-149 -46 -283 -78.5t-260 -52.5t-247 -29.5t-245 -9.5q-126 0 -254 8t-273 22q-101 9 -192 19t-179.5 25t-178.5 38.5t-188 59.5q-68 25 -101 39t-31 21t40 8.5t112 0.5 q142 -3 266.5 -5.5t236 -5t212.5 -3.5t196 -1q105 0 206 2t202.5 7.5t207.5 13.5t222.5 20.5t245.5 29.5t277 39q-3 48 1 100t15.5 103.5t30.5 99t46 86.5z" horiz-adv-x="1134" unicode="؀"/><glyph d="M2322 248q10 17 25 41.5t23 41.5q4 8 11 7t7 -10q8 -37 13.5 -68t3.5 -67q1 -22 -9 -40q-2 -5 -7.5 -16l-11.5 -23t-12 -23t-8 -15q-2 -11 -10.5 -15.5t-19.5 -3.5q-23 6 -45.5 11t-45 11t-44 14.5t-42.5 21.5q-23 -20 -52 -26.5t-59 -6.5q-41 2 -67 20t-53 45 q-73 -40 -152 -70.5t-161.5 -49.5t-167.5 -24.5t-169 5.5q-39 5 -83 13.5t-84 25t-71.5 44.5t-45.5 72q-22 -30 -47 -55t-54.5 -43t-63 -26.5t-71.5 -5.5q-42 2 -75.5 21.5t-58.5 50t-41.5 68.5t-23.5 77q-5 17 -17 19.5t-24.5 -3t-23.5 -17t-14 -21.5q-12 -18 -27.5 -46.5 t-33 -58.5t-36.5 -59t-39 -49q-15 -20 -31.5 -25.5t-32.5 -1.5t-31 14.5t-28 23.5q-24 24 -42 54t-34 62.5t-30.5 64.5t-31.5 60q-5 10 -2.5 18t8.5 11t13 0t10 -15q22 -24 39 -51t35.5 -53t43 -49.5t62.5 -41.5q23 -4 43.5 15t39 48.5t35.5 63t33 58.5q11 17 29 38.5 t39 37.5q12 12 27.5 16.5t29.5 2t24.5 -13t12.5 -28.5q23 -69 60.5 -108.5t85 -52.5t101.5 0.5t109 50.5q23 17 45 37.5t46 31.5q-8 -32 6.5 -52t43.5 -37q95 -40 196.5 -53.5t204.5 -6.5t204.5 30.5t197.5 57.5q11 2 22 9.5t22 17t21 19t19 15.5q9 8 17.5 4t-0.5 -17 q-4 -5 -5 -12t-1 -14q-1 -14 9 -22.5t24 -13t29.5 -6t24.5 -1.5q33 -3 66 2t57 32q7 8 14 17t15 14q5 6 8 3t1 -10q-4 -10 -9 -21t-8 -19q26 -8 50 -17t50 -16q1 15 0 31t0 31zM810 506q3 4 11.5 14.5t18 22.5t18.5 22.5t13 14.5q9 10 17 2q23 -20 46.5 -37.5t38.5 -33.5 q5 -6 -1 -13q-14 -21 -29.5 -39t-30.5 -38q-6 -11 -17 -5q-8 4 -20.5 13.5t-25.5 20.5t-24 22t-16 18q-3 5 -2.5 8t3.5 8z" horiz-adv-x="2476" unicode="؁"/><glyph d="M1085 179q-45 0 -95.5 -30t-110.5 -87q79 -11 159.5 -0.5t158.5 33.5q-9 15 -20 30.5t-25 27.5t-30.5 19.5t-36.5 6.5zM84 -6q68 6 137 9.5t137.5 9t136.5 16.5t134 32q38 13 61.5 34.5t35.5 38.5q5 6 10 6.5t3 -9.5q-3 -17 7 -28.5t26.5 -19t34.5 -11.5t32 -7 q33 44 71 82t77.5 65t79.5 39.5t77 6t69.5 -35t57.5 -84.5q-8 -23 -16 -44.5t-16 -43.5q-2 -6 -12.5 -14t-16.5 -10q-95 -41 -199.5 -50.5t-209.5 0.5q-8 -12 -17 -23.5t-17 -23.5q-6 -10 -12 -10q-5 0 -1 16q5 12 14 25t14 23q-29 8 -50.5 25t-26.5 40q-12 -26 -31.5 -44 t-43.5 -30t-50.5 -19t-52.5 -10q-112 -12 -222.5 -7.5t-219.5 40.5q-11 5 -14.5 9.5t13.5 6.5z" horiz-adv-x="1342" unicode="؃"/><glyph d="M82 -24q-12 37 -12 72q0 46 14.5 94t38 95t53.5 91t62 82q12 11 23.5 18t19.5 7q7 0 6 -9.5t-16 -32.5q-16 -24 -35.5 -55t-36 -65.5t-28.5 -70.5t-12.5 -68.5t13 -60.5t46.5 -47q9 7 17 25t16.5 37t17.5 34t21 17q15 -13 26 -34t14 -46.5t-3 -53.5t-25 -55 q-24 -33 -56 -46t-63.5 -8.5t-58.5 25t-42 55.5z" horiz-adv-x="402" unicode="،"/><glyph d="M366 1307q0 -6 -4.5 -22.5t-12 -36t-16.5 -38t-19 -28.5q-10 -15 -19.5 -13t-19.5 12q-15 13 -30.5 12t-30 -10t-27.5 -22.5t-23 -23.5q-32 -32 -57.5 -71t-53.5 -75q-12 -16 -18.5 -12.5t-1.5 20.5q15 61 48 118.5t71 108.5q16 21 35 43t41 39t48 27t56 8q34 -7 34 -36z" horiz-adv-x="216" unicode="؍"/><glyph d="M117 115q0 -22 13.5 -35.5t32.5 -21.5t40.5 -11.5t36.5 -4.5q0 17 -5 38t-14.5 39.5t-24 31t-32.5 12.5q-20 0 -33.5 -15t-13.5 -33zM72 72q-2 28 11.5 63.5t36.5 62.5t53.5 37t62.5 -13q28 -22 37.5 -59.5t9.5 -76.5q0 -14 -0.5 -26t-1.5 -23q64 -8 144 -7.5t163.5 5.5 t164.5 14t147 18q16 2 12.5 -6t-13.5 -12q-25 -19 -68 -35t-97 -28t-116 -21t-125.5 -13.5t-125 -5t-113.5 3.5q-27 3 -59 9.5t-59 20t-45.5 35.5t-18.5 57z" horiz-adv-x="984" unicode="؎"/><glyph d="M580 122q-53 -2 -97 -26.5t-81.5 -60.5t-68.5 -79t-58 -82q56 -41 118 -39t119.5 30.5t105 75.5t74.5 97q0 22 -11 38t-27.5 26.5t-36 15.5t-37.5 4zM178 -216q-34 62 -41.5 130.5t5.5 137t42 133t67 118.5q5 5 0 5q-19 16 -38 33.5t-19 42.5q0 16 5 28.5t12.5 23.5 t16.5 22t17 24q12 18 24.5 39.5t28.5 40t36 31t46 12.5q10 0 23 -3t23.5 -9t16.5 -14.5t3 -18.5q-3 -27 -14 -33t-25 -2.5t-28 11t-24 7.5q-21 0 -46 -16q-25 -15 -25 -41q0 -17 13 -29.5t31.5 -20t38 -9.5t33.5 2q30 17 59 31t58 29q18 11 21.5 8.5t-1 -10.5t-14.5 -19 t-20 -18q-24 -18 -47 -35l-46 -34q-65 -44 -117 -95.5t-79.5 -111t-25 -126t46.5 -141.5q33 53 73 113t87.5 110.5t103.5 83t121 31.5q25 0 46 -11.5t36.5 -30t24.5 -42t9 -47.5q-5 -58 -30 -119.5t-64 -116.5t-90.5 -98.5t-109 -64t-119 -13.5t-121.5 52q-23 -42 -47 -82.5 t-48 -85.5q-9 -16 -23 -32t-34 -17q9 19 24 48.5t32.5 63.5t36 69t35.5 66z" horiz-adv-x="786" unicode="؏"/><glyph d="M-146 -258q-2 75 -11 148t-33 133q-8 17 -16 32.5t-12.5 32t-2.5 36t15 45.5q6 15 10.5 8t8.5 -18q7 -14 16.5 -31t22 -31.5t28 -24.5t35.5 -10q-5 32 0.5 64t21.5 58t41.5 42t60.5 16q21 0 39.5 -2t35.5 -9t34 -21t34 -37q-22 -2 -51 0t-55 2q-8 0 -15.5 -0.5 t-13.5 -1.5q-11 -1 -26 -3.5t-29 -8.5t-24 -16t-10 -25q0 -13 9.5 -25t23 -21.5t29 -15.5t26.5 -6q25 0 47 8t43 21q17 12 34.5 25.5t33.5 28.5q4 3 6 2.5t0 -6.5q-4 -30 -21.5 -57.5t-39.5 -47.5q-26 -23 -58 -39t-67 -24t-71 -7t-70 13q0 -29 1 -58t-1 -58t-8.5 -57 t-20.5 -54z" unicode="ؑ"/><glyph d="M-111 -146q-4 0 -11.5 4t1.5 8q38 11 75 22.5t75 22.5q17 5 38 15.5t39 24.5t30 31.5t11 37.5q-1 28 -10.5 50.5t-23.5 47.5q3 17 8.5 32.5t12.5 32.5q4 8 6 9.5t10 -3.5q22 -22 29.5 -53t7.5 -61q0 -60 -25.5 -116t-73.5 -92q-49 -17 -98.5 -16t-100.5 3zM43 59 q-48 -11 -92.5 -26t-83 -41t-70 -68t-54.5 -108q-4 -7 -6 -8.5t-1 10.5q2 78 39 144.5t98 111.5q-23 10 -51 10.5t-51 -10.5q-8 -5 -10.5 -4t-0.5 11q4 19 8.5 36t13 29.5t22 19.5t34.5 7q5 0 12 -0.5t24 -3t48.5 -8.5t85.5 -17q13 -3 26 -3.5t27 -1.5q11 0 13 -3.5 t-3 -13.5q-5 -17 -11 -32.5t-17 -30.5z" unicode="ؒ"/><glyph d="M-174 346q6 15 20 30.5t25 27.5q2 2 3.5 3t2.5 2q1 0 9 -5q12 -9 30.5 -24t27.5 -28q-14 -17 -27.5 -34.5t-27.5 -33.5q-14 14 -29 28t-34 34zM-132 78q22 0 46.5 0.5t47.5 2.5t43 5t34 8q8 8 4 14q-23 45 -56.5 52t-75.5 -35l-8.5 -8.5l-14 -14t-13.5 -14.5t-7 -10z M-88 -115q43 13 72.5 22t49 15.5t30.5 10.5t17 7q13 6 29.5 15.5t31 20.5t25.5 25t14 29q1 22 -4 41.5t-11.5 34t-12 24.5t-5.5 14q1 8 4.5 20.5t7.5 24.5t8 21.5t7 11.5q14 -8 23 -23.5t14 -34t7 -37t2 -31.5q0 -60 -24.5 -114t-72.5 -90q-51 -19 -102.5 -20.5t-105.5 5.5 q-3 0 -6 3t2 5zM-312 88q11 38 16.5 53.5t8.5 24.5q17 -17 32.5 -38t35.5 -34q20 -15 36.5 -8t31.5 24q13 17 28.5 40t35 43.5t43 35.5t53.5 17q19 0 36.5 -10t31 -25.5t22 -35t8.5 -38.5q-3 -17 -7 -35.5t-12.5 -35.5t-24.5 -31t-43 -21q-15 -6 -42.5 -12t-60 -9.5 t-66.5 -2.5t-63 9q8 -51 0.5 -105.5t-28.5 -102.5q2 81 -13.5 154.5t-58.5 142.5z" unicode="ؓ"/><glyph d="M-469 45q66 1 130 0t126.5 1.5t124 10t121.5 25.5q35 13 60.5 30t51.5 44q4 4 4 0q-2 -21 10 -38t32.5 -28t46 -14.5t49.5 1.5q5 2 5.5 4t0.5 6q0 9 -3.5 17.5l-7 17t-7 16.5t-3.5 14q5 20 15.5 35.5t19.5 33.5q4 7 7.5 4.5t5.5 -7.5q10 -33 18 -58.5t10 -59.5 q-6 -26 -11.5 -47t-16 -36t-28 -23t-47.5 -8q-49 0 -80.5 21.5t-42.5 72.5q-11 -20 -25.5 -37t-37.5 -28q-60 -28 -128 -38.5t-138.5 -7.5t-140.5 19t-133 41q-13 6 -9 10.5t21 5.5z" unicode="ؔ"/><glyph d="M66 7q-20 0 -39.5 -8.5t-37.5 -21t-34 -27t-28 -26.5q14 1 36 0.5t49 1t57.5 7.5t61.5 21q-6 27 -26.5 40.5t-38.5 12.5zM-109 -70q14 18 27 39.5t21 43.5q0 54 -2 106t0 106q-8 14 -17.5 24t-9.5 26q10 18 20.5 36t21.5 35q3 3 8 6t8 -3q6 -23 23.5 -43t36.5 -38 q-9 -26 -19.5 -46t-20.5 -33q1 -48 0 -77.5t-3 -46t-3.5 -23.5t-1.5 -10q24 21 53.5 41t63.5 20q48 0 77 -30t27 -78q-10 -14 -30 -43t-47 -53q-25 -15 -56.5 -25t-65 -16t-66.5 -8.5t-61 -2.5q-12 0 -19 1t-19 6.5t-35 18.5t-67 37q-13 6 -10.5 10t15.5 5q21 2 44.5 1.5 t44.5 -0.5q22 0 38.5 2.5t23.5 11.5z" unicode="ؕ"/><glyph d="M93 207q5 7 18.5 24.5t29.5 36.5t30 35.5t21 22.5q8 11 14.5 10.5t12.5 -6.5q37 -32 75 -61t63 -55q6 -5 4.5 -9.5t-6.5 -10.5q-23 -34 -47.5 -64t-48.5 -63q-11 -18 -28 -7q-14 7 -34.5 22.5t-41 33.5t-38 35.5t-25.5 28.5q-6 8 -5 13t6 14zM82 550q-18 54 -9.5 113.5 t33.5 119.5t62 116t76 102q12 11 24.5 18.5t20.5 7.5q7 0 6 -9.5t-16 -33.5q-20 -31 -40.5 -61.5t-37.5 -62t-28 -65t-12 -71.5q0 -14 2.5 -32t9.5 -34t19 -26t31 -8q9 8 17.5 26t17.5 37.5t19 35.5t21 19q10 0 21 -12.5t20 -29t14.5 -33.5t5.5 -26q0 -24 -15.5 -53.5 t-32.5 -64.5q-25 -33 -58.5 -46.5t-67 -9.5t-61.5 25t-42 58z" horiz-adv-x="432" unicode="؛"/><glyph d="M791 1367q0 -44 -36 -74q-35 -27 -149 -45q-200 -30 -280 -71q-93 -45 -93 -129l1 -22q6 -48 47 -95q32 -37 94 -78l122 -79q63 -42 99 -84q23 -35 36 -78t13 -98q0 -78 -21 -143l-31 21l3 38q0 14 -1.5 29.5t-9.5 37.5q-11 36 -28 57q-13 19 -54 50l-76 56 q-16 13 -46.5 35t-87.5 61q-75 52 -105.5 86.5t-45 101.5t-14.5 146q0 62 18 108t64 92q17 17 101.5 44t132.5 36l141 24q32 5 102 27q32 9 50 65q8 24 19 27q9 0 22 -59t13 -87zM713 140q0 -30 -12 -78q-15 -60 -36 -66l-71 19q-76 24 -93 53q-3 5 -3 17q0 34 18 92.5 t33 60.5q16 0 90 -39.5t74 -58.5z" horiz-adv-x="1100" unicode="؟"/><glyph d="M614 547l10 2q12 0 12 -18q0 -19 -14 -53.5t-28 -53.5q-34 -40 -101 -74l-128 -61q-76 -36 -125 -78l-18 -4l-16 -1l-11 1q-17 0 -19 15q0 18 47 65q35 33 68 59l-77 16q-31 15 -58 87q33 109 89 178q60 75 130 75q23 0 39 -8q17 -6 32 -24q6 -6 6 -28q0 -21 -6 -54 l-6 -29l-18 -23q-8 -9 -29 -9l-25 2q-15 2 -15 19q0 16 -7 17q-58 -6 -77 -17.5t-19 -35.5q53 -53 114 -65q46 -8 58 -13q59 21 106 55z" horiz-adv-x="670" unicode="ء"/><glyph d="M521 1806q-3 -28 -23 -59q-24 -39 -66 -68q-58 -38 -115 -67q-75 -36 -165 -58.5t-202 -22.5q-96 0 -152 9q-86 14 -120 55q-29 -21 -50 -50q-24 -39 -39 -54l-14 -2q-8 0 -16 30q-6 21 64.5 127t97.5 113l46 -21l64 -28q28 -12 89 -22t106 -10h18l10 1q119 11 210 40 q140 45 239 136q10 0 14 -7.5t6 -21.5q0 -14 -2 -20zM356 255v-35q-3 -21 -5 -36t-13 -40t-22 -27q-14 0 -29 68q-11 59 -28 207l-29 281q-8 83 -12 113t-14 101l-21 145q-9 69 -9 94q0 47 7.5 84.5t22.5 64.5q11 19 17 20q14 0 38 -180l42 -340l26 -232l18 -177 q0 -29 4.5 -61t6.5 -50z" horiz-adv-x="352" unicode="آ"/><glyph d="M351 1758q15 5 15 -11q0 -14 -9.5 -38t-19.5 -37q-26 -30 -82 -59q-141 -68 -166 -90l-17 -4l-15 1q-12 0 -13 10q0 13 33 46q8 7 19 17q16 14 29 24l-55 12q-21 10 -40 61q23 76 64.5 126.5t88.5 50.5q30 0 50 -23q4 -4 4 -21q0 -22 -5 -45l-3 -12l-15 -17q-3 -3 -18 -5 l-12 1l-11 1q-4 7 -5 13q0 12 -5 12q-41 -5 -54 -12.5t-13 -24.5q31 -32 62 -41l58 -14q41 15 74 38zM349 269v-35q-3 -21 -5 -36t-13 -40t-22 -27q-14 0 -29 68q-11 59 -28 207l-29 281q-8 83 -12 113t-14 101l-21 145q-9 69 -9 94q0 47 7.5 84.5t22.5 64.5q11 19 17 20 q14 0 38 -180l42 -340l26 -232l18 -177q0 -29 4.5 -61t6.5 -50z" horiz-adv-x="352" unicode="أ"/><glyph d="M581 883q15 5 15 -11q0 -14 -9.5 -38t-19.5 -37q-26 -30 -82 -59q-141 -68 -166 -90l-17 -4l-15 1q-12 0 -13 10q0 13 33 46q8 7 19 17q16 14 29 24l-55 12q-21 10 -40 61q23 76 64.5 126.5t88.5 50.5q30 0 50 -23q4 -4 4 -21q0 -22 -5 -45l-3 -12l-15 -17q-3 -3 -18 -5 l-12 1l-11 1q-4 7 -5 13q0 12 -5 12q-41 -5 -54 -12.5t-13 -24.5q31 -32 62 -41l58 -14q41 15 74 38zM664 240q0 -69 -17 -151t-49 -184q-63 -109 -111 -169q-60 -76 -132 -120t-161 -44q-27 0 -100 10t-204 34q-20 3 -20 19q0 9 9 18q7 5 19 7h37l35 -1l49 3q12 0 22 2 q18 5 28 7q176 44 309 152q139 112 204 266l3 21q0 21 -4.5 35t-6.5 19.5t-8 18.5q-23 -64 -33 -82q-27 -45 -77 -45q-62 0 -107 51q-39 45 -39 95l1 10q9 93 54 176.5t110 116.5q63 0 126 -90.5t63 -174.5zM502 263q-9 24 -21.5 30.5t-43.5 6.5l-11 -16q-5 -9 -7 -21 q0 -13 26 -22l25 -6q8 0 16 8z" horiz-adv-x="657" unicode="ؤ"/><glyph d="M356 166v-35q-3 -21 -5 -36t-13 -40t-22 -27q-14 0 -29 68q-11 59 -28 207l-29 281q-8 83 -12 113t-14 101l-21 145q-9 69 -9 94q0 47 7.5 84.5t22.5 64.5q11 19 17 20q14 0 38 -180l42 -340l26 -232l18 -177q0 -29 4.5 -61t6.5 -50zM379 -165q15 5 15 -11 q0 -14 -9.5 -38t-19.5 -37q-26 -30 -82 -59q-141 -68 -166 -90l-17 -3h-15q-12 0 -13 10q0 13 33 46q8 7 19 17q16 14 29 24l-55 12q-21 10 -40 61q23 76 64.5 126.5t88.5 50.5q30 0 50 -23q4 -4 4 -21q0 -22 -5 -45l-3 -12l-15 -16q-5 -6 -18 -6l-12 1q-7 0 -11 2 q-4 7 -5 12q0 12 -5 12q-40 -5 -53.5 -12.5t-13.5 -24.5q32 -33 66 -42l54 -13q41 15 74 38z" horiz-adv-x="352" unicode="إ"/><glyph d="M279 707q15 5 15 -11q0 -14 -9.5 -38t-19.5 -37q-26 -30 -82 -59q-141 -68 -166 -90l-17 -4l-15 1q-12 0 -13 10q0 13 33 46q8 7 19 17q16 14 29 24l-55 12q-21 10 -40 61q23 76 64.5 126.5t88.5 50.5q30 0 50 -23q4 -4 4 -21q0 -22 -5 -45l-3 -12l-15 -17q-3 -3 -18 -5 l-12 1l-11 1q-4 7 -5 13q0 12 -5 12q-41 -5 -54 -12.5t-13 -24.5q31 -32 62 -41l58 -14q41 15 74 38zM1047 624v-14v-12q0 -42 -5 -60q-5 -27 -20 -49q-14 -18 -23 -18q-8 0 -20 18q-15 23 -38 30q-11 3 -22.5 5t-27.5 2q-22 0 -93 -59q-34 -28 -64.5 -58.5t-58.5 -65.5 q-64 -81 -64 -126q0 -24 16 -37q16 0 39.5 -3t98.5 -16l93 -14l79 -33q48 -27 48 -90q0 -23 -6 -49.5t-20 -59.5l-29 -65q-83 -122 -292 -222q-195 -93 -333 -93q-146 0 -251 136q-95 125 -95 276q0 54 51 212.5t78 168.5q12 3 12 -12q0 -19 -12 -40q-26 -39 -35.5 -102.5 t-9.5 -134.5q0 -135 106 -231q96 -87 213 -87q90 0 228 54q125 49 216.5 110t78.5 86q0 24 -67 29.5t-93 9t-37 6.5q-67 14 -87 23q-54 21 -69 63l-2 22v19q0 121 74 260q67 126 169 223t185 113q46 -21 67.5 -48.5t21.5 -66.5z" horiz-adv-x="980" unicode="ئ"/><glyph d="M356 122v-35q-3 -21 -5 -36t-13 -40t-22 -27q-14 0 -29 68q-11 59 -28 207l-29 281q-8 83 -12 113t-14 101l-21 145q-9 69 -9 94q0 47 7.5 84.5t22.5 64.5q11 19 17 20q14 0 38 -180l42 -340l26 -232l18 -177q0 -29 4.5 -61t6.5 -50z" horiz-adv-x="353" unicode="ا"/><glyph d="M1177 367q0 -43 -11.5 -88.5t-37.5 -104.5q-98 -101 -339.5 -175.5t-475.5 -74.5q-135 0 -225 88.5t-90 218.5q0 40 31 133q21 66 49 91l15 3q9 0 11 -15l-14 -72l-5 -58l1 -34l8 -29q19 -61 109 -106q45 -22 92.5 -33t101.5 -11q48 0 164 16.5t195 37.5 q159 39 248.5 81.5t89.5 81.5q0 31 -36 81t-38 67q0 13 19.5 67.5t27.5 67.5q48 -56 74 -101q36 -65 36 -132zM913 -348q-19 -62 -25 -76q-9 -21 -24 -33q-3 -3 -12 -3q-18 0 -67 17q-67 23 -67 51q0 8 6 16t33 73q18 44 40 44l14 -3l72 -35q32 -18 32 -39z" horiz-adv-x="1187" unicode="ب"/><glyph d="M823 715q0 -19 -17 -63q-21 -57 -48 -62q-25 3 -61 35q-12 11 -23 23q-18 20 -27 34q8 23 12 31.5t19 38.5q25 47 39 55q17 0 71 -47q30 -26 35 -45zM627 641q5 -17 -13.5 -69t-35.5 -52q-18 2 -66 32q-53 33 -57 50q-3 11 25 67l34 60q17 -8 53 -35.5t60 -52.5z M1177 367q0 -43 -11.5 -88.5t-37.5 -104.5q-98 -101 -339.5 -175.5t-475.5 -74.5q-135 0 -225 88.5t-90 218.5q0 40 31 133q21 66 49 91l15 3q9 0 11 -15l-14 -72l-5 -58l1 -34l8 -29q19 -61 109 -106q45 -22 92.5 -33t101.5 -11q48 0 164 16.5t195 37.5q159 39 248.5 81.5 t89.5 81.5q0 31 -36 81t-38 67q0 13 19.5 67.5t27.5 67.5q48 -56 74 -101q36 -65 36 -132z" horiz-adv-x="1179" unicode="ت"/><glyph d="M690 907q0 -22 -22 -73l-31 -66q-4 -7 -30 12l-32 27l-37 29q-18 18 -18 26q3 16 13 41q14 39 30 72q0 16 18 16q19 0 47 -17q28 -14 45 -31t17 -36zM827 702q0 -15 -19 -66q-23 -63 -44 -63q-13 0 -58 38q-49 41 -49 63l15 41l35 92q60 -27 90 -53.5t30 -51.5zM618 674 l-16 -58q-19 -60 -39 -69q-10 -5 -61 32l-49 39q0 43 31 115q19 44 36 35l83 -49q15 -9 15 -28v-17zM1177 367q0 -43 -11.5 -88.5t-37.5 -104.5q-98 -101 -339.5 -175.5t-475.5 -74.5q-135 0 -225 88.5t-90 218.5q0 40 31 133q21 66 49 91l15 3q9 0 11 -15l-14 -72l-5 -58 l1 -34l8 -29q19 -61 109 -106q45 -22 92.5 -33t101.5 -11q48 0 164 16.5t195 37.5q159 39 248.5 81.5t89.5 81.5q0 31 -36 81t-38 67q0 13 19.5 67.5t27.5 67.5q48 -56 74 -101q36 -65 36 -132z" horiz-adv-x="1179" unicode="ث"/><glyph d="M717 -152l-21 -62q-12 -34 -26 -46q-3 -3 -12 -3q-20 0 -69 17q-68 23 -68 51q0 10 5 16l33 73q18 44 39 44q6 0 14 -4l74 -34q33 -18 33 -41zM1297 -766q-16 -13 -107.5 -51.5t-151.5 -75.5q-106 -44 -210.5 -66t-225.5 -22q-321 0 -472 167q-136 151 -136 435 q0 126 20 231t62 196q82 177 272 335l-17 1h-13l-76 -6l-74 -3q-72 0 -142 -24.5t-139 -24.5l-9 31q-6 18 -3 24q39 105 132 152q73 35 186 35q49 0 106 -6l141 -15q59 0 153 15.5t116 15.5h36q20 0 29 -2q12 0 31 -13q-8 -13 -27 -77.5t-22 -67.5q-14 -10 -90 -34 q-47 -15 -86.5 -29t-68.5 -27q-104 -46 -189 -109q-103 -75 -169 -187q-51 -87 -75 -193q-17 -77 -17 -146q0 -182 96 -298q83 -99 237 -144q60 -17 139 -27t165 -10q51 0 93 3t85 11l178 29q100 14 228 14q12 0 18.5 -5t7.5 -14q0 -8 -11 -18z" horiz-adv-x="758" unicode="ج"/><glyph d="M1297 -766q-16 -13 -107.5 -51.5t-151.5 -75.5q-106 -44 -210.5 -66t-225.5 -22q-321 0 -472 167q-136 151 -136 435q0 126 20 231t62 196q82 177 272 335l-17 1h-13l-76 -6l-74 -3q-72 0 -142 -24.5t-139 -24.5l-9 31q-6 18 -3 24q39 105 132 152q73 35 186 35 q49 0 106 -6l141 -15q59 0 153 15.5t116 15.5h36q20 0 29 -2q12 0 31 -13q-8 -13 -27 -77.5t-22 -67.5q-14 -10 -90 -34q-47 -15 -86.5 -29t-68.5 -27q-104 -46 -189 -109q-103 -75 -169 -187q-51 -87 -75 -193q-17 -77 -17 -146q0 -182 96 -298q83 -99 237 -144 q60 -17 139 -27t165 -10q51 0 93 3t85 11l178 29q100 14 228 14q12 0 18.5 -5t7.5 -14q0 -8 -11 -18z" horiz-adv-x="730" unicode="ح"/><glyph d="M422 969l-21 -62q-12 -36 -26 -47q-3 -3 -12 -3q-20 0 -69 17q-68 23 -68 52q0 7 6 16l33 72q18 44 39 44l13 -3l74 -34q33 -18 33 -41zM1297 -766q-16 -13 -107.5 -51.5t-151.5 -75.5q-106 -44 -210.5 -66t-225.5 -22q-321 0 -472 167q-136 151 -136 435q0 126 20 231 t62 196q82 177 272 335l-17 1h-13l-76 -6l-74 -3q-72 0 -142 -24.5t-139 -24.5l-9 31q-6 18 -3 24q39 105 132 152q73 35 186 35q49 0 106 -6l141 -15q59 0 153 15.5t116 15.5h36q20 0 29 -2q12 0 31 -13q-8 -13 -27 -77.5t-22 -67.5q-14 -10 -90 -34q-47 -15 -86.5 -29 t-68.5 -27q-104 -46 -189 -109q-103 -75 -169 -187q-51 -87 -75 -193q-17 -77 -17 -146q0 -182 96 -298q83 -99 237 -144q60 -17 139 -27t165 -10q51 0 93 3t85 11l178 29q100 14 228 14q12 0 18.5 -5t7.5 -14q0 -8 -11 -18z" horiz-adv-x="730" unicode="خ"/><glyph d="M668 197q0 -41 -11 -75t-34 -73q-21 -32 -129 -70q-100 -34 -195 -47l-22 -1q-42 0 -66 21q-19 16 -33 50q-12 33 -12 79v19l3 23q3 14 12.5 24.5t20.5 10.5q7 0 9 -2q6 -11 15 -19q28 -20 81 -20q31 0 73 7t97 22q121 33 121 61q0 19 -40 84q-44 72 -93 124 q-61 64 -106 64q-22 0 -37 -14q-10 -9 -20 7q-14 25 -14 72l1 13q6 64 37 94q25 25 69 25q26 0 89 -62q70 -70 122 -169q62 -122 62 -248z" horiz-adv-x="668" unicode="د"/><glyph d="M379 1036l-27 -76q-8 -21 -20 -30q-5 -3 -13 -3q-20 0 -69 17q-67 24 -67 52q0 6 6.5 15.5t32.5 72.5q18 44 39 44q8 0 15 -4l73 -35q32 -18 32 -42zM668 197q0 -41 -11 -75t-34 -73q-21 -32 -129 -70q-100 -34 -195 -47l-22 -1q-42 0 -66 21q-19 16 -33 50 q-12 33 -12 79v19l3 23q3 14 12.5 24.5t20.5 10.5q7 0 9 -2q6 -11 15 -19q28 -20 81 -20q31 0 73 7t97 22q121 33 121 61q0 19 -40 84q-44 72 -93 124q-61 64 -106 64q-22 0 -37 -14q-10 -9 -20 7q-14 25 -14 72l1 13q6 64 37 94q25 25 69 25q26 0 89 -62q70 -70 122 -169 q62 -122 62 -248z" horiz-adv-x="668" unicode="ذ"/><glyph d="M709 184q0 -164 -47 -287q-36 -98 -109 -185q-22 -27 -48.5 -53t-66.5 -58q-20 -12 -49.5 -18t-62.5 -6q-37 0 -52 1.5t-49 6.5l-192 36q-14 3 -31 26v15q16 3 53.5 5.5t72.5 2.5q43 0 77.5 5t58.5 14q57 21 113 54q86 50 149 118q79 86 115 196l-93 174q-34 65 -34 97 q0 6 7 16q19 26 24.5 59.5t21.5 33.5q31 0 86.5 -100t55.5 -153z" horiz-adv-x="836" unicode="ر"/><glyph d="M557 969q-11 -45 -18 -62q-11 -33 -27 -47q-5 -3 -13 -3q-19 0 -68 17q-67 23 -67 52q0 6 6.5 15.5t32.5 72.5q18 44 39 44l13 -3l73 -34q31 -19 31 -39zM709 184q0 -164 -47 -287q-36 -98 -109 -185q-22 -27 -48.5 -53t-66.5 -58q-20 -12 -49.5 -18t-62.5 -6 q-37 0 -52 1.5t-49 6.5l-192 36q-14 3 -31 26v15q16 3 53.5 5.5t72.5 2.5q43 0 77.5 5t58.5 14q57 21 113 54q86 50 149 118q79 86 115 196l-93 174q-34 65 -34 97q0 6 7 16q19 26 24.5 59.5t21.5 33.5q31 0 86.5 -100t55.5 -153z" horiz-adv-x="836" unicode="ز"/><glyph d="M1322 489q0 -30 -12 -95q-15 -83 -35 -108q-18 -27 -46.5 -39t-63.5 -12q-40 0 -75.5 13.5t-47.5 30.5q-36 -58 -89.5 -81.5t-164.5 -23.5l-1 -12l2 -32l2 -46q0 -55 -13 -116q-17 -85 -59 -183q-120 -113 -161 -139q-119 -76 -259 -76q-129 0 -215 103t-86 253 q0 74 23 149q17 57 49 118q20 38 34 38q11 0 11 -22q0 -12 -6 -29q-14 -36 -22 -91q-3 -26 -5 -48.5t-2 -42.5q0 -119 67 -182q64 -58 181 -58q138 0 256.5 72.5t140.5 173.5q0 120 -27 192l-69 126q0 24 9 68.5t24 82.5q5 9 13 9q9 0 21 -9q23 -24 47 -83l17 -46h76 q131 0 179 84l66 158q27 3 36 -20q2 -14 5 -21l-12 -38l-16 -58q30 -22 54 -30q14 -3 24.5 -5t22.5 -2h18q13 0 17 7l6 13q-2 9 -18 35q-5 9 -9 21.5t-4 19.5l16 43l31 82q35 -19 52.5 -56.5t17.5 -87.5z" horiz-adv-x="1324" unicode="س"/><glyph d="M985 1114q0 -24 -22 -74q-12 -26 -19 -41q-10 -17 -14 -24l-20 5q-14 9 -40 34l-37 28q-18 17 -18 25l13 42q13 38 30 70q0 17 18 17q20 0 48 -17q25 -12 43 -31q18 -17 18 -34zM1122 909q0 -16 -19 -66q-23 -63 -44 -63q-14 0 -59 38q-48 41 -48 63l16 39l33 94 q50 -23 72 -40q49 -34 49 -65zM913 881l-16 -58q-19 -60 -39 -69q-9 -6 -61 32l-49 39q0 43 31 114q20 45 36 36l84 -51q14 -9 14 -26v-17zM1322 489q0 -30 -12 -95q-15 -83 -35 -108q-18 -27 -46.5 -39t-63.5 -12q-40 0 -75.5 13.5t-47.5 30.5q-36 -58 -89.5 -81.5 t-164.5 -23.5l-1 -12l2 -32l2 -46q0 -55 -13 -116q-17 -85 -59 -183q-120 -113 -161 -139q-119 -76 -259 -76q-129 0 -215 103t-86 253q0 74 23 149q17 57 49 118q20 38 34 38q11 0 11 -22q0 -12 -6 -29q-14 -36 -22 -91q-3 -26 -5 -48.5t-2 -42.5q0 -119 67 -182 q64 -58 181 -58q138 0 256.5 72.5t140.5 173.5q0 120 -27 192l-69 126q0 24 9 68.5t24 82.5q5 9 13 9q9 0 21 -9q23 -24 47 -83l17 -46h76q131 0 179 84l66 158q27 3 36 -20q2 -14 5 -21l-12 -38l-16 -58q30 -22 54 -30q14 -3 24.5 -5t22.5 -2h18q13 0 17 7l6 13 q-2 9 -18 35q-5 9 -9 21.5t-4 19.5l16 43l31 82q35 -19 52.5 -56.5t17.5 -87.5z" horiz-adv-x="1302" unicode="ش"/><glyph d="M1549 549q0 -139 -106 -242q-90 -87 -250 -141q-56 -20 -122.5 -33t-129.5 -13q-46 0 -82.5 6t-76.5 24q0 -31 -2 -55q-4 -29 -6 -45q-6 -64 -22 -134q-30 -146 -139 -242q-121 -104 -294 -104q-134 0 -226.5 98.5t-92.5 233.5q0 17 4 40.5t7 38.5q15 83 33 145 q24 82 52 110q11 -2 15 -5q16 -10 16 -26q0 -15 -23.5 -87t-23.5 -116q0 -108 72 -181t182 -73q112 0 228 61q129 67 145 158q0 78 -9 147t-23.5 99.5t-34.5 50.5l-40 41l-4 12q0 8 4 13q21 29 41 91l14 52q20 0 34 -17.5t63 -105.5q11 -8 25 -13l22 -7l25 -8l26 -3l116 125 q102 108 178 169q109 85 178 85q80 0 148 -37q79 -43 79 -112zM1431 438q-3 25 -23 45q-39 39 -152 39q-43 0 -104 -40q-44 -29 -110 -89l-104 -94h51h64q99 0 233 58q101 45 145 81z" horiz-adv-x="1408" unicode="ص"/><glyph d="M1030 1116q-29 -94 -47 -108q-3 -3 -12 -3q-16 0 -67 16q-67 23 -67 51q0 10 5.5 17t32.5 72q18 44 38 44q7 0 15 -4l72 -33q32 -18 32 -40zM1549 549q0 -139 -106 -242q-90 -87 -250 -141q-56 -20 -122.5 -33t-129.5 -13q-46 0 -82.5 6t-76.5 24q0 -31 -2 -55 q-4 -29 -6 -45q-6 -64 -22 -134q-30 -146 -139 -242q-121 -104 -294 -104q-134 0 -226.5 98.5t-92.5 233.5q0 17 4 40.5t7 38.5q15 83 33 145q24 82 52 110q11 -2 15 -5q16 -10 16 -26q0 -15 -23.5 -87t-23.5 -116q0 -108 72 -181t182 -73q112 0 228 61q129 67 145 158 q0 78 -9 147t-23.5 99.5t-34.5 50.5l-40 41l-4 12q0 8 4 13q21 29 41 91l14 52q20 0 34 -17.5t63 -105.5q11 -8 25 -13l22 -7l25 -8l26 -3l116 125q102 108 178 169q109 85 178 85q80 0 148 -37q79 -43 79 -112zM1431 438q-3 25 -23 45q-39 39 -152 39q-43 0 -104 -40 q-44 -29 -110 -89l-104 -94h51h64q99 0 233 58q101 45 145 81z" horiz-adv-x="1514" unicode="ض"/><glyph d="M1219 449q0 -62 -18 -117.5t-85 -157.5q-112 -101 -318 -169q-156 -50 -364 -75q-149 -18 -270 -18q-12 0 -64.5 22t-228.5 103q-6 3 -7 17q0 12 7 12q200 0 289 9l172 23l78 76q0 63 -18 183q-11 78 -42 239l-47 246l-18 121q-6 57 -6 104q-29 38 -49 82q-17 43 -17 70 q12 39 27 69l20 58q9 14 18 16q8 0 25 -36l19 -40q5 -8 15 -17t20 -17q27 -21 31 -38l4 -32q0 -32 -12 -68q-7 -21 -22 -47q0 -23 28 -173l54 -279l29 -146l5 -62l3 -64v-36q-3 -19 -4 -28l-4 -66q91 91 156 151q101 92 178 142q99 63 168 63q72 0 160 -41.5t88 -78.5z M1087 305q-34 31 -76 53q-53 25 -106 25q-50 0 -133 -48q-69 -40 -147 -106q-61 -51 -115 -106q46 0 91.5 4t89.5 13t86 20.5t88 28.5q35 13 66 26t68 31l38 22z" horiz-adv-x="1219" unicode="ط"/><glyph d="M883 1026l-20 -61q-12 -33 -27 -45l-10 -2q-34 0 -82 19q-57 23 -57 48q0 6 6.5 16t32.5 73q18 44 39 44q8 0 15 -4l73 -34q32 -18 32 -41zM1219 449q0 -62 -18 -117.5t-85 -157.5q-112 -101 -318 -169q-156 -50 -364 -75q-149 -18 -270 -18q-12 0 -64.5 22t-228.5 103 q-6 3 -7 17q0 12 7 12q200 0 289 9l172 23l78 76q0 63 -18 183q-11 78 -42 239l-47 246l-18 121q-6 57 -6 104q-29 38 -49 82q-17 43 -17 70q12 39 27 69l20 58q9 14 18 16q8 0 25 -36l19 -40q5 -8 15 -17t20 -17q27 -21 31 -38l4 -32q0 -32 -12 -68q-7 -21 -22 -47 q0 -23 28 -173l54 -279l29 -146l5 -62l3 -64v-36q-3 -19 -4 -28l-4 -66q91 91 156 151q101 92 178 142q99 63 168 63q72 0 160 -41.5t88 -78.5zM1087 305q-34 31 -76 53q-53 25 -106 25q-50 0 -133 -48q-69 -40 -147 -106q-61 -51 -115 -106q46 0 91.5 4t89.5 13t86 20.5 t88 28.5q35 13 66 26t68 31l38 22z" horiz-adv-x="1229" unicode="ظ"/><glyph d="M1190 -791q-79 -62 -248 -123q-192 -69 -330 -69q-303 0 -453 111q-165 123 -165 397q0 59 9 122t29 135q30 116 87 241q48 108 90 165q-41 12 -72 22.5t-46 18.5q-61 30 -94 81q-38 61 -38 159q0 88 52 183q48 90 100 114q13 7 21 10t35.5 11t59.5 8q79 0 119 -20 q33 -16 121 -95q15 -20 15 -33q0 -11 -10 -15l-19 -3q-8 0 -17 3.5t-33 16.5q-38 21 -63 21q-48 0 -162 -39q-131 -45 -131 -86q0 -66 88 -135q78 -60 198 -60h23l25 2q26 13 46.5 25t42.5 26.5t42 28.5t46 34l101 79q11 11 24 13q10 0 15.5 -12.5t3.5 -21.5l-12 -42 q-5 -20 -16 -48.5t-25 -56.5q-28 -26 -91 -68l-121 -77q-77 -53 -154 -121q-51 -44 -104 -154q-44 -92 -72.5 -194.5t-28.5 -149.5q0 -123 51.5 -213t157 -120.5t237.5 -51.5q62 -9 128.5 -14t140.5 -5q106 0 256 20l141 21q10 -10 11 -20q0 -9 -11 -21z" horiz-adv-x="606" unicode="ع"/><glyph d="M180 1198q-6 -53 -10 -62l-18 -40q-7 -4 -12 -4q-18 0 -33 4t-40 16q-49 23 -49 47q0 10 5 15q11 15 26 74q9 44 28 44q6 0 13 -4l53 -28q38 -23 38 -53zM1190 -791q-79 -62 -248 -123q-192 -69 -330 -69q-303 0 -453 111q-165 123 -165 397q0 59 9 122t29 135 q30 116 87 241q48 108 90 165q-41 12 -72 22.5t-46 18.5q-61 30 -94 81q-38 61 -38 159q0 88 52 183q48 90 100 114q13 7 21 10t35.5 11t59.5 8q79 0 119 -20q33 -16 121 -95q15 -20 15 -33q0 -11 -10 -15l-19 -3q-8 0 -17 3.5t-33 16.5q-38 21 -63 21q-48 0 -162 -39 q-131 -45 -131 -86q0 -66 88 -135q78 -60 198 -60h23l25 2q26 13 46.5 25t42.5 26.5t42 28.5t46 34l101 79q11 11 24 13q10 0 15.5 -12.5t3.5 -21.5l-12 -42q-5 -20 -16 -48.5t-25 -56.5q-28 -26 -91 -68l-121 -77q-77 -53 -154 -121q-51 -44 -104 -154 q-44 -92 -72.5 -194.5t-28.5 -149.5q0 -123 51.5 -213t157 -120.5t237.5 -51.5q62 -9 128.5 -14t140.5 -5q106 0 256 20l141 21q10 -10 11 -20q0 -9 -11 -21z" horiz-adv-x="606" unicode="غ"/><glyph d="M942 1036l-25 -74q-9 -20 -22 -32q-3 -3 -11 -3q-18 0 -69 17q-68 24 -68 52q0 6 6.5 15.5t32.5 72.5q18 44 39 44q8 0 15 -4l72 -35q32 -18 32 -42zM1367 375q0 -61 -18.5 -121t-57.5 -117q-115 -95 -329 -165q-157 -51 -350 -83q-141 -22 -186 -22q-192 0 -308 102.5 t-116 268.5q0 78 15.5 120t60.5 93l6 5q9 6 18 6q17 0 17 -21q0 -10 -4 -21l-22 -48q-15 -36 -15 -61q0 -96 104 -170q115 -82 289 -82q73 7 134 13.5t94 11.5q153 21 245 53l121 39q94 31 146 59q71 37 86 76q0 29 -17 59q-15 31 -46 60l2 -20q0 -46 -34 -89 q-38 -47 -92 -47q-56 0 -91 59q-16 30 -25 64t-9 72q0 60 43 143q53 103 121 103q45 -21 66 -36q55 -39 90 -100q47 -82 62 -204zM1165 461q3 6 3 17l-3 20q-6 14 -32 14q-18 0 -31.5 -6.5t-16.5 -18.5q0 -15 2.5 -23.5t10.5 -12.5q24 -9 38 -9q17 0 29 19z" horiz-adv-x="1365" unicode="ف"/><glyph d="M742 1025q0 -19 -17 -62q-21 -57 -49 -61q-22 0 -61 33q-35 32 -49 57q6 28 30.5 73.5t36.5 51.5q17 0 73 -47q33 -27 36 -45zM545 951q6 -15 -12.5 -67t-36.5 -52q-15 0 -66 31.5t-57 48.5q-3 9 15 46q24 50 45 81q17 -6 50 -32q39 -30 62 -56zM1011 0l-40 -3v-30 q0 -79 -23 -163.5t-62 -141.5q-66 -101 -239.5 -189.5t-292.5 -88.5q-152 0 -257 123q-87 102 -87 203q0 109 8 169q4 31 13 69.5t22 77.5q8 28 19.5 45.5t21.5 17.5q8 0 8 -23l-1 -25q0 -11 -7 -36q-11 -52 -11 -105q0 -137 61 -228q74 -110 220 -110q148 0 312 81 q168 84 228 195q0 45 -3 81t-11 72l-75 -2l-61 -3q-71 0 -115 48q-34 40 -34 84q0 104 53 198.5t117 94.5q51 0 99 -73q44 -67 72 -173l65 1v-166zM825 164q-18 28 -36.5 46t-31.5 18q-26 0 -44 -12q-9 -6 -15 -26l19 -14q25 -14 52 -14z" horiz-adv-x="1011" unicode="ق"/><glyph d="M692 145v-46v-32v-22q-2 -12 -2 -17q0 -16 -1 -24t-7 -27q-13 -121 -142 -200q-114 -71 -290 -90l-25 -2q-97 0 -163 94q-60 87 -60 198q0 53 21 142q26 110 63 147q7 7 17 8q7 0 13.5 -6.5t6.5 -13.5l-30 -86q-15 -41 -15 -74q0 -129 70 -177q51 -34 157 -34 q127 0 224 56q111 63 111 168l-1 20l-12 43l-26 111l-36 178q-16 88 -19 106q-7 34 -25 118q-24 114 -54 239q-6 23 -21 43l-28 39q16 34 29 77l21 75q7 19 16 20q7 0 23.5 -39t31.5 -52q61 -50 66 -58l1 -15q1 -14 -3 -38q-8 -35 -32 -83l14 -74l32 -170l31 -182l21 -141 l16 -124z" horiz-adv-x="696" unicode="ل"/><glyph d="M479 246q3 -12 5 -27t2 -35q0 -37 -8 -68.5t-25 -43.5q-37 -24 -150 -41q-108 -13 -150 -33q-75 -35 -90 -121q13 -95 44 -213q36 -141 49 -206q24 -123 24 -240q0 -23 2 -33l7 -51q0 -26 -17 -48.5t-25 -24.5q-9 0 -18 45l-22 135q-19 107 -54 220q-17 57 -37 172 q-10 62 -16 121t-6 103q0 151 44 220q28 45 93.5 72.5t81.5 51.5l-13 1l-17 1h-12l-11 -2q-22 -6 -44 -21l-30 -30q-5 16 -20 36q-12 21 -14 37l1 10q15 78 42 108q17 18 85 56l24 2q66 0 151.5 -48.5t123.5 -104.5z" horiz-adv-x="489" unicode="م"/><glyph d="M473 796q0 -26 -14 -69q-20 -64 -47 -64q-21 0 -67 28q-54 33 -54 66q0 10 3 26t11 45q15 53 25 70q18 0 73 -28q70 -35 70 -74zM756 54q0 -76 -16 -140q-8 -35 -18 -66.5t-26 -69.5q-54 -95 -170 -159t-245 -64q-125 0 -202 103.5t-77 256.5q0 42 12 116q17 101 47 146 q16 22 28 22q8 0 14 -9.5t6 -24.5q0 -33 -15.5 -81.5t-15.5 -67.5q0 -117 64.5 -194t164.5 -77q76 0 189 49q134 58 182 140q0 149 -48 250l-106 147q0 9 26 101l19 67l12 12q4 3 13 5q6 0 14 -9q50 -80 99 -222t49 -231z" horiz-adv-x="780" unicode="ن"/><glyph d="M664 240q0 -69 -17 -151t-49 -184q-63 -109 -111 -169q-60 -76 -132 -120t-161 -44q-27 0 -100 10t-204 34q-20 3 -20 19q0 9 9 18q7 5 19 7h37l35 -1l49 3q12 0 22 2q18 5 28 7q176 44 309 152q139 112 204 266l3 21q0 21 -4.5 35t-6.5 19.5t-8 18.5q-23 -64 -33 -82 q-27 -45 -77 -45q-62 0 -107 51q-39 45 -39 95l1 10q9 93 54 176.5t110 116.5q63 0 126 -90.5t63 -174.5zM502 263q-9 24 -21.5 30.5t-43.5 6.5l-11 -16q-5 -9 -7 -21q0 -13 26 -22l25 -6q8 0 16 8z" horiz-adv-x="664" unicode="و"/><glyph d="M1047 624v-14v-12q0 -42 -5 -60q-5 -27 -20 -49q-14 -18 -23 -18q-8 0 -20 18q-15 23 -38 30q-11 3 -22.5 5t-27.5 2q-22 0 -93 -59q-34 -28 -64.5 -58.5t-58.5 -65.5q-64 -81 -64 -126q0 -24 16 -37q16 0 39.5 -3t98.5 -16l93 -14l79 -33q48 -27 48 -90q0 -23 -6 -49.5 t-20 -59.5l-29 -65q-83 -122 -292 -222q-195 -93 -333 -93q-146 0 -251 136q-95 125 -95 276q0 54 51 212.5t78 168.5q12 3 12 -12q0 -19 -12 -40q-26 -39 -35.5 -102.5t-9.5 -134.5q0 -135 106 -231q96 -87 213 -87q90 0 228 54q125 49 216.5 110t78.5 86q0 24 -67 29.5 t-93 9t-37 6.5q-67 14 -87 23q-54 21 -69 63l-2 22v19q0 121 74 260q67 126 169 223t185 113q46 -21 67.5 -48.5t21.5 -66.5zM639 -656q0 -18 -18 -63q-22 -57 -50 -61q-22 3 -60 36t-50 56q6 27 30.5 71.5t38.5 53.5q10 0 56.5 -35.5t52.5 -57.5zM440 -729q2 -7 -1 -24 t-13 -44q-18 -53 -35 -53q-16 2 -65 32q-54 33 -58 50q-3 8 24 65q27 51 36 62q14 -7 51.5 -35t60.5 -53z" horiz-adv-x="980" unicode="ي"/><glyph d="M159 234q-5 -20 -8 -28.5t-12 -27.5q-12 -29 -17 -34q-15 -24 -90 -63q-54 -29 -103 -60l-95 -75q-43 -28 -73 -38q15 37 103 119q78 72 169.5 137t125.5 70zM203 69q-5 -20 -8 -28.5t-12 -27.5q-12 -29 -17 -34q-15 -24 -90 -63q-54 -29 -103 -60l-95 -75 q-43 -28 -73 -38q15 37 103 119q78 72 169.5 137t125.5 70z" unicode="ً"/><glyph d="M4 -79q-15 10 -24 25t-9 33q0 1 0.5 3t2 8.5t5 18t9.5 32.5q5 12 14.5 22.5t20.5 19t23 13t23 3.5q28 -2 42 -19t17.5 -41t-1.5 -51.5t-16 -50.5q9 -4 18.5 -10t11.5 -15q-5 -14 -8 -28t-9 -29q-3 -8 -11 -2q-3 2 -14 10t-14 12q-55 -69 -137.5 -117.5t-176.5 -78.5 q-6 -1 -11.5 -1.5t-8 0.5t0 4t14.5 9q94 58 170 107t115 93q-11 7 -23 15t-24 15zM2 9q16 -22 42 -36.5t50 -26.5q2 13 0 28t-8 28t-16 22t-25 9q-12 0 -25 -5.5t-18 -18.5zM-183 7q-9 -11 -9 -19q0 -5 1 -11.5t4 -17.5q21 -30 54 -30.5t68 22.5q3 2 6.5 2.5t2.5 -4.5 q-1 -19 -10.5 -34.5t-24 -26.5t-32.5 -16.5t-37 -4.5q-38 11 -50 36.5t-9.5 55t15 57.5t23.5 43q16 26 44 53t63 52t73.5 46.5t75 36.5t68.5 21.5t53 1.5q24 -7 34.5 -22t12 -34.5t-4 -41t-15 -41.5t-20.5 -36.5t-20 -25.5q-5 -3 -10 -6.5t-8 -4.5t-2 1.5t8 11.5 q16 22 26.5 46.5t9.5 45.5t-16 34.5t-49 13.5q-29 3 -72 -14t-89.5 -46.5t-90 -67t-73.5 -76.5z" unicode="ٌ"/><glyph d="M159 234q-5 -20 -8 -28.5t-12 -27.5q-12 -29 -17 -34q-15 -24 -90 -63q-54 -29 -103 -60l-95 -75q-43 -28 -73 -38q15 37 103 119q78 72 169.5 137t125.5 70zM203 69q-5 -20 -8 -28.5t-12 -27.5q-12 -29 -17 -34q-15 -24 -90 -63q-54 -29 -103 -60l-95 -75 q-43 -28 -73 -38q15 37 103 119q78 72 169.5 137t125.5 70z" unicode="ٍ"/><glyph d="M208 172q-5 -20 -8 -28.5t-12 -27.5q-12 -29 -17 -34q-15 -24 -90 -63q-54 -29 -103 -60l-95 -75q-43 -28 -73 -38q15 37 103 119q78 72 169.5 137t125.5 70z" unicode="َ"/><glyph d="M34 165q19 -32 52.5 -56t64.5 -42q3 17 2.5 37.5t-6 39t-18 31.5t-33.5 15q-17 2 -35 -3t-27 -22zM222 62q0 -43 -23 -60l-16 6t-15 8l-22 15q-60 -87 -94 -122q-38 -41 -128 -104q-39 -28 -77.5 -44.5t-53.5 -16.5q-9 0 -10 5q0 9 27 27q113 68 199 153q68 68 95 119 l-67 26q-33 12 -33 45l1 11q0 35 41 94q45 65 82 65q26 0 40 -24q12 -24 12 -61q0 -13 -1 -27t-4 -28q-3 -26 -9 -40l37 -21q18 -10 19 -26zM137 120v13q0 27 -9 39q-12 16 -51 25q-6 0 -10 -7t-6 -22q0 -15 8 -19z" unicode="ُ"/><glyph d="M208 172q-5 -20 -8 -28.5t-12 -27.5q-12 -29 -17 -34q-15 -24 -90 -63q-54 -29 -103 -60l-95 -75q-43 -28 -73 -38q15 37 103 119q78 72 169.5 137t125.5 70z" unicode="ِ"/><glyph d="M162 141q-6 -45 -20.5 -83t-37.5 -61q-6 -6 -13.5 -12t-19 -11.5t-24.5 -5.5q-12 0 -26 7.5t-27 18.5l-39 -46q-27 -27 -63 -27q-38 0 -59 40q-15 32 -15 94q0 24 21 80.5t37 56.5q6 0 9 -10l4 -20q0 -10 -6 -32t-6 -35q0 -43 29 -43l24 3q41 7 65 85.5t31 78.5 q3 -2 6 -4.5t6 -8.5q8 -13 8 -23t-5 -25l-5 -27l1 -9q24 -24 48 -24q18 0 31 47l18 84q3 12 9 12q5 0 14 -24q3 -13 5 -25t2 -27v-12z" unicode="ّ"/><glyph d="M-166 -147q-4 -1 -11 -2t-13 -1q-5 0 -5.5 3.5t9.5 12.5q84 54 133.5 85.5t76 48t34.5 22t9 8.5q-14 2 -28.5 4t-29.5 4q-28 3 -55.5 3.5t-53.5 -7.5q-8 -3 -14.5 -6t-11 -3.5t-6.5 3t0 14.5q7 20 14 38t14 37q4 10 13.5 15.5t21.5 8.5t25 4t25 1q33 0 69.5 -2t70.5 -5 q15 0 25 -9t0 -28q-18 -42 -43.5 -75t-53.5 -69q-23 -23 -42 -39.5t-49 -26.5q-28 -10 -63 -19.5t-61 -19.5z" unicode="ْ"/><glyph d="M-233 -53q-34 -15 -13 17q42 48 86.5 74.5t95.5 28.5q31 0 60 -10t60 -10q26 0 51.5 8t48.5 21t41.5 28.5t30.5 30.5q12 13 16.5 12.5t-3.5 -18.5q-15 -31 -40.5 -61.5t-57.5 -54.5t-67.5 -39t-70.5 -15q-19 0 -34.5 4t-29.5 9t-27.5 9t-28.5 4q-36 0 -64.5 -12 t-53.5 -26z" unicode="ٓ"/><glyph d="M-104 -4q5 14 10.5 31.5t12.5 35t15.5 33.5t20.5 28q24 20 57 27t63 -13q0 -5 -3 -14t-7.5 -19.5t-9 -20.5t-8.5 -17q-8 -8 -15 -3q-12 10 -25 12t-25 -1.5t-23.5 -11t-20.5 -16.5q4 -14 17 -23.5t29.5 -15t32.5 -8t26 -2.5q26 2 51.5 11t47.5 17q10 4 7 -4 q-9 -17 -18.5 -31.5t-23.5 -33.5q-27 -10 -55.5 -18.5t-55.5 -19.5t-50.5 -26.5t-39.5 -39.5q-2 -3 -6 -3.5t-2 4.5q3 21 12.5 40t21.5 40l-1 5q-14 11 -25.5 24t-9.5 33z" unicode="ٔ"/><glyph d="M-104 -4q5 14 10.5 31.5t12.5 35t15.5 33.5t20.5 28q24 20 57 27t63 -13q0 -5 -3 -14t-7.5 -19.5t-9 -20.5t-8.5 -17q-8 -8 -15 -3q-12 10 -25 12t-25 -1.5t-23.5 -11t-20.5 -16.5q4 -14 17 -23.5t29.5 -15t32.5 -8t26 -2.5q26 2 51.5 11t47.5 17q10 4 7 -4 q-9 -17 -18.5 -31.5t-23.5 -33.5q-27 -10 -55.5 -18.5t-55.5 -19.5t-50.5 -26.5t-39.5 -39.5q-2 -3 -6 -3.5t-2 4.5q3 21 12.5 40t21.5 40l-1 5q-14 11 -25.5 24t-9.5 33z" unicode="ٕ"/><glyph d="M-80 119q5 19 11 35t17 42q8 14 21 2q30 -31 44.5 -79.5t17 -102t-7 -104.5t-27.5 -87q-8 -14 -11.5 -15.5t-1.5 17.5q5 40 6.5 78t-4.5 74.5t-21.5 71.5t-43.5 68z" unicode="ٖ"/><glyph d="M60 1002q8 -1 14 -9t9.5 -18t5 -20.5t1.5 -16.5q-8 -25 -19 -51t-31 -43q-8 -11 -18.5 -14.5t-21.5 -1t-21 9t-17 15.5q-21 21 -31.5 49.5t-12.5 60t2.5 63t13.5 57.5q25 75 59.5 138.5t71.5 126.5q9 16 16.5 20t12.5 1q3 -3 3 -11t-8 -19q-21 -40 -43 -85.5t-35 -92.5 t-11.5 -93t27.5 -87q6 0 10 3.5t7.5 7l7 7t8.5 3.5z" unicode="ٗ"/><glyph d="M-16 168q7 4 11 2.5t0 -10.5q-11 -35 -9.5 -73t26.5 -69q13 -17 30 -20t34.5 3t33.5 17.5t27 25.5q4 8 10.5 7t3.5 -10q-6 -27 -19.5 -56t-34 -54t-46 -42t-55.5 -20q-32 0 -50 16t-26 39.5t-9 51t2 50.5q6 42 24 78.5t47 63.5z" unicode="٘"/><glyph d="M446 692q9 34 11 114l1 210q0 165 -25 240q-21 65 -61 65q-52 0 -76 -68q-18 -46 -24 -144l-4 -84l-1 -75q0 -92 3 -142q4 -66 16 -106q21 -84 76 -84q60 0 84 74zM364 14q-13 9 -13 17q0 5 4 12l830 1339q8 17 16 17q9 0 19 -6l61 -35q8 -6 8 -15q0 -6 -8 -20 l-827 -1337q-8 -17 -19 -17q-10 0 -16 6zM192 589q-58 40 -95 114q-31 59 -45 136q-12 59 -12 113q0 188 78 308q91 139 260 139q174 0 252 -147q31 -58 45 -137q12 -65 12 -140q0 -434 -334 -434q-93 0 -161 48zM1351 133q9 34 11 114l1 210q0 164 -25 240q-21 65 -61 65 q-52 0 -76 -68q-17 -46 -24 -144l-4 -84v-75q0 -92 3 -142q4 -66 15 -106q21 -84 76 -84q60 0 84 74zM1097 29q-57 41 -95 115q-30 59 -45 136q-12 59 -12 113q0 187 79 308q90 139 259 139q174 0 252 -147q31 -58 46 -138q11 -64 11 -139q0 -434 -333 -434q-94 0 -162 47z" horiz-adv-x="1634" unicode="٪"/><glyph d="M121 318q-17 0 -21 -9t-10 -23q-3 -8 -9 -17.5t-15 -0.5q-11 14 -13.5 30.5t-2.5 32.5t4.5 36t13.5 37.5t23 29t34 11.5q25 0 42.5 -13t28.5 -32.5t16.5 -43t5.5 -43.5q-4 -85 -38 -161.5t-94 -136.5q-15 -15 -22 -12.5t7 23.5q16 27 32 54.5t29 56.5t21 59.5t8 62.5 q0 21 -7 40t-33 19z" horiz-adv-x="268" unicode="٫"/><glyph d="M121 318q-17 0 -21 -9t-10 -23q-3 -8 -9 -17.5t-15 -0.5q-11 14 -13.5 30.5t-2.5 32.5t4.5 36t13.5 37.5t23 29t34 11.5q25 0 42.5 -13t28.5 -32.5t16.5 -43t5.5 -43.5q-4 -85 -38 -161.5t-94 -136.5q-15 -15 -22 -12.5t7 23.5q16 27 32 54.5t29 56.5t21 59.5t8 62.5 q0 21 -7 40t-33 19z" horiz-adv-x="268" unicode="٬"/><glyph d="M276 901q0 14 10 48l23 66l38 99l-8 6l-76 -90q-28 -32 -47 -52q-23 -25 -34 -32q-61 -38 -107 35q-21 32 -7 71q13 33 40 46q9 4 43 12l140 29q34 7 38 8v10l-178 32q-35 7 -45 11q-78 30 -37 109q37 74 108 37q9 -5 35 -30l129 -136l8 6l-39 97q-15 39 -24 66 q-10 34 -10 48q0 84 86 84t86 -74q0 -14 -11 -50q-9 -30 -24 -71q-28 -79 -39 -100l10 -8l67 81q28 33 48 53q24 26 35 31q70 37 108 -32q40 -76 -30 -115q-9 -5 -43 -12q-29 -6 -72 -13q-89 -14 -104 -14v-10l103 -17q44 -8 75 -15q39 -10 55 -17q23 -11 32 -45 q10 -38 -9 -72q-47 -78 -119 -25q-13 10 -38 37q-19 21 -47 54l-61 75l-10 -6l38 -93l25 -67q11 -35 11 -55q0 -84 -86 -84t-86 84z" horiz-adv-x="671" unicode="٭"/><glyph d="M-84 126q5 19 11.5 35t17.5 42q7 15 20 2q30 -29 45 -78.5t17.5 -103.5t-7 -105.5t-27.5 -85.5q-8 -14 -12 -15.5t-1 17.5q5 39 6.5 77.5t-4.5 75.5t-21.5 72t-44.5 67z" unicode="ٰ"/><glyph d="M1177 367q0 -43 -11.5 -88.5t-37.5 -104.5q-98 -101 -339.5 -175.5t-475.5 -74.5q-135 0 -225 88.5t-90 218.5q0 40 31 133q21 66 49 91l15 3q9 0 11 -15l-14 -72l-5 -58l1 -34l8 -29q19 -61 109 -106q45 -22 92.5 -33t101.5 -11q48 0 164 16.5t195 37.5 q159 39 248.5 81.5t89.5 81.5q0 31 -36 81t-38 67q0 13 19.5 67.5t27.5 67.5q48 -56 74 -101q36 -65 36 -132zM773 749q0 -19 -5.5 -36.5t-26.5 -49.5q-36 -32 -101 -54q-49 -15 -114 -23q-47 -6 -85 -6q-4 0 -20.5 7t-72.5 32q-2 1 -2 6q0 4 2 4q63 0 91 2l55 8l24 24 q0 19 -6 57q-3 25 -13 76l-15 77l-5 38q-2 18 -2 33q-9 12 -16 26q-5 13 -5 22q4 12 9 22l6 18q3 4 5 5q3 0 8 -11l6 -13l5 -5l6 -6q9 -6 10 -12l1 -10q0 -10 -3 -21q-3 -7 -7 -15q0 -7 9 -55l17 -87l9 -46l1 -20l1 -20v-12q-1 -5 -1 -8l-1 -21q28 29 49 47q32 29 56 45 q31 20 53 20q23 0 50.5 -13t27.5 -25zM731 704q-10 10 -23 17q-17 7 -34 7q-16 0 -42 -15q-22 -12 -46 -33q-19 -16 -36 -33q14 0 28.5 1t28.5 4t27 6.5t27 8.5q12 4 21.5 8.5t21.5 9.5l12 7z" horiz-adv-x="1179" unicode="ٹ"/><glyph d="M1177 367q0 -43 -11.5 -88.5t-37.5 -104.5q-98 -101 -339.5 -175.5t-475.5 -74.5q-135 0 -225 88.5t-90 218.5q0 40 31 133q21 66 49 91l15 3q9 0 11 -15l-14 -72l-5 -58l1 -34l8 -29q19 -61 109 -106q45 -22 92.5 -33t101.5 -11q48 0 164 16.5t195 37.5 q159 39 248.5 81.5t89.5 81.5q0 31 -36 81t-38 67q0 13 19.5 67.5t27.5 67.5q48 -56 74 -101q36 -65 36 -132zM913 -348q-19 -62 -25 -76q-9 -21 -24 -33q-3 -3 -12 -3q-18 0 -67 17q-67 23 -67 51q0 8 6 16t33 73q18 44 40 44l14 -3l72 -35q32 -18 32 -39zM805 -545 q-19 -62 -25 -76q-9 -21 -24 -33q-3 -3 -12 -3q-18 0 -67 17q-67 23 -67 51q0 8 6 16t33 73q18 44 40 44l14 -3l72 -35q32 -18 32 -39zM688 -348q-19 -62 -25 -76q-9 -21 -24 -33q-3 -3 -12 -3q-18 0 -67 17q-67 23 -67 51q0 8 6 16t33 73q18 44 40 44l14 -3l72 -35 q32 -18 32 -39z" horiz-adv-x="1187" unicode="پ"/><glyph d="M717 -152l-21 -62q-12 -34 -26 -46q-3 -3 -12 -3q-20 0 -69 17q-68 23 -68 51q0 10 5 16l33 73q18 44 39 44q6 0 14 -4l74 -34q33 -18 33 -41zM1297 -766q-16 -13 -107.5 -51.5t-151.5 -75.5q-106 -44 -210.5 -66t-225.5 -22q-321 0 -472 167q-136 151 -136 435 q0 126 20 231t62 196q82 177 272 335l-17 1h-13l-76 -6l-74 -3q-72 0 -142 -24.5t-139 -24.5l-9 31q-6 18 -3 24q39 105 132 152q73 35 186 35q49 0 106 -6l141 -15q59 0 153 15.5t116 15.5h36q20 0 29 -2q12 0 31 -13q-8 -13 -27 -77.5t-22 -67.5q-14 -10 -90 -34 q-47 -15 -86.5 -29t-68.5 -27q-104 -46 -189 -109q-103 -75 -169 -187q-51 -87 -75 -193q-17 -77 -17 -146q0 -182 96 -298q83 -99 237 -144q60 -17 139 -27t165 -10q51 0 93 3t85 11l178 29q100 14 228 14q12 0 18.5 -5t7.5 -14q0 -8 -11 -18zM636 -341l-21 -62 q-12 -34 -26 -46q-3 -3 -12 -3q-20 0 -69 17q-68 23 -68 51q0 10 5 16l33 73q18 44 39 44q6 0 14 -4l74 -34q33 -18 33 -41zM493 -178l-21 -62q-12 -34 -26 -46q-3 -3 -12 -3q-20 0 -69 17q-68 23 -68 51q0 10 5 16l33 73q18 44 39 44q6 0 14 -4l74 -34q33 -18 33 -41z" horiz-adv-x="758" unicode="چ"/><glyph d="M668 197q0 -41 -11 -75t-34 -73q-21 -32 -129 -70q-100 -34 -195 -47l-22 -1q-42 0 -66 21q-19 16 -33 50q-12 33 -12 79v19l3 23q3 14 12.5 24.5t20.5 10.5q7 0 9 -2q6 -11 15 -19q28 -20 81 -20q31 0 73 7t97 22q121 33 121 61q0 19 -40 84q-44 72 -93 124 q-61 64 -106 64q-22 0 -37 -14q-10 -9 -20 7q-14 25 -14 72l1 13q6 64 37 94q25 25 69 25q26 0 89 -62q70 -70 122 -169q62 -122 62 -248zM516 1098q0 -19 -5.5 -36.5t-26.5 -49.5q-36 -32 -101 -54q-49 -15 -114 -23q-47 -6 -85 -6q-4 0 -20.5 7t-72.5 32q-2 1 -2 6 q0 4 2 4q63 0 91 2l55 8l24 24q0 19 -6 57q-3 25 -13 76l-15 77l-5 38q-2 18 -2 33q-9 12 -16 26q-5 13 -5 22q4 12 9 22l6 18q3 4 5 5q3 0 8 -11l6 -13l5 -5l6 -6q9 -6 10 -12l1 -10q0 -10 -3 -21q-3 -7 -7 -15q0 -7 9 -55l17 -87l9 -46l1 -20l1 -20v-12q-1 -5 -1 -8 l-1 -21q28 29 49 47q32 29 56 45q31 20 53 20q23 0 50.5 -13t27.5 -25zM474 1053q-10 10 -23 17q-17 7 -34 7q-16 0 -42 -15q-22 -12 -46 -33q-19 -16 -36 -33q14 0 28.5 1t28.5 4t27 6.5t27 8.5q12 4 21.5 8.5t21.5 9.5l12 7z" horiz-adv-x="668" unicode="ڈ"/><glyph d="M709 184q0 -164 -47 -287q-36 -98 -109 -185q-22 -27 -48.5 -53t-66.5 -58q-20 -12 -49.5 -18t-62.5 -6q-37 0 -52 1.5t-49 6.5l-192 36q-14 3 -31 26v15q16 3 53.5 5.5t72.5 2.5q43 0 77.5 5t58.5 14q57 21 113 54q86 50 149 118q79 86 115 196l-93 174q-34 65 -34 97 q0 6 7 16q19 26 24.5 59.5t21.5 33.5q31 0 86.5 -100t55.5 -153zM598 977q0 -19 -5.5 -36.5t-26.5 -49.5q-36 -32 -101 -54q-49 -15 -114 -23q-47 -6 -85 -6q-4 0 -20.5 7t-72.5 32q-2 1 -2 6q0 4 2 4q63 0 91 2l55 8l24 24q0 19 -6 57q-3 25 -13 76l-15 77l-5 38 q-2 18 -2 33q-9 12 -16 26q-5 13 -5 22q4 12 9 22l6 18q3 4 5 5q3 0 8 -11l6 -13l5 -5l6 -6q9 -6 10 -12l1 -10q0 -10 -3 -21q-3 -7 -7 -15q0 -7 9 -55l17 -87l9 -46l1 -20l1 -20v-12q-1 -5 -1 -8l-1 -21q28 29 49 47q32 29 56 45q31 20 53 20q23 0 50.5 -13t27.5 -25z M556 932q-10 10 -23 17q-17 7 -34 7q-16 0 -42 -15q-22 -12 -46 -33q-19 -16 -36 -33q14 0 28.5 1t28.5 4t27 6.5t27 8.5q12 4 21.5 8.5t21.5 9.5l12 7z" horiz-adv-x="836" unicode="ڑ"/><glyph d="M592 1014q-11 -45 -18 -62q-11 -33 -27 -47q-5 -3 -13 -3q-19 0 -68 17q-67 23 -67 52q0 6 6.5 15.5t32.5 72.5q18 44 39 44l13 -3l73 -34q31 -19 31 -39zM709 184q0 -164 -47 -287q-36 -98 -109 -185q-22 -27 -48.5 -53t-66.5 -58q-20 -12 -49.5 -18t-62.5 -6 q-37 0 -52 1.5t-49 6.5l-192 36q-14 3 -31 26v15q16 3 53.5 5.5t72.5 2.5q43 0 77.5 5t58.5 14q57 21 113 54q86 50 149 118q79 86 115 196l-93 174q-34 65 -34 97q0 6 7 16q19 26 24.5 59.5t21.5 33.5q31 0 86.5 -100t55.5 -153zM683 799q-11 -45 -18 -62q-11 -33 -27 -47 q-5 -3 -13 -3q-19 0 -68 17q-67 23 -67 52q0 6 6.5 15.5t32.5 72.5q18 44 39 44l13 -3l73 -34q31 -19 31 -39zM458 808q-11 -45 -18 -62q-11 -33 -27 -47q-5 -3 -13 -3q-19 0 -68 17q-67 23 -67 52q0 6 6.5 15.5t32.5 72.5q18 44 39 44l13 -3l73 -34q31 -19 31 -39z" horiz-adv-x="836" unicode="ژ"/><glyph d="M881 203l-28 -105q-18 -52 -58 -73q-71 -29 -278 -49q-136 -12 -160 -14q-96 -7 -182 -7l-167 -4l-3 32l-1 40v25q0 15 5 36l10 36q8 22 20 27l41 -7q27 -3 52 -5t54 -2q136 0 296 22q61 8 143.5 22t175.5 34q0 64 -10 141q-5 46 -14 96.5t-27 133.5q-11 53 -23 118.5 t-22 123.5l-23 166l-8 65q-14 6 -32 47q-15 41 -15 83t29.5 91.5t47.5 49.5q9 0 9 -16l-1 -18l-1 -15q0 -14 15 -32q13 -13 69 -52l4 -40q0 -37 -11.5 -71t-27.5 -64l53 -328q9 -65 30 -163t27 -137q11 -85 11 -187zM514 684q-17 -74 -31 -102q-19 -41 -73 -107 q-36 -27 -85 -39q-72 -16 -210 -16l-2 16l3 16q3 6 13 9q130 42 152 52l96 44q-71 23 -84.5 35t-13.5 47v33q0 68 72 169l71 97l21 -10q3 -3 3 -27q0 -20 -16 -48l-53 -97q25 -11 81 -21t56 -51zM1268 1748h9l4 -4v-7q-15 -60 -79 -105q-44 -33 -163 -94q-118 -77 -253 -152 q-49 -34 -79 -64h-2v2l15 41l-2 55q0 37 184 135l349 191z" horiz-adv-x="842" unicode="ک"/><glyph d="M881 203l-28 -105q-18 -52 -58 -73q-71 -29 -278 -49q-136 -12 -160 -14q-96 -7 -182 -7l-167 -4l-3 32l-1 40v25q0 15 5 36l10 36q8 22 20 27l41 -7q27 -3 52 -5t54 -2q136 0 296 22q61 8 143.5 22t175.5 34q0 64 -10 141q-5 46 -14 96.5t-27 133.5q-11 53 -23 118.5 t-22 123.5l-23 166l-8 65q-14 6 -32 47q-15 41 -15 83t29.5 91.5t47.5 49.5q9 0 9 -16l-1 -18l-1 -15q0 -14 15 -32q13 -13 69 -52l4 -40q0 -37 -11.5 -71t-27.5 -64l53 -328q9 -65 30 -163t27 -137q11 -85 11 -187zM514 684q-17 -74 -31 -102q-19 -41 -73 -107 q-36 -27 -85 -39q-72 -16 -210 -16l-2 16l3 16q3 6 13 9q130 42 152 52l96 44q-71 23 -84.5 35t-13.5 47v33q0 68 72 169l71 97l21 -10q3 -3 3 -27q0 -20 -16 -48l-53 -97q25 -11 81 -21t56 -51zM1251 1687h9l4 -4v-7q-15 -60 -79 -105q-44 -33 -163 -94q-118 -77 -253 -152 q-49 -34 -79 -64h-2v2l15 41l-2 55q0 37 184 135l349 191zM1147 1745h6l4 -3v-6q-12 -48 -64 -84q-35 -27 -130 -75q-94 -62 -202 -122q-39 -27 -63 -51h-2v2l12 32l-2 45q0 29 148 108l279 152z" horiz-adv-x="842" unicode="گ"/><glyph d="M756 54q0 -76 -16 -140q-8 -35 -18 -66.5t-26 -69.5q-54 -95 -170 -159t-245 -64q-125 0 -202 103.5t-77 256.5q0 42 12 116q17 101 47 146q16 22 28 22q8 0 14 -9.5t6 -24.5q0 -33 -15.5 -81.5t-15.5 -67.5q0 -117 64.5 -194t164.5 -77q76 0 189 49q134 58 182 140 q0 149 -48 250l-106 147q0 9 26 101l19 67l12 12q4 3 13 5q6 0 14 -9q50 -80 99 -222t49 -231z" horiz-adv-x="780" unicode="ں"/><glyph d="M350 296q12 -23 31 -37.5t40.5 -24.5t43 -16.5t38.5 -13.5q7 -2 18 1.5t22 9.5t21.5 13.5t16.5 13.5q1 22 -1.5 50.5t-12 53.5t-27.5 42t-47 17q-23 0 -44 -11.5t-39.5 -28t-33.5 -35.5t-26 -34zM625 190q1 -6 9.5 -13t33.5 -19.5t71 -32.5t123 -53q3 20 -5 50t-23 64 t-34.5 68.5t-40 64.5t-40 52t-34.5 31q-10 -60 -26.5 -110.5t-33.5 -101.5zM943 168q3 -27 -5.5 -65t-25 -78t-38.5 -76.5t-47 -61.5q-34 18 -62 32.5t-60.5 29.5t-75.5 32t-107 40q-20 -13 -42.5 -27.5t-47 -27.5t-51 -23.5t-54.5 -14.5q-65 -12 -124 -12h-129q-4 1 -4 5 q0 5 4 6q42 21 88 45.5t86 47t69 40t37 23.5q-61 55 -61 138q0 55 17 107t47 97t70 81t86 60q2 4 7 18t12 31.5t13.5 36t11.5 32.5q6 16 12 16t19 -7q60 -32 123 -86.5t114.5 -124.5t84.5 -150.5t33 -163.5z" horiz-adv-x="1016" unicode="ھ"/><glyph d="M383 274q0 -78 -30 -149q-33 -77 -99 -121q-31 -6 -69.5 -20.5t-63.5 -14.5q-48 0 -86 48q-35 49 -35 116q0 63 60 209.5t104 200.5q117 -61 164 -113q55 -63 55 -156zM262 195q0 44 -36 81t-85 43q-21 -21 -34 -49t-13 -55q0 -20 39 -40l19 -7h17q33 0 56.5 5t36.5 22z" horiz-adv-x="383" unicode="ہ"/><glyph d="M383 274q0 -78 -30 -149q-33 -77 -99 -121q-31 -6 -69.5 -20.5t-63.5 -14.5q-48 0 -86 48q-35 49 -35 116q0 63 60 209.5t104 200.5q117 -61 164 -113q55 -63 55 -156zM262 195q0 44 -36 81t-85 43q-21 -21 -34 -49t-13 -55q0 -20 39 -40l19 -7h17q33 0 56.5 5t36.5 22z M337 907q15 5 15 -11q0 -14 -9.5 -38t-19.5 -37q-26 -30 -82 -59q-141 -68 -166 -90l-17 -4l-15 1q-12 0 -13 10q0 13 33 46q8 7 19 17q16 14 29 24l-55 12q-21 10 -40 61q23 76 64.5 126.5t88.5 50.5q30 0 50 -23q4 -4 4 -21q0 -22 -5 -45l-3 -12l-15 -17q-3 -3 -18 -5 l-12 1l-11 1q-4 7 -5 13q0 12 -5 12q-41 -5 -54 -12.5t-13 -24.5q31 -32 62 -41l58 -14q41 15 74 38z" horiz-adv-x="383" unicode="ۂ"/><glyph d="M352 831q0 -18 -17 -61q-21 -58 -48 -61q-22 0 -59.5 32.5t-53.5 57.5q4 14 12 32t20 39q27 50 38 54q9 0 54 -33q50 -37 54 -60zM156 758q2 -6 2 -11q0 -23 -23 -74q-15 -33 -29 -34q-14 0 -45 20q-71 39 -77 62q-5 9 25 66l34 61q20 -10 51 -34q39 -30 62 -56zM383 274 q0 -78 -30 -149q-33 -77 -99 -121q-31 -6 -69.5 -20.5t-63.5 -14.5q-48 0 -86 48q-35 49 -35 116q0 63 60 209.5t104 200.5q117 -61 164 -113q55 -63 55 -156zM262 195q0 44 -36 81t-85 43q-21 -21 -34 -49t-13 -55q0 -20 39 -40l19 -7h17q33 0 56.5 5t36.5 22z" horiz-adv-x="375" unicode="ۃ"/><glyph d="M1047 624v-14v-12q0 -42 -5 -60q-5 -27 -20 -49q-14 -18 -23 -18q-8 0 -20 18q-15 23 -38 30q-11 3 -22.5 5t-27.5 2q-22 0 -93 -59q-34 -28 -64.5 -58.5t-58.5 -65.5q-64 -81 -64 -126q0 -24 16 -37q16 0 39.5 -3t98.5 -16l93 -14l79 -33q48 -27 48 -90q0 -23 -6 -49.5 t-20 -59.5l-29 -65q-83 -122 -292 -222q-195 -93 -333 -93q-146 0 -251 136q-95 125 -95 276q0 54 51 212.5t78 168.5q12 3 12 -12q0 -19 -12 -40q-26 -39 -35.5 -102.5t-9.5 -134.5q0 -135 106 -231q96 -87 213 -87q90 0 228 54q125 49 216.5 110t78.5 86q0 24 -67 29.5 t-93 9t-37 6.5q-67 14 -87 23q-54 21 -69 63l-2 22v19q0 121 74 260q67 126 169 223t185 113q46 -21 67.5 -48.5t21.5 -66.5z" horiz-adv-x="980" unicode="ی"/><glyph d="M642 817h24q55 -36 55 -176v-8q0 -68 -71 -163h-12q-28 71 -28 147q-61 -37 -215 -219q-108 -125 -212 -187l-51 -52q41 -32 91 -32q109 -8 319 -8q574 0 1172 72l47 4l4 -4v-4q0 -88 -418 -191q-213 -56 -673 -56l-431 -20q-215 13 -215 88l-8 24q0 133 64 251 q57 41 191 175q23 12 223 251q105 108 144 108z" horiz-adv-x="1796" unicode="ے"/><glyph d="M642 817h24q55 -36 55 -176v-8q0 -68 -71 -163h-12q-28 71 -28 147q-61 -37 -215 -219q-108 -125 -212 -187l-51 -52q41 -32 91 -32q109 -8 319 -8q574 0 1172 72l47 4l4 -4v-4q0 -88 -418 -191q-213 -56 -673 -56l-431 -20q-215 13 -215 88l-8 24q0 133 64 251 q57 41 191 175q23 12 223 251q105 108 144 108zM700 1210q15 5 15 -11q0 -14 -9.5 -38t-19.5 -37q-26 -30 -82 -59q-141 -68 -166 -90l-17 -4l-15 1q-12 0 -13 10q0 13 33 46q8 7 19 17q16 14 29 24l-55 12q-21 10 -40 61q23 76 64.5 126.5t88.5 50.5q30 0 50 -23 q4 -4 4 -21q0 -22 -5 -45l-3 -12l-15 -17q-3 -3 -18 -5l-12 1l-11 1q-4 7 -5 13q0 12 -5 12q-41 -5 -54 -12.5t-13 -24.5q31 -32 62 -41l58 -14q41 15 74 38z" horiz-adv-x="1796" unicode="ۓ"/><glyph d="M101 200l476 -1l-80 -196q-17 0 -52.5 -0.5t-81 -1t-96.5 -1t-100 -0.5h-92h-72z" horiz-adv-x="578" unicode="۔"/><glyph d="M1035 1228q0 -5 0.5 -13l1 -16t1 -15t0.5 -9q0 -10 2.5 -16.5t12.5 -6.5q17 0 17 15q0 3 0.5 10t0.5 14q0 8 0.5 15.5t0.5 11.5q0 10 4 14.5t6 -9.5q1 -3 2.5 -10t2.5 -14.5t2 -14t1 -9.5q3 -6 7.5 -12t12.5 -6q7 0 7 8q0 16 -3 32t1 34q-4 5 0.5 6t6.5 -5q3 -15 6 -31 t3 -34q0 -14 -3 -25.5t-21 -11.5q-19 0 -25 18q-9 -10 -14.5 -16.5t-16.5 -6.5q-10 0 -18.5 7.5t-8.5 18.5v48q0 -8 3 -1t8 30zM606 1172q0 -9 2.5 -15t13.5 -6q15 0 18 14q0 3 0.5 9.5t1 14.5t1 15.5t0.5 11.5q-4 11 1 15t9 -10q0 -3 1 -10t2 -14.5t2 -14.5t1 -10 q4 -5 7.5 -10t11.5 -5q5 0 5 5q0 18 -0.5 34t-0.5 32q0 6 3.5 7t7.5 -4q4 -18 6.5 -34t2.5 -32q0 -13 -5 -25.5t-23 -12.5q-14 0 -21 19q-8 -11 -15 -17.5t-20 -6.5q-9 0 -16.5 8t-7.5 18v49q0 1 1.5 6l3 10t3.5 9t4 4v-54zM554 874q-4 -5 -7.5 -4t0.5 7q6 14 8.5 29t2.5 30 q0 16 -3 31t-11 29q0 3 -0.5 9.5t0 12t3.5 7t10 -4.5q19 -35 18 -73t-21 -73zM336 870q0 -1 2 -1q19 -6 39 -8t42 2q8 0 19 4t15 12q0 13 1.5 21.5t1.5 19.5v6q0 5 -1.5 11t-8.5 3q-27 -18 -54 -34t-54 -34zM950 1240q-1 -40 2 -86t6.5 -93.5t7 -94t3.5 -87.5 q0 -40 -5 -72.5t-18 -52.5q-9 103 -14 200t-14 197q3 7 5.5 19.5t5.5 25.5t8 25t13 19zM1466 668q72 -14 144 -9.5t144 18.5q-13 37 -34.5 56.5t-47 25.5t-54.5 0t-56.5 -19.5t-52.5 -32.5t-43 -39zM1230 436q4 -6 11 -15t17.5 -15.5t24 -8t31.5 7.5q-4 13 -14 24 t-22.5 16.5t-25.5 4t-22 -13.5zM314 316q9 -8 21.5 -14.5t25.5 -12t25 -10l20 -7.5q-5 11 -13.5 25t-20 23t-26 10t-32.5 -14zM1178 130q-10 1 -19 1.5t-19 0.5q-29 0 -55.5 1.5t-49.5 15.5q28 4 56.5 8t52.5 18q19 7 42.5 19.5t46.5 28.5t43.5 35t34 40t17.5 42.5t-6 42.5 q-6 -10 -11 -20t-11 -18t-15 -13t-23 -5q-24 0 -45 15.5t-25 43.5q7 67 34.5 101t58 35.5t54.5 -29t24 -91.5q1 -33 -6 -61t-19.5 -54t-30 -51t-38.5 -52q-18 -20 -42 -35t-49 -19zM50 125q1 0 15 5.5t36 15t50 21.5t56 24.5t53.5 25t43.5 22.5q0 2 -6.5 6.5t-15 11t-15 15 t-6.5 18.5q0 14 12.5 33t30.5 36t36.5 29t30.5 12q20 -2 35 -21t32 -41t38.5 -40t54.5 -18q6 0 15 1.5t18 7.5t14.5 17t3.5 30q-6 58 -9.5 98t-6 66t-3 40.5t-0.5 21.5v13q0 29 7 58.5t12 59.5q-36 -15 -61.5 -5t-40.5 34.5t-21 57.5t-3 65q-7 -18 -20 -29t-29.5 -16 t-34.5 -4.5t-34 4.5q-8 0 -17.5 2.5t-18 7.5t-14.5 12t-6 17q12 27 32 47t44 36t51 29.5l53 26.5q0 5 2 14t3 13q3 4 7 11l8 14t6.5 12.5t2.5 7.5h5q2 -19 2.5 -41.5t0.5 -45.5q0 -22 -1 -44t-2 -40q0 -17 1.5 -37.5t8.5 -38t20 -29.5t36 -12q27 0 46.5 20t23.5 46 q2 28 1 55.5t-2.5 55.5t-1 55.5t5.5 55.5q2 7 4.5 17t4.5 20t4.5 17t4.5 7q0 1 1 0q9 -57 14 -113.5t14 -113.5q1 -21 6.5 -41t16 -35.5t26.5 -25t39 -9.5h19q12 0 14 8q0 19 -5.5 47t-12 58t-12 58.5t-5.5 47.5q1 12 3 28.5t4.5 33t5.5 32t6 25.5q0 8 4 9.5t7 -8.5l36 -259 q12 -71 -29 -136q-5 -8 -18 -8t-14 -9q-10 -28 -16.5 -53t-6.5 -55q0 -67 40.5 -96.5t103.5 -29.5q54 0 110.5 21.5t101.5 55.5q-45 18 -88 27t-85 27q0 8 0.5 22t13.5 18q22 4 43 7.5t37.5 6.5t28 7t14.5 10q0 22 0.5 31t0.5 16v17q0 9 -1 23t-2.5 38t-4.5 59.5t-7 88.5 q0 4 -1.5 14t-1.5 15q0 35 7 69t15 69q2 3 2.5 5.5t4.5 3.5h3l40 -353q5 -39 31.5 -56.5t61.5 -17.5q41 0 67 14.5t53 43.5q0 1 2 2t2 -2q-3 -19 6 -31.5t23.5 -20.5t31 -12.5t29.5 -7.5q31 34 66.5 64.5t73 52t74.5 31.5t69.5 3t60 -34.5t45.5 -80.5q0 -1 -0.5 -3.5 t-3.5 -10t-10 -22t-20 -39.5q-2 -6 -8.5 -11.5t-14.5 -9.5t-16 -6.5t-14 -2.5q-85 -23 -168.5 -24.5t-171.5 14.5h-5q-8 -11 -18 -23t-21 -22q-3 -3 -5.5 -1.5t1.5 5.5q3 14 11.5 25.5t16.5 22.5q-23 13 -41 28t-26 40q-14 -32 -45.5 -50t-65.5 -19t-61.5 17t-33.5 57 q-6 -12 -11 -20t-9.5 -13.5t-9 -10.5t-10.5 -12q4 -2 11 -4.5t14.5 -4.5t14 -3.5t9.5 -1.5q15 -6 19.5 -15t4.5 -25q0 -41 -28.5 -74t-70 -56t-87 -35.5t-79.5 -13.5q-38 -1 -67 10.5t-49 33t-30.5 51t-10.5 65.5q0 42 12.5 79.5t30.5 75.5q-12 0 -25.5 1t-26 5.5 t-22.5 12.5t-14 22q-2 3 -4.5 10t-4.5 15t-3.5 15t-1.5 10q-8 -24 -18 -47t-38 -47q11 -88 18.5 -172t22.5 -169q7 -37 29 -56t49.5 -21.5t55.5 10.5t47 40q3 6 7 6q3 0 3 -8t-1 -13t-1 -11q0 -14 16.5 -19t30.5 -5h16q18 0 30.5 2.5t22 8t18 15t20.5 24.5q8 6 8 -2 q0 -14 -5 -19.5t-3.5 -8.5t16 -7t54.5 -15q0 11 -3 21.5t-3 18.5q5 9 11 23t10 17q0 2 2.5 8.5t6 11.5t6.5 6t4 -8l11 -44t5 -42q0 -23 -9 -43.5t-17 -43.5q-4 -8 -10.5 -8.5t-16.5 -0.5q-26 3 -56 8.5t-54 21.5q-19 -14 -39.5 -20.5t-41 -5.5t-38.5 10.5t-32 28.5 q-14 -18 -35.5 -27.5t-44.5 -10.5t-44.5 7.5t-35.5 25.5q-8 14 -11.5 28.5t-7.5 32.5q0 4 -0.5 7t-4.5 -2q-8 -21 -15 -38t-17 -29t-24.5 -18.5t-36.5 -6.5q-27 0 -44.5 11t-35.5 29q-3 0 -6.5 -6.5t-9 -14t-12 -13.5t-15.5 -6q-16 0 -30.5 6.5t-28.5 14.5 q-18 -29 -41.5 -51t-56.5 -30q-43 -10 -86 -16.5t-94 -6.5zM338 -92q-28 42 -55 90.5t-51 96.5q-4 7 -2.5 10.5t5.5 4.5t9 -1t7 -6q14 -23 29.5 -42.5t29.5 -42.5q5 -8 13 -20t18 -23t21.5 -19t23.5 -8q12 1 22.5 8.5t22.5 25t28 46t39 72.5q11 23 29 41t41 18q16 0 27 -6.5 t19 -17t15 -23t16 -24.5q24 -32 55.5 -51.5t67 -30.5t73.5 -14.5t74 -3.5q48 0 102.5 9.5t109.5 27.5t107 44.5t94 60.5q6 6 7 3.5t1 -8.5q-4 -13 -9 -21t-5 -19q0 -9 8.5 -15.5t20 -10.5t22.5 -5.5t16 -1.5q18 0 34.5 2.5t27.5 10.5t16.5 23.5t2.5 41.5l-27 294q0 7 1 14.5 t4.5 22t10.5 39t19 65.5l40 -366q2 -21 9 -43t19 -40t30.5 -30t42.5 -12q-14 23 -23.5 46t-9.5 47q-2 47 16 78.5t48 48t68.5 18.5t76.5 -9t72 -34.5t56 -58.5q-36 6 -76.5 13t-79.5 8.5t-75 -6t-63 -29.5q0 -11 5.5 -25t10.5 -22q26 -42 58 -58.5t69 -14t78.5 19.5t87.5 42 q1 2 2 1t1 -3v-1q-26 -54 -64.5 -82t-95.5 -46q-36 -10 -79 -16.5t-82.5 -1t-71 27t-44.5 67.5q-8 -23 -16 -43.5t-20.5 -37t-31 -26t-47.5 -9.5q-32 0 -59.5 18t-43.5 48q-40 -32 -95.5 -58t-118.5 -43t-129.5 -23t-128.5 1t-115.5 29t-90.5 62q-14 17 -21.5 32.5 t-12.5 27.5t-9.5 19t-12.5 7q-10 0 -19.5 -8.5t-15.5 -16.5q-21 -43 -34 -69t-21 -40.5t-12 -20.5t-7 -9q-10 -14 -21.5 -24.5t-25 -14.5t-28 0.5t-30.5 22.5zM1163 -160q-11 10 -1 20q3 7 14.5 25t31.5 42l78 -63q2 -2 10 8t17 22.5t17.5 23t11.5 10.5h5q20 -19 38 -37 t37 -36q-2 -5 -9 -13.5t-15 -18t-16 -18.5t-12 -14q-3 -8 -15 0q-18 14 -34.5 30t-34.5 31q-13 -15 -25.5 -33t-28.5 -31q-6 -6 -14 3q-16 11 -28.5 23.5t-26.5 25.5z" horiz-adv-x="1991" unicode="ۖ"/><glyph d="M-189 1391q1 4 8.5 7t17 5t18.5 3.5t14 1.5q35 0 68 -15t63 -31q43 -27 77.5 -42.5t62 -24t48.5 -10.5t38 -2h3q2 0 3.5 -0.5t-1.5 -4.5q-8 -16 -18.5 -29.5t-21.5 -30.5q-2 -3 -17.5 -0.5t-40.5 3t-58.5 -3t-70.5 -18.5q-52 -24 -88 -37t-62 -18.5t-46 -6.5t-39 -1v92 q33 0 58.5 2t49.5 7.5t49 14.5t57 23q1 3 0 4q-19 11 -40.5 24t-44 22.5t-45 13.5t-43.5 -4q-4 -1 -6.5 -3t-5.5 -1q-8 2 -3 13q1 2 3 11.5t13 35.5z" unicode="ۡ"/><glyph d="M79 492q7 9 24 30.5t36.5 45t37.5 44.5t26 29q10 13 18 12.5t15 -7.5q48 -40 95 -76.5t78 -68.5q7 -7 5.5 -12.5t-7.5 -13.5q-29 -42 -60 -79.5t-61 -77.5q-14 -23 -35 -10q-17 10 -42.5 29.5t-51 41.5t-47.5 43.5t-32 35.5q-8 10 -6.5 16.5t7.5 17.5z" horiz-adv-x="486" unicode="۰"/><glyph d="M70 816q0 4 3 24.5t8.5 48t12.5 58.5t15.5 56t17.5 40.5t18 12.5q13 -2 33 -43.5t42 -110.5t44 -158.5t40 -187.5q12 -75 16.5 -163.5t1.5 -177t-14 -169.5t-30 -141q-3 -13 -8 -21t-12 -5q-8 10 -9.5 26t-1.5 22q-3 57 -3.5 111t-5.5 114q-3 30 -8 70.5t-12.5 87.5 t-17.5 98.5t-23 103.5q-24 81 -52.5 153.5t-54.5 150.5z" horiz-adv-x="395" unicode="۱"/><glyph d="M292 -59q-4 -17 -10.5 -35t-13 -26t-11 -1.5t-4.5 39.5q-2 139 -17 270t-44 268q-1 6 -5.5 22t-9.5 34.5t-9.5 34.5t-6.5 22q-10 35 -23.5 71.5t-26 69t-23 58t-15.5 39.5q-3 12 -3 19q0 12 1 13q13 48 23.5 93.5t22.5 94.5q4 15 11.5 25t16.5 10q6 -2 9.5 -6t7.5 -10.5 t10.5 -17.5t19.5 -27q18 -26 38.5 -42t45.5 -25t55.5 -13.5t68.5 -7.5q53 4 89 15.5t62 30.5t45 45.5t39 61.5q10 6 15 1.5t5 -15.5q0 -8 -3 -23t-8 -38q-5 -17 -10 -33t-9 -28t-6.5 -18.5t-1.5 -3.5q-48 -120 -126.5 -181.5t-202.5 -67.5q9 -58 16.5 -105.5t12 -93.5 t6.5 -95.5t0 -111.5q-1 -44 -1.5 -82t-3 -74t-8.5 -74t-18 -82z" horiz-adv-x="725" unicode="۲"/><glyph d="M271 -98q-4 -11 -8 -17.5t-7 -4.5q-5 1 -3 9q3 117 -3.5 237t-26.5 238.5t-56.5 232.5t-93.5 218q-3 19 0 44t9.5 51t15 51.5t15.5 45.5q5 19 11 35.5t14.5 22.5t19.5 -0.5t26 -32.5q19 -32 36.5 -67t39.5 -64t51.5 -47.5t73.5 -18.5q26 0 53.5 9t53 23.5t46.5 33 t35 38.5q19 25 29 45t17 34.5t13 22.5t16 8q6 0 9 -9t5.5 -21t5.5 -24t9 -19q25 -33 53 -47t67 -14q54 0 88 15t61 50q2 2 12 17.5t18 29.5q7 13 14 24.5t12 17.5t8.5 4t3.5 -17q-3 -37 -13.5 -71t-21.5 -69q-24 -52 -56.5 -105.5t-85.5 -99.5q-56 -41 -131 -46 q-52 -2 -94.5 23.5t-63.5 67.5q-1 1 -5 1q-3 0 -4 -1q-21 -35 -42.5 -62.5t-46.5 -48.5t-55 -36t-68 -26q-5 -1 -5.5 -7t0.5 -7q5 -61 13.5 -124t6.5 -126q-3 -77 -8 -127.5t-12 -90t-16.5 -76t-21.5 -84.5q-1 -1 -3 -6.5t-4.5 -12t-4 -12.5t-1.5 -8z" horiz-adv-x="1084" unicode="۳"/><glyph d="M127 -108q2 157 -15.5 306t-41.5 300q1 -3 0.5 21t0.5 64t6 92.5t15.5 107.5t29.5 108.5t49.5 95t73 67t101.5 25.5q51 0 94.5 -23t80.5 -58t66 -78t50 -83l247 290q4 5 14 11.5t23 1.5q2 -3 0.5 -11t-13 -33.5t-35 -75t-65.5 -136.5q-37 -43 -74 -88t-71.5 -92.5 t-64 -98t-50.5 -103.5q-5 -11 -13 -17.5t-14 4.5q0 44 -1.5 72.5t-3.5 45.5t-4.5 25.5t-4.5 13.5q-21 51 -60.5 93t-88 63.5t-101.5 17.5t-100 -45q-2 -7 -1.5 -22t2.5 -26q28 -135 41 -263t13 -264q-3 -39 -7 -74t-9.5 -69t-13 -69t-17.5 -73q-1 -4 -3 -11.5t-5 -15 t-7.5 -13.5t-10.5 -6q-8 0 -10 10t-2 13z" horiz-adv-x="993" unicode="۴"/><glyph d="M208 304q0 -32 7 -63t22.5 -55t41 -39t63.5 -15q31 0 56 10t44.5 26.5t34.5 37t27 41.5q11 18 17.5 33.5t12.5 27.5t12.5 20t17.5 11q6 0 6 -7q2 -25 4.5 -53.5t15.5 -53t42 -41.5t83 -19q9 0 29 3.5t40.5 9.5t36 15.5t15.5 21.5q0 28 -16.5 66.5t-39 77t-45.5 72 t-36 51.5q-12 15 -36.5 46t-56 68.5t-67 78t-69.5 75.5q-3 2 -4.5 4t-6 -1t-13.5 -14t-26 -36t-44.5 -66.5t-68.5 -105.5q-15 -21 -32.5 -49.5t-32 -59t-24.5 -61.5t-10 -57zM70 91q1 52 16.5 108.5t38.5 110.5t49 104t48 90q8 14 27 44t46.5 70.5t61.5 88.5t72 97 q8 54 17.5 110.5t23.5 108.5q6 18 13.5 22.5t18.5 -2.5t27.5 -24.5t40.5 -42.5q23 -25 53.5 -62.5t65.5 -83.5t73.5 -99t77.5 -109q20 -32 38.5 -66.5t33 -71t22.5 -75t7 -77.5q-8 -35 -13 -57t-10 -43.5t-12.5 -49.5t-20.5 -75q-12 -42 -35.5 -79t-55.5 -65.5t-70.5 -45 t-80.5 -16.5q-40 0 -78.5 19.5t-64.5 51.5q-2 4 -6.5 11.5t-10 15.5t-10.5 14.5t-8 8.5q-17 -25 -38 -50.5t-45.5 -46t-53.5 -33.5t-62 -13q-41 0 -77 17.5t-62.5 47t-41.5 68t-15 79.5z" horiz-adv-x="1012" unicode="۵"/><glyph d="M490 46q0 49 1.5 108t3.5 122t3.5 126.5t1.5 121.5q0 40 -1 74t-3 63q-1 3 -4 0q-40 -24 -86.5 -35t-93 -9.5t-90 16.5t-77 42.5t-54 68.5t-21.5 95q0 58 15.5 111.5t33.5 107.5q3 5 6 14t11 9q7 -1 10 -8.5t6.5 -22t10 -36t21.5 -49.5q38 -48 93.5 -72.5t113.5 -24.5 q53 0 90 17t64 46t48.5 67.5t43.5 81.5q13 19 18.5 18.5t5.5 -31.5q-2 -20 -4 -34.5t-4.5 -31t-5 -38t-5.5 -55.5q-8 -167 -14.5 -284.5t-11.5 -197t-9.5 -127t-7.5 -73.5t-5.5 -36t-4.5 -15q-6 -21 -26 -81t-50 -154l-4 -12t-7.5 -19.5t-11.5 -19t-17 -10.5q-2 18 4.5 57 t12.5 110z" horiz-adv-x="731" unicode="۶"/><glyph d="M73 215q3 15 17 44t31.5 61t34.5 61t27 44q3 5 8 12t9.5 13.5t8.5 12t5 6.5l186 186q85 79 154 144t120 116q13 8 18.5 4.5t5.5 -4.5q2 -6 -5 -24.5t-19 -36.5q-12 -21 -21.5 -36.5t-20.5 -34.5q-16 -26 -30.5 -48t-19.5 -24l-320 -307q-4 -1 -2.5 -4.5t2.5 -6.5 q10 -8 35 -24.5t52.5 -34t50.5 -31t29 -15.5q27 -18 70.5 -41.5t91.5 -47t93 -44.5t74 -33q4 -3 12 -7t16 -9.5t14.5 -12.5t6.5 -15q0 -1 -4 -7t-17.5 -26t-39 -57.5t-68.5 -101.5q-7 -10 -43 -1.5t-103 40t-166 87.5t-231 141q-8 4 -19.5 12t-22 17t-17 18t-3.5 15z" horiz-adv-x="877" unicode="۷"/><glyph d="M790 -120q-1 -4 -4.5 -3.5t-3.5 3.5q-7 21 -13.5 41.5t-13.5 41.5q-70 179 -143.5 348t-148.5 341q-67 -146 -131 -285t-131 -284q-4 -11 -16 -27t-28.5 -34.5t-34.5 -37t-34 -34.5q-4 -2 -9 -5.5t-6 0.5q-3 3 1 18.5t10.5 34.5t14 36.5t11.5 23.5q18 39 40.5 89 t47 102.5t48.5 103.5t45 91q35 69 71 144t67 140.5t54 113t32 61.5q2 5 6.5 13.5t11 17t13.5 14.5t15 6t10.5 -4.5t5.5 -11.5q29 -85 66 -175.5t77.5 -183.5t83.5 -187t84 -187q9 -22 13.5 -49.5t3.5 -51.5q-29 -57 -57.5 -112t-57.5 -112z" horiz-adv-x="976" unicode="۸"/><glyph d="M169 814q28 -48 81 -70.5t116 -24.5q28 -1 59.5 0.5t59.5 13.5q-4 40 -17 74.5t-33 60t-48 40t-62 14.5q-18 0 -43.5 -7.5t-49 -21t-41.5 -33t-22 -44.5v-2zM573 172q-11 -34 -24.5 -75.5t-28 -83.5t-29 -79.5t-26.5 -63.5q-1 -1 -4 -1q-2 2 -3 9.5t-0.5 25.5t2.5 49.5 t6 82t10.5 123t15.5 172.5v158q0 2 -3.5 1.5t-5.5 -1.5q-42 -11 -80.5 -20.5t-81.5 -9.5q-46 0 -91 13.5t-80.5 39.5t-57.5 65t-22 89q0 31 7.5 66.5t19 71.5t25.5 71t27 66q17 42 43 84t60 75.5t75.5 54.5t89.5 21t87 -24t66.5 -62t42.5 -84.5t15 -90.5v-214 q-12 -164 -26.5 -292t-28.5 -237z" horiz-adv-x="698" unicode="۹"/><glyph d="M-62 1216h121v-1666h-121v1666z" unicode="‌"/><glyph d="M-360 1459l86 86l275 -276l278 278l86 -86l-278 -278l250 -249l-86 -86l-192 192v-1490h-121v1484l-184 -184l-86 86l248 247zM0 1096h3l-2 1z" unicode="‍"/><glyph d="M653 1148l-386 -386l-85 85l236 236h-359v-1543h-121v1663l487 1l-246 247l85 85z" unicode="‎"/><glyph d="M-264 1536l85 -85l-246 -247l487 -1v-1663h-121v1543h-359l236 -236l-85 -85l-386 386z" unicode="‏"/><glyph d="M100 1397q38 8 76.5 6.5t76.5 -1.5l-26 -358l-102 16z" horiz-adv-x="353" unicode="’"/><glyph d="M289 1403q38 7 75.5 6.5t77.5 -0.5l-26 -359l-103 16zM100 1395q13 2 32.5 3.5t41 2.5t42.5 1.5t37 0.5l-26 -340q-45 -11 -69 -15t-29 -4q-1 0 -1 1q-3 26 -5.5 54.5t-5.5 68t-7 94t-10 133.5z" horiz-adv-x="542" unicode="“"/><glyph d="M289 1403q38 7 75.5 6.5t77.5 -0.5l-26 -359l-103 16zM100 1395q13 2 32.5 3.5t41 2.5t42.5 1.5t37 0.5l-26 -340q-45 -11 -69 -15t-29 -4q-1 0 -1 1q-3 26 -5.5 54.5t-5.5 68t-7 94t-10 133.5z" horiz-adv-x="542" unicode="”"/><glyph d="M80 485q0 93 35 174.5t96 142.5t142.5 96.5t174.5 35.5t174.5 -35.5t142.5 -96.5t96.5 -142.5t35.5 -174.5t-35.5 -174.5t-96.5 -142.5t-142.5 -96t-174.5 -35t-174.5 35t-142.5 96t-96 142.5t-35 174.5z" horiz-adv-x="1057" unicode="•"/><glyph d="M776 639v-106h-493v-102h493v-105h-493v-164q0 -18 15 -51t43.5 -65.5t69.5 -56t94 -23.5h7q37 0 73 13t65 35.5t50 54t29 69.5q3 23 5 52t2 59h179v-106q0 -22 -4 -46t-10 -43q-21 -62 -60.5 -112t-91.5 -85t-113.5 -54.5t-125.5 -19.5q-83 0 -155.5 29.5t-127.5 81.5 t-88.5 122.5t-38.5 151.5v158h-81v105h81v102h-81v106h81v121q0 23 1 45.5t7 45.5q16 69 53 127t89.5 100.5t117 66t136.5 23.5q69 0 130 -21t111.5 -58.5t88.5 -90.5t62 -116q11 -32 13.5 -66t2.5 -68v-24h-186q-1 1 -1 14q0 22 -1.5 38t-4.5 42v1q-9 37 -30 67t-50.5 51.5 t-65 33t-72.5 11.5q-43 0 -81 -16.5t-67 -44.5t-47.5 -65t-22.5 -78v-139h493z" horiz-adv-x="1015" unicode="€"/><glyph d="M200 307h282v-305h-282v305z" horiz-adv-x="682" unicode="∙"/><glyph d="M786 44q54 8 104 28t95 54l138 -137q-75 -61 -160.5 -95.5t-176.5 -43.5v194zM658 -150q-89 9 -173.5 43t-156.5 94l139 139q44 -32 92 -52.5t99 -28.5v-195zM100 544q10 89 44 173.5t94 157.5l140 -140q-33 -44 -53 -92t-29 -99h-196zM297 409q8 -52 28 -101t53 -93 l-139 -139q-61 74 -95.5 158.5t-43.5 174.5h197zM1349 409q-9 -88 -42.5 -172t-92.5 -157l-139 138q64 88 79 191h195zM1153 544q-18 102 -82 188l140 140q60 -72 94 -156t43 -172h-195zM658 903q-101 -15 -188 -79l-141 140q73 60 157 93.5t172 42.5v-197zM789 1100 q90 -10 174.5 -44.5t158.5 -94.5l-138 -140q-45 33 -94 53.5t-101 28.5v197z" horiz-adv-x="1449" unicode="◌"/><glyph d="M0 865h865v-865h-865v865z" horiz-adv-x="865" unicode="◼"/><glyph d="M170 238q0 -14 -0.5 -29.5t-4 -40t-12.5 -53.5t-22 -58q-16 -35 -63 -49q-30 -8 -78 -8v166q37 0 66.5 12.5t35.5 38.5q-12 32 -44 77q-25 35 -31 75l18 50q15 44 27 64q26 11 57 -47q38 -70 51 -198zM91 -341q7 -1 12 -5.5t8 -10.5t4.5 -12t1.5 -10q-7 -15 -16.5 -30.5 t-26.5 -25.5q-7 -6 -16 -8t-18.5 -0.5t-18 5t-14.5 9.5q-18 12 -27.5 29t-11 35.5t2.5 37.5t12 34q21 44 50.5 82t61.5 75q8 10 14.5 12t10.5 1q3 -2 3 -7t-7 -11q-18 -24 -37 -51t-30 -55t-10 -55t24 -51q5 0 8.5 2t6.5 4l6 4t7 2z" horiz-adv-x="180"/><glyph d="M1039 0q-40 0 -53 3t-24 7t-21 10q-90 46 -148 236q-48 161 -48 317q0 33 -6 75.5t-20 103.5q-7 39 -27 105l-3 -311q0 -149 -39 -266q-32 -95 -89 -165q-38 -47 -99 -92q-84 -57 -194.5 -105t-193.5 -63l-54 -7q-6 0 -8.5 1.5t-3.5 2.5q0 5 40 32l95 60 q96 63 192.5 144.5t118.5 115.5q-12 68 -39.5 136t-61.5 124q-24 39 -60 83l-110 112q-6 -12 -15 -18q-4 -3 -16 -5q-8 0 -17 4l-15 10q-9 4 -19 8.5t-24 14.5l-36 24l-17 33l-19 40l-5 37l-3 45q0 30 1.5 40t8 29t25.5 19q8 0 23 -9q146 -88 226 -177q84 -93 147 -244 q28 -68 36.5 -104t25.5 -162q67 76 106 204q28 96 28 150l9 234l-1 31v35q0 87 8 132q7 49 24 98l12 8l11 3q22 0 39 -56t41 -208l54 -367q9 -70 31 -134q29 -89 70 -142q51 -66 117 -66v-166z" horiz-adv-x="1038"/><glyph d="M521 1806q-3 -28 -23 -59q-24 -39 -66 -68q-58 -38 -115 -67q-75 -36 -165 -58.5t-202 -22.5q-96 0 -152 9q-86 14 -120 55q-29 -21 -50 -50q-24 -39 -39 -54l-14 -2q-8 0 -16 30q-6 21 64.5 127t97.5 113l46 -21l64 -28q28 -12 89 -22t106 -10h18l10 1q119 11 210 40 q140 45 239 136q10 0 14 -7.5t6 -21.5q0 -14 -2 -20zM356 255v-35q-3 -21 -5 -36t-13 -40t-22 -27q-14 0 -29 68q-11 59 -28 207l-29 281q-8 83 -12 113t-14 101l-21 145q-9 69 -9 94q0 47 7.5 84.5t22.5 64.5q11 19 17 20q14 0 38 -180l42 -340l26 -232l18 -177 q0 -29 4.5 -61t6.5 -50z" horiz-adv-x="352"/><glyph d="M91 -95q4 7 16 22.5t26 32.5t27 32t19 21q7 10 13 10t12 -6q33 -29 67.5 -55t55.5 -50q10 -8 0 -18q-21 -30 -43.5 -57.5t-44.5 -56.5q-9 -17 -24 -6q-12 6 -30.5 20t-37.5 30t-34.5 31.5t-22.5 25.5q-6 8 -5.5 12.5t6.5 11.5zM208 429q-1 66 -9 124.5t-24 113t-41 107.5 t-60 108q-2 4 -3 7t1 9q1 6 11 35.5t38 99.5q8 24 20 22t24.5 -14.5t23 -29t15.5 -21.5q48 -88 69.5 -184.5t21.5 -199.5t-19.5 -201t-55.5 -189q-5 -13 -10.5 -21.5t-8.5 -8.5q-8 0 -6 39q4 55 9 104t4 100z" horiz-adv-x="403"/><glyph d="M305 113q4 6 14.5 19t22.5 27.5t23 27.5t16 18q6 8 10 8q5 0 10 -5q29 -25 58 -47t49 -42q6 -8 -2 -16q-17 -26 -36 -49t-38 -48q-8 -14 -22 -6q-10 6 -25.5 17.5t-31.5 25t-29.5 27t-19.5 22.5q-5 7 -4.5 10.5t5.5 10.5zM304 597q4 6 14.5 19t22.5 27.5t23 27.5t16 18 q6 8 10 8q5 0 10 -5q29 -25 58 -47t49 -42q6 -8 -2 -16q-17 -26 -36 -49t-38 -48q-8 -14 -22 -6q-10 6 -25.5 17.5t-31.5 25t-29.5 27t-19.5 22.5q-5 7 -4.5 10.5t5.5 10.5zM70 385h656v-78h-656v78z" horiz-adv-x="796"/><glyph d="M88 20h-6l-61 61l267 264l-268 275l64 64l272 -271l284 278l65 -67l-282 -279l279 -279l-66 -66l-282 279z" horiz-adv-x="725"/><glyph horiz-adv-x="255"/><glyph d="M10 -120q5 9 17.5 25t20.5 26q3 5 8.5 8.5t12.5 -1.5q4 -3 12.5 -9.5t17.5 -14t16.5 -15.5t10.5 -14q0 -2 -1 -3.5t-6 -7.5t-15.5 -19t-29.5 -38q-16 16 -32.5 31.5t-31.5 31.5zM-257 113q0 4 0.5 9.5t2.5 12.5q1 2 3 9t5 15.5t5 16t3 10.5q2 5 6.5 3.5t8.5 -6.5 q11 -18 24 -36.5t28 -34t33 -26.5t41 -15h21q18 0 50 7t91 33q-20 13 -41 23.5t-43 15t-44 1.5t-43 -16l-2 -2q-1 0 -1 2q0 13 3.5 25.5t8.5 25.5q11 28 24 41t45 13q7 0 17.5 -1t25 -5t35 -12t48.5 -21q18 -9 35.5 -20t37.5 -21.5t43 -19t52 -13.5q10 -4 8.5 -14.5 t-8.5 -22t-15 -22.5t-10 -16q-23 -2 -43.5 1t-43.5 3q-36 0 -71 -13.5t-70.5 -28t-71.5 -24.5t-73 -3q4 -30 6.5 -62t2.5 -63q0 -32 -5 -62t-17 -56q-2 -5 -6 -8t-4 5q2 75 -9.5 149t-46.5 143q-13 20 -24.5 39t-21.5 41z"/><glyph d="M1701 11q0 -1 3.5 -4.5t8.5 -8t10 -9.5t7 -8q12 -9 28.5 -18t32.5 -9q0 5 -2 10t-2 7q-17 20 -36.5 31t-49.5 11v-2zM1088 733q5 16 9 33.5t4 36.5q0 10 -0.5 18.5t-5.5 19.5q-2 8 -7 14t-5 14q0 5 -1 13.5t8 8.5q4 0 4 -2q0 -1 5 -3q13 -20 15 -38t2 -39q0 -20 -5 -42 t-21 -37zM990 799h-2h-3l-109 -66l-3 -7q9 -5 28.5 -6t30.5 -1h22q8 2 17 4.5t14 6.5l7 9v1v59h-2zM1225 35q13 -5 25.5 -5.5t23.5 -0.5q26 0 49 4t43 24v17q0 15 -1 25.5t-6 24.5q0 11 -5 11l-121 -95zM113 151q8 -5 19.5 -5.5t19.5 -0.5q26 0 54 5t44 25v17v20 q0 3 -0.5 8.5t-1.5 13.5q0 1 -1.5 9t-6.5 8q-7 0 -7 -1l-116 -93q-4 -4 -4 -6zM1138 1098q0 -17 0.5 -36.5t4.5 -36.5q1 -15 17 -15q11 0 15.5 7t5.5 16t0 18.5t-1 15.5q0 13 1 20t2 11t2 6t1 4q5 0 6.5 -14t4 -30.5t9 -30t21.5 -13.5h6q2 0 2 11q0 16 -2 31.5t-2 31.5 q0 3 0.5 9.5t3.5 10.5q7 -4 7 -6q2 -20 8 -39t6 -38q0 -16 -6.5 -30.5t-24.5 -14.5q-11 0 -19 6.5t-14 11.5q-14 -24 -37 -24q-9 0 -19 8t-10 19v66q0 3 1 4t3.5 6zM1049 499q-1 -13 -7 -26t-21 -18l-29 -16v-1l-166 -75v2q1 4 3.5 17t4.5 16v4h3l208 97h4zM425 321 q-5 0 -13 -4l-12 -6v5q0 5 0.5 10t4.5 13q6 10 13.5 18t17.5 8h110q0 -10 -1 -17.5t-5 -15.5q-7 -14 -20 -25.5t-28 -20.5t-31 -15.5t-30 -10.5q-11 -7 -27.5 -11t-30.5 -9h-4v4q4 5 9 8t6 4t10 6t20 11t21.5 12t15.5 9q5 5 17.5 10t17.5 12v5h-61zM1491 570 q-15 202 -21.5 301t-8.5 104v11v7q0 1 0.5 3.5l1.5 7.5q0 17 5.5 31.5t5.5 22.5q5 7 9 17t9 13l15 -216v-5q0 -3 1 -20.5t2.5 -37.5t3.5 -37.5t4 -21.5v-50v-49q-5 -22 -10 -43t-16 -41zM451 -152q0 8 1 9q0 2 1 3t1 3q1 1 4 5.5t6.5 9.5l7 10t5.5 7q4 5 9.5 11.5t13.5 16.5 h4l76 -60q4 0 10 6.5t11 14.5q1 2 5.5 8t10.5 13t11.5 13.5t8.5 9.5h4h6l74 -75l-3 -5q-32 -35 -44 -50t-12 -13l-6 2l-67 61h-6h-3h-2q-14 -20 -26 -35.5t-28 -27.5q-8 1 -20 9.5t-24 19t-20.5 20.5t-8.5 14zM1233 381q0 5 0.5 7.5t4.5 9.5q4 3 10.5 12t10.5 13q0 4 8 13.5 t12 14.5q3 6 6 6h2q3 -5 12.5 -13t20.5 -17t21 -16.5t13 -9.5q0 -5 2 -5t7 -5q4 5 8.5 10.5t4.5 7.5q3 1 9 7.5t12 15t11 16t5 9.5l6 4q5 0 5.5 -1t0.5 -3q2 -2 10.5 -10t11.5 -9q3 -4 10 -11.5t15.5 -15t16 -14.5t10.5 -9v-5q0 2 -0.5 0t-1.5 -7q-5 -9 -14 -17.5t-20 -19.5 q0 -4 -7.5 -11.5l-11.5 -11.5h-1h-4l-73 65h-7q-12 -20 -24.5 -37t-28.5 -31q-3 0 -3.5 -0.5t-0.5 3.5q-5 2 -17 10.5t-16 12.5q0 2 -8.5 9.5t-15.5 11.5q-2 4 -7 8.5t-5 12.5zM1990 -141q0 5 8 5q66 13 123 34.5t109 66.5q12 12 29.5 31t23.5 37v13q0 30 -12.5 52.5 t-26.5 45.5v10q0 1 2.5 8t6 17l7 20t5.5 17q3 2 5 5t4 3h2q26 -20 37 -55.5t11 -67.5q0 -17 -1.5 -31.5t-6.5 -34.5q-7 -23 -20.5 -51.5t-32.5 -55.5t-42.5 -48t-49.5 -28q-5 0 -14.5 -1t-20.5 -2t-21 -2t-14 -1h-17h-18q-2 0 -8 0.5t-12 0.5h-7q-8 0 -9 1h-8q-5 0 -9 4 q-4 0 -13.5 1t-9.5 6zM816 691q2 5 3 10l2 10q5 11 15.5 23t20.5 20q32 31 68.5 50t74.5 40l5 23l26 52q2 0 2 -1v-2q3 -8 4.5 -24.5t1.5 -30.5v-15v-9q0 -21 -0.5 -43.5t-0.5 -43.5q0 -19 1 -42t7 -43.5t18.5 -34t36.5 -13.5q42 0 60.5 29t18.5 65q0 38 -2.5 72t-2.5 72 q0 32 3.5 61.5t13.5 59.5q2 2 3 2q2 0 2 1v3q0 3 1 4l2 -6l10 -94v-3q0 -3 1.5 -18.5t4 -35l5 -39t4.5 -29.5q4 -24 9.5 -48t16 -42.5t28.5 -30t47 -11.5h17q5 0 7 2.5t4 5.5v8q0 28 -6 55t-13.5 54t-13.5 54t-6 54v3q3 6 5 18.5t4 26.5t3.5 26.5t3.5 18.5q0 2 3 12.5 t3 15.5q0 4 0.5 7t5.5 7q0 -4 2.5 -6.5t2.5 -4.5l38 -247q3 -11 3.5 -20t0.5 -16v-33v-21q-3 -20 -12 -39.5t-19 -35.5q-4 -8 -11.5 -12t-16 -6t-16.5 -2.5t-13 -0.5q-26 0 -52 11t-35 34q-5 16 -6.5 28t-8.5 23q-4 -20 -12.5 -40.5t-22 -37t-31.5 -26.5t-41 -10 q-34 0 -53 16.5t-28 41t-11 53.5t-2 54q-5 -5 -7 -8t-4 -8l-3 -2q-16 -20 -34.5 -26.5t-41.5 -6.5q-9 0 -24.5 1t-30.5 5t-26.5 12.5t-11.5 23.5zM1376 29q-5 -5 -6.5 -12t-6.5 -9q-23 -28 -46 -35.5t-57 -7.5q-8 0 -24 0.5t-32 4t-27.5 11.5t-11.5 22q0 20 15.5 41.5 t29.5 36.5q4 5 9.5 11t10.5 11.5t9.5 9.5t5.5 4l114 72v40l17 56q0 1 1.5 2t2.5 3h3q3 0 3 -8l33 -239q7 -48 33.5 -78.5t77.5 -30.5q13 0 28.5 1.5t30.5 6.5t27.5 14t18.5 23l25 50q18 37 52 60t75 35t84 16t79 4q-23 23 -44.5 40t-45 27.5t-50.5 15t-61 2.5q0 4 -3 6 q0 2 1 4t2 7l27 48q5 5 16 3.5t16 -1.5q31 0 65.5 -14.5t56.5 -30.5l146 -100q21 -15 40.5 -19.5t44.5 -14.5q5 0 5 -4q0 -5 -4.5 -15t-10.5 -20.5t-12.5 -18.5t-10.5 -8q-12 0 -25.5 3.5t-24.5 8.5l-160 18h-34h-40q-2 0 -7 -0.5t-11 -1t-11.5 -1t-6.5 -0.5q-2 0 -8 -1 t-13 -3q0 -5 4.5 -8.5t9.5 -8.5q22 -20 42.5 -47t20.5 -58q0 -14 -4 -27.5t-11.5 -24.5t-19.5 -18t-27 -7q-21 0 -42 6t-40.5 17t-35.5 26.5t-26 33.5h-4q-9 -24 -20.5 -44.5t-27.5 -35t-37.5 -22.5t-50.5 -8q-48 0 -84 26t-48 74q-5 17 -7.5 38.5t-2.5 42.5zM260 135 q-5 -1 -9 -12t-9 -17q-19 -21 -43.5 -26.5t-50.5 -5.5q-9 0 -25.5 1t-32.5 4.5t-28 11.5t-12 22q0 12 10.5 29t25 34.5t30 32t25.5 20.5l106 71v32l19 70l5 -4l31 -233q2 -16 6.5 -33t15.5 -36q9 -22 38 -39q1 -6 11 -6q4 -4 22 -11h4h42q4 3 10 3q32 11 54.5 30t45.5 41 q4 8 13.5 17.5t13.5 9.5h2q0 -15 -7 -26t-7 -27q0 -8 9 -14t21 -10t24.5 -5.5t19.5 -1.5q21 0 42 6t29 25l5 3q1 5 1.5 11.5t0.5 14.5v13l-35 332v4q0 32 12.5 64.5t22.5 64.5v3h3l1 -5l45 -388q1 -20 8 -41.5t20 -40t31 -30.5t41 -12v5q-15 25 -24 46.5t-9 47.5 q0 11 1.5 19t2.5 17v6q0 1 1.5 3t1.5 4v4q0 1 3 1v1v4v1h3v4v2q2 0 2 4q0 1 3 1q1 0 1 4q0 1 1 3t1 3l2 4q43 64 122 64q107 0 181 -78q4 -1 10 -8.5t6 -8.5l3 -5q0 -5 -4 -5h-4q-38 10 -73 15t-77 5h-36q-5 0 -15.5 -2t-15.5 -3q-3 0 -13.5 -2t-18.5 -3q-4 0 -12 -5.5 t-16 -10.5l-7 -2q-2 0 -2 -1q0 -2 -3 -2q-6 -2 -6 -8v-4q0 -5 2 -9l4 -8q9 -19 22 -36.5t29.5 -31t37 -22t43.5 -8.5t47 6.5t47 16t44.5 21t39.5 21.5h5v-3q-16 -25 -18 -34q-13 -23 -31 -39.5t-39 -28t-44 -19.5t-45 -14q-9 -2 -15.5 -3.5t-12.5 -1.5q-5 -5 -10 -5 q-14 -2 -27.5 -3.5t-28.5 -6.5h-14q-56 0 -97.5 21t-58.5 74h-3q-7 -15 -11.5 -30t-13.5 -29q-13 -27 -33 -42.5t-58 -15.5q-35 0 -60.5 15t-42.5 49h-3q-20 -34 -52 -58.5t-74 -24.5h-10q-1 0 -4 0.5t-8 1.5h-3h-2l-4 4q-7 0 -12.5 1t-13.5 6t-16 8t-8 8q-17 15 -30.5 35.5 t-18.5 46.5q-7 17 -8.5 38.5t-6.5 33.5z" horiz-adv-x="2374"/></font>
</defs>
</svg>
