<?xml version="1.0" standalone="no"?>
<!DOCTYPE svg PUBLIC "-//W3C//DTD SVG 1.1//EN" "http://www.w3.org/Graphics/SVG/1.1/DTD/svg11.dtd" >
<svg>
<metadata>
Created by FontForge 20120731 at Sat Sep 21 15:16:14 2019
 By www
Copyright (c) 2010-2012, Muhammet Abay (muhabay@gmail.com), with Reserved Font Name ZekrQuran.
</metadata>
<defs>
<font id="ZekrQuran" horiz-adv-x="0" >
  <font-face 
    font-family="Zekr Quran"
    font-weight="400"
    font-stretch="normal"
    units-per-em="2048"
    panose-1="2 6 6 3 5 6 5 2 2 4"
    ascent="1556"
    descent="-492"
    bbox="-246.2 -1259.07 3005 3080"
    underline-thickness="133"
    underline-position="-147"
    unicode-range="U+000D-FEFC"
  />
<missing-glyph 
 />
    <glyph glyph-name="allahisolated" unicode="&#xfedf;&#xfee0;&#xfeea;" horiz-adv-x="1701" arabic-form="isolated" 
d="M467 448q2 0 -0.5 0t-8.5 -2q-33 -12 -69.5 -25.5t-71.5 -30t-67 -36t-56 -43.5q-5 -8 -4 -8q25 -10 64 -15.5t80.5 -4.5t79 10t60.5 28zM1339 -7q-100 -3 -176.5 49t-127.5 172q-21 -59 -48.5 -106.5t-62 -82.5t-76.5 -55.5t-93 -24.5q-71 -5 -121 19.5t-83 67.5
t-50 100t-21 117q-29 -45 -56 -79t-68 -50q-29 -8 -66 -12t-75.5 -2t-74 11.5t-60.5 28.5q-7 40 9 85.5t44 87.5t62.5 75.5t66.5 51.5q46 29 98 53t107 40q0 26 -1.5 54t-1.5 57q15 38 31.5 77.5t39.5 71.5q8 11 15 5q-2 -85 -0.5 -159t4.5 -141q3 -63 5 -127t20 -124
q11 -35 29 -62t44.5 -43t62 -20t80.5 7q35 8 71.5 27t65.5 45.5t46.5 58t14.5 64.5q-17 121 -32 242t-35 242q0 7 6 27t14 43.5t17.5 45t16.5 30.5q7 12 13 15.5t9 -8.5q9 -66 18.5 -128.5t18.5 -128.5q11 -66 20 -129.5t19 -127.5q18 -114 75 -184.5t157 -89.5
q24 -5 54.5 -7.5t56.5 2t42 17t12 36.5q-6 29 -15.5 64.5t-20.5 74t-22.5 78.5t-22.5 79q-8 27 -19 67t-21.5 83.5t-18.5 86t-9 74.5q-1 8 7.5 34t19.5 54t22 50t16 22q11 0 13.5 -6.5t3.5 -11.5q12 -88 32.5 -174t43.5 -171q25 -84 45.5 -156.5t32.5 -133.5
q13 -58 5.5 -119.5t-35.5 -112.5t-76.5 -83.5t-116.5 -32.5z" />
    <glyph glyph-name="lamwithalefmaddaaboveisolatedd" unicode="&#xfedf;&#xfe82;" horiz-adv-x="1201" arabic-form="isolated" 
d="M759 95q51 4 98 9t89 16q2 10 -6 33t-19.5 48.5t-23.5 49t-18 33.5q-26 -48 -55 -95.5t-65 -93.5zM880 452q36 94 52 190t19.5 193.5t-0.5 196t-8 196.5q-5 25 -15 42.5t-23 41.5q19 30 42 64.5t43 61.5q12 15 19 0q4 -26 12.5 -53.5t20.5 -53.5t27 -49t32 -39
q-6 -9 -16 -21.5t-20 -27.5t-17 -32.5t-7 -36.5q3 -96 -3 -198t-20.5 -200t-38.5 -187t-57 -161q30 -57 52 -115.5t33 -127.5q0 -42 -11 -81.5t-31 -77.5q-35 -7 -85.5 -14.5t-105.5 -14t-108.5 -10.5t-95.5 -4q-5 2 -4.5 19t4 39t8.5 43.5t10 33.5q5 14 19 14
q34 2 49.5 8.5t23.5 14.5q13 13 34.5 41t45.5 63.5t46.5 73t37.5 69.5q-47 76 -103.5 159.5t-118 165.5t-127.5 157.5t-133 136.5q-29 -13 -62 -13q-23 6 -53.5 19.5t-59 32.5t-49 42.5t-22.5 50.5q0 7 0.5 26t2 43.5t5 51t9.5 48.5t14.5 26t31.5 -12q102 -69 200 -170
t188 -215t169 -231.5t144 -218.5zM65.7988 1644q5.59961 6 13.1992 5t11.5996 -3q26.4004 -12 50 -22.5t47.5986 -18q24 -7.5 49.5996 -11t55.1992 -2.5q79.1982 2 142.798 29q63.5986 27 122.798 81q-14.3994 -56 -45.999 -98t-72.7988 -70t-88.3984 -42.5
q-47.2002 -14.5 -91.1992 -15.5q-29.5996 -1 -53.1992 2.5t-44.3994 11t-39.999 17q-19.2002 9.5 -39.1992 20.5q-6.40039 3 -9.60059 2.5q-3.19922 -0.5 -7.19922 -4.5q-8 -7 -16 -20.5t-15.2002 -27q-7.19922 -13.5 -13.1992 -23.5t-10 -10q-7.2002 0 -9.59961 4.5
q-2.40039 4.5 -2.40039 14.5q0 16 7.2002 41t17.5996 51.5t21.5996 50.5t19.2002 38z" />
    <glyph glyph-name="lamwithalefmaddaabovefinal" unicode="&#xfee0;&#xfe82;" horiz-adv-x="1444" arabic-form="final" 
d="M1038 1389q11 -97 20 -182.5t17.5 -164.5t16.5 -153.5t17 -147.5q22 -147 39.5 -244t31.5 -151q12 -50 29 -85.5t45 -58.5t70 -34t103 -11h18q31 0 47 -24.5t16 -54t-16 -54t-47 -24.5h-18q-49 0 -97 8.5t-90 33t-76 70.5t-55 121q-14 49 -23 90.5t-16.5 84t-14.5 91
t-16 111.5q-10 -71 -31 -151t-57 -157t-88.5 -145.5t-125.5 -116.5q-103 -68 -213 -102.5t-232 -52.5q-19 -2 -30.5 1t-15.5 8t-1 11.5t14 11.5q169 73 314.5 170t273.5 232q-10 59 -35.5 119t-62.5 118t-82.5 112.5t-95.5 102.5t-102 88t-101 69q-9 -23 -19 -28t-26 -6
q-23 0 -59.5 12t-71 33t-60 48.5t-25.5 59.5q0 8 2 28.5t5 46.5t8 53.5t11 50.5q7 23 15.5 28t31.5 -7q76 -39 157.5 -97t159.5 -128.5t147.5 -151t122.5 -164.5t84.5 -169.5t32.5 -165.5q34 58 54.5 107t31.5 98t14.5 100.5t3.5 113.5q0 109 -10 223t-21 223q-2 19 4.5 41
t17 44t23 42t22.5 34q5 4 9.5 0t4.5 -8zM65.7988 1735q5.59961 6 13.1992 5t11.5996 -3q26.4004 -12 50 -22.5t47.5986 -18q24 -7.5 49.5996 -11t55.1992 -2.5q79.1982 2 142.798 29q63.5986 27 122.798 81q-14.3994 -56 -45.999 -98t-72.7988 -70t-88.3984 -42.5
q-47.2002 -14.5 -91.1992 -15.5q-29.5996 -1 -53.1992 2.5t-44.3994 11t-39.999 17q-19.2002 9.5 -39.1992 20.5q-6.40039 3 -9.60059 2.5q-3.19922 -0.5 -7.19922 -4.5q-8 -7 -16 -20.5t-15.2002 -27q-7.19922 -13.5 -13.1992 -23.5t-10 -10q-7.2002 0 -9.59961 4.5
q-2.40039 4.5 -2.40039 14.5q0 16 7.2002 41t17.5996 51.5t21.5996 50.5t19.2002 38z" />
    <glyph glyph-name="lamwithalefhamzaaboveisolatedd" unicode="&#xfedf;&#xfe84;" horiz-adv-x="1201" arabic-form="isolated" 
d="M759 95q51 4 98 9t89 16q2 10 -6 33t-19.5 48.5t-23.5 49t-18 33.5q-26 -48 -55 -95.5t-65 -93.5zM880 452q36 94 52 190t19.5 193.5t-0.5 196t-8 196.5q-5 25 -15 42.5t-23 41.5q19 30 42 64.5t43 61.5q12 15 19 0q4 -26 12.5 -53.5t20.5 -53.5t27 -49t32 -39
q-6 -9 -16 -21.5t-20 -27.5t-17 -32.5t-7 -36.5q3 -96 -3 -198t-20.5 -200t-38.5 -187t-57 -161q30 -57 52 -115.5t33 -127.5q0 -42 -11 -81.5t-31 -77.5q-35 -7 -85.5 -14.5t-105.5 -14t-108.5 -10.5t-95.5 -4q-5 2 -4.5 19t4 39t8.5 43.5t10 33.5q5 14 19 14
q34 2 49.5 8.5t23.5 14.5q13 13 34.5 41t45.5 63.5t46.5 73t37.5 69.5q-47 76 -103.5 159.5t-118 165.5t-127.5 157.5t-133 136.5q-29 -13 -62 -13q-23 6 -53.5 19.5t-59 32.5t-49 42.5t-22.5 50.5q0 7 0.5 26t2 43.5t5 51t9.5 48.5t14.5 26t31.5 -12q102 -69 200 -170
t188 -215t169 -231.5t144 -218.5zM21 1517q7 5 17.5 11t22.5 12t23.5 12t20.5 12q-24 18 -42 39.5t-31 54.5q-5 13 -2 28t11 27q16 24 36.5 49t45 45t52.5 33t58 13q12 0 22.5 -7.5t18.5 -18t14 -22.5t9 -22q6 -23 0 -38l-18 -33q-10 -22 -27 -22q-10 0 -12.5 12.5
t-6.5 26.5q-9 16 -20 22t-26 6q-49 0 -87 -35q14 -37 44.5 -67.5t70.5 -34.5q51 -6 98 3t98 20q1 -2 -3 -17t-10.5 -32.5t-13 -31.5t-9.5 -14q-42 -5 -85.5 -14t-91.5 -21q-48 -16 -100 -39t-97 -45q-9 0 -13 9q5 19 14 40.5t19 38.5z" />
    <glyph glyph-name="lamwithalefhamzaabovefinal" unicode="&#xfee0;&#xfe84;" horiz-adv-x="1444" arabic-form="final" 
d="M1038 1389q11 -97 20 -182.5t17.5 -164.5t16.5 -153.5t17 -147.5q22 -147 39.5 -244t31.5 -151q12 -50 29 -85.5t45 -58.5t70 -34t103 -11h18q31 0 47 -24.5t16 -54t-16 -54t-47 -24.5h-18q-49 0 -97 8.5t-90 33t-76 70.5t-55 121q-14 49 -23 90.5t-16.5 84t-14.5 91
t-16 111.5q-10 -71 -31 -151t-57 -157t-88.5 -145.5t-125.5 -116.5q-103 -68 -213 -102.5t-232 -52.5q-19 -2 -30.5 1t-15.5 8t-1 11.5t14 11.5q169 73 314.5 170t273.5 232q-10 59 -35.5 119t-62.5 118t-82.5 112.5t-95.5 102.5t-102 88t-101 69q-9 -23 -19 -28t-26 -6
q-23 0 -59.5 12t-71 33t-60 48.5t-25.5 59.5q0 8 2 28.5t5 46.5t8 53.5t11 50.5q7 23 15.5 28t31.5 -7q76 -39 157.5 -97t159.5 -128.5t147.5 -151t122.5 -164.5t84.5 -169.5t32.5 -165.5q34 58 54.5 107t31.5 98t14.5 100.5t3.5 113.5q0 109 -10 223t-21 223q-2 19 4.5 41
t17 44t23 42t22.5 34q5 4 9.5 0t4.5 -8zM-19 1461q7 5 17.5 11t22.5 12t23.5 12t20.5 12q-24 18 -42 39.5t-31 54.5q-5 13 -2 28t11 27q16 24 36.5 49t45 45t52.5 33t58 13q12 0 22.5 -7.5t18.5 -18t14 -22.5t9 -22q6 -23 0 -38l-18 -33q-10 -22 -27 -22q-10 0 -12.5 12.5
t-6.5 26.5q-9 16 -20 22t-26 6q-49 0 -87 -35q14 -37 44.5 -67.5t70.5 -34.5q51 -6 98 3t98 20q1 -2 -3 -17t-10.5 -32.5t-13 -31.5t-9.5 -14q-42 -5 -85.5 -14t-91.5 -21q-48 -16 -100 -39t-97 -45q-9 0 -13 9q5 19 14 40.5t19 38.5z" />
    <glyph glyph-name="lamwithalefhamzabelowisolated" unicode="&#xfedf;&#xfe88;" horiz-adv-x="1201" arabic-form="isolated" 
d="M759 95q51 4 98 9t89 16q2 10 -6 33t-19.5 48.5t-23.5 49t-18 33.5q-26 -48 -55 -95.5t-65 -93.5zM880 452q36 94 52 190t19.5 193.5t-0.5 196t-8 196.5q-5 25 -15 42.5t-23 41.5q19 30 42 64.5t43 61.5q12 15 19 0q4 -26 12.5 -53.5t20.5 -53.5t27 -49t32 -39
q-6 -9 -16 -21.5t-20 -27.5t-17 -32.5t-7 -36.5q3 -96 -3 -198t-20.5 -200t-38.5 -187t-57 -161q30 -57 52 -115.5t33 -127.5q0 -42 -11 -81.5t-31 -77.5q-35 -7 -85.5 -14.5t-105.5 -14t-108.5 -10.5t-95.5 -4q-5 2 -4.5 19t4 39t8.5 43.5t10 33.5q5 14 19 14
q34 2 49.5 8.5t23.5 14.5q13 13 34.5 41t45.5 63.5t46.5 73t37.5 69.5q-47 76 -103.5 159.5t-118 165.5t-127.5 157.5t-133 136.5q-29 -13 -62 -13q-23 6 -53.5 19.5t-59 32.5t-49 42.5t-22.5 50.5q0 7 0.5 26t2 43.5t5 51t9.5 48.5t14.5 26t31.5 -12q102 -69 200 -170
t188 -215t169 -231.5t144 -218.5zM225 -468q7 5 17.5 11t22.5 12t23.5 12t20.5 12q-24 18 -42 39.5t-31 54.5q-5 13 -2 28t11 27q16 24 36.5 49t45 45t52.5 33t58 13q12 0 22.5 -7.5t18.5 -18t14 -22.5t9 -22q6 -23 0 -38l-18 -33q-10 -22 -27 -22q-10 0 -12.5 12.5
t-6.5 26.5q-9 16 -20 22t-26 6q-49 0 -87 -35q14 -37 44.5 -67.5t70.5 -34.5q51 -6 98 3t98 20q1 -2 -3 -17t-10.5 -32.5t-13 -31.5t-9.5 -14q-42 -5 -85.5 -14t-91.5 -21q-48 -16 -100 -39t-97 -45q-9 0 -13 9q5 19 14 40.5t19 38.5z" />
    <glyph glyph-name="lamwithalefhamzabelowfinal" unicode="&#xfee0;&#xfe88;" horiz-adv-x="1444" arabic-form="final" 
d="M1038 1389q11 -97 20 -182.5t17.5 -164.5t16.5 -153.5t17 -147.5q22 -147 39.5 -244t31.5 -151q12 -50 29 -85.5t45 -58.5t70 -34t103 -11h18q31 0 47 -24.5t16 -54t-16 -54t-47 -24.5h-18q-49 0 -97 8.5t-90 33t-76 70.5t-55 121q-14 49 -23 90.5t-16.5 84t-14.5 91
t-16 111.5q-10 -71 -31 -151t-57 -157t-88.5 -145.5t-125.5 -116.5q-103 -68 -213 -102.5t-232 -52.5q-19 -2 -30.5 1t-15.5 8t-1 11.5t14 11.5q169 73 314.5 170t273.5 232q-10 59 -35.5 119t-62.5 118t-82.5 112.5t-95.5 102.5t-102 88t-101 69q-9 -23 -19 -28t-26 -6
q-23 0 -59.5 12t-71 33t-60 48.5t-25.5 59.5q0 8 2 28.5t5 46.5t8 53.5t11 50.5q7 23 15.5 28t31.5 -7q76 -39 157.5 -97t159.5 -128.5t147.5 -151t122.5 -164.5t84.5 -169.5t32.5 -165.5q34 58 54.5 107t31.5 98t14.5 100.5t3.5 113.5q0 109 -10 223t-21 223q-2 19 4.5 41
t17 44t23 42t22.5 34q5 4 9.5 0t4.5 -8zM265 -572q7 5 17.5 11t22.5 12t23.5 12t20.5 12q-24 18 -42 39.5t-31 54.5q-5 13 -2 28t11 27q16 24 36.5 49t45 45t52.5 33t58 13q12 0 22.5 -7.5t18.5 -18t14 -22.5t9 -22q6 -23 0 -38l-18 -33q-10 -22 -27 -22q-10 0 -12.5 12.5
t-6.5 26.5q-9 16 -20 22t-26 6q-49 0 -87 -35q14 -37 44.5 -67.5t70.5 -34.5q51 -6 98 3t98 20q1 -2 -3 -17t-10.5 -32.5t-13 -31.5t-9.5 -14q-42 -5 -85.5 -14t-91.5 -21q-48 -16 -100 -39t-97 -45q-9 0 -13 9q5 19 14 40.5t19 38.5z" />
    <glyph glyph-name="lamwithalefisolated" unicode="&#xfedf;&#xfe8e;" horiz-adv-x="1201" arabic-form="isolated" 
d="M759 95q51 4 98 9t89 16q2 10 -6 33t-19.5 48.5t-23.5 49t-18 33.5q-26 -48 -55 -95.5t-65 -93.5zM880 452q36 94 52 190t19.5 193.5t-0.5 196t-8 196.5q-5 25 -15 42.5t-23 41.5q19 30 42 64.5t43 61.5q12 15 19 0q4 -26 12.5 -53.5t20.5 -53.5t27 -49t32 -39
q-6 -9 -16 -21.5t-20 -27.5t-17 -32.5t-7 -36.5q3 -96 -3 -198t-20.5 -200t-38.5 -187t-57 -161q30 -57 52 -115.5t33 -127.5q0 -42 -11 -81.5t-31 -77.5q-35 -7 -85.5 -14.5t-105.5 -14t-108.5 -10.5t-95.5 -4q-5 2 -4.5 19t4 39t8.5 43.5t10 33.5q5 14 19 14
q34 2 49.5 8.5t23.5 14.5q13 13 34.5 41t45.5 63.5t46.5 73t37.5 69.5q-47 76 -103.5 159.5t-118 165.5t-127.5 157.5t-133 136.5q-29 -13 -62 -13q-23 6 -53.5 19.5t-59 32.5t-49 42.5t-22.5 50.5q0 7 0.5 26t2 43.5t5 51t9.5 48.5t14.5 26t31.5 -12q102 -69 200 -170
t188 -215t169 -231.5t144 -218.5z" />
    <glyph glyph-name="lamwithaleffinal" unicode="&#xfee0;&#xfe8e;" horiz-adv-x="1444" arabic-form="final" 
d="M1038 1389q11 -97 20 -182.5t17.5 -164.5t16.5 -153.5t17 -147.5q22 -147 39.5 -244t31.5 -151q12 -50 29 -85.5t45 -58.5t70 -34t103 -11h18q31 0 47 -24.5t16 -54t-16 -54t-47 -24.5h-18q-49 0 -97 8.5t-90 33t-76 70.5t-55 121q-14 49 -23 90.5t-16.5 84t-14.5 91
t-16 111.5q-10 -71 -31 -151t-57 -157t-88.5 -145.5t-125.5 -116.5q-103 -68 -213 -102.5t-232 -52.5q-19 -2 -30.5 1t-15.5 8t-1 11.5t14 11.5q169 73 314.5 170t273.5 232q-10 59 -35.5 119t-62.5 118t-82.5 112.5t-95.5 102.5t-102 88t-101 69q-9 -23 -19 -28t-26 -6
q-23 0 -59.5 12t-71 33t-60 48.5t-25.5 59.5q0 8 2 28.5t5 46.5t8 53.5t11 50.5q7 23 15.5 28t31.5 -7q76 -39 157.5 -97t159.5 -128.5t147.5 -151t122.5 -164.5t84.5 -169.5t32.5 -165.5q34 58 54.5 107t31.5 98t14.5 100.5t3.5 113.5q0 109 -10 223t-21 223q-2 19 4.5 41
t17 44t23 42t22.5 34q5 4 9.5 0t4.5 -8z" />
    <glyph glyph-name="uniFC6D" unicode="&#xfedf;&#xfb51;" horiz-adv-x="1201" 
d="M759 95q51 4 98 9t89 16q2 10 -6 33t-19.5 48.5t-23.5 49t-18 33.5q-26 -48 -55 -95.5t-65 -93.5zM880 452q36 94 52 190t19.5 193.5t-0.5 196t-8 196.5q-5 25 -15 42.5t-23 41.5q19 30 42 64.5t43 61.5q12 15 19 0q4 -26 12.5 -53.5t20.5 -53.5t27 -49t32 -39
q-6 -9 -16 -21.5t-20 -27.5t-17 -32.5t-7 -36.5q3 -96 -3 -198t-20.5 -200t-38.5 -187t-57 -161q30 -57 52 -115.5t33 -127.5q0 -42 -11 -81.5t-31 -77.5q-35 -7 -85.5 -14.5t-105.5 -14t-108.5 -10.5t-95.5 -4q-5 2 -4.5 19t4 39t8.5 43.5t10 33.5q5 14 19 14
q34 2 49.5 8.5t23.5 14.5q13 13 34.5 41t45.5 63.5t46.5 73t37.5 69.5q-47 76 -103.5 159.5t-118 165.5t-127.5 157.5t-133 136.5q-29 -13 -62 -13q-23 6 -53.5 19.5t-59 32.5t-49 42.5t-22.5 50.5q0 7 0.5 26t2 43.5t5 51t9.5 48.5t14.5 26t31.5 -12q102 -69 200 -170
t188 -215t169 -231.5t144 -218.5zM102.603 1596.1h14.8506q5.85059 0 9.4502 -0.450195q3.60059 -0.450195 6.2998 -0.900391q2.7002 -0.450195 7.20117 -0.450195q70.2012 71.1025 115.203 100.803q45.001 29.7012 76.502 29.7012q16.2002 0 35.5508 -7.65039
t35.5508 -20.25q16.2002 -12.6006 27.001 -27.9014q10.7998 -15.2998 10.7998 -30.6006q0 -14.4004 -12.1504 -36.4512t-36.4512 -44.5508q-58.501 -53.1016 -144.004 -53.1016q-36.9004 0 -72.4512 8.09961q-35.5508 8.10059 -70.6523 8.10059q-10.7998 0 -23.8506 -4.0498
q-13.0498 -4.05078 -25.2002 -10.8008t-21.1514 -15.75q-9 -9 -12.5996 -18.001q-6.30078 0.900391 -11.251 13.501q-4.9502 12.5996 -4.9502 19.8008q0 18 8.10059 34.6504t21.1504 29.251q13.0508 12.6006 30.6006 19.8008q17.5508 7.2002 36.4512 7.2002zM183.605 1585.3
q0.899414 -0.900391 11.25 -2.25q10.3496 -1.34961 24.75 -2.7002q14.4004 -1.34961 29.251 -2.25q14.8506 -0.899414 24.751 -0.899414q23.4004 0 44.1016 4.0498q20.7002 4.0498 36.4502 9.90039q15.751 5.84961 25.2012 12.6006q9.4502 6.75 9.4502 12.1494
q0 2.7002 -6.2998 9.90039q-6.30078 7.2002 -16.6504 14.8506q-10.3506 7.65039 -22.501 13.0508q-12.1504 5.39941 -22.9512 5.39941q-16.2002 0 -35.5508 -6.75t-38.251 -17.5498q-18.9004 -10.8008 -35.5508 -23.8516q-16.6504 -13.0498 -27.4502 -25.6504z" />
    <glyph glyph-name="uniFC94" unicode="&#xfee0;&#xfb51;" horiz-adv-x="1444" 
d="M1038 1389q11 -97 20 -182.5t17.5 -164.5t16.5 -153.5t17 -147.5q22 -147 39.5 -244t31.5 -151q12 -50 29 -85.5t45 -58.5t70 -34t103 -11h18q31 0 47 -24.5t16 -54t-16 -54t-47 -24.5h-18q-49 0 -97 8.5t-90 33t-76 70.5t-55 121q-14 49 -23 90.5t-16.5 84t-14.5 91
t-16 111.5q-10 -71 -31 -151t-57 -157t-88.5 -145.5t-125.5 -116.5q-103 -68 -213 -102.5t-232 -52.5q-19 -2 -30.5 1t-15.5 8t-1 11.5t14 11.5q169 73 314.5 170t273.5 232q-10 59 -35.5 119t-62.5 118t-82.5 112.5t-95.5 102.5t-102 88t-101 69q-9 -23 -19 -28t-26 -6
q-23 0 -59.5 12t-71 33t-60 48.5t-25.5 59.5q0 8 2 28.5t5 46.5t8 53.5t11 50.5q7 23 15.5 28t31.5 -7q76 -39 157.5 -97t159.5 -128.5t147.5 -151t122.5 -164.5t84.5 -169.5t32.5 -165.5q34 58 54.5 107t31.5 98t14.5 100.5t3.5 113.5q0 109 -10 223t-21 223q-2 19 4.5 41
t17 44t23 42t22.5 34q5 4 9.5 0t4.5 -8zM102.672 1616.14h14.8613q5.85352 0 9.45605 -0.450195t6.30469 -0.900391t7.20508 -0.450195q70.249 71.126 115.281 100.837t76.5537 29.7109q16.2119 0 35.5752 -7.65332q19.3643 -7.65234 35.5752 -20.2568t27.0195 -27.9102
q10.8066 -15.3057 10.8066 -30.6113q0 -14.4053 -12.1582 -36.4639q-12.1582 -22.0576 -36.4756 -44.5654q-58.541 -53.1201 -144.102 -53.1201q-36.9258 0 -72.501 8.10352q-35.5752 8.10254 -70.7002 8.10254q-10.8076 0 -23.8662 -4.05176
q-13.0596 -4.05078 -25.2178 -10.8037q-12.1592 -6.75195 -21.165 -15.7559q-9.00684 -9.00293 -12.6094 -18.0068q-6.30469 0.900391 -11.2578 13.5059q-4.95312 12.6045 -4.95312 19.8066q0 18.0068 8.10547 34.6631t21.165 29.2607t30.6211 19.8066
q17.5625 7.20312 36.4756 7.20312zM183.729 1605.34q0.900391 -0.900391 11.2578 -2.25098t24.7676 -2.70117t29.2705 -2.25098t24.7676 -0.900391q23.416 0 44.1309 4.05176t36.4756 9.90332q15.7617 5.85254 25.2178 12.6045q9.45703 6.75293 9.45703 12.1543
q0 2.70117 -6.30469 9.9043q-6.30469 7.20215 -16.6611 14.8555q-10.3574 7.65234 -22.5166 13.0547q-12.1582 5.40234 -22.9658 5.40234q-16.2119 0 -35.5752 -6.75293t-38.2773 -17.5566q-18.9131 -10.8037 -35.5742 -23.8584q-16.6621 -13.0547 -27.4697 -25.6592z" />
    <glyph glyph-name=".notdef.269" unicode="&#x644;&#x621;&#x627;" horiz-adv-x="1201" 
d="M759 95q51 4 98 9t89 16q2 10 -6 33t-19.5 48.5t-23.5 49t-18 33.5q-26 -48 -55 -95.5t-65 -93.5zM880 452q36 94 52 190t19.5 193.5t-0.5 196t-8 196.5q-5 25 -15 42.5t-23 41.5q19 30 42 64.5t43 61.5q12 15 19 0q4 -26 12.5 -53.5t20.5 -53.5t27 -49t32 -39
q-6 -9 -16 -21.5t-20 -27.5t-17 -32.5t-7 -36.5q3 -96 -3 -198t-20.5 -200t-38.5 -187t-57 -161q30 -57 52 -115.5t33 -127.5q0 -42 -11 -81.5t-31 -77.5q-35 -7 -85.5 -14.5t-105.5 -14t-108.5 -10.5t-95.5 -4q-5 2 -4.5 19t4 39t8.5 43.5t10 33.5q5 14 19 14
q34 2 49.5 8.5t23.5 14.5q13 13 34.5 41t45.5 63.5t46.5 73t37.5 69.5q-47 76 -103.5 159.5t-118 165.5t-127.5 157.5t-133 136.5q-29 -13 -62 -13q-23 6 -53.5 19.5t-59 32.5t-49 42.5t-22.5 50.5q0 7 0.5 26t2 43.5t5 51t9.5 48.5t14.5 26t31.5 -12q102 -69 200 -170
t188 -215t169 -231.5t144 -218.5zM552.152 1049.55q4.91309 3.51465 12.2832 7.73145t15.793 8.43359t16.4951 8.43359q8.07129 4.21777 14.3887 8.43457q-16.8457 12.6504 -29.4795 27.7607q-12.6348 15.1104 -21.7598 38.3037q-3.50977 9.13672 -1.40332 19.6797
q2.10547 10.542 7.7207 18.9756q11.2305 16.8682 25.6191 34.4385q14.3896 17.5703 31.5859 31.627q17.1963 14.0557 36.8506 23.1924q19.6523 9.13672 40.71 9.13672q8.42285 0 15.793 -5.27051q7.37012 -5.27148 12.9854 -12.6514t9.82617 -15.8135
q4.21191 -8.43359 6.31738 -15.4619q4.21191 -16.165 0 -26.707l-12.6338 -23.1934q-7.01953 -15.4619 -18.9521 -15.4619q-7.01855 0 -8.77344 8.78516t-4.5625 18.625q-6.31738 11.2451 -14.0381 15.4619t-18.25 4.2168q-34.3926 0 -61.0654 -24.5986
q9.82715 -26.0039 31.2354 -47.4404q21.4082 -21.4355 49.4844 -24.2471q35.7969 -4.2168 68.7861 2.1084t68.7861 14.0566q0.702148 -1.40527 -2.10547 -11.9482q-2.80762 -10.542 -7.37012 -22.8418q-4.56152 -12.2988 -9.12402 -22.1387t-6.66797 -9.83984
q-29.4805 -3.51367 -60.0137 -9.83887q-30.5322 -6.3252 -64.2236 -14.7588q-33.6914 -11.2461 -70.1904 -27.4102q-36.499 -16.165 -68.085 -31.627q-6.31738 0 -9.125 6.3252q3.50977 13.3535 9.82715 28.4639q6.31641 15.1113 13.3359 27.0586z" />
    <glyph glyph-name=".notdef.267" unicode="&#xfede;&#x621;&#x627;" horiz-adv-x="1444" 
d="M1038 1389q11 -97 20 -182.5t17.5 -164.5t16.5 -153.5t17 -147.5q22 -147 39.5 -244t31.5 -151q12 -50 29 -85.5t45 -58.5t70 -34t103 -11h18q31 0 47 -24.5t16 -54t-16 -54t-47 -24.5h-18q-49 0 -97 8.5t-90 33t-76 70.5t-55 121q-14 49 -23 90.5t-16.5 84t-14.5 91
t-16 111.5q-10 -71 -31 -151t-57 -157t-88.5 -145.5t-125.5 -116.5q-103 -68 -213 -102.5t-232 -52.5q-19 -2 -30.5 1t-15.5 8t-1 11.5t14 11.5q169 73 314.5 170t273.5 232q-10 59 -35.5 119t-62.5 118t-82.5 112.5t-95.5 102.5t-102 88t-101 69q-9 -23 -19 -28t-26 -6
q-23 0 -59.5 12t-71 33t-60 48.5t-25.5 59.5q0 8 2 28.5t5 46.5t8 53.5t11 50.5q7 23 15.5 28t31.5 -7q76 -39 157.5 -97t159.5 -128.5t147.5 -151t122.5 -164.5t84.5 -169.5t32.5 -165.5q34 58 54.5 107t31.5 98t14.5 100.5t3.5 113.5q0 109 -10 223t-21 223q-2 19 4.5 41
t17 44t23 42t22.5 34q5 4 9.5 0t4.5 -8zM613.218 1032.9q5.09375 3.64355 12.7354 8.0166q7.64062 4.37207 16.373 8.74512q8.7334 4.37207 17.1016 8.74512q8.36914 4.37207 14.9189 8.74512q-17.4658 13.1172 -30.5645 28.7861q-13.0986 15.668 -22.5596 39.7168
q-3.63867 9.47461 -1.45508 20.4053q2.18262 10.9316 8.00488 19.6768q11.6436 17.4902 26.5615 35.709t32.748 32.7949q17.8291 14.5742 38.2051 24.0488q20.376 9.47363 42.208 9.47363q8.73242 0 16.374 -5.46582q7.64062 -5.46582 13.4619 -13.1172
q5.82227 -7.65234 10.1885 -16.3975t6.5498 -16.0322q4.36621 -16.7617 0 -27.6934l-13.0996 -24.0488q-7.27637 -16.0332 -19.6484 -16.0332q-7.27734 0 -9.09668 9.10938q-1.81836 9.10938 -4.72949 19.3125q-6.5498 11.6602 -14.5547 16.0332
q-8.00488 4.37207 -18.9209 4.37207q-35.6582 0 -63.3115 -25.5068q10.1875 -26.9639 32.3838 -49.1914q22.1953 -22.2266 51.3037 -25.1416q37.1143 -4.37305 71.3174 2.18652q34.2031 6.55859 71.3164 14.5742q0.727539 -1.45703 -2.18262 -12.3887
q-2.91113 -10.9316 -7.6416 -23.6846t-9.45996 -22.9561q-4.73047 -10.2021 -6.91406 -10.2021q-30.5635 -3.64355 -62.2197 -10.2031q-31.6562 -6.55859 -66.5869 -15.3037q-34.9307 -11.6602 -72.7725 -28.4219q-37.8408 -16.7617 -70.5889 -32.7939
q-6.54883 0 -9.45996 6.55859q3.63867 13.8467 10.1875 29.5146q6.5498 15.6689 13.8271 28.0576z" />
    <glyph glyph-name="alefmaksura.init" unicode="&#x649;" horiz-adv-x="512" 
d="M256 546q4 8 8 8.5t16 -10.5q27 -28 50.5 -61t41.5 -69t28.5 -74t11.5 -76q0 -17 -2.5 -38.5t-7 -43t-11 -41t-15.5 -32.5q-23 -36 -66 -58t-94 -33t-103.5 -14.5t-94.5 -3.5h-18q-32 0 -47.5 24.5t-15.5 54t15.5 54t47.5 24.5h18q24 0 66 0.5t88.5 4t90.5 11.5t71 23
q17 9 12 26q-17 55 -50.5 97.5t-75.5 84.5q8 35 17.5 71t18.5 71z" />
    <glyph glyph-name="alefmaksura.medi" unicode="&#x649;" horiz-adv-x="599" 
d="M361 364q1 -11 -2 -27.5t-3 -30.5q1 -26 14 -52.5t40 -48t69.5 -35t102.5 -13.5h18q30 0 45 -24.5t15 -54t-15 -54t-45 -24.5h-18q-109 0 -176 42t-104 117q-25 -53 -61 -84.5t-75 -48t-78 -21.5t-70 -5h-18q-30 0 -45 24.5t-15 54t15 54t45 24.5h18q31 0 65 2.5
t67.5 11.5t65.5 27.5t58 50.5q20 26 33 50.5t25 56.5q1 5 5.5 8t10 4t9.5 0t4 -4z" />
    <glyph glyph-name="uniFB50" unicode="&#x671;" horiz-adv-x="456" arabic-form="isolated" 
d="M187 1298q7 0 10 -4.5t4.5 -10.5t1.5 -12v-10q-2 -38 1.5 -74t7.5 -73q11 -89 24 -183.5t26 -190.5t26 -191t24 -185q4 -35 5 -82t-2 -95.5t-10.5 -93t-21.5 -75.5q-6 -20 -18 -21q-7 0 -9 8q-6 87 -15 175.5t-22 179.5q-26 188 -51.5 375t-48.5 373q3 47 25 98
q12 29 22 51.5t21 40.5zM102.603 1481.1h14.8506q5.85059 0 9.4502 -0.450195q3.60059 -0.450195 6.2998 -0.900391q2.7002 -0.450195 7.20117 -0.450195q70.2012 71.1025 115.203 100.803q45.001 29.7012 76.502 29.7012q16.2002 0 35.5508 -7.65039t35.5508 -20.25
q16.2002 -12.6006 27.001 -27.9014q10.7998 -15.2998 10.7998 -30.6006q0 -14.4004 -12.1504 -36.4512t-36.4512 -44.5508q-58.501 -53.1016 -144.004 -53.1016q-36.9004 0 -72.4512 8.09961q-35.5508 8.10059 -70.6523 8.10059q-10.7998 0 -23.8506 -4.0498
q-13.0498 -4.05078 -25.2002 -10.8008t-21.1514 -15.75q-9 -9 -12.5996 -18.001q-6.30078 0.900391 -11.251 13.501q-4.9502 12.5996 -4.9502 19.8008q0 18 8.10059 34.6504t21.1504 29.251q13.0508 12.6006 30.6006 19.8008q17.5508 7.2002 36.4512 7.2002zM183.605 1470.3
q0.899414 -0.900391 11.25 -2.25q10.3496 -1.34961 24.75 -2.7002q14.4004 -1.34961 29.251 -2.25q14.8506 -0.899414 24.751 -0.899414q23.4004 0 44.1016 4.0498q20.7002 4.0498 36.4502 9.90039q15.751 5.84961 25.2012 12.6006q9.4502 6.75 9.4502 12.1494
q0 2.7002 -6.2998 9.90039q-6.30078 7.2002 -16.6504 14.8506q-10.3506 7.65039 -22.501 13.0508q-12.1504 5.39941 -22.9512 5.39941q-16.2002 0 -35.5508 -6.75t-38.251 -17.5498q-18.9004 -10.8008 -35.5508 -23.8516q-16.6504 -13.0498 -27.4502 -25.6504z" />
    <glyph glyph-name="uniFB51" unicode="&#x671;" horiz-adv-x="534" arabic-form="final" 
d="M102 1173q7 37 22.5 70.5t30.5 68.5q2 5 7.5 5.5t7.5 -5.5q13 -57 25 -115.5t22.5 -126.5t20.5 -148.5t19 -182.5q7 -76 12.5 -132t10.5 -100t10.5 -81t12.5 -75q18 -102 68.5 -148t151.5 -46h13q31 0 47 -24.5t16 -54t-16 -54t-47 -24.5h-13q-77 0 -130.5 25t-88.5 67.5
t-54.5 99.5t-28.5 121q-8 58 -15 119.5t-13 121t-11 115t-10 102.5q-11 91 -25 183t-43 197q-2 9 -3 12.5t1 9.5zM53.6025 1545.1h14.8506q5.85059 0 9.4502 -0.450195q3.60059 -0.450195 6.2998 -0.900391q2.7002 -0.450195 7.20117 -0.450195
q70.2012 71.1025 115.203 100.803q45.001 29.7012 76.502 29.7012q16.2002 0 35.5508 -7.65039t35.5508 -20.25q16.2002 -12.6006 27.001 -27.9014q10.7998 -15.2998 10.7998 -30.6006q0 -14.4004 -12.1504 -36.4512t-36.4512 -44.5508q-58.501 -53.1016 -144.004 -53.1016
q-36.9004 0 -72.4512 8.09961q-35.5508 8.10059 -70.6523 8.10059q-10.7998 0 -23.8506 -4.0498q-13.0498 -4.05078 -25.2002 -10.8008t-21.1514 -15.75q-9 -9 -12.5996 -18.001q-6.30078 0.900391 -11.251 13.501q-4.9502 12.5996 -4.9502 19.8008q0 18 8.10059 34.6504
t21.1504 29.251q13.0508 12.6006 30.6006 19.8008q17.5508 7.2002 36.4512 7.2002zM134.605 1534.3q0.899414 -0.900391 11.25 -2.25q10.3496 -1.34961 24.75 -2.7002q14.4004 -1.34961 29.251 -2.25q14.8506 -0.899414 24.751 -0.899414q23.4004 0 44.1016 4.0498
q20.7002 4.0498 36.4502 9.90039q15.751 5.84961 25.2012 12.6006q9.4502 6.75 9.4502 12.1494q0 2.7002 -6.2998 9.90039q-6.30078 7.2002 -16.6504 14.8506q-10.3506 7.65039 -22.501 13.0508q-12.1504 5.39941 -22.9512 5.39941q-16.2002 0 -35.5508 -6.75
t-38.251 -17.5498q-18.9004 -10.8008 -35.5508 -23.8516q-16.6504 -13.0498 -27.4502 -25.6504z" />
    <glyph glyph-name="uniFCDB" unicode="&#xfc31;" horiz-adv-x="1279" arabic-form="isolated" 
d="M766 645q8 -23 27.5 -37.5t44 -19.5t49.5 1t43 24q3 2 5 7.5t-1 16.5q-8 16 -20 29.5t-27 26.5q-35 26 -70 23q-22 -5 -34.5 -27.5t-16.5 -43.5zM724 134q0 8 4 25.5t11 36.5t16.5 35.5t20.5 22.5q25 10 64.5 26.5t78 38t67 47.5t31.5 55q2 18 -1 35t-9 34t-13.5 32.5
t-14.5 30.5q-23 -55 -64.5 -85.5t-90.5 -30.5q-27 0 -51.5 13.5t-42.5 35t-28.5 48.5t-10.5 54q0 22 5.5 51.5t16 61t26 61.5t35 53.5t43 38t50.5 14.5q37 0 72 -29.5t63.5 -70.5t48.5 -85.5t27 -74.5q10 -43 13.5 -89t-2.5 -92.5t-23 -91.5t-49 -87q85 -15 125 -57.5
t36 -108.5q-4 -60 -38 -116.5t-87.5 -105t-123 -88.5t-144.5 -69t-151.5 -44.5t-143.5 -15.5q-90 0 -166 23t-131.5 70.5t-86.5 120.5t-31 172q0 50 10.5 98.5t28 94t41 89t49.5 82.5q4 6 8.5 5t8.5 -5.5t5.5 -10.5t-0.5 -10q-35 -69 -58.5 -145.5t-18.5 -154.5
q4 -74 36.5 -125.5t82.5 -83.5t111 -46.5t123 -15.5q63 -1 120.5 8.5t112.5 27t109 42t108 53.5q15 8 40.5 24.5t50 35t43 36t20.5 28.5q-2 11 -16 19.5t-39 18.5q-15 6 -43.5 11.5t-62.5 9.5t-70.5 8t-67.5 6t-53.5 3.5t-29.5 1.5zM760 1239q6 9 15 2l119 -99
q3 -3 4.5 -6.5t-2.5 -8.5l-80 -98q-8 -8 -17 -2l-119 98q-3 2 -4 6t4 10z" />
    <glyph glyph-name="uniFCD3" unicode="&#xfc32;" horiz-adv-x="1279" arabic-form="isolated" 
d="M766 645q8 -23 27.5 -37.5t44 -19.5t49.5 1t43 24q3 2 5 7.5t-1 16.5q-8 16 -20 29.5t-27 26.5q-35 26 -70 23q-22 -5 -34.5 -27.5t-16.5 -43.5zM724 134q0 8 4 25.5t11 36.5t16.5 35.5t20.5 22.5q25 10 64.5 26.5t78 38t67 47.5t31.5 55q2 18 -1 35t-9 34t-13.5 32.5
t-14.5 30.5q-23 -55 -64.5 -85.5t-90.5 -30.5q-27 0 -51.5 13.5t-42.5 35t-28.5 48.5t-10.5 54q0 22 5.5 51.5t16 61t26 61.5t35 53.5t43 38t50.5 14.5q37 0 72 -29.5t63.5 -70.5t48.5 -85.5t27 -74.5q10 -43 13.5 -89t-2.5 -92.5t-23 -91.5t-49 -87q85 -15 125 -57.5
t36 -108.5q-4 -60 -38 -116.5t-87.5 -105t-123 -88.5t-144.5 -69t-151.5 -44.5t-143.5 -15.5q-90 0 -166 23t-131.5 70.5t-86.5 120.5t-31 172q0 50 10.5 98.5t28 94t41 89t49.5 82.5q4 6 8.5 5t8.5 -5.5t5.5 -10.5t-0.5 -10q-35 -69 -58.5 -145.5t-18.5 -154.5
q4 -74 36.5 -125.5t82.5 -83.5t111 -46.5t123 -15.5q63 -1 120.5 8.5t112.5 27t109 42t108 53.5q15 8 40.5 24.5t50 35t43 36t20.5 28.5q-2 11 -16 19.5t-39 18.5q-15 6 -43.5 11.5t-62.5 9.5t-70.5 8t-67.5 6t-53.5 3.5t-29.5 1.5zM760 1239q6 9 15 2l119 -99
q3 -3 4.5 -6.5t-2.5 -8.5l-80 -98q-8 -8 -17 -2l-119 98q-3 2 -4 6t4 10zM654 -748q-7 -10 -19 -1l-120 93l-77 -106q-4 -5 -8.5 -5.5t-7.5 1.5l-128 98q-4 3 -5 5t3 7l80 115q6 10 15 4l121 -92l82 105q4 5 6 5.5t6 -2.5l128 -106q5 -6 0 -14l-76 -107v0z" />
    <glyph glyph-name="uniFC87" unicode="&#xfc42;" horiz-adv-x="862" arabic-form="isolated" 
d="M437 56q19 0 23.5 4t4.5 12q0 11 -8 24.5t-22 25t-32.5 19.5t-39.5 8q-19 0 -37 -10t-18 -30q0 -8 11.5 -17t29.5 -17t41 -13.5t47 -5.5zM712 329q0 -59 -5.5 -97t-22 -65.5t-46 -50t-77.5 -49.5q-1 -7 -1 -14v-14q0 -42 -17 -74t-58 -49q-49 -16 -98.5 -8.5t-95.5 30.5
q-21 -63 -55.5 -110t-86.5 -73q-58 -29 -115.5 -44t-125.5 -29q-35 -6 -52 -1.5t0 21.5q82 49 143.5 83t106 61.5t74 53t47.5 57.5q-2 1 -3 20.5t-1 42.5t0.5 42l0.5 19q-5 42 9.5 78t39.5 62t55 41t57 16q15 0 36 -7.5t43.5 -17t44.5 -17t38 -7.5q33 2 58 14.5t40 25.5
q-18 202 -47.5 394.5t-58.5 390.5q-9 42 -17 79t-30 75q-3 6 -5 9t-2.5 5t0.5 5t4 8q16 28 32.5 56.5t30.5 54.5q2 7 7 9.5t7 -9.5q7 -23 17 -47.5t23 -47.5t30 -42.5t38 -33.5q-27 -41 -40.5 -68t-8.5 -53q5 -60 14 -126.5t18.5 -134t19.5 -134t17.5 -127t12.5 -112.5
t5 -91z" />
    <glyph glyph-name="uniFC47" unicode="&#xfc45;" horiz-adv-x="1935" arabic-form="isolated" 
d="M268 554q40 1 85 -5.5t93 -14.5t98.5 -16t103.5 -10q90 -4 174.5 -0.5t175.5 11.5q10 2 8 -5q-4 -18 -11 -39t-15.5 -41t-18 -38t-18.5 -31q-24 -2 -46 -4.5t-43 -6t-43 -7.5t-47 -9q-3 -42 4.5 -71.5t21.5 -51.5q13 -20 42 -31.5t67 -17.5t81.5 -7.5t86.5 -1.5h18
q30 0 45 -24.5t15 -54t-15 -54t-45 -24.5h-18q-58 -1 -110 1t-95 13.5t-76.5 36t-54.5 68.5q-18 37 -28 86.5t-5 118.5q-85 -20 -168 -54t-152 -88q-60 -47 -105.5 -106.5t-76 -126.5t-45.5 -140.5t-15 -148.5q0 -82 30.5 -156.5t82.5 -135t119.5 -104.5t141.5 -65
q97 -27 199 -36.5t190 -6.5q47 1 97.5 5.5t101 9.5t101 9t97.5 4q12 0 13 -6.5t-5 -14.5t-15.5 -15t-18.5 -8q-59 -11 -114 -31t-109.5 -40t-110 -36.5t-115.5 -20.5q-97 -7 -191 3t-179 38.5t-157 76.5t-125 117t-82.5 160.5t-29.5 206.5q0 112 28.5 226t81.5 215.5
t129.5 184.5t172.5 134q0 5 -15 8q-46 5 -95 10t-98 2t-95 -19t-85 -52q-4 -4 -11.5 -4t-5.5 12q6 45 21 85t40.5 70t60.5 48t82 20zM1734 275q2 3 -3.5 16.5t-13.5 29.5t-16 30.5t-11 19.5q-9 12 -19.5 24.5t-22.5 22t-27 15.5t-33 5q-16 -1 -31.5 -9t-28.5 -20t-23 -26.5
t-15 -29.5q51 -43 114 -60.5t130 -17.5zM1106 157q42 0 83.5 2.5t77.5 11.5t64.5 26.5t44.5 47.5q28 54 50 108t56 106q12 18 30.5 41t40.5 43.5t45.5 34t46.5 12.5q25 -1 49 -18t45.5 -44t39 -60.5t30.5 -67.5t19.5 -65.5t5.5 -54.5q-2 -21 -6 -44.5t-12.5 -44.5t-22 -38.5
t-33.5 -26.5q-23 -8 -63 -5t-87.5 15t-96.5 33t-91 50q-39 -115 -117 -167t-199 -52h-18q-32 0 -47.5 24.5t-15.5 54t15.5 54t47.5 24.5h18zM777 -306q5 -4 4 -8t-3 -7l-83 -104q-6 -9 -17 -1l-124 102q-7 6 0 16l84 103q6 8 15 2z" />
    <glyph glyph-name="uniFCCB" unicode="&#xfc46;" horiz-adv-x="1935" arabic-form="isolated" 
d="M268 554q40 1 85 -5.5t93 -14.5t98.5 -16t103.5 -10q90 -4 174.5 -0.5t175.5 11.5q10 2 8 -5q-4 -18 -11 -39t-15.5 -41t-18 -38t-18.5 -31q-24 -2 -46 -4.5t-43 -6t-43 -7.5t-47 -9q-3 -42 4.5 -71.5t21.5 -51.5q13 -20 42 -31.5t67 -17.5t81.5 -7.5t86.5 -1.5h18
q30 0 45 -24.5t15 -54t-15 -54t-45 -24.5h-18q-58 -1 -110 1t-95 13.5t-76.5 36t-54.5 68.5q-18 37 -28 86.5t-5 118.5q-85 -20 -168 -54t-152 -88q-60 -47 -105.5 -106.5t-76 -126.5t-45.5 -140.5t-15 -148.5q0 -82 30.5 -156.5t82.5 -135t119.5 -104.5t141.5 -65
q97 -27 199 -36.5t190 -6.5q47 1 97.5 5.5t101 9.5t101 9t97.5 4q12 0 13 -6.5t-5 -14.5t-15.5 -15t-18.5 -8q-59 -11 -114 -31t-109.5 -40t-110 -36.5t-115.5 -20.5q-97 -7 -191 3t-179 38.5t-157 76.5t-125 117t-82.5 160.5t-29.5 206.5q0 112 28.5 226t81.5 215.5
t129.5 184.5t172.5 134q0 5 -15 8q-46 5 -95 10t-98 2t-95 -19t-85 -52q-4 -4 -11.5 -4t-5.5 12q6 45 21 85t40.5 70t60.5 48t82 20zM1734 275q2 3 -3.5 16.5t-13.5 29.5t-16 30.5t-11 19.5q-9 12 -19.5 24.5t-22.5 22t-27 15.5t-33 5q-16 -1 -31.5 -9t-28.5 -20t-23 -26.5
t-15 -29.5q51 -43 114 -60.5t130 -17.5zM1106 157q42 0 83.5 2.5t77.5 11.5t64.5 26.5t44.5 47.5q28 54 50 108t56 106q12 18 30.5 41t40.5 43.5t45.5 34t46.5 12.5q25 -1 49 -18t45.5 -44t39 -60.5t30.5 -67.5t19.5 -65.5t5.5 -54.5q-2 -21 -6 -44.5t-12.5 -44.5t-22 -38.5
t-33.5 -26.5q-23 -8 -63 -5t-87.5 15t-96.5 33t-91 50q-39 -115 -117 -167t-199 -52h-18q-32 0 -47.5 24.5t-15.5 54t15.5 54t47.5 24.5h18z" />
    <glyph glyph-name="uniFCC9" unicode="&#xfc47;" horiz-adv-x="1935" arabic-form="isolated" 
d="M724 878q5 -4 4 -8t-3 -7l-83 -104q-6 -9 -17 -1l-124 102q-7 6 0 16l84 103q6 8 15 2zM268 554q40 1 85 -5.5t93 -14.5t98.5 -16t103.5 -10q90 -4 174.5 -0.5t175.5 11.5q10 2 8 -5q-4 -18 -11 -39t-15.5 -41t-18 -38t-18.5 -31q-24 -2 -46 -4.5t-43 -6t-43 -7.5t-47 -9
q-3 -42 4.5 -71.5t21.5 -51.5q13 -20 42 -31.5t67 -17.5t81.5 -7.5t86.5 -1.5h18q30 0 45 -24.5t15 -54t-15 -54t-45 -24.5h-18q-58 -1 -110 1t-95 13.5t-76.5 36t-54.5 68.5q-18 37 -28 86.5t-5 118.5q-85 -20 -168 -54t-152 -88q-60 -47 -105.5 -106.5t-76 -126.5
t-45.5 -140.5t-15 -148.5q0 -82 30.5 -156.5t82.5 -135t119.5 -104.5t141.5 -65q97 -27 199 -36.5t190 -6.5q47 1 97.5 5.5t101 9.5t101 9t97.5 4q12 0 13 -6.5t-5 -14.5t-15.5 -15t-18.5 -8q-59 -11 -114 -31t-109.5 -40t-110 -36.5t-115.5 -20.5q-97 -7 -191 3t-179 38.5
t-157 76.5t-125 117t-82.5 160.5t-29.5 206.5q0 112 28.5 226t81.5 215.5t129.5 184.5t172.5 134q0 5 -15 8q-46 5 -95 10t-98 2t-95 -19t-85 -52q-4 -4 -11.5 -4t-5.5 12q6 45 21 85t40.5 70t60.5 48t82 20zM1734 275q2 3 -3.5 16.5t-13.5 29.5t-16 30.5t-11 19.5
q-9 12 -19.5 24.5t-22.5 22t-27 15.5t-33 5q-16 -1 -31.5 -9t-28.5 -20t-23 -26.5t-15 -29.5q51 -43 114 -60.5t130 -17.5zM1106 157q42 0 83.5 2.5t77.5 11.5t64.5 26.5t44.5 47.5q28 54 50 108t56 106q12 18 30.5 41t40.5 43.5t45.5 34t46.5 12.5q25 -1 49 -18t45.5 -44
t39 -60.5t30.5 -67.5t19.5 -65.5t5.5 -54.5q-2 -21 -6 -44.5t-12.5 -44.5t-22 -38.5t-33.5 -26.5q-23 -8 -63 -5t-87.5 15t-96.5 33t-91 50q-39 -115 -117 -167t-199 -52h-18q-32 0 -47.5 24.5t-15.5 54t15.5 54t47.5 24.5h18z" />
    <glyph glyph-name="uniFC91" unicode="&#xfc6a;" horiz-adv-x="1267" arabic-form="final" 
d="M511 339q2 8 6 10t13 -6q24 -20 47 -34t55 -12q57 0 106.5 21t89 60t67.5 95t41 125q4 22 16 25t17 -21q10 -57 22.5 -125.5t28.5 -128.5q12 -45 30 -80.5t45 -60t64 -37.5t87 -13h18q32 0 48 -24.5t16 -54t-16 -54t-48 -24.5h-18q-131 0 -211 97.5t-108 287.5
q-15 -48 -40 -89t-56.5 -72t-69 -50.5t-77.5 -23.5q-5 -71 -17 -135.5t-27.5 -120t-33 -101t-33.5 -78.5q-21 -43 -56 -84t-80 -74.5t-98.5 -56.5t-111.5 -29q-121 -12 -213 4.5t-160 42.5q-20 7 -25 15.5t-1 15.5t15 11.5t23 2.5q48 -8 101.5 -5.5t107 13t103.5 27t92 37.5
q70 36 129 89t103.5 119.5t74.5 143.5t43 161q-30 4 -56.5 9.5t-49.5 24.5q-9 8 -12.5 15t-1.5 21q2 31 5 63t6 58zM1033 -246q5 -4 4 -8t-3 -7l-83 -104q-6 -9 -17 -1l-124 102q-7 6 0 16l84 103q6 8 15 2z" />
    <glyph glyph-name="uniFC32" unicode="&#xfc6b;" horiz-adv-x="1267" arabic-form="final" 
d="M511 339q2 8 6 10t13 -6q24 -20 47 -34t55 -12q57 0 106.5 21t89 60t67.5 95t41 125q4 22 16 25t17 -21q10 -57 22.5 -125.5t28.5 -128.5q12 -45 30 -80.5t45 -60t64 -37.5t87 -13h18q32 0 48 -24.5t16 -54t-16 -54t-48 -24.5h-18q-131 0 -211 97.5t-108 287.5
q-15 -48 -40 -89t-56.5 -72t-69 -50.5t-77.5 -23.5q-5 -71 -17 -135.5t-27.5 -120t-33 -101t-33.5 -78.5q-21 -43 -56 -84t-80 -74.5t-98.5 -56.5t-111.5 -29q-121 -12 -213 4.5t-160 42.5q-20 7 -25 15.5t-1 15.5t15 11.5t23 2.5q48 -8 101.5 -5.5t107 13t103.5 27t92 37.5
q70 36 129 89t103.5 119.5t74.5 143.5t43 161q-30 4 -56.5 9.5t-49.5 24.5q-9 8 -12.5 15t-1.5 21q2 31 5 63t6 58zM336 525q5 -4 4 -8t-3 -7l-83 -104q-6 -9 -17 -1l-124 102q-7 6 0 16l84 103q6 8 15 2zM1037 -222q5 -4 4 -8t-3 -7l-83 -104q-6 -9 -17 -1l-124 102
q-7 6 0 16l84 103q6 8 15 2z" />
    <glyph glyph-name="uniFC6A" unicode="&#xfc6d;" horiz-adv-x="1583" arabic-form="final" 
d="M875 530q4 10 8 9.5t10 -8.5q12 -18 24.5 -37t25.5 -35t25.5 -27t24.5 -12q46 -5 90 5t81 35t65.5 64.5t44.5 93.5q6 23 18.5 25t14.5 -21q8 -96 18 -181t35.5 -148t73.5 -100t133 -37h17q32 0 48 -24.5t16 -54t-16 -54t-48 -24.5h-17q-80 0 -136.5 32.5t-93 88.5
t-55.5 132t-24 162q-16 -28 -40.5 -53.5t-55 -46t-65.5 -33.5t-71 -16q7 -54 7 -118t-8 -121q-10 -67 -39 -121t-72 -96t-97.5 -73t-114.5 -50.5t-123 -29t-124 -9.5q-85 0 -155.5 25.5t-121 73.5t-78.5 116.5t-28 154.5q0 94 30 179t84 163q6 9 10.5 8.5t7.5 -5t4 -11
t0 -9.5q-48 -94 -59.5 -188t17.5 -172q15 -39 40.5 -71.5t62.5 -55.5t86.5 -36t111.5 -13q68 0 139.5 10t137.5 34t123 64t97 100q5 46 -5 95.5t-29.5 98.5t-45.5 96t-54 88q6 22 11 39.5t10.5 33.5t11 31.5t12.5 33.5zM730 700q5 -4 4 -8t-3 -7l-83 -104q-6 -9 -17 -1
l-124 102q-7 6 0 16l84 103q6 8 15 2zM1313 -304q5 -4 4 -8t-3 -7l-83 -104q-6 -9 -17 -1l-124 102q-7 6 0 16l84 103q6 8 15 2z" />
    <glyph glyph-name="uniFC6B" unicode="&#xfc70;" horiz-adv-x="1267" arabic-form="final" 
d="M511 339q2 8 6 10t13 -6q24 -20 47 -34t55 -12q57 0 106.5 21t89 60t67.5 95t41 125q4 22 16 25t17 -21q10 -57 22.5 -125.5t28.5 -128.5q12 -45 30 -80.5t45 -60t64 -37.5t87 -13h18q32 0 48 -24.5t16 -54t-16 -54t-48 -24.5h-18q-131 0 -211 97.5t-108 287.5
q-15 -48 -40 -89t-56.5 -72t-69 -50.5t-77.5 -23.5q-5 -71 -17 -135.5t-27.5 -120t-33 -101t-33.5 -78.5q-21 -43 -56 -84t-80 -74.5t-98.5 -56.5t-111.5 -29q-121 -12 -213 4.5t-160 42.5q-20 7 -25 15.5t-1 15.5t15 11.5t23 2.5q48 -8 101.5 -5.5t107 13t103.5 27t92 37.5
q70 36 129 89t103.5 119.5t74.5 143.5t43 161q-30 4 -56.5 9.5t-49.5 24.5q-9 8 -12.5 15t-1.5 21q2 31 5 63t6 58zM1036 948q-7 -10 -19 -1l-120 93l-77 -106q-4 -5 -8.5 -5.5t-7.5 1.5l-128 98q-4 3 -5 5t3 7l80 115q6 10 15 4l121 -92l82 105q4 5 6 5.5t6 -2.5l128 -106
q5 -6 0 -14l-76 -107v0z" />
    <glyph glyph-name="uniFCCF" unicode="&#xfc86;" horiz-adv-x="1277" arabic-form="final" 
d="M880 -84q32 -6 78.5 -15.5t91 -25t78.5 -38t41 -53.5q15 -66 -9.5 -126t-71 -110.5t-105.5 -90.5t-112 -66q-97 -48 -196 -73t-187 -25q-90 0 -166 23t-131.5 71t-87 121t-31.5 172q0 49 10.5 97.5t28.5 94.5t41.5 89t49.5 82q4 6 8.5 5t8.5 -5t5.5 -10t-0.5 -10
q-36 -70 -58.5 -146t-17.5 -154q3 -74 35.5 -125.5t82.5 -83.5t111.5 -47t122.5 -16q63 -1 120.5 8.5t112.5 27.5t108.5 42.5t108.5 53.5q15 7 40 23t49.5 34t42.5 35.5t20 28.5q-2 13 -23.5 24t-54 20t-71.5 16t-75.5 12.5t-66 9t-43.5 5.5q-9 1 -10 7.5t4 16.5
q49 94 70.5 191t25 195t-6 197.5t-22.5 199.5l-53 405q-2 18 4.5 40.5t17 44t22.5 41.5t21 34q2 5 8 0.5t6 -8.5q13 -93 24 -190t23.5 -193t28 -189t37.5 -178q17 -65 39 -112t56 -77t82 -44.5t116 -14.5h18q31 0 47 -24.5t16 -54t-16 -54t-47 -24.5h-18q-56 0 -106.5 11
t-93.5 35.5t-76.5 65t-55.5 100.5q-1 -85 -15 -159t-34 -137z" />
    <glyph glyph-name="uniFCCE" unicode="&#xfc87;" horiz-adv-x="1281" arabic-form="final" 
d="M880 -84q32 -6 78.5 -15.5t91 -25t78.5 -38t41 -53.5q15 -66 -9.5 -126t-71 -110.5t-105.5 -90.5t-112 -66q-97 -48 -196 -73t-187 -25q-90 0 -166 23t-131.5 71t-87 121t-31.5 172q0 49 10.5 97.5t28.5 94.5t41.5 89t49.5 82q4 6 8.5 5t8.5 -5t5.5 -10t-0.5 -10
q-36 -70 -58.5 -146t-17.5 -154q3 -74 35.5 -125.5t82.5 -83.5t111.5 -47t122.5 -16q63 -1 120.5 8.5t112.5 27.5t108.5 42.5t108.5 53.5q15 7 40 23t49.5 34t42.5 35.5t20 28.5q-2 13 -23.5 24t-54 20t-71.5 16t-75.5 12.5t-66 9t-43.5 5.5q-9 1 -10 7.5t4 16.5
q49 94 70.5 191t25 195t-6 197.5t-22.5 199.5l-53 405q-2 18 4.5 40.5t17 44t22.5 41.5t21 34q2 5 8 0.5t6 -8.5q13 -93 24 -190t23.5 -193t28 -189t37.5 -178q17 -65 39 -112t56 -77t82 -44.5t116 -14.5h18q31 0 47 -24.5t16 -54t-16 -54t-47 -24.5h-18q-56 0 -106.5 11
t-93.5 35.5t-76.5 65t-55.5 100.5q-1 -85 -15 -159t-34 -137z" />
    <glyph glyph-name="uniFC92" unicode="&#xfc91;" horiz-adv-x="1267" arabic-form="final" 
d="M511 339q2 8 6 10t13 -6q24 -20 47 -34t55 -12q57 0 106.5 21t89 60t67.5 95t41 125q4 22 16 25t17 -21q10 -57 22.5 -125.5t28.5 -128.5q12 -45 30 -80.5t45 -60t64 -37.5t87 -13h18q32 0 48 -24.5t16 -54t-16 -54t-48 -24.5h-18q-131 0 -211 97.5t-108 287.5
q-15 -48 -40 -89t-56.5 -72t-69 -50.5t-77.5 -23.5q-5 -71 -17 -135.5t-27.5 -120t-33 -101t-33.5 -78.5q-21 -43 -56 -84t-80 -74.5t-98.5 -56.5t-111.5 -29q-121 -12 -213 4.5t-160 42.5q-20 7 -25 15.5t-1 15.5t15 11.5t23 2.5q48 -8 101.5 -5.5t107 13t103.5 27t92 37.5
q70 36 129 89t103.5 119.5t74.5 143.5t43 161q-30 4 -56.5 9.5t-49.5 24.5q-9 8 -12.5 15t-1.5 21q2 31 5 63t6 58zM1074 -321q-7 -10 -19 -1l-120 93l-77 -106q-4 -5 -8.5 -5.5t-7.5 1.5l-128 98q-4 3 -5 5t3 7l80 115q6 10 15 4l121 -92l82 105q4 5 6 5.5t6 -2.5l128 -106
q5 -6 0 -14l-76 -107v0z" />
    <glyph glyph-name="glyph264" unicode="&#xfc92;" horiz-adv-x="1267" arabic-form="final" 
d="M511 339q2 8 6 10t13 -6q24 -20 47 -34t55 -12q57 0 106.5 21t89 60t67.5 95t41 125q4 22 16 25t17 -21q10 -57 22.5 -125.5t28.5 -128.5q12 -45 30 -80.5t45 -60t64 -37.5t87 -13h18q32 0 48 -24.5t16 -54t-16 -54t-48 -24.5h-18q-131 0 -211 97.5t-108 287.5
q-15 -48 -40 -89t-56.5 -72t-69 -50.5t-77.5 -23.5q-5 -71 -17 -135.5t-27.5 -120t-33 -101t-33.5 -78.5q-21 -43 -56 -84t-80 -74.5t-98.5 -56.5t-111.5 -29q-121 -12 -213 4.5t-160 42.5q-20 7 -25 15.5t-1 15.5t15 11.5t23 2.5q48 -8 101.5 -5.5t107 13t103.5 27t92 37.5
q70 36 129 89t103.5 119.5t74.5 143.5t43 161q-30 4 -56.5 9.5t-49.5 24.5q-9 8 -12.5 15t-1.5 21q2 31 5 63t6 58zM1044 -344q-7 -10 -19 -1l-120 93l-77 -106q-4 -5 -8.5 -5.5t-7.5 1.5l-128 98q-4 3 -5 5t3 7l80 115q6 10 15 4l121 -92l82 105q4 5 6 5.5t6 -2.5l128 -106
q5 -6 0 -14l-76 -107v0zM334 498q5 -4 4 -8t-3 -7l-83 -104q-6 -9 -17 -1l-124 102q-7 6 0 16l84 103q6 8 15 2z" />
    <glyph glyph-name="uniFC70" unicode="&#xfc94;" horiz-adv-x="1583" arabic-form="final" 
d="M875 530q4 10 8 9.5t10 -8.5q12 -18 24.5 -37t25.5 -35t25.5 -27t24.5 -12q46 -5 90 5t81 35t65.5 64.5t44.5 93.5q6 23 18.5 25t14.5 -21q8 -96 18 -181t35.5 -148t73.5 -100t133 -37h17q32 0 48 -24.5t16 -54t-16 -54t-48 -24.5h-17q-80 0 -136.5 32.5t-93 88.5
t-55.5 132t-24 162q-16 -28 -40.5 -53.5t-55 -46t-65.5 -33.5t-71 -16q7 -54 7 -118t-8 -121q-10 -67 -39 -121t-72 -96t-97.5 -73t-114.5 -50.5t-123 -29t-124 -9.5q-85 0 -155.5 25.5t-121 73.5t-78.5 116.5t-28 154.5q0 94 30 179t84 163q6 9 10.5 8.5t7.5 -5t4 -11
t0 -9.5q-48 -94 -59.5 -188t17.5 -172q15 -39 40.5 -71.5t62.5 -55.5t86.5 -36t111.5 -13q68 0 139.5 10t137.5 34t123 64t97 100q5 46 -5 95.5t-29.5 98.5t-45.5 96t-54 88q6 22 11 39.5t10.5 33.5t11 31.5t12.5 33.5zM730 700q5 -4 4 -8t-3 -7l-83 -104q-6 -9 -17 -1
l-124 102q-7 6 0 16l84 103q6 8 15 2zM1353 -341q-7 -10 -19 -1l-120 93l-77 -106q-4 -5 -8.5 -5.5t-7.5 1.5l-128 98q-4 3 -5 5t3 7l80 115q6 10 15 4l121 -92l82 105q4 5 6 5.5t6 -2.5l128 -106q5 -6 0 -14l-76 -107v0z" />
    <glyph glyph-name="glyph270" unicode="&#xfc9c;" horiz-adv-x="1316" arabic-form="initial" 
d="M825 1001q22 0 41 -12.5t32 -34t20.5 -50t7.5 -59.5q1 -29 -2 -58.5t-8.5 -56t-13 -48.5t-15.5 -37q-15 -25 -22 2q-3 18 -4.5 52t-7 67t-17 58t-35.5 26q-22 1 -43 -9.5t-41.5 -28.5t-40.5 -42t-40 -51q-59 -78 -126.5 -142t-160.5 -103q-4 -3 0 -4q65 -11 126 -20.5
t121 -18t120.5 -16.5t124.5 -15q85 -11 180.5 -15.5t183.5 -9.5q9 -1 10.5 -4t-2.5 -10q-4 -8 -13 -25t-19.5 -36.5t-21 -37.5t-18.5 -28q-5 -5 -11.5 -6.5t-18.5 0.5q-104 20 -200 9t-186 -35q-48 -13 -96.5 -33t-101 -42.5t-109.5 -45t-121.5 -40.5t-138 -29.5
t-158.5 -11.5h-18q-32 0 -48.5 24.5t-16.5 54t16.5 54t48.5 24.5h18q34 0 88.5 2t128.5 13.5t168 37.5t206 74q-50 9 -113.5 20.5t-130.5 22.5t-131.5 20t-114.5 13q-6 0 -19 -2.5t-26 -8.5q-5 -3 -11.5 1.5t-4.5 13.5q5 21 15 43.5t24.5 43t32 37t37.5 25.5q36 18 72 33.5
t70 30.5t66.5 31.5t62.5 36.5q72 47 125.5 99t103.5 112q15 19 34.5 44t42.5 47.5t48 38t51 15.5zM532 -211q5 -4 4 -8t-3 -7l-83 -104q-6 -9 -17 -1l-124 102q-7 6 0 16l84 103q6 8 15 2zM1025 -58q5 -4 4 -8t-3 -7l-83 -104q-6 -9 -17 -1l-124 102q-7 6 0 16l84 103
q6 8 15 2z" />
    <glyph glyph-name="uniFCD4" unicode="&#xfc9d;" horiz-adv-x="1316" arabic-form="initial" 
d="M825 1001q22 0 41 -12.5t32 -34t20.5 -50t7.5 -59.5q1 -29 -2 -58.5t-8.5 -56t-13 -48.5t-15.5 -37q-15 -25 -22 2q-3 18 -4.5 52t-7 67t-17 58t-35.5 26q-22 1 -43 -9.5t-41.5 -28.5t-40.5 -42t-40 -51q-59 -78 -126.5 -142t-160.5 -103q-4 -3 0 -4q65 -11 126 -20.5
t121 -18t120.5 -16.5t124.5 -15q85 -11 180.5 -15.5t183.5 -9.5q9 -1 10.5 -4t-2.5 -10q-4 -8 -13 -25t-19.5 -36.5t-21 -37.5t-18.5 -28q-5 -5 -11.5 -6.5t-18.5 0.5q-104 20 -200 9t-186 -35q-48 -13 -96.5 -33t-101 -42.5t-109.5 -45t-121.5 -40.5t-138 -29.5
t-158.5 -11.5h-18q-32 0 -48.5 24.5t-16.5 54t16.5 54t48.5 24.5h18q34 0 88.5 2t128.5 13.5t168 37.5t206 74q-50 9 -113.5 20.5t-130.5 22.5t-131.5 20t-114.5 13q-6 0 -19 -2.5t-26 -8.5q-5 -3 -11.5 1.5t-4.5 13.5q5 21 15 43.5t24.5 43t32 37t37.5 25.5q36 18 72 33.5
t70 30.5t66.5 31.5t62.5 36.5q72 47 125.5 99t103.5 112q15 19 34.5 44t42.5 47.5t48 38t51 15.5zM1056 -101q5 -4 4 -8t-3 -7l-83 -104q-6 -9 -17 -1l-124 102q-7 6 0 16l84 103q6 8 15 2z" />
    <glyph glyph-name="uniFCA6" unicode="&#xfc9f;" horiz-adv-x="785" arabic-form="initial" 
d="M291 445q0 -29 14 -59t37.5 -58.5t54 -54.5t63 -47.5t64 -37.5t58.5 -25q19 -6 26.5 -31.5t7 -55t-7 -56t-16.5 -35.5q-9 -6 -16 -4q-27 13 -59.5 26.5t-67 24t-68 17t-63.5 6.5q-38 0 -72.5 -8.5t-70 -18.5t-73.5 -18.5t-83 -8.5h-19q-20 0 -34 11.5t-21 29t-7 37.5
t7 37.5t20.5 29t34.5 11.5h19q47 0 104 9t126 38q-14 88 -3.5 175t43.5 156.5t87.5 112.5t129.5 44q43 0 72.5 -14.5t47.5 -34t26 -38.5t8 -28q0 -32 -10 -52.5t-27 -36.5q-6 10 -18 22.5t-30 24t-42.5 19t-56.5 7.5q-31 0 -64 -4.5t-60 -17.5t-44 -35.5t-17 -58.5z
M584 -297q5 -4 4 -8t-3 -7l-83 -104q-6 -9 -17 -1l-124 102q-7 6 0 16l84 103q6 8 15 2z" />
    <glyph glyph-name="uniFCDA" unicode="&#xfca1;" horiz-adv-x="1316" arabic-form="initial" 
d="M825 1001q22 0 41 -12.5t32 -34t20.5 -50t7.5 -59.5q1 -29 -2 -58.5t-8.5 -56t-13 -48.5t-15.5 -37q-15 -25 -22 2q-3 18 -4.5 52t-7 67t-17 58t-35.5 26q-22 1 -43 -9.5t-41.5 -28.5t-40.5 -42t-40 -51q-59 -78 -126.5 -142t-160.5 -103q-4 -3 0 -4q65 -11 126 -20.5
t121 -18t120.5 -16.5t124.5 -15q85 -11 180.5 -15.5t183.5 -9.5q9 -1 10.5 -4t-2.5 -10q-4 -8 -13 -25t-19.5 -36.5t-21 -37.5t-18.5 -28q-5 -5 -11.5 -6.5t-18.5 0.5q-104 20 -200 9t-186 -35q-48 -13 -96.5 -33t-101 -42.5t-109.5 -45t-121.5 -40.5t-138 -29.5
t-158.5 -11.5h-18q-32 0 -48.5 24.5t-16.5 54t16.5 54t48.5 24.5h18q34 0 88.5 2t128.5 13.5t168 37.5t206 74q-50 9 -113.5 20.5t-130.5 22.5t-131.5 20t-114.5 13q-6 0 -19 -2.5t-26 -8.5q-5 -3 -11.5 1.5t-4.5 13.5q5 21 15 43.5t24.5 43t32 37t37.5 25.5q36 18 72 33.5
t70 30.5t66.5 31.5t62.5 36.5q72 47 125.5 99t103.5 112q15 19 34.5 44t42.5 47.5t48 38t51 15.5zM581 -202q5 -4 4 -8t-3 -7l-83 -104q-6 -9 -17 -1l-124 102q-7 6 0 16l84 103q6 8 15 2zM909 1223q-7 -10 -19 -1l-120 93l-77 -106q-4 -5 -8.5 -5.5t-7.5 1.5l-128 98
q-4 3 -5 5t3 7l80 115q6 10 15 4l121 -92l82 105q4 5 6 5.5t6 -2.5l128 -106q5 -6 0 -14l-76 -107v0z" />
    <glyph glyph-name="uniFCDC" unicode="&#xfca2;" horiz-adv-x="1316" arabic-form="initial" 
d="M825 1001q22 0 41 -12.5t32 -34t20.5 -50t7.5 -59.5q1 -29 -2 -58.5t-8.5 -56t-13 -48.5t-15.5 -37q-15 -25 -22 2q-3 18 -4.5 52t-7 67t-17 58t-35.5 26q-22 1 -43 -9.5t-41.5 -28.5t-40.5 -42t-40 -51q-59 -78 -126.5 -142t-160.5 -103q-4 -3 0 -4q65 -11 126 -20.5
t121 -18t120.5 -16.5t124.5 -15q85 -11 180.5 -15.5t183.5 -9.5q9 -1 10.5 -4t-2.5 -10q-4 -8 -13 -25t-19.5 -36.5t-21 -37.5t-18.5 -28q-5 -5 -11.5 -6.5t-18.5 0.5q-104 20 -200 9t-186 -35q-48 -13 -96.5 -33t-101 -42.5t-109.5 -45t-121.5 -40.5t-138 -29.5
t-158.5 -11.5h-18q-32 0 -48.5 24.5t-16.5 54t16.5 54t48.5 24.5h18q34 0 88.5 2t128.5 13.5t168 37.5t206 74q-50 9 -113.5 20.5t-130.5 22.5t-131.5 20t-114.5 13q-6 0 -19 -2.5t-26 -8.5q-5 -3 -11.5 1.5t-4.5 13.5q5 21 15 43.5t24.5 43t32 37t37.5 25.5q36 18 72 33.5
t70 30.5t66.5 31.5t62.5 36.5q72 47 125.5 99t103.5 112q15 19 34.5 44t42.5 47.5t48 38t51 15.5zM904 1156q-7 -10 -19 -1l-120 93l-77 -106q-4 -5 -8.5 -5.5t-7.5 1.5l-128 98q-4 3 -5 5t3 7l80 115q6 10 15 4l121 -92l82 105q4 5 6 5.5t6 -2.5l128 -106q5 -6 0 -14
l-76 -107v0z" />
    <glyph glyph-name="uniFCA1" unicode="&#xfca3;" horiz-adv-x="1316" arabic-form="initial" 
d="M825 1001q22 0 41 -12.5t32 -34t20.5 -50t7.5 -59.5q1 -29 -2 -58.5t-8.5 -56t-13 -48.5t-15.5 -37q-15 -25 -22 2q-3 18 -4.5 52t-7 67t-17 58t-35.5 26q-22 1 -43 -9.5t-41.5 -28.5t-40.5 -42t-40 -51q-59 -78 -126.5 -142t-160.5 -103q-4 -3 0 -4q65 -11 126 -20.5
t121 -18t120.5 -16.5t124.5 -15q85 -11 180.5 -15.5t183.5 -9.5q9 -1 10.5 -4t-2.5 -10q-4 -8 -13 -25t-19.5 -36.5t-21 -37.5t-18.5 -28q-5 -5 -11.5 -6.5t-18.5 0.5q-104 20 -200 9t-186 -35q-48 -13 -96.5 -33t-101 -42.5t-109.5 -45t-121.5 -40.5t-138 -29.5
t-158.5 -11.5h-18q-32 0 -48.5 24.5t-16.5 54t16.5 54t48.5 24.5h18q34 0 88.5 2t128.5 13.5t168 37.5t206 74q-50 9 -113.5 20.5t-130.5 22.5t-131.5 20t-114.5 13q-6 0 -19 -2.5t-26 -8.5q-5 -3 -11.5 1.5t-4.5 13.5q5 21 15 43.5t24.5 43t32 37t37.5 25.5q36 18 72 33.5
t70 30.5t66.5 31.5t62.5 36.5q72 47 125.5 99t103.5 112q15 19 34.5 44t42.5 47.5t48 38t51 15.5zM298 974q5 -4 4 -8t-3 -7l-83 -104q-6 -9 -17 -1l-124 102q-7 6 0 16l84 103q6 8 15 2zM901 1214q-7 -10 -19 -1l-120 93l-77 -106q-4 -5 -8.5 -5.5t-7.5 1.5l-128 98
q-4 3 -5 5t3 7l80 115q6 10 15 4l121 -92l82 105q4 5 6 5.5t6 -2.5l128 -106q5 -6 0 -14l-76 -107v0z" />
    <glyph glyph-name="uniFCD5" unicode="&#xfca4;" horiz-adv-x="785" arabic-form="initial" 
d="M291 445q0 -29 14 -59t37.5 -58.5t54 -54.5t63 -47.5t64 -37.5t58.5 -25q19 -6 26.5 -31.5t7 -55t-7 -56t-16.5 -35.5q-9 -6 -16 -4q-27 13 -59.5 26.5t-67 24t-68 17t-63.5 6.5q-38 0 -72.5 -8.5t-70 -18.5t-73.5 -18.5t-83 -8.5h-19q-20 0 -34 11.5t-21 29t-7 37.5
t7 37.5t20.5 29t34.5 11.5h19q47 0 104 9t126 38q-14 88 -3.5 175t43.5 156.5t87.5 112.5t129.5 44q43 0 72.5 -14.5t47.5 -34t26 -38.5t8 -28q0 -32 -10 -52.5t-27 -36.5q-6 10 -18 22.5t-30 24t-42.5 19t-56.5 7.5q-31 0 -64 -4.5t-60 -17.5t-44 -35.5t-17 -58.5zM599 931
q-7 -10 -19 -1l-120 93l-77 -106q-4 -5 -8.5 -5.5t-7.5 1.5l-128 98q-4 3 -5 5t3 7l80 115q6 10 15 4l121 -92l82 105q4 5 6 5.5t6 -2.5l128 -106q5 -6 0 -14l-76 -107v0z" />
    <glyph glyph-name="uniFCDD" unicode="&#xfca6;" horiz-adv-x="785" arabic-form="initial" 
d="M291 445q0 -29 14 -59t37.5 -58.5t54 -54.5t63 -47.5t64 -37.5t58.5 -25q19 -6 26.5 -31.5t7 -55t-7 -56t-16.5 -35.5q-9 -6 -16 -4q-27 13 -59.5 26.5t-67 24t-68 17t-63.5 6.5q-38 0 -72.5 -8.5t-70 -18.5t-73.5 -18.5t-83 -8.5h-19q-20 0 -34 11.5t-21 29t-7 37.5
t7 37.5t20.5 29t34.5 11.5h19q47 0 104 9t126 38q-14 88 -3.5 175t43.5 156.5t87.5 112.5t129.5 44q43 0 72.5 -14.5t47.5 -34t26 -38.5t8 -28q0 -32 -10 -52.5t-27 -36.5q-6 10 -18 22.5t-30 24t-42.5 19t-56.5 7.5q-31 0 -64 -4.5t-60 -17.5t-44 -35.5t-17 -58.5zM584 866
q-3 -5 -8.5 -4.5t-10.5 3.5l-118 92l-76 -105q-3 -5 -8 -5.5t-8 1.5l-126 97q-4 3 -5 5t3 7l79 113q4 5 7 6.5t8 -2.5l119 -91l81 104q4 5 5.5 5.5t6.5 -2.5l126 -105q8 -5 0 -14zM517 1187q5 -4 4 -8t-3 -7l-82 -102q-6 -9 -17 -1l-123 100q-7 6 0 16l83 101q6 8 15 2z" />
    <glyph glyph-name="uniFC42" unicode="&#xfcc9;" horiz-adv-x="1304" arabic-form="initial" 
d="M123 534q26 -1 67 -0.5t88.5 2.5t96 6t89.5 11t69.5 17t35.5 24q-7 70 -13 125.5t-12.5 103.5t-13 91.5t-14 91t-16.5 102.5t-19 124q-6 42 -15.5 82.5t-32.5 78.5q-8 11 -9 14.5t5 15.5q17 29 34.5 59.5t31.5 55.5q3 9 8 11t8 -11q8 -24 18 -49t23.5 -49t31.5 -44.5
t41 -34.5q-14 -24 -24.5 -41.5t-17.5 -32t-10 -28t-1 -28.5q7 -64 14 -113.5t13.5 -92t12.5 -81t11 -80.5t8.5 -92t5.5 -114q0 -22 -7.5 -50.5t-19.5 -57.5t-28 -55t-33 -41l112 -18t119 -17q49 -6 103 -11.5t109 -10.5t109.5 -8.5t104.5 -5.5q15 -2 8 -15q-4 -8 -13 -25
t-19.5 -36.5t-21.5 -37.5t-19 -28q-7 -9 -29 -5q-105 20 -197.5 9.5t-182.5 -37.5q-79 -25 -147 -55.5t-135 -56.5q-49 -20 -98.5 -37.5t-104 -30.5t-115.5 -20.5t-132 -7.5h-18q-32 0 -47.5 24.5t-15.5 54t15.5 54t47.5 24.5h18q92 0 164 8.5t138 23.5q66 14 138.5 42
t157.5 61q-49 8 -113 19t-131 21.5t-131 19.5t-114 13q-7 1 -20 -1.5t-26 -8.5q-5 -3 -11.5 1t-3.5 13q6 26 12 50t14 45.5t20 39t29 30.5zM746 -168q5 -4 4 -8t-3 -7l-83 -104q-6 -9 -17 -1l-124 102q-7 6 0 16l84 103q6 8 15 2z" />
    <glyph glyph-name="uniFCCC" unicode="&#xfcca;" horiz-adv-x="1304" arabic-form="initial" 
d="M123 534q26 -1 67 -0.5t88.5 2.5t96 6t89.5 11t69.5 17t35.5 24q-7 70 -13 125.5t-12.5 103.5t-13 91.5t-14 91t-16.5 102.5t-19 124q-6 42 -15.5 82.5t-32.5 78.5q-8 11 -9 14.5t5 15.5q17 29 34.5 59.5t31.5 55.5q3 9 8 11t8 -11q8 -24 18 -49t23.5 -49t31.5 -44.5
t41 -34.5q-14 -24 -24.5 -41.5t-17.5 -32t-10 -28t-1 -28.5q7 -64 14 -113.5t13.5 -92t12.5 -81t11 -80.5t8.5 -92t5.5 -114q0 -22 -7.5 -50.5t-19.5 -57.5t-28 -55t-33 -41l112 -18t119 -17q49 -6 103 -11.5t109 -10.5t109.5 -8.5t104.5 -5.5q15 -2 8 -15q-4 -8 -13 -25
t-19.5 -36.5t-21.5 -37.5t-19 -28q-7 -9 -29 -5q-105 20 -197.5 9.5t-182.5 -37.5q-79 -25 -147 -55.5t-135 -56.5q-49 -20 -98.5 -37.5t-104 -30.5t-115.5 -20.5t-132 -7.5h-18q-32 0 -47.5 24.5t-15.5 54t15.5 54t47.5 24.5h18q92 0 164 8.5t138 23.5q66 14 138.5 42
t157.5 61q-49 8 -113 19t-131 21.5t-131 19.5t-114 13q-7 1 -20 -1.5t-26 -8.5q-5 -3 -11.5 1t-3.5 13q6 26 12 50t14 45.5t20 39t29 30.5z" />
    <glyph glyph-name="uniFCCA" unicode="&#xfccb;" horiz-adv-x="1304" arabic-form="initial" 
d="M123 534q26 -1 67 -0.5t88.5 2.5t96 6t89.5 11t69.5 17t35.5 24q-7 70 -13 125.5t-12.5 103.5t-13 91.5t-14 91t-16.5 102.5t-19 124q-6 42 -15.5 82.5t-32.5 78.5q-8 11 -9 14.5t5 15.5q17 29 34.5 59.5t31.5 55.5q3 9 8 11t8 -11q8 -24 18 -49t23.5 -49t31.5 -44.5
t41 -34.5q-14 -24 -24.5 -41.5t-17.5 -32t-10 -28t-1 -28.5q7 -64 14 -113.5t13.5 -92t12.5 -81t11 -80.5t8.5 -92t5.5 -114q0 -22 -7.5 -50.5t-19.5 -57.5t-28 -55t-33 -41l112 -18t119 -17q49 -6 103 -11.5t109 -10.5t109.5 -8.5t104.5 -5.5q15 -2 8 -15q-4 -8 -13 -25
t-19.5 -36.5t-21.5 -37.5t-19 -28q-7 -9 -29 -5q-105 20 -197.5 9.5t-182.5 -37.5q-79 -25 -147 -55.5t-135 -56.5q-49 -20 -98.5 -37.5t-104 -30.5t-115.5 -20.5t-132 -7.5h-18q-32 0 -47.5 24.5t-15.5 54t15.5 54t47.5 24.5h18q92 0 164 8.5t138 23.5q66 14 138.5 42
t157.5 61q-49 8 -113 19t-131 21.5t-131 19.5t-114 13q-7 1 -20 -1.5t-26 -8.5q-5 -3 -11.5 1t-3.5 13q6 26 12 50t14 45.5t20 39t29 30.5zM323 986q5 -4 4 -8t-3 -7l-83 -104q-6 -9 -17 -1l-124 102q-7 6 0 16l84 103q6 8 15 2z" />
    <glyph glyph-name="uniFC86" unicode="&#xfccc;" horiz-adv-x="678" arabic-form="initial" 
d="M340 273q13 -27 43 -44.5t66 -29.5t72 -20t61 -16q19 -5 26.5 -30t7 -55t-7 -57t-16.5 -36q-9 -6 -16 -4q-27 13 -59.5 26.5t-67 24t-68 17t-63.5 6.5q-38 0 -72.5 -8.5t-70 -18.5t-73.5 -18.5t-83 -8.5h-19q-20 0 -34 11.5t-21 29t-7 37.5t7 37.5t20.5 29t34.5 11.5h19
q47 0 104.5 9t126.5 38q-9 85 -22 186t-28.5 209.5t-32 219.5t-31.5 215q-6 42 -15.5 82.5t-32.5 78.5q-8 11 -9 14.5t5 15.5q17 29 34.5 59.5t31.5 55.5q3 9 8 11t8 -11q8 -24 18 -49t23.5 -49t31.5 -44.5t41 -34.5q-14 -24 -24.5 -41.5t-17.5 -32t-10 -28t-1 -28.5
q18 -170 43 -340.5t46 -329.5q3 -24 8 -46t16 -44z" />
    <glyph glyph-name="uniFCD0" unicode="&#xfcce;" horiz-adv-x="1317" arabic-form="initial" 
d="M0 157q92 0 164 8.5t138 23.5q66 14 138.5 42t157.5 61q-49 8 -113 19t-131 21.5t-131 19.5t-114 13q-7 1 -20 -1.5t-26 -8.5q-5 -3 -11.5 1t-3.5 13q8 37 23 65.5t35.5 53t45 45.5t51.5 43q91 75 200.5 127.5t237.5 81.5q-11 8 -19.5 14t-17.5 14q-3 7 1.5 24.5t14 39.5
t21.5 46t24.5 44.5t23 35.5t16.5 19q28 -2 65.5 -12t74 -26.5t66 -38t41.5 -45.5q11 -23 11 -53.5t-10.5 -60t-32 -54t-52.5 -34.5q-74 -22 -153 -37.5t-156.5 -34.5t-151 -48t-136.5 -78q73 -12 136.5 -23t124 -20.5l121 -19t127.5 -18.5q49 -6 103 -11.5t109 -10.5
t109.5 -8.5t104.5 -5.5q15 -2 8 -15q-4 -8 -13 -25t-19.5 -36.5t-21.5 -37.5t-19 -28q-7 -9 -29 -5q-105 20 -197.5 9.5t-182.5 -37.5q-79 -25 -147 -55.5t-135 -56.5q-49 -20 -98.5 -37.5t-104 -30.5t-115.5 -20.5t-132 -7.5h-18q-32 0 -47.5 24.5t-15.5 54t15.5 54
t47.5 24.5h18zM532 -241q5 -4 4 -8t-3 -7l-83 -104q-6 -9 -17 -1l-124 102q-7 6 0 16l84 103q6 8 15 2z" />
    <glyph glyph-name="glyph295" unicode="&#xfccf;" horiz-adv-x="1317" arabic-form="initial" 
d="M0 157q92 0 164 8.5t138 23.5q66 14 138.5 42t157.5 61q-49 8 -113 19t-131 21.5t-131 19.5t-114 13q-7 1 -20 -1.5t-26 -8.5q-5 -3 -11.5 1t-3.5 13q8 37 23 65.5t35.5 53t45 45.5t51.5 43q91 75 200.5 127.5t237.5 81.5q-11 8 -19.5 14t-17.5 14q-3 7 1.5 24.5t14 39.5
t21.5 46t24.5 44.5t23 35.5t16.5 19q28 -2 65.5 -12t74 -26.5t66 -38t41.5 -45.5q11 -23 11 -53.5t-10.5 -60t-32 -54t-52.5 -34.5q-74 -22 -153 -37.5t-156.5 -34.5t-151 -48t-136.5 -78q73 -12 136.5 -23t124 -20.5l121 -19t127.5 -18.5q49 -6 103 -11.5t109 -10.5
t109.5 -8.5t104.5 -5.5q15 -2 8 -15q-4 -8 -13 -25t-19.5 -36.5t-21.5 -37.5t-19 -28q-7 -9 -29 -5q-105 20 -197.5 9.5t-182.5 -37.5q-79 -25 -147 -55.5t-135 -56.5q-49 -20 -98.5 -37.5t-104 -30.5t-115.5 -20.5t-132 -7.5h-18q-32 0 -47.5 24.5t-15.5 54t15.5 54
t47.5 24.5h18z" />
    <glyph glyph-name=".notdef.268" unicode="&#xfcd0;" horiz-adv-x="1317" arabic-form="initial" 
d="M0 157q92 0 164 8.5t138 23.5q66 14 138.5 42t157.5 61q-49 8 -113 19t-131 21.5t-131 19.5t-114 13q-7 1 -20 -1.5t-26 -8.5q-5 -3 -11.5 1t-3.5 13q8 37 23 65.5t35.5 53t45 45.5t51.5 43q91 75 200.5 127.5t237.5 81.5q-11 8 -19.5 14t-17.5 14q-3 7 1.5 24.5t14 39.5
t21.5 46t24.5 44.5t23 35.5t16.5 19q28 -2 65.5 -12t74 -26.5t66 -38t41.5 -45.5q11 -23 11 -53.5t-10.5 -60t-32 -54t-52.5 -34.5q-74 -22 -153 -37.5t-156.5 -34.5t-151 -48t-136.5 -78q73 -12 136.5 -23t124 -20.5l121 -19t127.5 -18.5q49 -6 103 -11.5t109 -10.5
t109.5 -8.5t104.5 -5.5q15 -2 8 -15q-4 -8 -13 -25t-19.5 -36.5t-21.5 -37.5t-19 -28q-7 -9 -29 -5q-105 20 -197.5 9.5t-182.5 -37.5q-79 -25 -147 -55.5t-135 -56.5q-49 -20 -98.5 -37.5t-104 -30.5t-115.5 -20.5t-132 -7.5h-18q-32 0 -47.5 24.5t-15.5 54t15.5 54
t47.5 24.5h18zM317 952q5 -4 4 -8t-3 -7l-83 -104q-6 -9 -17 -1l-124 102q-7 6 0 16l84 103q6 8 15 2z" />
    <glyph glyph-name="uniFC9D" unicode="&#xfcd2;" horiz-adv-x="1316" arabic-form="initial" 
d="M825 1001q22 0 41 -12.5t32 -34t20.5 -50t7.5 -59.5q1 -29 -2 -58.5t-8.5 -56t-13 -48.5t-15.5 -37q-15 -25 -22 2q-3 18 -4.5 52t-7 67t-17 58t-35.5 26q-22 1 -43 -9.5t-41.5 -28.5t-40.5 -42t-40 -51q-59 -78 -126.5 -142t-160.5 -103q-4 -3 0 -4q65 -11 126 -20.5
t121 -18t120.5 -16.5t124.5 -15q85 -11 180.5 -15.5t183.5 -9.5q9 -1 10.5 -4t-2.5 -10q-4 -8 -13 -25t-19.5 -36.5t-21 -37.5t-18.5 -28q-5 -5 -11.5 -6.5t-18.5 0.5q-104 20 -200 9t-186 -35q-48 -13 -96.5 -33t-101 -42.5t-109.5 -45t-121.5 -40.5t-138 -29.5
t-158.5 -11.5h-18q-32 0 -48.5 24.5t-16.5 54t16.5 54t48.5 24.5h18q34 0 88.5 2t128.5 13.5t168 37.5t206 74q-50 9 -113.5 20.5t-130.5 22.5t-131.5 20t-114.5 13q-6 0 -19 -2.5t-26 -8.5q-5 -3 -11.5 1.5t-4.5 13.5q5 21 15 43.5t24.5 43t32 37t37.5 25.5q36 18 72 33.5
t70 30.5t66.5 31.5t62.5 36.5q72 47 125.5 99t103.5 112q15 19 34.5 44t42.5 47.5t48 38t51 15.5zM592 -196q5 -4 4 -8t-3 -7l-83 -104q-6 -9 -17 -1l-124 102q-7 6 0 16l84 103q6 8 15 2zM869 1301q5 -4 4 -8t-3 -7l-83 -104q-6 -9 -17 -1l-124 102q-7 6 0 16l84 103
q6 8 15 2z" />
    <glyph glyph-name="uniFCA3" unicode="&#xfcd3;" horiz-adv-x="1316" arabic-form="initial" 
d="M825 1001q22 0 41 -12.5t32 -34t20.5 -50t7.5 -59.5q1 -29 -2 -58.5t-8.5 -56t-13 -48.5t-15.5 -37q-15 -25 -22 2q-3 18 -4.5 52t-7 67t-17 58t-35.5 26q-22 1 -43 -9.5t-41.5 -28.5t-40.5 -42t-40 -51q-59 -78 -126.5 -142t-160.5 -103q-4 -3 0 -4q65 -11 126 -20.5
t121 -18t120.5 -16.5t124.5 -15q85 -11 180.5 -15.5t183.5 -9.5q9 -1 10.5 -4t-2.5 -10q-4 -8 -13 -25t-19.5 -36.5t-21 -37.5t-18.5 -28q-5 -5 -11.5 -6.5t-18.5 0.5q-104 20 -200 9t-186 -35q-48 -13 -96.5 -33t-101 -42.5t-109.5 -45t-121.5 -40.5t-138 -29.5
t-158.5 -11.5h-18q-32 0 -48.5 24.5t-16.5 54t16.5 54t48.5 24.5h18q34 0 88.5 2t128.5 13.5t168 37.5t206 74q-50 9 -113.5 20.5t-130.5 22.5t-131.5 20t-114.5 13q-6 0 -19 -2.5t-26 -8.5q-5 -3 -11.5 1.5t-4.5 13.5q5 21 15 43.5t24.5 43t32 37t37.5 25.5q36 18 72 33.5
t70 30.5t66.5 31.5t62.5 36.5q72 47 125.5 99t103.5 112q15 19 34.5 44t42.5 47.5t48 38t51 15.5zM877 1366q5 -4 4 -8t-3 -7l-83 -104q-6 -9 -17 -1l-124 102q-7 6 0 16l84 103q6 8 15 2z" />
    <glyph glyph-name="uniFC9F" unicode="&#xfcd4;" horiz-adv-x="1316" arabic-form="initial" 
d="M825 1001q22 0 41 -12.5t32 -34t20.5 -50t7.5 -59.5q1 -29 -2 -58.5t-8.5 -56t-13 -48.5t-15.5 -37q-15 -25 -22 2q-3 18 -4.5 52t-7 67t-17 58t-35.5 26q-22 1 -43 -9.5t-41.5 -28.5t-40.5 -42t-40 -51q-59 -78 -126.5 -142t-160.5 -103q-4 -3 0 -4q65 -11 126 -20.5
t121 -18t120.5 -16.5t124.5 -15q85 -11 180.5 -15.5t183.5 -9.5q9 -1 10.5 -4t-2.5 -10q-4 -8 -13 -25t-19.5 -36.5t-21 -37.5t-18.5 -28q-5 -5 -11.5 -6.5t-18.5 0.5q-104 20 -200 9t-186 -35q-48 -13 -96.5 -33t-101 -42.5t-109.5 -45t-121.5 -40.5t-138 -29.5
t-158.5 -11.5h-18q-32 0 -48.5 24.5t-16.5 54t16.5 54t48.5 24.5h18q34 0 88.5 2t128.5 13.5t168 37.5t206 74q-50 9 -113.5 20.5t-130.5 22.5t-131.5 20t-114.5 13q-6 0 -19 -2.5t-26 -8.5q-5 -3 -11.5 1.5t-4.5 13.5q5 21 15 43.5t24.5 43t32 37t37.5 25.5q36 18 72 33.5
t70 30.5t66.5 31.5t62.5 36.5q72 47 125.5 99t103.5 112q15 19 34.5 44t42.5 47.5t48 38t51 15.5zM289 973q5 -4 4 -8t-3 -7l-83 -104q-6 -9 -17 -1l-124 102q-7 6 0 16l84 103q6 8 15 2zM866 1294q5 -4 4 -8t-3 -7l-83 -104q-6 -9 -17 -1l-124 102q-7 6 0 16l84 103
q6 8 15 2z" />
    <glyph glyph-name="uniFC45" unicode="&#xfcd5;" horiz-adv-x="785" arabic-form="initial" 
d="M291 445q0 -29 14 -59t37.5 -58.5t54 -54.5t63 -47.5t64 -37.5t58.5 -25q19 -6 26.5 -31.5t7 -55t-7 -56t-16.5 -35.5q-9 -6 -16 -4q-27 13 -59.5 26.5t-67 24t-68 17t-63.5 6.5q-38 0 -72.5 -8.5t-70 -18.5t-73.5 -18.5t-83 -8.5h-19q-20 0 -34 11.5t-21 29t-7 37.5
t7 37.5t20.5 29t34.5 11.5h19q47 0 104 9t126 38q-14 88 -3.5 175t43.5 156.5t87.5 112.5t129.5 44q43 0 72.5 -14.5t47.5 -34t26 -38.5t8 -28q0 -32 -10 -52.5t-27 -36.5q-6 10 -18 22.5t-30 24t-42.5 19t-56.5 7.5q-31 0 -64 -4.5t-60 -17.5t-44 -35.5t-17 -58.5z
M571 1038q5 -4 4 -8t-3 -7l-83 -104q-6 -9 -17 -1l-124 102q-7 6 0 16l84 103q6 8 15 2z" />
    <glyph glyph-name="uniFCA2" unicode="&#xfcda;" horiz-adv-x="1316" arabic-form="initial" 
d="M825 1001q22 0 41 -12.5t32 -34t20.5 -50t7.5 -59.5q1 -29 -2 -58.5t-8.5 -56t-13 -48.5t-15.5 -37q-15 -25 -22 2q-3 18 -4.5 52t-7 67t-17 58t-35.5 26q-22 1 -43 -9.5t-41.5 -28.5t-40.5 -42t-40 -51q-59 -78 -126.5 -142t-160.5 -103q-4 -3 0 -4q65 -11 126 -20.5
t121 -18t120.5 -16.5t124.5 -15q85 -11 180.5 -15.5t183.5 -9.5q9 -1 10.5 -4t-2.5 -10q-4 -8 -13 -25t-19.5 -36.5t-21 -37.5t-18.5 -28q-5 -5 -11.5 -6.5t-18.5 0.5q-104 20 -200 9t-186 -35q-48 -13 -96.5 -33t-101 -42.5t-109.5 -45t-121.5 -40.5t-138 -29.5
t-158.5 -11.5h-18q-32 0 -48.5 24.5t-16.5 54t16.5 54t48.5 24.5h18q34 0 88.5 2t128.5 13.5t168 37.5t206 74q-50 9 -113.5 20.5t-130.5 22.5t-131.5 20t-114.5 13q-6 0 -19 -2.5t-26 -8.5q-5 -3 -11.5 1.5t-4.5 13.5q5 21 15 43.5t24.5 43t32 37t37.5 25.5q36 18 72 33.5
t70 30.5t66.5 31.5t62.5 36.5q72 47 125.5 99t103.5 112q15 19 34.5 44t42.5 47.5t48 38t51 15.5zM495 -229q5 -4 4 -8t-3 -7l-83 -104q-6 -9 -17 -1l-124 102q-7 6 0 16l84 103q6 8 15 2zM1093 -213q-7 -10 -19 -1l-120 93l-77 -106q-4 -5 -8.5 -5.5t-7.5 1.5l-128 98
q-4 3 -5 5t3 7l80 115q6 10 15 4l121 -92l82 105q4 5 6 5.5t6 -2.5l128 -106q5 -6 0 -14l-76 -107v0z" />
    <glyph glyph-name="uniFC9C" unicode="&#xfcdb;" horiz-adv-x="1316" arabic-form="initial" 
d="M825 1001q22 0 41 -12.5t32 -34t20.5 -50t7.5 -59.5q1 -29 -2 -58.5t-8.5 -56t-13 -48.5t-15.5 -37q-15 -25 -22 2q-3 18 -4.5 52t-7 67t-17 58t-35.5 26q-22 1 -43 -9.5t-41.5 -28.5t-40.5 -42t-40 -51q-59 -78 -126.5 -142t-160.5 -103q-4 -3 0 -4q65 -11 126 -20.5
t121 -18t120.5 -16.5t124.5 -15q85 -11 180.5 -15.5t183.5 -9.5q9 -1 10.5 -4t-2.5 -10q-4 -8 -13 -25t-19.5 -36.5t-21 -37.5t-18.5 -28q-5 -5 -11.5 -6.5t-18.5 0.5q-104 20 -200 9t-186 -35q-48 -13 -96.5 -33t-101 -42.5t-109.5 -45t-121.5 -40.5t-138 -29.5
t-158.5 -11.5h-18q-32 0 -48.5 24.5t-16.5 54t16.5 54t48.5 24.5h18q34 0 88.5 2t128.5 13.5t168 37.5t206 74q-50 9 -113.5 20.5t-130.5 22.5t-131.5 20t-114.5 13q-6 0 -19 -2.5t-26 -8.5q-5 -3 -11.5 1.5t-4.5 13.5q5 21 15 43.5t24.5 43t32 37t37.5 25.5q36 18 72 33.5
t70 30.5t66.5 31.5t62.5 36.5q72 47 125.5 99t103.5 112q15 19 34.5 44t42.5 47.5t48 38t51 15.5zM1109 -232q-7 -10 -19 -1l-120 93l-77 -106q-4 -5 -8.5 -5.5t-7.5 1.5l-128 98q-4 3 -5 5t3 7l80 115q6 10 15 4l121 -92l82 105q4 5 6 5.5t6 -2.5l128 -106q5 -6 0 -14
l-76 -107v0z" />
    <glyph glyph-name="uniFCA4" unicode="&#xfcdc;" horiz-adv-x="1316" arabic-form="initial" 
d="M825 1001q22 0 41 -12.5t32 -34t20.5 -50t7.5 -59.5q1 -29 -2 -58.5t-8.5 -56t-13 -48.5t-15.5 -37q-15 -25 -22 2q-3 18 -4.5 52t-7 67t-17 58t-35.5 26q-22 1 -43 -9.5t-41.5 -28.5t-40.5 -42t-40 -51q-59 -78 -126.5 -142t-160.5 -103q-4 -3 0 -4q65 -11 126 -20.5
t121 -18t120.5 -16.5t124.5 -15q85 -11 180.5 -15.5t183.5 -9.5q9 -1 10.5 -4t-2.5 -10q-4 -8 -13 -25t-19.5 -36.5t-21 -37.5t-18.5 -28q-5 -5 -11.5 -6.5t-18.5 0.5q-104 20 -200 9t-186 -35q-48 -13 -96.5 -33t-101 -42.5t-109.5 -45t-121.5 -40.5t-138 -29.5
t-158.5 -11.5h-18q-32 0 -48.5 24.5t-16.5 54t16.5 54t48.5 24.5h18q34 0 88.5 2t128.5 13.5t168 37.5t206 74q-50 9 -113.5 20.5t-130.5 22.5t-131.5 20t-114.5 13q-6 0 -19 -2.5t-26 -8.5q-5 -3 -11.5 1.5t-4.5 13.5q5 21 15 43.5t24.5 43t32 37t37.5 25.5q36 18 72 33.5
t70 30.5t66.5 31.5t62.5 36.5q72 47 125.5 99t103.5 112q15 19 34.5 44t42.5 47.5t48 38t51 15.5zM283 906q5 -4 4 -8t-3 -7l-83 -104q-6 -9 -17 -1l-124 102q-7 6 0 16l84 103q6 8 15 2zM1142 -145q-7 -10 -19 -1l-120 93l-77 -106q-4 -5 -8.5 -5.5t-7.5 1.5l-128 98
q-4 3 -5 5t3 7l80 115q6 10 15 4l121 -92l82 105q4 5 6 5.5t6 -2.5l128 -106q5 -6 0 -14l-76 -107v0z" />
    <glyph glyph-name="uniFC46" unicode="&#xfcdd;" horiz-adv-x="785" arabic-form="initial" 
d="M291 445q0 -29 14 -59t37.5 -58.5t54 -54.5t63 -47.5t64 -37.5t58.5 -25q19 -6 26.5 -31.5t7 -55t-7 -56t-16.5 -35.5q-9 -6 -16 -4q-27 13 -59.5 26.5t-67 24t-68 17t-63.5 6.5q-38 0 -72.5 -8.5t-70 -18.5t-73.5 -18.5t-83 -8.5h-19q-20 0 -34 11.5t-21 29t-7 37.5
t7 37.5t20.5 29t34.5 11.5h19q47 0 104 9t126 38q-14 88 -3.5 175t43.5 156.5t87.5 112.5t129.5 44q43 0 72.5 -14.5t47.5 -34t26 -38.5t8 -28q0 -32 -10 -52.5t-27 -36.5q-6 10 -18 22.5t-30 24t-42.5 19t-56.5 7.5q-31 0 -64 -4.5t-60 -17.5t-44 -35.5t-17 -58.5z
M587 -370q-7 -10 -19 -1l-120 93l-77 -106q-4 -5 -8.5 -5.5t-7.5 1.5l-128 98q-4 3 -5 5t3 7l80 115q6 10 15 4l121 -92l82 105q4 5 6 5.5t6 -2.5l128 -106q5 -6 0 -14l-76 -107v0z" />
    <glyph glyph-name="hamzaisolated" unicode="&#x621;" horiz-adv-x="782" arabic-form="isolated" 
d="M187 99q16 16 51 32q17 8 31.5 15.5t25.5 13.5q-32 29 -56 57t-38 68q-13 40 6 74q19 33 47 67t62.5 62.5t73.5 46.5t79 18q18 0 31.5 -10t24 -25t18 -31.5t12.5 -29.5q11 -32 -2 -51q-2 -6 -8 -19t-14 -25.5t-17 -22t-18 -9.5q-8 0 -12 5.5t-7 14t-5 18t-5 17.5
q-8 19 -24.5 30t-36.5 9q-64 -1 -115 -45q17 -49 59 -91t95 -48q65 -10 131.5 2t132.5 27q2 -2 -4 -21.5t-15 -42t-18 -41.5t-12 -20q-60 -7 -119 -20t-119 -30q-29 -10 -63.5 -22.5t-72.5 -28.5q-37 -15 -70 -30t-62 -29q-10 0 -14 10q4 27 17 54.5t30 50.5z" />
    <glyph glyph-name="alefwithmaddaaboveisolated" unicode="&#x622;" horiz-adv-x="418" arabic-form="isolated" 
d="M187 1298q7 0 10 -4.5t4.5 -10.5t1.5 -12v-10q-2 -38 1.5 -74t7.5 -73q11 -89 24 -183.5t26 -190.5t26 -191t24 -185q4 -35 5 -82t-2 -95.5t-10.5 -93t-21.5 -75.5q-6 -20 -18 -21q-7 0 -9 8q-6 87 -15 175.5t-22 179.5q-26 188 -51.5 375t-48.5 373q3 47 25 98
q12 29 22 51.5t21 40.5zM5.79883 1685q5.59961 6 13.1992 5t11.5996 -3q26.4004 -12 50 -22.5t47.5986 -18q24 -7.5 49.5996 -11t55.1992 -2.5q79.1982 2 142.798 29q63.5986 27 122.798 81q-14.3994 -56 -45.999 -98t-72.7988 -70t-88.3984 -42.5
q-47.2002 -14.5 -91.1992 -15.5q-29.5996 -1 -53.1992 2.5t-44.3994 11t-39.999 17q-19.2002 9.5 -39.1992 20.5q-6.40039 3 -9.60059 2.5q-3.19922 -0.5 -7.19922 -4.5q-8 -7 -16 -20.5t-15.2002 -27q-7.19922 -13.5 -13.1992 -23.5t-10 -10q-7.2002 0 -9.59961 4.5
q-2.40039 4.5 -2.40039 14.5q0 16 7.2002 41t17.5996 51.5t21.5996 50.5t19.2002 38z" />
    <glyph glyph-name="alefwithmaddaabovefinal" unicode="&#x622;" horiz-adv-x="713" arabic-form="final" 
d="M65.7988 1683q5.59961 6 13.1992 5t11.5996 -3q26.4004 -12 50 -22.5t47.5986 -18q24 -7.5 49.5996 -11t55.1992 -2.5q79.1982 2 142.798 29q63.5986 27 122.798 81q-14.3994 -56 -45.999 -98t-72.7988 -70t-88.3984 -42.5q-47.2002 -14.5 -91.1992 -15.5
q-29.5996 -1 -53.1992 2.5t-44.3994 11t-39.999 17q-19.2002 9.5 -39.1992 20.5q-6.40039 3 -9.60059 2.5q-3.19922 -0.5 -7.19922 -4.5q-8 -7 -16 -20.5t-15.2002 -27q-7.19922 -13.5 -13.1992 -23.5t-10 -10q-7.2002 0 -9.59961 4.5q-2.40039 4.5 -2.40039 14.5
q0 16 7.2002 41t17.5996 51.5t21.5996 50.5t19.2002 38zM261 1173q7 37 22.5 70.5t30.5 68.5q2 5 7.5 5.5t7.5 -5.5q13 -57 25 -115.5t22.5 -126.5t20.5 -148.5t19 -182.5q7 -76 12.5 -132t10.5 -100t10.5 -81t12.5 -75q18 -102 68.5 -148t151.5 -46h13q31 0 47 -24.5
t16 -54t-16 -54t-47 -24.5h-13q-77 0 -130.5 25t-88.5 67.5t-54.5 99.5t-28.5 121q-8 58 -15 119.5t-13 121t-11 115t-10 102.5q-11 91 -25 183t-43 197q-2 9 -3 12.5t1 9.5z" />
    <glyph glyph-name="alefwithhamzaaboveisolated" unicode="&#x623;" horiz-adv-x="418" arabic-form="isolated" 
d="M187 1311q7 0 10 -4.5t4.5 -10.5t1.5 -12v-10q-2 -38 1.5 -74t7.5 -73q11 -89 24 -183.5t26 -190.5t26 -191t24 -185q4 -35 5 -82t-2 -95.5t-10.5 -93t-21.5 -75.5q-6 -20 -18 -21q-7 0 -9 8q-6 87 -15 175.5t-22 179.5q-26 188 -51.5 375t-48.5 373q3 47 25 98
q12 29 22 51.5t21 40.5zM-13 1360q7 5 17.5 11t22.5 12t23.5 12t20.5 12q-24 18 -42 39.5t-31 54.5q-5 13 -2 28t11 27q16 24 36.5 49t45 45t52.5 33t58 13q12 0 22.5 -7.5t18.5 -18t14 -22.5t9 -22q6 -23 0 -38l-18 -33q-10 -22 -27 -22q-10 0 -12.5 12.5t-6.5 26.5
q-9 16 -20 22t-26 6q-49 0 -87 -35q14 -37 44.5 -67.5t70.5 -34.5q51 -6 98 3t98 20q1 -2 -3 -17t-10.5 -32.5t-13 -31.5t-9.5 -14q-42 -5 -85.5 -14t-91.5 -21q-48 -16 -100 -39t-97 -45q-9 0 -13 9q5 19 14 40.5t19 38.5z" />
    <glyph glyph-name="alefwithhamzaabovefinal" unicode="&#x623;" horiz-adv-x="601" arabic-form="final" 
d="M41 1393q7 5 17.5 11t22.5 12t23.5 12t20.5 12q-24 18 -42 39.5t-31 54.5q-5 13 -2 28t11 27q16 24 36.5 49t45 45t52.5 33t58 13q12 0 22.5 -7.5t18.5 -18t14 -22.5t9 -22q6 -23 0 -38l-18 -33q-10 -22 -27 -22q-10 0 -12.5 12.5t-6.5 26.5q-9 16 -20 22t-26 6
q-49 0 -87 -35q14 -37 44.5 -67.5t70.5 -34.5q51 -6 98 3t98 20q1 -2 -3 -17t-10.5 -32.5t-13 -31.5t-9.5 -14q-42 -5 -85.5 -14t-91.5 -21q-48 -16 -100 -39t-97 -45q-9 0 -13 9q5 19 14 40.5t19 38.5zM154 1173q7 37 22.5 70.5t30.5 68.5q2 5 7.5 5.5t7.5 -5.5
q13 -57 25 -115.5t22.5 -126.5t20.5 -148.5t19 -182.5q7 -76 12.5 -132t10.5 -100t10.5 -81t12.5 -75q18 -102 68.5 -148t151.5 -46h13q31 0 47 -24.5t16 -54t-16 -54t-47 -24.5h-13q-77 0 -130.5 25t-88.5 67.5t-54.5 99.5t-28.5 121q-8 58 -15 119.5t-13 121t-11 115
t-10 102.5q-11 91 -25 183t-43 197q-2 9 -3 12.5t1 9.5z" />
    <glyph glyph-name="wawwithhamzaaboveisolated" unicode="&#x624;" horiz-adv-x="820" arabic-form="isolated" 
d="M194 725q7 5 17.5 11t22.5 12t23.5 12t20.5 12q-24 18 -42 39.5t-31 54.5q-5 13 -2 28t11 27q16 24 36.5 49t45 45t52.5 33t58 13q12 0 22.5 -7.5t18.5 -18t14 -22.5t9 -22q6 -23 0 -38l-18 -33q-10 -22 -27 -22q-10 0 -12.5 12.5t-6.5 26.5q-9 16 -20 22t-26 6
q-49 0 -87 -35q14 -37 44.5 -67.5t70.5 -34.5q51 -6 98 3t98 20q1 -2 -3 -17t-10.5 -32.5t-13 -31.5t-9.5 -14q-42 -5 -85.5 -14t-91.5 -21q-48 -16 -100 -39t-97 -45q-9 0 -13 9q5 19 14 40.5t19 38.5zM572 271q0 7 -7.5 21.5t-20 29t-30 25.5t-36.5 11q-15 -1 -27 -11.5
t-20.5 -24t-13 -27.5t-4.5 -21q13 -20 36 -28t46 -8q26 2 47.5 12.5t29.5 20.5zM608 182q-14 -42 -51 -71t-91 -29q-27 0 -51.5 14t-42.5 36.5t-27.5 51.5t-6.5 59q2 21 9 49t18 57t25.5 58t32.5 51t38 36t42 14q39 0 73 -30.5t59 -78.5t39 -105.5t13 -111.5
q-1 -71 -18.5 -149t-46 -153t-66.5 -141t-80 -113q-39 -43 -87 -72.5t-100.5 -46.5t-108.5 -23.5t-110 -3.5q-61 4 -120 13t-113 27q-8 3 -10 10.5t1 15t11.5 12.5t22.5 4q81 -9 160.5 1t151.5 37q63 23 119 59t110 84q39 34 75 79t65.5 93.5t50 97.5t28.5 91q1 9 0 20.5
t-3 22.5t-5 20.5t-6 14.5z" />
    <glyph glyph-name="wawwithhamzaabovefinal" unicode="&#x624;" horiz-adv-x="774" arabic-form="final" 
d="M223 632q7 5 17.5 11t22.5 12t23.5 12t20.5 12q-24 18 -42 39.5t-31 54.5q-5 13 -2 28t11 27q16 24 36.5 49t45 45t52.5 33t58 13q12 0 22.5 -7.5t18.5 -18t14 -22.5t9 -22q6 -23 0 -38l-18 -33q-10 -22 -27 -22q-10 0 -12.5 12.5t-6.5 26.5q-9 16 -20 22t-26 6
q-49 0 -87 -35q14 -37 44.5 -67.5t70.5 -34.5q51 -6 98 3t98 20q1 -2 -3 -17t-10.5 -32.5t-13 -31.5t-9.5 -14q-42 -5 -85.5 -14t-91.5 -21q-48 -16 -100 -39t-97 -45q-9 0 -13 9q5 19 14 40.5t19 38.5zM459 254q-13 0 -26 -8.5t-23.5 -20t-17 -24t-6.5 -21.5
q6 -13 30.5 -19.5t54.5 -9t59.5 -2t44.5 2.5q0 4 -10.5 20t-27.5 33.5t-37.5 32t-40.5 16.5zM506 -3q-42 -2 -79.5 8t-65 32t-42 54.5t-9.5 75.5q2 18 10.5 43.5t21.5 52t30.5 52.5t37.5 47t42 33.5t44 12.5q35 0 65.5 -28t54 -68t38.5 -83.5t19 -74.5l80 3h19
q31 0 47 -24.5t16 -54t-15.5 -54t-47.5 -24.5h-19l-84 -1q-18 -85 -42 -164t-60.5 -145.5t-89 -117t-127.5 -77.5q-53 -15 -118.5 -20.5t-133 -2.5t-133 12.5t-119.5 24.5q-13 4 -17 12.5t-0.5 17t13 14.5t24.5 5q54 -5 114.5 -4t120.5 9.5t117 25t104 42.5q56 31 100.5 73
t79.5 90t60.5 100.5t43.5 104.5z" />
    <glyph glyph-name="alefwithhamzabelowisolated" unicode="&#x625;" horiz-adv-x="537" arabic-form="isolated" 
d="M102 -372q7 5 17.5 11t22.5 12t23.5 12t20.5 12q-24 18 -42 39.5t-31 54.5q-5 13 -2 28t11 27q16 24 36.5 49t45 45t52.5 33t58 13q12 0 22.5 -7.5t18.5 -18t14 -22.5t9 -22q6 -23 0 -38l-18 -33q-10 -22 -27 -22q-10 0 -12.5 12.5t-6.5 26.5q-9 16 -20 22t-26 6
q-49 0 -87 -35q14 -37 44.5 -67.5t70.5 -34.5q51 -6 98 3t98 20q1 -2 -3 -17t-10.5 -32.5t-13 -31.5t-9.5 -14q-42 -5 -85.5 -14t-91.5 -21q-48 -16 -100 -39t-97 -45q-9 0 -13 9q5 19 14 40.5t19 38.5zM187 1298q7 0 10 -4.5t4.5 -10.5t1.5 -12v-10q-2 -38 1.5 -74t7.5 -73
q11 -89 24 -183.5t26 -190.5t26 -191t24 -185q4 -35 5 -82t-2 -95.5t-10.5 -93t-21.5 -75.5q-6 -20 -18 -21q-7 0 -9 8q-6 87 -15 175.5t-22 179.5q-26 188 -51.5 375t-48.5 373q3 47 25 98q12 29 22 51.5t21 40.5z" />
    <glyph glyph-name="alefwithhamzabelowfinal" unicode="&#x625;" horiz-adv-x="538" arabic-form="final" 
d="M82 -474q7 5 17.5 11t22.5 12t23.5 12t20.5 12q-24 18 -42 39.5t-31 54.5q-5 13 -2 28t11 27q16 24 36.5 49t45 45t52.5 33t58 13q12 0 22.5 -7.5t18.5 -18t14 -22.5t9 -22q6 -23 0 -38l-18 -33q-10 -22 -27 -22q-10 0 -12.5 12.5t-6.5 26.5q-9 16 -20 22t-26 6
q-49 0 -87 -35q14 -37 44.5 -67.5t70.5 -34.5q51 -6 98 3t98 20q1 -2 -3 -17t-10.5 -32.5t-13 -31.5t-9.5 -14q-42 -5 -85.5 -14t-91.5 -21q-48 -16 -100 -39t-97 -45q-9 0 -13 9q5 19 14 40.5t19 38.5zM89 1173q7 37 22.5 70.5t30.5 68.5q2 5 7.5 5.5t7.5 -5.5
q13 -57 25 -115.5t22.5 -126.5t20.5 -148.5t19 -182.5q7 -76 12.5 -132t10.5 -100t10.5 -81t12.5 -75q18 -102 68.5 -148t151.5 -46h13q31 0 47 -24.5t16 -54t-16 -54t-47 -24.5h-13q-77 0 -130.5 25t-88.5 67.5t-54.5 99.5t-28.5 121q-8 58 -15 119.5t-13 121t-11 115
t-10 102.5q-11 91 -25 183t-43 197q-2 9 -3 12.5t1 9.5z" />
    <glyph glyph-name="yehwithhamzaaboveisolated" unicode="&#x626;" horiz-adv-x="1390" arabic-form="isolated" 
d="M119 616q7 5 17.5 11t22.5 12t23.5 12t20.5 12q-24 18 -42 39.5t-31 54.5q-5 13 -2 28t11 27q16 24 36.5 49t45 45t52.5 33t58 13q12 0 22.5 -7.5t18.5 -18t14 -22.5t9 -22q6 -23 0 -38l-18 -33q-10 -22 -27 -22q-10 0 -12.5 12.5t-6.5 26.5q-9 16 -20 22t-26 6
q-49 0 -87 -35q14 -37 44.5 -67.5t70.5 -34.5q51 -6 98 3t98 20q1 -2 -3 -17t-10.5 -32.5t-13 -31.5t-9.5 -14q-42 -5 -85.5 -14t-91.5 -21q-48 -16 -100 -39t-97 -45q-9 0 -13 9q5 19 14 40.5t19 38.5zM1170 -27q-68 -57 -144 -105t-158 -83t-170 -54.5t-179 -19.5
q-92 0 -173.5 25.5t-142.5 75t-97 123t-37 169.5q-4 106 31.5 205.5t95.5 187.5q11 14 18 4q7 -17 4 -20q-18 -44 -37 -89t-31.5 -91.5t-14 -94.5t15.5 -97q17 -59 49 -101.5t75.5 -71.5t95.5 -45t109 -22q82 -6 170.5 5.5t175 38t167 65t147.5 86.5q17 12 18 20.5t-6.5 15
t-19.5 10.5t-22 7q-54 14 -116 22.5t-119 17.5q-37 6 -71.5 21.5t-61.5 39t-44 54.5t-18 68q-2 47 10 93.5t33.5 91t51 86t63.5 79.5q36 39 76 72.5t81.5 56.5t83 33t80.5 1q43 -11 67 -40t33 -66t4 -76.5t-20 -72.5q-2 -4 -8 -3t-8 7q-6 15 -19 34t-30.5 36t-39.5 28.5
t-46 11.5q-48 -1 -99.5 -26t-98 -63.5t-83.5 -85.5t-55 -91q-17 -35 -7.5 -59t35.5 -42q33 -24 70 -37.5t74.5 -21.5t74.5 -12t70 -9q24 -4 51.5 -10t51.5 -16.5t41 -27t20 -41.5q3 -22 -1 -50.5t-13.5 -57t-23 -52.5t-29.5 -37z" />
    <glyph glyph-name="yehwithhamzaabovefinal" unicode="&#x626;" horiz-adv-x="1216" arabic-form="final" 
d="M777 -168q-3 40 9 71.5t30 62.5q30 52 72 88.5t92 59t105.5 33t112.5 10.5h19q32 0 48 -24.5t16 -54t-16 -54t-48 -24.5h-19q-38 0 -78 -3.5t-79.5 -10t-77 -16t-69.5 -21.5q-11 -3 -22.5 -12t-11.5 -23q0 -15 21.5 -27.5t50 -22.5t56.5 -16.5t40 -9.5q24 -5 50.5 -12.5
t49 -19t37.5 -27t17 -36.5q1 -15 -0.5 -33.5t-5 -37t-10.5 -36t-16 -30.5q-28 -41 -72.5 -78.5t-98.5 -69.5t-115 -58t-122 -44.5t-119 -28.5t-107 -10q-92 0 -173 26t-142.5 77t-98 125.5t-38.5 171.5q-3 106 31 203t97 185q10 13 17 3q8 -15 4 -20q-23 -47 -41 -96
t-28.5 -97t-10.5 -93.5t13 -85.5q19 -59 51.5 -102t75 -72.5t94 -46.5t108.5 -23q77 -8 157.5 2t159.5 35t154.5 62.5t141.5 85.5q20 14 12 22.5t-24 15.5q-36 15 -86.5 25.5t-96.5 24t-79.5 33.5t-36.5 54zM151 324q7 5 17.5 11t22.5 12t23.5 12t20.5 12q-24 18 -42 39.5
t-31 54.5q-5 13 -2 28t11 27q16 24 36.5 49t45 45t52.5 33t58 13q12 0 22.5 -7.5t18.5 -18t14 -22.5t9 -22q6 -23 0 -38l-18 -33q-10 -22 -27 -22q-10 0 -12.5 12.5t-6.5 26.5q-9 16 -20 22t-26 6q-49 0 -87 -35q14 -37 44.5 -67.5t70.5 -34.5q51 -6 98 3t98 20q1 -2 -3 -17
t-10.5 -32.5t-13 -31.5t-9.5 -14q-42 -5 -85.5 -14t-91.5 -21q-48 -16 -100 -39t-97 -45q-9 0 -13 9q5 19 14 40.5t19 38.5z" />
    <glyph glyph-name="yehwithhamzaaboveinitial" unicode="&#x626;" horiz-adv-x="571" arabic-form="initial" 
d="M36 672q7 5 17.5 11t22.5 12t23.5 12t20.5 12q-24 18 -42 39.5t-31 54.5q-5 13 -2 28t11 27q16 24 36.5 49t45 45t52.5 33t58 13q12 0 22.5 -7.5t18.5 -18t14 -22.5t9 -22q6 -23 0 -38l-18 -33q-10 -22 -27 -22q-10 0 -12.5 12.5t-6.5 26.5q-9 16 -20 22t-26 6
q-49 0 -87 -35q14 -37 44.5 -67.5t70.5 -34.5q51 -6 98 3t98 20q1 -2 -3 -17t-10.5 -32.5t-13 -31.5t-9.5 -14q-42 -5 -85.5 -14t-91.5 -21q-48 -16 -100 -39t-97 -45q-9 0 -13 9q5 19 14 40.5t19 38.5zM239 546q4 8 8 8.5t16 -10.5q27 -28 50.5 -61t41.5 -69t28.5 -74
t11.5 -76q0 -17 -2.5 -38.5t-7 -43t-11 -41t-15.5 -32.5q-23 -36 -66 -58t-94 -33t-103.5 -14.5t-94.5 -3.5h-18q-32 0 -47.5 24.5t-15.5 54t15.5 54t47.5 24.5h18q24 0 66 0.5t88.5 4t90.5 11.5t71 23q17 9 12 26q-17 55 -50.5 97.5t-75.5 84.5q8 35 17.5 71t18.5 71z" />
    <glyph glyph-name="yehwithhamzaabovemedial" unicode="&#x626;" horiz-adv-x="592" arabic-form="medial" 
d="M82 564q7 5 17.5 11t22.5 12t23.5 12t20.5 12q-24 18 -42 39.5t-31 54.5q-5 13 -2 28t11 27q16 24 36.5 49t45 45t52.5 33t58 13q12 0 22.5 -7.5t18.5 -18t14 -22.5t9 -22q6 -23 0 -38l-18 -33q-10 -22 -27 -22q-10 0 -12.5 12.5t-6.5 26.5q-9 16 -20 22t-26 6
q-49 0 -87 -35q14 -37 44.5 -67.5t70.5 -34.5q51 -6 98 3t98 20q1 -2 -3 -17t-10.5 -32.5t-13 -31.5t-9.5 -14q-42 -5 -85.5 -14t-91.5 -21q-48 -16 -100 -39t-97 -45q-9 0 -13 9q5 19 14 40.5t19 38.5zM344 364q1 -11 -2 -27.5t-3 -30.5q1 -26 14 -52.5t40 -48t69.5 -35
t102.5 -13.5h18q30 0 45 -24.5t15 -54t-15 -54t-45 -24.5h-18q-109 0 -176 42t-104 117q-25 -53 -61 -84.5t-75 -48t-78 -21.5t-70 -5h-18q-30 0 -45 24.5t-15 54t15 54t45 24.5h18q31 0 65 2.5t67.5 11.5t65.5 27.5t58 50.5q20 26 33 50.5t25 56.5q1 5 5.5 8t10 4t9.5 0
t4 -4z" />
    <glyph glyph-name="alefisolated" unicode="&#x627;" horiz-adv-x="438" arabic-form="isolated" 
d="M187 1298q7 0 10 -4.5t4.5 -10.5t1.5 -12v-10q-2 -38 1.5 -74t7.5 -73q11 -89 24 -183.5t26 -190.5t26 -191t24 -185q4 -35 5 -82t-2 -95.5t-10.5 -93t-21.5 -75.5q-6 -20 -18 -21q-7 0 -9 8q-6 87 -15 175.5t-22 179.5q-26 188 -51.5 375t-48.5 373q3 47 25 98
q12 29 22 51.5t21 40.5z" />
    <glyph glyph-name="aleffinal" unicode="&#x627;" horiz-adv-x="491" arabic-form="final" 
d="M59 1173q7 37 22.5 70.5t30.5 68.5q2 5 7.5 5.5t7.5 -5.5q13 -57 25 -115.5t22.5 -126.5t20.5 -148.5t19 -182.5q7 -76 12.5 -132t10.5 -100t10.5 -81t12.5 -75q18 -102 68.5 -148t151.5 -46h13q31 0 47 -24.5t16 -54t-16 -54t-47 -24.5h-13q-77 0 -130.5 25t-88.5 67.5
t-54.5 99.5t-28.5 121q-8 58 -15 119.5t-13 121t-11 115t-10 102.5q-11 91 -25 183t-43 197q-2 9 -3 12.5t1 9.5z" />
    <glyph glyph-name="behisolated" unicode="&#x628;" horiz-adv-x="1549" arabic-form="isolated" 
d="M1241 560q13 32 24.5 65.5t25.5 66.5q4 8 8 8.5t15 -10.5q55 -57 92.5 -128t41.5 -147q1 -20 0 -51.5t-7 -63.5t-17.5 -58.5t-31.5 -36.5q-112 -64 -229.5 -104.5t-246.5 -63.5q-129 -24 -252 -34.5t-255 3.5q-69 7 -131.5 31t-109 65t-74 99.5t-27.5 135.5q0 133 86 249
q13 18 24 4q9 -12 3 -26q-18 -30 -27.5 -64.5t-11 -70t5 -69.5t22.5 -62q27 -51 72 -80t99 -42.5t112.5 -16.5t112.5 -3q105 0 204.5 9.5t196.5 29t192.5 49.5t192.5 71q34 13 27 39q-18 60 -55 110.5t-82 95.5zM831 -350q5 -4 4 -8t-3 -7l-83 -104q-6 -9 -17 -1l-124 102
q-7 6 0 16l84 103q6 8 15 2z" />
    <glyph glyph-name="behfinal" unicode="&#x628;" horiz-adv-x="1632" arabic-form="final" 
d="M190 635q6 6 11 5t8 -4.5t4 -9t-1 -8.5q-30 -52 -49.5 -109t-11.5 -117q8 -74 51.5 -122t108 -76.5t141.5 -40.5t152 -14q218 -4 421 50t397 149q6 4 11 2t3 -9q-18 -67 20 -121q22 -32 62.5 -42.5t97.5 -10.5h18q31 0 46.5 -24.5t15.5 -54t-15.5 -54t-46.5 -24.5h-18
q-115 0 -178 42.5t-88 132.5q-92 -48 -183.5 -82.5t-185.5 -57.5t-192 -35.5t-201 -16.5q-53 -2 -112.5 4.5t-117 22.5t-110 43t-93 66.5t-64 92t-23.5 120.5q-1 96 32.5 170.5t89.5 132.5zM843 -428q5 -4 4 -8t-3 -7l-83 -104q-6 -9 -17 -1l-124 102q-7 6 0 16l84 103
q6 8 15 2z" />
    <glyph glyph-name="behinitial" unicode="&#x628;" horiz-adv-x="524" arabic-form="initial" 
d="M251 -335q5 -4 4 -8t-3 -7l-83 -104q-6 -9 -17 -1l-124 102q-7 6 0 16l84 103q6 8 15 2zM239 546q4 8 8 8.5t16 -10.5q27 -28 50.5 -61t41.5 -69t28.5 -74t11.5 -76q0 -17 -2.5 -38.5t-7 -43t-11 -41t-15.5 -32.5q-23 -36 -66 -58t-94 -33t-103.5 -14.5t-94.5 -3.5h-18
q-32 0 -47.5 24.5t-15.5 54t15.5 54t47.5 24.5h18q24 0 66 0.5t88.5 4t90.5 11.5t71 23q17 9 12 26q-17 55 -50.5 97.5t-75.5 84.5q8 35 17.5 71t18.5 71z" />
    <glyph glyph-name="behmedial" unicode="&#x628;" horiz-adv-x="592" arabic-form="medial" 
d="M345 -329q5 -4 4 -8t-3 -7l-83 -104q-6 -9 -17 -1l-124 102q-7 6 0 16l84 103q6 8 15 2zM344 364q1 -11 -2 -27.5t-3 -30.5q1 -26 14 -52.5t40 -48t69.5 -35t102.5 -13.5h18q30 0 45 -24.5t15 -54t-15 -54t-45 -24.5h-18q-109 0 -176 42t-104 117q-25 -53 -61 -84.5
t-75 -48t-78 -21.5t-70 -5h-18q-30 0 -45 24.5t-15 54t15 54t45 24.5h18q31 0 65 2.5t67.5 11.5t65.5 27.5t58 50.5q20 26 33 50.5t25 56.5q1 5 5.5 8t10 4t9.5 0t4 -4z" />
    <glyph glyph-name="tehmarbutaisolated" unicode="&#x629;" horiz-adv-x="560" arabic-form="isolated" 
d="M363 786q-7 -10 -19 -1l-120 93l-77 -106q-4 -5 -8.5 -5.5t-7.5 1.5l-128 98q-4 3 -5 5t3 7l80 115q6 10 15 4l121 -92l82 105q4 5 6 5.5t6 -2.5l128 -106q5 -6 0 -14l-76 -107v0zM181 371q-18 -32 -26 -62t-7 -56.5t11.5 -46.5t30.5 -31q18 -10 43.5 -13t53 2t54.5 19
t49 38q0 25 -24 51.5t-57.5 48.5t-69 36t-58.5 14zM137 405q-4 0 -5 1q-2 7 2.5 28t12 43t15 39.5t11.5 17.5q285 -43 281 -252q-1 -32 -9.5 -70t-25.5 -82q-11 -27 -30.5 -50t-45 -39.5t-54.5 -26t-58 -9.5q-49 0 -82 18.5t-51 49t-22.5 70.5t3.5 83q9 49 23.5 91t34.5 88z
" />
    <glyph glyph-name="tehmarbutafinal" unicode="&#x629;" horiz-adv-x="802" arabic-form="final" 
d="M402 1039q-7 -10 -19 -1l-120 93l-77 -106q-4 -5 -8.5 -5.5t-7.5 1.5l-128 98q-4 3 -5 5t3 7l80 115q6 10 15 4l121 -92l82 105q4 5 6 5.5t6 -2.5l128 -106q5 -6 0 -14l-76 -107v0zM407 525q-75 -22 -132.5 -59.5t-100.5 -97.5q-13 -15 -3 -25q30 -14 69.5 -14t78 8.5
t71 22t47.5 25.5q-8 36 -16 68.5t-14 71.5zM411 814q3 10 11 8t9 -8q4 -31 24 -145q11 -63 20 -106.5t14 -68.5q11 -49 23 -95t24 -80q17 -49 42 -80.5t55.5 -49.5t66 -25t73.5 -7h18q32 0 48 -24.5t16 -54t-16 -54t-48 -24.5h-18q-61 -1 -107 15.5t-80 43.5t-57 61.5
t-39 70.5q-16 45 -25.5 74.5t-14.5 45.5q-39 -49 -73.5 -76.5t-70 -40.5t-73 -15t-82.5 1q-15 1 -30 7t-27 16t-18.5 24t-4.5 32q9 58 30 106.5t47 86.5q42 60 100.5 101.5t143.5 74.5q-2 12 -5.5 32.5t-7.5 38.5q-2 8 1.5 22.5t9.5 31l12 33t9 28.5z" />
    <glyph glyph-name="tehisolated" unicode="&#x62a;" horiz-adv-x="1558" arabic-form="isolated" 
d="M843 728q-7 -10 -19 -1l-120 93l-77 -106q-4 -5 -8.5 -5.5t-7.5 1.5l-128 98q-4 3 -5 5t3 7l80 115q6 10 15 4l121 -92l82 105q4 5 6 5.5t6 -2.5l128 -106q5 -6 0 -14l-76 -107v0zM1241 560q13 32 24.5 65.5t25.5 66.5q4 8 8 8.5t15 -10.5q55 -57 92.5 -128t41.5 -147
q1 -20 0 -51.5t-7 -63.5t-17.5 -58.5t-31.5 -36.5q-112 -64 -229.5 -104.5t-246.5 -63.5q-129 -24 -252 -34.5t-255 3.5q-69 7 -131.5 31t-109 65t-74 99.5t-27.5 135.5q0 133 86 249q13 18 24 4q9 -12 3 -26q-18 -30 -27.5 -64.5t-11 -70t5 -69.5t22.5 -62q27 -51 72 -80
t99 -42.5t112.5 -16.5t112.5 -3q105 0 204.5 9.5t196.5 29t192.5 49.5t192.5 71q34 13 27 39q-18 60 -55 110.5t-82 95.5z" />
    <glyph glyph-name="tehfinal" unicode="&#x62a;" horiz-adv-x="1632" arabic-form="final" 
d="M190 635q6 6 11 5t8 -4.5t4 -9t-1 -8.5q-30 -52 -49.5 -109t-11.5 -117q8 -74 51.5 -122t108 -76.5t141.5 -40.5t152 -14q218 -4 421 50t397 149q6 4 11 2t3 -9q-18 -67 20 -121q22 -32 62.5 -42.5t97.5 -10.5h18q31 0 46.5 -24.5t15.5 -54t-15.5 -54t-46.5 -24.5h-18
q-115 0 -178 42.5t-88 132.5q-92 -48 -183.5 -82.5t-185.5 -57.5t-192 -35.5t-201 -16.5q-53 -2 -112.5 4.5t-117 22.5t-110 43t-93 66.5t-64 92t-23.5 120.5q-1 96 32.5 170.5t89.5 132.5zM931 692q-7 -10 -19 -1l-120 93l-77 -106q-4 -5 -8.5 -5.5t-7.5 1.5l-128 98
q-4 3 -5 5t3 7l80 115q6 10 15 4l121 -92l82 105q4 5 6 5.5t6 -2.5l128 -106q5 -6 0 -14l-76 -107v0z" />
    <glyph glyph-name="tehinitial" unicode="&#x62a;" horiz-adv-x="513" arabic-form="initial" 
d="M270 789q-7 -10 -19 -1l-120 93l-77 -106q-4 -5 -8.5 -5.5t-7.5 1.5l-128 98q-4 3 -5 5t3 7l80 115q6 10 15 4l121 -92l82 105q4 5 6 5.5t6 -2.5l128 -106q5 -6 0 -14l-76 -107v0zM239 546q4 8 8 8.5t16 -10.5q27 -28 50.5 -61t41.5 -69t28.5 -74t11.5 -76
q0 -17 -2.5 -38.5t-7 -43t-11 -41t-15.5 -32.5q-23 -36 -66 -58t-94 -33t-103.5 -14.5t-94.5 -3.5h-18q-32 0 -47.5 24.5t-15.5 54t15.5 54t47.5 24.5h18q24 0 66 0.5t88.5 4t90.5 11.5t71 23q17 9 12 26q-17 55 -50.5 97.5t-75.5 84.5q8 35 17.5 71t18.5 71z" />
    <glyph glyph-name="tehmedial" unicode="&#x62a;" horiz-adv-x="599" arabic-form="medial" 
d="M361 364q1 -11 -2 -27.5t-3 -30.5q1 -26 14 -52.5t40 -48t69.5 -35t102.5 -13.5h18q30 0 45 -24.5t15 -54t-15 -54t-45 -24.5h-18q-109 0 -176 42t-104 117q-25 -53 -61 -84.5t-75 -48t-78 -21.5t-70 -5h-18q-30 0 -45 24.5t-15 54t15 54t45 24.5h18q31 0 65 2.5
t67.5 11.5t65.5 27.5t58 50.5q20 26 33 50.5t25 56.5q1 5 5.5 8t10 4t9.5 0t4 -4zM392 618q-7 -10 -19 -1l-120 93l-77 -106q-4 -5 -8.5 -5.5t-7.5 1.5l-128 98q-4 3 -5 5t3 7l80 115q6 10 15 4l121 -92l82 105q4 5 6 5.5t6 -2.5l128 -106q5 -6 0 -14l-76 -107v0z" />
    <glyph glyph-name="thehisolated" unicode="&#x62b;" horiz-adv-x="1558" arabic-form="isolated" 
d="M853 602q-3 -5 -8.5 -4.5t-10.5 3.5l-118 92l-76 -105q-3 -5 -8 -5.5t-8 1.5l-126 97q-4 3 -5 5t3 7l79 113q4 5 7 6.5t8 -2.5l119 -91l81 104q4 5 5.5 5.5t6.5 -2.5l126 -105q8 -5 0 -14zM786 923q5 -4 4 -8t-3 -7l-82 -102q-6 -9 -17 -1l-123 100q-7 6 0 16l83 101
q6 8 15 2zM1241 560q13 32 24.5 65.5t25.5 66.5q4 8 8 8.5t15 -10.5q55 -57 92.5 -128t41.5 -147q1 -20 0 -51.5t-7 -63.5t-17.5 -58.5t-31.5 -36.5q-112 -64 -229.5 -104.5t-246.5 -63.5q-129 -24 -252 -34.5t-255 3.5q-69 7 -131.5 31t-109 65t-74 99.5t-27.5 135.5
q0 133 86 249q13 18 24 4q9 -12 3 -26q-18 -30 -27.5 -64.5t-11 -70t5 -69.5t22.5 -62q27 -51 72 -80t99 -42.5t112.5 -16.5t112.5 -3q105 0 204.5 9.5t196.5 29t192.5 49.5t192.5 71q34 13 27 39q-18 60 -55 110.5t-82 95.5z" />
    <glyph glyph-name="thehfinal" unicode="&#x62b;" horiz-adv-x="1640" arabic-form="final" 
d="M889 483q-3 -5 -8.5 -4.5t-10.5 3.5l-118 92l-76 -105q-3 -5 -8 -5.5t-8 1.5l-126 97q-4 3 -5 5t3 7l79 113q4 5 7 6.5t8 -2.5l119 -91l81 104q4 5 5.5 5.5t6.5 -2.5l126 -105q8 -5 0 -14zM822 804q5 -4 4 -8t-3 -7l-82 -102q-6 -9 -17 -1l-123 100q-7 6 0 16l83 101
q6 8 15 2zM190 635q6 6 11 5t8 -4.5t4 -9t-1 -8.5q-30 -52 -49.5 -109t-11.5 -117q8 -74 51.5 -122t108 -76.5t141.5 -40.5t152 -14q218 -4 421 50t397 149q6 4 11 2t3 -9q-18 -67 20 -121q22 -32 62.5 -42.5t97.5 -10.5h18q31 0 46.5 -24.5t15.5 -54t-15.5 -54t-46.5 -24.5
h-18q-115 0 -178 42.5t-88 132.5q-92 -48 -183.5 -82.5t-185.5 -57.5t-192 -35.5t-201 -16.5q-53 -2 -112.5 4.5t-117 22.5t-110 43t-93 66.5t-64 92t-23.5 120.5q-1 96 32.5 170.5t89.5 132.5z" />
    <glyph glyph-name="thehinitial" unicode="&#x62b;" horiz-adv-x="512" arabic-form="initial" 
d="M256 546q4 8 8 8.5t16 -10.5q27 -28 50.5 -61t41.5 -69t28.5 -74t11.5 -76q0 -17 -2.5 -38.5t-7 -43t-11 -41t-15.5 -32.5q-23 -36 -66 -58t-94 -33t-103.5 -14.5t-94.5 -3.5h-18q-32 0 -47.5 24.5t-15.5 54t15.5 54t47.5 24.5h18q24 0 66 0.5t88.5 4t90.5 11.5t71 23
q17 9 12 26q-17 55 -50.5 97.5t-75.5 84.5q8 35 17.5 71t18.5 71zM247 785q-3 -5 -8.5 -4.5t-10.5 3.5l-118 92l-76 -105q-3 -5 -8 -5.5t-8 1.5l-126 97q-4 3 -5 5t3 7l79 113q4 5 7 6.5t8 -2.5l119 -91l81 104q4 5 5.5 5.5t6.5 -2.5l126 -105q8 -5 0 -14zM180 1106
q5 -4 4 -8t-3 -7l-82 -102q-6 -9 -17 -1l-123 100q-7 6 0 16l83 101q6 8 15 2z" />
    <glyph glyph-name="thehmedial" unicode="&#x62b;" horiz-adv-x="588" arabic-form="medial" 
d="M368 597q-3 -5 -8.5 -4.5t-10.5 3.5l-118 92l-76 -105q-3 -5 -8 -5.5t-8 1.5l-126 97q-4 3 -5 5t3 7l79 113q4 5 7 6.5t8 -2.5l119 -91l81 104q4 5 5.5 5.5t6.5 -2.5l126 -105q8 -5 0 -14zM301 918q5 -4 4 -8t-3 -7l-82 -102q-6 -9 -17 -1l-123 100q-7 6 0 16l83 101
q6 8 15 2zM344 364q1 -11 -2 -27.5t-3 -30.5q1 -26 14 -52.5t40 -48t69.5 -35t102.5 -13.5h18q30 0 45 -24.5t15 -54t-15 -54t-45 -24.5h-18q-109 0 -176 42t-104 117q-25 -53 -61 -84.5t-75 -48t-78 -21.5t-70 -5h-18q-30 0 -45 24.5t-15 54t15 54t45 24.5h18q31 0 65 2.5
t67.5 11.5t65.5 27.5t58 50.5q20 26 33 50.5t25 56.5q1 5 5.5 8t10 4t9.5 0t4 -4z" />
    <glyph glyph-name="jeemisolated" unicode="&#x62c;" horiz-adv-x="1133" arabic-form="isolated" 
d="M282 704q41 1 85.5 -5.5t92.5 -14.5t98.5 -16t103.5 -10q91 -5 180.5 -1.5t180.5 12.5q9 1 8 -5q-6 -17 -14 -38t-16.5 -41.5t-17 -39t-15.5 -30.5q-74 -6 -152.5 -21t-155 -39.5t-147.5 -60t-131 -82.5q-118 -94 -175 -217.5t-57 -275.5q0 -83 30.5 -155.5t82.5 -131
t119.5 -100.5t141.5 -63q97 -28 198 -37t192 -6q47 1 98.5 5.5t104.5 9.5t104.5 9t98.5 4q12 0 12.5 -6.5t-5.5 -14.5t-15.5 -15t-18.5 -8q-59 -11 -115 -31l-112 -40t-113 -36.5t-118 -20.5q-96 -7 -189.5 2t-177 36.5t-154.5 74t-123 114.5t-81 158.5t-29 206.5
q0 113 26.5 225t78 212t126.5 181t172 132q0 6 -16 7q-45 6 -95 11t-99 2t-95 -19t-83 -52q-4 -4 -12.5 -4.5t-6.5 12.5q7 45 22.5 85t40.5 70t60 48t82 20zM749 -100q5 -4 4 -8t-3 -7l-83 -104q-6 -9 -17 -1l-124 102q-7 6 0 16l84 103q6 8 15 2z" />
    <glyph glyph-name="jeemfinal" unicode="&#x62c;" horiz-adv-x="1080" arabic-form="final" 
d="M268 554q40 1 85 -5.5t93 -14.5t98.5 -16t103.5 -10q90 -4 174.5 -0.5t175.5 11.5q10 2 8 -5q-4 -18 -11 -39t-15.5 -41t-18 -38t-18.5 -31q-24 -2 -46 -4.5t-43 -6t-43 -7.5t-47 -9q-3 -42 4.5 -71.5t21.5 -51.5q13 -20 42 -31.5t67 -17.5t81.5 -7.5t86.5 -1.5h18
q30 0 45 -24.5t15 -54t-15 -54t-45 -24.5h-18q-58 -1 -110 1t-95 13.5t-76.5 36t-54.5 68.5q-18 37 -28 86.5t-5 118.5q-85 -20 -168 -54t-152 -88q-60 -47 -105.5 -106.5t-76 -126.5t-45.5 -140.5t-15 -148.5q0 -82 30.5 -156.5t82.5 -135t119.5 -104.5t141.5 -65
q97 -27 199 -36.5t190 -6.5q47 1 97.5 5.5t101 9.5t101 9t97.5 4q12 0 13 -6.5t-5 -14.5t-15.5 -15t-18.5 -8q-59 -11 -114 -31t-109.5 -40t-110 -36.5t-115.5 -20.5q-97 -7 -191 3t-179 38.5t-157 76.5t-125 117t-82.5 160.5t-29.5 206.5q0 112 28.5 226t81.5 215.5
t129.5 184.5t172.5 134q0 5 -15 8q-46 5 -95 10t-98 2t-95 -19t-85 -52q-4 -4 -11.5 -4t-5.5 12q6 45 21 85t40.5 70t60.5 48t82 20zM674 -268q5 -4 4 -8t-3 -7l-83 -104q-6 -9 -17 -1l-124 102q-7 6 0 16l84 103q6 8 15 2z" />
    <glyph glyph-name="jeeminitial" unicode="&#x62c;" horiz-adv-x="1240" arabic-form="initial" 
d="M604 275q-27 16 -64 33.5t-77.5 33t-81.5 27.5t-77 18q-57 9 -112 -2.5t-103 -43.5q-5 -4 -11 -1.5t-6 10.5q1 10 5 24t10 28t12.5 27t12.5 21q18 24 41.5 44t51.5 33.5t59 19t63 -0.5q51 -9 104 -30t107.5 -46t110.5 -51t114 -45q84 -28 180 -42t186 -8q16 0 8 -14
q-16 -33 -35.5 -70t-42.5 -71q-48 14 -109.5 20t-134.5 2q-33 -2 -69.5 -11t-76 -22.5t-83.5 -30.5t-92 -35q-50 -18 -103 -34.5t-111.5 -29.5t-123.5 -20.5t-140 -7.5h-18q-32 0 -47.5 24.5t-15.5 54t15.5 54t47.5 24.5h18q39 -1 100 2t137.5 15.5t165.5 36.5t185 64z
M585 -317q5 -4 4 -8t-3 -7l-83 -104q-6 -9 -17 -1l-124 102q-7 6 0 16l84 103q6 8 15 2z" />
    <glyph glyph-name="jeemmedial" unicode="&#x62c;" horiz-adv-x="1269" arabic-form="medial" 
d="M670 -306q5 -4 4 -8t-3 -7l-83 -104q-6 -9 -17 -1l-124 102q-7 6 0 16l84 103q6 8 15 2zM618 361q-85 26 -166.5 47t-159.5 23q-54 1 -107 -17t-91 -58q-9 -8 -18.5 -4.5t-7.5 12.5q12 56 32.5 100t51 74t71.5 44t94 10q53 -5 105 -18.5t105 -29.5t109.5 -32.5
t118.5 -27.5q75 -14 171.5 -23.5t199.5 -4.5q11 0 8 -12q-14 -35 -31 -69t-31 -69q-18 2 -30 4t-23 3.5t-23 3t-30 2.5q-6 -41 5 -69t33.5 -46t54 -27.5t65.5 -14t68 -5t63 -0.5h18q30 0 44.5 -24.5t14.5 -54t-14.5 -54t-44.5 -24.5h-18q-85 -1 -153 6.5t-114.5 39t-69.5 95
t-17 175.5q-35 0 -75 -9t-80.5 -24.5t-80.5 -36t-75 -42.5q-74 -46 -142.5 -83.5t-139 -64.5t-145.5 -41.5t-162 -14.5h-18q-32 0 -48 24.5t-16 54t16 54t48 24.5h18q85 0 167 19t159.5 49t150.5 66t140 70z" />
    <glyph glyph-name="hahisolated" unicode="&#x62d;" horiz-adv-x="1133" arabic-form="isolated" 
d="M282 704q41 1 85.5 -5.5t92.5 -14.5t98.5 -16t103.5 -10q91 -5 180.5 -1.5t180.5 12.5q9 1 8 -5q-6 -17 -14 -38t-16.5 -41.5t-17 -39t-15.5 -30.5q-74 -6 -152.5 -21t-155 -39.5t-147.5 -60t-131 -82.5q-118 -94 -175 -217.5t-57 -275.5q0 -83 30.5 -155.5t82.5 -131
t119.5 -100.5t141.5 -63q97 -28 198 -37t192 -6q47 1 98.5 5.5t104.5 9.5t104.5 9t98.5 4q12 0 12.5 -6.5t-5.5 -14.5t-15.5 -15t-18.5 -8q-59 -11 -115 -31l-112 -40t-113 -36.5t-118 -20.5q-96 -7 -189.5 2t-177 36.5t-154.5 74t-123 114.5t-81 158.5t-29 206.5
q0 113 26.5 225t78 212t126.5 181t172 132q0 6 -16 7q-45 6 -95 11t-99 2t-95 -19t-83 -52q-4 -4 -12.5 -4.5t-6.5 12.5q7 45 22.5 85t40.5 70t60 48t82 20z" />
    <glyph glyph-name="hahfinal" unicode="&#x62d;" horiz-adv-x="1080" arabic-form="final" 
d="M268 554q40 1 85 -5.5t93 -14.5t98.5 -16t103.5 -10q90 -4 174.5 -0.5t175.5 11.5q10 2 8 -5q-4 -18 -11 -39t-15.5 -41t-18 -38t-18.5 -31q-24 -2 -46 -4.5t-43 -6t-43 -7.5t-47 -9q-3 -42 4.5 -71.5t21.5 -51.5q13 -20 42 -31.5t67 -17.5t81.5 -7.5t86.5 -1.5h18
q30 0 45 -24.5t15 -54t-15 -54t-45 -24.5h-18q-58 -1 -110 1t-95 13.5t-76.5 36t-54.5 68.5q-18 37 -28 86.5t-5 118.5q-85 -20 -168 -54t-152 -88q-60 -47 -105.5 -106.5t-76 -126.5t-45.5 -140.5t-15 -148.5q0 -82 30.5 -156.5t82.5 -135t119.5 -104.5t141.5 -65
q97 -27 199 -36.5t190 -6.5q47 1 97.5 5.5t101 9.5t101 9t97.5 4q12 0 13 -6.5t-5 -14.5t-15.5 -15t-18.5 -8q-59 -11 -114 -31t-109.5 -40t-110 -36.5t-115.5 -20.5q-97 -7 -191 3t-179 38.5t-157 76.5t-125 117t-82.5 160.5t-29.5 206.5q0 112 28.5 226t81.5 215.5
t129.5 184.5t172.5 134q0 5 -15 8q-46 5 -95 10t-98 2t-95 -19t-85 -52q-4 -4 -11.5 -4t-5.5 12q6 45 21 85t40.5 70t60.5 48t82 20z" />
    <glyph glyph-name="hahinitial" unicode="&#x62d;" horiz-adv-x="1240" arabic-form="initial" 
d="M604 275q-27 16 -64 33.5t-77.5 33t-81.5 27.5t-77 18q-57 9 -112 -2.5t-103 -43.5q-5 -4 -11 -1.5t-6 10.5q1 10 5 24t10 28t12.5 27t12.5 21q18 24 41.5 44t51.5 33.5t59 19t63 -0.5q51 -9 104 -30t107.5 -46t110.5 -51t114 -45q84 -28 180 -42t186 -8q16 0 8 -14
q-16 -33 -35.5 -70t-42.5 -71q-48 14 -109.5 20t-134.5 2q-33 -2 -69.5 -11t-76 -22.5t-83.5 -30.5t-92 -35q-50 -18 -103 -34.5t-111.5 -29.5t-123.5 -20.5t-140 -7.5h-18q-32 0 -47.5 24.5t-15.5 54t15.5 54t47.5 24.5h18q39 -1 100 2t137.5 15.5t165.5 36.5t185 64z" />
    <glyph glyph-name="hahmedial" unicode="&#x62d;" horiz-adv-x="1284" arabic-form="medial" 
d="M634 361q-85 26 -166.5 47t-159.5 23q-54 1 -107 -17t-91 -58q-9 -8 -18.5 -4.5t-7.5 12.5q12 56 32.5 100t51 74t71.5 44t94 10q53 -5 105 -18.5t105 -29.5t109.5 -32.5t118.5 -27.5q75 -14 171.5 -23.5t199.5 -4.5q11 0 8 -12q-14 -35 -31 -69t-31 -69q-18 2 -30 4
t-23 3.5t-23 3t-30 2.5q-6 -41 5 -69t33.5 -46t54 -27.5t65.5 -14t68 -5t63 -0.5h18q30 0 44.5 -24.5t14.5 -54t-14.5 -54t-44.5 -24.5h-18q-85 -1 -153 6.5t-114.5 39t-69.5 95t-17 175.5q-35 0 -75 -9t-80.5 -24.5t-80.5 -36t-75 -42.5q-74 -46 -142.5 -83.5t-139 -64.5
t-145.5 -41.5t-162 -14.5h-18q-32 0 -48 24.5t-16 54t16 54t48 24.5h18q85 0 167 19t159.5 49t150.5 66t140 70z" />
    <glyph glyph-name="khahisolated" unicode="&#x62e;" horiz-adv-x="1142" arabic-form="isolated" 
d="M648 1037q5 -4 4 -8t-3 -7l-83 -104q-6 -9 -17 -1l-124 102q-7 6 0 16l84 103q6 8 15 2zM282 704q41 1 85.5 -5.5t92.5 -14.5t98.5 -16t103.5 -10q91 -5 180.5 -1.5t180.5 12.5q9 1 8 -5q-6 -17 -14 -38t-16.5 -41.5t-17 -39t-15.5 -30.5q-74 -6 -152.5 -21t-155 -39.5
t-147.5 -60t-131 -82.5q-118 -94 -175 -217.5t-57 -275.5q0 -83 30.5 -155.5t82.5 -131t119.5 -100.5t141.5 -63q97 -28 198 -37t192 -6q47 1 98.5 5.5t104.5 9.5t104.5 9t98.5 4q12 0 12.5 -6.5t-5.5 -14.5t-15.5 -15t-18.5 -8q-59 -11 -115 -31l-112 -40t-113 -36.5
t-118 -20.5q-96 -7 -189.5 2t-177 36.5t-154.5 74t-123 114.5t-81 158.5t-29 206.5q0 113 26.5 225t78 212t126.5 181t172 132q0 6 -16 7q-45 6 -95 11t-99 2t-95 -19t-83 -52q-4 -4 -12.5 -4.5t-6.5 12.5q7 45 22.5 85t40.5 70t60 48t82 20z" />
    <glyph glyph-name="khahfinal" unicode="&#x62e;" horiz-adv-x="1082" arabic-form="final" 
d="M703 908q5 -4 4 -8t-3 -7l-83 -104q-6 -9 -17 -1l-124 102q-7 6 0 16l84 103q6 8 15 2zM268 554q40 1 85 -5.5t93 -14.5t98.5 -16t103.5 -10q90 -4 174.5 -0.5t175.5 11.5q10 2 8 -5q-4 -18 -11 -39t-15.5 -41t-18 -38t-18.5 -31q-24 -2 -46 -4.5t-43 -6t-43 -7.5t-47 -9
q-3 -42 4.5 -71.5t21.5 -51.5q13 -20 42 -31.5t67 -17.5t81.5 -7.5t86.5 -1.5h18q30 0 45 -24.5t15 -54t-15 -54t-45 -24.5h-18q-58 -1 -110 1t-95 13.5t-76.5 36t-54.5 68.5q-18 37 -28 86.5t-5 118.5q-85 -20 -168 -54t-152 -88q-60 -47 -105.5 -106.5t-76 -126.5
t-45.5 -140.5t-15 -148.5q0 -82 30.5 -156.5t82.5 -135t119.5 -104.5t141.5 -65q97 -27 199 -36.5t190 -6.5q47 1 97.5 5.5t101 9.5t101 9t97.5 4q12 0 13 -6.5t-5 -14.5t-15.5 -15t-18.5 -8q-59 -11 -114 -31t-109.5 -40t-110 -36.5t-115.5 -20.5q-97 -7 -191 3t-179 38.5
t-157 76.5t-125 117t-82.5 160.5t-29.5 206.5q0 112 28.5 226t81.5 215.5t129.5 184.5t172.5 134q0 5 -15 8q-46 5 -95 10t-98 2t-95 -19t-85 -52q-4 -4 -11.5 -4t-5.5 12q6 45 21 85t40.5 70t60.5 48t82 20z" />
    <glyph glyph-name="khahinitial" unicode="&#x62e;" horiz-adv-x="1238" arabic-form="initial" 
d="M702 833q5 -4 4 -8t-3 -7l-83 -104q-6 -9 -17 -1l-124 102q-7 6 0 16l84 103q6 8 15 2zM589 275q-27 16 -64 33.5t-77.5 33t-81.5 27.5t-77 18q-57 9 -112 -2.5t-103 -43.5q-5 -4 -11 -1.5t-6 10.5q1 10 5 24t10 28t12.5 27t12.5 21q18 24 41.5 44t51.5 33.5t59 19
t63 -0.5q51 -9 104 -30t107.5 -46t110.5 -51t114 -45q84 -28 180 -42t186 -8q16 0 8 -14q-16 -33 -35.5 -70t-42.5 -71q-48 14 -109.5 20t-134.5 2q-33 -2 -69.5 -11t-76 -22.5t-83.5 -30.5t-92 -35q-50 -18 -103 -34.5t-111.5 -29.5t-123.5 -20.5t-140 -7.5h-18
q-32 0 -47.5 24.5t-15.5 54t15.5 54t47.5 24.5h18q39 -1 100 2t137.5 15.5t165.5 36.5t185 64z" />
    <glyph glyph-name="khahmedial" unicode="&#x62e;" horiz-adv-x="1273" arabic-form="medial" 
d="M746 869q5 -4 4 -8t-3 -7l-83 -104q-6 -9 -17 -1l-124 102q-7 6 0 16l84 103q6 8 15 2zM618 361q-85 26 -166.5 47t-159.5 23q-54 1 -107 -17t-91 -58q-9 -8 -18.5 -4.5t-7.5 12.5q12 56 32.5 100t51 74t71.5 44t94 10q53 -5 105 -18.5t105 -29.5t109.5 -32.5
t118.5 -27.5q75 -14 171.5 -23.5t199.5 -4.5q11 0 8 -12q-14 -35 -31 -69t-31 -69q-18 2 -30 4t-23 3.5t-23 3t-30 2.5q-6 -41 5 -69t33.5 -46t54 -27.5t65.5 -14t68 -5t63 -0.5h18q30 0 44.5 -24.5t14.5 -54t-14.5 -54t-44.5 -24.5h-18q-85 -1 -153 6.5t-114.5 39t-69.5 95
t-17 175.5q-35 0 -75 -9t-80.5 -24.5t-80.5 -36t-75 -42.5q-74 -46 -142.5 -83.5t-139 -64.5t-145.5 -41.5t-162 -14.5h-18q-32 0 -48 24.5t-16 54t16 54t48 24.5h18q85 0 167 19t159.5 49t150.5 66t140 70z" />
    <glyph glyph-name="dalisolated" unicode="&#x62f;" horiz-adv-x="754" arabic-form="isolated" 
d="M272 597q0 32 -0.5 63.5t5.5 71.5q3 16 14.5 18t25.5 -3q67 -20 127.5 -69t107 -112t76 -133.5t35.5 -133.5q2 -24 -0.5 -55t-8.5 -61t-15.5 -54.5t-22.5 -34.5q-34 -27 -85 -46t-108.5 -31t-116.5 -17.5t-110 -5.5q-12 0 -30 2t-35.5 7t-29.5 15t-12 26q0 6 1 29
t2.5 48.5t4.5 45.5t8 20q3 0 5 -4t6 -7q16 -12 40.5 -17.5t51.5 -7t53 -0.5t46 2q35 2 72.5 7.5t73.5 13.5t68 18.5t55 22.5q10 5 19 12.5t11 13.5q-9 53 -41.5 111t-79 108.5t-102.5 88t-111 48.5z" />
    <glyph glyph-name="dalfinal" unicode="&#x62f;" horiz-adv-x="992" arabic-form="final" 
d="M524 652q7 34 14 62.5t15 54.5q3 12 11.5 13t12.5 -12q4 -12 9 -30.5t11 -40.5t11.5 -44t10.5 -41q20 -75 42 -149.5t51 -137.5q40 -86 100.5 -128t160.5 -42h18q32 0 48 -24.5t16 -54t-16 -54t-48 -24.5h-18q-56 0 -103 10.5t-87.5 38.5t-75 76.5t-64.5 123.5
q-20 -67 -64 -108t-98 -67q-19 -9 -48.5 -18t-63.5 -16t-71 -11t-71 -2.5t-62.5 9t-45.5 23.5q-15 14 -21.5 38t-7 50.5t4.5 52t13 43.5q3 7 8.5 6.5t8.5 -6.5q17 -32 40.5 -44t55.5 -15q31 -3 69 -1t78 9.5t79.5 19t73 27.5t58.5 36t37 44q-26 85 -48 165t-44 168z" />
    <glyph glyph-name="thalisolated" unicode="&#x630;" horiz-adv-x="815" arabic-form="isolated" 
d="M333 597q0 32 -0.5 63.5t5.5 71.5q3 16 14.5 18t25.5 -3q67 -20 127.5 -69t107 -112t76 -133.5t35.5 -133.5q2 -24 -0.5 -55t-8.5 -61t-15.5 -54.5t-22.5 -34.5q-34 -27 -85 -46t-108.5 -31t-116.5 -17.5t-110 -5.5q-12 0 -30 2t-35.5 7t-29.5 15t-12 26q0 6 1 29
t2.5 48.5t4.5 45.5t8 20q3 0 5 -4t6 -7q16 -12 40.5 -17.5t51.5 -7t53 -0.5t46 2q35 2 72.5 7.5t73.5 13.5t68 18.5t55 22.5q10 5 19 12.5t11 13.5q-9 53 -41.5 111t-79 108.5t-102.5 88t-111 48.5zM390 1008q5 -4 4 -8t-3 -7l-83 -104q-6 -9 -17 -1l-124 102q-7 6 0 16
l84 103q6 8 15 2z" />
    <glyph glyph-name="thalfinal" unicode="&#x630;" horiz-adv-x="1060" arabic-form="final" 
d="M588 1132q5 -4 4 -8t-3 -7l-83 -104q-6 -9 -17 -1l-124 102q-7 6 0 16l84 103q6 8 15 2zM584 652q7 34 14 62.5t15 54.5q3 12 11.5 13t12.5 -12q4 -12 9 -30.5t11 -40.5t11.5 -44t10.5 -41q20 -75 42 -149.5t51 -137.5q40 -86 100.5 -128t160.5 -42h18q32 0 48 -24.5
t16 -54t-16 -54t-48 -24.5h-18q-56 0 -103 10.5t-87.5 38.5t-75 76.5t-64.5 123.5q-20 -67 -64 -108t-98 -67q-19 -9 -48.5 -18t-63.5 -16t-71 -11t-71 -2.5t-62.5 9t-45.5 23.5q-15 14 -21.5 38t-7 50.5t4.5 52t13 43.5q3 7 8.5 6.5t8.5 -6.5q17 -32 40.5 -44t55.5 -15
q31 -3 69 -1t78 9.5t79.5 19t73 27.5t58.5 36t37 44q-26 85 -48 165t-44 168z" />
    <glyph glyph-name="rehisolated" unicode="&#x631;" horiz-adv-x="766" arabic-form="isolated" 
d="M474 431q5 14 20 0q40 -39 73.5 -90.5t56.5 -109.5t34 -118t5 -115q-5 -46 -20 -97.5t-38.5 -102.5t-54.5 -99t-67 -88t-77 -69.5t-85 -43.5q-54 -18 -116.5 -23t-125.5 -0.5t-123.5 16.5t-110.5 27q-12 3 -15.5 10.5t-1 15t10 12.5t17.5 4q59 -7 119 -3t119 17.5
t115.5 36t107.5 52.5q46 27 90 65t82 82t68.5 94t50.5 101q-4 29 -23.5 69t-45 80.5t-52.5 76t-46 56.5q8 42 15.5 74.5t17.5 69.5z" />
    <glyph glyph-name="rehfinal" unicode="&#x631;" horiz-adv-x="820" arabic-form="final" 
d="M510 267q4 11 9.5 4.5t9.5 -10.5q30 -39 65.5 -60.5t71.5 -31t71.5 -11t65.5 -1.5h18q32 0 48 -24.5t16 -54t-16 -54t-48 -24.5h-18q-9 0 -25.5 0.5t-36 1.5t-39.5 3t-34 5q-13 -71 -32 -131t-38.5 -106t-36.5 -76.5t-26 -42.5q-36 -49 -78.5 -83t-88.5 -55.5
t-94.5 -32.5t-97.5 -14q-72 -5 -156.5 5t-175.5 48q-13 6 -17.5 13.5t0 14t18.5 9.5t37 0q121 -14 226 9.5t205 77.5q122 66 192.5 164t99.5 211q-38 16 -74 44t-59 58q7 33 16.5 70t21.5 74z" />
    <glyph glyph-name="zainisolated" unicode="&#x632;" horiz-adv-x="809" arabic-form="isolated" 
d="M362 636q5 -4 4 -8t-3 -7l-83 -104q-6 -9 -17 -1l-124 102q-7 6 0 16l84 103q6 8 15 2zM474 431q5 14 20 0q40 -39 73.5 -90.5t56.5 -109.5t34 -118t5 -115q-5 -46 -20 -97.5t-38.5 -102.5t-54.5 -99t-67 -88t-77 -69.5t-85 -43.5q-54 -18 -116.5 -23t-125.5 -0.5
t-123.5 16.5t-110.5 27q-12 3 -15.5 10.5t-1 15t10 12.5t17.5 4q59 -7 119 -3t119 17.5t115.5 36t107.5 52.5q46 27 90 65t82 82t68.5 94t50.5 101q-4 29 -23.5 69t-45 80.5t-52.5 76t-46 56.5q8 42 15.5 74.5t17.5 69.5z" />
    <glyph glyph-name="zainfinal" unicode="&#x632;" horiz-adv-x="832" arabic-form="final" 
d="M415 493q5 -4 4 -8t-3 -7l-83 -104q-6 -9 -17 -1l-124 102q-7 6 0 16l84 103q6 8 15 2zM510 267q4 11 9.5 4.5t9.5 -10.5q30 -39 65.5 -60.5t71.5 -31t71.5 -11t65.5 -1.5h18q32 0 48 -24.5t16 -54t-16 -54t-48 -24.5h-18q-9 0 -25.5 0.5t-36 1.5t-39.5 3t-34 5
q-13 -71 -32 -131t-38.5 -106t-36.5 -76.5t-26 -42.5q-36 -49 -78.5 -83t-88.5 -55.5t-94.5 -32.5t-97.5 -14q-72 -5 -156.5 5t-175.5 48q-13 6 -17.5 13.5t0 14t18.5 9.5t37 0q121 -14 226 9.5t205 77.5q122 66 192.5 164t99.5 211q-38 16 -74 44t-59 58q7 33 16.5 70
t21.5 74z" />
    </font>
</defs>
</svg>
